<svg width="148" height="116" viewBox="0 0 148 116" fill="none" xmlns="http://www.w3.org/2000/svg">
<g clip-path="url(#clip0_1847_790)">
<path d="M105.69 77.0601H19.3482C15.2611 77.0601 11.9463 73.7453 11.9463 69.6582V18.1331C11.9463 14.046 15.2611 10.7312 19.3482 10.7312H105.69C109.777 10.7312 113.092 14.046 113.092 18.1331V69.6582C113.092 73.7453 109.777 77.0601 105.69 77.0601Z" fill="#002D48"/>
<path d="M17.6328 69.2208H107.415V16.2853H17.6328V69.2208Z" fill="#37BAB3"/>
<path d="M0.912598 72.5782H124.135C124.135 72.5782 124.135 81.9037 111.83 81.0546H13.2986C13.2986 81.0546 0.912598 81.5391 0.912598 72.5782Z" fill="#005F60"/>
<path d="M74.8977 76.8439H50.1449C49.2527 76.8439 48.5283 76.1195 48.5283 75.2273H76.5191C76.5191 76.1195 75.7948 76.8439 74.8977 76.8439Z" fill="#002D48"/>
<path d="M107.415 16.2842L17.6328 69.2197V16.2842H107.415Z" fill="#5AF4E7"/>
<path fill-rule="evenodd" clip-rule="evenodd" d="M129.892 82.7389C129.892 81.6913 129.041 80.8408 127.994 80.8408H22.5407C21.494 80.8408 20.6431 81.6913 20.6431 82.7389V93.4784C20.6431 94.526 21.494 95.3765 22.5407 95.3765H127.994C129.041 95.3765 129.892 94.526 129.892 93.4784V82.7389Z" fill="#FF946F"/>
<path fill-rule="evenodd" clip-rule="evenodd" d="M124.19 88.1064C124.19 87.0455 123.329 86.1818 122.268 86.1818H28.2677C27.2068 86.1818 26.3452 87.0433 26.3452 88.1064C26.3452 89.1673 27.2068 90.0288 28.2677 90.0288H122.264C123.325 90.0311 124.19 89.1695 124.19 88.1064Z" fill="#FFDDBF"/>
<path fill-rule="evenodd" clip-rule="evenodd" d="M117.41 97.2703C117.41 96.2227 116.559 95.3722 115.513 95.3722H10.0592C9.01251 95.3722 8.16162 96.2227 8.16162 97.2703V108.01C8.16162 109.057 9.01251 109.908 10.0592 109.908H115.513C116.559 109.908 117.41 109.057 117.41 108.01V97.2703Z" fill="#00D99C"/>
<path fill-rule="evenodd" clip-rule="evenodd" d="M111.709 102.642C111.709 101.581 110.847 100.717 109.786 100.717H15.7897C14.7288 100.717 13.8672 101.579 13.8672 102.642C13.8672 103.703 14.7288 104.564 15.7897 104.564H109.786C110.847 104.564 111.709 103.703 111.709 102.642Z" fill="#7CE7C0"/>
<path fill-rule="evenodd" clip-rule="evenodd" d="M64.6182 2.8114L64.8026 12.9993C64.8026 12.9993 99.9356 18.8104 114.488 15.9171L115.369 3.64741L64.6182 2.8114Z" fill="#005F60"/>
<path d="M52.4981 6.1204L140.199 2.83728L140.093 0.00150856L52.3919 3.28462L52.4981 6.1204Z" fill="#002D48"/>
<path d="M139.342 1.16018C139.33 1.13559 139.252 0.967566 139.412 0.988056C139.551 1.02904 139.387 0.967565 139.723 1.43885C139.723 1.43885 140.248 3.66412 140.416 5.96725C140.526 7.51633 140.543 9.06542 140.547 10.6186L140.526 10.9505C141.473 11.1923 142.043 12.2455 142.477 12.9422C142.662 13.2455 142.809 13.5651 142.932 13.8971C143.03 14.1676 143.104 14.4421 143.166 14.7249C143.207 14.9298 143.239 15.1347 143.264 15.3437C143.28 15.5117 143.293 15.6798 143.297 15.8437C143.313 16.5363 143.178 17.2862 142.862 17.9255C143.948 20.5032 146.075 22.749 146.907 24.9292C147.202 25.7037 147.272 27.2733 146.083 26.8348C144.764 26.3471 144.006 24.4005 143.563 23.1424C143.239 22.2285 142.998 21.2901 142.756 20.3516C142.756 20.3516 142.514 19.5115 142.289 18.7451C142.17 18.864 142.039 18.9746 141.895 19.0689C142.297 21.1466 142.961 23.1588 143.694 25.1751C143.694 25.1751 145.604 29.5191 143.465 28.9494C142.846 28.7855 142.608 28.2609 142.42 27.7855C142.145 27.0192 142.1 26.8348 141.985 26.2979C141.502 24.0809 141.268 21.7941 141.092 19.532C141.092 19.532 141.088 19.4992 141.076 19.4377C140.99 19.4582 140.903 19.4746 140.813 19.491C140.649 19.5156 140.485 19.5279 140.317 19.532C140.387 19.827 140.453 20.1221 140.514 20.4172L140.526 20.4745C140.727 21.6589 140.875 22.8555 140.973 24.0563C141.1 25.5603 141.653 27.1176 141.342 28.5724C141.129 29.56 140.703 28.933 140.703 28.933C140.391 28.7773 140.555 28.9453 140.281 28.3921C140.117 28.0601 139.916 27.638 139.916 27.638C139.797 27.4167 139.809 27.3716 139.768 27.2446C139.686 26.9987 139.604 26.7487 139.522 26.5028C139.19 25.4578 139.17 25.007 139.1 24.3063C138.945 22.6916 139.002 21.0565 139.055 19.4459C139.055 19.4008 139.059 19.3598 139.059 19.3189C138.916 19.2656 138.777 19.2041 138.645 19.1345C138.58 19.9336 138.367 22.6629 138.301 24.9702C138.301 24.9702 138.4 26.5438 138.326 27.2077C138.273 27.6913 138.174 28.2527 137.707 28.4085C136.842 28.6953 136.748 26.9331 136.814 25.6832C136.875 24.7571 136.973 23.5112 136.973 23.5112C137.174 21.79 137.477 20.0688 137.666 18.3681C137.248 17.8763 136.977 17.2493 136.957 16.5117C136.9 14.4462 137.436 12.4054 139.072 11.1473C139.125 11.1432 139.178 11.1432 139.231 11.1391C139.486 11.1227 139.395 11.1432 139.436 11.1677C139.436 11.1677 139.445 11.1636 139.457 11.1554L139.424 10.7292C139.424 10.3317 139.424 9.93421 139.424 9.5408C139.412 7.34011 139.178 5.15992 139.027 2.92646C138.957 1.89374 139.104 2.06176 139.117 1.95111C139.207 0.955271 139.326 1.13149 139.342 1.16018ZM139.494 1.111L139.436 1.19296C139.436 1.19296 139.506 1.07821 139.494 1.111Z" fill="#FAE397"/>
<path d="M113.903 21.7969C114.221 22.2168 114.47 22.6812 114.619 23.13C114.779 23.6076 114.903 24.092 115.034 24.5675C114.572 23.6921 114.319 22.7056 113.903 21.7969ZM118.242 29.0443C118.662 27.1603 116.705 26.3982 116.227 25.6406C115.785 24.9385 115.807 24.0853 115.61 23.2877C115.31 22.0746 114.694 21.0437 113.719 20.2483C112.655 19.3796 111.588 19.2063 110.6 19.4818C109.538 19.3752 108.422 19.7218 107.654 20.4705C107.083 21.0259 106.691 21.7702 106.021 22.199C105.185 22.7345 104.076 22.6789 103.241 23.2144C101.975 24.0276 101.981 26.2071 103.254 27.0114C103.632 27.2491 104.11 27.4047 104.303 27.8068C104.479 28.169 104.352 28.5955 104.301 28.9955C104.179 29.9619 104.55 30.9795 105.27 31.6394C105.987 32.2992 107.034 32.5814 107.987 32.3748C108.287 32.3103 108.609 32.2015 108.891 32.3259C109.144 32.4392 109.282 32.7058 109.435 32.9391C109.997 33.8012 110.995 34.3633 112.024 34.3988C113.052 34.4344 114.086 33.9411 114.705 33.1191C115.048 32.668 115.263 32.1348 115.559 31.6505C116.234 30.5529 117.811 30.9795 118.242 29.0443Z" fill="#FF936F"/>
<path d="M109.768 43.0486C109.799 43.093 109.83 43.1375 109.862 43.1841C109.817 43.1797 109.775 43.1819 109.731 43.1952C109.719 43.1219 109.708 43.0486 109.697 42.9753C109.719 42.9997 109.744 43.0219 109.768 43.0486ZM107.973 61.0939C107.964 61.0805 107.958 61.0694 107.949 61.0561C107.951 61.045 107.955 61.0361 107.96 61.025C107.964 61.0494 107.969 61.0716 107.973 61.0939ZM108.466 39.1627C108.133 39.7182 108.415 40.7424 108.406 40.7402C108.055 40.638 107.024 42.8598 106.951 43.4108C106.767 44.806 106.889 46.3013 106.882 47.7099C106.88 48.0432 106.878 48.3764 106.876 48.7097C106.869 49.7673 107.624 70.6853 107.624 70.6853C107.642 71.0185 107.9 71.2674 108.184 71.2229C108.377 71.1918 108.535 71.0341 108.586 70.8141C109.031 68.9412 111.899 58.981 110.144 55.0218C110.144 55.0218 111.563 51.3558 112.159 49.4295C112.823 47.2878 114.372 44.5683 113.483 42.5443C112.381 40.0292 109.95 39.6893 108.466 39.1627Z" fill="#FFA37F"/>
<path fill-rule="evenodd" clip-rule="evenodd" d="M112.709 30.2565C110.295 30.1596 109.637 35.9497 101.667 31.9861C99.7199 31.0178 97.4994 29.6955 97.1421 30.1596C96.344 31.1881 98.5479 32.5371 100.585 33.6657C106.058 36.6943 110.676 35.8395 112.98 32.831C112.983 32.831 114.636 30.3333 112.709 30.2565Z" fill="#FCBB8B"/>
<path fill-rule="evenodd" clip-rule="evenodd" d="M98.6377 31.3259C98.6711 31.2698 98.7358 31.3383 98.7378 31.335C98.755 31.3061 98.4902 30.8415 98.4793 30.7474C98.4541 30.5365 98.5383 30.2226 98.5725 30.0126C98.6177 29.74 98.8035 29.4408 98.6826 29.1612C98.6624 29.1146 98.5643 28.9132 98.4725 28.9344C98.2026 28.9968 98.1807 29.5437 98.1215 29.7434C98.1113 29.7765 98.1229 29.9862 98.1062 29.9901C98.0338 30.0068 97.7331 29.7512 97.7071 29.7264C97.3702 29.3986 97.1802 28.9695 96.8905 28.603C96.8335 28.5297 96.5693 28.1324 96.447 28.2368C96.3508 28.3176 96.4532 28.4756 96.4872 28.5673C96.625 28.9353 96.8141 29.2533 97.0146 29.5965C97.0736 29.6986 97.1304 29.8085 97.1985 29.9113C97.2262 29.9533 97.3259 30.0635 97.2817 30.0371C96.7123 29.6971 96.3576 29.0015 95.892 28.5438C95.795 28.449 95.4647 28.1343 95.3214 28.2539C95.1877 28.3653 95.3727 28.5818 95.4383 28.6808C95.7285 29.119 96.0447 29.5175 96.4095 29.8989C96.5337 30.0284 96.7918 30.2792 96.7918 30.2792C96.7918 30.2792 96.6485 30.1937 96.576 30.1504C96.4717 30.0881 96.3519 30.0074 96.2547 29.9332C95.8804 29.6522 95.5311 29.3492 95.1279 29.1085C95.0341 29.0525 94.8248 28.8929 94.7119 28.9615C94.5762 29.0441 94.8752 29.2987 94.9318 29.3486C95.3613 29.7179 95.8074 30.0718 96.2453 30.4392C96.343 30.5206 96.4882 30.6349 96.5944 30.6983C96.6669 30.7416 96.8808 30.8693 96.8101 30.8271C96.3609 30.5589 95.9094 30.2825 95.4384 30.0589C95.394 30.037 94.9268 29.7949 94.9223 29.9029C94.9059 30.1996 95.5916 30.5859 95.7848 30.7243C96.6687 31.3533 97.9641 32.2211 98.9237 32.446" fill="#FFBE94"/>
<path d="M111.326 29.6855C111.326 29.6943 111.328 29.7032 111.328 29.7121C111.341 29.7521 111.352 29.7921 111.361 29.8343C111.381 29.8299 111.401 29.8254 111.424 29.8232C111.408 29.7321 111.388 29.6388 111.366 29.5433C111.357 29.5899 111.344 29.6388 111.326 29.6855ZM113.105 33.7424C113.105 33.7491 113.108 33.7557 113.108 33.7624C113.11 33.7491 113.112 33.7357 113.114 33.7224C113.112 33.7291 113.11 33.7358 113.105 33.7424ZM111.559 31.8606C111.564 31.8539 111.568 31.8495 111.572 31.8428C111.544 31.845 111.515 31.8472 111.486 31.8495C111.51 31.8517 111.535 31.8561 111.559 31.8606ZM107.651 42.8672C108.146 41.6253 108.02 40.4477 108.235 39.1747C109.353 37.3017 109.213 35.9264 108.904 35.0533C108.904 35.0533 108.086 34.3134 108.011 33.7846C107.935 33.2625 109.404 31.805 110.042 30.1876C109.653 29.561 109.36 28.8256 109.117 28.2013C108.995 27.8814 109.333 27.4926 109.666 27.657C109.913 27.7769 110.128 27.9258 110.317 28.0991C110.406 28.0991 110.493 28.1213 110.562 28.1835C110.59 28.208 110.615 28.2346 110.642 28.2613C110.722 28.2657 110.797 28.2902 110.857 28.3435C110.937 28.4124 111.01 28.4879 111.075 28.5679C110.908 28.1302 110.695 27.7281 110.437 27.4703C110.224 27.2593 110.464 26.9549 110.722 27.1037C111.435 27.5214 111.692 28.2768 111.972 29.01C112.048 29.21 112.137 29.4388 112.206 29.6788C113.001 29.5588 113.17 29.8077 113.816 30.4098C116.034 32.4782 113.67 35.4376 113.588 37.3972C113.505 39.3857 114.283 40.19 113.37 41.9608C112.963 42.7517 112.628 43.2405 111.726 43.376C110.51 43.5582 109.246 43.536 108.022 43.516C107.711 43.5138 107.547 43.125 107.651 42.8672Z" fill="#FFA37F"/>
<path d="M111.137 43.0697C111.175 43.1097 111.213 43.1497 111.248 43.1919C111.204 43.1941 111.162 43.203 111.12 43.2208C111.1 43.1497 111.077 43.0786 111.055 43.0075C111.084 43.0275 111.111 43.0497 111.137 43.0697ZM111.915 61.1883L111.886 61.1549C111.888 61.1438 111.891 61.1349 111.893 61.1238C111.899 61.1438 111.908 61.1661 111.915 61.1883ZM109.3 39.4082C109.049 40.0059 109.471 40.979 109.464 40.979C109.102 40.9257 108.396 43.2719 108.402 43.8273C108.416 45.2337 108.751 46.6979 108.942 48.0931C108.989 48.4219 109.033 48.753 109.078 49.084C109.222 50.1327 112.928 70.733 112.928 70.733C112.993 71.0618 113.284 71.2707 113.559 71.1863C113.746 71.1285 113.879 70.9485 113.899 70.7264C114.075 68.8112 115.505 58.5421 113.206 54.8718C113.206 54.8718 114.092 51.0436 114.41 49.0507C114.763 46.8378 115.912 43.9251 114.748 42.0477C113.299 39.7126 110.844 39.7193 109.3 39.4082Z" fill="#FCBB8B"/>
<path d="M108.642 38.3975C108.642 38.3975 109.302 36.7823 108.904 35.056C108.904 35.056 107.784 34.2539 107.769 33.3741L110.044 30.1903L109.839 29.8348L111.901 28.8195L112.208 29.6815C112.208 29.6815 113.279 29.0883 114.321 31.0079C115.363 32.9275 114.689 33.6896 114.321 34.7605C113.952 35.8314 113.25 37.4133 113.794 38.7064L108.642 38.3975Z" fill="#FFFFFB"/>
<path d="M107.587 27.6269C108.407 29.3999 109.674 28.9867 110.567 28.74C111.9 28.3735 114.81 25.4963 113.988 23.7233C113.168 21.9503 110.387 21.8681 109.131 22.4502C107.876 23.0323 106.765 25.854 107.587 27.6269Z" fill="#FCBB8B"/>
<path d="M107.425 25.1529C107.425 25.1529 108.247 24.884 109.333 23.5954C110.42 22.3068 110.919 22.1846 111.395 22.6112C111.395 22.6112 112.499 22.2846 112.406 23.3532C112.313 24.4197 111.941 26.8481 113.059 27.5768L114.823 23.5821C114.823 23.5821 111.993 21.1737 109.973 21.3159C107.953 21.4603 106.609 23.3621 107.425 25.1529Z" fill="#FF936F"/>
<path d="M108.689 27.0975C108.917 27.0197 109.108 26.7597 109.228 26.5576C109.366 26.3243 109.424 26.0821 109.406 25.8133C109.388 25.5044 108.969 25.5467 108.866 25.7688C108.795 25.9244 108.729 26.0843 108.64 26.231C108.544 26.3865 108.395 26.4909 108.3 26.6442C108.126 26.9242 108.409 27.1952 108.689 27.0975Z" fill="#FF9B7A"/>
<path d="M108.238 24.9146C107.869 24.908 107.484 25.2524 107.422 25.6256C107.347 25.8189 107.318 26.0544 107.498 26.1966C107.5 26.1988 107.502 26.1988 107.504 26.2011C107.569 26.2855 107.66 26.3477 107.784 26.3632C108.042 26.3966 108.3 26.2055 108.464 26.0278C108.613 25.8656 108.74 25.6278 108.735 25.4034C108.731 25.119 108.515 24.9191 108.238 24.9146Z" fill="#FF9B7A"/>
<path d="M111.115 25.8771C111.068 25.7594 110.988 25.6549 110.864 25.5772C110.573 25.3994 110.208 25.5061 110.004 25.7638C109.826 25.9882 109.782 26.3392 109.808 26.617C109.842 26.9636 110.099 27.2746 110.473 27.2368C110.75 27.2102 111.037 27.028 111.188 26.7969C111.384 26.5037 111.366 26.1304 111.115 25.8771Z" fill="#FF9B7A"/>
<path d="M114.016 22.6673C114.096 23.2294 114.247 23.7826 114.4 24.3292L115.213 23.987C114.96 23.4271 114.716 22.8606 114.44 22.3096C114.176 21.7808 113.323 22.2696 113.645 22.7739C113.883 23.1494 114.009 23.6449 114.151 24.0626C114.218 24.2581 114.56 24.3092 114.6 24.0626C114.645 23.7826 114.676 23.5449 114.645 23.2583C114.614 22.9739 114.534 22.7006 114.485 22.4185C114.205 22.5362 113.923 22.6562 113.643 22.7739C113.892 23.336 114.174 23.8826 114.445 24.4336C114.665 24.8802 115.431 24.5669 115.258 24.0915C115.054 23.5293 114.845 22.9628 114.567 22.434C114.396 22.1074 113.974 22.3562 114.016 22.6673Z" fill="#FF936F"/>
<path d="M108.957 70.8904C108.957 70.8904 109.232 70.9504 108.997 71.8658C108.997 71.8658 108.635 72.2368 107.908 72.1146C107.184 71.9946 103.451 72.8722 102.485 72.299C102.485 72.299 102.414 71.3037 103.849 71.3481C105.284 71.3925 107.144 69.9728 107.28 69.9617C107.415 69.9528 107.468 70.3128 107.208 70.5127C107.208 70.5127 107.375 70.5438 107.722 70.4461C108.073 70.3483 108.455 71.0926 108.957 70.8904Z" fill="#002D48"/>
<path d="M102.412 72.0726C102.426 72.0459 102.49 72.0192 102.523 72.0304L102.506 72.0948C102.668 72.1837 103.021 72.3325 103.59 72.3281C104.407 72.3214 106.86 72.0615 107.307 71.9793C107.736 71.9015 108.318 72.1015 109.022 71.7526C109.022 71.7526 109.031 71.6593 109.044 71.6527C109.06 71.6438 109.115 71.7015 109.12 71.7215L109.089 72.0415C109.089 72.0415 108.418 72.2792 107.616 72.277C106.814 72.2748 104.834 72.5902 103.996 72.6302C103.159 72.6702 102.375 72.3103 102.375 72.3103C102.375 72.3103 102.403 72.0926 102.412 72.0726Z" fill="#E4D2E5"/>
<path d="M114.525 70.9616C114.525 70.9616 114.8 71.0216 114.565 71.9369C114.565 71.9369 114.203 72.308 113.476 72.1858C112.75 72.0636 109.019 72.9434 108.053 72.3702C108.053 72.3702 107.982 71.3748 109.417 71.4193C110.852 71.4637 112.712 70.044 112.847 70.0329C112.983 70.024 113.036 70.3839 112.776 70.5839C112.776 70.5839 112.943 70.615 113.29 70.5172C113.638 70.4195 114.023 71.1638 114.525 70.9616Z" fill="#002D48"/>
<path d="M107.981 72.1437C107.994 72.1193 108.059 72.0904 108.092 72.1015L108.074 72.166C108.234 72.2548 108.59 72.4037 109.158 72.3992C109.976 72.3926 112.429 72.1326 112.875 72.0504C113.304 71.9727 113.886 72.1726 114.591 71.8238C114.591 71.8238 114.6 71.7305 114.613 71.7238C114.628 71.7149 114.684 71.7727 114.691 71.7927L114.66 72.1126C114.66 72.1126 113.989 72.3526 113.186 72.3481C112.384 72.3459 110.405 72.6614 109.567 72.7014C108.732 72.7414 107.945 72.3815 107.945 72.3815C107.945 72.3815 107.97 72.1637 107.981 72.1437Z" fill="#E4D2E5"/>
<path fill-rule="evenodd" clip-rule="evenodd" d="M108.78 37.9515C108.78 37.9515 106.062 43.299 106.466 51.4922C106.8 58.2999 105.802 65.292 105.802 65.292C105.802 65.292 110.69 70.6645 115.188 63.4431C115.188 63.4431 117.325 43.5881 113.706 38.2306C113.612 38.0911 111.128 37.9316 108.78 37.9515Z" fill="#002D48"/>
<path fill-rule="evenodd" clip-rule="evenodd" d="M110.558 31.1253C110.819 33.5274 116.643 33.3222 113.901 41.7911C113.231 43.8595 112.251 46.2511 112.763 46.5359C113.898 47.1732 114.907 44.7942 115.722 42.6129C117.909 36.7525 116.381 32.3114 113.065 30.4774C113.065 30.4774 110.35 29.2118 110.558 31.1253Z" fill="#FCBB8B"/>
<path fill-rule="evenodd" clip-rule="evenodd" d="M113.694 44.8872C113.634 44.8624 113.692 44.7883 113.689 44.7868C113.657 44.774 113.237 45.1046 113.146 45.1293C112.941 45.1855 112.618 45.1486 112.405 45.1457C112.129 45.1413 111.806 45.0018 111.547 45.1627C111.504 45.1895 111.319 45.3163 111.354 45.404C111.455 45.6617 111.999 45.6025 112.206 45.6316C112.24 45.6367 112.446 45.5943 112.452 45.6102C112.479 45.6793 112.271 46.0146 112.25 46.044C111.976 46.4255 111.579 46.6769 111.26 47.0176C111.196 47.0848 110.842 47.4048 110.963 47.5103C111.057 47.5935 111.198 47.4689 111.284 47.4217C111.627 47.2311 111.914 46.997 112.224 46.748C112.316 46.6746 112.416 46.6022 112.508 46.5196C112.545 46.486 112.64 46.3711 112.62 46.4187C112.368 47.0322 111.732 47.4858 111.349 48.0139C111.269 48.1238 111.007 48.497 111.146 48.621C111.276 48.7368 111.463 48.5218 111.551 48.4423C111.942 48.0906 112.289 47.719 112.612 47.3018C112.722 47.1598 112.932 46.8675 112.932 46.8675C112.932 46.8675 112.869 47.0218 112.837 47.0999C112.79 47.2123 112.728 47.3427 112.669 47.4498C112.447 47.8616 112.199 48.2518 112.02 48.6862C111.979 48.7871 111.852 49.0178 111.936 49.1193C112.038 49.2413 112.246 48.908 112.287 48.8446C112.588 48.3652 112.872 47.8718 113.171 47.3844C113.237 47.2757 113.329 47.1151 113.376 47.0008C113.408 46.9227 113.503 46.6922 113.471 46.7684C113.272 47.2523 113.066 47.7397 112.914 48.2386C112.899 48.2858 112.729 48.7836 112.836 48.7721C113.132 48.7445 113.413 48.0092 113.521 47.7976C114.013 46.8305 114.679 45.4211 114.76 44.4388" fill="#FFBE94"/>
<path fill-rule="evenodd" clip-rule="evenodd" d="M57.1 107.858C56.7932 108.113 56.4591 108.338 56.1182 108.546C55.8625 108.703 55.5898 108.833 55.3205 108.962C55.1944 109.024 55.0137 109.088 54.9557 109.225C54.833 109.501 55.3307 109.736 55.5182 109.791C56.108 109.961 56.7284 109.6 57.175 109.245C57.5056 108.983 57.8329 108.645 57.9795 108.24C58.0988 107.916 57.7715 107.718 57.4886 107.732L57.1 107.858Z" fill="#FAB393"/>
<path fill-rule="evenodd" clip-rule="evenodd" d="M70.9937 112.408C71.1742 112.73 71.3902 113.042 71.6185 113.346C71.7894 113.574 71.9855 113.79 72.1785 114.005C72.2686 114.106 72.4061 114.234 72.4082 114.358C72.4172 114.611 71.8878 114.555 71.7008 114.509C71.113 114.364 70.6913 113.824 70.4221 113.368C70.2228 113.03 70.0538 112.64 70.0706 112.283C70.0821 111.997 70.4458 112.004 70.6931 112.142L70.9937 112.408Z" fill="#FAB393"/>
<path fill-rule="evenodd" clip-rule="evenodd" d="M71.3624 114.393C71.5533 114.291 71.7169 114.138 71.8021 113.933C71.8873 113.725 71.8737 113.493 72.0612 113.377C72.1941 113.296 72.3748 113.412 72.5248 113.377C73.9463 113.033 74.3452 111.779 75.0508 110.125C75.2451 110.156 75.361 110.194 75.5315 110.299C75.0508 111.755 74.9894 111.959 74.5122 112.951C73.9702 114.076 73.2339 115.113 72.1703 115.794C72.0646 115.627 71.9351 115.477 71.7817 115.351C71.4953 115.109 71.1612 114.986 71.2396 114.557C71.2499 114.492 71.2703 114.427 71.301 114.369L71.3624 114.393Z" fill="#002D48"/>
<path fill-rule="evenodd" clip-rule="evenodd" d="M55.5655 108.798C55.5444 109.013 55.5809 109.234 55.7036 109.419C55.8291 109.605 56.0294 109.723 56.0215 109.943C56.0156 110.099 55.8188 110.185 55.7638 110.329C55.2598 111.702 56.0809 112.73 57.063 114.236C56.9295 114.381 56.8339 114.456 56.6513 114.539C55.7085 113.33 55.5726 113.166 55.0133 112.217C54.3794 111.142 53.9273 109.953 53.9517 108.69C54.1493 108.695 54.346 108.671 54.5361 108.614C54.8965 108.51 55.1842 108.301 55.4977 108.605C55.5458 108.649 55.5883 108.702 55.6194 108.76L55.5655 108.798Z" fill="#002D48"/>
<path fill-rule="evenodd" clip-rule="evenodd" d="M67.1934 80.2621C68.0115 88.4537 66.4741 97.7601 61.8482 104.714C60.5119 106.726 58.6779 108.352 56.9734 110.046C56.7519 109.34 56.5507 108.628 56.3462 107.915C62.6629 99.9145 64.1219 95.1931 63.2083 80.3848C64.8037 78.6224 66.8184 78.5713 67.6468 80.6064L67.1934 80.2621Z" fill="#005F60"/>
<path fill-rule="evenodd" clip-rule="evenodd" d="M65.5056 84.7692L65.4852 84.8511V85.0385V85.3079V85.4442V85.5806V85.7169V85.8533V85.9896L65.4818 86.126L65.4784 86.2658L65.475 86.4055L65.4716 86.5453L65.4681 86.6851L65.4647 86.8248L65.4613 86.9646L65.4579 87.1044L65.4545 87.2441L65.4511 87.3191L65.4477 87.3839L65.4409 87.5237L65.4341 87.6634L65.4272 87.8032L65.4204 87.9429L65.4136 88.0861L65.4068 88.2259L65.4 88.3691L65.3897 88.5122V88.6588L65.3795 88.802L65.3693 88.9452L65.3659 89.0099L65.3591 89.0849L65.3488 89.2281L65.3352 89.3713L65.3216 89.5145L65.3079 89.6576L65.2943 89.8008L65.2807 89.944L65.2636 90.0872L65.2466 90.2269L65.2397 90.2951L65.2295 90.3667L65.2125 90.5065L65.192 90.6462L65.1716 90.786L65.1511 90.9258L65.1307 91.0655L65.1068 91.2053L65.0829 91.3451L65.0591 91.4848L65.0352 91.6246L65.0114 91.7643L64.9841 91.9041L64.9568 92.0405L64.9295 92.1768L64.9023 92.3132L64.8716 92.4495L64.8409 92.5859L64.8102 92.7223L64.7795 92.8586L64.7455 92.995L64.7114 93.1279L64.6773 93.2609L64.6432 93.3938L64.6057 93.5268L64.5682 93.6597L64.5273 93.8063L64.4864 93.9495L64.4421 94.0926L64.3977 94.2358L64.3534 94.379L64.35 94.396L64.3091 94.5222L64.2648 94.6653L64.2205 94.8085L64.1728 94.9517L64.125 95.0949L64.0773 95.238L64.0364 95.3778L63.9887 95.521L63.941 95.6642L63.8898 95.8073L63.8387 95.9505L63.7876 96.0937L63.7364 96.2334L63.6853 96.3732L63.6341 96.513L63.5796 96.6527L63.5251 96.7925L63.4705 96.9323L63.416 97.072L63.3614 97.2118L63.3069 97.3516L63.2489 97.4913L63.191 97.6311L63.133 97.7709L63.0751 97.9106L63.0171 98.0504L62.9592 98.1868L62.9012 98.3231L62.8399 98.4595L62.7785 98.5958L62.7172 98.7322L62.6558 98.8685L62.5944 99.0049L62.5297 99.1412L62.4649 99.2776L62.4001 99.414L62.3456 99.5299L62.3354 99.5503L62.2706 99.6867L62.2058 99.823L62.141 99.9594L62.0729 100.096L62.0047 100.229L61.9365 100.362L61.8649 100.491L61.7967 100.624L61.7286 100.757L61.6604 100.89L61.5888 101.023L61.5172 101.156L61.4456 101.289L61.374 101.422L61.299 101.551L61.2275 101.684L61.1559 101.817L61.0809 101.947L61.0059 102.076L60.9309 102.206L60.8559 102.335L60.7809 102.465L60.4843 102.973L60.3377 103.225L60.1911 103.477L60.0446 103.726L59.898 103.975L59.748 104.224L59.7071 104.289L59.673 104.347L59.598 104.469L59.523 104.592L59.448 104.715L59.373 104.838L59.298 104.96L59.223 105.083L59.148 105.206L59.073 105.328L58.9946 105.448L58.9128 105.567L58.8344 105.686L58.756 105.806L58.6776 105.925L58.5992 106.044L58.5208 106.164L58.4424 106.283L58.364 106.402L58.2821 106.522L58.2003 106.637L58.1185 106.753L58.0367 106.869L57.9549 106.985L57.8697 107.101L57.7844 107.217L57.6992 107.333L57.614 107.449L57.5288 107.565L57.4981 107.606L57.4401 107.677L57.3515 107.79L57.2629 107.902L57.1708 108.015L57.0788 108.127L56.9868 108.24L56.8947 108.349L56.7993 108.458L56.7038 108.567L56.6084 108.676L56.5129 108.785L56.4141 108.894L56.3629 108.949L56.3152 109.003L56.2163 109.112L56.1141 109.221L56.0118 109.327L55.9095 109.433L55.8073 109.538L55.7016 109.644L55.5959 109.75L55.4902 109.855L55.3846 109.961L55.3096 109.965V109.89L55.4118 109.78L55.5141 109.671L55.6164 109.562L55.7152 109.453L55.8141 109.344L55.9129 109.235L56.0084 109.126L56.1038 109.017L56.1993 108.908L56.247 108.853L56.2947 108.799L56.3868 108.686L56.4788 108.574L56.5709 108.461L56.6595 108.349L56.7481 108.236L56.8368 108.124L56.9254 108.011L57.0106 107.899L57.0958 107.783L57.1811 107.667L57.2663 107.551L57.3208 107.479L57.3515 107.439L57.4367 107.326L57.522 107.21L57.6072 107.094L57.689 106.978L57.7708 106.862L57.8526 106.747L57.9344 106.631L58.0163 106.515L58.0981 106.399L58.1765 106.283L58.2549 106.164L58.3333 106.044L58.4117 105.925L58.4901 105.806L58.5685 105.686L58.6469 105.567L58.7253 105.448L58.8003 105.328L58.8753 105.209L58.9503 105.09L59.0253 104.967L59.1003 104.844L59.1753 104.722L59.2503 104.599L59.3253 104.476L59.4003 104.353L59.4753 104.231L59.5094 104.173L59.5469 104.108L59.6968 103.859L59.8434 103.61L59.99 103.361L60.1366 103.109L60.2832 102.857L60.5798 102.349L60.6548 102.22L60.7298 102.09L60.8047 101.96L60.8797 101.831L60.9513 101.701L61.0229 101.572L61.0945 101.442L61.1661 101.313L61.2377 101.18L61.3093 101.047L61.3809 100.914L61.4524 100.781L61.5206 100.648L61.5888 100.515L61.657 100.382L61.7252 100.249L61.7933 100.116L61.8615 99.9833L61.9263 99.8503L61.9911 99.7174L62.0558 99.5844L62.1206 99.4481L62.1308 99.4276L62.1854 99.3117L62.2501 99.1753L62.3149 99.039L62.3763 98.9026L62.4376 98.7663L62.499 98.6299L62.5603 98.4936L62.6217 98.3572L62.6831 98.2208L62.741 98.0845L62.799 97.9481L62.8569 97.8118L62.9149 97.6754L62.9728 97.5391L63.0308 97.3993L63.0887 97.2595L63.1433 97.1198L63.1978 96.98L63.2524 96.8402L63.3069 96.7005L63.3614 96.5607L63.416 96.4209L63.4671 96.2812L63.5182 96.1414L63.5694 96.0016L63.6205 95.8619L63.6716 95.7221L63.7228 95.5823L63.7705 95.4426L63.8182 95.2994L63.866 95.1562L63.9137 95.013L63.9614 94.8699L64.0091 94.7267L64.0534 94.5835L64.0978 94.4403L64.1387 94.3142L64.1421 94.2972L64.1864 94.154L64.2307 94.0108L64.275 93.8677L64.3159 93.7245L64.3568 93.5813L64.3943 93.4518L64.4318 93.3188L64.4659 93.1859L64.5 93.0529L64.5341 92.92L64.5682 92.787L64.5989 92.6541L64.6296 92.5177L64.6602 92.3814L64.6909 92.245L64.7182 92.1086L64.7455 91.9723L64.7727 91.8359L64.8 91.6996L64.8239 91.5632L64.8477 91.4269L64.8716 91.2905L64.8954 91.1507L64.9193 91.011L64.9398 90.8712L64.9602 90.7314L64.9807 90.5917L65.0011 90.4519L65.0216 90.3121L65.0318 90.2406L65.042 90.1724L65.0591 90.0326L65.0761 89.8929L65.0932 89.7531L65.1102 89.6133L65.1273 89.4736L65.1443 89.3338L65.1579 89.194L65.1716 89.0543L65.1784 88.9793L65.1852 88.9145L65.1988 88.7747L65.2125 88.635L65.2261 88.4952L65.2397 88.3554L65.25 88.2157L65.2602 88.0759L65.2704 87.9361L65.2807 87.7964L65.2909 87.6566L65.3011 87.5168L65.3113 87.3771L65.3147 87.3123L65.3182 87.2373L65.325 87.0975L65.3318 86.9578L65.3386 86.818L65.3454 86.6782L65.3522 86.5385L65.3591 86.3987L65.3625 86.2589L65.3659 86.1226L65.3693 85.9862L65.3727 85.8499L65.3761 85.7135L65.3795 85.5772L65.3829 85.4408L65.3863 85.3044L65.3897 85.0351L65.3932 84.8477L65.3727 84.7658L65.4306 84.7079L65.5056 84.7692Z" fill="#483F4F"/>
<path fill-rule="evenodd" clip-rule="evenodd" d="M60.1947 80.0003C60.1947 80.0003 60.332 86.0597 60.6287 89.069C60.9554 92.3528 61.3969 95.6632 62.3404 98.8359C64.022 104.478 66.9167 109.766 70.5181 114.403C71.036 113.703 71.2433 113.263 71.8424 112.642C69.607 108.91 68.2705 106.202 67.2348 103.355C66.6196 101.671 66.1336 99.932 65.5904 97.9169C64.0226 92.124 64.5143 84.8071 64.5143 84.8071L66.5375 84.4998C66.5375 84.4998 66.6231 82.3401 66.586 81.2219C66.5018 78.7836 63.462 78.6862 63.0256 78.479C62.0723 78.0401 60.3673 78.9853 60.1947 80.0003Z" fill="#005F60"/>
<mask id="mask0_1847_790" style="mask-type:luminance" maskUnits="userSpaceOnUse" x="60" y="78" width="12" height="37">
<path d="M60.1952 79.9991C60.1952 79.9991 60.3325 86.0585 60.6292 89.0677C60.9559 92.3516 61.3973 95.662 62.3409 98.8347C64.0225 104.476 66.9172 109.765 70.5186 114.401C71.0365 113.701 71.2438 113.262 71.8429 112.641C69.6075 108.909 68.271 106.201 67.2353 103.354C66.6201 101.67 66.1341 99.9307 65.5909 97.9156C64.023 92.1228 64.5147 84.8059 64.5147 84.8059L66.538 84.4986C66.538 84.4986 66.6236 82.3389 66.5864 81.2207C66.5023 78.7824 63.4624 78.685 63.0261 78.4778C62.0728 78.0388 60.3678 78.984 60.1952 79.9991Z" fill="white"/>
</mask>
<g mask="url(#mask0_1847_790)">
<path fill-rule="evenodd" clip-rule="evenodd" d="M62.1393 81.9536L62.1325 81.9604L62.1291 81.9673L62.1257 81.9741L62.1189 81.9775L62.1155 81.9843L62.1121 81.9911L62.1019 82.0082L62.0916 82.0252L62.0814 82.0423L62.0746 82.0627L62.0644 82.0798L62.0575 82.1002L62.0507 82.1241L62.0439 82.1479L62.0371 82.1718L62.0303 82.1957L62.0234 82.2229L62.02 82.2502L62.0166 82.2775L62.0132 82.3082L62.0098 82.3388L62.0064 82.3695L62.003 82.4002L61.9996 82.4309L61.9962 82.4616L61.9928 82.4922L61.9894 82.5263L61.9859 82.5604V82.5945L61.9825 82.6627V82.7309V82.799V82.8672V82.9388L61.9859 83.007L61.9894 83.0752L61.9928 83.1433L61.9962 83.2081L62.003 83.3342L62.0098 83.4501L62.0166 83.5558L62.02 83.6035L62.0234 83.6479V83.6888V83.7229V83.9069V84.091V84.2751L62.02 84.4592L62.0166 84.6433L62.0132 84.8274L62.0064 85.1989L61.9996 85.5705L61.9928 85.9455L61.9894 86.133L61.9859 86.3205L61.9825 86.508L61.9791 86.6954V86.8829V87.0704V87.2579V87.4454L61.9825 87.6329V87.7249L61.9859 87.817L61.9894 87.909L61.9928 88.0011L61.9962 88.0931L61.9996 88.1851L62.003 88.2772L62.0064 88.3692L62.0098 88.4613L62.0132 88.5533L62.0166 88.6453L62.0234 88.7374L62.0303 88.8294L62.0371 88.9215L62.0439 89.0135L62.0507 89.1055L62.0575 89.1976L62.0644 89.2896L62.0746 89.3817L62.0848 89.4737L62.095 89.5658L62.1053 89.6578L62.1564 90.0975L62.1837 90.3157L62.2109 90.5339L62.2382 90.7521L62.2655 90.9702L62.2928 91.1884L62.32 91.41L62.3473 91.6282L62.3746 91.8497L62.4052 92.0713L62.4359 92.2929L62.4666 92.5111L62.4973 92.7326L62.528 92.9542L62.5586 93.1758L62.5621 93.1894L62.5927 93.394L62.6268 93.6156L62.6609 93.8337L62.695 94.0519L62.7291 94.2701L62.7632 94.4882L62.8007 94.7064L62.8382 94.9246L62.8757 95.1427L62.9132 95.3609L62.9541 95.5791L62.995 95.7973L63.0359 96.0154L63.0768 96.2336L63.1211 96.4518L63.1654 96.6699L63.2098 96.8881L63.2541 97.1063L63.3018 97.3245L63.3461 97.5494L63.3938 97.7676L63.445 97.9858L63.4961 98.2006L63.5234 98.3096L63.5506 98.4187L63.5779 98.5278L63.6052 98.6369L63.6325 98.746L63.6597 98.8551L63.687 98.9539L63.7143 99.063L63.7415 99.1687L63.7688 99.2778V99.2812L63.7961 99.3834L63.8268 99.4891L63.8574 99.5948L63.8881 99.7005L63.9188 99.8062L63.9495 99.9118L63.9802 100.018L64.0108 100.123L64.0415 100.229L64.0722 100.335L64.1029 100.44L64.1336 100.546L64.1642 100.652L64.1983 100.757L64.2324 100.863L64.2665 100.969L64.3006 101.074L64.3347 101.18L64.3688 101.286L64.4029 101.391L64.437 101.497L64.4711 101.603L64.5086 101.708L64.546 101.814L64.5835 101.92L64.621 102.025L64.6585 102.131L64.696 102.237L64.7335 102.342L64.771 102.445L64.8085 102.547L64.8494 102.649L64.8903 102.751L64.9313 102.854L64.9722 102.956L65.0131 103.058L65.054 103.161L65.0949 103.263L65.1358 103.365L65.1801 103.467L65.2108 103.542L65.2449 103.617L65.279 103.692L65.3131 103.767L65.3471 103.842L65.3812 103.917L65.4153 103.992L65.4494 104.067L65.4801 104.132L65.4869 104.142L65.5244 104.217L65.5619 104.292L65.5994 104.367L65.6369 104.442L65.6744 104.517L65.7119 104.592L65.7494 104.667L65.7869 104.742L65.8244 104.817L65.8619 104.892L65.9028 104.967L65.9437 105.039L65.9846 105.114L66.0255 105.185L66.0664 105.257L66.1482 105.404L66.2335 105.55L66.3187 105.697L66.4039 105.84L66.4891 105.983L66.5744 106.126L66.6596 106.269L66.7482 106.413L66.8368 106.556L66.9255 106.699L67.1027 106.985L67.2527 107.224L67.4573 107.555L67.6345 107.841L67.7232 107.984L67.8084 108.127L68.0402 108.506L68.2686 108.884L68.7288 109.641L68.9572 110.019L69.189 110.398L69.2504 110.5L69.3049 110.589L69.4208 110.776L69.5367 110.964L69.6526 111.151L69.7685 111.339L69.8844 111.526L70.0003 111.714L70.1196 111.901L70.2389 112.088L70.3583 112.276L70.4776 112.463L70.5969 112.648L70.7196 112.832L70.8423 113.016L70.965 113.2L71.0878 113.384L71.2139 113.568L71.34 113.752L71.4662 113.933L71.5309 114.025L71.5957 114.117L71.5855 114.178L71.5241 114.168L71.4593 114.079L71.3946 113.991L71.265 113.81L71.1355 113.629L71.0094 113.449L70.8832 113.265L70.7571 113.08L70.631 112.896L70.5083 112.712L70.3855 112.528L70.2628 112.344L70.1401 112.16L70.0174 111.976L69.8946 111.789L69.7753 111.601L69.656 111.414L69.5367 111.226L69.4174 111.039L69.2981 110.851L69.1788 110.664L69.1242 110.578L69.0595 110.476L68.8242 110.101L68.589 109.726L68.122 108.973L67.8868 108.598L67.6516 108.223L67.5629 108.083L67.4743 107.943L67.2936 107.66L67.0823 107.33L66.9323 107.091L66.7516 106.808L66.663 106.665L66.5744 106.522L66.4857 106.379L66.3971 106.235L66.3085 106.092L66.2198 105.949L66.1346 105.802L66.0494 105.656L65.9642 105.509L65.8789 105.363L65.838 105.288L65.7971 105.213L65.7562 105.138L65.7153 105.063L65.6744 104.988L65.6335 104.913L65.5926 104.838L65.5517 104.763L65.5142 104.688L65.4767 104.613L65.4392 104.538L65.4017 104.463L65.3642 104.388L65.3267 104.313L65.2892 104.238H65.2858L65.2551 104.173L65.2176 104.098L65.1835 104.023L65.1494 103.948L65.1153 103.87L65.0812 103.791L65.0472 103.713L65.0131 103.634L64.9824 103.556L64.9381 103.454L64.8972 103.351L64.8563 103.249L64.8154 103.147L64.7744 103.045L64.7335 102.939L64.6926 102.833L64.6517 102.728L64.6108 102.622L64.5733 102.516L64.5358 102.411L64.4983 102.305L64.4608 102.199L64.4233 102.094L64.3858 101.988L64.3483 101.882L64.3108 101.777L64.2733 101.671L64.2358 101.565L64.2017 101.459L64.1677 101.354L64.1336 101.248L64.0995 101.142L64.0654 101.037L64.0313 100.931L64.0006 100.829L63.9665 100.723L63.9324 100.617L63.9018 100.512L63.8711 100.406L63.8404 100.3L63.8097 100.195L63.779 100.089L63.7484 99.98L63.7177 99.8709L63.687 99.7618L63.6563 99.6528L63.6256 99.5437L63.5984 99.4346L63.5711 99.3289V99.3255L63.5438 99.2164L63.5166 99.1073L63.4893 98.9982L63.462 98.8892L63.4347 98.7801L63.4075 98.671L63.3802 98.5619L63.3529 98.4528L63.3257 98.3437L63.3018 98.2346L63.2507 98.0165L63.2029 97.7983L63.1552 97.5801L63.1075 97.362L63.0632 97.1438L63.0189 96.9256L62.9745 96.7074L62.9302 96.4893L62.8893 96.2711L62.8484 96.0529L62.8075 95.8348L62.7666 95.6166L62.7291 95.3984L62.6916 95.1802L62.6541 94.9587L62.6166 94.7371L62.5825 94.5155L62.5484 94.2939L62.5143 94.0723L62.4802 93.8508L62.4496 93.6292L62.4189 93.4076L62.3882 93.2031L62.3848 93.1894L62.3541 92.9679L62.3234 92.7463L62.2928 92.5247L62.2655 92.3031L62.2382 92.0815L62.2109 91.86L62.1837 91.6384L62.1564 91.4168L62.1291 91.1952L62.1019 90.9736L62.078 90.7521L62.0541 90.5305L62.0303 90.3089L62.0064 90.0907L61.9587 89.651L61.9416 89.5794L61.9314 89.4873L61.9212 89.3953L61.9144 89.3033L61.9075 89.2112L61.9007 89.1192L61.8939 89.0271L61.8871 88.9351L61.8803 88.8431L61.8735 88.751L61.87 88.659L61.8666 88.5669L61.8632 88.4749L61.8598 88.3829L61.8564 88.2908L61.853 88.1988L61.8496 88.1067L61.8462 88.0147L61.8428 87.9227V87.8306V87.7386V87.6465V87.459V87.2715V87.0841V86.8966L61.8462 86.7091L61.8496 86.5114L61.853 86.3239L61.8564 86.1364L61.8598 85.9489L61.87 85.5739L61.8803 85.2023L61.8905 84.8308L61.8939 84.6467L61.8973 84.4626L61.9007 84.2785L61.9041 84.0944V83.9104V83.7263V83.6922V83.6547L61.9007 83.6138L61.8973 83.5661L61.8905 83.4604L61.8837 83.3445L61.8769 83.2183L61.8735 83.1502L61.87 83.082L61.8666 83.0138L61.8632 82.9422V82.8706V82.799V82.7275V82.6559L61.8666 82.5843V82.5502L61.87 82.5161L61.8735 82.482L61.8769 82.4479L61.8803 82.4138L61.8837 82.3797L61.8871 82.3491L61.8905 82.3184L61.8939 82.2877L61.8973 82.257L61.9041 82.2263L61.911 82.1957L61.9178 82.1684L61.9246 82.1411L61.9314 82.1138L61.9382 82.0866L61.945 82.0593L61.9553 82.0354L61.9655 82.0116L61.9757 81.9877L61.9859 81.9673L61.9962 81.9468L62.0098 81.9264L62.0166 81.9161L62.0234 81.9059L62.0303 81.8957L62.0371 81.8855L62.0439 81.8752L62.0507 81.8684H62.1291L62.1393 81.9536Z" fill="#483F4F"/>
</g>
<path d="M65.6735 56.4917C66.3139 56.8013 65.8709 58.1533 65.8709 58.1533C65.8621 58.1829 65.8502 58.2112 65.8384 58.2395C65.6778 58.6305 65.1653 58.9773 65.1653 58.9773C63.73 59.3285 64.517 58.4943 64.517 58.4943C64.404 58.0993 64.5387 57.9969 64.5354 57.8476C64.5263 57.1265 65.1709 56.2732 65.6735 56.4917Z" fill="#F09780"/>
<path fill-rule="evenodd" clip-rule="evenodd" d="M60.0349 64.2309C59.8849 64.0673 59.6531 63.631 59.8406 63.4196C59.8712 63.3855 60.4167 63.3207 60.553 63.2901C61.0712 63.1844 61.695 63.0617 62.2268 63.0412C62.4791 63.031 62.7552 63.0037 62.987 63.1298C63.662 63.4946 62.8234 64.1116 62.5268 64.2377C61.9575 64.4866 61.395 64.5582 60.7848 64.4355C60.5769 64.398 60.0349 64.2309 60.0349 64.2309Z" fill="#004441"/>
<path fill-rule="evenodd" clip-rule="evenodd" d="M66.8978 65.7979L63.6167 65.3746C63.6167 65.3746 63.8643 70.6818 65.1122 73.1255C65.9728 74.8047 69.2853 75.8618 69.2853 75.8618C69.2853 75.8618 70.2497 73.2337 70.0536 73.1202C67.0997 71.4101 66.8978 65.7979 66.8978 65.7979Z" fill="#FF936F"/>
<path fill-rule="evenodd" clip-rule="evenodd" d="M60.4472 63.4362C59.7484 64.302 59.0189 65.1065 58.2314 65.8906C57.9962 66.1224 57.1133 67.0223 57.1133 67.0223C57.1133 67.0223 57.9485 70.8915 58.2996 71.8835C59.3598 74.8935 59.6393 78.2411 59.5063 81.4114C59.5029 81.4932 59.837 81.6227 59.895 81.6432C60.3688 81.8307 60.9074 81.8784 61.4119 81.892C62.8914 81.9329 64.497 81.9091 65.939 81.5546C66.2765 81.4727 67.6639 81.1353 67.6639 81.1353C67.6639 81.1353 66.6173 75.9571 66.3174 74.3583C66.1401 73.4243 65.9935 72.4562 66.0174 71.5017C66.0446 70.5574 66.2287 69.6438 66.4401 68.7268C66.5969 68.0416 66.9003 65.7644 66.9003 65.7644C66.9003 65.7644 66.2219 65.1031 65.8435 64.8713C64.947 64.3259 63.9516 63.9714 63.0039 63.5316L60.4472 63.4362Z" fill="#FF936F"/>
<path fill-rule="evenodd" clip-rule="evenodd" d="M59.0936 60.7076C57.2045 59.358 56.558 55.8474 58.0167 54.0065C59.1431 52.5893 61.27 52.2108 62.9025 52.7378C63.242 52.847 63.5681 53.0055 63.8642 53.2157C64.9637 53.9964 65.1184 55.4735 65.0173 56.7344C64.9705 57.2971 64.9091 57.9238 64.665 58.4323C64.384 59.0154 63.9263 59.4286 63.4415 59.8204C62.5112 60.5692 61.571 61.0434 60.3494 61.0364L59.0936 60.7076Z" fill="#002D48"/>
<path fill-rule="evenodd" clip-rule="evenodd" d="M58.552 60.2825C58.3543 59.2973 58.2861 59.045 58.2861 59.045C58.2861 59.045 58.235 59.2939 57.9759 59.2837C57.2737 59.2564 56.868 55.8611 58.2895 55.8509C58.61 55.8475 58.8145 56.594 58.8077 56.4986C58.7088 55.0975 59.8815 53.4305 60.4235 53.5908C60.4235 53.5908 62.4041 53.2124 64.1222 54.1362C64.9949 54.6066 64.7869 56.4236 64.7869 56.4236C64.954 56.7917 64.6438 60.5416 64.2551 61.2029C64.1563 61.3699 63.045 61.6529 63.045 61.6529C62.8779 61.9256 62.7688 62.1165 62.6666 63.0301C62.6257 63.3982 62.8541 63.8823 62.8507 63.9539C62.7927 65.1129 62.2473 64.4175 61.528 64.2982C60.7712 64.172 60.1951 64.1993 60.1951 64.1993L59.6292 61.2029C59.6292 61.2029 58.6884 60.9677 58.552 60.2825Z" fill="#FAB393"/>
<path fill-rule="evenodd" clip-rule="evenodd" d="M59.8575 63.4087C59.8575 63.4087 59.6632 63.7769 60.0962 63.8485C60.6757 63.9473 61.3813 64.0632 61.7631 64.0189C61.9404 63.9985 62.087 64.1689 62.2301 64.2712C62.3597 64.3666 62.4756 64.4791 62.6085 64.5678C62.6631 64.2644 62.6188 63.7939 62.6665 63.6371C62.7381 63.3883 62.9733 63.2383 62.704 63.0406C62.9358 63.0303 63.3585 63.2144 63.5255 63.3678C63.6448 63.4769 63.7403 63.6064 63.8835 63.6917C63.8698 64.0121 63.9414 64.3019 63.8357 64.6121C63.6039 64.3598 63.3312 64.0735 62.9835 63.9814C62.9153 64.2098 62.8608 64.428 62.8846 64.6666C62.9358 65.1677 63.3142 65.6109 63.4369 66.0984C63.2971 66.1529 63.154 66.1972 63.0142 66.2518C62.9392 66.037 62.854 65.8291 62.779 65.6143C62.7074 65.4132 62.6426 65.1916 62.5267 65.0109C62.4688 64.9189 62.1449 64.5303 62.0426 64.4928C62.1074 64.8746 61.504 65.662 61.504 65.662C61.504 65.662 60.7779 65.3791 60.2121 65.1882C59.9257 65.0927 59.3598 64.9427 59.1621 64.7007C59.4246 64.5234 59.6632 64.2371 59.6053 64.0871C59.4689 63.7462 59.5712 63.5485 59.8575 63.4087Z" fill="#FF936F"/>
<path d="M62.38 57.3672C62.3936 57.3474 62.5685 57.0914 62.6513 57.1675C62.917 57.5133 63.0395 58.297 63.0319 59.026C63.03 59.2649 63.0133 59.4948 62.9835 59.7036C62.9805 60.0849 61.7694 59.7455 61.7334 59.694C61.4996 59.3034 62.1891 57.7011 62.38 57.3672Z" fill="#F09780"/>
<path fill-rule="evenodd" clip-rule="evenodd" d="M72.3074 71.0171C72.335 71.1305 72.3313 71.2465 72.2939 71.3569C71.974 72.3006 70.3741 77.0153 69.4314 79.7958C69.3454 80.0517 69.0965 80.2183 68.8267 80.203C68.5569 80.1877 68.3296 79.9928 68.2713 79.7293C68.0425 78.6734 67.7962 77.5328 67.7071 77.1191C67.685 77.0113 67.6896 76.9028 67.7247 76.7986C68.0481 75.8456 69.7522 70.8213 70.6475 68.1832C70.7188 67.9716 70.9212 67.8337 71.1444 67.8423C71.3676 67.8509 71.5583 68.0074 71.6119 68.2229L71.6124 68.2266C71.6124 68.2266 72.1503 70.3862 72.3074 71.0171Z" fill="#FAE397"/>
<path fill-rule="evenodd" clip-rule="evenodd" d="M72.1303 71.1103C72.1583 71.2239 72.154 71.3431 72.1162 71.4535C71.7906 72.3985 70.1808 77.074 69.1951 79.9415C69.1058 80.2033 68.8491 80.3706 68.5735 80.3461C68.2978 80.3215 68.0753 80.1141 68.0312 79.8416C67.8772 78.8847 67.7214 77.9236 67.6628 77.564C67.6475 77.4659 67.6563 77.3661 67.6882 77.2713C68.0034 76.3543 69.7597 71.2323 70.6637 68.5973C70.7291 68.4084 70.9114 68.288 71.1106 68.3018C71.3098 68.3157 71.4745 68.4625 71.5122 68.6578C71.5122 68.6578 71.9832 70.5257 72.1303 71.1103Z" fill="#BAB99D"/>
<path fill-rule="evenodd" clip-rule="evenodd" d="M71.9666 71.6642C71.9946 71.7777 71.9904 71.897 71.9526 72.0073C71.6269 72.9524 70.0171 77.6278 69.0314 80.4954C68.9421 80.7571 68.6854 80.9245 68.4098 80.8999C68.1342 80.8753 67.9117 80.6679 67.8675 80.3955C67.7135 79.4386 67.5577 78.4774 67.4992 78.1179C67.4838 78.0197 67.4926 77.9199 67.5246 77.8252C67.8534 76.8671 69.7484 71.3416 70.6111 68.8264C70.6626 68.675 70.8085 68.5801 70.9663 68.5927C71.1241 68.6053 71.2561 68.7186 71.2848 68.875C71.3213 69.0735 71.35 69.2122 71.35 69.2122C71.35 69.2122 71.818 71.079 71.9666 71.6642Z" fill="#FCFBE5"/>
<path fill-rule="evenodd" clip-rule="evenodd" d="M65.8677 70.2503C65.5784 70.2097 65.3024 70.3777 65.2092 70.6526C64.6272 72.3841 62.6239 78.3349 61.9282 80.4028C61.8696 80.5776 61.8916 80.7675 61.9906 80.922C62.0895 81.0764 62.2526 81.1778 62.4349 81.1961C64.0395 81.3649 67.7339 81.7511 68.5861 81.8404C68.6892 81.851 68.7874 81.7897 68.8187 81.6887C69.237 80.4496 71.8154 72.7795 72.2774 71.4075C72.2951 71.3558 72.2899 71.2978 72.2604 71.2508C72.2309 71.2038 72.1828 71.1729 72.1284 71.1651C71.1633 71.0235 67.2606 70.4564 65.8677 70.2503Z" fill="#FAE397"/>
<path fill-rule="evenodd" clip-rule="evenodd" d="M66.4163 77.9103C66.6106 77.716 66.8424 77.2183 66.9515 76.8877C66.9958 76.7513 67.0197 76.6013 67.0777 76.4684C67.0845 76.4547 67.1117 76.3831 67.1492 76.3661C67.364 76.2775 67.4015 76.8433 67.3947 77.1092C68.0833 76.5604 68.6014 75.8275 69.2321 75.2207C69.2764 75.2343 69.2832 75.3332 69.2832 75.3673C69.2866 75.5173 69.2185 75.6673 69.1503 75.7934C68.8605 76.3184 68.4344 76.7752 68.0492 77.2286C68.6014 76.874 69.0514 76.4036 69.573 76.0116C69.6991 75.9161 69.8252 75.8241 69.9548 75.7423C69.9718 75.732 70.0605 75.6639 70.0877 75.6707C70.115 75.6809 70.098 75.8104 70.0945 75.8275C70.0673 75.9945 69.9616 76.1411 69.8559 76.2707C69.6514 76.5263 69.3991 76.7411 69.1605 76.9661C68.9287 77.1842 68.7037 77.4126 68.4685 77.6308C68.9185 77.5217 69.106 77.3785 69.5866 77.1433C69.8389 76.7752 70.0366 76.4036 70.3195 76.4513C70.3707 76.4581 70.1661 76.9456 69.9377 77.3138C69.8491 77.457 69.3616 77.8251 69.065 78.0706C69.3616 77.9615 69.6139 77.8933 69.89 77.7433C69.9548 77.7092 70.0945 77.6001 70.1457 77.5456C70.1525 77.5354 70.1866 77.4876 70.2002 77.4945C70.2411 77.5115 70.2241 77.7399 70.1593 77.8353C70.0741 77.9581 69.8968 78.0944 69.6752 78.2376C69.3275 78.4626 68.8026 78.6705 68.4003 78.7626C68.0219 78.8478 67.6401 78.9228 67.2651 79.0114C67.0061 79.0728 66.7572 79.1614 66.4947 79.2125C66.1368 79.2841 65.7243 79.1239 65.605 78.7217C65.5743 78.6194 65.5743 78.5137 65.5982 78.408C65.6152 78.333 65.6459 78.2615 65.6834 78.1933C65.7107 78.1421 65.7414 78.091 65.7789 78.0467C65.8982 77.9001 66.2629 78.0637 66.4163 77.9103Z" fill="#FAB393"/>
<path fill-rule="evenodd" clip-rule="evenodd" d="M57.1846 67.0359C56.9289 67.9358 56.5198 68.8017 56.3903 69.7255C55.7051 74.6071 55.4699 75.2002 56.046 77.8865C56.4414 79.7307 57.1573 82.3931 62.6525 80.8113C64.5069 80.2761 64.7694 80.2557 66.5693 79.4409C66.15 79.0694 66.0375 78.4694 66.0205 77.7842C63.6785 78.4933 61.8991 78.5103 60.781 78.6739C58.1322 79.066 58.3402 76.2059 59.1583 71.8731C59.9321 67.8063 57.1846 67.0359 57.1846 67.0359Z" fill="#FF936F"/>
<path fill-rule="evenodd" clip-rule="evenodd" d="M58.02 54.9007C57.8768 54.702 57.7643 54.4923 57.6859 54.2691C57.328 53.2373 58.3814 52.6629 59.4688 52.3579C60.2631 52.1347 61.1051 51.9114 61.7596 51.4704C62.2062 51.1682 62.3084 50.8878 62.7823 50.5911C63.2766 50.2834 63.7197 50.444 63.7743 50.8361C63.822 51.19 63.6584 51.5249 63.4266 51.8189C63.8765 51.5929 64.2754 51.3152 64.6879 51.0484C64.9333 50.8905 65.2503 50.6782 65.5844 50.6727C65.9832 50.6646 66.3344 50.9559 66.4775 51.2934C66.7673 51.9822 65.9969 52.6982 65.3935 53.1856C65.898 52.9868 66.5116 52.5267 67.1252 52.6057C67.7082 52.6792 67.5445 53.3952 67.3911 53.6811C66.9991 54.4134 66.1196 55.0613 65.1447 55.2519C64.1629 55.4452 63.0482 55.3173 62.1073 55.0477C61.2346 54.7973 60.396 54.4052 59.4483 54.3834L58.02 54.9007Z" fill="#002D48"/>
<path d="M28.4507 85.8131C28.4507 85.8131 28.1884 80.0486 28.2067 79.627C28.2755 77.9967 28.2728 76.553 27.31 75.9328C26.7733 75.5864 25.4823 75.1103 24.6615 74.8733C23.8883 74.6494 20.347 75.4364 20.6989 77.3362L20.6727 84.5433C21.4655 86.0607 27.4864 86.8369 28.4507 85.8131Z" fill="#FAB393"/>
<path d="M21.0314 86.2586C20.1778 88.9238 19.966 90.9599 20.9347 92.0591C20.9347 92.0591 29.5673 91.2772 29.1875 86.631C28.7089 80.7634 21.9924 82.0353 21.9924 82.0353C21.7226 83.5803 21.3531 85.2556 21.0314 86.2586Z" fill="#FAB393"/>
<path d="M24.0569 76.9982C24.8808 76.7327 25.4216 76.0253 25.2685 75.4179L24.7392 73.3363C24.5845 72.7287 23.7927 72.4506 22.9688 72.7161C22.1465 72.9817 21.6041 73.689 21.7572 74.2964L22.2865 76.3779C22.4412 76.9856 23.2348 77.2624 24.0569 76.9982Z" fill="#FAB393"/>
<path fill-rule="evenodd" clip-rule="evenodd" d="M26.9029 89.122C24.4237 88.6397 19.979 87.3727 19.3752 90.5598C18.9462 92.8237 14.9999 95.0507 22.6098 96.0938C24.5213 96.3569 26.4405 96.5046 28.1927 95.5815C28.8555 95.233 29.8292 94.9861 30.1067 94.2661C30.5383 93.1514 30.2172 91.5336 29.5286 90.5344C29.3436 90.2667 29.3616 89.9205 29.0482 89.6943C28.4778 89.2835 27.5863 89.2559 26.9029 89.122Z" fill="#002D48"/>
<path d="M22.0105 75.1319C22.0105 75.1319 21.9509 75.8506 22.3972 76.2904C24.1789 78.0499 25.4706 74.693 25.4706 74.693C26.1411 74.7901 27.2308 75.1622 27.6104 75.337C28.3375 75.6717 28.9437 76.2152 29.1246 76.9248C29.2031 77.2335 29.1869 77.5477 29.1739 77.8568C28.998 82.0302 29.4455 86.2749 30.4989 90.4386C30.5455 90.6211 30.5818 90.8378 30.4398 90.9567C30.3664 91.0184 30.2599 91.0357 30.1588 91.0514C26.329 91.6256 22.5878 92.1813 18.7345 91.0733C18.9036 87.5813 19.1185 84.2188 19.2876 80.7268C19.3012 80.4266 19.3692 79.7407 19.4569 79.0609C19.5446 78.3811 19.6545 77.7051 19.755 77.4255C20.1443 76.3334 20.3708 75.789 21.4088 75.1655L22.0105 75.1319Z" fill="white"/>
<path d="M20.7489 74.8886C21.3244 75.7516 23.454 74.2712 24.0822 73.5288C25.0184 72.4215 25.8123 68.0623 23.6829 67.2287C21.5542 66.3931 18.944 68.0625 18.2474 69.2852C17.5499 70.5066 18.5064 73.1606 20.7489 74.8886Z" fill="#FAB393"/>
<path d="M24.0631 72.2926C24.0938 72.8948 24.3803 73.3336 24.6724 73.2893C25.6481 73.138 26.041 72.7752 26.0092 72.174C25.9785 71.5718 25.5365 71.283 24.9993 71.3159C24.4621 71.3487 24.0313 71.6895 24.0631 72.2926Z" fill="#FAB393"/>
<path d="M24.4702 72.2408C24.4898 72.6298 24.6753 72.9133 24.8637 72.8834C25.4942 72.7857 25.7466 72.5515 25.7271 72.1625C25.7076 71.7735 25.4214 71.5874 25.0746 71.6086C24.7265 71.6308 24.4496 71.8508 24.4702 72.2408Z" fill="#F89E76"/>
<path fill-rule="evenodd" clip-rule="evenodd" d="M19.2179 109.634C19.2179 109.634 18.2426 110.543 17.1063 110.919C16.7181 111.047 16.1759 111.028 15.97 111.381C15.925 111.459 16.1073 111.622 16.1428 111.641C16.2635 111.705 16.3914 111.762 16.5263 111.791C16.7701 111.838 17.0211 111.881 17.2696 111.864C18.2473 111.8 18.9907 111.549 19.9305 111.305C20.2714 111.218 20.9532 111.14 21.1994 110.787C21.7131 110.051 21.5142 108.633 20.3921 108.817C19.9139 108.895 19.5091 109.267 19.2179 109.634Z" fill="#005F60"/>
<path fill-rule="evenodd" clip-rule="evenodd" d="M28.5743 110.054C28.5743 110.054 29.5363 110.964 30.657 111.34C31.0399 111.468 31.5745 111.449 31.7777 111.802C31.822 111.88 31.6423 112.043 31.6072 112.062C31.4882 112.126 31.3621 112.183 31.229 112.211C30.9885 112.258 30.741 112.301 30.4959 112.284C29.5316 112.221 28.7985 111.97 27.8716 111.726C27.5353 111.638 26.8629 111.56 26.6201 111.207C26.1134 110.471 26.3096 109.053 27.4163 109.238C27.8879 109.316 28.2871 109.688 28.5743 110.054Z" fill="#005F60"/>
<path fill-rule="evenodd" clip-rule="evenodd" d="M17.5546 91.0896C17.5546 91.0896 16.0149 91.1976 15.5445 93.0452C15.0742 94.8927 15.7262 99.9145 16.9615 104.22L18.9626 110.205L21.6154 110.179C21.6154 110.179 21.861 102.112 22.1954 98.3524C22.4708 95.2392 19.1294 90.7819 17.5546 91.0896Z" fill="#002D48"/>
<path fill-rule="evenodd" clip-rule="evenodd" d="M30.8936 91.0953C30.8936 91.0953 32.6251 91.2619 33.1214 93.1291C33.6177 94.9963 32.7935 99.9981 31.3255 104.26L29.1315 110.182L26.1454 110.055C26.1454 110.055 25.8475 101.965 25.5389 98.1864C25.2817 95.0641 29.1234 90.7295 30.8936 91.0953Z" fill="#002D48"/>
<path fill-rule="evenodd" clip-rule="evenodd" d="M17.7897 80.7471C17.7897 80.4943 17.4267 81.5215 17.3918 81.629C17.1874 82.2421 15.6763 85.3397 15.765 87.5043C15.8134 88.7332 17.0718 91.3307 18.341 91.164C19.1208 91.0618 19.9947 84.6702 19.6693 82.3981C19.5644 81.664 18.4969 80.1259 17.7037 80.9165" fill="#FAB393"/>
<path fill-rule="evenodd" clip-rule="evenodd" d="M31.2701 79.8029C31.2701 79.5501 31.6708 80.5773 31.7094 80.6848C31.935 81.2979 32.1131 81.9271 32.3386 82.5348C32.9797 84.2745 33.6802 86.5978 33.3448 88.4289C33.2588 88.8914 33.3567 89.8406 32.7482 90.0234C31.9231 90.2735 31.2078 88.7946 30.9882 88.3429C29.9998 86.3235 28.8393 83.726 29.1984 81.4539C29.3142 80.7198 30.4925 79.1817 31.3681 79.9723" fill="#FAB393"/>
<path d="M18.7248 91.9379L29.1294 91.7221L26.5311 85.4674L14.734 85.712V85.9054L18.7248 91.9379Z" fill="#892226"/>
<path d="M18.6009 91.9383L28.6828 91.7291L26.1654 85.6677L14.7354 85.9049L18.6009 91.9383Z" fill="#AE0733"/>
<path d="M20.9654 85.7762L23.1037 91.9382L22.7291 91.9382L20.4862 85.7756L20.9654 85.7762Z" fill="#892226"/>
<path d="M19.3781 85.8451C19.9937 87.5315 20.7614 89.2003 21.1994 90.9154C21.2086 90.9537 21.1326 90.9697 21.1141 90.9314C20.381 89.269 19.7746 87.5714 19.2236 85.8755C19.2006 85.8052 19.3527 85.7748 19.3781 85.8451Z" fill="#892226"/>
<path d="M14.7347 85.7121C14.7347 85.7121 18.0293 84.1664 19.7376 85.669C19.7376 85.669 21.1025 84.0034 26.3105 85.4724L14.7347 85.7121Z" fill="white"/>
<path fill-rule="evenodd" clip-rule="evenodd" d="M21.4332 75.1591C21.4332 75.1591 20.2393 75.8098 19.7042 76.1917C18.0344 77.3855 17.7548 79.2705 16.8083 81.9863C16.741 82.1799 17.6311 83.3469 18.6717 83.8685C18.8008 83.9331 19.551 84.2638 19.7042 84.1105C19.8494 83.9653 19.9059 83.1587 19.9785 82.9409C20.3281 81.8922 20.5889 80.8032 20.9089 79.7383C21.2961 78.4504 22.2157 75.0462 21.4332 75.1591Z" fill="white"/>
<path fill-rule="evenodd" clip-rule="evenodd" d="M27.6769 75.3578C27.6769 75.3578 29.0186 76.143 29.3951 76.4118C31.0649 77.6057 31.479 79.1922 32.4605 81.6472C32.5357 81.8381 31.1402 83.3439 30.0996 83.8655C29.9705 83.9301 29.2203 84.2608 29.067 84.1075C28.9218 83.9623 28.8654 83.1557 28.7928 82.9379C28.4432 81.8892 28.1824 80.8002 27.8624 79.7354C27.4779 78.45 27.5505 75.4842 27.6769 75.3578Z" fill="white"/>
<path fill-rule="evenodd" clip-rule="evenodd" d="M18.0532 89.7702H18.0747L18.0962 89.7729H18.1151H18.1339L18.1554 89.7756L18.1769 89.7783L18.1904 89.7809L18.2038 89.7836L18.2199 89.7863L18.2414 89.7917L18.263 89.8025L18.2737 89.8105L18.2872 89.8213L18.3006 89.8347L18.3114 89.8509L18.3194 89.867L18.3248 89.8858L18.3275 89.9019V89.9181V89.9342L18.3248 89.9503L18.3167 89.9745L18.306 89.9934L18.2952 90.0068L18.2791 90.0229L18.263 90.0364L18.2495 90.0471L18.2361 90.0552L18.2226 90.0633L18.2092 90.0714L18.1823 90.0848L18.1581 90.0955L18.1393 90.1036L18.1419 90.1009L18.1312 90.1063L18.1366 90.1036L18.1258 90.109L18.1151 90.1144L18.1043 90.1224L18.0909 90.1305L18.0667 90.1439L18.0425 90.1574L18.0183 90.1682L17.9941 90.1789L17.9672 90.187L17.9403 90.195L17.9134 90.2031L17.8865 90.2085L17.8596 90.2139L17.8327 90.2192L17.8058 90.2219L17.787 90.2246L17.8031 90.23L17.8273 90.2381L17.8515 90.2461L17.8757 90.2542L17.8999 90.2623L17.9241 90.2703L17.9483 90.2784L17.9752 90.2838L18.0021 90.2892L18.029 90.2945L18.0559 90.2999L18.0693 90.3026L18.0828 90.3053L18.1097 90.3107L18.1366 90.316L18.1635 90.3214L18.2065 90.3268L18.2495 90.3322L18.2925 90.3376L18.3356 90.3429L18.3786 90.3456L18.4216 90.3483L18.4646 90.351L18.5076 90.3537L18.5453 90.3564L18.5802 90.3591H18.5991L18.6179 90.3618L18.6367 90.3644L18.6555 90.3671L18.6744 90.3698L18.6932 90.3725L18.7039 90.3752L18.7147 90.3779L18.7281 90.3833L18.7443 90.3913L18.7523 90.3994L18.7631 90.4102L18.7712 90.4209V90.4236L18.7765 90.4344L18.7819 90.4451L18.7846 90.4586V90.4612V90.4747V90.4881L18.7819 90.5016L18.7792 90.5123L18.7685 90.5312L18.7604 90.5446L18.755 90.55L18.7496 90.5554L18.7389 90.5661L18.7281 90.5769L18.7174 90.5849L18.7066 90.593L18.6959 90.6011L18.6851 90.6064L18.6744 90.6118L18.6636 90.6172L18.6528 90.6226L18.6421 90.6253L18.6313 90.628L18.6098 90.6333L18.5883 90.6387L18.5668 90.6414L18.548 90.6441L18.5292 90.6468L18.4942 90.6522H18.4969L18.4808 90.6548H18.4834L18.47 90.6575L18.4458 90.6629L18.4189 90.6683L18.392 90.6737L18.3651 90.679L18.3382 90.6817L18.3114 90.6844L18.2845 90.6871L18.2576 90.6898L18.2307 90.6925H18.2065H18.1823H18.1581H18.1339H18.1097H18.0855L18.0613 90.6898L18.0371 90.6871L18.0183 90.6844L18.0398 90.6925L18.072 90.7059L18.1043 90.7194L18.1366 90.7328L18.1688 90.7463L18.2011 90.757L18.2334 90.7678L18.2683 90.7785L18.3033 90.7893L18.3382 90.8L18.3732 90.8108H18.3705L18.392 90.8162L18.4135 90.8216H18.4108L18.4324 90.8269L18.4566 90.8296H18.4539L18.4781 90.8323L18.5023 90.835H18.4996L18.5238 90.8377L18.548 90.8404L18.5722 90.8431L18.5964 90.8458L18.6448 90.8484H18.6717L18.6905 90.8538L18.7389 90.8646L18.755 90.8673L18.7819 90.8726L18.8169 90.8807L18.8545 90.8888L18.8895 90.8968L18.9056 90.9022L18.9217 90.9076L18.9379 90.913L18.954 90.9184L18.9701 90.9264L18.9782 90.9318L18.9863 90.9399L18.9943 90.9479L18.9997 90.956L19.0051 90.9668L19.0078 90.9775L19.0105 90.9883V90.999V91.0098L19.0078 91.0205L19.0024 91.0313L18.9943 91.0421L18.9863 91.0528L18.9782 91.0582L18.9701 91.0636L18.9594 91.0689L18.9567 91.0716L18.9513 91.0743L18.9432 91.0797L18.9325 91.0851L18.9137 91.0931L18.8948 91.0985L18.876 91.1039L18.8572 91.1093L18.8384 91.112L18.8196 91.1146L18.8007 91.1173L18.7685 91.1227L18.7389 91.1254L18.7147 91.1281L18.6932 91.1308L18.669 91.1335L18.6448 91.1362L18.6206 91.1389H18.5991H18.5749H18.5534H18.5318H18.5103H18.4888L18.4458 91.1362L18.4028 91.1335L18.3598 91.1281L18.3167 91.1227L18.2737 91.1173L18.228 91.112L18.2925 91.1631L18.2898 91.1604L18.2979 91.1657L18.2925 91.1631L18.3006 91.1684L18.2952 91.1657L18.3114 91.1765L18.306 91.1738L18.3221 91.1819L18.3194 91.1792L18.3356 91.1873L18.3705 91.2061L18.392 91.2168L18.4108 91.2276L18.4189 91.2303L18.4324 91.2357L18.4458 91.241L18.4673 91.2491H18.47L18.4834 91.2518L18.5023 91.2545L18.5318 91.2599L18.5641 91.2652L18.5964 91.2706L18.626 91.276L18.6555 91.2814L18.6851 91.2894L18.7147 91.2975H18.7174L18.747 91.3029L18.7738 91.3083L18.8222 91.319L18.8464 91.3244L18.868 91.3298L18.8814 91.3325L18.8948 91.3378L18.911 91.3459L18.919 91.354L18.9298 91.3647L18.9379 91.3782L18.9459 91.3916L18.9513 91.4051L18.954 91.4212V91.4373L18.9513 91.4535L18.9459 91.4669L18.9406 91.4803L18.9325 91.4938L18.9217 91.5045L18.9083 91.5153L18.8948 91.5234L18.8814 91.5314L18.8653 91.5395L18.8491 91.5449L18.833 91.5503L18.8169 91.5556L18.8007 91.561L18.7846 91.5664L18.7685 91.5691L18.7523 91.5718L18.7362 91.5745L18.7335 91.5852L18.7174 91.5879L18.7012 91.5906H18.6851H18.669H18.6502H18.634H18.6152H18.5964H18.5776L18.5426 91.5879L18.5076 91.5825L18.4727 91.5771L18.4377 91.5691L18.4028 91.561L18.3678 91.5529L18.3329 91.5449L18.2979 91.5341L18.263 91.5234L18.228 91.5126L18.1957 91.4992L18.1635 91.4857L18.1312 91.4723L18.0989 91.4588L18.0693 91.4427L18.0398 91.4266L18.0102 91.4104L17.9833 91.3943L17.9564 91.3782L17.9457 91.3701L17.9322 91.3567L17.9107 91.3351L17.8919 91.3136L17.8677 91.2841L17.8435 91.2545L17.8005 91.198L17.7789 91.1711L17.7574 91.1442L17.744 91.1281L17.7359 91.1227L17.7225 91.112L17.709 91.0985L17.7037 91.0931L17.6956 91.0878L17.6821 91.0743L17.6687 91.0582H17.666L17.6499 91.0528L17.6364 91.0421L17.6257 91.0313L17.6203 91.0205L17.6149 91.0044L17.6122 90.999L17.6069 90.991L17.6042 90.9829L17.6015 90.9748V90.9668V90.9587L17.6042 90.9506L17.6069 90.9426L17.6122 90.9345L17.6176 90.9291L17.623 90.9237L17.6069 90.9049L17.5988 90.8995L17.588 90.8915L17.5746 90.878L17.5611 90.8592L17.5504 90.835L17.5477 90.8216L17.545 90.8027V90.7893L17.5423 90.7866L17.5101 90.7651L17.4778 90.7436L17.4455 90.7221L17.4133 90.7006L17.3837 90.6764L17.3568 90.6548L17.3541 90.6522L17.3245 90.6253L17.2976 90.5984L17.2707 90.5715L17.2438 90.5446L17.2116 90.5096L17.2035 90.4989L17.1928 90.4828L17.1847 90.4639L17.1793 90.4451L17.1766 90.4263V90.4075L17.1793 90.3886L17.182 90.3698L17.1605 90.3618L17.1255 90.3456L17.0906 90.3295L17.0718 90.3214L17.0529 90.3107L17.0341 90.2999L17.0153 90.2892L16.9965 90.2757L16.9776 90.2623L16.9588 90.2461L16.94 90.23L16.9266 90.2166L16.9131 90.195L16.8997 90.1655L16.8943 90.1466L16.8916 90.1251V90.1036V90.1009L16.8943 90.0767L16.8997 90.0552V90.0525L16.9077 90.0337L16.9185 90.0149L16.9292 89.9987L16.9319 89.9961V89.9907V89.8213L16.9454 89.7729L16.9588 89.7675L16.9857 89.7567L17.0018 89.7487H17.0126L17.0395 89.746L17.0933 89.7433L17.147 89.7406L17.2008 89.7379L17.2519 89.7352L17.3138 89.7325L17.3541 89.7406L17.4025 89.7487L17.4509 89.7567L17.4993 89.7648L17.5235 89.7675L17.5477 89.7702L17.5719 89.7729L17.5961 89.7756L17.6203 89.7783L17.6445 89.7809H17.6687H17.666H17.6902H17.7144H17.7117H17.7359H17.7763L17.8166 89.7783L17.8596 89.7756L17.9026 89.7729H17.9457H17.9887H18.0102L18.0532 89.7702ZM18.8787 90.9479L18.8733 90.9533L18.876 90.9506L18.8814 90.9453L18.8787 90.9479ZM17.1121 90.2434H17.1175H17.1094H17.1148H17.1067H17.1121L17.1067 90.2461L17.1175 90.2434H17.1202H17.1121ZM18.0962 89.8482L18.1016 89.8401L18.0935 89.8509L18.0989 89.8455L18.0962 89.8482Z" fill="#FAB393"/>
<path fill-rule="evenodd" clip-rule="evenodd" d="M33.2072 86.1405C32.4301 87.7539 31.4997 88.5014 31.0319 88.5794C29.9455 88.7595 29.0743 89.3 28.0472 89.6415C27.0388 89.9776 27.0442 89.94 26.0493 90.2895C25.9256 90.3325 25.6003 90.432 25.8046 90.6229C25.9068 90.717 26.216 90.8031 26.3155 90.8165C26.856 90.8838 27.3991 90.9268 27.9396 90.9644C29.1765 91.0505 31.6423 90.7843 32.8845 90.3917C33.589 90.1685 33.2072 86.1405 33.2072 86.1405Z" fill="#FAB393"/>
<path fill-rule="evenodd" clip-rule="evenodd" d="M33.2184 86.0248L33.2373 86.0275L33.2561 86.0355L33.2722 86.0463L33.2883 86.0597L33.3018 86.0759L33.3125 86.0947L33.3206 86.1135L33.3233 86.1323L33.3314 86.178L33.3556 86.3071L33.3744 86.3985L33.3959 86.5061L33.4201 86.6298L33.447 86.7669L33.4497 86.7804L33.4604 86.9175L33.4739 87.0788L33.4873 87.2482L33.4927 87.337L33.4981 87.4257L33.5035 87.5171L33.5088 87.6112L33.5142 87.7054L33.5196 87.7995L33.525 87.8963L33.5277 87.9931L33.5303 88.0899L33.533 88.1867L33.5357 88.2835L33.5384 88.383L33.5411 88.4798V88.5766V88.6734V88.7702V88.867L33.5384 88.9638L33.5357 89.0579L33.533 89.152L33.5303 89.2327V89.2434L33.5223 89.3322L33.5115 89.4209L33.5061 89.4639L33.5008 89.5069L33.4954 89.55L33.49 89.5903L33.4846 89.6306L33.4766 89.671L33.4685 89.7113L33.4604 89.7516L33.4524 89.792L33.4443 89.8296L33.4362 89.8672L33.4282 89.9049L33.4201 89.9398L33.412 89.9748L33.4013 90.0098L33.3905 90.0447L33.3798 90.0797L33.369 90.1119L33.3583 90.1442L33.3475 90.1765L33.3341 90.2087L33.3206 90.2383L33.3072 90.2679L33.2937 90.2975L33.2776 90.3271L33.2614 90.3539L33.2453 90.3808L33.2265 90.4077L33.2077 90.4346L33.1862 90.4588L33.1646 90.4803L33.1512 90.4938L33.1404 90.5045L33.127 90.5153L33.1136 90.526L33.1001 90.5368L33.0867 90.5475L33.0732 90.5583L33.0598 90.5664L33.0436 90.5744L33.0275 90.5825L33.0114 90.5906L32.9952 90.5986L32.9791 90.604L32.963 90.6094L32.8984 90.6282L32.8339 90.647L32.7694 90.6659L32.7022 90.682L32.6349 90.6981L32.565 90.7143L32.4951 90.7304L32.4548 90.7385L32.4252 90.7465L32.3526 90.7627L32.2773 90.7788L32.202 90.7949L32.1267 90.8111L32.0487 90.8272L31.9708 90.8406L31.8901 90.8541L31.8094 90.8675L31.7288 90.881L31.6454 90.8944L31.5621 90.9079L31.4787 90.9213L31.3953 90.9347L31.3093 90.9482L31.2232 90.9616L31.1372 90.9724L31.0512 90.9832L30.9651 90.9939L30.8791 91.0047L30.793 91.0154L30.7043 91.0262L30.6156 91.0369L30.5591 91.0423L30.5295 91.045L30.4408 91.0557L30.352 91.0665L30.266 91.0773L30.1773 91.088L30.0912 91.0988L30.0052 91.1068L29.9191 91.1149L29.8331 91.123L29.747 91.131L29.661 91.1391L29.5749 91.1472L29.4889 91.1552L29.4055 91.1606L29.3222 91.166L29.2388 91.1714L29.1582 91.1768L29.0775 91.1821L28.9968 91.1875L28.9162 91.1902L28.8382 91.1929L28.7602 91.1956L28.6849 91.1983L28.6096 91.201L28.5343 91.2036H28.4617H28.3891H28.3192H28.252H28.1848L28.1202 91.201L28.0557 91.1983L27.9939 91.1956L27.9643 91.1929L27.932 91.1902L27.7276 91.1768L27.5233 91.1633L27.3189 91.1499L27.2168 91.1418L27.1146 91.1337L27.0124 91.1257L26.9102 91.1176L26.8 91.1095L26.6978 91.1015L26.5956 91.0907L26.5176 91.0826L26.4934 91.08L26.3913 91.0692L26.2864 91.0557L26.2568 91.0504L26.2245 91.045L26.1896 91.0369L26.1519 91.0289L26.1116 91.0181L26.0713 91.0074L26.0283 90.9939L25.9852 90.9805L25.9422 90.9643L25.8992 90.9482L25.8777 90.9401L25.8562 90.9321L25.8347 90.9213L25.8131 90.9106L25.7916 90.8998L25.7701 90.889L25.7486 90.8783L25.7244 90.8622L25.7029 90.8487L25.6814 90.8353L25.6599 90.8191L25.641 90.803L25.6249 90.7869L25.6115 90.7707L25.598 90.7546L25.5846 90.7385L25.5711 90.7223L25.5577 90.7035L25.5469 90.6847L25.5362 90.6659L25.5254 90.6443L25.5174 90.6228L25.5093 90.5986L25.5039 90.5744L25.5012 90.5502L25.4985 90.526V90.5018L25.5012 90.4776L25.5039 90.4534L25.5093 90.4292L25.5147 90.405L25.5227 90.3835L25.5308 90.362L25.5416 90.3432L25.5523 90.3244L25.5631 90.3082L25.5738 90.2921L25.5846 90.2787L25.598 90.2652L25.6115 90.2518L25.6249 90.2383L25.633 90.2303L25.6572 90.2114L25.6814 90.1953L25.7056 90.1819L25.7298 90.1684L25.754 90.1577L25.7755 90.1469L25.797 90.1388L25.8185 90.1308L25.84 90.1227L25.8804 90.1093L25.918 90.0985L25.9745 90.0824L26.1546 90.0313L26.2192 90.0125L26.316 89.9856L26.4585 89.9479L26.5849 89.9156L26.7005 89.8861L26.8053 89.8592L26.9048 89.835L26.9774 89.8188L27.0016 89.8135L27.1952 89.7678L27.3001 89.7436L27.413 89.714L27.5394 89.6817L27.6792 89.6441L27.7115 89.636L27.8379 89.601L28.0181 89.55L28.0665 89.5365L28.1149 89.5231L28.1633 89.5096L28.1928 89.5016L28.2117 89.4962L28.3058 89.4612L28.3972 89.4263L28.4886 89.3886L28.58 89.351L28.6715 89.3133L28.7629 89.2757L28.8543 89.2354L28.8731 89.2273L28.9457 89.195L29.1259 89.1144L29.3034 89.0337L29.3921 88.9933L29.4808 88.953L29.5722 88.9127L29.6637 88.8723L29.7551 88.8347L29.8465 88.7971L29.8976 88.7755L29.9379 88.7594L29.9837 88.7406L30.0294 88.7218L30.0751 88.7029L30.1208 88.6841L30.1692 88.668L30.2176 88.6519L30.266 88.6357L30.3144 88.6196L30.3628 88.6035L30.4112 88.5873L30.4596 88.5712L30.508 88.5577L30.5564 88.5443L30.6048 88.5309L30.6559 88.5174L30.707 88.504L30.7581 88.4905L30.8092 88.4771L30.8602 88.4663L30.9113 88.4556L30.9624 88.4448L30.9839 88.4394L31.0108 88.4341L31.027 88.4314L31.0458 88.426L31.07 88.4206H31.0646L31.0861 88.4125L31.1076 88.4045L31.1022 88.4072L31.1264 88.3991L31.1506 88.3883L31.148 88.391L31.1722 88.3803L31.1964 88.3695L31.1937 88.3722L31.2206 88.3588L31.2474 88.3453L31.2448 88.348L31.2716 88.3319L31.2985 88.3157L31.3254 88.2996L31.3523 88.2835L31.3792 88.2647L31.4088 88.2458L31.4384 88.2243L31.4679 88.2028L31.4975 88.1813L31.5271 88.1571L31.5567 88.1329L31.5889 88.1087L31.6212 88.0845L31.6535 88.0576L31.6884 88.0307L31.7234 88.0011L31.7583 87.9716L31.7933 87.942L31.8283 87.9097L31.8632 87.8774L31.8982 87.8425L31.9331 87.8075L31.9493 87.7914L31.9681 87.7726L32.0057 87.7349L32.0434 87.6973L32.081 87.657L32.1187 87.6166L32.1563 87.5736L32.1939 87.5306L32.2316 87.4849L32.2692 87.4392L32.3069 87.3934L32.3472 87.345L32.3876 87.2966L32.4279 87.2455L32.4682 87.1945L32.479 87.181L32.5086 87.1434L32.5489 87.0896L32.5892 87.0331L32.6296 86.9767L32.6699 86.9202L32.7102 86.861L32.7506 86.8019L32.7909 86.74L32.8312 86.6782L32.8716 86.6137L32.9119 86.5491L32.9522 86.4819L32.9926 86.4147L33.0329 86.3448L33.0732 86.2748L33.1055 86.2157V86.1754L33.127 86.1727L33.1512 86.1296L33.1189 86.1135L33.1297 86.0947L33.1431 86.0786L33.1593 86.0651L33.1781 86.0544L33.1969 86.0463L33.2157 86.0436L33.2184 86.0248ZM33.0678 86.6163L33.0329 86.6863L32.9979 86.7535L32.963 86.8207L32.928 86.8879L32.8931 86.9525L32.8581 87.017L32.8205 87.0788L32.7828 87.1407L32.7452 87.1998L32.7075 87.259L32.6806 87.2993L32.6699 87.3155L32.6322 87.3719L32.5946 87.4284L32.557 87.4822L32.5193 87.536L32.4817 87.587L32.444 87.6381L32.4064 87.6865L32.3687 87.7349L32.3311 87.7833L32.2934 87.829L32.2558 87.8748L32.2181 87.9178L32.1805 87.9608L32.1617 87.9823L32.1455 88.0011L32.1079 88.0415L32.0703 88.0818L32.0326 88.1194L31.9977 88.1571L31.9627 88.1921L31.9277 88.227L31.8928 88.262L31.8578 88.2942L31.8229 88.3265L31.7879 88.3561L31.753 88.3857L31.718 88.4125L31.6831 88.4394L31.6481 88.4636L31.6131 88.4878L31.5782 88.5093L31.5432 88.5309L31.511 88.5524L31.4787 88.5712L31.4464 88.59L31.4142 88.6061L31.3819 88.6223L31.3496 88.6384L31.3174 88.6519L31.2878 88.6653L31.2582 88.6787L31.2286 88.6895L31.199 88.7003L31.1695 88.7083L31.1399 88.7164L31.1103 88.7245L31.0807 88.7298L31.0538 88.7352L31.0243 88.7406L31.0001 88.7433L30.9517 88.7513L30.9033 88.7594L30.8549 88.7675L30.8065 88.7755L30.7581 88.7863L30.7097 88.7971L30.6613 88.8078L30.6129 88.8186L30.5645 88.8293L30.5161 88.8401L30.4704 88.8535L30.4246 88.867L30.3789 88.8804L30.3332 88.8939L30.2875 88.9073L30.2418 88.9207L30.1961 88.9342L30.1504 88.9476L30.1047 88.9611L30.0589 88.9772L30.0132 88.9933L29.9729 89.0068L29.9218 89.0256L29.8304 89.0579L29.739 89.0901L29.6475 89.1251L29.5561 89.1601L29.4647 89.195L29.3813 89.23L29.1985 89.3026L29.0156 89.3752L28.943 89.4048L28.9242 89.4128L28.8328 89.4505L28.7414 89.4881L28.6499 89.5258L28.5558 89.5607L28.4617 89.5957L28.3676 89.6306L28.2708 89.6656L28.252 89.671L28.2224 89.6817L28.174 89.7005L28.1256 89.7194L28.0772 89.7382L27.9024 89.8027L27.7787 89.8484L27.7492 89.8592L27.612 89.9103L27.4883 89.956L27.3781 89.9963L27.2759 90.034L27.0877 90.1039L27.0689 90.12L26.999 90.1469L26.9048 90.1819L26.8053 90.2222L26.6978 90.2652L26.5795 90.3136L26.445 90.3701L26.3536 90.4077L26.2945 90.4319L26.1224 90.5018L26.1089 90.5072L26.1385 90.518L26.1708 90.5287L26.203 90.5395L26.2353 90.5475L26.2649 90.5556L26.2918 90.5637L26.316 90.5691L26.3348 90.5717L26.3482 90.5744L26.445 90.5852L26.5445 90.5959L26.5687 90.5986L26.644 90.6067L26.7435 90.6175L26.843 90.6282L26.9425 90.639L27.042 90.6497L27.1442 90.6605L27.2436 90.6712L27.3458 90.682L27.5475 90.7008L27.7492 90.7196L27.9508 90.7358L27.9804 90.7385L28.0073 90.7411L28.0665 90.7438L28.1256 90.7465L28.1875 90.7492L28.252 90.7519L28.3165 90.7546L28.3837 90.7573H28.451H28.5209H28.5908H28.6634H28.736H28.8113L28.8866 90.7546L28.9646 90.7519L29.0425 90.7492L29.1205 90.7465L29.2012 90.7438L29.2818 90.7411L29.3625 90.7385L29.4459 90.7331L29.5292 90.7277L29.6126 90.7223L29.6959 90.7169L29.7793 90.7116L29.8653 90.7062L29.9514 90.6981L30.0374 90.6901L30.1235 90.682L30.2095 90.6739L30.2956 90.6659L30.3816 90.6578L30.4677 90.6497L30.4972 90.647L30.5537 90.639L30.6398 90.6282L30.7258 90.6175L30.8118 90.604L30.8979 90.5906L30.9839 90.5771L31.0673 90.5637L31.1506 90.5502L31.234 90.5368L31.3174 90.5233L31.4007 90.5099L31.4814 90.4965L31.5621 90.483L31.6427 90.4669L31.7207 90.4507L31.7987 90.4346L31.8767 90.4185L31.9519 90.4023L32.0272 90.3862L32.0998 90.3701L32.1724 90.3539L32.2423 90.3378L32.3123 90.3217L32.3418 90.3136L32.3822 90.3029L32.4494 90.2867L32.5139 90.2679L32.5785 90.2491L32.6403 90.2303L32.6995 90.2114L32.7586 90.1926L32.8097 90.1765H32.8124L32.8151 90.1738L32.8178 90.1711L32.8205 90.1684L32.8258 90.1603L32.8312 90.1523L32.8366 90.1442L32.8447 90.1335L32.8527 90.12L32.8608 90.1066L32.8689 90.0904L32.8769 90.0716L32.885 90.0501L32.8823 90.0555L32.8904 90.034L32.8984 90.0098L32.8958 90.0151L32.9038 89.9909L32.9119 89.964L32.9092 89.9694L32.9173 89.9425L32.9253 89.9156L32.9334 89.8888L32.9415 89.8592L32.9495 89.8296L32.9549 89.8L32.9603 89.7678L32.9657 89.7355L32.971 89.7032L32.9764 89.6683L32.9818 89.6333L32.9872 89.5984L32.9926 89.5607L32.9979 89.5231L33.0033 89.4854L33.0087 89.4478L33.0114 89.4074L33.0141 89.3671L33.0221 89.2838L33.0275 89.2004V89.1896L33.0356 89.1144L33.0436 89.0256L33.049 88.9369L33.0544 88.8455L33.0598 88.754L33.0652 88.6599L33.0678 88.5658L33.0705 88.4717L33.0732 88.3749L33.0759 88.2781L33.0786 88.1813V88.0845V87.9877V87.8936V87.7995V87.7054V87.6139L33.0759 87.5225L33.0732 87.4311L33.0705 87.3424L33.0678 87.2563L33.0625 87.0896L33.0571 86.9309L33.0517 86.7965V86.7831L33.0598 86.6459L33.0625 86.6002L33.0678 86.6163ZM25.9449 90.5986L25.953 90.5906L25.9557 90.5879L25.9449 90.5986Z" fill="#FAB393"/>
<path fill-rule="evenodd" clip-rule="evenodd" d="M27.047 90.596C26.8481 90.3191 26.5819 90.1577 26.4689 90.0986C26.3237 90.0233 25.6354 89.7436 25.2347 89.5689C25.1245 89.5205 24.982 89.4075 24.8825 89.4774C24.8072 89.5312 24.9685 89.6442 25.0277 89.7168C25.0653 89.7598 25.5117 90.0556 25.2186 90.1497C24.869 90.2626 24.4307 90.1389 24.0919 90.0932C23.9655 90.0771 23.8365 90.0663 23.7101 90.0529C23.6671 90.0475 23.5595 90.034 23.581 90.0717C23.6429 90.1685 23.7935 90.1846 23.8903 90.2088C24.1887 90.2814 24.4872 90.3513 24.7857 90.4239C24.8932 90.4481 25.0088 90.4401 25.1083 90.4885C25.146 90.5073 25.0223 90.5019 24.9793 90.5073C24.8717 90.5207 24.7668 90.5503 24.6593 90.5611C24.2855 90.596 23.9118 90.6149 23.538 90.6417C23.5353 90.6417 23.2153 90.6498 23.2153 90.7063C23.2153 90.7601 23.3148 90.7466 23.3659 90.7574C23.4251 90.7708 23.4869 90.7654 23.5461 90.7762C24.0435 90.8461 24.0946 90.8837 24.6001 90.8837C24.7211 90.8837 24.8394 90.8515 24.9604 90.8542C24.9954 90.8542 25.0814 90.8569 25.0626 90.8891C25.0088 90.9671 24.7507 90.994 24.6808 91.0074C24.3527 91.0693 24.022 91.1257 23.694 91.1957C23.5407 91.2279 23.4143 91.2629 23.3068 91.3893C23.2852 91.4135 23.3632 91.4323 23.3955 91.4296C23.5219 91.4269 23.6482 91.4242 23.7746 91.4162C24.3904 91.3785 24.385 91.3812 24.99 91.2441C25.0546 91.2306 25.1191 91.201 25.1836 91.1903C25.2455 91.1795 25.3934 91.115 25.3718 91.1741C25.3423 91.2602 25.224 91.279 25.1406 91.3167C24.9094 91.4188 24.6673 91.4968 24.4334 91.5909C24.42 91.5963 24.2775 91.6447 24.2586 91.6931C24.2317 91.7711 24.42 91.755 24.5006 91.7442C24.6378 91.7281 24.7722 91.7066 24.904 91.6689C25.2562 91.5667 25.5816 91.3839 25.9311 91.2736C26.1489 91.2037 26.3748 91.1634 26.5953 91.0989C26.7244 91.0612 26.8534 91.0155 26.9825 90.9698C27.0255 90.9537 27.0847 90.9563 27.1089 90.916C27.168 90.8165 27.0954 90.6606 27.047 90.596Z" fill="#FAB393"/>
<path fill-rule="evenodd" clip-rule="evenodd" d="M23.5994 70.432C23.4512 70.9381 23.3056 71.4181 23.3498 71.9503C23.3524 71.9859 23.4616 72.4611 23.4798 72.4492C23.654 72.3518 23.7398 71.9954 23.7944 71.8291C23.8152 71.7602 23.836 71.6937 23.8516 71.6224C23.8594 71.5868 23.862 71.4822 23.875 71.5155C23.9452 71.7246 23.9582 71.9645 23.9946 72.1784C24.018 72.3162 24.0388 72.4564 24.07 72.5942C24.135 72.9007 24.3534 73.0123 24.447 72.7011C24.551 72.3613 24.4574 71.8909 24.59 71.5749C24.668 71.3896 25.1099 71.2185 25.4401 71.4228C25.5259 71.4751 25.5649 69.9972 25.0085 69.5624C24.499 69.1633 23.8646 69.2726 23.641 69.8879C23.5708 70.0804 23.55 70.2847 23.5344 70.4867" fill="#005F60"/>
<path fill-rule="evenodd" clip-rule="evenodd" d="M18.6094 72.2394C19.8221 71.3064 21.4382 70.7498 22.9305 70.4836C23.4602 70.3895 25.4366 69.9834 25.4366 69.9834C25.4366 69.9834 25.2215 66.9665 24.2562 66.7487C20.852 65.9823 19.2628 66.5712 17.9264 68.4588C17.2945 69.3515 17.8216 70.1475 18.3889 72.105L18.6094 72.2394Z" fill="#FAE397"/>
<path fill-rule="evenodd" clip-rule="evenodd" d="M25.415 70.0376C24.2964 69.8923 23.1805 70.051 22.0808 70.25C21.016 70.4436 19.9727 70.6372 19.0315 71.1938C18.4131 71.5595 17.8242 72.0247 17.4021 72.6082C17.2622 72.8018 17.1385 73.0034 17.0256 73.2132C16.9853 73.2885 16.9503 73.3664 16.9207 73.4471C16.9073 73.4874 16.8401 73.5762 16.8804 73.5681C17.3429 73.4498 17.7785 72.947 18.1523 72.6619C18.7842 72.1779 19.5075 71.7531 20.2335 71.4277C21.4139 70.9007 22.7046 70.578 23.9684 70.3172C24.4417 70.2204 24.9794 70.2607 25.4392 70.1075L25.415 70.0376Z" fill="#302E31"/>
</g>
<defs>
<clipPath id="clip0_1847_790">
<rect width="146.176" height="115.793" fill="white" transform="translate(0.911621)"/>
</clipPath>
</defs>
</svg>
