<svg width="246" height="130" viewBox="0 0 246 130" fill="none" xmlns="http://www.w3.org/2000/svg">
<g clip-path="url(#clip0_1859_6781)">
<path d="M217.465 122.41C215.365 118.984 213.705 115.03 215.408 111.551C216.391 109.545 218.311 108.199 220.05 106.795C227.917 100.46 233.403 91.2361 235.217 81.3002C236.54 74.0547 235.875 66.2552 232.195 59.875C225.313 47.9355 209.917 43.8035 196.141 44.0686C182.361 44.3338 168.64 47.8418 154.933 46.4151C150.826 45.9864 146.476 44.9571 143.708 41.8953C137.788 35.3465 142.627 24.7633 140.397 16.2212C139.02 10.9481 134.877 6.70139 130.038 4.1937C125.202 1.68601 119.71 0.729376 114.278 0.292787C105.167 -0.44016 95.9483 0.201949 87.0264 2.19243C75.7108 4.72113 63.6782 10.6909 60.2525 21.7697C58.0645 28.8437 59.9459 36.6563 63.5352 43.1324C65.1827 46.1057 67.2232 49.0006 67.6961 52.3638C68.4603 57.7982 64.8557 63.0168 60.3831 66.1927C54.1562 70.616 46.3515 72.1182 38.7705 73.0487C31.1895 73.9815 23.4269 74.4862 16.3211 77.2925C9.2159 80.0994 2.70056 85.7598 1.24488 93.2601C0.0128972 99.5909 2.60915 106.192 6.69969 111.18C11.417 116.932 18.1975 120.9 25.4719 122.41H217.465Z" fill="#E0E0E0"/>
<path d="M138.588 15.5566C138.588 15.5566 135.532 21.59 135.611 23.0258C135.69 24.4616 138.572 26.0739 138.572 26.0739L140.425 25.9718L141.773 22.5023L138.588 15.5566Z" fill="#3CD278"/>
<path d="M136.69 10.5745C135.941 12.0801 134.694 13.4103 134.517 15.0823C134.425 15.9589 134.704 16.936 135.441 17.418C135.971 17.7643 136.657 17.8029 137.272 17.6519C137.887 17.5009 138.445 17.1784 138.98 16.84C140.343 15.9782 141.69 14.904 142.246 13.3893C142.82 11.8252 142.423 10.0096 141.464 8.64701C140.713 7.57967 139.653 6.76667 138.5 6.17339C138.291 6.06552 137.922 5.80152 137.673 5.84921C137.358 5.90939 137.481 6.2188 137.498 6.4652C137.545 7.13343 137.507 7.80733 137.388 8.4659C137.255 9.19658 137.021 9.90909 136.69 10.5745Z" fill="black"/>
<path d="M153.102 21.2316L154.254 22.0259L160.242 20.7263C160.068 17.9189 155.053 16.1907 155.053 16.1907L153.102 21.2316Z" fill="#FFC6B2"/>
<path d="M151.708 31.5718C152.661 32.5608 153.967 33.2052 155.331 33.405C155.318 33.3755 155.304 33.35 155.288 33.321C153.961 33.1161 152.691 32.4796 151.764 31.5173C150.596 30.3046 149.962 28.5702 150.053 26.884L149.973 26.9016C149.887 28.5992 150.528 30.3489 151.708 31.5718Z" fill="white"/>
<path d="M140.638 34.7245C140.712 35.0492 152.8 32.3042 152.727 31.9823L150.697 20.6236L152.546 21.2294C153.973 21.9828 157.588 16.348 156.165 15.5997C156.165 15.5997 153.74 14.2247 151.327 13.3066C149.192 12.4908 146.74 11.6841 145.118 11.5609C145.099 11.5586 145.074 11.558 145.05 11.5603C144.144 11.5535 141.011 12.6214 141.011 12.6214C141.011 12.6214 137.43 16.2254 137.36 18.4112C137.267 21.3957 140.638 34.7245 140.638 34.7245Z" fill="#3CD278"/>
<path d="M138.213 9.84903C138.886 10.9936 140.831 10.5649 140.831 10.5649C141.201 11.2621 141.328 11.9502 141.012 12.6207C141.074 12.862 145.118 11.8151 145.055 11.5738L145.052 11.5596C144.489 10.8216 144.274 9.10644 144.074 7.34702C144.074 7.34702 145.165 6.51529 144.701 5.55525C144.241 4.59748 143.035 5.68356 143.035 5.68356L142.71 4.1853C142.71 4.1853 137.51 4.84728 137.437 4.90803C137.401 4.93471 137.423 5.78007 137.528 6.78497L137.529 6.78837C137.642 7.91476 137.859 9.24099 138.213 9.84903Z" fill="#FFC6B2"/>
<path d="M137.529 6.7845L137.53 6.78791C137.609 6.80437 137.691 6.81686 137.771 6.82595C138.891 6.95539 139.996 6.4484 140.88 5.75236C141.127 5.55592 141.431 5.32769 141.732 5.43215C141.952 5.51221 142.074 5.74157 142.186 5.94709C142.298 6.15204 142.452 6.3746 142.687 6.40242C142.919 6.4308 143.141 6.10095 142.953 5.96072L143.036 5.68309C143.036 5.68309 144.241 4.59758 144.702 5.55479C145.166 6.51483 144.074 7.34656 144.074 7.34656C144.213 9.05658 144.422 10.6462 145.052 11.5592C145.079 11.5575 145.097 11.5569 145.117 11.5603C146.739 11.6824 149.19 12.4897 151.328 13.3055C151.978 12.7315 152.272 11.7794 152.058 10.9347C151.845 10.0893 151.129 9.39041 150.282 9.19795C149.418 8.99754 148.533 9.28765 147.653 9.37735C146.773 9.47046 145.726 9.25699 145.349 8.45478C144.985 7.67982 145.438 6.78393 145.52 5.93063C145.655 4.49369 144.662 3.12147 143.379 2.46687C142.096 1.8083 140.584 1.75663 139.153 1.92412C138.33 2.01949 137.499 2.19265 136.804 2.63322C136.105 3.07435 135.563 3.83568 135.577 4.6606C135.59 5.70353 136.507 6.56592 137.529 6.7845Z" fill="black"/>
<path d="M150.262 29.562L152.696 31.0364C152.696 31.0364 160.413 23.5343 160.241 20.7263L154.253 22.0259L150.262 29.562Z" fill="#FFC6B2"/>
<path d="M140.83 10.5981C140.817 10.5981 140.804 10.5895 140.799 10.5753C140.794 10.5583 140.803 10.5401 140.82 10.5345C140.834 10.5299 142.237 10.0701 142.835 9.11172C142.845 9.09639 142.865 9.09185 142.88 9.1015C142.895 9.11115 142.9 9.13102 142.89 9.14635C142.279 10.1251 140.854 10.5918 140.84 10.5969C140.837 10.5975 140.834 10.5981 140.83 10.5981Z" fill="#2A0054"/>
<path d="M150.68 20.6514C150.656 20.6384 148.222 19.3337 147.639 17.0191L147.702 17.0032C148.277 19.2894 150.686 20.5816 150.711 20.5941L150.68 20.6514Z" fill="white"/>
<path d="M139.327 25.2017C139.312 25.1738 137.829 22.4056 137.63 20.5298L137.695 20.5229C137.892 22.3857 139.369 25.1432 139.384 25.171L139.327 25.2017Z" fill="white"/>
<path d="M132.644 19.1624L129.379 24.1875L148.887 36.8647L152.152 31.8396L132.644 19.1624Z" fill="#FF5252"/>
<path d="M131.439 18.3794L128.174 23.4045L129.379 24.1875L132.644 19.1624L131.439 18.3794Z" fill="#FFC6B2"/>
<path d="M128.17 23.4003L131.435 18.3752L126.443 18.7062L128.17 23.4003Z" fill="#FFC6B2"/>
<path d="M127.012 20.2524L126.443 18.7064L128.088 18.5974L127.012 20.2524Z" fill="black"/>
<path d="M132.471 19.0564L129.206 24.0815L129.367 24.1867L132.632 19.1616L132.471 19.0564Z" fill="white"/>
<path d="M144.286 27.962C144.265 27.9932 143.396 27.4681 141.665 26.3621L137.29 23.5189C135.578 22.388 134.745 21.8066 134.766 21.7748C134.787 21.743 135.656 22.2687 137.385 23.3724L141.761 26.2156C143.473 27.3483 144.307 27.9291 144.286 27.962Z" fill="white"/>
<path d="M137.593 29.5262C138.022 28.858 137.7 27.8843 136.875 27.354C136.049 26.8238 135.03 26.9362 134.601 27.6044C134.171 28.2732 137.164 30.1944 137.593 29.5262Z" fill="#FFC6B2"/>
<path d="M147.27 19.2331C147.278 19.2365 147.264 19.291 147.225 19.3972C147.181 19.5005 147.11 19.6561 146.979 19.8429C146.849 20.0285 146.661 20.2488 146.388 20.4594C146.116 20.6683 145.754 20.8687 145.3 20.9715C144.527 21.1265 143.714 20.9738 143.036 20.5798C142.952 20.5292 142.869 20.4759 142.792 20.4146L142.778 20.4032L142.751 20.4322C142.734 20.4503 142.716 20.4668 142.698 20.4838C142.557 20.6201 142.4 20.741 142.234 20.8443C141.9 21.051 141.524 21.189 141.135 21.244C140.674 21.3053 140.264 21.2383 139.939 21.1299C139.611 21.0209 139.362 20.8733 139.18 20.7376C138.998 20.6013 138.879 20.4781 138.806 20.3924C138.735 20.305 138.705 20.2567 138.712 20.2511C138.731 20.2329 138.872 20.4106 139.239 20.6524C139.422 20.7711 139.667 20.9 139.981 20.9919C140.294 21.0839 140.68 21.1362 141.11 21.0714C141.474 21.0198 141.828 20.8903 142.141 20.6962C142.298 20.5991 142.444 20.4855 142.576 20.3584C142.593 20.3425 142.61 20.3271 142.626 20.3101L142.696 20.2357C142.751 20.1046 142.853 20.2573 142.898 20.276C142.97 20.3328 143.048 20.3828 143.126 20.4305C143.76 20.8012 144.543 20.9477 145.264 20.8012C145.689 20.7132 146.036 20.5332 146.302 20.3436C146.569 20.1528 146.758 19.9513 146.896 19.7815C147.166 19.4335 147.246 19.2217 147.27 19.2331Z" fill="white"/>
<path d="M144.64 10.7209C144.64 10.7209 145.8 11.5992 145.738 11.6333C145.676 11.6674 143.029 13.4853 143.029 13.4853L142.408 12.4128L144.64 10.7209Z" fill="white"/>
<path d="M142.408 12.413L141.51 13.5633L141.012 12.6208L141.191 11.843L142.396 12.3807" fill="white"/>
<path d="M177.562 116.426V117.536C177.562 120.228 175.379 122.412 172.686 122.412H68.5052C65.813 122.412 63.6323 120.229 63.6323 117.536V116.426C63.6323 115.594 64.3057 114.922 65.1368 114.922H176.055C176.887 114.922 177.562 115.594 177.562 116.426Z" fill="#829ED9"/>
<path d="M171.387 51.153V114.919H69.8047V51.1552C69.8047 49.1046 71.4653 47.4468 73.5109 47.4468H167.684C169.729 47.4468 171.387 49.1046 171.387 51.153Z" fill="#829ED9"/>
<path d="M169.792 114.92V51.1518C169.792 49.9874 168.848 49.0432 167.683 49.0432H73.5099C72.3455 49.0432 71.4014 49.9874 71.4014 51.1518V114.92H169.792Z" fill="white"/>
<path d="M132.355 114.92L130.851 117.47C130.636 117.833 130.246 118.057 129.823 118.057H111.37C110.947 118.057 110.557 117.833 110.342 117.47L108.837 114.92H132.355Z" fill="#5D81C1"/>
<g opacity="0.1">
<path d="M165.586 47.7256V108.456C165.586 110.704 163.765 112.525 161.52 112.525H81.2955C79.0484 112.525 77.2266 110.704 77.2266 108.456V47.7256H165.586Z" fill="black"/>
</g>
<path d="M164.482 31.9311V106.896C164.482 109.128 162.67 110.937 160.441 110.937H80.6734C78.441 110.937 76.6294 109.128 76.6294 106.896V31.9311C76.6294 29.6988 78.441 27.8928 80.6734 27.8928H160.441C162.67 27.8928 164.482 29.6988 164.482 31.9311Z" fill="#0039B2"/>
<path d="M80.6739 109.693C79.1307 109.693 77.8755 108.438 77.8755 106.895V31.9322C77.8755 30.3908 79.1307 29.1367 80.6739 29.1367H160.441C161.982 29.1367 163.236 30.3908 163.236 31.9322V106.895C163.236 108.438 161.982 109.693 160.441 109.693H80.6739Z" fill="white"/>
<g opacity="0.05">
<path d="M131.502 77.3568H84.7326C83.458 77.3568 82.4253 76.3235 82.4253 75.0495V42.4325C82.4253 41.158 83.4586 40.1252 84.7326 40.1252H131.502C132.777 40.1252 133.809 41.1585 133.809 42.4325V75.0495C133.809 76.3235 132.776 77.3568 131.502 77.3568Z" fill="black"/>
</g>
<path d="M164.563 31.7403V35.2392H76.7119V31.7403C76.7119 29.6147 78.435 27.8916 80.5629 27.8916H160.711C162.837 27.8916 164.563 29.6147 164.563 31.7403Z" fill="#0039B2"/>
<path d="M81.6396 32.26C81.7793 31.668 81.4128 31.0748 80.8208 30.935C80.2288 30.7952 79.6356 31.1618 79.4958 31.7538C79.356 32.3458 79.7226 32.939 80.3146 33.0788C80.9066 33.2186 81.4998 32.852 81.6396 32.26Z" fill="white"/>
<path d="M84.4442 32.26C84.584 31.668 84.2174 31.0748 83.6255 30.935C83.0335 30.7952 82.4403 31.1618 82.3005 31.7538C82.1607 32.3458 82.5273 32.939 83.1193 33.0788C83.7112 33.2186 84.3045 32.852 84.4442 32.26Z" fill="white"/>
<path d="M87.2489 32.26C87.3887 31.668 87.0221 31.0748 86.4301 30.935C85.8382 30.7952 85.2449 31.1618 85.1052 31.7538C84.9654 32.3458 85.332 32.939 85.9239 33.0788C86.5159 33.2186 87.1091 32.852 87.2489 32.26Z" fill="white"/>
<path d="M130.735 76.6222H83.9655C82.6909 76.6222 81.6582 75.5889 81.6582 74.3149V41.6979C81.6582 40.4233 82.6915 39.3906 83.9655 39.3906H130.735C132.01 39.3906 133.042 40.4239 133.042 41.6979V74.3149C133.043 75.5889 132.01 76.6222 130.735 76.6222Z" fill="#FFC837"/>
<g opacity="0.4">
<path d="M116.238 56.709L116.235 64.1446C116.238 66.3208 98.4604 66.3208 98.4604 64.1446V56.8907L107.034 61.1907C107.177 61.2588 107.346 61.2588 107.495 61.1844L116.238 56.709Z" fill="white"/>
<path d="M120.198 53.6727L118.783 54.3966V64.0021H119.119C119.228 64.0021 119.318 64.0821 119.345 64.1866L119.763 66.1232C119.794 66.2668 119.685 66.4002 119.542 66.4002H117.367C117.219 66.4002 117.107 66.2668 117.139 66.1232L117.562 64.1866C117.584 64.0821 117.678 64.0021 117.785 64.0021H118.123V54.7349L116.24 55.6995L107.497 60.1756C107.349 60.2511 107.179 60.2511 107.036 60.1829L98.4629 55.8846L94.5098 53.8992C94.1237 53.7051 94.1402 53.1532 94.5319 52.9784L107.216 47.3436C107.349 47.2851 107.493 47.2851 107.624 47.3385L120.167 52.757C120.558 52.9273 120.579 53.4763 120.198 53.6727Z" fill="white"/>
</g>
<g opacity="0.1">
<path d="M129.204 72.5635C129.204 72.7412 129.061 72.8843 128.883 72.8843H115.647C115.509 73.3776 115.055 73.7376 114.517 73.7376C113.98 73.7376 113.526 73.3776 113.388 72.8843H92.6186C92.4409 72.8843 92.2979 72.7412 92.2979 72.5635C92.2979 72.3858 92.4409 72.2427 92.6186 72.2427H113.388C113.526 71.7494 113.98 71.3894 114.517 71.3894C115.055 71.3894 115.509 71.7494 115.647 72.2427H128.883C129.061 72.2427 129.204 72.3858 129.204 72.5635Z" fill="black"/>
</g>
<path d="M128.372 72.5634H92.1054C91.9283 72.5634 91.7847 72.4198 91.7847 72.2426C91.7847 72.0655 91.9283 71.9219 92.1054 71.9219H128.372C128.549 71.9219 128.693 72.0655 128.693 72.2426C128.692 72.4198 128.548 72.5634 128.372 72.5634Z" fill="white"/>
<path d="M114.834 73.073C115.292 72.6147 115.292 71.8717 114.834 71.4134C114.376 70.9551 113.633 70.9551 113.175 71.4134C112.716 71.8717 112.716 72.6147 113.175 73.0729C113.633 73.5312 114.376 73.5312 114.834 73.073Z" fill="#FF784B"/>
<g opacity="0.1">
<path d="M90.635 70.9021V74.061C90.635 74.1819 90.5362 74.2807 90.413 74.2807H89.0936C88.9704 74.2807 88.8716 74.1819 88.8716 74.061V70.9021C88.8716 70.7812 88.9704 70.6824 89.0936 70.6824H90.413C90.5362 70.6829 90.635 70.7817 90.635 70.9021Z" fill="black"/>
</g>
<path d="M90.2761 70.6633V73.8222C90.2761 73.9431 90.1773 74.0419 90.0541 74.0419H88.7347C88.6115 74.0419 88.5127 73.9431 88.5127 73.8222V70.6633C88.5127 70.5424 88.6115 70.4436 88.7347 70.4436H90.0541C90.1779 70.4436 90.2761 70.5424 90.2761 70.6633Z" fill="white"/>
<g opacity="0.1">
<path d="M87.8723 70.9021V74.061C87.8723 74.1819 87.7735 74.2807 87.6503 74.2807H86.3309C86.2077 74.2807 86.1089 74.1819 86.1089 74.061V70.9021C86.1089 70.7812 86.2077 70.6824 86.3309 70.6824H87.6503C87.7735 70.6829 87.8723 70.7817 87.8723 70.9021Z" fill="black"/>
</g>
<path d="M87.5144 70.6633V73.8222C87.5144 73.9431 87.4156 74.0419 87.2924 74.0419H85.973C85.8498 74.0419 85.751 73.9431 85.751 73.8222V70.6633C85.751 70.5424 85.8498 70.4436 85.973 70.4436H87.2924C87.4156 70.4436 87.5144 70.5424 87.5144 70.6633Z" fill="white"/>
<path d="M107.35 62.4662C109.814 62.4662 111.81 60.4693 111.81 58.006C111.81 55.5428 109.814 53.5459 107.35 53.5459C104.887 53.5459 102.89 55.5428 102.89 58.006C102.89 60.4693 104.887 62.4662 107.35 62.4662Z" fill="#719BFF"/>
<g opacity="0.1">
<path d="M109.823 58.7877L107.042 60.3893C106.829 60.5125 106.562 60.3581 106.562 60.1117V56.9091C106.562 56.6627 106.829 56.5082 107.042 56.6314L109.823 58.2324C110.037 58.3556 110.037 58.6645 109.823 58.7877Z" fill="black"/>
</g>
<path d="M109.529 58.4942L106.748 60.0958C106.535 60.219 106.268 60.0646 106.268 59.8182V56.6156C106.268 56.3692 106.535 56.2148 106.748 56.338L109.529 57.939C109.744 58.0622 109.744 58.371 109.529 58.4942Z" fill="white"/>
<path d="M31.3871 129.586C31.382 129.646 31.4297 129.698 31.4899 129.698H32.2711C32.3239 129.698 32.3664 129.658 32.371 129.608L32.4664 128.837H32.8746L32.9495 129.008L33.0046 129.132L33.2271 129.635C33.2419 129.673 33.2799 129.698 33.3197 129.698H37.3693C37.4267 129.698 37.4721 129.653 37.4721 129.595V129.037C37.4721 128.837 37.4147 128.644 37.3046 128.479C37.2796 128.434 37.2473 128.392 37.2092 128.354C37.1292 128.259 37.0315 128.181 36.9163 128.121L35.129 127.188C35.129 127.188 34.9462 126.507 34.9014 126.462C34.8565 126.417 31.6676 126.462 31.6676 126.462L31.5324 127.956L31.5222 128.081L31.3871 129.586Z" fill="#FF5D5D"/>
<path d="M31.5229 128.082H33.5129V127.957H31.5326L31.5229 128.082Z" fill="white"/>
<path d="M32.9497 129.008L33.0048 129.133H35.8332C35.8656 129.133 35.8957 129.105 35.8957 129.07V128.48H37.3048C37.2798 128.435 37.2475 128.392 37.2094 128.355H35.8327C35.7975 128.355 35.7702 128.382 35.7702 128.417V129.008H32.9497Z" fill="white"/>
<path d="M40.5383 129.704L31.2717 113.988L22.0074 129.704H21.3232L31.2717 112.827L41.2224 129.704H40.5383Z" fill="black"/>
<path d="M41.2689 96.0708C41.2689 96.0708 42.9046 105.108 42.8365 105.081C42.7689 105.054 36.848 105.15 36.7935 105.081C36.7395 105.014 37.4435 93.1311 37.4435 93.1311L38.6085 93.5512L41.2689 96.0708Z" fill="#FFC6B2"/>
<path d="M50.1668 114.95C50.1668 115.534 49.93 116.06 49.5457 116.445C49.167 116.829 48.635 117.066 48.0508 117.066H24.0646C21.7227 117.066 19.8281 115.171 19.8281 112.834H48.0514C49.2192 112.834 50.1668 113.781 50.1668 114.95Z" fill="#FF784B"/>
<path d="M38.7161 112.827H19.8219L19.7549 112.566L14.89 93.2883C14.228 90.6614 16.2122 88.1145 18.9198 88.1145H32.4796L38.7161 112.827Z" fill="#FF784B"/>
<path d="M41.441 96.1594C41.4182 96.0141 41.3813 95.8647 41.3433 95.7007C40.4196 91.7095 38.4308 89.6389 38.0294 89.4312L35.5155 92.5662L34.686 96.16C34.686 96.4024 41.441 96.4024 41.441 96.1594Z" fill="#D250DC"/>
<path d="M43.0576 104.237L39.897 104.022C39.897 104.022 35.5777 101.622 35.4068 101.686C35.2359 101.75 33.8069 105.633 33.8705 105.697C33.9347 105.761 37.4762 109.58 37.4762 109.58L30.8394 126.891C30.8394 127.449 35.5141 127.331 35.5141 126.774L46.0944 110.519C47.8561 107.955 46.1608 104.448 43.0576 104.237Z" fill="#1258FF"/>
<path d="M30.1836 112.566V112.827H19.8298L19.7549 112.566" fill="white"/>
<path d="M45.3026 129.586C45.2975 129.646 45.3452 129.698 45.4054 129.698H46.1866C46.2394 129.698 46.282 129.658 46.2865 129.608L46.3819 128.837H46.7901L46.865 129.008L46.9201 129.132L47.1427 129.635C47.1574 129.673 47.1955 129.698 47.2352 129.698H51.2849C51.3422 129.698 51.3876 129.653 51.3876 129.595V129.037C51.3876 128.837 51.3303 128.644 51.2201 128.479C51.1952 128.434 51.1628 128.392 51.1248 128.354C51.0447 128.259 50.9471 128.181 50.8318 128.121L49.0446 127.188C49.0446 127.188 48.8618 126.507 48.8169 126.462C48.7721 126.417 45.5831 126.462 45.5831 126.462L45.448 127.956L45.4377 128.081L45.3026 129.586Z" fill="#FF5D5D"/>
<path d="M45.4375 128.082H47.4274V127.957H45.4477L45.4375 128.082Z" fill="white"/>
<path d="M46.8643 129.008L46.9193 129.133H49.7478C49.7801 129.133 49.8102 129.105 49.8102 129.07V128.48H51.2194C51.1944 128.435 51.162 128.392 51.124 128.355H49.7472C49.712 128.355 49.6848 128.382 49.6848 128.417V129.008H46.8643Z" fill="white"/>
<path d="M36.7485 112.825L45.1186 126.8L49.4573 126.721C49.4573 126.721 46.0259 112.321 43.8515 108.059C43.2235 106.828 42.1108 105.918 40.7806 105.545L33.7849 104.161L27.0101 104.462C26.925 104.681 26.1035 112.182 29.5547 112.825H36.7485Z" fill="#1258FF"/>
<path d="M48.8388 125.011C48.8445 125.048 48.534 125.132 47.8964 125.25L46.271 125.512C45.6294 125.599 45.3081 125.618 45.3018 125.58C45.2956 125.542 45.6067 125.459 46.2432 125.339L47.8686 125.078C48.5113 124.99 48.8326 124.972 48.8388 125.011Z" fill="white"/>
<path d="M39.9962 104.02C39.7799 105.001 27.5844 105.417 26.4954 104.46C25.7608 103.818 24.2631 90.3781 25.281 88.9571C25.448 88.7232 26.9315 88.5506 28.8396 88.4813H28.8413C30.4367 88.4223 32.3289 88.4382 33.9969 88.5523C36.08 88.6954 37.7406 89.0491 38.1721 89.4976C39.2212 90.5865 38.884 94.3546 39.119 97.6736C39.3405 100.798 40.0586 103.735 39.9962 104.02Z" fill="#D250DC"/>
<path d="M34.686 96.1594L29.1182 88.4683C30.7095 88.407 32.1555 88.3968 33.8786 88.5449C33.9155 88.5483 34.686 96.1594 34.686 96.1594Z" fill="white"/>
<path d="M39.7847 104.161H52.163C52.3822 104.161 52.5763 104.019 52.6439 103.811L56.1548 92.9773C56.2604 92.6509 56.0174 92.3159 55.6739 92.3159H43.6231L39.7847 104.161Z" fill="#719BFF"/>
<path d="M38.7573 104.161H39.7844L43.6217 92.3159H42.954C42.7417 92.3159 42.5532 92.455 42.4879 92.6566L38.7573 104.161Z" fill="#6385D2"/>
<path d="M33.4556 104.161H39.5383V103.343H34.2725C33.8212 103.343 33.4556 103.709 33.4556 104.161Z" fill="#6385D2"/>
<path d="M22.5572 101.43C22.7667 103.035 24.1417 104.233 25.7603 104.222L33.825 104.162C33.825 104.162 39.5382 105.244 39.4984 102.189C39.466 99.6902 35.9097 101.622 35.8757 101.591C35.8445 101.557 36.5144 101.261 35.9767 100.739C35.7332 100.503 34.2786 101.391 34.2786 101.391L27.6259 99.8764L27.7281 95.7983L21.9213 96.3434C21.9071 96.4189 22.2659 99.1928 22.5572 101.43Z" fill="#FFC6B2"/>
<path d="M28.5356 96.5728C28.5021 97.5078 21.7863 97.1445 21.729 96.8873C21.729 96.8873 22.2615 91.6369 22.4307 91.2184C23.2835 89.0906 25.4545 88.8726 25.4545 88.8726C25.4545 88.8726 27.4955 89.3154 28.1597 91.2485C28.6173 92.581 28.5509 96.1464 28.5356 96.5728Z" fill="#D250DC"/>
<path d="M28.3481 83.4965C28.3532 83.4915 28.3532 83.4858 28.3532 83.4858C28.3532 83.4909 28.3532 83.4965 28.3532 83.4965C28.3532 83.4965 28.3532 83.4965 28.3481 83.4965Z" fill="#0DF3FF"/>
<path d="M30.5112 81.5432V83.2651C30.7298 83.4241 31.0159 83.3247 31.1482 83.0897C31.2777 82.8546 31.2777 82.5713 31.2941 82.3039C31.3129 82.0342 31.3668 81.7453 31.5695 81.567C31.8852 81.2945 32.3683 81.4347 32.7572 81.5914C33.3755 81.8424 33.996 82.1041 34.6546 82.2205C35.1485 82.3068 35.6697 82.3068 36.1471 82.1609C36.1199 81.5239 36.0904 81.081 36.0904 81.081C36.0904 81.081 34.549 79.7747 34.39 79.7747C34.2282 79.7747 31.7852 80.5496 31.6688 80.5928C31.553 80.6336 30.5112 81.5432 30.5112 81.5432Z" fill="#FFC6B2"/>
<path d="M17.2136 91.9343L16.9624 92.0015L22.5249 112.814L22.7761 112.747L17.2136 91.9343Z" fill="white"/>
<path d="M39.2584 105.243C39.2618 105.224 39.4548 105.244 39.838 105.305C40.0293 105.337 40.2689 105.378 40.5562 105.426C40.6277 105.44 40.7027 105.453 40.7805 105.467C40.8696 105.489 40.9411 105.512 41.0269 105.537C41.1921 105.589 41.3658 105.655 41.548 105.734C42.1595 106.014 42.713 106.419 43.1655 106.917C43.392 107.165 43.5936 107.437 43.7656 107.725C43.9422 108.015 44.0654 108.32 44.209 108.619C44.5321 109.33 44.7671 109.864 44.917 110.222C45.0669 110.58 45.1322 110.762 45.1146 110.769C45.097 110.777 44.9993 110.609 44.8222 110.265C44.645 109.92 44.3879 109.398 44.0523 108.697C43.9098 108.4 43.7838 108.091 43.6157 107.816C43.4494 107.537 43.2552 107.275 43.0366 107.035C42.5995 106.556 42.0652 106.165 41.4754 105.894C41.3016 105.814 41.1347 105.747 40.9769 105.691C40.8991 105.666 40.8236 105.642 40.7515 105.618C40.6743 105.601 40.5999 105.585 40.529 105.57C40.2445 105.505 40.0078 105.451 39.8187 105.409C39.44 105.317 39.2544 105.262 39.2584 105.243Z" fill="white"/>
<path d="M39.088 116.375C39.0568 116.395 38.7848 116.045 38.2796 115.306L37.0277 113.407C36.9618 113.302 36.9005 113.205 36.8437 113.115C36.8159 113.07 36.7887 113.026 36.7631 112.984C36.7387 112.945 36.7052 112.891 36.7109 112.896C36.6093 112.891 36.5201 112.886 36.4435 112.882C36.3566 112.875 36.284 112.869 36.2255 112.865C36.1097 112.853 36.0518 112.84 36.0518 112.825C36.0518 112.812 36.1097 112.799 36.2255 112.787C36.284 112.782 36.3566 112.777 36.4435 112.77C36.4872 112.768 36.5343 112.765 36.5854 112.762C36.6484 112.76 36.7154 112.758 36.787 112.756C36.8954 112.911 37.0243 113.096 37.1742 113.311L38.426 115.21C38.9046 115.966 39.1209 116.353 39.088 116.375Z" fill="white"/>
<path d="M28.4094 109.963C28.4032 109.942 28.5196 109.9 28.7336 109.787C28.9448 109.674 29.2622 109.483 29.5721 109.115C29.8395 108.808 30.0252 108.437 30.1143 108.039C30.2063 107.641 30.2148 107.225 30.1734 106.815C30.1302 106.329 30.0542 105.966 30.0167 105.723C29.9764 105.48 29.9644 105.357 29.9832 105.353C30.0014 105.348 30.0479 105.463 30.1183 105.7C30.1859 105.938 30.2869 106.297 30.3477 106.798C30.3902 107.222 30.3823 107.657 30.2852 108.078C30.191 108.5 29.9906 108.903 29.705 109.229C29.3604 109.612 29.0101 109.792 28.7773 109.881C28.54 109.971 28.4134 109.979 28.4094 109.963Z" fill="white"/>
<path d="M36.7018 125.167C36.6989 125.204 36.3083 125.21 35.5214 125.169L33.5247 125.024C32.7407 124.952 32.3546 124.891 32.3574 124.852C32.3603 124.814 32.7509 124.81 33.5372 124.85L35.5339 124.994C36.3185 125.068 36.7046 125.128 36.7018 125.167Z" fill="white"/>
<path d="M36.8879 123.315C36.8555 123.296 37.0764 122.855 37.5674 121.99L38.85 119.811C39.3677 118.963 39.6459 118.556 39.6789 118.575C39.7118 118.595 39.4904 119.035 39.0004 119.9L37.7179 122.078C37.1995 122.928 36.9214 123.335 36.8879 123.315Z" fill="white"/>
<path d="M47.9662 124.635C47.9486 124.642 47.8317 124.382 47.6171 123.853C47.4036 123.323 47.0936 122.523 46.7007 121.444C46.0478 119.611 45.4279 117.767 44.8414 115.913C44.5025 114.817 44.2669 113.992 44.117 113.441C43.9688 112.89 43.9058 112.613 43.9239 112.607C43.9427 112.602 44.0398 112.869 44.2163 113.411C44.3918 113.955 44.6552 114.769 45.0078 115.859C45.5937 117.712 46.2131 119.554 46.8654 121.384C47.2435 122.467 47.5262 123.276 47.7147 123.816C47.9009 124.357 47.985 124.628 47.9662 124.635Z" fill="white"/>
<path d="M33.3296 87.0876C33.3047 87.087 32.7114 87.066 32.0244 86.6794L32.088 86.5664C32.7454 86.9366 33.3274 86.9581 33.333 86.9581L33.3296 87.0876Z" fill="#253066"/>
<path d="M29.5567 84.2894C29.5522 84.307 29.5164 84.3183 29.4477 84.3075C29.3807 84.2956 29.2757 84.2627 29.1678 84.1593C28.9958 83.9794 28.9509 83.6484 29.1678 83.4525C29.2978 83.3543 29.4295 83.3628 29.4988 83.3906C29.5709 83.4201 29.5879 83.4599 29.5783 83.4741C29.5629 83.5116 29.4307 83.4502 29.2814 83.5854C29.1593 83.687 29.1729 83.9164 29.2972 84.0418C29.438 84.2065 29.572 84.2468 29.5567 84.2894Z" fill="#253066"/>
<path d="M38.8429 96.4098C38.8054 96.4098 38.7736 96.1509 38.7617 95.6286L38.7702 94.3012C38.789 93.7795 38.8247 93.5212 38.8628 93.5217C38.9008 93.5217 38.932 93.7806 38.9451 94.3024L38.9366 95.6297C38.9161 96.1521 38.8821 96.4098 38.8429 96.4098Z" fill="white"/>
<path d="M27.7276 92.3033C27.685 92.3101 27.6334 92.016 27.4994 91.4477C27.3938 90.9674 27.2013 90.5008 26.8539 90.1635C26.4519 89.757 26.1345 89.7281 26.151 89.6775C26.1538 89.6611 26.2316 89.652 26.3815 89.69C26.5285 89.7298 26.7494 89.8257 26.9765 90.0386C27.3569 90.4082 27.5613 90.9135 27.6697 91.4091C27.7764 92.0036 27.76 92.2988 27.7276 92.3033Z" fill="white"/>
<path d="M28.3601 95.7996C28.3976 95.799 28.4299 95.8949 28.4424 96.0908L28.435 96.5893C28.4169 96.7852 28.3817 96.8805 28.3436 96.8788C28.3056 96.8771 28.2744 96.7795 28.2607 96.5853L28.2681 96.0914C28.2869 95.8972 28.3209 95.8001 28.3601 95.7996Z" fill="white"/>
<path d="M57.856 129.704V107.289C57.856 106.265 57.0225 105.431 55.9978 105.431H23.6317C22.607 105.431 21.7735 106.265 21.7735 107.289V129.704H20.5029V107.289C20.5029 105.564 21.9064 104.161 23.6317 104.161H55.9978C57.7231 104.161 59.1266 105.564 59.1266 107.289V129.704H57.856Z" fill="black"/>
<path d="M26.5972 100.472C26.604 100.431 26.7255 100.437 26.9395 100.381C27.1234 100.344 27.2915 100.246 27.4147 100.105C27.5697 99.9469 27.6236 99.8379 27.6639 99.8527C27.6957 99.8606 27.7054 100.005 27.5458 100.22C27.3994 100.389 27.1938 100.508 26.9747 100.552C26.709 100.584 26.5881 100.504 26.5972 100.472Z" fill="black"/>
<path d="M35.2637 97.5091C35.245 97.5227 35.0695 97.2951 34.6943 96.8574C34.3213 96.4179 33.7422 95.7736 32.932 94.943C31.5717 93.5236 30.1246 92.1832 28.821 90.6969C28.783 90.6526 28.7461 90.6089 28.7092 90.5663L28.603 90.4431L28.5508 90.3823L28.5253 90.3522L28.5644 90.3437C28.7109 90.3125 28.854 90.2818 28.9931 90.2523C29.093 90.2313 29.1906 90.2109 29.2849 90.191L29.3275 90.1825L29.3354 90.1813L29.3547 90.1785C28.9454 89.9554 28.6081 89.7714 28.3413 89.6267C28.4793 89.4984 28.5996 89.386 28.703 89.29C28.7921 89.2105 28.8665 89.1441 28.9255 89.0907C29.0459 88.9857 29.1095 88.9374 29.1163 88.9448C29.1231 88.9522 29.0731 89.0147 28.9658 89.1322C28.8676 89.2366 28.7206 89.3922 28.5241 89.6C28.5406 89.6074 28.5582 89.6153 28.5758 89.6233C28.6161 89.6431 28.6581 89.6641 28.7013 89.6851C28.787 89.7277 28.8784 89.7731 28.9743 89.8208C29.2224 89.9463 29.4961 90.0854 29.797 90.2376C29.5557 90.2926 29.2991 90.3511 29.0277 90.413C28.9777 90.4243 28.9272 90.4363 28.8761 90.4476L28.8438 90.455L28.8426 90.4556L28.8409 90.4567L28.8443 90.4595C28.8801 90.4999 28.9164 90.5413 28.9528 90.5827C30.2466 92.0589 31.6938 93.3998 33.0575 94.8226C33.8591 95.6668 34.4235 96.3316 34.7749 96.7926C34.9537 97.0209 35.0758 97.2003 35.1553 97.3212C35.2359 97.4404 35.2717 97.5034 35.2637 97.5091Z" fill="#253066"/>
<path d="M35.2639 97.5083C35.2452 97.5061 35.2542 97.2812 35.2911 96.8316C35.3303 96.3819 35.3894 95.7075 35.4677 94.8053C35.5347 94.0417 35.5909 93.2759 35.5903 92.5128L35.5813 91.3609L35.5761 90.7846C35.5688 90.5967 35.5869 90.3872 35.5534 90.2311C35.5313 90.142 35.4921 90.0937 35.4098 90.0534C35.3201 90.0108 35.2332 89.9699 35.1492 89.9302C34.9301 89.8274 34.7262 89.7315 34.5366 89.6423C34.7211 89.5492 34.892 89.4635 35.0499 89.384C35.1083 89.3551 35.164 89.3278 35.2173 89.3017C35.2395 89.2921 35.2605 89.283 35.2804 89.2739L35.2537 89.2546C35.2383 89.2444 35.2236 89.2341 35.2088 89.2245C35.1594 89.1927 35.114 89.1638 35.072 89.1365C34.9885 89.0814 34.9193 89.0354 34.8636 88.9985C34.7535 88.923 34.7013 88.881 34.7069 88.8719C34.7121 88.8628 34.7745 88.8878 34.8943 88.9474C34.9539 88.9781 35.0277 89.0161 35.1168 89.0621C35.1611 89.086 35.2088 89.1115 35.2605 89.1388C35.3388 89.1825 35.4229 89.2296 35.5126 89.2796C35.3911 89.346 35.2571 89.4192 35.1112 89.4993C35.0544 89.5305 34.9948 89.5634 34.9329 89.5969C34.8915 89.6191 34.8903 89.6208 34.8863 89.6236L34.8727 89.6333L34.8932 89.6401C34.8994 89.6424 34.8915 89.6384 34.9091 89.6463L34.9687 89.6724C35.0487 89.7076 35.1322 89.7445 35.2185 89.782C35.3053 89.8206 35.395 89.8609 35.4881 89.9024C35.5915 89.9421 35.7022 90.0647 35.7249 90.1874C35.7686 90.4088 35.7442 90.5876 35.7533 90.7829L35.7584 91.3592L35.7675 92.5117C35.768 93.2855 35.7113 94.0537 35.6443 94.8207C35.5546 95.7245 35.4632 96.3967 35.3967 96.8435C35.3275 97.2898 35.2832 97.5106 35.2639 97.5083Z" fill="#253066"/>
<path d="M29.6578 85.1494V88.4479L33.0699 90.6751L33.3049 88.5183L33.3316 87.0229C33.3316 87.0229 36.0635 87.2494 36.1901 85.6541C36.252 84.8683 36.1958 83.5591 36.1686 82.6899C36.1629 82.5037 36.1549 82.3255 36.147 82.1608C35.669 82.3067 35.1483 82.3067 34.6544 82.2204C33.9958 82.1046 33.3747 81.8423 32.757 81.5914C32.3681 81.4347 31.885 81.2944 31.5693 81.567C31.3667 81.7452 31.3127 82.0342 31.294 82.3039C31.2781 82.5713 31.2781 82.8546 31.1481 83.0896C31.0158 83.3247 30.7297 83.4246 30.5111 83.2651C30.5111 83.2651 28.9969 82.196 28.4383 83.2651C28.4002 83.3377 28.3764 83.4132 28.3548 83.4808C28.3548 83.4808 28.3548 83.4808 28.3548 83.4865C28.3548 83.4921 28.3548 83.4973 28.3548 83.4973C28.3548 83.4973 28.3548 83.4973 28.3491 83.4973C28.1328 84.4556 29.6578 85.1494 29.6578 85.1494Z" fill="#FFC6B2"/>
<path d="M29.658 85.1495C29.658 85.1495 28.1331 84.4557 28.3545 83.4974C28.3545 83.4974 28.3545 83.4917 28.3545 83.4809C28.376 83.4133 28.4005 83.3378 28.4379 83.2651C28.9966 82.1961 30.5107 83.2651 30.5107 83.2651C30.7293 83.4241 31.0155 83.3248 31.1477 83.0897C31.2772 82.8547 31.2772 82.5714 31.2936 82.304C31.3124 82.0343 31.3663 81.7453 31.569 81.567C31.8847 81.2945 32.3678 81.4348 32.7567 81.5915C33.375 81.8424 33.9955 82.1041 34.6541 82.2205C35.2973 82.3341 35.8946 82.254 36.5077 82.0479C36.766 81.9611 36.9824 81.7294 37.1822 81.5483C37.4223 81.3303 37.6477 81.0947 37.8357 80.8296C38.1814 80.3402 38.392 79.7265 38.2796 79.1383C38.1752 78.5921 37.801 78.1237 37.3406 77.8126C36.8796 77.5015 36.3374 77.3329 35.7929 77.2216C34.7881 77.0155 33.7253 76.9939 32.7522 77.3187C31.7791 77.6434 30.9053 78.344 30.5147 79.2933C30.3506 79.693 30.2473 80.1625 29.8879 80.4026C29.5479 80.6297 29.101 80.5673 28.6934 80.6013C27.8344 80.6734 27.0379 81.2537 26.7063 82.0491C26.3748 82.8445 26.523 83.8193 27.0759 84.4801C27.697 85.2199 28.7695 85.5287 29.658 85.1495Z" fill="#2A0054"/>
<g opacity="0.1">
<path d="M171.467 51.233V59.0064H139.941C139.216 59.0064 138.628 58.4194 138.628 57.6938V44.7438C138.628 44.0188 139.216 43.4312 139.941 43.4312H164.562V47.5268H167.764C169.81 47.5268 171.467 49.1852 171.467 51.233Z" fill="black"/>
</g>
<g opacity="0.1">
<path d="M171.467 61.4336V77.006H139.941C139.216 77.006 138.628 76.4184 138.628 75.6934V62.7434C138.628 62.0212 139.216 61.4336 139.941 61.4336H171.467Z" fill="black"/>
</g>
<path d="M173.317 58.006H138.669C137.945 58.006 137.357 57.4184 137.357 56.694V43.7439C137.357 43.0195 137.945 42.4319 138.669 42.4319H173.317C174.042 42.4319 174.629 43.0195 174.629 43.7439V56.6945C174.629 57.419 174.042 58.006 173.317 58.006Z" fill="#719BFF"/>
<g opacity="0.1">
<path d="M172.531 47.8959C172.531 48.0361 172.473 48.1633 172.38 48.2547C172.289 48.3456 172.161 48.4029 172.021 48.4029H152.774C152.493 48.4029 152.267 48.1769 152.267 47.8959C152.267 47.7557 152.324 47.6279 152.415 47.5371C152.506 47.4463 152.633 47.3889 152.774 47.3889H172.021C172.302 47.3889 172.531 47.6149 172.531 47.8959Z" fill="black"/>
<path d="M172.531 50.4774C172.531 50.6177 172.473 50.7449 172.38 50.8363C172.289 50.9271 172.161 50.9844 172.021 50.9844H152.774C152.493 50.9844 152.267 50.7585 152.267 50.4774C152.267 50.3372 152.324 50.2095 152.415 50.1186C152.506 50.0278 152.633 49.9705 152.774 49.9705H172.021C172.302 49.9705 172.531 50.197 172.531 50.4774Z" fill="black"/>
<path d="M172.531 53.0592C172.531 53.1995 172.473 53.3266 172.38 53.418C172.289 53.5089 172.161 53.5662 172.021 53.5662H152.774C152.493 53.5662 152.267 53.3403 152.267 53.0592C152.267 52.919 152.324 52.7913 152.415 52.7004C152.506 52.6096 152.633 52.5522 152.774 52.5522H172.021C172.302 52.5522 172.531 52.7782 172.531 53.0592Z" fill="black"/>
</g>
<path d="M173.317 76.0068H138.669C137.945 76.0068 137.357 75.4192 137.357 74.6948V61.7442C137.357 61.0197 137.945 60.4321 138.669 60.4321H173.317C174.042 60.4321 174.629 61.0192 174.629 61.7442V74.6948C174.629 75.4192 174.042 76.0068 173.317 76.0068Z" fill="#3CD278"/>
<g opacity="0.1">
<path d="M149.124 51.22C149.523 48.7653 147.856 46.4524 145.401 46.054C142.946 45.6556 140.633 47.3226 140.235 49.7773C139.837 52.232 141.504 54.5449 143.958 54.9433C146.413 55.3416 148.726 53.6747 149.124 51.22Z" fill="black"/>
</g>
<g opacity="0.1">
<path d="M144.678 73.3577C147.164 73.3577 149.18 71.3418 149.18 68.855C149.18 66.3682 147.164 64.3523 144.678 64.3523C142.191 64.3523 140.175 66.3682 140.175 68.855C140.175 71.3418 142.191 73.3577 144.678 73.3577Z" fill="black"/>
</g>
<path d="M147.428 53.4036C149.186 51.6452 149.186 48.7943 147.428 47.0359C145.67 45.2775 142.819 45.2775 141.06 47.0359C139.302 48.7943 139.302 51.6452 141.06 53.4036C142.819 55.162 145.67 55.162 147.428 53.4036Z" fill="white"/>
<path d="M146.412 51.8478L144.694 47.7913C144.654 47.7011 144.597 47.6261 144.524 47.5682C144.447 47.5075 144.353 47.4768 144.244 47.4768H144.177C144.068 47.4768 143.973 47.5075 143.897 47.5682C143.824 47.6261 143.767 47.7011 143.726 47.7925L142.008 51.8478C141.982 51.9103 141.969 51.9625 141.969 52.0079C141.969 52.1107 142.004 52.1981 142.071 52.2685C142.14 52.34 142.229 52.3758 142.337 52.3758C142.413 52.3758 142.482 52.3554 142.544 52.3145C142.606 52.2742 142.654 52.2185 142.687 52.147L143.108 51.1359H145.312L145.734 52.1493C145.766 52.2185 145.813 52.2742 145.875 52.3145C145.937 52.3554 146.007 52.3758 146.082 52.3758C146.19 52.3758 146.279 52.3395 146.348 52.2685C146.416 52.1981 146.451 52.1101 146.451 52.0079C146.451 51.9625 146.438 51.9103 146.412 51.8478ZM145.022 50.4472H143.398L144.21 48.4925L145.022 50.4472Z" fill="#719BFF"/>
<path d="M148.694 69.2952C149.092 66.8405 147.425 64.5276 144.97 64.1292C142.516 63.7308 140.203 65.3978 139.804 67.8525C139.406 70.3072 141.073 72.6201 143.528 73.0185C145.982 73.4168 148.295 71.7499 148.694 69.2952Z" fill="white"/>
<path d="M146.042 69.609C146.262 69.2558 146.377 68.838 146.385 68.3651C146.377 67.9472 146.284 67.5685 146.109 67.2398C145.933 66.9094 145.682 66.6477 145.363 66.4609C145.045 66.2747 144.67 66.1804 144.247 66.1804C143.824 66.1804 143.447 66.2747 143.127 66.4609C142.806 66.6477 142.556 66.9088 142.382 67.237C142.208 67.5634 142.116 67.9432 142.108 68.3679C142.116 68.7903 142.208 69.1696 142.382 69.496C142.556 69.8242 142.807 70.0853 143.127 70.2721C143.447 70.4583 143.824 70.5526 144.247 70.5526C144.37 70.5526 144.48 70.5463 144.575 70.5333L145.195 71.273C145.259 71.3514 145.339 71.3911 145.435 71.3911C145.523 71.3911 145.6 71.3587 145.664 71.2952C145.728 71.2304 145.758 71.1544 145.754 71.072C145.754 70.9874 145.724 70.9148 145.666 70.8569L145.207 70.3504C145.556 70.1869 145.837 69.9377 146.042 69.609ZM144.247 67.0212C144.508 67.0212 144.738 67.0803 144.929 67.1972C145.12 67.3136 145.268 67.4749 145.368 67.6753C145.469 67.878 145.521 68.1107 145.521 68.3662C145.521 68.6217 145.469 68.8545 145.368 69.0571C145.268 69.2581 145.12 69.4188 144.929 69.5357C144.738 69.6521 144.508 69.7117 144.247 69.7117C143.983 69.7117 143.753 69.6527 143.563 69.5357C143.373 69.4188 143.226 69.2581 143.126 69.0571C143.025 68.855 142.973 68.6223 142.973 68.3662C142.973 68.1102 143.024 67.878 143.126 67.6753C143.226 67.4743 143.373 67.3136 143.563 67.1967C143.753 67.0803 143.983 67.0212 144.247 67.0212Z" fill="#3CD278"/>
<path d="M172.531 47.6374C172.531 47.7776 172.473 47.9048 172.38 47.9962C172.289 48.087 172.161 48.1443 172.021 48.1443H152.774C152.493 48.1443 152.267 47.9184 152.267 47.6374C152.267 47.4971 152.324 47.3694 152.415 47.2785C152.506 47.1877 152.633 47.1304 152.774 47.1304H172.021C172.302 47.1304 172.531 47.3563 172.531 47.6374Z" fill="white"/>
<path d="M172.531 50.2189C172.531 50.3591 172.473 50.4863 172.38 50.5777C172.289 50.6685 172.161 50.7259 172.021 50.7259H152.774C152.493 50.7259 152.267 50.4999 152.267 50.2189C152.267 50.0787 152.324 49.9509 152.415 49.8601C152.506 49.7693 152.633 49.7119 152.774 49.7119H172.021C172.302 49.7119 172.531 49.9384 172.531 50.2189Z" fill="white"/>
<path d="M172.531 52.8012C172.531 52.9414 172.473 53.0686 172.38 53.16C172.289 53.2508 172.161 53.3082 172.021 53.3082H152.774C152.493 53.3082 152.267 53.0822 152.267 52.8012C152.267 52.6609 152.324 52.5332 152.415 52.4424C152.506 52.3515 152.633 52.2942 152.774 52.2942H172.021C172.302 52.2942 172.531 52.5202 172.531 52.8012Z" fill="white"/>
<g opacity="0.1">
<path d="M172.531 65.9135C172.531 66.0537 172.473 66.1809 172.38 66.2723C172.289 66.3631 172.161 66.4205 172.021 66.4205H152.774C152.493 66.4205 152.267 66.1945 152.267 65.9135C152.267 65.7732 152.324 65.6455 152.415 65.5547C152.506 65.4638 152.633 65.4065 152.774 65.4065H172.021C172.302 65.4065 172.531 65.633 172.531 65.9135Z" fill="black"/>
<path d="M172.531 68.4955C172.531 68.6357 172.473 68.7629 172.38 68.8543C172.289 68.9452 172.161 69.0025 172.021 69.0025H152.774C152.493 69.0025 152.267 68.7765 152.267 68.4955C152.267 68.3553 152.324 68.2275 152.415 68.1367C152.506 68.0459 152.633 67.9885 152.774 67.9885H172.021C172.302 67.9885 172.531 68.2145 172.531 68.4955Z" fill="black"/>
<path d="M172.531 71.0768C172.531 71.217 172.473 71.3442 172.38 71.4356C172.289 71.5265 172.161 71.5838 172.021 71.5838H152.774C152.493 71.5838 152.267 71.3578 152.267 71.0768C152.267 70.9366 152.324 70.8088 152.415 70.718C152.506 70.6272 152.633 70.5698 152.774 70.5698H172.021C172.302 70.5698 172.531 70.7963 172.531 71.0768Z" fill="black"/>
</g>
<path d="M172.531 65.6552C172.531 65.7954 172.473 65.9226 172.38 66.014C172.289 66.1048 172.161 66.1622 172.021 66.1622H152.774C152.493 66.1622 152.267 65.9362 152.267 65.6552C152.267 65.5149 152.324 65.3872 152.415 65.2964C152.506 65.2055 152.633 65.1482 152.774 65.1482H172.021C172.302 65.1482 172.531 65.3747 172.531 65.6552Z" fill="white"/>
<path d="M172.531 68.2372C172.531 68.3774 172.473 68.5046 172.38 68.596C172.289 68.6869 172.161 68.7442 172.021 68.7442H152.774C152.493 68.7442 152.267 68.5182 152.267 68.2372C152.267 68.097 152.324 67.9692 152.415 67.8784C152.506 67.7876 152.633 67.7302 152.774 67.7302H172.021C172.302 67.7302 172.531 67.9562 172.531 68.2372Z" fill="white"/>
<path d="M172.531 70.8188C172.531 70.959 172.473 71.0862 172.38 71.1776C172.289 71.2684 172.161 71.3257 172.021 71.3257H152.774C152.493 71.3257 152.267 71.0998 152.267 70.8188C152.267 70.6785 152.324 70.5508 152.415 70.4599C152.506 70.3691 152.633 70.3118 152.774 70.3118H172.021C172.302 70.3118 172.531 70.5383 172.531 70.8188Z" fill="white"/>
<g opacity="0.05">
<path d="M116.292 105.197H95.3075C94.3077 105.197 93.4976 104.387 93.4976 103.387V85.4498C93.4976 84.4501 94.3077 83.6399 95.3075 83.6399H116.292C117.291 83.6399 118.102 84.4501 118.102 85.4498V103.387C118.102 104.387 117.291 105.197 116.292 105.197Z" fill="black"/>
</g>
<path d="M115.606 104.479H94.6215C93.6217 104.479 92.8115 103.668 92.8115 102.669V84.7311C92.8115 83.7313 93.6217 82.9211 94.6215 82.9211H115.606C116.605 82.9211 117.415 83.7313 117.415 84.7311V102.669C117.415 103.668 116.605 104.479 115.606 104.479Z" fill="#719BFF"/>
<g opacity="0.05">
<path d="M144.576 105.197H123.592C122.592 105.197 121.782 104.387 121.782 103.387V85.4498C121.782 84.4501 122.592 83.6399 123.592 83.6399H144.576C145.576 83.6399 146.386 84.4501 146.386 85.4498V103.387C146.386 104.387 145.575 105.197 144.576 105.197Z" fill="black"/>
</g>
<path d="M143.889 104.479H122.905C121.905 104.479 121.095 103.668 121.095 102.669V84.7311C121.095 83.7313 121.905 82.9211 122.905 82.9211H143.889C144.889 82.9211 145.699 83.7313 145.699 84.7311V102.669C145.699 103.668 144.889 104.479 143.889 104.479Z" fill="#FF5252"/>
<g opacity="0.1">
<path d="M112.455 98.8375H98.9758C98.7782 98.8375 98.6187 98.6774 98.6187 98.4804C98.6187 98.2828 98.7787 98.1233 98.9758 98.1233H112.455C112.653 98.1233 112.812 98.2834 112.812 98.4804C112.812 98.6774 112.652 98.8375 112.455 98.8375Z" fill="black"/>
</g>
<g opacity="0.1">
<path d="M112.455 100.567H98.9758C98.7782 100.567 98.6187 100.406 98.6187 100.209C98.6187 100.012 98.7787 99.8523 98.9758 99.8523H112.455C112.653 99.8523 112.812 100.012 112.812 100.209C112.812 100.406 112.652 100.567 112.455 100.567Z" fill="black"/>
</g>
<g opacity="0.1">
<path d="M112.455 102.295H98.9758C98.7782 102.295 98.6187 102.135 98.6187 101.938C98.6187 101.741 98.7787 101.581 98.9758 101.581H112.455C112.653 101.581 112.812 101.741 112.812 101.938C112.812 102.135 112.652 102.295 112.455 102.295Z" fill="black"/>
</g>
<g opacity="0.1">
<path d="M110.942 91.9626C110.512 94.606 108.213 96.6237 105.444 96.6124V96.6095C102.379 96.5987 99.9023 94.1053 99.9136 91.0395C99.9193 89.5106 100.544 88.1185 101.551 87.1176C102.365 86.3085 103.424 85.7527 104.603 85.5693L104.594 88.0208C103.276 88.3989 102.312 89.6133 102.309 91.0474V91.0559C102.309 92.796 103.716 94.208 105.453 94.2137H105.467C106.898 94.2137 108.11 93.2576 108.493 91.9513L110.942 91.9626Z" fill="black"/>
<path d="M111.406 91.0802L111.405 91.2732C111.405 91.3805 111.318 91.4668 111.211 91.4663L108.43 91.456C108.323 91.4555 108.237 91.3692 108.237 91.2624V91.25C108.237 89.6251 106.907 88.2909 105.282 88.2858C105.175 88.2852 105.089 88.1984 105.089 88.0911L105.1 85.3097C105.1 85.2024 105.187 85.1161 105.294 85.1167L105.488 85.1173C107.075 85.1235 108.566 85.7469 109.683 86.8733C110.8 87.9997 111.412 89.4945 111.406 91.0802Z" fill="black"/>
</g>
<path d="M110.409 91.3986C109.978 94.042 107.68 96.0598 104.911 96.0484V96.0456C101.846 96.0348 99.3691 93.5413 99.3804 90.4755C99.3861 88.9466 100.011 87.5545 101.018 86.5536C101.832 85.7446 102.891 85.1887 104.069 85.0054L104.061 87.4569C102.743 87.835 101.779 89.0494 101.776 90.4835V90.492C101.776 92.2321 103.183 93.644 104.92 93.6497H104.933C106.365 93.6497 107.577 92.6937 107.96 91.3873L110.409 91.3986Z" fill="white"/>
<path d="M110.873 90.5165L110.872 90.7095C110.872 90.8168 110.785 90.9031 110.677 90.9025L107.897 90.8923C107.79 90.8917 107.704 90.8055 107.704 90.6987V90.6862C107.704 89.0614 106.374 87.7272 104.749 87.7221C104.642 87.7215 104.556 87.6346 104.556 87.5273L104.566 84.746C104.567 84.6387 104.654 84.5524 104.761 84.553L104.955 84.5535C106.542 84.5598 108.032 85.1832 109.15 86.3096C110.266 87.4365 110.879 88.9308 110.873 90.5165Z" fill="#FFC837"/>
<path d="M112.167 98.6109H98.6882C98.4906 98.6109 98.3311 98.4508 98.3311 98.2538C98.3311 98.0563 98.4912 97.8967 98.6882 97.8967H112.167C112.365 97.8967 112.524 98.0568 112.524 98.2538C112.524 98.4508 112.364 98.6109 112.167 98.6109Z" fill="white"/>
<path d="M112.167 100.34H98.6882C98.4906 100.34 98.3311 100.18 98.3311 99.9826C98.3311 99.785 98.4912 99.6255 98.6882 99.6255H112.167C112.365 99.6255 112.524 99.7856 112.524 99.9826C112.524 100.18 112.364 100.34 112.167 100.34Z" fill="white"/>
<path d="M112.167 102.069H98.6882C98.4906 102.069 98.3311 101.909 98.3311 101.712C98.3311 101.514 98.4912 101.354 98.6882 101.354H112.167C112.365 101.354 112.524 101.515 112.524 101.712C112.524 101.909 112.364 102.069 112.167 102.069Z" fill="white"/>
<path d="M136.601 93.3086C138.372 91.5382 138.372 88.6679 136.602 86.8975C134.831 85.1271 131.961 85.1271 130.19 86.8975C128.42 88.6679 128.42 91.5382 130.19 93.3086C131.961 95.079 134.831 95.079 136.601 93.3086Z" fill="white"/>
<path d="M134.63 88.7388C134.756 88.1056 134.345 87.4903 133.712 87.3645C133.078 87.2386 132.463 87.65 132.337 88.2832C132.211 88.9164 132.623 89.5317 133.256 89.6575C133.889 89.7833 134.504 89.372 134.63 88.7388Z" fill="#FF5252"/>
<path d="M136.068 92.4663C135.963 91.1202 134.844 90.0585 133.471 90.0557C132.097 90.0534 130.974 91.1111 130.864 92.4566L136.068 92.4663Z" fill="#FF5252"/>
<path d="M143.127 96.7343C143.127 96.9239 142.974 97.0772 142.784 97.0772H124.194C124.005 97.0772 123.852 96.9239 123.852 96.7343C123.852 96.5446 124.005 96.3914 124.194 96.3914H142.784C142.974 96.3914 143.127 96.5446 143.127 96.7343Z" fill="white"/>
<path d="M143.127 98.9806C143.127 99.1702 142.974 99.3235 142.784 99.3235H124.194C124.005 99.3235 123.852 99.1702 123.852 98.9806C123.852 98.791 124.005 98.6377 124.194 98.6377H142.784C142.974 98.6377 143.127 98.791 143.127 98.9806Z" fill="white"/>
<path d="M143.127 101.227C143.127 101.417 142.974 101.57 142.784 101.57H124.194C124.005 101.57 123.852 101.417 123.852 101.227C123.852 101.038 124.005 100.885 124.194 100.885H142.784C142.974 100.885 143.127 101.038 143.127 101.227Z" fill="white"/>
<path d="M46.6942 44.8516C44.1979 44.8516 42.1665 42.8202 42.1665 40.3239C42.1665 39.1135 42.6377 37.9758 43.4927 37.1202C44.3483 36.2646 45.4849 35.7939 46.6936 35.7939H68.2835C70.7798 35.7939 72.8112 37.8259 72.8112 40.3239C72.8112 41.5326 72.34 42.6692 71.485 43.5248C70.6294 44.3804 69.4928 44.851 68.2841 44.851H46.6942V44.8516Z" fill="#719BFF"/>
<path d="M72.1744 40.3244C72.1744 41.398 71.7395 42.3699 71.0344 43.075C70.3298 43.7796 69.3579 44.2151 68.2837 44.2151H46.6944C44.5467 44.2151 42.8037 42.4721 42.8037 40.3244C42.8037 39.2508 43.2386 38.276 43.9437 37.5714C44.6483 36.8669 45.6208 36.4314 46.6944 36.4314H68.2837C70.4314 36.4308 72.1744 38.1738 72.1744 40.3244Z" fill="white"/>
<path d="M72.4384 40.3243C72.4384 41.4598 71.9785 42.4874 71.2331 43.2323C70.4877 43.9777 69.4601 44.4376 68.3252 44.4376H66.79C64.5196 44.4376 62.6768 42.5947 62.6768 40.3243C62.6768 39.1889 63.1366 38.159 63.8821 37.4136C64.6275 36.6681 65.6551 36.2083 66.79 36.2083H68.3252C70.5955 36.2083 72.4384 38.0511 72.4384 40.3243Z" fill="#719BFF"/>
<path d="M66.609 38.7496C67.309 38.0496 68.4479 38.0496 69.1473 38.7496C69.8474 39.4496 69.8474 40.5885 69.1473 41.288C68.4473 41.988 67.3084 41.988 66.609 41.288C65.909 40.5879 65.909 39.4496 66.609 38.7496ZM67.2034 39.344C66.8315 39.7159 66.8315 40.3217 67.2034 40.6936C67.5753 41.0654 68.1811 41.0654 68.5529 40.6936C68.9248 40.3217 68.9248 39.7159 68.5529 39.344C68.1811 38.9716 67.5753 38.9716 67.2034 39.344Z" fill="white"/>
<path d="M65.5664 42.3144C65.7305 42.4784 65.9968 42.4784 66.1608 42.3144L67.2038 41.2714C67.3678 41.1074 67.3678 40.8411 67.2038 40.677C67.0397 40.5129 66.7734 40.5129 66.6093 40.677L65.5664 41.7199C65.4023 41.884 65.4023 42.1503 65.5664 42.3144Z" fill="white"/>
<path d="M190.203 60.5744C190.203 60.7141 190.274 60.8504 190.403 60.9264L191.729 61.8172C191.729 61.8172 190.497 62.8125 190.818 64.0024C191.062 64.9148 192.936 65.0703 192.936 65.0703C192.936 65.0703 200.561 70.6728 202.179 70.1692C203.798 69.665 206.452 64.8126 206.452 64.8126L205.91 61.8865L201.49 63.877L200.401 65.5654L194.067 62.7091C194.067 62.7091 193.951 60.5886 193.172 60.7351C192.394 60.8816 192.937 61.568 192.937 61.568L190.823 60.2281C190.624 60.1061 190.363 60.177 190.251 60.382C190.219 60.4433 190.203 60.5091 190.203 60.5744Z" fill="#FFC6B2"/>
<path d="M204.538 98.8865H197.873V99.9947H204.538V98.8865Z" fill="black"/>
<path d="M201.469 96.0347L197.873 98.8864H204.538V96.0347H201.469Z" fill="black"/>
<path d="M201.178 98.9517H197.872C197.837 98.9517 197.808 98.9228 197.808 98.887C197.808 98.8512 197.837 98.8223 197.872 98.8223H201.178C201.214 98.8223 201.243 98.8512 201.243 98.887C201.243 98.9228 201.214 98.9517 201.178 98.9517Z" fill="white"/>
<path d="M203.138 99.697C203.138 99.806 203.149 99.9019 203.173 99.9945H203.306C203.306 99.9894 203.306 99.9837 203.303 99.9786C203.281 99.8906 203.271 99.7981 203.271 99.697C203.271 99.4154 203.364 99.1417 203.534 98.926C203.545 98.9124 203.556 98.8993 203.569 98.8863C203.806 98.599 204.165 98.4292 204.539 98.4292V98.2964C204.106 98.2964 203.689 98.5013 203.428 98.8465C203.418 98.8601 203.41 98.8732 203.399 98.8863C203.231 99.1145 203.138 99.4018 203.138 99.697Z" fill="white"/>
<path d="M214.74 98.8865H208.074V99.9947H214.74V98.8865Z" fill="black"/>
<path d="M211.67 96.0347L208.074 98.8864H214.74V96.0347H211.67Z" fill="black"/>
<path d="M211.379 98.9517H208.073C208.037 98.9517 208.008 98.9228 208.008 98.887C208.008 98.8512 208.037 98.8223 208.073 98.8223H211.379C211.415 98.8223 211.444 98.8512 211.444 98.887C211.444 98.9228 211.415 98.9517 211.379 98.9517Z" fill="white"/>
<path d="M213.339 99.697C213.339 99.806 213.35 99.9019 213.374 99.9945H213.506C213.506 99.9894 213.506 99.9837 213.504 99.9786C213.483 99.8906 213.472 99.7981 213.472 99.697C213.472 99.4154 213.565 99.1417 213.735 98.926C213.746 98.9124 213.757 98.8993 213.77 98.8863C214.007 98.599 214.365 98.4292 214.74 98.4292V98.2964C214.307 98.2964 213.89 98.5013 213.629 98.8465C213.618 98.8601 213.61 98.8732 213.6 98.8863C213.432 99.1145 213.339 99.4018 213.339 99.697Z" fill="white"/>
<path d="M215.493 93.9529C215.493 94.1368 215.493 94.3106 215.49 94.4763C215.481 95.588 215.436 96.3152 215.339 96.4617C214.654 97.5166 209.807 97.0272 209.492 96.5264C209.447 96.4543 209.368 95.5539 209.271 94.2038C209.257 94.0051 209.242 93.7968 209.227 93.581C208.897 88.7768 208.418 79.7935 208.418 79.7935C208.418 79.7935 206.971 88.7371 206.04 93.5015C206.001 93.7002 205.964 93.891 205.926 94.0749C205.651 95.4398 205.435 96.3482 205.333 96.4078C204.097 97.1447 200.886 96.7927 200.251 96.4748C200.151 96.4248 200.162 95.8298 200.253 94.8596C200.265 94.7029 200.282 94.5371 200.3 94.3634C200.896 88.6656 203.499 73.4219 203.499 73.4219C203.499 73.4219 213.918 72.4913 214.341 73.5706" fill="#0039B2"/>
<path d="M204.095 94.653C204.106 94.6825 203.899 94.812 203.426 94.9051C203.024 94.9675 202.614 94.9698 202.211 94.9119C201.738 94.8245 201.53 94.6973 201.541 94.6666C201.555 94.6252 201.78 94.6865 202.236 94.7387C202.622 94.7944 203.015 94.7921 203.4 94.7325C203.856 94.6746 204.08 94.611 204.095 94.653Z" fill="white"/>
<path d="M214.009 94.3962C214.017 94.4302 213.749 94.5398 213.18 94.6766C212.694 94.7766 212.197 94.8492 211.694 94.8373C211.099 94.8038 210.827 94.6624 210.837 94.6341C210.849 94.5892 211.128 94.6619 211.698 94.6624C212.181 94.6738 212.666 94.604 213.144 94.5052C213.713 94.4013 213.999 94.3559 214.009 94.3962Z" fill="white"/>
<path d="M214.73 77.3676C214.723 77.3829 214.624 77.367 214.44 77.2859C214.258 77.2024 213.989 77.0502 213.704 76.7584C213.227 76.2583 212.948 75.5747 212.938 74.8843C212.938 74.4761 213.024 74.1792 213.095 73.993C213.169 73.8062 213.23 73.725 213.245 73.7324C213.264 73.7409 213.238 73.8357 213.194 74.0236C213.154 74.2116 213.097 74.4977 213.113 74.8804C213.122 75.5304 213.383 76.168 213.831 76.6386C214.088 76.9236 214.329 77.0877 214.49 77.1939C214.652 77.2983 214.738 77.3472 214.73 77.3676Z" fill="white"/>
<path d="M202.435 76.8617C202.429 76.8424 202.512 76.8009 202.672 76.7158C202.831 76.6289 203.07 76.496 203.343 76.2599C203.816 75.8721 204.153 75.3282 204.292 74.7332C204.383 74.3841 204.396 74.1115 204.403 73.9304C204.409 73.7488 204.409 73.6562 204.43 73.6534C204.447 73.6505 204.482 73.7391 204.507 73.9259C204.53 74.1121 204.542 74.4 204.462 74.7741C204.315 75.4043 203.955 75.9839 203.455 76.3944C203.155 76.6323 202.891 76.7492 202.714 76.8111C202.535 76.8713 202.44 76.8787 202.435 76.8617Z" fill="white"/>
<path d="M208.141 75.6398C208.158 75.6483 208.128 75.7454 208.053 75.9316C207.981 76.1189 207.856 76.3932 207.743 76.7724C207.643 77.0909 207.59 77.4236 207.622 77.7506C207.654 78.0765 207.769 78.395 207.951 78.6675C208.053 78.8321 208.173 78.9525 208.271 79.0763C208.369 79.1978 208.435 79.3232 208.458 79.43C208.505 79.6502 208.418 79.7513 208.407 79.7405C208.385 79.7343 208.425 79.6344 208.358 79.4601C208.325 79.3732 208.262 79.2767 208.161 79.1705C208.063 79.0649 207.925 78.94 207.806 78.7652C207.608 78.4688 207.483 78.1236 207.448 77.7682C207.413 77.4117 207.471 77.0546 207.576 76.7207C207.71 76.329 207.86 76.0622 207.96 75.8867C208.062 75.7119 208.123 75.6313 208.141 75.6398Z" fill="white"/>
<path d="M201.57 91.2823C201.533 91.276 201.684 90.2291 202.042 88.1223L202.989 82.7753C203.376 80.6758 203.593 79.6414 203.631 79.6482C203.669 79.655 203.517 80.7014 203.161 82.806L202.214 88.1529C201.825 90.2541 201.608 91.2891 201.57 91.2823Z" fill="white"/>
<path d="M200.678 61.5039C200.755 61.8383 201.024 62.1045 201.333 62.2567C201.641 62.4094 201.987 62.4651 202.328 62.5076C203.8 62.6927 205.333 62.67 206.722 62.1449C208.109 61.6197 209.338 60.5325 209.769 59.1131C210.192 57.7171 209.797 56.1552 208.957 54.9647C208.116 53.7719 206.874 52.9123 205.558 52.2827L205.794 51.7297C205.174 51.9563 205.297 52.3963 205.015 52.9935C204.731 53.5908 204.047 54.3362 204.266 54.9596C204.559 55.7993 205.297 56.5226 205.232 57.4105C205.169 58.2405 204.411 58.8474 203.646 59.1739C202.88 59.5003 202.031 59.6644 201.355 60.1498C200.921 60.4621 200.555 60.9827 200.678 61.5039Z" fill="black"/>
<path d="M201.126 64.4783C201.145 64.3568 201.175 64.2325 201.207 64.0951C201.978 60.7631 203.639 59.0349 203.974 58.8606L206.072 61.4779L206.765 64.4783C206.765 64.6816 201.126 64.6816 201.126 64.4783Z" fill="#FFC837"/>
<path d="M211.602 50.8792C212.574 51.3776 212.858 52.9309 213.085 53.9994C213.313 55.0679 213.536 56.2443 214.381 56.9369C215.492 57.8481 217.336 57.6159 218.226 58.744C218.521 59.1181 218.658 59.5888 218.789 60.047C219.009 60.8117 219.228 61.5759 219.447 62.3406C219.501 62.5308 219.556 62.7261 219.536 62.9225C219.504 63.228 219.29 63.4908 219.03 63.6538C218.77 63.8167 218.467 63.8951 218.168 63.9626C216.864 64.2578 215.499 64.3981 214.191 64.121C212.883 63.844 211.631 63.1065 210.948 61.9568C210.62 61.4038 210.432 60.7782 210.125 60.2127C209.818 59.6473 209.345 59.117 208.716 58.9853C208.354 58.9098 207.953 58.966 207.639 58.7729C207.337 58.5879 207.201 58.2222 207.122 57.8771C206.81 56.506 207.085 55.0111 207.865 53.841C208.645 52.6709 209.92 51.8426 211.306 51.6042" fill="black"/>
<path d="M203.139 73.4463C203.274 71.7987 203 67.8235 203.147 65.7433C203.343 62.9727 203.062 59.8269 203.937 58.9174C204.298 58.5432 205.684 58.248 207.423 58.1282C208.816 58.0329 210.396 58.0198 211.728 58.0692H211.729C213.322 58.1265 214.561 58.2707 214.7 58.466C215.413 59.4613 215.418 69.8253 215.039 73.4497C215.039 74.0896 203.139 74.0856 203.139 73.4463Z" fill="#FFC837"/>
<path d="M207.299 62.0903L211.727 58.069C210.395 58.0196 208.815 58.0333 207.423 58.1281C207.391 58.1298 207.299 62.0903 207.299 62.0903Z" fill="white"/>
<path d="M212.716 64.7268C212.758 64.7683 212.716 66.912 212.716 66.912L206.03 67.4463C205.744 67.5337 206.026 69.7615 206.249 69.7337C206.298 69.7274 215.306 72.2022 216.888 70.5961C218.454 69.007 217.685 64.8846 217.685 64.8846L212.716 64.7268Z" fill="#FFC6B2"/>
<path d="M212.192 64.849C212.22 65.6296 217.827 65.3264 217.874 65.1113C217.874 65.1113 217.43 60.7283 217.289 60.3786C216.577 58.6022 214.81 58.4199 214.81 58.4199C214.81 58.4199 212.747 58.7645 212.193 60.3786C211.809 61.4908 212.178 64.493 212.192 64.849Z" fill="#FFC837"/>
<path d="M212.056 53.9073C212.052 53.9026 212.052 53.8984 212.052 53.8984C212.052 53.9032 212.052 53.9073 212.052 53.9073C212.052 53.9073 212.052 53.9073 212.056 53.9073Z" fill="#0DF3FF"/>
<path d="M205.51 55.708C205.616 57.0394 207.897 56.8509 207.897 56.8509L207.918 58.0993C207.918 58.0993 208.029 59.7356 208.472 59.8809C209.208 60.1222 210.964 58.0414 210.964 58.0414L210.963 55.2874C210.963 55.2874 212.237 54.7071 212.057 53.9078C212.053 53.9078 212.053 53.9078 212.053 53.9078C212.053 53.9078 212.053 53.9032 212.053 53.8992C212.053 53.8947 212.053 53.8947 212.053 53.8947C212.035 53.8374 212.013 53.776 211.982 53.7147C211.517 52.8228 210.251 53.7147 210.251 53.7147V52.2772C210.251 52.2772 209.382 51.517 209.285 51.4818C209.188 51.4466 207.149 50.8005 207.013 50.8005C206.881 50.8005 205.594 51.89 205.594 51.89C205.594 51.89 205.554 52.4788 205.528 53.2344C205.505 53.96 205.457 55.0534 205.51 55.708Z" fill="#FFC6B2"/>
<path d="M204.939 53.0151C205.062 53.2348 205.272 53.2831 205.527 53.2348C206.397 53.0458 207.773 51.6179 207.773 51.6179C207.808 52.4701 209.794 53.8764 209.922 53.9553C210.045 54.0342 210.251 53.7134 210.251 53.7134C210.251 53.7134 211.516 52.8215 211.982 53.7134C212.013 53.7748 212.035 53.8367 212.052 53.8934C212.061 53.7311 212.114 52.2328 211.815 51.3233C211.499 50.3564 210.57 49.879 208.366 49.6099C206.286 49.3561 204.394 52.0398 204.939 53.0151Z" fill="black"/>
<path d="M207.896 56.9154C207.861 56.9154 207.832 56.8876 207.832 56.8524C207.83 56.8166 207.859 56.7865 207.895 56.7854C207.899 56.7854 208.383 56.7678 208.929 56.4601C208.96 56.4425 208.999 56.4533 209.018 56.4851C209.035 56.5163 209.024 56.556 208.993 56.5736C208.417 56.8984 207.919 56.9154 207.899 56.916C207.898 56.9154 207.897 56.9154 207.896 56.9154Z" fill="#253066"/>
<path d="M211.047 54.5672C211.034 54.5275 211.143 54.4866 211.254 54.3521C211.353 54.2521 211.362 54.0688 211.268 53.9916C211.155 53.8837 211.047 53.9229 211.03 53.8877C211.02 53.8735 211.033 53.8371 211.095 53.8099C211.154 53.7843 211.268 53.7752 211.382 53.8587C211.571 54.0296 211.531 54.3146 211.383 54.4696C211.29 54.557 211.2 54.5831 211.142 54.5911C211.083 54.5979 211.052 54.5854 211.047 54.5672Z" fill="#253066"/>
<path d="M206.851 64.896C206.858 64.9119 206.797 64.9596 206.658 65.018C206.518 65.0748 206.296 65.1429 205.988 65.156C205.467 65.1673 204.943 65.0061 204.519 64.7035C204.272 64.5196 204.126 64.3385 204.043 64.213C203.96 64.0858 203.937 64.0126 203.952 64.0024C203.992 63.9723 204.146 64.2351 204.62 64.5604C205.015 64.842 205.5 64.9913 205.986 64.9811C206.56 64.9783 206.835 64.8477 206.851 64.896Z" fill="white"/>
<path d="M210.629 65.223C210.638 65.2378 210.572 65.3036 210.414 65.4018C210.255 65.4972 210.001 65.6255 209.634 65.7158C209.01 65.856 208.346 65.8118 207.746 65.5898C207.395 65.4524 207.161 65.2911 207.016 65.1753C206.872 65.0572 206.815 64.9823 206.826 64.9687C206.856 64.9266 207.131 65.1833 207.807 65.4257C208.375 65.6363 209.003 65.6783 209.596 65.5455C210.298 65.3945 210.605 65.1764 210.629 65.223Z" fill="white"/>
<path d="M203.294 64.6873C203.256 64.6873 203.221 64.4721 203.203 64.0361L203.195 62.9279C203.208 62.4919 203.24 62.2761 203.278 62.2761C203.316 62.2761 203.351 62.4913 203.37 62.9267L203.377 64.035C203.364 64.4716 203.333 64.6873 203.294 64.6873Z" fill="white"/>
<path d="M212.573 61.259C212.541 61.2539 212.521 61.0075 212.609 60.5096C212.7 60.0946 212.872 59.6699 213.192 59.3582C213.384 59.1794 213.571 59.1005 213.696 59.0692C213.823 59.0391 213.888 59.0499 213.891 59.067C213.905 59.1152 213.644 59.1442 213.314 59.4831C213.027 59.7624 212.868 60.1485 212.78 60.5482C212.664 61.0205 212.617 61.2658 212.573 61.259Z" fill="white"/>
<path d="M212.679 64.3636C212.716 64.3602 212.757 64.4374 212.787 64.5987L212.824 65.0114C212.823 65.1749 212.797 65.2584 212.759 65.2618C212.721 65.2652 212.681 65.188 212.65 65.0273L212.613 64.6146C212.615 64.4499 212.64 64.367 212.679 64.3636Z" fill="white"/>
<path d="M196.66 63.0056L199.453 70.6025C199.485 70.6893 199.568 70.7467 199.66 70.7467H205.298L202.342 62.7092H196.866C196.714 62.7092 196.607 62.8614 196.66 63.0056Z" fill="#719BFF"/>
<path d="M206.03 67.4463L204.906 67.2408C204.861 67.1931 204.453 66.7735 204.556 66.4908C204.669 66.1893 206.03 67.4463 206.03 67.4463Z" fill="#FFBDAE"/>
<path d="M202.343 62.7092L205.298 70.7467H205.807C205.96 70.7467 206.067 70.5939 206.014 70.4503L203.22 62.8534C203.189 62.7666 203.106 62.7092 203.014 62.7092H202.343Z" fill="#6593EF"/>
<path d="M206.249 69.7344C206.249 69.7344 203.465 70.4361 203.068 68.4024C202.68 66.4296 204.784 67.196 204.906 67.2414L206.03 67.4469L206.249 69.7344Z" fill="#FFBDAE"/>
<path d="M213.811 91.3083C213.773 91.3089 213.725 90.3914 213.679 88.536L213.601 83.8193C213.586 81.9651 213.604 81.0465 213.643 81.0459C213.681 81.0453 213.729 81.9628 213.776 83.8164L213.853 88.5332C213.868 90.3891 213.85 91.3077 213.811 91.3083Z" fill="white"/>
<g opacity="0.1">
<path d="M171.388 114.919H163.841C165.034 114.1 166.476 113.624 168.03 113.624H171.388V114.919Z" fill="black"/>
</g>
<g opacity="0.1">
<path d="M177.562 116.426V117.536C177.562 120.228 175.379 122.412 172.687 122.412H160.719C160.636 121.972 160.594 121.523 160.594 121.06C160.594 118.511 161.877 116.26 163.837 114.922H176.054C176.887 114.922 177.562 115.594 177.562 116.426Z" fill="black"/>
</g>
<path d="M216.859 127.941C217.005 128.536 217.172 129.122 217.362 129.703H169.236C165.131 129.703 161.801 126.373 161.801 122.267C161.801 118.162 165.131 114.831 169.236 114.831H217.361C217.194 115.421 217.04 116.012 216.912 116.593C216.537 118.25 216.317 119.871 216.247 121.461C216.247 121.505 216.242 121.545 216.242 121.589C216.233 121.743 216.229 121.902 216.229 122.056C216.225 122.162 216.225 122.272 216.225 122.377C216.216 124.28 216.427 126.139 216.859 127.941Z" fill="#DAE3F7"/>
<path d="M173.444 129.704H171.601C167.494 129.704 164.165 126.372 164.165 122.268C164.165 118.162 167.494 114.83 171.601 114.83H173.444C169.337 114.83 166.008 118.162 166.008 122.268C166.008 126.372 169.337 129.704 173.444 129.704Z" fill="#C2D1F2"/>
<path d="M176.593 129.704H174.751C170.644 129.704 167.315 126.372 167.315 122.268C167.315 118.162 170.644 114.83 174.751 114.83H176.593C172.487 114.83 169.158 118.162 169.158 122.268C169.158 126.372 172.487 129.704 176.593 129.704Z" fill="#C2D1F2"/>
<path d="M232.918 127.941C233.064 128.536 233.231 129.122 233.421 129.703H185.296C181.191 129.703 177.86 126.373 177.86 122.267C177.86 118.162 181.191 114.831 185.296 114.831H233.421C233.253 115.421 233.099 116.012 232.972 116.593C232.597 118.25 232.377 119.871 232.306 121.461C232.306 121.505 232.302 121.545 232.302 121.589C232.293 121.743 232.289 121.902 232.289 122.056C232.284 122.162 232.284 122.272 232.284 122.377C232.275 124.28 232.487 126.139 232.918 127.941Z" fill="#C2D1F2"/>
<path d="M232.284 122.378C232.275 124.281 232.487 126.139 232.918 127.941H185.296C182.168 127.941 179.622 125.395 179.622 122.267C179.622 119.14 182.168 116.594 185.296 116.594H232.971C232.596 118.25 232.376 119.871 232.306 121.461C232.306 121.506 232.301 121.545 232.301 121.589C232.292 121.743 232.288 121.902 232.288 122.056C232.284 122.161 232.284 122.271 232.284 122.378Z" fill="white"/>
<path d="M231.529 118.872H184.289C184.228 118.872 184.179 118.823 184.179 118.762V118.475C184.179 118.414 184.228 118.365 184.289 118.365H231.529C231.59 118.365 231.639 118.414 231.639 118.475V118.762C231.639 118.823 231.59 118.872 231.529 118.872Z" fill="#E0E0E0"/>
<path d="M231.529 120.697H184.289C184.228 120.697 184.179 120.648 184.179 120.587V120.3C184.179 120.239 184.228 120.189 184.289 120.189H231.529C231.59 120.189 231.639 120.239 231.639 120.3V120.587C231.639 120.648 231.59 120.697 231.529 120.697Z" fill="#E0E0E0"/>
<path d="M231.529 122.521H184.289C184.228 122.521 184.179 122.472 184.179 122.411V122.124C184.179 122.063 184.228 122.014 184.289 122.014H231.529C231.59 122.014 231.639 122.063 231.639 122.124V122.411C231.639 122.472 231.59 122.521 231.529 122.521Z" fill="#E0E0E0"/>
<path d="M231.529 124.345H184.289C184.228 124.345 184.179 124.296 184.179 124.235V123.948C184.179 123.887 184.228 123.838 184.289 123.838H231.529C231.59 123.838 231.639 123.887 231.639 123.948V124.235C231.639 124.296 231.59 124.345 231.529 124.345Z" fill="#E0E0E0"/>
<path d="M231.529 126.169H184.289C184.228 126.169 184.179 126.12 184.179 126.059V125.772C184.179 125.711 184.228 125.662 184.289 125.662H231.529C231.59 125.662 231.639 125.711 231.639 125.772V126.059C231.639 126.12 231.59 126.169 231.529 126.169Z" fill="#E0E0E0"/>
<path d="M228.502 113.104C228.647 113.699 228.815 114.285 229.004 114.866H180.879C176.774 114.866 173.444 111.536 173.444 107.431C173.444 103.326 176.774 99.9946 180.879 99.9946H229.004C228.837 100.585 228.682 101.176 228.555 101.757C228.18 103.414 227.96 105.034 227.89 106.625C227.89 106.669 227.885 106.708 227.885 106.752C227.876 106.907 227.872 107.065 227.872 107.22C227.868 107.325 227.868 107.435 227.868 107.541C227.858 109.443 228.07 111.303 228.502 113.104Z" fill="#719BFF"/>
<path d="M190.173 114.867H185.719C181.612 114.867 178.281 111.535 178.281 107.431C178.281 103.325 181.613 99.9956 185.719 99.9956H190.173C186.067 99.9956 182.737 103.325 182.737 107.431C182.738 111.535 186.067 114.867 190.173 114.867Z" fill="#608FEF"/>
<path d="M237.798 113.105C237.941 113.7 238.11 114.284 238.299 114.867H233.842C233.652 114.285 233.486 113.7 233.341 113.105C232.909 111.304 232.696 109.443 232.706 107.54C232.706 107.434 232.706 107.325 232.709 107.218C232.709 107.064 232.714 106.906 232.725 106.753C232.725 106.709 232.727 106.667 232.727 106.626C232.798 105.035 233.019 103.413 233.393 101.758C233.52 101.176 233.676 100.586 233.842 99.9956H238.3C238.131 100.585 237.977 101.175 237.85 101.758C237.476 103.413 237.255 105.035 237.185 106.626C237.185 106.667 237.18 106.709 237.18 106.753C237.172 106.906 237.167 107.064 237.167 107.218C237.161 107.325 237.161 107.434 237.161 107.54C237.153 109.443 237.364 111.304 237.798 113.105Z" fill="#608FEF"/>
<path d="M244.561 113.104C244.706 113.699 244.874 114.285 245.063 114.866H196.939C192.833 114.866 189.503 111.536 189.503 107.431C189.503 103.326 192.833 99.9946 196.939 99.9946H245.063C244.896 100.585 244.741 101.176 244.614 101.757C244.239 103.414 244.019 105.034 243.949 106.625C243.949 106.669 243.944 106.708 243.944 106.752C243.935 106.907 243.931 107.065 243.931 107.22C243.927 107.325 243.927 107.435 243.927 107.541C243.918 109.443 244.129 111.303 244.561 113.104Z" fill="#608FEF"/>
<path d="M243.926 107.541C243.917 109.444 244.129 111.303 244.56 113.105H196.938C193.81 113.105 191.264 110.558 191.264 107.431C191.264 104.303 193.81 101.757 196.938 101.757H244.613C244.239 103.413 244.018 105.034 243.948 106.625C243.948 106.669 243.943 106.708 243.943 106.752C243.934 106.907 243.93 107.065 243.93 107.22C243.926 107.325 243.926 107.435 243.926 107.541Z" fill="white"/>
<path d="M243.172 104.036H195.931C195.871 104.036 195.821 103.986 195.821 103.925V103.638C195.821 103.577 195.871 103.528 195.931 103.528H243.172C243.232 103.528 243.282 103.577 243.282 103.638V103.925C243.282 103.986 243.232 104.036 243.172 104.036Z" fill="#E0E0E0"/>
<path d="M243.172 105.86H195.931C195.871 105.86 195.821 105.81 195.821 105.75V105.462C195.821 105.402 195.871 105.352 195.931 105.352H243.172C243.232 105.352 243.282 105.402 243.282 105.462V105.75C243.282 105.811 243.232 105.86 243.172 105.86Z" fill="#E0E0E0"/>
<path d="M243.172 107.685H195.931C195.871 107.685 195.821 107.635 195.821 107.574V107.287C195.821 107.226 195.871 107.177 195.931 107.177H243.172C243.232 107.177 243.282 107.226 243.282 107.287V107.574C243.282 107.635 243.232 107.685 243.172 107.685Z" fill="#E0E0E0"/>
<path d="M243.172 109.509H195.931C195.871 109.509 195.821 109.459 195.821 109.398V109.111C195.821 109.05 195.871 109.001 195.931 109.001H243.172C243.232 109.001 243.282 109.05 243.282 109.111V109.398C243.282 109.459 243.232 109.509 243.172 109.509Z" fill="#E0E0E0"/>
<path d="M243.172 111.333H195.931C195.871 111.333 195.821 111.283 195.821 111.223V110.935C195.821 110.875 195.871 110.825 195.931 110.825H243.172C243.232 110.825 243.282 110.875 243.282 110.935V111.223C243.282 111.283 243.232 111.333 243.172 111.333Z" fill="#E0E0E0"/>
<path d="M189.686 51.2193V55.6556C189.686 55.9474 189.922 56.1842 190.214 56.1842H195.779C195.809 56.1842 195.838 56.1932 195.861 56.2114L197.025 57.0761C197.116 57.1425 197.244 57.0789 197.244 56.9659V56.321C197.244 56.2449 197.305 56.1836 197.381 56.1836H198.091C198.384 56.1836 198.621 55.9469 198.621 55.655V51.2199C198.621 50.9269 198.384 50.6902 198.091 50.6902H190.214C189.922 50.6908 189.686 50.9275 189.686 51.2193Z" fill="#719BFF"/>
<path d="M197.432 57.7855C197.396 57.7855 197.361 57.7741 197.332 57.752L196.168 56.8873C196.15 56.8731 196.128 56.8663 196.105 56.8663H190.833C190.814 56.8663 190.8 56.8516 190.8 56.834C190.8 56.8164 190.814 56.8016 190.833 56.8016H196.105C196.143 56.8016 196.178 56.8135 196.207 56.8362L197.37 57.7003C197.402 57.7242 197.443 57.7276 197.48 57.7094C197.515 57.6912 197.537 57.6566 197.537 57.6163V56.9713C197.537 56.8777 197.613 56.8016 197.707 56.8016H198.417C198.691 56.8016 198.914 56.579 198.914 56.306V52.4181C198.914 52.3999 198.929 52.3857 198.947 52.3857C198.965 52.3857 198.979 52.4005 198.979 52.4181V56.306C198.979 56.6154 198.727 56.8669 198.417 56.8669H197.707C197.649 56.8669 197.602 56.914 197.602 56.9719V57.6169C197.602 57.681 197.566 57.7389 197.509 57.7679C197.484 57.7792 197.458 57.7855 197.432 57.7855Z" fill="#9BB2E1"/>
<path d="M198.946 52.4508C198.928 52.4508 198.914 52.436 198.914 52.4184V51.8711C198.914 51.6707 198.794 51.4907 198.61 51.413C198.593 51.4062 198.586 51.3869 198.593 51.3704C198.6 51.3539 198.62 51.3465 198.635 51.3534C198.844 51.4414 198.978 51.6446 198.978 51.8717V52.419C198.978 52.436 198.964 52.4508 198.946 52.4508Z" fill="#9BB2E1"/>
<path d="M195.809 53.4515C195.809 53.7433 196.044 53.9789 196.336 53.9789C196.631 53.9789 196.866 53.7433 196.866 53.4515C196.866 53.1597 196.631 52.9241 196.336 52.9241C196.044 52.9241 195.809 53.1597 195.809 53.4515Z" fill="white"/>
<path d="M193.803 53.4515C193.803 53.7433 194.038 53.9789 194.33 53.9789C194.625 53.9789 194.86 53.7433 194.86 53.4515C194.86 53.1597 194.625 52.9241 194.33 52.9241C194.038 52.9241 193.803 53.1597 193.803 53.4515Z" fill="white"/>
<path d="M191.797 53.4515C191.797 53.7433 192.032 53.9789 192.324 53.9789C192.619 53.9789 192.855 53.7433 192.855 53.4515C192.855 53.1597 192.619 52.9241 192.324 52.9241C192.032 52.9241 191.797 53.1597 191.797 53.4515Z" fill="white"/>
<path d="M55.4995 73.5712L55.2315 73.6824C55.1566 73.7137 55.0703 73.6785 55.0391 73.603C55.0078 73.5275 55.0442 73.4412 55.1185 73.4105L55.3865 73.2992C55.462 73.268 55.5477 73.3032 55.579 73.3787C55.6102 73.4542 55.575 73.5394 55.4995 73.5712Z" fill="#FFC837"/>
<path d="M56.3036 75.7115H55.5763C55.4951 75.7115 55.4287 75.6456 55.4287 75.5639C55.4287 75.4821 55.4951 75.4163 55.5763 75.4163H56.3036C56.3853 75.4163 56.4512 75.4821 56.4512 75.5639C56.4512 75.6456 56.3859 75.7115 56.3036 75.7115Z" fill="#FFC837"/>
<path d="M51.6892 83.3055C51.6892 83.3253 51.6886 83.3458 51.6875 83.3662C51.6562 84.0838 51.0646 84.6561 50.3385 84.6561C49.6118 84.6561 49.0202 84.0838 48.989 83.3662C48.9879 83.3464 48.9873 83.3259 48.9873 83.3055C48.9873 82.5595 49.5919 81.9548 50.3385 81.9548C51.0845 81.9548 51.6892 82.5595 51.6892 83.3055Z" fill="#6385D2"/>
<g opacity="0.15">
<path d="M51.6892 83.3055C51.6892 83.3253 51.6886 83.3458 51.6875 83.3662H48.989C48.9879 83.3464 48.9873 83.3259 48.9873 83.3055C48.9873 82.5595 49.5919 81.9548 50.3385 81.9548C51.0845 81.9548 51.6892 82.5595 51.6892 83.3055Z" fill="black"/>
</g>
<path d="M53.5771 79.01C52.9463 79.6084 52.491 80.3532 52.2276 81.1657C52.2043 81.2378 52.1827 81.311 52.1617 81.3837H48.506C48.485 81.3104 48.4623 81.2378 48.4379 81.1657C48.1609 80.3396 47.684 79.5845 47.0481 78.9612C46.1755 78.1073 45.6333 76.9162 45.6333 75.5979C45.6333 72.9142 47.8804 70.7557 50.5953 70.9004C53.011 71.0293 54.9515 73.0062 55.039 75.4242C55.0906 76.8373 54.5184 78.1164 53.5771 79.01Z" fill="#FFC837"/>
<path d="M51.2104 81.6324C51.1826 81.5847 51.1712 82.5249 51.186 77.7179H50.1431V77.4226H51.1871C51.1877 77.2762 51.1883 77.1251 51.1888 76.9701C51.19 76.5614 51.5244 76.2292 51.9331 76.2292H52.0825C52.4929 76.2292 52.8268 76.5631 52.8268 76.9736C52.8268 77.384 52.4929 77.7179 52.0825 77.7179H51.4818C51.4693 81.8538 51.4795 81.4825 51.4846 81.5376L51.3529 81.5495L51.2104 81.6324ZM51.4824 77.4226H52.0819C52.3294 77.4226 52.531 77.2211 52.531 76.9736C52.531 76.726 52.3294 76.5245 52.0819 76.5245H51.9326C51.6856 76.5245 51.4841 76.7249 51.4835 76.9713C51.4829 77.1257 51.4824 77.2762 51.4824 77.4226Z" fill="white"/>
<path d="M49.4668 81.6323L49.2114 81.4841L49.3391 81.5585L49.1932 81.5381C49.2034 81.424 49.2046 80.5746 49.196 77.7183H48.5954C48.1849 77.7183 47.8511 77.3845 47.8511 76.974C47.8511 76.5636 48.1849 76.2297 48.5954 76.2297H48.7447C49.1535 76.2297 49.4879 76.5619 49.489 76.9706C49.4896 77.1256 49.4901 77.2766 49.4907 77.4231H50.5348V77.7183H49.4918C49.5066 82.5237 49.4947 81.5846 49.4668 81.6323ZM48.5954 76.5238C48.3478 76.5238 48.1463 76.7254 48.1463 76.9729C48.1463 77.2204 48.3478 77.422 48.5954 77.422H49.1955C49.1949 77.2738 49.1943 77.1234 49.1938 76.9706C49.1932 76.7242 48.9917 76.5238 48.7447 76.5238H48.5954Z" fill="white"/>
<g opacity="0.1">
<path d="M52.2281 81.1663C52.2048 81.2384 52.1833 81.3116 52.1623 81.3843H48.5066C48.4856 81.311 48.4629 81.2384 48.4385 81.1663H52.2281Z" fill="black"/>
</g>
<path d="M52.4491 81.4541V83.083C52.4491 83.159 52.3877 83.2198 52.3128 83.2198H48.3648C48.2893 83.2198 48.2285 83.1585 48.2285 83.083V81.4541C48.2285 81.3786 48.2898 81.3179 48.3648 81.3179H52.3128C52.3877 81.3173 52.4491 81.3786 52.4491 81.4541Z" fill="#829ED9"/>
<g opacity="0.15">
<path d="M52.4491 81.8062V82.1973H48.3035C48.2769 82.1973 48.2507 82.1922 48.228 82.182V81.8215C48.2513 81.8113 48.2769 81.8062 48.3035 81.8062H52.4491Z" fill="black"/>
</g>
<path d="M52.6052 81.91C52.6052 81.9639 52.5831 82.0127 52.5479 82.0485C52.5121 82.0837 52.4633 82.1058 52.4094 82.1058H48.2672C48.1587 82.1058 48.0713 82.0184 48.0713 81.91C48.0713 81.8566 48.0934 81.8072 48.1286 81.772C48.1644 81.7362 48.2132 81.7141 48.2672 81.7141H52.4094C52.5178 81.7141 52.6052 81.8021 52.6052 81.91Z" fill="#DDEEFE"/>
<path d="M52.6052 82.5567C52.6052 82.6106 52.5831 82.6595 52.5479 82.6952C52.5121 82.7304 52.4633 82.7526 52.4094 82.7526H48.2672C48.1587 82.7526 48.0713 82.6652 48.0713 82.5567C48.0713 82.5033 48.0934 82.4539 48.1286 82.4188C48.1644 82.383 48.2132 82.3608 48.2672 82.3608H52.4094C52.5178 82.3608 52.6052 82.4494 52.6052 82.5567Z" fill="#DDEEFE"/>
<g opacity="0.14">
<path d="M49.9562 73.2966C50.2678 72.8789 50.2594 72.3456 49.9374 72.1054C49.6154 71.8653 49.1018 72.0092 48.7902 72.427C48.4787 72.8447 48.4871 73.378 48.8091 73.6182C49.131 73.8583 49.6446 73.7144 49.9562 73.2966Z" fill="white"/>
</g>
<g opacity="0.14">
<path d="M48.9142 74.6362C48.7445 74.8638 48.443 74.9257 48.2409 74.7747C48.0388 74.6237 48.0127 74.3171 48.1819 74.09C48.3516 73.8623 48.6531 73.8005 48.8552 73.9515C49.0573 74.1025 49.084 74.4091 48.9142 74.6362Z" fill="white"/>
</g>
<path d="M50.449 69.5624V70.2897C50.449 70.3709 50.3832 70.4373 50.3014 70.4373C50.2197 70.4373 50.1538 70.3709 50.1538 70.2897V69.5624C50.1538 69.4807 50.2197 69.4148 50.3014 69.4148C50.3837 69.4154 50.449 69.4807 50.449 69.5624Z" fill="#FFC837"/>
<path d="M48.3087 70.3667L48.42 70.6347C48.4512 70.7096 48.416 70.7959 48.3405 70.8272C48.265 70.8584 48.1787 70.8221 48.148 70.7477L48.0368 70.4797C48.0055 70.4042 48.0407 70.3185 48.1162 70.2873C48.1918 70.256 48.2775 70.2912 48.3087 70.3667Z" fill="#FFC837"/>
<path d="M52.5674 70.4797L52.4562 70.7477C52.4249 70.8226 52.3392 70.859 52.2637 70.8272C52.1882 70.7959 52.153 70.7096 52.1842 70.6347L52.2955 70.3667C52.3267 70.2912 52.4125 70.2555 52.488 70.2872C52.5635 70.3185 52.5987 70.4042 52.5674 70.4797Z" fill="#FFC837"/>
<path d="M46.1619 71.2163L46.6763 71.7306C46.7337 71.788 46.7342 71.8811 46.6763 71.939C46.6184 71.9969 46.5253 71.9964 46.468 71.939L45.9536 71.4246C45.8957 71.3667 45.8957 71.2742 45.9536 71.2163C46.0115 71.1584 46.104 71.1584 46.1619 71.2163Z" fill="#FFC837"/>
<path d="M44.9722 73.5712L45.2402 73.6824C45.3151 73.7137 45.4014 73.6785 45.4326 73.603C45.4639 73.5275 45.4275 73.4412 45.3532 73.4105L45.0852 73.2992C45.0097 73.268 44.9239 73.3032 44.8927 73.3787C44.8615 73.4542 44.8967 73.5394 44.9722 73.5712Z" fill="#FFC837"/>
<path d="M44.1676 75.7115H44.8949C44.9761 75.7115 45.0425 75.6456 45.0425 75.5639C45.0425 75.4821 44.9761 75.4163 44.8949 75.4163H44.1676C44.0859 75.4163 44.02 75.4821 44.02 75.5639C44.02 75.6456 44.0859 75.7115 44.1676 75.7115Z" fill="#FFC837"/>
<path d="M54.6502 71.4246L54.1359 71.939C54.0785 71.9964 53.9854 71.9969 53.9275 71.939C53.8696 71.8811 53.8702 71.788 53.9275 71.7306L54.4419 71.2163C54.4998 71.1584 54.5923 71.1584 54.6502 71.2163C54.7076 71.2742 54.7076 71.3667 54.6502 71.4246Z" fill="#FFC837"/>
<path d="M46.5886 77.2274C46.5733 77.2337 46.5057 77.1229 46.4172 76.88C46.332 76.637 46.2247 76.2577 46.1963 75.7348C46.1594 74.8497 46.3825 73.9555 46.8311 73.1919C47.1019 72.7446 47.3744 72.4596 47.5634 72.2858C47.7559 72.1132 47.8677 72.0474 47.8785 72.0604C47.8922 72.0763 47.8047 72.1689 47.6378 72.3585C47.4737 72.5498 47.229 72.8411 46.9821 73.2799C46.55 74.0163 46.3354 74.8753 46.3712 75.7286C46.3831 76.2327 46.4626 76.6052 46.5177 76.851C46.5744 77.0963 46.6085 77.2195 46.5886 77.2274Z" fill="white"/>
</g>
<defs>
<clipPath id="clip0_1859_6781">
<rect width="244.126" height="129.704" fill="white" transform="translate(0.937012)"/>
</clipPath>
</defs>
</svg>
