<svg width="292" height="170" viewBox="0 0 292 170" fill="none" xmlns="http://www.w3.org/2000/svg">
<g clip-path="url(#clip0_1849_4485)">
<path d="M85.2349 58.6155H35.1899V98.1777H85.2349V58.6155Z" fill="white"/>
<path d="M85.2349 58.6155H35.1899V64.1737H85.2349V58.6155Z" fill="#D1A043"/>
<path d="M55.189 66.1873V78.8458L62.7589 69.0231C60.6525 67.3686 58.0387 66.3324 55.189 66.1873Z" fill="white"/>
<path d="M63.6675 69.9924L55.623 80.431L67.5484 84.9669C68.1087 83.4903 68.4167 81.89 68.4167 80.2177C68.4167 76.1173 66.5715 72.4472 63.6675 69.9924Z" fill="#85CE4E"/>
<path d="M54.1233 80.8617L54.011 80.8087L53.9681 80.9261V66.8363C53.8974 66.835 53.828 66.8337 53.7573 66.8337C46.3654 66.8337 40.373 72.8261 40.373 80.218C40.373 87.61 46.3654 93.6023 53.7573 93.6023C59.3067 93.6023 64.0659 90.225 66.0954 85.4153L54.1233 80.8617Z" fill="#009245"/>
<path d="M79.8205 71.1358C80.1791 69.6011 79.2256 68.0664 77.6909 67.7078C76.1562 67.3493 74.6215 68.3027 74.263 69.8374C73.9044 71.3721 74.8579 72.9069 76.3926 73.2654C77.9272 73.6239 79.462 72.6705 79.8205 71.1358Z" fill="#85CE4E"/>
<path d="M79.8415 78.9314C80.1382 77.3836 79.1241 75.8883 77.5763 75.5916C76.0286 75.2948 74.5333 76.309 74.2365 77.8567C73.9398 79.4045 74.9539 80.8997 76.5017 81.1965C78.0494 81.4933 79.5447 80.4791 79.8415 78.9314Z" fill="white"/>
<path d="M79.0591 88.3185C80.1735 87.2042 80.1735 85.3974 79.0591 84.283C77.9447 83.1687 76.138 83.1687 75.0236 84.283C73.9092 85.3974 73.9092 87.2042 75.0236 88.3185C76.138 89.4329 77.9447 89.4329 79.0591 88.3185Z" fill="#009245"/>
<path d="M142.156 101.1H90.812V141.688H142.156V101.1Z" fill="white"/>
<path d="M142.156 101.1H90.812V106.803H142.156V101.1Z" fill="#D1A043"/>
<path d="M94.9798 130.483L94.4458 130.742L94.5749 131.009L95.1089 130.751L94.9798 130.483Z" fill="#009245"/>
<path d="M97.3301 129.348L96.1553 129.916L96.2844 130.183L97.4593 129.615L97.3301 129.348Z" fill="#009245"/>
<path d="M99.4395 129.16L99.0786 128.825L98.6356 129.04L98.5068 128.772L99.1316 128.47L99.6414 128.941L99.4395 129.16Z" fill="#009245"/>
<path d="M105.943 135.18L105.13 134.428L105.332 134.211L106.145 134.963L105.943 135.18ZM104.317 133.676L103.505 132.923L103.706 132.706L104.519 133.459L104.317 133.676ZM102.692 132.17L101.879 131.418L102.081 131.201L102.894 131.953L102.692 132.17ZM101.066 130.664L100.253 129.912L100.455 129.695L101.268 130.447L101.066 130.664Z" fill="#009245"/>
<path d="M107.294 136.432L106.755 135.934L106.957 135.716L107.289 136.024L107.614 135.708L107.821 135.92L107.294 136.432Z" fill="#009245"/>
<path d="M108.651 135.112L108.444 134.9L109.275 134.091L109.482 134.303L108.651 135.112ZM110.313 133.494L110.106 133.282L110.937 132.473L111.144 132.685L110.313 133.494ZM111.976 131.877L111.769 131.665L112.599 130.856L112.806 131.068L111.976 131.877ZM113.638 130.26L113.431 130.048L114.261 129.239L114.468 129.451L113.638 130.26ZM115.3 128.644L115.093 128.432L115.923 127.623L116.13 127.835L115.3 128.644ZM116.962 127.027L116.755 126.815L117.586 126.006L117.793 126.218L116.962 127.027Z" fill="#009245"/>
<path d="M118.624 125.41L118.417 125.197L118.917 124.712L119.545 125.014L119.417 125.281L118.975 125.068L118.624 125.41Z" fill="#009245"/>
<path d="M126.434 128.655L125.264 128.092L125.393 127.824L126.563 128.387L126.434 128.655ZM124.095 127.53L122.925 126.968L123.054 126.7L124.224 127.263L124.095 127.53ZM121.755 126.406L120.585 125.843L120.714 125.575L121.884 126.138L121.755 126.406Z" fill="#009245"/>
<path d="M128.278 129.541L127.604 129.218L127.733 128.95L128.129 129.141L128.304 128.738L128.576 128.857L128.278 129.541Z" fill="#009245"/>
<path d="M129.05 127.77L128.779 127.652L129.252 126.566L129.523 126.685L129.05 127.77ZM129.997 125.599L129.725 125.481L130.199 124.395L130.47 124.514L129.997 125.599ZM130.945 123.427L130.673 123.309L131.146 122.223L131.418 122.342L130.945 123.427ZM131.891 121.255L131.62 121.137L132.093 120.051L132.364 120.17L131.891 121.255ZM132.839 119.085L132.568 118.966L133.041 117.881L133.312 117.999L132.839 119.085ZM133.787 116.913L133.515 116.794L133.989 115.709L134.26 115.827L133.787 116.913ZM134.733 114.742L134.462 114.623L134.935 113.538L135.207 113.656L134.733 114.742Z" fill="#009245"/>
<path d="M135.65 111.916L135.413 112.46L135.684 112.579L135.922 112.035L135.65 111.916Z" fill="#009245"/>
<path d="M135.778 115.05L135.789 115.345L137.456 115.281L119.395 131.108L109.687 123.474L99.5586 135.321L94.3084 127.383L94.061 127.547L99.5283 135.813L109.727 123.883L119.405 131.495L137.669 115.488L137.628 117.061L137.924 117.069L137.98 114.963L135.778 115.05Z" fill="#D1A043"/>
<path d="M139.114 136.573H93.7148V111.967H94.4077V135.881H139.114V136.573Z" fill="#009245"/>
<path d="M193.243 54.1406H140.398V95.9165H193.243V54.1406Z" fill="white"/>
<path d="M193.243 54.1406H140.398V60.0105H193.243V54.1406Z" fill="#D1A043"/>
<path d="M151.748 72.8773C153.276 69.6628 156.556 67.4366 160.345 67.4366C164.013 67.4366 167.202 69.5228 168.79 72.5707L172.257 70.6182C169.985 66.3613 165.498 63.4585 160.345 63.4585C155.071 63.4585 150.495 66.5014 148.276 70.9224L151.748 72.8773Z" fill="#D1A043"/>
<path d="M160.042 86.4608V90.4414C152.742 90.2799 146.852 84.2901 146.852 76.9524C146.852 75.01 147.265 73.1636 148.007 71.4939L151.495 73.4589C151.066 74.5405 150.83 75.7193 150.83 76.9536C150.831 82.0966 154.936 86.3005 160.042 86.4608Z" fill="#D1A043"/>
<path d="M173.839 76.9513C173.839 84.342 167.864 90.3647 160.491 90.4429V86.4649C165.671 86.3866 169.86 82.1498 169.86 76.9526C169.86 75.5971 169.574 74.3086 169.062 73.1399L172.539 71.1812C173.372 72.9316 173.839 74.8879 173.839 76.9513Z" fill="#009245"/>
<path d="M183.687 73.4929H178.318V76.8614H183.687V73.4929Z" fill="#D1A043"/>
<path d="M189.056 73.4927H181.002V76.8612H189.056V73.4927Z" fill="#009245"/>
<path d="M185.028 79.2241H178.318V82.5926H185.028V79.2241Z" fill="#D1A043"/>
<path d="M189.056 79.2241H184.803V82.5926H189.056V79.2241Z" fill="#D1A043"/>
<path d="M253.95 75.1755H200.803V117.19H253.95V75.1755Z" fill="white"/>
<path d="M253.95 75.1755H200.803V81.0783H253.95V75.1755Z" fill="#D1A043"/>
<path d="M210.888 96.1831H205.872V117.19H210.888V96.1831Z" fill="#85CE4E"/>
<path d="M210.888 96.1831H205.872V101.2H210.888V96.1831Z" fill="#009245"/>
<path d="M220.4 104.232H215.383V117.192H220.4V104.232Z" fill="#D1A043"/>
<path d="M220.4 104.232H215.383V107.681H220.4V104.232Z" fill="#009245"/>
<path d="M229.91 94.511H224.894V117.19H229.91V94.511Z" fill="#85CE4E"/>
<path d="M229.91 94.511H224.894V98.065H229.91V94.511Z" fill="#009245"/>
<path d="M239.421 109.117H234.404V117.191H239.421V109.117Z" fill="#D1A043"/>
<path d="M239.421 109.117H234.404V111.875H239.421V109.117Z" fill="#009245"/>
<path d="M248.932 100.573H243.916V117.191H248.932V100.573Z" fill="#85CE4E"/>
<path d="M248.932 100.573H243.916V104.23H248.932V100.573Z" fill="#009245"/>
<path d="M204.106 94.1117L203.552 94.3792L203.686 94.6553L204.239 94.3878L204.106 94.1117Z" fill="white"/>
<path d="M206.548 92.9277L205.332 93.5161L205.465 93.7922L206.682 93.2038L206.548 92.9277Z" fill="white"/>
<path d="M208.726 92.7419L208.353 92.3961L207.895 92.6182L207.761 92.3418L208.408 92.0288L208.936 92.5172L208.726 92.7419Z" fill="white"/>
<path d="M215.458 98.9742L214.617 98.1955L214.825 97.9708L215.667 98.7495L215.458 98.9742ZM213.776 97.4168L212.934 96.6381L213.143 96.4134L213.984 97.1921L213.776 97.4168ZM212.093 95.8581L211.251 95.0794L211.459 94.8535L212.301 95.6322L212.093 95.8581ZM210.41 94.3007L209.568 93.522L209.777 93.2974L210.618 94.0761L210.41 94.3007Z" fill="white"/>
<path d="M216.859 100.272L216.3 99.7532L216.509 99.5286L216.851 99.8441L217.176 99.5134L217.396 99.728L216.859 100.272Z" fill="white"/>
<path d="M218.205 98.9056L217.986 98.6898L218.795 97.8682L219.014 98.084L218.205 98.9056ZM219.823 97.2624L219.604 97.0466L220.413 96.225L220.632 96.4408L219.823 97.2624ZM221.442 95.6192L221.224 95.4034L222.033 94.5818L222.251 94.7976L221.442 95.6192ZM223.061 93.976L222.843 93.7601L223.652 92.9385L223.87 93.1544L223.061 93.976ZM224.679 92.3327L224.461 92.1169L225.27 91.2953L225.488 91.5111L224.679 92.3327ZM226.298 90.6895L226.08 90.4737L226.889 89.6521L227.107 89.8679L226.298 90.6895Z" fill="white"/>
<path d="M227.916 89.0468L227.698 88.8322L228.203 88.3198L228.863 88.6051L228.741 88.8865L228.273 88.6846L227.916 89.0468Z" fill="white"/>
<path d="M236.862 92.3897L235.847 91.9518L235.968 91.6704L236.983 92.1083L236.862 92.3897ZM234.831 91.5139L233.816 91.0759L233.938 90.7945L234.952 91.2324L234.831 91.5139ZM232.802 90.638L231.787 90.2L231.908 89.9186L232.923 90.3565L232.802 90.638ZM230.771 89.7621L229.756 89.3242L229.878 89.0427L230.892 89.4807L230.771 89.7621Z" fill="white"/>
<path d="M238.524 93.1068L237.876 92.8279L237.998 92.5452L238.478 92.7535L238.891 92.4316L239.079 92.674L238.524 93.1068Z" fill="white"/>
<path d="M240.001 91.9571L239.812 91.7147L240.734 90.9979L240.922 91.2402L240.001 91.9571ZM241.842 90.5233L241.654 90.281L242.575 89.5642L242.763 89.8065L241.842 90.5233ZM243.683 89.0909L243.495 88.8486L244.415 88.1317L244.603 88.374L243.683 89.0909ZM245.525 87.6572L245.337 87.4149L246.258 86.698L246.446 86.9403L245.525 87.6572ZM247.366 86.2235L247.178 85.9811L248.098 85.2643L248.286 85.5066L247.366 86.2235ZM249.207 84.7897L249.019 84.5474L249.941 83.8306L250.129 84.0729L249.207 84.7897Z" fill="white"/>
<path d="M251.354 82.7447L250.869 83.1223L251.057 83.3643L251.542 82.9868L251.354 82.7447Z" fill="white"/>
<path d="M94.0785 72.5718H93.1597V73.1851H94.0785V72.5718Z" fill="white"/>
<path d="M127.875 73.1839H125.997V72.5706H127.875V73.1839ZM124.12 73.1839H122.243V72.5706H124.12V73.1839ZM120.366 73.1839H118.488V72.5706H120.366V73.1839ZM116.61 73.1839H114.732V72.5706H116.61V73.1839ZM112.855 73.1839H110.977V72.5706H112.855V73.1839ZM109.099 73.1839H107.221V72.5706H109.099V73.1839ZM105.345 73.1839H103.467V72.5706H105.345V73.1839ZM101.589 73.1839H99.7107V72.5706H101.589V73.1839ZM97.834 73.1839H95.9561V72.5706H97.834V73.1839Z" fill="white"/>
<path d="M130.673 72.5718H129.753V73.1851H130.673V72.5718Z" fill="white"/>
<path d="M155.09 110.242H154.333V110.747H155.09V110.242Z" fill="white"/>
<path d="M182.926 110.747H181.38V110.242H182.926V110.747ZM179.832 110.747H178.286V110.242H179.832V110.747ZM176.74 110.747H175.194V110.242H176.74V110.747ZM173.647 110.747H172.101V110.242H173.647V110.747ZM170.554 110.747H169.008V110.242H170.554V110.747ZM167.462 110.747H165.915V110.242H167.462V110.747ZM164.368 110.747H162.822V110.242H164.368V110.747ZM161.275 110.747H159.729V110.242H161.275V110.747ZM158.183 110.747H156.637V110.242H158.183V110.747Z" fill="white"/>
<path d="M185.23 110.242H184.473V110.747H185.23V110.242Z" fill="white"/>
<path d="M261.039 92.0813H260.282V92.5861H261.039V92.0813Z" fill="white"/>
<path d="M288.876 92.5861H287.33V92.0813H288.876V92.5861ZM285.783 92.5861H284.236V92.0813H285.783V92.5861ZM282.69 92.5861H281.144V92.0813H282.69V92.5861ZM279.597 92.5861H278.051V92.0813H279.597V92.5861ZM276.504 92.5861H274.958V92.0813H276.504V92.5861ZM273.412 92.5861H271.866V92.0813H273.412V92.5861ZM270.318 92.5861H268.772V92.0813H270.318V92.5861ZM267.225 92.5861H265.679V92.0813H267.225V92.5861ZM264.133 92.5861H262.587V92.0813H264.133V92.5861Z" fill="white"/>
<path d="M291.179 92.0813H290.422V92.5861H291.179V92.0813Z" fill="white"/>
<path d="M1.57853 79.9651H0.821289V80.4699H1.57853V79.9651Z" fill="white"/>
<path d="M29.4148 80.4699H27.8687V79.9651H29.4148V80.4699ZM26.3214 80.4699H24.7754V79.9651H26.3214V80.4699ZM23.2293 80.4699H21.6833V79.9651H23.2293V80.4699ZM20.136 80.4699H18.59V79.9651H20.136V80.4699ZM17.0427 80.4699H15.4966V79.9651H17.0427V80.4699ZM13.9506 80.4699H12.4033V79.9651H13.9493V80.4699H13.9506ZM10.8572 80.4699H9.31119V79.9651H10.8572V80.4699ZM7.76389 80.4699H6.21785V79.9651H7.76389V80.4699ZM4.67181 80.4699H3.12451V79.9651H4.67055V80.4699H4.67181Z" fill="white"/>
<path d="M31.7182 79.9651H30.9609V80.4699H31.7182V79.9651Z" fill="white"/>
<path d="M77.6424 169.963L62.8888 169.999C62.5228 170 62.225 169.703 62.2237 169.337L62.1997 159.517C62.1984 159.151 62.495 158.853 62.861 158.852L77.6147 158.817C77.9807 158.815 78.2785 159.112 78.2798 159.478L78.3038 169.298C78.305 169.665 78.0097 169.963 77.6424 169.963Z" fill="#0F4391"/>
<path d="M78.2913 163.815L62.3438 163.854L62.3442 164.041L78.2918 164.002L78.2913 163.815Z" fill="#105F9A"/>
<path d="M71.1286 162.191L69.6025 162.247L69.6132 162.541L71.1392 162.485L71.1286 162.191Z" fill="#105F9A"/>
<path d="M73.0057 160.722L67.2633 160.794L67.2267 157.885C67.2166 157.127 67.8249 156.488 68.5809 156.461L71.5442 156.423C72.3204 156.414 72.959 157.038 72.9691 157.813L73.0057 160.722ZM67.8451 160.198L72.4113 160.141L72.3823 157.82C72.3772 157.368 72.0049 157.006 71.5543 157.011L68.6251 157.048C68.1644 157.064 67.8123 157.435 67.8173 157.876L67.8451 160.198Z" fill="#0F4391"/>
<path opacity="0.24" d="M94.1242 95.861C101.11 88.8757 101.11 77.5501 94.1242 70.5647C87.1388 63.5794 75.8132 63.5794 68.8278 70.5647C61.8425 77.5501 61.8425 88.8757 68.8278 95.861C75.8132 102.846 87.1388 102.846 94.1242 95.861Z" fill="white"/>
<path d="M62.0964 83.6878C62.032 81.0715 62.4826 78.5208 63.4354 76.1052C64.3555 73.7729 65.7021 71.6665 67.4375 69.8428C69.1741 68.0191 71.2123 66.5715 73.4967 65.5379C75.8618 64.4676 78.3885 63.8934 81.0035 63.829C83.6198 63.7647 86.1704 64.2152 88.586 65.1681C90.9183 66.0881 93.0247 67.4348 94.8484 69.1701C96.6721 70.9067 98.1197 72.945 99.1534 75.2281C100.222 77.5932 100.798 80.1199 100.862 82.7349C100.927 85.3512 100.476 87.9018 99.5232 90.3174C98.6031 92.6497 97.2565 94.7561 95.5211 96.5798C93.7845 98.4035 91.7463 99.8511 89.4632 100.885C87.098 101.955 84.5714 102.529 81.9564 102.594C79.3401 102.658 76.7894 102.207 74.3738 101.255C72.0415 100.335 69.9351 98.9879 68.1114 97.2525C66.2877 95.5159 64.8401 93.4777 63.8065 91.1946C62.735 88.8294 62.1607 86.304 62.0964 83.6878ZM98.6372 82.7917C98.405 73.3299 90.5183 65.8206 81.0565 66.0528C71.5947 66.285 64.0854 74.1717 64.3176 83.6335C64.5498 93.0952 72.4365 100.605 81.8983 100.372C91.3601 100.14 98.8694 92.2534 98.6372 82.7917Z" fill="#2A4179"/>
<path d="M47.85 126.228C47.8437 125.96 47.9219 125.689 48.091 125.457L69.0288 96.7331C69.4377 96.1714 70.2253 96.0477 70.7869 96.4579C71.3485 96.8668 71.4722 97.6544 71.062 98.216L50.1242 126.94C49.7153 127.501 48.9278 127.625 48.3661 127.215C48.038 126.974 47.8601 126.605 47.85 126.228Z" fill="#2A4179"/>
<path d="M43.314 109.97L49.5107 107.194L49.9954 106.414H53.7639L54.6019 107.828L60.3027 109.479L58.3162 125.481L60.564 133.56L59.7676 133.427L59.1341 133.191L44.9622 134.853L46.5272 123.165L43.314 109.97Z" fill="#D1A043"/>
<path d="M44.9624 134.853L46.2346 145.019C46.4037 145.031 46.5741 145.038 46.7444 145.042C46.8744 145.044 47.0057 145.046 47.1357 145.044C48.5013 145.037 49.8693 144.845 51.2311 144.588C51.2564 144.583 51.2816 144.579 51.3068 144.572L52.2408 137.872V137.871L52.6068 135.242L52.7898 133.933C52.7898 133.933 52.3884 133.698 51.7524 133.445C51.7448 133.442 51.7372 133.435 51.7296 133.436C50.1394 133.787 48.2968 133.787 45.6136 134.057C45.2931 134.091 45.1656 134.548 44.9624 134.853Z" fill="#0E408B"/>
<path d="M51.7308 134.059C51.7283 134.418 51.7421 134.767 51.7674 135.102C51.8847 136.658 52.2407 137.872 52.2407 137.872V137.873L52.9121 145.019C53.7501 144.839 54.1451 146.197 54.9743 146.036C55.2078 145.991 55.9852 146.517 56.2187 146.477C56.4837 146.431 57.0037 145.383 57.2675 145.343C57.8417 145.26 57.4101 145.101 57.9843 145.044L59.9418 134.601L60.1059 133.306L60.121 133.19H57.6499L55.0324 133.426C53.7034 133.426 53.7034 133.426 52.2407 133.655C51.4721 133.777 51.804 132.661 51.7522 133.445C51.7396 133.652 51.732 133.856 51.7308 134.059Z" fill="#0E408B"/>
<path d="M51.7295 134.059V128.451L52.7896 133.934L51.7295 134.059Z" fill="#E6E6E6"/>
<path d="M50.2393 104.388L50.3604 106.59L53.6279 106.469L53.9068 104.775L53.5711 104.388C53.5724 104.388 51.2073 102.669 50.2393 104.388Z" fill="#F2B694"/>
<path d="M45.6138 134.059H51.7298L52.7899 133.934L60.1226 133.191L60.038 133.82L52.7899 134.385L45.6138 134.059Z" fill="#E6E6E6"/>
<path d="M60.4227 133.279L59.018 128.151L58.3857 125.762L58.7025 133.427L60.4227 133.279Z" fill="#E6E6E6"/>
<path d="M49.1133 107.372L51.9391 107.605L54.602 107.828L53.764 106.414L49.8869 106.344L49.1133 107.372Z" fill="white"/>
<path d="M45.2751 118.025L44.48 113.534L47.8497 122.881L45.819 128.451L46.5271 123.165L45.2751 118.025Z" fill="#E6E6E6"/>
<path d="M60.3026 109.479C60.3026 109.479 64.7047 119.515 63.4906 120.38C62.2778 121.246 58.6152 122.78 58.6152 122.78L60.3026 109.479Z" fill="#D1A043"/>
<path d="M59.0633 117.448C59.0671 117.362 59.9101 118.392 60.1701 119.305C60.2926 119.735 58.7188 120.085 58.7188 120.085L59.0633 117.448Z" fill="#E6E6E6"/>
<path d="M54.6918 101.238C54.6918 101.238 54.799 102.006 54.7864 102.249C54.7725 102.491 54.9757 103.772 54.9757 103.772L54.693 103.839C54.693 103.839 54.3826 105.362 54.2071 105.417C54.0317 105.471 53.5471 105.352 53.5471 105.352L52.0742 103.334L53.908 101.547L54.6918 101.238Z" fill="#F2B694"/>
<path d="M50.4904 106.089L49.8555 103.911C49.8555 103.911 47.7984 100.522 50.5358 100.159C50.5358 100.159 53.3161 97.3809 55.0326 101.345L54.3485 101.717C54.3485 101.717 52.622 102.033 52.9994 103.05L52.6636 105.862L50.4904 106.089Z" fill="#2F4A89"/>
<path d="M53.7992 105.432C53.7992 105.432 53.4509 105.323 53.4105 105.323C53.3701 105.323 53.1025 104.745 53.1025 104.745L53.2086 105.432L53.6907 106.089L53.7992 105.432Z" fill="#DCA587"/>
<path d="M53.2202 102.652C53.2202 102.652 52.8744 102.053 52.6232 102.368C52.3708 102.684 52.4478 104.017 52.8352 103.759C53.2214 103.502 53.2202 102.652 53.2202 102.652Z" fill="#F2B694"/>
<path d="M43.3141 109.97C43.3141 109.97 40.1249 118.917 40.8177 120.993C41.5106 123.069 46.5286 123.165 46.5286 123.165L43.3141 109.97Z" fill="#D1A043"/>
<path d="M45.3078 117.448C45.3078 117.448 43.4816 119.655 44.1745 119.968C44.8674 120.281 45.7218 119.857 45.7218 119.857L45.3078 117.448Z" fill="#E6E6E6"/>
<path d="M58.4755 128.591L58.2067 125.357L59.4056 113.031L57.6514 124.384C57.6514 124.384 57.6968 126.42 58.4755 128.591Z" fill="#E6E6E6"/>
<path d="M46.2345 145.019C46.2345 145.019 43.2586 150.318 47.85 167.066H49.6711L51.3081 144.573L46.2345 145.019Z" fill="#0E408B"/>
<path d="M52.9123 145.019C52.9123 145.019 49.9363 150.318 54.5277 167.066H56.3489L57.9858 144.573L52.9123 145.019Z" fill="#0E408B"/>
<path d="M47.7947 166.863L47.2368 167.611L47.5157 169.248H48.538V168.282L49.2511 169.037L51.9645 168.366L52.2738 167.611L49.6852 166.863H47.7947Z" fill="#0D3B81"/>
<path d="M54.5176 166.736L53.9585 167.485L54.2374 169.121H55.2597V168.156L55.9728 168.912L58.6862 168.239L58.9954 167.485L56.4082 166.736H54.5176Z" fill="#0D3B81"/>
<path d="M52.2407 137.873C52.2407 137.873 50.8852 135.778 51.3068 134.318C51.3068 134.318 50.5987 135.669 51.7296 138.229L51.5579 142.774L52.2407 137.873Z" fill="#E6E6E6"/>
<path d="M50.7617 133.607L51.6654 127.787L52.2409 133.656L50.7617 133.607Z" fill="white"/>
<path opacity="0.29" d="M69.8982 77.6247L68.8306 79.5452L91.2225 91.994L92.2902 90.0735L69.8982 77.6247Z" fill="white"/>
<path opacity="0.29" d="M71.709 73.1455L70.6416 75.0659L93.0336 87.5122L94.101 85.5917L71.709 73.1455Z" fill="white"/>
<path d="M187.033 142.076L188.089 151.814L189.104 166.819L190.096 166.87C190.096 166.87 192.809 156.868 191.394 151.81L192.389 142.358L187.033 142.076Z" fill="#DEA788"/>
<path d="M188.541 142.209L190.108 151.878L191.913 166.808H192.906C192.906 166.808 195.334 156.793 193.654 151.815L193.903 142.208H188.541V142.209Z" fill="#F2B694"/>
<path d="M189.233 128.896L188.474 122.583L188.968 128.896H189.233Z" fill="#CCCCCC"/>
<path d="M194.841 142.21L196.086 128.677H196.291L184.896 128.461L186.183 142.21H194.841Z" fill="#1A4583"/>
<path d="M188.541 142.21L188.673 130.989L190.776 128.888L188.033 130.989L188.495 142.21H188.541Z" fill="#CCCCCC"/>
<path d="M194.316 126.161L190.797 127.135L191.914 128.46L193.511 127.771L194.316 127.311V126.161Z" fill="#425640"/>
<path d="M180.824 108.747C180.833 108.79 180.843 108.835 180.855 108.884L180.792 108.747L180.581 108.29C180.581 108.29 180.394 108.172 180.528 108.742C180.546 108.819 180.569 108.907 180.6 109.01L180.439 108.735L180.116 108.183C180.116 108.183 179.965 108.248 180.159 108.708C180.178 108.753 180.202 108.803 180.229 108.858C180.262 108.925 180.301 108.999 180.347 109.079C180.357 109.096 180.368 109.113 180.376 109.129L180.216 108.974L179.894 108.663L179.686 108.463L179.757 108.634L179.778 108.69L180.031 109.311L180.149 109.565L180.273 109.827L180.336 109.961L180.337 109.965L180.604 110.531L181.182 110.411H181.184L181.36 110.375L181.358 110.351L181.314 109.748L181.295 109.485L181.107 108.73L180.973 108.195C180.972 108.199 180.684 108.036 180.824 108.747Z" fill="#F2B694"/>
<path d="M186.089 109.495L183.611 115.249L181.741 110.008L180.407 110.399L182.586 118.909C182.742 119.515 183.469 119.761 183.959 119.374L187.005 116.972L186.089 109.495Z" fill="#D1A043"/>
<path d="M190.305 107.552C190.305 107.552 193.337 106.349 192.661 103.461C192.112 101.111 188.497 101.307 188.028 102.787L190.305 107.552Z" fill="#1A4583"/>
<path d="M184.805 128.896H196.492L195.026 123.861L197.127 113.384L194.082 109.837L192.625 109.35L188.531 113.105L188.736 108.891L186.088 109.735L184.752 112.176L186.302 122.052L184.805 128.896Z" fill="#D1A043"/>
<path d="M197.338 128.896L195.026 123.861L197.282 112.947L196.02 109.865L191.914 108.966L189.549 112.019L188.474 122.583L189.233 128.896H197.338Z" fill="#D1A043"/>
<path d="M186.535 121.836L185.359 128.896H189.111L188.474 122.583L191.913 108.967L189.214 108.891L188.966 108.333L186.278 111.946C185.501 112.652 184.338 114.445 185.95 116.627L186.535 121.836Z" fill="#FCF7F3"/>
<path d="M196.395 117.393L197.023 111.946L195.794 116.497L194.563 124.681L196.395 117.393Z" fill="#E6E6E6"/>
<path d="M188.284 106.89L190.065 103.861L190.595 103.798C190.595 103.798 191.711 103.665 191.19 104.949C190.563 106.496 190.563 106.496 190.563 106.496L191.074 109.55L188.356 111.807L188.512 108.119C188.512 108.118 188.081 107.613 188.284 106.89Z" fill="#DEA788"/>
<path d="M188.021 102.765C188.021 102.765 186.966 107.181 188.498 108.454C188.498 108.454 191.127 108.835 191.713 104.52C191.713 104.519 189.943 102.805 188.021 102.765Z" fill="#F2B694"/>
<path d="M188.187 105.087L187.344 106.261C187.292 106.333 187.353 106.441 187.447 106.445L188.387 106.486L188.187 105.087Z" fill="#F2B694"/>
<path d="M196.787 114.141L194.874 118.017L192.198 121.37C191.753 121.928 190.905 121.926 190.463 121.365L184.773 114.142L190.4 120.681C190.748 121.086 191.377 121.088 191.726 120.684C193.185 119.004 196.541 115.066 196.787 114.141Z" fill="#E6E6E6"/>
<path d="M193.699 110.79C193.699 110.79 194.289 108.373 196.733 110.141C199.521 112.159 193.931 118.459 191.822 120.669C191.422 121.088 190.747 121.066 190.376 120.62L184.366 113.378L185.456 112.521L190.459 117.666C190.46 117.666 192.759 112.481 193.699 110.79Z" fill="#425640"/>
<path d="M190.156 105.499C190.156 105.499 190.94 104.182 191.329 104.766C191.719 105.35 190.705 106.48 190.393 106.207C190.082 105.936 190.156 105.499 190.156 105.499Z" fill="#F2B694"/>
<path d="M189.488 104.049C189.488 104.049 190.293 104.856 190.148 105.65C190.148 105.65 190.843 104.456 191.883 104.702C191.883 104.702 191.302 102.859 190.264 102.806C189.225 102.753 189.488 104.049 189.488 104.049Z" fill="#1A4583"/>
<path d="M171.564 112.294C172.182 112.664 178.429 110.037 180.082 109.507C180.771 109.286 182.19 109.329 183.611 109.453C184.322 109.515 185.033 109.597 185.654 109.677C186.258 109.756 186.775 109.831 187.125 109.886C187.397 109.927 187.656 109.753 187.718 109.484C187.903 108.689 188.206 107.151 187.853 106.849C187.694 106.713 187.002 106.598 186.088 106.469C185.478 106.383 184.768 106.291 184.053 106.183C182.6 105.963 181.122 105.678 180.394 105.244C178.771 104.275 173.456 100.755 173.456 100.755C173.456 100.755 170.947 111.923 171.564 112.294Z" fill="#FECA40"/>
<path d="M174.48 106.796C174.935 103.596 174.363 100.867 173.203 100.702C172.042 100.537 170.732 102.998 170.277 106.198C169.822 109.399 170.394 112.127 171.554 112.292C172.715 112.457 174.025 109.997 174.48 106.796Z" fill="#FEA614"/>
<path d="M174.193 106.757C174.587 103.99 174.093 101.631 173.09 101.488C172.088 101.346 170.956 103.473 170.562 106.24C170.169 109.008 170.662 111.366 171.665 111.509C172.668 111.652 173.8 109.524 174.193 106.757Z" fill="#E29412"/>
<path d="M183.611 109.451C184.321 109.513 185.033 109.595 185.654 109.676L186.088 106.467C185.477 106.381 184.768 106.289 184.053 106.18L183.611 109.451Z" fill="#FEFEFE"/>
<path d="M181.797 114.316C181.84 114.312 181.883 114.305 181.927 114.292C182.98 113.973 183.8 113.385 184.366 112.543C184.809 111.884 185.089 111.078 185.199 110.146C185.379 108.614 185.035 107.259 185.021 107.202C184.936 106.876 184.604 106.68 184.279 106.765C183.953 106.85 183.757 107.18 183.842 107.506C183.844 107.519 184.147 108.725 183.986 110.035C183.786 111.662 182.974 112.702 181.574 113.127C181.252 113.224 181.07 113.565 181.169 113.886C181.252 114.165 181.518 114.339 181.797 114.316Z" fill="#FEFEFE"/>
<path d="M172.598 107.691C172.561 107.687 172.524 107.683 172.487 107.678C171.505 107.541 170.793 106.835 170.896 106.103C170.998 105.371 171.877 104.889 172.859 105.027C172.897 105.032 172.934 105.038 172.97 105.046L172.598 107.691Z" fill="#FEFEFE"/>
<path d="M175.549 103.447L180.211 106.072L175.275 104.2L175.549 103.447Z" fill="#FEEA60"/>
<path d="M190.149 106.25C190.149 106.25 190.19 104.665 191.046 104.8C191.902 104.935 190.784 106.806 190.784 106.806V107.36L191.884 105.922C191.884 105.922 192.178 104.328 192.126 104.337C192.075 104.346 191.572 103.514 191.572 103.514H190.784L190.1 104.831C190.098 104.832 189.972 105.607 190.149 106.25Z" fill="#1A4583"/>
<path d="M184.048 111.388C184.075 111.421 184.107 111.456 184.141 111.494L184.019 111.405L183.612 111.108C183.612 111.108 183.391 111.097 183.785 111.528C183.838 111.586 183.901 111.653 183.979 111.729L183.706 111.567L183.154 111.242C183.154 111.242 183.054 111.373 183.447 111.68C183.486 111.71 183.53 111.743 183.581 111.777C183.642 111.82 183.712 111.865 183.791 111.912C183.809 111.922 183.825 111.932 183.842 111.942L183.626 111.886L183.194 111.771L182.916 111.697L183.061 111.814L183.106 111.851L183.629 112.27L183.856 112.433L184.092 112.602L184.213 112.689L184.215 112.692L184.724 113.057L185.171 112.672L185.172 112.671L185.308 112.553L185.296 112.534L184.964 112.028L184.82 111.809L184.289 111.241L183.911 110.838C183.91 110.837 183.581 110.835 184.048 111.388Z" fill="#F2B694"/>
<path d="M191.417 101.957C191.417 101.957 191.979 101.324 192.342 101.506C192.706 101.688 193.117 101.835 192.131 102.463L191.417 101.957Z" fill="#1A4583"/>
<path d="M188.084 102.646C188.084 102.646 186.686 102.763 186.768 104.617L189.279 104.912C189.279 104.912 189.639 103.821 190.392 103.783C190.394 103.783 189.279 102.542 188.084 102.646Z" fill="#31588F"/>
<path d="M192.342 101.506C192.342 101.506 193.654 99.1815 195.343 100.428C197.032 101.675 196.018 104.015 195.681 105.313C195.343 106.61 195.222 108.223 196.214 108.405C196.214 108.405 192.929 108.295 193.394 106.041C193.861 103.787 194.629 101.455 192.447 102.131L192.343 101.684V101.506H192.342Z" fill="#1A4583"/>
<path d="M195.519 134.836C195.519 134.836 197.544 131.181 196.075 128.896H195.026L195.519 134.836Z" fill="#1A4583"/>
<path d="M189.111 128.896L189.233 129.735L197.338 128.896L191.092 127.053L189.076 128.54L189.111 128.896Z" fill="#D1A043"/>
<path d="M194.316 125.287L190.939 125.951L191.451 126.967H193.525L194.564 126.127L194.316 125.287Z" fill="#425640"/>
<path d="M192.308 165.478L191.416 168.427L191.952 168.114L192.828 166.864L192.308 165.478Z" fill="#F2B694"/>
<path d="M193.333 165.171L192.711 165.793L191.661 168.051L190.589 168.539C190.366 168.642 190.224 168.881 190.234 169.141L192.104 169.058L192.913 166.983L192.996 168.586L193.063 169.015L193.416 169L193.477 166.834L193.67 166.165L193.333 165.171Z" fill="#D1A043"/>
<path d="M189.265 165.13L188.373 168.079L188.911 167.766L189.787 166.515L189.265 165.13Z" fill="#DEA788"/>
<path d="M190.549 165.03L189.654 165.668L188.618 167.702L187.546 168.191C187.323 168.293 187.181 168.533 187.191 168.793L189.061 168.709L189.895 166.869L189.953 168.237L190.02 168.666L190.373 168.651L190.434 166.485L190.627 165.817L190.549 165.03Z" fill="#D1A043"/>
<path d="M268.084 103.247C268.084 103.247 266.232 105.354 265.95 108.269L265.926 108.862L267.689 108.931L270.382 107.303L268.084 103.247Z" fill="#0C3879"/>
<path d="M269.107 111.165L269.094 107.677L267.765 108.736L267.89 111.137L269.107 111.165Z" fill="#E0A990"/>
<path d="M267.632 103.36L266.996 105.079L265.571 105.93L266.23 106.21C266.23 106.21 265.411 108.181 266.739 108.325L267.141 109.666L266.9 112.274L267.863 112.816L268.13 110.836L269.152 108.659C269.152 108.66 272.927 103.016 267.632 103.36Z" fill="#FFAE9E"/>
<path d="M266.739 108.325L267.886 108.283L269.214 107.347C269.214 107.347 270.606 106.851 269.305 108.098L269.057 109.015L269.711 111.113L266.9 112.274L267.141 109.666L266.739 108.325Z" fill="#EAA091"/>
<path d="M267.473 166.143L266.084 168.501C266.782 168.289 267.49 167.772 267.473 166.143Z" fill="#E0A990"/>
<path d="M264.46 114.484C263.795 113.357 260.664 108.668 260.494 107.409L259.532 106.581L258.216 106.29C258.217 106.3 258.218 106.31 258.218 106.319C258.226 106.465 258.218 106.612 258.208 106.757C258.439 106.834 258.734 106.903 259.124 106.955L258.799 107.939L259.889 108.488C260.351 109.181 262.769 116.644 263.173 117.545C263.664 118.812 265.57 117.359 266.316 117.194L264.46 114.484Z" fill="#FFAE9E"/>
<path d="M270.694 142.942L269.817 146.643C269.817 146.643 272.605 148.801 269.388 166.227L268.404 167.562C268.052 163.712 266.751 146.969 266.053 143.515L270.694 142.942Z" fill="#F09674"/>
<path d="M263.521 142.33L267.405 166.997L268.16 167.541C268.16 167.541 271.953 152.759 267.85 147.014L268.457 144.639L263.521 142.33Z" fill="#FFA494"/>
<path d="M269.124 110.436C267.754 110.318 268.408 110.375 267.086 110.261C267.086 110.261 265.789 111.913 264.194 112.798C262.6 113.683 265.481 116.395 264.457 118.787C263.432 121.178 259.964 126.424 263.081 144.334L270.504 144.968C270.504 144.968 271.498 137.39 272.071 134.165C272.767 130.244 270.855 126.85 269.738 123.547C268.621 120.243 274.158 114.527 269.369 110.099L269.124 110.436Z" fill="#D1A043"/>
<path d="M269.475 165.697C269.004 166.136 267.896 167.952 267.541 168.515C267.151 168.683 266.012 168.715 266.019 169.314L267.865 169.471L268.82 167.597C268.817 167.891 268.78 169.291 268.812 169.552L269.16 169.582C269.259 168.808 269.542 167.135 269.805 166.411L269.475 165.697Z" fill="#2B332A"/>
<path d="M268.326 165.599C267.855 166.039 266.747 167.855 266.393 168.418C266.003 168.585 264.863 168.618 264.871 169.216L266.717 169.374L267.671 167.5C267.669 167.794 267.632 169.194 267.664 169.455L268.012 169.485C268.11 168.71 268.393 167.038 268.657 166.314L268.326 165.599Z" fill="#D1A043"/>
<path d="M269.155 114.549L266.737 124.153L262.287 125.321L262.364 124.365L265.478 123.804C266.196 121.565 267.43 117.026 268.153 114.845L269.155 114.549Z" fill="#E6E7E8"/>
<path d="M259.188 122.957L264.786 122.296C264.786 122.296 265.4 116.174 266.274 112.216C267.234 112.503 268.191 112.804 269.171 112.998C268.534 116.473 267.461 121.105 266.982 123.131C266.837 123.743 266.328 124.179 265.73 124.203C264.296 124.262 261.305 124.239 258.854 124.365L259.188 122.957Z" fill="#FFAE9E"/>
<path d="M269.405 115.408L265.344 115.061C265.344 115.061 265.276 111.632 266.756 111.757C268.238 111.882 269.875 112.167 269.405 115.408Z" fill="#F05045"/>
<path d="M268.443 144.792L269.819 134.555C269.819 134.555 270.599 132.547 269.281 129.752C269.281 129.752 271.129 131.815 271.058 133.39C270.988 134.965 269.899 144.85 269.899 144.85L268.443 144.792Z" fill="#2B332A"/>
<path d="M264.049 98.9847C263.696 101.253 258.95 106.05 258.95 106.05C258.95 106.05 255.905 99.9388 256.257 97.6709C256.61 95.4029 258.641 93.8594 260.792 94.2216C262.945 94.5851 264.402 96.718 264.049 98.9847Z" fill="#39B54A"/>
<path d="M263.409 98.8153C263.115 100.705 261.423 101.992 259.63 101.689C257.837 101.387 256.623 99.6104 256.917 97.7211C257.211 95.8318 258.903 94.5445 260.696 94.8474C262.489 95.149 263.704 96.926 263.409 98.8153Z" fill="white"/>
<path d="M258.809 111.042L257.548 110.829L258.767 103.009L260.027 103.223L258.809 111.042Z" fill="#39B54A"/>
<path d="M268.862 102.092C268.862 102.092 272.646 101.069 272.257 106.819L272.164 109.301L268.248 109.146C268.248 109.146 269.278 105.206 268.918 104.296C268.558 103.386 268.085 103.247 268.085 103.247L268.862 102.092Z" fill="#0C3879"/>
<path d="M267.184 103.88L269.156 104.354C269.156 104.354 269.597 102.166 268.736 102.088C266.809 101.913 267.184 103.88 267.184 103.88Z" fill="#1E4F98"/>
<path d="M259.372 107.428L258.647 107.263C258.647 107.263 258.237 107.752 259.348 108.043C259.346 108.043 259.747 107.513 259.372 107.428Z" fill="#FFAE9E"/>
<path d="M258.378 106.743L258.111 107.216L257.982 106.534L258.328 105.829L258.378 106.743Z" fill="#FFAE9E"/>
<path d="M263.847 144.399L268.22 145.561L270.117 145.375L270.197 144.956L268.456 144.637L263.847 144.399Z" fill="#E6E7E8"/>
<path d="M254.666 115.303C255.888 117.246 255.456 123.98 255.456 123.98C255.456 123.98 249.147 121.368 247.926 119.425C246.704 117.483 247.223 114.985 249.084 113.847C250.946 112.708 253.446 113.36 254.666 115.303Z" fill="#182218"/>
<path d="M253.429 120.003C254.845 118.866 255.023 116.735 253.825 115.243C252.628 113.751 250.509 113.463 249.092 114.6C247.675 115.737 247.498 117.868 248.695 119.36C249.893 120.852 252.012 121.14 253.429 120.003Z" fill="white"/>
<path d="M258.624 127.84L257.535 128.508L253.322 121.807L254.411 121.141L258.624 127.84Z" fill="#182218"/>
<path d="M257.162 123.199L259.504 122.923L259.448 124.324C257.692 124.44 256.413 124.576 256.447 124.726C255.367 126.434 255.07 124.718 255.07 124.718C255.971 123.173 255.578 124.018 257.162 123.199Z" fill="#FFAE9E"/>
<path d="M256.868 123.413L254.587 124.231C254.482 124.956 256.619 123.6 256.868 123.413Z" fill="#FFAE9E"/>
<path d="M262.08 96.9106L258.842 100.02L258.252 98.0781L259.321 97.5972L259.443 98.4655L262.08 96.9106Z" fill="#39B54A"/>
<path d="M251.956 115.711L251.397 119.379L250.829 119.224L251.293 115.518L251.956 115.711Z" fill="#182218"/>
<path d="M253.13 118.012L249.462 117.453L249.617 116.885L253.323 117.35L253.13 118.012Z" fill="#182218"/>
</g>
<defs>
<clipPath id="clip0_1849_4485">
<rect width="290.358" height="170" fill="white" transform="translate(0.821289)"/>
</clipPath>
</defs>
</svg>
