<svg width="160" height="160" viewBox="0 0 160 160" fill="none" xmlns="http://www.w3.org/2000/svg">
<g id="Working Productively 1 1">
<g id="wall-notes">
<g id="Group">
<path id="Vector" d="M140.675 56.2816C146.08 56.576 151.52 56.2432 156.851 55.296C156.899 48.8896 156.947 42.48 156.992 36.0736C156.992 35.7312 143.366 35.712 142.122 35.7984C140.902 35.8816 140.979 35.8304 141.075 36.8864C141.174 37.9712 141.28 38.8608 141.194 40C141.002 42.5472 140.864 45.1008 140.774 47.6544C140.675 50.528 140.64 53.4048 140.672 56.2784L140.675 56.2816Z" fill="#BCBEC0"/>
<path id="Vector_2" d="M147.526 38.1024C148.918 38.1088 150.314 38.1152 151.706 38.1248C151.491 36.672 151.418 35.2 151.485 33.7344C150.64 33.6192 148.486 33.3088 147.853 34.0672C147.578 34.3968 147.629 38.1024 147.526 38.1024Z" fill="#FFDE91"/>
<path id="Vector_3" d="M143.75 41.3728C143.677 41.3728 143.616 41.3152 143.613 41.2416C143.613 41.1648 143.67 41.104 143.744 41.1008L155.293 40.7136C155.366 40.7104 155.43 40.7712 155.434 40.8448C155.434 40.9216 155.376 40.9824 155.302 40.9856L143.754 41.3728C143.754 41.3728 143.754 41.3728 143.75 41.3728Z" fill="white"/>
<path id="Vector_4" d="M144.189 43.7472C144.115 43.7472 144.054 43.6864 144.051 43.6128C144.051 43.536 144.109 43.4752 144.186 43.472C147.466 43.4048 150.774 43.1008 154.013 42.5664C154.086 42.5536 154.157 42.6048 154.17 42.6784C154.182 42.752 154.131 42.8224 154.058 42.8352C150.806 43.3728 147.488 43.6768 144.192 43.744L144.189 43.7472Z" fill="white"/>
<path id="Vector_5" d="M145.235 46.6111C145.165 46.6111 145.104 46.5567 145.098 46.4831C145.091 46.4063 145.149 46.3423 145.226 46.3359L154.518 45.6927C154.592 45.6863 154.659 45.7439 154.666 45.8207C154.672 45.8975 154.614 45.9615 154.538 45.9679L145.245 46.6111C145.245 46.6111 145.238 46.6111 145.235 46.6111Z" fill="white"/>
<path id="Vector_6" d="M147.334 49.0111C146.65 49.0111 145.965 48.9855 145.28 48.9343C145.203 48.9279 145.149 48.8639 145.155 48.7871C145.162 48.7135 145.226 48.6559 145.302 48.6623C148.077 48.8735 150.858 48.6527 153.565 48.0063C153.638 47.9903 153.712 48.0351 153.728 48.1087C153.744 48.1823 153.699 48.2559 153.626 48.2719C151.558 48.7647 149.45 49.0111 147.334 49.0111Z" fill="white"/>
<path id="Vector_7" d="M145.29 50.9696C145.216 50.9696 145.152 50.9088 145.152 50.8352C145.152 50.7584 145.213 50.6976 145.286 50.6976L154.47 50.624C154.544 50.624 154.608 50.6848 154.608 50.7584C154.608 50.8352 154.547 50.896 154.474 50.896L145.29 50.9696Z" fill="white"/>
</g>
<g id="Group_2">
<path id="Vector_8" d="M130.55 42.9824C130.582 49.0368 130.614 55.088 130.646 61.1424C134.998 61.5648 139.37 61.8048 143.741 61.8592C143.494 56.2688 143.514 50.6656 143.802 45.0784C143.875 43.6512 144.355 42.912 142.938 42.6688C141.613 42.4416 139.978 42.7456 138.627 42.7776C137.885 42.7968 130.55 42.96 130.55 42.9824Z" fill="#E6E7E8"/>
<path id="Vector_9" d="M134.314 45.2672C135.488 44.9056 136.742 44.7968 137.962 44.9536C137.856 43.5552 138.006 42.1376 138.397 40.7904C138.282 41.1328 135.264 40.608 134.784 41.104C134.157 41.7568 134.387 44.384 134.314 45.2672Z" fill="#FFDE91"/>
<path id="Vector_10" d="M140.726 48.2752C140.726 48.2752 140.723 48.2752 140.72 48.2752L131.923 47.8336C131.846 47.8304 131.789 47.7664 131.792 47.6896C131.795 47.6128 131.862 47.5584 131.936 47.5584L140.733 48C140.81 48.0032 140.867 48.0672 140.864 48.144C140.861 48.2176 140.8 48.2752 140.726 48.2752Z" fill="#BCBEC0"/>
<path id="Vector_11" d="M137.44 49.8144C135.834 49.8144 134.23 49.7696 132.637 49.6768C132.56 49.6736 132.502 49.6064 132.509 49.5328C132.512 49.456 132.576 49.3984 132.653 49.4048C135.386 49.5616 138.157 49.584 140.89 49.472C140.96 49.472 141.027 49.5264 141.03 49.6032C141.03 49.68 140.976 49.7408 140.899 49.744C139.75 49.792 138.595 49.8144 137.44 49.8144Z" fill="#BCBEC0"/>
<path id="Vector_12" d="M141.494 51.8752L132.97 51.776C132.893 51.776 132.835 51.712 132.835 51.6384C132.835 51.5648 132.896 51.504 132.973 51.504L141.498 51.6032C141.574 51.6032 141.632 51.6672 141.632 51.7408C141.632 51.8144 141.571 51.8752 141.494 51.8752Z" fill="#BCBEC0"/>
<path id="Vector_13" d="M141.11 54.4768C141.11 54.4768 141.104 54.4768 141.101 54.4768C138.515 54.3168 135.894 54.2912 133.306 54.4C133.238 54.4032 133.168 54.3456 133.165 54.2688C133.165 54.192 133.219 54.1312 133.296 54.128C135.891 54.0192 138.525 54.0448 141.12 54.2048C141.197 54.208 141.251 54.2752 141.248 54.3488C141.245 54.4224 141.184 54.4768 141.11 54.4768Z" fill="#BCBEC0"/>
<path id="Vector_14" d="M141.827 56.7456C141.827 56.7456 141.821 56.7456 141.814 56.7456C138.976 56.4992 136.096 56.464 133.254 56.6464C133.181 56.6496 133.114 56.5952 133.11 56.5184C133.104 56.4416 133.162 56.3776 133.238 56.3744C136.093 56.192 138.986 56.224 141.837 56.4736C141.91 56.48 141.968 56.5472 141.962 56.6208C141.955 56.6912 141.894 56.7456 141.827 56.7456Z" fill="#BCBEC0"/>
</g>
</g>
<g id="lamp">
<path id="Vector_15" d="M32.7872 76.5056C33.184 77.744 33.0752 79.1008 33.44 80.3488C33.7184 81.3024 34.272 82.208 34.2304 83.2C34.1984 83.9616 33.808 84.672 33.2928 85.2352C32.7776 85.7984 32.1408 86.2336 31.5104 86.6624C30.5408 87.3216 29.504 88.0064 28.336 88.064C27.1616 88.1216 26.064 87.5328 25.0816 86.8928C23.7152 86 22.4384 84.9696 21.28 83.824C20.4448 82.9984 19.6448 82.0704 19.3248 80.9376C18.9952 79.7664 19.2192 78.496 19.6864 77.3696C20.608 75.152 22.4352 73.5424 24.576 72.5344C26.4128 71.6704 28.7456 72.4448 30.3584 73.4848C31.4624 74.1952 32.3776 75.2448 32.784 76.5088L32.7872 76.5056Z" fill="#FFDE91"/>
<path id="Vector_16" d="M37.9744 89.2672C38.2528 89.9808 38.5216 90.7456 38.3808 91.504C38.2112 92.4192 37.4848 93.1232 36.7616 93.712C36.0384 94.2976 35.2672 94.8448 34.3968 95.1712C33.5264 95.4976 32.5376 95.584 31.6736 95.2512C30.8736 94.944 30.2464 94.3136 29.68 93.6736C28.928 92.8224 28.2336 91.92 27.6032 90.976C27.3248 90.56 27.0496 90.1056 27.0464 89.6032C27.0432 88.9024 27.5616 88.3136 28.0672 87.8272C29.8016 86.1536 31.7728 84.7296 33.904 83.6128C35.344 82.8576 35.6736 84.0576 36.1888 85.1424C36.832 86.496 37.4272 87.8752 37.9712 89.2736L37.9744 89.2672Z" fill="#292E54"/>
<path id="Vector_17" d="M28.6816 89.5904C28.2048 89.5904 27.744 89.4336 27.3312 89.2928C25.7088 88.7424 24.0288 88.1696 22.5728 87.1904C19.7856 85.3152 18.0672 81.9264 18.1952 78.5568C18.2528 77.0304 18.6656 75.5904 19.3888 74.3936C20.5696 72.432 22.656 71.0432 24.9632 70.6784C27.1968 70.3264 29.6192 70.9568 31.4432 72.368C33.232 73.7504 34.4704 75.8592 34.8416 78.1536V78.16C34.96 79.3184 34.9952 80.4384 35.0112 81.7664C35.0144 82.1408 35.056 82.5344 35.0944 82.9152C35.1488 83.4496 35.2064 84.0032 35.168 84.5376C35.104 85.4688 34.4384 85.9552 33.7984 86.4224C33.0944 86.9344 32.3904 87.4464 31.6864 87.9552L30.5888 88.752C30.1312 89.0848 29.5616 89.4976 28.9088 89.5712C28.832 89.5808 28.752 89.584 28.6752 89.584L28.6816 89.5904ZM26.2048 70.8384C25.8016 70.8384 25.3984 70.8704 25.0048 70.9312C22.768 71.2864 20.752 72.6304 19.6096 74.528C18.9088 75.6896 18.5088 77.088 18.4512 78.5696C18.3264 81.8528 20 85.152 22.7168 86.9792C24.144 87.9392 25.808 88.5056 27.4144 89.0528C27.8688 89.2064 28.3872 89.3824 28.8864 89.3248C29.472 89.2576 29.9904 88.8832 30.4448 88.5504L31.5424 87.7536C32.2464 87.2448 32.9504 86.7328 33.6544 86.2208C34.304 85.7472 34.864 85.3376 34.9216 84.5248C34.9568 84.0128 34.9024 83.472 34.848 82.9472C34.8096 82.56 34.768 82.16 34.7616 81.7728C34.7456 80.4512 34.7104 79.3376 34.592 78.192C34.2304 75.9616 33.0272 73.9104 31.2896 72.5696C29.8432 71.4528 28.0064 70.8384 26.2048 70.8384Z" fill="#292E54"/>
<path id="Vector_18" d="M30.1472 88.3392C30.1472 88.3392 30.1344 88.3392 30.1312 88.3392C30.0608 88.3296 30.0128 88.2656 30.0224 88.1952C30.24 86.5664 29.3824 85.04 28.448 83.7056C28.1632 83.7792 27.872 83.824 27.5744 83.84C27.3024 83.8528 26.9024 83.8496 26.5664 83.6512C26.2624 83.472 26.016 83.0848 26.128 82.6944C26.1824 82.4992 26.3232 82.3392 26.5248 82.24C26.7776 82.1152 27.0976 82.1024 27.36 82.2048C27.808 82.3808 28.112 82.8 28.336 83.1072C28.4064 83.2064 28.48 83.3056 28.5504 83.4048C29.0272 83.2576 29.4848 83.0272 29.888 82.7296C29.792 82.1952 29.7888 81.6448 29.8912 81.1104C29.936 80.8736 30.016 80.5696 30.2112 80.3392C30.4288 80.0832 30.7712 79.9712 31.0464 80.0704C31.3248 80.1696 31.5168 80.48 31.5136 80.8224C31.5136 81.1328 31.3664 81.4144 31.2416 81.6224C30.96 82.0928 30.592 82.5056 30.1664 82.8416C30.4672 84.24 31.4272 85.5072 32.7424 86.0736C32.8064 86.1024 32.8384 86.176 32.8096 86.24C32.7808 86.304 32.7072 86.336 32.6432 86.3072C31.2864 85.728 30.288 84.4416 29.9424 83.008C29.5616 83.2736 29.1424 83.4816 28.7008 83.6256C29.6896 85.0656 30.4864 86.6048 30.2688 88.224C30.2592 88.288 30.2048 88.336 30.1408 88.336L30.1472 88.3392ZM26.9856 82.3904C26.864 82.3904 26.7424 82.416 26.6368 82.4672C26.5408 82.5152 26.4192 82.6048 26.3744 82.7616C26.2976 83.024 26.4864 83.3024 26.6976 83.4272C26.9056 83.552 27.1808 83.6 27.5616 83.5808C27.8048 83.568 28.048 83.5328 28.288 83.4752C28.2368 83.4016 28.1824 83.328 28.1312 83.2544C27.8656 82.8896 27.6192 82.576 27.2672 82.4384C27.1808 82.4032 27.0816 82.3872 26.9856 82.3872V82.3904ZM30.8352 80.2912C30.6688 80.2912 30.5088 80.3904 30.4096 80.5056C30.2496 80.6912 30.1856 80.9536 30.144 81.1584C30.0544 81.6192 30.0512 82.0896 30.1184 82.5504C30.4768 82.2496 30.7872 81.8912 31.0272 81.4912C31.136 81.3088 31.2608 81.0688 31.264 80.8192C31.264 80.6208 31.1648 80.3808 30.9664 80.3104C30.9248 80.2944 30.88 80.288 30.8384 80.288L30.8352 80.2912Z" fill="#292E54"/>
<path id="Vector_19" d="M28.24 89.7152C28.2208 89.7152 28.2048 89.7024 28.1984 89.6832C28.192 89.6608 28.2048 89.6384 28.2304 89.632C30.9216 88.9344 33.2384 87.0144 34.4288 84.496C34.5088 84.3264 34.5792 84.1344 34.5056 83.9776C34.464 83.8912 34.352 83.8528 34.2656 83.8656C34.2272 83.872 34.1632 83.8912 34.1504 83.9616C34.1472 83.984 34.1248 84 34.1024 83.9968C34.08 83.9936 34.064 83.9712 34.0672 83.9488C34.0832 83.8592 34.1504 83.7952 34.2528 83.7824C34.368 83.7664 34.5216 83.8176 34.5824 83.9424C34.672 84.128 34.592 84.3456 34.5056 84.5312C33.3056 87.072 30.9696 89.008 28.2528 89.7152C28.2496 89.7152 28.2464 89.7152 28.2432 89.7152H28.24Z" fill="white"/>
<path id="Vector_20" d="M32.384 89.7344C32.384 89.7344 32.3552 89.728 32.3456 89.712C32.3328 89.6928 32.3424 89.664 32.3616 89.6544C33.9424 88.7424 35.2192 87.3248 35.9616 85.6608C35.9712 85.6384 35.9968 85.6288 36.0192 85.6384C36.0416 85.648 36.0512 85.6736 36.0416 85.696C35.2928 87.3792 34 88.8096 32.4032 89.7312C32.3968 89.7344 32.3904 89.7376 32.3808 89.7376L32.384 89.7344Z" fill="white"/>
<path id="Vector_21" d="M35.2704 89.568C35.2704 89.568 35.2512 89.5648 35.2416 89.5584C35.2256 89.5424 35.2224 89.5168 35.2416 89.4976L36.3488 88.2816C36.3648 88.2656 36.3904 88.2624 36.4096 88.2816C36.4256 88.2976 36.4288 88.3232 36.4096 88.3424L35.3024 89.5584C35.3024 89.5584 35.2832 89.5712 35.2704 89.5712V89.568Z" fill="white"/>
<path id="Vector_22" d="M33.312 93.2992C33.2928 93.2992 33.2768 93.2864 33.2704 93.2672C33.264 93.2448 33.2768 93.2224 33.2992 93.216C35.088 92.736 36.576 91.3472 37.184 89.5968C37.1904 89.5744 37.216 89.5616 37.2384 89.5712C37.2608 89.5776 37.2736 89.6032 37.264 89.6256C36.6496 91.4048 35.1392 92.8128 33.3216 93.2992C33.3184 93.2992 33.3152 93.2992 33.312 93.2992Z" fill="white"/>
<path id="Vector_23" d="M16.6656 68.576C16.9344 69.2032 17.3536 69.9392 18.0384 69.9232C17.7184 67.9232 17.1168 65.968 16.256 64.1376C15.696 62.9504 14.2208 61.5104 14.5856 63.6928C14.848 65.2736 16.0352 67.0944 16.6656 68.5728V68.576Z" fill="#292E54"/>
<path id="Vector_24" d="M26.1024 67.7696C26.9472 67.4464 27.1328 66.3552 27.184 65.4528C27.2448 64.4096 27.3088 63.3664 27.3696 62.3264C27.4848 60.4192 26.2816 60.9344 25.9136 62.3744C25.4784 64.0768 25.6672 66.0928 26.1024 67.7728V67.7696Z" fill="#292E54"/>
<path id="Vector_25" d="M33.84 70.1312C34.1408 69.7888 36.912 69.6128 37.5808 69.2832C38.0576 69.0496 40.2656 67.872 39.9616 67.2384C39.152 65.5552 34.3584 69.5392 33.84 70.1312Z" fill="#292E54"/>
<path id="Vector_26" d="M37.7536 77.3824C38.416 77.7184 41.936 79.4752 42 77.8208C42.0736 75.8592 38.272 77.648 37.7536 77.3824Z" fill="#292E54"/>
<path id="Vector_27" d="M13.9328 75.0912C14.1504 75.216 14.3936 75.4656 14.256 75.6768C14.1792 75.7952 14.0192 75.8176 13.8784 75.8272C12.1984 75.9648 10.464 76.0992 8.8608 75.5808C8.3808 75.424 7.8976 75.1968 7.5904 74.7968C7.28 74.3904 7.136 73.5744 7.6864 73.3056C8.1888 73.0624 9.184 73.3856 9.6992 73.488C11.1872 73.7888 12.624 74.3296 13.936 75.0912H13.9328Z" fill="#292E54"/>
<path id="Vector_28" d="M9.9168 83.1392C9.7984 83.1904 9.6736 83.2448 9.5872 83.3408C9.5008 83.4368 9.4528 83.584 9.5104 83.6992C9.6064 83.8976 9.8944 83.8752 10.1088 83.8208C10.832 83.6288 11.5456 83.3856 12.2336 83.0944C12.5152 82.976 14.192 82.3648 14.192 82.0512C14.192 81.6704 10.32 82.9664 9.92 83.1392H9.9168Z" fill="#292E54"/>
<path id="Vector_29" d="M14.2784 87.968C14.0256 88.3584 13.7824 88.8 13.8464 89.2576C14.2432 89.2704 14.544 88.9216 14.784 88.608C15.0432 88.2656 16.8512 86.0608 16.496 85.6736C16.0576 85.1936 14.4928 87.6384 14.2784 87.968Z" fill="#292E54"/>
<path id="Vector_30" d="M18.9824 93.632C19.0336 93.8592 19.1456 94.128 19.376 94.1504C19.6576 94.1792 19.808 93.8336 19.8624 93.5552C19.9904 92.8992 20.5984 88.2592 19.8848 88.2592C18.7104 88.2592 18.8256 92.9152 18.9824 93.6288V93.632Z" fill="#292E54"/>
</g>
<g id="ground">
<path id="Vector_31" d="M7.0176 136.221C5.4848 136.691 3.7152 137.469 3.456 139.053C3.088 141.306 5.968 142.538 8.2208 142.915C54.5184 150.634 101.987 144.122 147.997 134.845C150.208 134.4 152.483 133.92 154.339 132.64C156.195 131.36 157.536 129.056 157.002 126.867C156.061 123.002 150.842 122.49 146.877 122.822C128.016 124.397 109.155 125.971 90.2944 127.542C72.2496 129.046 53.8816 131.642 35.8016 131.683C26.0544 131.706 16.3488 133.366 7.0208 136.227L7.0176 136.221Z" fill="#AF93A2"/>
<path id="Vector_32" d="M123.722 142.422C121.971 143.318 122.454 145.949 124.41 146.16C128.989 146.653 133.651 146.374 138.195 145.642C140.374 145.29 153.843 143.216 149.094 138.598C147.142 136.701 138.086 138.87 135.677 139.149C132.55 139.514 129.456 140.17 126.458 141.126C125.946 141.29 124.909 141.818 123.722 142.426V142.422Z" fill="#AF93A2"/>
</g>
<g id="clock">
<path id="Vector_33" d="M57.2768 28.5376C52.5248 37.0912 52.0768 47.6224 54.7776 57.024C56.7136 63.7696 60.3168 70.2048 65.8528 74.5216C73.4848 80.4736 84.368 81.6896 93.36 78.1152C102.352 74.5376 109.296 66.4832 112.096 57.216C114.896 47.952 113.677 37.6608 109.347 29.0048C106.899 24.112 103.405 19.6224 98.752 16.7424C85.3184 8.43841 64.6496 15.2736 57.28 28.5376H57.2768Z" fill="#BCBEC0"/>
<path id="Vector_34" d="M91.3728 76.6816C91.2864 76.6816 91.2 76.6368 91.152 76.56C91.0752 76.4384 91.1104 76.2752 91.232 76.1984C100.048 70.6336 106.23 60.736 107.366 50.3744C108.502 40.0096 104.614 29.0112 97.216 21.664C94.7264 19.1936 89.648 15.0912 83.616 15.3504C83.4688 15.3536 83.3504 15.2448 83.344 15.1008C83.3376 14.9568 83.4496 14.8352 83.5936 14.8288C88.2176 14.6272 93.184 16.9248 97.5872 21.2928C105.094 28.7488 109.043 39.9136 107.888 50.432C106.733 60.9504 100.458 70.992 91.5136 76.6432C91.4688 76.672 91.4208 76.6848 91.3728 76.6848V76.6816Z" fill="white"/>
<path id="Vector_35" d="M82.96 48.1984C82.896 48.1984 82.832 48.176 82.7808 48.128C79.6672 45.2512 74.96 40.9024 71.5456 35.0912C71.472 34.9664 71.5136 34.8064 71.6384 34.7328C71.7632 34.6592 71.9232 34.7008 71.9968 34.8256C75.2128 40.3008 79.6032 44.4768 82.6848 47.328L82.2112 19.6032C82.2112 19.4592 82.3232 19.3408 82.4672 19.3376C82.608 19.3216 82.7296 19.4496 82.7328 19.5936L83.216 47.9328C83.216 48.0384 83.1584 48.1344 83.0624 48.176C83.0272 48.192 82.992 48.1984 82.9568 48.1984H82.96Z" fill="white"/>
<path id="Vector_36" d="M93.8272 23.4688C93.744 23.4688 93.6608 23.4272 93.6096 23.3536C93.5296 23.2352 93.5584 23.072 93.68 22.9888L94.8256 22.2112C94.9472 22.1312 95.1072 22.16 95.1904 22.2816C95.2704 22.4 95.2416 22.5632 95.12 22.6464L93.9744 23.424C93.9296 23.456 93.8784 23.4688 93.8272 23.4688Z" fill="white"/>
<path id="Vector_37" d="M103.437 35.5008L100.63 35.4784C100.486 35.4784 100.371 35.36 100.371 35.2128C100.371 35.0688 100.493 34.9504 100.637 34.9536L103.443 34.976C103.587 34.976 103.702 35.0944 103.702 35.2416C103.702 35.3856 103.584 35.5008 103.44 35.5008H103.437Z" fill="white"/>
<path id="Vector_38" d="M104.704 47.8336C104.637 47.8336 104.57 47.808 104.518 47.7568C103.898 47.1328 103.005 46.7968 102.128 46.8544C101.987 46.864 101.859 46.7552 101.85 46.6112C101.84 46.4672 101.949 46.3424 102.093 46.3328C103.117 46.2656 104.163 46.6592 104.89 47.3888C104.992 47.4912 104.992 47.6576 104.89 47.76C104.838 47.8112 104.771 47.8368 104.704 47.8368V47.8336Z" fill="white"/>
<path id="Vector_39" d="M100.611 62.5888C100.538 62.5888 100.467 62.56 100.416 62.4992L98.6528 60.4992C98.5568 60.3904 98.5664 60.224 98.6752 60.1312C98.784 60.0352 98.9504 60.0448 99.0432 60.1536L100.806 62.1536C100.902 62.2624 100.893 62.4288 100.784 62.5216C100.733 62.5664 100.672 62.5856 100.611 62.5856V62.5888Z" fill="white"/>
<path id="Vector_40" d="M92.768 71.184C92.6784 71.184 92.5888 71.136 92.5408 71.0528L91.024 68.4032C90.9536 68.2784 90.9952 68.1184 91.12 68.0448C91.2448 67.9744 91.4048 68.016 91.4784 68.1408L92.9952 70.7904C93.0656 70.9152 93.024 71.0752 92.8992 71.1488C92.8576 71.1712 92.8128 71.184 92.768 71.184Z" fill="white"/>
<path id="Vector_41" d="M82.2496 77.2608C82.2496 77.2608 82.2368 77.2608 82.2336 77.2608C82.0896 77.2512 81.9808 77.1264 81.9904 76.9824L82.2336 73.2192C82.2432 73.0752 82.368 72.9632 82.512 72.976C82.656 72.9856 82.7648 73.1104 82.7552 73.2544L82.512 77.0176C82.5024 77.1552 82.3872 77.264 82.2496 77.264V77.2608Z" fill="white"/>
<path id="Vector_42" d="M69.2128 75.472C69.1488 75.472 69.088 75.4496 69.0368 75.4048C68.9312 75.3088 68.9216 75.1424 69.0176 75.0336L71.8176 71.9424C71.9136 71.8336 72.08 71.8272 72.1888 71.9232C72.2976 72.0192 72.304 72.1856 72.208 72.2944L69.408 75.3856C69.3568 75.4432 69.2864 75.472 69.2128 75.472Z" fill="white"/>
<path id="Vector_43" d="M59.4048 63.6384C59.3184 63.6384 59.2352 63.5968 59.184 63.5168C59.1072 63.3952 59.1424 63.232 59.264 63.1552L61.6 61.664C61.7216 61.584 61.8848 61.6224 61.9616 61.744C62.0384 61.8656 62.0032 62.0288 61.8816 62.1056L59.5456 63.5968C59.5008 63.6256 59.4528 63.6384 59.4048 63.6384Z" fill="white"/>
<path id="Vector_44" d="M59.9872 49.696C59.9552 49.696 59.9232 49.6896 59.8912 49.6768L56.6624 48.4192C56.528 48.368 56.4608 48.2144 56.512 48.08C56.5632 47.9456 56.7168 47.8784 56.8512 47.9296L60.08 49.1872C60.2144 49.2384 60.2816 49.392 60.2304 49.5264C60.1888 49.6288 60.0896 49.6928 59.9872 49.6928V49.696Z" fill="white"/>
<path id="Vector_45" d="M60.688 37.4048C59.9008 37.4048 59.1136 37.1072 58.5312 36.5728C58.4256 36.4736 58.4192 36.3104 58.5152 36.2016C58.6144 36.096 58.7776 36.0896 58.8864 36.1856C59.4976 36.7488 60.384 36.9952 61.1968 36.8256C61.3376 36.7968 61.4784 36.8864 61.5072 37.0304C61.536 37.1712 61.4464 37.312 61.3024 37.3408C61.1008 37.3824 60.8928 37.4016 60.688 37.4016V37.4048Z" fill="white"/>
<path id="Vector_46" d="M68.5696 29.7312C68.4768 29.7312 68.384 29.68 68.336 29.5904L66.7872 26.6336C66.72 26.5056 66.768 26.3488 66.896 26.2816C67.024 26.2144 67.1808 26.2624 67.248 26.3904L68.7968 29.3472C68.864 29.4752 68.816 29.632 68.688 29.6992C68.6496 29.7184 68.608 29.728 68.5664 29.728L68.5696 29.7312Z" fill="white"/>
<path id="Vector_47" d="M75.5808 22.1568C75.4496 22.1568 75.3344 22.0576 75.3216 21.9232L75.0368 19.1488C75.0208 19.0048 75.1264 18.8768 75.2704 18.8608C75.4144 18.8448 75.5424 18.9504 75.5584 19.0944L75.8432 21.8688C75.8592 22.0128 75.7536 22.1408 75.6096 22.1568C75.6 22.1568 75.5904 22.1568 75.584 22.1568H75.5808Z" fill="white"/>
<path id="Vector_48" d="M72.9088 41.1648C72.816 41.1648 72.7296 41.1168 72.6816 41.0336C71.5296 39.0016 70.6624 36.8224 70.112 34.5504C70.0896 34.464 70.112 34.3744 70.176 34.3104C70.2368 34.2464 70.3264 34.2176 70.4128 34.2336C72.896 34.688 75.424 34.7392 77.9232 34.384C78.0672 34.3648 78.1984 34.464 78.2176 34.608C78.2368 34.752 78.1376 34.8832 77.9936 34.9024C75.5712 35.2448 73.1232 35.216 70.7136 34.8192C71.2576 36.9024 72.0704 38.9056 73.1328 40.7776C73.2032 40.9024 73.1616 41.0624 73.0336 41.136C72.992 41.1584 72.9472 41.1712 72.9056 41.1712L72.9088 41.1648Z" fill="white"/>
<path id="Vector_49" d="M78.5056 26.8096C78.464 26.8096 78.4224 26.8 78.384 26.7776C78.256 26.7104 78.208 26.5504 78.2752 26.4224L81.9104 19.6C81.9616 19.504 82.0672 19.4496 82.176 19.4624C82.2848 19.4752 82.3712 19.5552 82.3968 19.6608C82.9056 21.808 83.9808 23.7856 85.5072 25.3792C85.6064 25.4848 85.6032 25.648 85.5008 25.7504C85.3984 25.8496 85.232 25.8464 85.1296 25.744C83.6928 24.2464 82.6432 22.4224 82.0608 20.4352L78.7392 26.6688C78.6912 26.7584 78.6016 26.8064 78.5088 26.8064L78.5056 26.8096Z" fill="white"/>
</g>
<g id="paper_stack">
<path id="Vector_50" d="M117.997 88.64L130.957 87.6928C131.712 87.6384 132.496 87.5872 133.2 87.8688C134.342 88.3264 134.97 89.52 135.798 90.4288C137.885 92.7232 141.258 93.2064 144.346 93.504C147.434 93.8016 150.79 94.1728 153.005 96.3424C150.928 96.4768 149.539 98.6688 147.517 99.1552C145.51 99.6352 143.568 98.3392 141.603 97.712C138.739 96.8032 135.651 97.328 132.662 97.6448C129.728 97.9552 125.75 98.08 123.155 96.3328C122.195 95.6864 121.501 94.704 120.829 93.7824C120.506 93.3408 117.933 88.6432 117.997 88.64Z" fill="#E6E7E8"/>
<path id="Vector_51" d="M147.44 119.299C148.051 119.027 148.691 118.829 149.344 118.688C149.382 117.392 149.418 116.093 149.456 114.797C149.514 112.822 149.549 110.845 149.626 108.87C149.693 107.235 150.058 106.685 150.4 105.29C150.726 103.955 150.822 104.259 150.09 103.184C149.219 101.91 147.658 100.989 146.582 100.086C146.035 99.6256 139.846 94.9312 139.846 94.9376C137.523 103.933 135.296 113.302 135.734 122.864C135.824 124.838 136.077 126.944 137.037 128.378C138.502 130.566 141.011 130.346 143.021 129.376C145.034 128.41 146.979 126.848 149.104 126.864C149.174 124.432 149.245 122 149.315 119.568C148.682 119.562 148.045 119.475 147.437 119.296L147.44 119.299Z" fill="#BCBEC0"/>
<path id="Vector_52" d="M140.109 94.8256C140.109 95.5136 128.899 97.6032 127.811 97.824C125.709 98.2496 123.597 98.6336 121.478 98.976C118.806 99.408 118.198 98.9728 118.294 101.808C118.4 104.87 118.448 107.933 118.445 110.998C119.098 111.142 119.75 111.286 120.406 111.43C119.754 111.594 119.101 111.754 118.448 111.917C118.429 117.392 118.24 122.867 117.885 128.333C125.299 129.142 132.71 129.949 140.125 130.758C140.118 118.781 140.115 106.803 140.109 94.8256Z" fill="#E6E7E8"/>
<path id="Vector_53" d="M134.118 104.048C137.478 103.12 141.229 103.702 144.15 105.606C142.659 104.736 141.638 102.63 139.898 102.275C138.179 101.923 135.539 103.206 134.122 104.048H134.118Z" fill="#BCBEC0"/>
<path id="Vector_54" d="M140.579 125.622C138.672 125.472 136.762 125.322 134.854 125.171C136.08 125.574 137.306 125.981 138.56 126.282C139.059 126.403 139.571 126.506 140.083 126.474C141.667 126.368 142.845 125.021 143.834 123.779C142.896 124.47 141.856 125.027 140.758 125.421" fill="#BCBEC0"/>
</g>
<g id="character_with-laptop">
<path id="Vector_55" d="M87.8784 102.115C91.008 102.938 94.368 103.338 97.0304 105.181C99.6928 107.021 101.264 111.014 99.2448 113.542C97.2096 116.093 93.1872 115.501 90.176 114.246C81.4048 110.589 74.5408 103.555 68.1504 96.5216C66.8992 95.1456 63.408 91.6672 65.4656 89.792C67.2608 88.1568 69.8784 90.2144 71.0848 91.4016C76.0608 96.3008 80.9472 100.294 87.8816 102.115H87.8784Z" fill="#D6B2A4"/>
<path id="Vector_56" d="M69.2512 83.5903C69.2832 85.0015 69.392 86.4383 69.9264 87.7439C70.464 89.0495 71.4944 90.2175 72.8512 90.6015C75.3056 91.2959 77.664 89.3279 79.3216 87.3919C85.168 80.5567 88.9696 72.2495 92.688 64.0607C93.2832 62.7519 93.8784 61.2415 93.2864 59.9327C92.7296 58.7007 91.328 58.1311 90.0448 57.7023C86.7424 56.6047 83.3696 55.7087 79.9552 55.0239C78.8256 54.7967 77.6448 54.5951 76.5344 54.8991C74.2464 55.5199 74.0448 58.1599 73.4656 60.0703C72.6784 62.6687 71.9232 65.2799 71.2704 67.9167C70.0064 73.0399 69.1296 78.2975 69.248 83.5935L69.2512 83.5903Z" fill="#FFDE91"/>
<path id="Vector_57" d="M96 59.6192C102.179 58.2496 107.933 55.0144 112.32 50.4512C114 48.704 115.574 46.3136 114.813 44.0128C114.294 42.4416 112.803 41.3952 111.286 40.736C108.093 39.3472 104.486 39.2 101.018 39.5328C92.192 40.3776 83.6928 44.288 77.3056 50.4352C75.3056 49.7952 73.2576 49.152 71.1584 49.2224C69.0592 49.296 66.8672 50.2272 65.8496 52.064C64.928 53.7312 65.1264 55.7696 65.408 57.6544C66.096 62.2336 67.344 67.1264 70.9536 70.0256C72.2496 68.128 73.424 66.144 74.464 64.0896C74.9824 63.0624 75.4688 62.0224 75.92 60.9632C76.1984 60.3072 76.4416 59.0144 77.1136 58.6144C78.256 57.936 81.1392 59.4336 82.3776 59.6896C84.4992 60.128 86.6656 60.3584 88.832 60.3712C91.2384 60.384 93.648 60.1344 96 59.6128V59.6192Z" fill="#292E54"/>
<path id="Vector_58" d="M81.8784 71.424C81.888 71.6128 81.9968 71.808 82.176 71.8624C82.4384 71.9392 82.6816 71.696 82.8288 71.4656C83.0784 71.0752 83.9936 69.4656 83.1424 69.4688C82.4416 69.4688 81.8496 70.896 81.8752 71.4272L81.8784 71.424Z" fill="#292E54"/>
<path id="Vector_59" d="M84.9248 72.624C85.0496 72.7744 85.2768 72.8128 85.4656 72.7552C85.6544 72.6976 85.8112 72.5728 85.9552 72.4352C86.3648 72.0448 87.6224 70.6016 86.3904 70.5408C85.6384 70.5024 84.3776 71.9584 84.9248 72.6208V72.624Z" fill="#292E54"/>
<path id="Vector_60" d="M72.176 84.7712C72.7808 85.8272 74 86.512 75.1584 86.208C75.9328 86.0032 76.576 85.4144 77.1232 84.784C77.2768 84.608 77.4368 84.4 77.4272 84.1632C77.4144 83.8048 77.0496 83.6224 76.7424 83.4848C75.8368 83.0816 75.0336 82.4544 74.3808 81.6832C74.0256 81.264 73.2928 79.6704 72.6336 79.68C71.04 79.6992 71.6512 83.8624 72.1728 84.7744L72.176 84.7712Z" fill="#292E54"/>
<path id="Vector_61" d="M72.7424 68.2784C72.1472 67.5584 71.4688 66.7936 70.5472 66.6464C69.8816 66.5408 69.1808 66.8032 68.7008 67.2736C68.2208 67.744 67.9488 68.4096 67.8912 69.0816C67.8144 70.0256 68.1664 71.0112 68.8768 71.6352C69.5872 72.2592 70.6528 72.48 71.5264 72.1216" fill="#FFDE91"/>
<path id="Vector_62" d="M58.6368 93.8752C59.9776 91.7376 61.536 89.5904 63.7952 88.4608C66.0544 87.3312 69.184 87.5712 70.656 89.6224C71.648 91.0048 71.6896 92.832 71.728 94.5344C71.9904 105.51 73.888 116.378 75.024 127.296C75.1616 128.621 75.2416 130.112 74.3744 131.126C73.712 131.901 72.6272 132.198 71.6096 132.157C70.592 132.115 69.6128 131.782 68.64 131.482C64.5728 130.23 60.336 129.546 56.0832 129.443C53.6896 129.386 48.3328 130.621 47.616 127.306C46.9824 124.365 48.4224 120.358 49.0784 117.523C49.9936 113.562 51.1744 109.658 52.6496 105.866C54.272 101.699 56.2592 97.6672 58.6368 93.8784V93.8752Z" fill="#D6B2A4"/>
<path id="Vector_63" d="M62.2464 112.819C63.6512 110.643 65.536 108.704 67.904 107.654C70.272 106.605 73.1616 106.55 75.3696 107.904C77.28 109.075 78.4768 111.12 79.376 113.174C80.6976 116.195 81.5456 119.427 81.8784 122.707C81.9488 123.402 81.9936 124.118 81.776 124.781C81.5584 125.443 81.0176 126.045 80.3264 126.131C79.6768 126.214 79.0592 125.846 78.5408 125.45C76.944 124.237 75.6672 122.605 74.8672 120.765C74.6112 121.866 74.336 123.005 73.6224 123.882C72.9088 124.758 71.6192 125.274 70.6176 124.755C69.5968 124.227 69.2672 122.899 68.3648 122.189C65.9168 120.259 61.664 124.355 59.9008 121.402C58.3968 118.883 60.9408 114.842 62.2432 112.822L62.2464 112.819Z" fill="#FFDE91"/>
<path id="Vector_64" d="M53.1744 128.08C52.0032 128.003 50.7808 127.93 49.7088 128.397C48.6336 128.864 47.7824 130.07 48.128 131.19C48.512 132.432 50.0128 132.867 51.2864 133.114C54.128 133.661 56.9696 134.208 59.8112 134.755C64.704 135.696 69.616 136.643 74.592 136.941C79.712 137.248 84.848 136.87 89.9648 136.49C96.8608 135.978 103.757 135.469 110.653 134.957C111.677 134.88 112.758 134.784 113.597 134.192C114.435 133.6 114.88 132.32 114.24 131.517C113.866 131.043 113.238 130.861 112.656 130.71C104.966 128.72 97.0432 127.651 89.1008 127.523C85.6448 127.469 82.3328 128.032 78.8864 128.218C74.784 128.438 70.672 128.544 66.5632 128.531C62.096 128.518 57.6288 128.368 53.1744 128.083V128.08Z" fill="#292E54"/>
<path id="Vector_65" d="M70.1984 70.864C70.16 70.864 70.1216 70.8512 70.0864 70.8256C69.5488 70.4032 69.2192 69.9328 69.1072 69.4272C68.9824 68.8704 69.1648 68.1408 69.76 67.8304C70.0608 67.6736 70.448 67.68 70.7712 67.8496C71.056 68 71.2416 68.2496 71.2768 68.5376C71.2896 68.6368 71.2192 68.7264 71.12 68.7392C71.0208 68.752 70.9312 68.6816 70.9184 68.5824C70.896 68.4128 70.7808 68.2624 70.6016 68.1696C70.384 68.0576 70.1184 68.048 69.9264 68.1504C69.552 68.3456 69.3504 68.864 69.4592 69.3504C69.5776 69.8784 69.9872 70.2912 70.3104 70.544C70.3872 70.6048 70.4032 70.72 70.3424 70.7968C70.3072 70.8416 70.2528 70.8672 70.2016 70.8672L70.1984 70.864Z" fill="white"/>
<path id="Vector_66" d="M35.952 109.341C34.9312 110.688 33.9744 112.109 33.4048 113.699C32.8352 115.29 32.6816 117.078 33.264 118.662C34.0928 120.909 36.2464 122.406 38.4704 123.296C41.808 124.634 45.4816 124.912 49.0784 124.8C52.3776 124.698 55.6704 124.282 58.8928 123.555C59.5616 123.405 60.3104 123.174 60.5984 122.554C60.7776 122.166 60.7264 121.718 60.6752 121.299C60.4544 119.539 60.2336 117.779 60.0096 116.019C55.9072 116.131 51.808 116.243 47.7056 116.358C46.5696 116.39 45.2864 116.365 44.5024 115.539C43.5072 114.49 43.8944 112.771 44.528 111.475C46.464 107.526 50.0096 104.662 53.2768 101.718C56.6112 98.7168 59.7568 95.504 62.6944 92.1088C64.2368 90.3232 63.5872 88.5152 61.2032 89.3856C58.9312 90.2144 56.7776 91.8624 54.7424 93.1488C50.2336 95.9968 45.8656 99.1072 41.9584 102.749C39.7792 104.781 37.7536 106.976 35.952 109.347V109.341Z" fill="#D6B2A4"/>
<path id="Vector_67" d="M54.3552 100.928C54.3072 100.928 54.256 100.909 54.2208 100.867C54.1536 100.794 54.16 100.678 54.2336 100.614C57.5296 97.6447 59.6224 95.3791 62.5568 91.9839C62.6208 91.9103 62.736 91.9007 62.8096 91.9647C62.8832 92.0287 62.8928 92.1439 62.8288 92.2175C59.8848 95.6223 57.7856 97.8975 54.4736 100.877C54.4384 100.909 54.3968 100.922 54.352 100.922L54.3552 100.928Z" fill="white"/>
<path id="Vector_68" d="M49.5744 125.104C49.4784 125.104 49.3984 125.027 49.3952 124.928C49.3952 124.829 49.4688 124.746 49.5712 124.742C52.6944 124.646 55.3376 124.17 58.8544 123.379C59.5296 123.229 60.1888 123.014 60.4352 122.477C60.5856 122.15 60.5536 121.776 60.496 121.318L59.8528 116.198C57.8944 116.256 56.5312 116.349 55.2128 116.438C53.856 116.531 52.4512 116.624 50.3968 116.682C50.3008 116.685 50.2144 116.605 50.2112 116.506C50.2112 116.406 50.288 116.323 50.3872 116.32C52.4352 116.262 53.8336 116.17 55.1872 116.077C56.544 115.984 57.9488 115.888 60.0032 115.834C60.1024 115.83 60.176 115.901 60.1856 115.99L60.8512 121.27C60.9024 121.677 60.9664 122.179 60.7616 122.624C60.448 123.302 59.6608 123.565 58.9312 123.728C55.3952 124.525 52.7328 125.002 49.5808 125.101H49.5744V125.104Z" fill="white"/>
<path id="Vector_69" d="M74.8544 121.194C74.7584 121.194 74.6816 121.12 74.6752 121.024C74.4736 117.418 72.832 113.949 70.176 111.501C70.1024 111.434 70.0992 111.318 70.1664 111.245C70.2336 111.171 70.3488 111.168 70.4224 111.235C73.1456 113.744 74.8288 117.306 75.0368 121.002C75.0432 121.101 74.9664 121.187 74.8672 121.19C74.864 121.19 74.8608 121.19 74.8576 121.19L74.8544 121.194Z" fill="white"/>
<path id="Vector_70" d="M71.6832 100.342C71.5904 100.342 71.5104 100.269 71.504 100.176L71.0784 94.48C71.072 94.3808 71.1456 94.2944 71.2448 94.288C71.3408 94.2816 71.4304 94.3552 71.4368 94.4544L71.8624 100.15C71.8688 100.25 71.7952 100.336 71.696 100.342C71.6928 100.342 71.6864 100.342 71.6832 100.342Z" fill="white"/>
<path id="Vector_71" d="M76.2464 134.381C73.44 134.381 70.6432 133.952 67.9136 133.533L52.0384 131.101C51.4528 131.011 50.8544 130.883 50.5056 130.41C50.2912 130.115 50.2816 129.661 50.4864 129.325C50.6432 129.069 50.896 128.941 51.1648 128.979C51.264 128.995 51.3312 129.085 51.3152 129.184C51.2992 129.283 51.2096 129.35 51.1104 129.334C50.9504 129.309 50.8512 129.418 50.7968 129.51C50.6848 129.693 50.656 130 50.7968 130.195C51.0624 130.557 51.584 130.666 52.096 130.742L67.9712 133.174C71.6832 133.744 75.52 134.33 79.3056 133.824C79.4016 133.811 79.4944 133.878 79.5072 133.978C79.52 134.077 79.4528 134.166 79.3536 134.179C78.32 134.317 77.2832 134.378 76.2496 134.378L76.2464 134.381Z" fill="white"/>
<path id="Vector_72" d="M82.4192 131.19C82.1472 131.994 81.888 132.928 82.336 133.651C82.8672 134.509 84.064 134.576 85.072 134.541C93.1104 134.272 101.139 133.696 109.136 132.813C111.603 132.541 114.176 132.198 116.221 130.79C118.154 129.456 119.366 127.334 120.438 125.248C124.742 116.893 127.869 107.93 129.699 98.7104C129.824 98.0896 129.936 97.4272 129.712 96.8384C129.206 95.5136 127.437 95.3312 126.019 95.3696C116.874 95.616 107.731 95.8656 98.5856 96.112C96.6432 96.1632 94.8 95.6 93.8592 97.3664C92.8384 99.28 92.3712 101.773 91.6736 103.83C90.2368 108.08 88.8 112.33 87.3632 116.576C85.7152 121.45 84.0672 126.32 82.4192 131.194V131.19Z" fill="#292E54"/>
</g>
<g id="coffee">
<path id="Vector_73" d="M12.3584 127.488C13.376 125.712 15.3568 125.072 17.2832 125.28C16.9216 122.659 19.168 121.888 21.2 122.086C24.1472 122.374 27.1424 121.818 30.1216 122.026C31.2832 122.106 32.5184 122.269 33.3984 123.03C34.5312 124.01 34.736 125.67 34.7872 127.168C34.8672 129.539 34.7296 132.016 33.5872 134.099C32.112 136.787 29.0016 138.435 25.936 138.317C22.8704 138.198 19.9648 136.39 18.3456 133.786C16.6208 134.662 14.3424 134.269 13.008 132.867C11.6736 131.466 11.3984 129.168 12.3584 127.491V127.488ZM16.7776 132.064C17.1904 132.054 17.6512 131.872 17.7856 131.482C17.8592 131.264 17.8176 131.027 17.776 130.8C17.6 129.869 17.6512 128.122 16.4352 127.93C15.4016 127.766 14.5728 129.005 14.5728 129.91C14.5728 131.056 15.632 132.096 16.7776 132.067V132.064Z" fill="#E6E7E8"/>
<path id="Vector_74" d="M25.0688 126.499C23.7088 126.499 22.2976 126.371 20.848 126.118C20.176 126 19.04 125.667 18.9696 124.742C18.9184 124.102 19.4912 123.562 20.0736 123.411C20.672 123.254 21.2928 123.386 21.8432 123.504L21.8016 123.699C21.2736 123.587 20.6752 123.459 20.1248 123.603C19.6224 123.734 19.1264 124.192 19.168 124.73C19.232 125.52 20.2688 125.818 20.8832 125.926C24.4672 126.554 27.7888 126.4 30.7584 125.469C31.1616 125.341 31.6192 125.181 31.936 124.861C32.2176 124.579 32.3968 124.093 32.192 123.715C32.096 123.536 31.8752 123.408 31.6448 123.402C31.4624 123.395 31.3024 123.466 31.2192 123.597L31.0528 123.491C31.1744 123.299 31.392 123.19 31.6512 123.203C31.9552 123.213 32.2336 123.379 32.3648 123.622C32.6144 124.086 32.4064 124.669 32.0736 125.002C31.7248 125.35 31.2416 125.523 30.816 125.658C29.0208 126.221 27.0976 126.502 25.0688 126.502V126.499Z" fill="white"/>
</g>
<g id="letters">
<g id="Group_3">
<path id="Vector_75" d="M118.31 70.3968C117.453 70.5312 116.57 70.6912 115.85 71.1776C114.499 72.0896 114.093 73.8656 113.795 75.4688C113.667 76.1664 113.536 76.88 113.635 77.584C113.734 78.288 114.099 78.992 114.733 79.312C115.325 79.6096 116.029 79.5328 116.685 79.4432C119.834 79.0272 122.982 78.6112 126.128 78.1952C126.97 78.0832 127.846 77.9584 128.538 77.4688C129.904 76.5024 130.032 74.5632 130.029 72.8896C130.029 71.9616 130.202 70.4192 129.402 69.7408C128.739 69.1744 127.581 69.4016 126.79 69.4528C123.949 69.6352 121.117 69.9552 118.307 70.3968H118.31Z" fill="#FFDE91"/>
<g id="Group_4">
<path id="Vector_76" d="M116.384 71.5584C117.773 72.6912 119.203 73.7696 120.672 74.7936C121.069 75.0688 121.504 75.3536 121.987 75.3408C122.627 75.3248 123.126 74.8064 123.552 74.3232C124.771 72.9376 125.99 71.5488 127.206 70.1632" fill="#FFDE91"/>
<path id="Vector_77" d="M121.955 75.4688C121.459 75.4688 121.03 75.2 120.598 74.896C119.133 73.8752 117.686 72.784 116.304 71.6576L116.467 71.4592C117.846 72.5824 119.286 73.6704 120.746 74.688C121.152 74.9696 121.549 75.216 121.984 75.2128C122.563 75.2 123.027 74.7232 123.453 74.24L127.107 70.08L127.299 70.2496L123.645 74.4096C123.203 74.9152 122.672 75.4528 121.987 75.4688C121.978 75.4688 121.965 75.4688 121.955 75.4688Z" fill="white"/>
</g>
</g>
<g id="Group_5">
<path id="Vector_78" d="M111.882 76.304C110.621 76.128 109.242 76.1216 108.189 76.8352C107.046 77.6096 106.56 79.0272 106.147 80.3456C105.878 81.2064 105.645 82.2528 106.253 82.9184C106.65 83.3536 107.283 83.4656 107.866 83.552C110.39 83.9264 112.915 84.3008 115.44 84.6752C116.224 84.7904 117.062 84.8992 117.773 84.544C118.8 84.0288 119.158 82.7552 119.309 81.616C119.459 80.4704 119.501 79.2576 119.008 78.2144C118.438 77.0144 117.219 76.4288 115.949 76.4992C114.525 76.5792 113.312 76.5024 111.882 76.304Z" fill="#D6B2A4"/>
<g id="Group_6">
<path id="Vector_79" d="M108.634 77.4368C109.629 78.6752 110.624 79.9136 111.619 81.152C111.872 81.4656 112.166 81.8048 112.566 81.8528C113.002 81.904 113.389 81.5968 113.709 81.3024C114.899 80.2144 115.994 79.0208 116.979 77.744" fill="#D6B2A4"/>
<path id="Vector_80" d="M112.666 81.9904C112.627 81.9904 112.589 81.9904 112.55 81.984C112.112 81.9296 111.798 81.584 111.52 81.2352L108.534 77.52L108.736 77.36L111.722 81.0752C111.968 81.3824 112.24 81.6864 112.582 81.728C112.957 81.7728 113.302 81.5072 113.622 81.2096C114.803 80.128 115.901 78.9344 116.88 77.6672L117.085 77.824C116.096 79.104 114.992 80.3072 113.798 81.3984C113.462 81.7056 113.091 81.9872 112.669 81.9872L112.666 81.9904Z" fill="white"/>
</g>
</g>
</g>
<g id="checklist">
<path id="Vector_81" d="M13.2384 34.7616C15.5168 32.3072 17.7952 29.8528 20.0736 27.3952C19.616 26.9216 19.1616 26.448 18.704 25.9744C16.9088 28.0384 15.1168 30.1024 13.3216 32.1632C12.576 31.12 11.8272 30.0736 11.0816 29.0304C10.9216 28.8064 9.7632 29.5904 9.7024 29.8336C9.5648 30.3776 10.3328 31.0368 10.6336 31.4208C11.5008 32.5344 12.3712 33.6448 13.2384 34.7584V34.7616Z" fill="#292E54"/>
<path id="Vector_82" d="M17.4304 31.6096C17.4208 31.7696 17.4016 31.9296 17.376 32.0896C16.9664 34.4384 14.7296 36.0096 12.3808 35.6C10.032 35.1904 8.4608 32.9536 8.8704 30.6048C9.28 28.256 11.5168 26.6848 13.8656 27.0944C14.5344 27.2096 15.136 27.4752 15.6512 27.8464C15.9264 27.5648 16.2048 27.28 16.4864 27.0048C16.5312 26.9632 16.5728 26.9184 16.6208 26.8736C15.9104 26.3168 15.0528 25.92 14.0992 25.7536C11.008 25.2128 8.0672 27.2832 7.5296 30.3712C6.9888 33.4624 9.0592 36.4032 12.1472 36.9408C15.2384 37.4816 18.1792 35.4112 18.7168 32.3232C18.816 31.7472 18.8256 31.1744 18.7552 30.624C18.3136 30.9536 17.872 31.2832 17.4304 31.6096Z" fill="#292E54"/>
<path id="Vector_83" d="M13.6 49.5744C15.8784 47.12 18.1568 44.6656 20.4352 42.208C19.9776 41.7344 19.5232 41.2608 19.0656 40.7872C17.2704 42.8512 15.4784 44.9152 13.6832 46.976C12.9376 45.9328 12.1888 44.8864 11.4432 43.8432C11.2832 43.6192 10.1248 44.4032 10.064 44.6464C9.9264 45.1904 10.6944 45.8496 10.9952 46.2336C11.8624 47.3472 12.7328 48.4576 13.6 49.5712V49.5744Z" fill="#292E54"/>
<path id="Vector_84" d="M17.7952 46.4224C17.7856 46.5824 17.7664 46.7424 17.7408 46.9024C17.3312 49.2512 15.0944 50.8224 12.7456 50.4128C10.3968 50.0032 8.8256 47.7664 9.2352 45.4176C9.6448 43.0688 11.8816 41.4976 14.2304 41.9072C14.8992 42.0224 15.5008 42.288 16.016 42.6592C16.2912 42.3776 16.5696 42.0928 16.8512 41.8176C16.896 41.776 16.9376 41.7312 16.9856 41.6864C16.2752 41.1296 15.4176 40.7328 14.464 40.5664C11.3728 40.0256 8.432 42.096 7.8944 45.184C7.3536 48.2752 9.424 51.216 12.512 51.7536C15.6032 52.2944 18.544 50.224 19.0816 47.136C19.1808 46.56 19.1904 45.9872 19.12 45.4368C18.6784 45.7664 18.2368 46.096 17.7952 46.4224Z" fill="#292E54"/>
<path id="Vector_85" d="M40.2937 27.2837L23.2949 27.8417L23.3039 28.1167L40.3027 27.5588L40.2937 27.2837Z" fill="#BCBEC0"/>
<path id="Vector_86" d="M40.7894 29.4443L22.6243 30.3073L22.6373 30.5821L40.8024 29.7191L40.7894 29.4443Z" fill="#BCBEC0"/>
<path id="Vector_87" d="M23.1392 32.9024L23.12 32.6272C28.6496 32.256 34.2624 32.1632 39.8016 32.352L39.792 32.6272C34.2624 32.4384 28.6592 32.5312 23.1392 32.9024Z" fill="#BCBEC0"/>
<path id="Vector_88" d="M39.4613 34.0494L21.6291 34.454L21.6354 34.7292L39.4676 34.3245L39.4613 34.0494Z" fill="#BCBEC0"/>
<path id="Vector_89" d="M40.957 41.2705L23.9582 41.8284L23.9672 42.1035L40.966 41.5455L40.957 41.2705Z" fill="#BCBEC0"/>
<path id="Vector_90" d="M41.4524 43.4321L23.2873 44.2951L23.3003 44.57L41.4654 43.707L41.4524 43.4321Z" fill="#BCBEC0"/>
<path id="Vector_91" d="M23.8048 46.8864L23.7856 46.6112C29.3152 46.24 34.928 46.1472 40.4672 46.336L40.4576 46.6112C34.928 46.4224 29.3248 46.5152 23.8048 46.8864Z" fill="#BCBEC0"/>
<path id="Vector_92" d="M40.1241 48.0372L22.2919 48.4418L22.2981 48.717L40.1304 48.3123L40.1241 48.0372Z" fill="#BCBEC0"/>
</g>
</g>
</svg>
