<svg width="488" height="400" viewBox="0 0 488 400" fill="none" xmlns="http://www.w3.org/2000/svg">
<g clip-path="url(#clip0_246_6950)">
<path d="M19.2077 84.4701C18.261 117.566 17.3143 163.926 18.3879 196.476C18.8075 209.125 19.7543 222.769 27.9429 232.637C36.7464 243.256 261.851 233.427 274.627 230.646C283.499 228.713 280.19 198.008 280.717 177.454C281.508 146.592 282.259 112.774 278.258 81.4445C277.584 76.135 276.686 70.4254 273.163 66.5214C268.703 61.5829 261.627 61.1632 255.273 61.0656C186.387 60.0896 115.324 58.1864 42.2706 57.1323C26.0007 56.8981 19.6567 68.8053 19.2077 84.4603V84.4701Z" fill="#E6E7E8"/>
<path d="M143.97 277.738C130.872 281.329 118.067 285.985 105.711 291.636C102.158 293.266 97.9904 296.35 99.1909 300.069C100.06 302.762 103.271 303.787 106.042 304.363C139.568 311.41 174.548 311.488 208.103 304.587C213.52 303.475 220.371 299.922 218.888 294.593C217.96 291.265 214.164 289.781 210.855 288.776C198.206 284.931 185.557 281.095 172.908 277.25C172.079 264.845 171.249 252.45 170.419 240.045C162.592 238.912 148.889 233.339 144.604 242.445C140.495 251.181 143.95 268.153 143.97 277.738Z" fill="#292E54"/>
<path d="M294.225 201.385C293.376 166.971 292.527 132.489 291.668 97.9291C291.277 82.2545 289.228 66.58 276.481 56.4296C267.219 49.051 253.028 50.1344 242.068 48.9827C204.374 45.0397 164.915 43.1853 123.806 43.5561C99.8448 43.7709 75.2984 44.7469 50.2055 46.5134C39.3036 47.2845 27.289 48.6411 19.8714 56.3808C13.3224 63.2128 12.0829 73.2851 11.3216 82.7035C7.65188 128.488 8.51076 174.643 13.869 220.036C14.9816 229.484 16.6994 239.654 23.9413 245.842C28.8701 250.048 35.5948 251.688 42.0461 253.055C115.031 268.534 186.201 265.655 251.242 258.54C262.593 257.3 274.715 255.485 283.099 246.964C294.137 235.75 294.596 217.411 294.205 201.385H294.225ZM274.637 230.646C261.851 233.427 36.7562 243.256 27.9527 232.637C19.764 222.769 18.8076 209.125 18.3976 196.476C17.324 163.926 18.2708 117.576 19.2175 84.4701C19.6664 68.815 26.0104 56.9078 42.2804 57.1421C115.334 58.1961 186.396 60.0896 255.283 61.0656C261.627 61.1534 268.712 61.5829 273.173 66.5214C276.696 70.4254 277.594 76.135 278.267 81.4445C282.269 112.774 281.517 146.592 280.727 177.454C280.2 198.008 283.509 228.713 274.637 230.646Z" fill="#292E54"/>
<path d="M145.141 300.927C138.533 300.927 131.926 300.732 125.328 300.332C119.667 299.99 113.275 299.278 109.088 295.032C108.922 294.866 108.844 294.632 108.863 294.398C108.883 294.164 109.009 293.949 109.205 293.812L112.055 291.851C112.416 291.597 112.913 291.694 113.167 292.056C113.421 292.417 113.323 292.914 112.962 293.168L110.932 294.574C114.739 297.834 120.38 298.439 125.436 298.741C151.573 300.313 177.886 298.741 203.642 294.105C204.082 294.027 204.492 294.32 204.57 294.749C204.648 295.179 204.365 295.598 203.925 295.677C184.542 299.171 164.846 300.927 145.151 300.927H145.141Z" fill="white"/>
<path d="M222.05 241.85C220.352 244.719 221.572 248.897 224.539 250.41C227.506 251.922 231.605 250.449 232.932 247.394C235.909 240.532 225.934 235.272 222.05 241.84V241.85Z" fill="#3C4368"/>
<path d="M239.481 240.513C237.783 243.382 239.003 247.56 241.97 249.072C244.937 250.585 249.036 249.112 250.364 246.057C253.34 239.195 243.366 233.935 239.481 240.503V240.513Z" fill="#3C4368"/>
<path d="M298.627 11.4653C299.417 9.57183 300.305 7.60031 301.809 5.99967C303.312 4.39903 305.615 3.33519 306.913 4.10623C308.728 5.17983 307.469 8.57631 306.142 11.1822C304.239 14.9203 295.181 36.0214 291.99 35.0552C288.398 33.9621 297.055 15.1546 298.617 11.4653H298.627Z" fill="#FFDE91"/>
<path d="M336.554 39.3008C338.477 38.3443 340.439 37.3683 342.244 36.0312C344.05 34.6941 345.719 32.9275 346.256 31.3171C347.163 28.6039 344.44 27.5107 341.298 28.3794C338.155 29.2578 334.856 31.5026 331.791 33.7181C325.555 38.2272 318.108 43.5855 313.003 49.0999C315.736 51.5789 331.625 41.7506 336.554 39.3008Z" fill="#FFDE91"/>
<path d="M362.32 73.9097C365.053 71.1769 364.643 68.776 362.447 68.1513C360.251 67.5267 356.767 68.2197 353.419 68.9126C348.51 69.9179 323.661 73.2168 329.878 78.7019C333.714 82.0788 353.507 76.6425 362.32 73.9195V73.9097Z" fill="#FFDE91"/>
<path d="M92.1148 147.949C90.6704 148.798 89.1673 149.745 88.4353 151.248C87.2153 153.756 88.6208 156.743 90.2897 158.978C91.9587 161.213 93.9888 163.468 94.1645 166.249C88.7086 168.787 82.5208 172.261 81.74 178.234C81.2032 182.343 83.5358 186.257 86.1125 189.497C98.8297 205.455 119.54 213.614 139.919 214.649C147.464 215.03 155.282 214.473 162.065 211.155C171.005 206.782 177.095 198.155 181.604 189.283C187.782 177.122 191.774 163.546 190.876 149.94C190.535 144.787 189.178 139.155 184.942 136.198C179.594 132.47 172.303 134.588 166.183 136.823C166.818 133.768 167.433 130.518 166.388 127.58C163.987 120.836 158.092 124.525 153.32 125.433C146.058 126.809 138.875 128.429 131.799 130.586C117.95 134.793 104.588 140.629 92.1051 147.959L92.1148 147.949Z" fill="#D6B2A4"/>
<path d="M127.534 154.322C125.972 158.832 127.339 163.985 130.15 167.84C132.414 170.944 135.498 173.325 138.807 175.306C140.124 176.097 140.671 177.727 140.036 179.132C138.611 182.295 137.645 185.662 137.167 189.088C136.855 191.303 138.953 193.128 141.081 192.416C147.298 190.347 153.183 187.301 158.463 183.427C160.035 182.275 160.093 179.933 158.6 178.674L151.475 172.7C150.499 171.881 150.138 170.524 150.587 169.333C151.612 166.62 152.519 163.848 152.793 160.969C153.554 152.927 148.85 148.759 141.579 146.924C136.045 145.529 129.457 148.788 127.544 154.322H127.534Z" fill="#AF93A2"/>
<path d="M88.4158 123.256C84.4825 111.905 84.4337 98.544 91.2364 88.6474C96.1262 81.5226 104.266 76.8378 112.835 75.7642C121.405 74.7004 130.296 77.1696 137.333 82.1765C140.046 84.109 142.603 86.549 143.618 89.721C144.633 92.893 143.657 96.8946 140.71 98.4562C137.918 99.9397 134.424 98.8466 131.799 97.08C129.183 95.3135 126.997 92.9125 124.206 91.429C118.194 88.2277 110.249 90.1992 105.525 95.1183C100.811 100.037 99.0737 107.299 99.8057 114.072C100.538 120.846 103.485 127.199 107.087 132.987C109.546 136.93 113.011 141.566 112.269 146.514C111.527 151.463 107.887 153.19 104.1 149.891C97.0339 143.733 91.4219 131.953 88.406 123.266L88.4158 123.256Z" fill="#D6B2A4"/>
<path d="M438.117 325.064V325.035C436.614 295.042 420.451 265.655 395.905 248.341L397.593 245.949C421.573 262.863 437.785 290.972 440.693 320.194H440.81L441.045 324.898C441.045 324.898 441.045 324.918 441.045 324.927L438.117 325.074V325.064Z" fill="#BCBEC0"/>
<path d="M477.527 271.618C466.84 244.046 444.07 221.042 416.606 210.071L417.689 207.348C445.895 218.611 469.28 242.24 480.251 270.554L477.518 271.608L477.527 271.618Z" fill="#BCBEC0"/>
<path d="M361.754 173.92C342.332 174.857 323.866 184.608 313.169 199.599C310.602 203.2 308.396 207.622 309.841 211.838C311.607 216.982 318.342 219.48 323.973 218.641C329.605 217.801 334.329 214.503 338.828 211.301C332.221 216.806 325.076 223.423 325.408 231.836C325.75 240.464 333.782 247.033 341.131 252.41C344.723 255.046 348.451 257.739 352.824 258.872C357.196 260.004 362.418 259.164 364.975 255.768C366.956 253.142 366.966 249.531 365.854 246.418C364.741 243.304 362.652 240.581 360.593 237.907C367.542 243.441 374.618 249.063 382.904 252.557C391.191 256.061 401.009 257.203 409.051 253.63C419.251 249.102 424.404 237.888 424.443 227.2C424.492 213.644 419.758 198.457 408.456 189.38C395.495 178.966 378.61 173.12 361.745 173.93L361.754 173.92Z" fill="#AF93A2"/>
<path d="M237.939 162.55C231.937 160.178 225.924 157.846 219.844 155.669C203.193 149.716 186.406 144.084 169.717 138.238C168.038 137.652 166.174 138.404 165.393 140.005L163.002 144.885C161.879 147.188 162.875 149.96 165.208 151.014L172.674 154.391C170.839 157.27 169.326 160.354 168.136 163.555C166.876 165.625 166.33 168.533 165.237 170.29C164.885 171.178 164.534 172.164 164.866 173.062C165.168 173.901 165.988 174.438 166.769 174.877C168.526 175.863 170.39 176.673 172.303 177.278C173.757 177.746 175.358 178.098 176.802 177.59C178.745 176.917 179.867 174.926 180.697 173.042C181.848 170.407 182.746 167.655 183.4 164.853L185.723 159.954L201.202 163.536L193.56 177.864C192.321 180.186 193.326 183.075 195.737 184.139L203.486 187.536C206.239 188.736 209.43 187.409 210.504 184.598L217.297 166.893C223.484 169.041 229.653 171.256 235.802 173.52C236.514 169.86 237.236 166.2 237.949 162.54L237.939 162.55Z" fill="#FFDE91"/>
<path d="M232.776 183.641C232.591 185.252 232.669 187.321 234.172 187.916C235.196 188.326 236.407 187.721 237.031 186.813C237.656 185.906 237.861 184.774 238.027 183.69C239.901 171.851 241.16 159.827 241.521 147.832C241.58 146.026 239.003 145.597 238.505 147.334C235.519 157.738 233.205 179.816 232.766 183.661L232.776 183.641Z" fill="#BCBEC0"/>
<path d="M362.672 206.451C358.192 198.35 347.378 194.748 338.623 197.784C345.982 193.655 348.861 183.261 344.928 175.794C340.995 168.328 331.079 164.785 323.202 167.791C315.316 170.797 310.309 179.776 311.578 188.121C305.615 186.452 299.681 184.686 293.766 182.851C293.883 187.536 294 192.24 294.118 196.925C297.416 198.35 300.715 199.775 303.995 201.239C297.66 206.265 295.201 215.635 298.266 223.121C301.32 230.607 309.636 235.574 317.678 234.735C325.72 233.886 332.816 227.298 334.251 219.344C335.588 228.508 347.183 234.159 355.557 230.197C363.931 226.244 367.161 214.561 362.691 206.46L362.672 206.451ZM316.107 222.642C312.954 224.419 308.436 223.306 306.63 220.173C304.824 217.03 306.298 212.424 309.656 211.077C317.561 207.915 324.403 217.977 316.107 222.642ZM333.294 188.414C330.6 191.049 325.662 190.756 323.212 187.887C320.762 185.018 321.192 180.186 324.042 177.707C331.323 171.373 339.443 182.392 333.294 188.414ZM356.289 215.4C355.157 218.982 350.989 221.208 347.329 220.378C343.669 219.548 340.907 215.947 340.819 212.189C340.761 209.691 341.873 207.085 344.001 205.767C349.369 202.439 358.172 209.418 356.289 215.4Z" fill="#FFDE91"/>
<path d="M389.365 193.919C378.6 190.922 366.537 192.845 357.694 198.974C353.829 201.658 350.325 205.865 351.409 210.345C352.463 214.717 357.362 217.304 361.94 218.602C374.286 222.115 388.106 220.3 398.647 213.751" fill="#AF93A2"/>
<path d="M374.745 220.866C370.392 220.866 366.029 220.281 361.813 219.08C358.28 218.075 352.18 215.615 350.94 210.462C349.984 206.499 352.404 202.049 357.421 198.574C366.351 192.386 378.649 190.425 389.502 193.45L389.239 194.387C378.649 191.44 366.673 193.353 357.968 199.375C356.22 200.585 350.599 204.957 351.877 210.228C353.009 214.903 358.748 217.187 362.076 218.133C374.345 221.627 387.921 219.841 398.393 213.341L398.911 214.171C391.815 218.573 383.314 220.866 374.745 220.866Z" fill="white"/>
<path d="M120.448 324.781C106.618 324.83 92.5248 324.927 79.3683 329.182C55.8272 336.805 38.5617 356.52 22.5456 375.377C20.0958 378.256 17.607 381.213 16.2992 384.766C14.9913 388.309 15.0889 392.622 17.5094 395.511C20.5253 399.113 25.8542 399.406 30.5488 399.415C124.284 399.659 218.019 399.894 311.754 400.138C315.726 400.147 319.786 400.138 323.524 398.791C327.253 397.444 330.659 394.457 331.362 390.553C332.24 385.673 328.853 381.145 325.681 377.329C315.346 364.924 305.01 352.519 294.674 340.114C287.774 331.827 283.713 324.449 272.167 324.205C239.657 323.492 207.019 324.449 174.509 324.566C156.492 324.634 138.455 324.966 120.448 324.771V324.781Z" fill="#3C4368"/>
<path d="M74.1858 385.254C63.8109 385.254 53.2603 385.029 42.8659 383.731C39.6061 383.321 36.6488 380.735 35.6826 377.426C34.9115 374.762 35.5947 372.302 37.5663 370.672C54.5291 356.618 65.6067 347.551 82.6672 334.043C82.8819 333.877 83.1845 333.906 83.3504 334.121C83.5163 334.336 83.487 334.638 83.2723 334.804C66.2216 348.312 55.1538 357.369 38.1909 371.424C36.5317 372.8 35.9559 374.889 36.6195 377.153C37.4784 380.091 40.0941 382.394 42.9831 382.765C56.1005 384.405 69.5107 384.326 82.4818 384.248L300.374 382.97C303.526 382.95 306.298 381.564 307.791 379.261C310.017 375.825 308.094 372.683 305.742 369.491L276.032 329.202C275.876 328.987 275.915 328.675 276.14 328.519C276.354 328.363 276.667 328.402 276.823 328.626L306.532 368.915C308.465 371.541 311.393 375.513 308.611 379.798C306.932 382.374 303.858 383.936 300.384 383.956L82.4915 385.234C79.7392 385.254 76.9674 385.263 74.176 385.263L74.1858 385.254Z" fill="white"/>
<path d="M82.3158 379.271C82.2377 379.271 82.1499 379.251 82.0816 379.212C81.8473 379.085 81.7595 378.783 81.8864 378.549C91.012 362.093 102.392 347.004 115.724 333.711C115.91 333.526 116.222 333.516 116.417 333.711C116.603 333.906 116.603 334.209 116.417 334.404C103.153 347.629 91.8221 362.64 82.7453 379.017C82.6574 379.183 82.4915 379.271 82.3158 379.271Z" fill="white"/>
<path d="M134.805 377.192C134.805 377.192 134.737 377.192 134.698 377.182C134.434 377.124 134.268 376.86 134.327 376.597C137.45 363.001 141.52 349.483 146.419 336.415C146.517 336.161 146.8 336.034 147.044 336.132C147.298 336.229 147.425 336.512 147.327 336.756C142.437 349.776 138.377 363.255 135.264 376.811C135.215 377.036 135.01 377.192 134.786 377.192H134.805Z" fill="white"/>
<path d="M174.626 377.221C174.626 377.221 174.606 377.221 174.597 377.221C174.323 377.202 174.118 376.977 174.138 376.704L176.285 336.951C176.295 336.678 176.5 336.473 176.802 336.493C177.076 336.512 177.281 336.737 177.261 337.01L175.114 376.763C175.104 377.026 174.889 377.221 174.626 377.221Z" fill="white"/>
<path d="M215.159 375.825C214.925 375.825 214.71 375.65 214.681 375.416C212.622 362.025 209.879 348.585 206.502 335.468C206.434 335.204 206.59 334.941 206.853 334.872C207.107 334.804 207.381 334.96 207.449 335.224C210.826 348.371 213.588 361.849 215.647 375.269C215.686 375.533 215.501 375.786 215.237 375.825C215.208 375.825 215.189 375.825 215.159 375.825Z" fill="white"/>
<path d="M269.191 377.319C269.034 377.319 268.878 377.241 268.781 377.094L240.233 333.409C240.086 333.184 240.145 332.881 240.379 332.735C240.604 332.589 240.906 332.647 241.052 332.881L269.601 376.567C269.747 376.792 269.688 377.094 269.454 377.241C269.376 377.299 269.278 377.319 269.191 377.319Z" fill="white"/>
<path d="M291.18 366.075H57.3985C57.1252 366.075 56.9105 365.861 56.9105 365.587C56.9105 365.314 57.1252 365.099 57.3985 365.099H291.19C291.463 365.099 291.678 365.314 291.678 365.587C291.678 365.861 291.463 366.075 291.19 366.075H291.18Z" fill="white"/>
<path d="M265.462 346.672H80.6761C80.4028 346.672 80.1881 346.458 80.1881 346.184C80.1881 345.911 80.4028 345.696 80.6761 345.696H265.462C265.735 345.696 265.95 345.911 265.95 346.184C265.95 346.458 265.735 346.672 265.462 346.672Z" fill="white"/>
</g>
<defs>
<clipPath id="clip0_246_6950">
<rect width="488" height="400" fill="white"/>
</clipPath>
</defs>
</svg>
