<svg width="140" height="126" viewBox="0 0 140 126" fill="none" xmlns="http://www.w3.org/2000/svg">
<path d="M82.3828 55.1472C83.3441 55.1874 86.6466 53.4591 86.1643 55.3382C85.9901 56.0114 85.4442 56.6377 84.7441 56.621C84.1446 56.6042 82.6072 55.9913 82.3828 55.1472Z" fill="#F6BA94"/>
<path d="M91.1985 53.6C88.6261 54.501 86.3921 56.6613 83.679 55.0737C82.3393 54.29 81.5555 53.3689 79.9679 53.3689C79.02 53.3689 76.6219 52.8732 75.9486 53.523C75.53 53.9249 75.3525 54.9163 75.0577 55.4589C74.8534 55.8407 74.2438 56.5977 74.5117 57.0666C75.1515 58.182 77.5597 55.901 78.4406 55.9211C79.7904 55.9546 80.7952 57.4049 81.6895 58.2255C82.5034 58.9724 83.3207 59.6457 84.1044 60.3892C84.5767 60.838 85.1762 61.106 85.7121 61.4711C86.1476 61.7692 85.7423 62.64 86.161 62.8879C86.5997 63.1525 87.3634 62.6802 87.9696 62.3989C88.941 61.95 89.9793 61.7089 90.9841 61.3337C93.0373 60.5701 95.2579 60.0409 97.224 59.0729C96.6479 57.7063 95.9077 56.4235 94.5445 55.6666C93.3622 55.0134 92.0191 54.6483 91.0511 53.7507C91.1784 53.7574 91.3023 53.7574 91.1985 53.6Z" fill="#E8A885"/>
<path d="M65.0628 53.2148C65.7695 53.8479 67.2499 54.079 68.2012 54.2197C69.3935 54.3972 70.5457 54.6685 71.7515 54.7589C73.2855 54.8728 74.6789 54.4642 76.2297 54.5379C78.6446 54.6517 80.5671 56.2594 82.3825 57.7164C83.8462 58.8887 85.3936 60.2787 86.4822 61.8328C86.9243 62.4659 87.065 63.2429 86.9477 64.0468C86.8272 64.8808 86.0401 65.7617 85.2362 64.921C86.1238 66.2942 83.8596 67.7646 82.6873 67.0077C82.8916 68.3876 80.8853 68.6221 80.0044 68.2268C79.7968 69.7642 77.9379 68.8766 77.1306 68.4546C76.1593 67.9455 75.3086 67.2689 74.3473 66.7665C73.0444 66.0832 71.6142 65.5909 70.3314 64.8908C69.5543 64.4655 68.9849 63.8157 68.2246 63.387C67.4107 62.9281 66.6135 62.553 65.7159 62.2616C63.4082 61.5213 60.9531 60.7577 58.5649 60.3926C60.0722 58.5739 61.0468 56.5341 63.0364 55.1039C63.867 54.5044 64.6441 53.9819 65.0628 53.2148Z" fill="#F6BA94"/>
<path d="M76.8162 68.7056C76.2569 69.6367 74.7128 68.8429 74.4817 68.0223C73.5707 68.0357 72.6898 67.6405 72.3146 66.7864C71.8156 67.0208 71.0988 66.9806 70.6299 66.6022C70.0571 66.1433 70.1945 65.5973 70.1509 64.9275C68.8915 65.4399 67.3073 64.7432 68.3222 63.4236C68.9887 63.6882 69.8629 64.0499 70.3787 64.5188C71.072 63.1054 72.7333 64.2609 72.7902 65.4332C73.0415 65.0078 73.8353 64.5992 74.331 64.8471C74.8635 65.1117 74.8267 66.0395 74.7965 66.5218C76.0057 65.0112 77.1043 67.9654 76.8162 68.7056Z" fill="#E8A885"/>
<path d="M81.2168 60.3288C81.2335 60.8279 81.5819 61.2465 81.7728 61.6887C81.9671 62.1442 82.2652 62.5897 82.6034 62.9547C82.7743 63.139 82.9451 63.3433 83.1427 63.5007C83.347 63.6648 83.5815 63.782 83.7958 63.9328C84.2078 64.2242 84.5729 64.5825 84.9849 64.8639C85.0351 64.8974 85.092 64.8304 85.0653 64.7835C84.8274 64.3749 84.4657 64.0332 84.1676 63.6648C84.0068 63.4672 83.8695 63.2562 83.7154 63.0552C83.5614 62.8576 83.3638 62.6968 83.1829 62.5227C82.8312 62.181 82.4661 61.8394 82.091 61.5212C81.7092 61.1963 81.5517 60.6972 81.2302 60.3221C81.2235 60.3188 81.2168 60.3221 81.2168 60.3288Z" fill="#E8A885"/>
<path d="M79.4384 63.8123C79.5657 64.087 79.8336 64.3013 80.0346 64.5291C80.259 64.7837 80.4734 65.0449 80.6944 65.2995C80.9088 65.5507 81.1164 65.8052 81.3609 66.0296C81.4849 66.1435 81.6557 66.1904 81.7897 66.2942C81.927 66.3981 82.0476 66.4885 82.205 66.5622C82.2452 66.5789 82.2954 66.5488 82.282 66.5019C82.2318 66.3445 82.1648 66.2172 82.0777 66.0765C81.9873 65.9291 81.937 65.7382 81.8265 65.6043C81.6055 65.343 81.3442 65.132 81.0796 64.921C80.815 64.71 80.5403 64.5157 80.2657 64.3214C80.1284 64.2243 79.9877 64.1238 79.8504 64.0267C79.7901 63.9831 79.7264 63.9363 79.6628 63.8927C79.5925 63.8425 79.5355 63.8291 79.4484 63.8023C79.4417 63.7989 79.435 63.8056 79.4384 63.8123Z" fill="#E8A885"/>
<path d="M77.1011 65.8329C77.2484 66.0406 77.5064 66.1611 77.714 66.3119C77.8312 66.3956 77.9518 66.4793 78.0624 66.5698C78.1695 66.6602 78.2399 66.8009 78.327 66.9114C78.4944 67.1258 78.7289 67.2899 78.9265 67.4775C79.037 67.5846 79.1342 67.6885 79.2748 67.7521C79.3988 67.809 79.5193 67.866 79.6533 67.9028C79.717 67.9196 79.7571 67.8626 79.7504 67.8057C79.7304 67.665 79.6768 67.5377 79.6198 67.4071C79.5562 67.2597 79.4523 67.1693 79.3351 67.0655C79.1174 66.8746 78.8863 66.6435 78.6183 66.5262C78.4877 66.4693 78.337 66.4425 78.2164 66.3755C78.0925 66.3085 77.9786 66.2214 77.858 66.1477C77.6336 66.0104 77.3891 65.8195 77.1245 65.786C77.1044 65.7894 77.091 65.8162 77.1011 65.8329Z" fill="#E8A885"/>
<path d="M58.8766 62.1074C60.3135 61.0925 61.3685 58.9623 62.4437 57.5656C63.6696 55.9746 64.9624 54.4574 66.3692 53.0272C65.5519 52.9836 64.7682 52.6052 64.0145 52.2133C61.8307 51.0678 59.6771 50.428 57.3291 49.6845C52.6701 48.2074 47.6293 47.1188 43.5062 44.4092C44.156 46.1911 44.0588 48.5356 44.1359 50.4247C44.2263 52.632 43.7641 55.077 42.5918 56.9627C45.3316 58.5269 48.2188 59.1499 51.2667 59.9403C53.7252 60.5767 56.4114 61.5882 58.8766 62.1074Z" fill="#5C3A6F"/>
<path d="M113.954 37.8645C108.012 42.5202 95.9309 48.7601 90.0493 53.3689C90.6891 53.9249 90.6087 54.8895 90.9604 55.613C91.3422 56.3967 92.1159 57.1604 92.6418 57.8269C93.5494 58.9858 94.5308 60.0174 95.2945 61.2399C97.9104 59.6657 100.831 58.6643 103.417 56.9494C107.436 54.2866 111.532 51.4798 115.893 49.3931C115.753 49.0247 115.733 48.6027 115.625 48.2041C115.243 46.8107 114.312 45.8428 113.435 44.7274C112.38 43.3877 113.957 41.3814 112.199 41.0297C112.323 40.966 114.222 37.9884 113.954 37.8645Z" fill="#5C3A6F"/>
<path d="M139.5 31.3303H105.38V105.747H139.5V31.3303Z" fill="#957FA5"/>
<path opacity="0.44" d="M106.317 39.1513C111.65 39.5164 116.901 39.1546 122.217 38.7896C127.388 38.4345 132.536 38.8331 137.708 38.6489C138.043 38.6355 138.043 38.1398 137.708 38.1264C132.54 37.9489 127.375 37.7881 122.217 38.2336C119.631 38.458 117.062 38.7829 114.466 38.8264C111.76 38.8699 109.01 38.6455 106.317 38.9235C106.173 38.9369 106.17 39.1379 106.317 39.1513Z" fill="#35244B"/>
<path opacity="0.44" d="M107.711 43.0802C107.56 43.874 107.704 44.7214 107.711 45.5287C107.721 46.3459 107.593 47.2234 107.811 48.0173C107.848 48.1512 108.046 48.1512 108.079 48.0173C108.297 47.2268 108.176 46.3426 108.143 45.5287C108.113 44.7214 108.156 43.8372 107.855 43.0802C107.831 43.02 107.724 42.9999 107.711 43.0802Z" fill="#35244B"/>
<path opacity="0.44" d="M107.456 43.5358C108.103 43.5257 108.732 43.3013 109.382 43.2645C110.095 43.2276 110.809 43.2913 111.522 43.231C111.897 43.2008 111.897 42.6783 111.522 42.6448C110.665 42.5711 109.774 42.5711 108.916 42.6716C108.35 42.7353 107.66 42.8257 107.362 43.3717C107.325 43.442 107.372 43.5358 107.456 43.5358Z" fill="#35244B"/>
<path opacity="0.44" d="M108.236 47.4546C108.883 47.6456 109.633 47.6623 110.303 47.6724C110.923 47.6824 111.576 47.6623 112.149 47.4044C112.447 47.2704 112.222 46.8518 111.938 46.9053C111.261 47.036 110.625 47.113 109.938 47.1197C109.375 47.1231 108.782 47.0594 108.236 47.2101C108.113 47.2403 108.119 47.4178 108.236 47.4546Z" fill="#35244B"/>
<path opacity="0.44" d="M112.236 43.3648C112.055 44.6208 112.062 46.4362 112.722 47.5549C112.789 47.6654 112.933 47.6051 112.946 47.4946C113.03 46.7443 112.929 46.0075 112.879 45.2572C112.835 44.6275 112.862 43.9878 112.765 43.3648C112.725 43.1035 112.273 43.1002 112.236 43.3648Z" fill="#35244B"/>
<path opacity="0.44" d="M107.721 52.3547C107.459 53.3595 107.516 54.5117 107.52 55.5434C107.526 56.4879 107.54 57.4425 108.009 58.2832C108.062 58.3803 108.23 58.3401 108.223 58.2262C108.149 57.198 107.965 56.1931 107.945 55.1582C107.928 54.2371 108.066 53.2524 107.845 52.3514C107.828 52.2944 107.737 52.2944 107.721 52.3547Z" fill="#35244B"/>
<path opacity="0.44" d="M107.781 52.5056C108.521 52.4788 109.268 52.4118 110.008 52.4453C110.675 52.4754 111.385 52.6529 112.045 52.5056C112.142 52.4855 112.186 52.3381 112.105 52.2711C111.546 51.7921 110.705 51.7687 110.005 51.7586C109.205 51.7486 108.387 51.7854 107.707 52.2543C107.614 52.328 107.64 52.5123 107.781 52.5056Z" fill="#35244B"/>
<path opacity="0.44" d="M107.621 57.811C108.575 57.8445 109.536 57.6938 110.488 57.6235C111.271 57.5665 112.002 57.5196 112.718 57.1813C112.799 57.1445 112.782 56.9971 112.692 56.9837C111.784 56.843 110.873 56.9469 109.962 57.0541C109.128 57.1512 108.314 57.2316 107.584 57.6804C107.527 57.7172 107.55 57.8077 107.621 57.811Z" fill="#35244B"/>
<path opacity="0.44" d="M112.316 52.6462C112.105 53.9692 112.286 55.5334 112.691 56.7995C112.728 56.9201 112.936 56.9435 112.959 56.7995C113.174 55.4865 113.057 53.929 112.685 52.6462C112.635 52.4821 112.346 52.452 112.316 52.6462Z" fill="#35244B"/>
<path opacity="0.44" d="M107.741 62.9453C107.564 64.3688 107.533 65.9598 107.815 67.3732C107.842 67.5005 108.046 67.5005 108.073 67.3732C108.354 65.9598 108.327 64.3688 108.146 62.9453C108.116 62.6841 107.775 62.6841 107.741 62.9453Z" fill="#35244B"/>
<path opacity="0.44" d="M108.086 62.8685C108.789 63.0393 109.6 62.7111 110.31 62.6776C111.1 62.6407 111.921 62.7714 112.701 62.5938C112.822 62.567 112.832 62.3996 112.735 62.3393C111.958 61.8603 110.909 61.9307 110.039 62.011C109.372 62.0713 108.418 62.0981 108.036 62.7412C108.002 62.7848 108.029 62.8551 108.086 62.8685Z" fill="#35244B"/>
<path opacity="0.44" d="M108.21 67.7217C109.003 67.9394 109.891 67.8222 110.708 67.782C111.542 67.7451 112.386 67.715 113.184 67.4604C113.304 67.4236 113.304 67.2528 113.184 67.2159C112.376 66.9714 111.546 67.0116 110.708 67.0518C109.888 67.092 108.997 67.0485 108.21 67.2796C107.995 67.3432 107.989 67.6614 108.21 67.7217Z" fill="#35244B"/>
<path opacity="0.44" d="M113.177 62.9088C112.926 64.1816 112.641 65.7659 113.261 66.975C113.371 67.1927 113.736 67.0922 113.723 66.8511C113.656 65.5549 113.673 64.1883 113.448 62.9088C113.425 62.7749 113.204 62.7749 113.177 62.9088Z" fill="#35244B"/>
<path opacity="0.44" d="M107.992 72.8362C107.698 74.407 107.915 76.3664 108.156 77.944C108.173 78.0646 108.364 78.0545 108.391 77.944C108.736 76.3966 108.552 74.3836 108.227 72.8362C108.2 72.7223 108.012 72.719 107.992 72.8362Z" fill="#35244B"/>
<path opacity="0.44" d="M108.244 72.3137C109.058 72.5917 109.851 72.5281 110.702 72.4745C111.536 72.4243 112.377 72.3941 113.181 72.163C113.288 72.1329 113.291 71.9721 113.181 71.942C112.36 71.7276 111.539 71.8281 110.702 71.8917C109.878 71.9554 109.058 71.952 108.244 72.1161C108.14 72.1396 108.157 72.2836 108.244 72.3137Z" fill="#35244B"/>
<path opacity="0.44" d="M108.562 78.038C109.948 78.3395 112.299 78.738 113.535 77.8471C113.619 77.7868 113.599 77.6294 113.478 77.6327C112.628 77.6629 111.797 77.7734 110.94 77.75C110.139 77.7299 109.352 77.6294 108.562 77.7801C108.431 77.8069 108.434 78.0112 108.562 78.038Z" fill="#35244B"/>
<path opacity="0.44" d="M113.297 72.2166C113.354 73.5162 113.492 74.8225 113.579 76.1187C113.596 76.3498 113.977 76.4402 114.014 76.179C114.205 74.8928 114.343 73.2952 113.629 72.1262C113.542 71.9822 113.291 72.0358 113.297 72.2166Z" fill="#35244B"/>
<path opacity="0.44" d="M108.535 83.0987C108.224 84.8404 107.862 87.2118 108.666 88.863C108.723 88.9769 108.887 88.8932 108.863 88.7793C108.471 86.8802 108.94 84.9844 108.659 83.0987C108.649 83.0351 108.545 83.0384 108.535 83.0987Z" fill="#35244B"/>
<path opacity="0.44" d="M108.759 83.4171C109.469 83.387 110.133 83.32 110.846 83.3803C111.466 83.4339 112.072 83.4707 112.692 83.3836C112.795 83.3702 112.795 83.1927 112.692 83.176C111.449 82.9817 109.868 82.553 108.689 83.1592C108.565 83.2195 108.622 83.4238 108.759 83.4171Z" fill="#35244B"/>
<path opacity="0.44" d="M108.92 88.8765C109.838 88.9167 110.792 88.8329 111.713 88.7961C112.464 88.766 113.147 88.6956 113.83 88.3674C113.884 88.3406 113.857 88.2602 113.8 88.2602C112.303 88.2703 110.203 87.8918 108.887 88.7459C108.826 88.7861 108.85 88.8731 108.92 88.8765Z" fill="#35244B"/>
<path opacity="0.44" d="M112.99 83.5576C112.675 84.9141 112.802 86.8568 113.154 88.1999C113.194 88.3573 113.432 88.3573 113.472 88.1999C113.807 86.8434 113.69 84.9007 113.308 83.5576C113.268 83.4069 113.03 83.3969 112.99 83.5576Z" fill="#35244B"/>
<path opacity="0.44" d="M108.485 95.1198C108.304 96.0342 108.317 96.9854 108.31 97.9166C108.3 98.8443 108.217 99.819 108.444 100.723C108.481 100.874 108.712 100.874 108.749 100.723C108.977 99.819 108.89 98.8443 108.883 97.9166C108.873 96.9854 108.89 96.0375 108.709 95.1198C108.685 95.0126 108.508 95.0126 108.485 95.1198Z" fill="#35244B"/>
<path opacity="0.44" d="M108.595 95.5654C110.035 95.6022 111.596 95.9975 113.023 95.7663C113.15 95.7462 113.15 95.5285 113.023 95.5084C111.636 95.2941 109.925 94.8788 108.571 95.3879C108.481 95.4247 108.491 95.562 108.595 95.5654Z" fill="#35244B"/>
<path opacity="0.44" d="M113.23 95.7999C113.388 97.4109 112.946 99.1761 113.448 100.73C113.502 100.898 113.796 100.938 113.827 100.73C114.058 99.1426 114.151 97.21 113.381 95.7563C113.348 95.6894 113.22 95.7195 113.23 95.7999Z" fill="#35244B"/>
<path opacity="0.44" d="M137.728 36.3278C137.477 35.7751 136.964 35.2526 136.499 34.7937C136.857 34.2411 137.165 33.675 137.453 33.0587C137.49 32.9784 137.393 32.8879 137.323 32.9583C136.881 33.4171 136.472 33.8827 136.067 34.365C135.548 33.8559 135.018 33.5109 134.298 33.32C134.268 33.3133 134.255 33.3501 134.278 33.3669C134.821 33.732 135.296 34.2612 135.725 34.7736C135.678 34.8306 135.631 34.8842 135.585 34.9411C135.092 35.544 134.449 36.11 134.107 36.8134C134.014 37.0077 134.201 37.1886 134.395 37.1015C135.099 36.7766 135.578 36.0699 136.033 35.4636C136.074 35.41 136.11 35.3531 136.147 35.2995C136.512 35.7852 136.897 36.3679 137.437 36.6125C137.638 36.7029 137.819 36.522 137.728 36.3278Z" fill="#35244B"/>
<path opacity="0.44" d="M114.959 44.4704C116.342 44.1254 117.899 44.5943 119.3 44.6647C121.235 44.7584 123.198 44.6379 125.134 44.5441C127.047 44.4503 128.959 44.3498 130.875 44.3096C132.861 44.2694 134.931 44.4469 136.897 44.1924C137.011 44.179 137.068 43.9881 136.927 43.968C135.052 43.7134 133.086 43.8742 131.193 43.8976C128.959 43.9278 126.729 44.0082 124.494 44.0685C122.559 44.1221 120.582 44.2359 118.65 44.0651C117.35 43.9512 116.114 43.7637 114.902 44.3431C114.831 44.3766 114.882 44.4905 114.959 44.4704Z" fill="#35244B"/>
<path opacity="0.44" d="M116.422 46.2655C118.318 45.7263 120.257 46.0947 122.183 46.232C124.779 46.4163 127.479 46.3526 130.065 46.0914C130.145 46.0847 130.148 45.9708 130.065 45.9641C127.254 45.7263 124.417 45.944 121.604 45.7162C120.006 45.5856 117.772 45.1268 116.362 46.1249C116.298 46.1751 116.335 46.2923 116.422 46.2655Z" fill="#35244B"/>
<path opacity="0.44" d="M114.614 53.45C117.836 53.7314 121.205 53.2223 124.438 53.0983C127.703 52.9744 131.046 53.1419 134.295 52.8036C134.432 52.7902 134.436 52.6026 134.295 52.5859C130.956 52.2476 127.469 52.5189 124.119 52.6093C120.998 52.6964 117.645 52.549 114.587 53.2457C114.47 53.2792 114.507 53.44 114.614 53.45Z" fill="#35244B"/>
<path opacity="0.44" d="M119.983 54.8434C121.634 54.8032 123.272 54.9238 124.92 54.887C126.926 54.8434 128.892 54.5721 130.879 54.3176C131.076 54.2941 131.086 53.9893 130.879 53.9994C128.681 54.1166 126.488 54.3511 124.287 54.3946C122.89 54.4214 121.222 54.053 119.963 54.7798C119.94 54.7999 119.95 54.8468 119.983 54.8434Z" fill="#35244B"/>
<path opacity="0.44" d="M115.753 63.3607C118.871 63.0459 122.01 63.1263 125.121 62.7612C128.303 62.386 131.421 61.9506 134.62 61.7564C134.734 61.7497 134.774 61.5688 134.65 61.5453C131.71 60.9759 128.558 61.7329 125.637 62.1549C122.371 62.6272 118.908 62.2588 115.73 63.1899C115.636 63.2133 115.649 63.3708 115.753 63.3607Z" fill="#35244B"/>
<path opacity="0.44" d="M117.045 64.5967C118.409 64.9216 119.909 64.7239 121.303 64.6938C122.924 64.6603 124.548 64.6436 126.159 64.466C126.233 64.4593 126.233 64.3589 126.159 64.3522C124.545 64.188 122.92 64.2517 121.303 64.3019C119.906 64.3455 118.405 64.2115 117.045 64.5464C117.022 64.5531 117.022 64.59 117.045 64.5967Z" fill="#35244B"/>
<path opacity="0.44" d="M116.403 73.8947C121.906 73.2449 127.57 74.099 133.039 73.0339C133.2 73.0037 133.207 72.7291 133.039 72.7023C130.226 72.2401 127.198 72.9903 124.357 73.0506C121.661 73.1042 119.005 73.0439 116.389 73.7942C116.336 73.8076 116.346 73.9014 116.403 73.8947Z" fill="#35244B"/>
<path opacity="0.44" d="M116.892 75.3148C122.85 75.4488 128.846 75.4186 134.784 74.7957C134.962 74.7756 134.965 74.5311 134.784 74.5177C131.629 74.233 128.404 74.866 125.248 74.9531C122.472 75.0301 119.595 74.4808 116.848 74.9799C116.65 75.0134 116.704 75.3115 116.892 75.3148Z" fill="#35244B"/>
<path opacity="0.44" d="M115.294 84.5258C118.694 83.6382 122.258 84.0971 125.728 83.7588C129.301 83.4104 132.818 82.9248 136.409 82.7673C136.59 82.7606 136.586 82.5061 136.409 82.4893C132.651 82.1142 128.869 83.042 125.145 83.3937C121.829 83.7052 118.466 83.3568 115.234 84.3081C115.093 84.3483 115.153 84.5626 115.294 84.5258Z" fill="#35244B"/>
<path opacity="0.44" d="M115.394 86.1568C117.813 86.4884 120.375 86.0262 122.787 85.7683C125.426 85.4869 128.075 85.373 130.715 85.1252C130.795 85.1185 130.798 85.0046 130.715 84.9979C128.082 84.807 125.406 85.1888 122.787 85.4032C120.342 85.6042 117.816 85.5539 115.394 85.9223C115.281 85.9424 115.281 86.1434 115.394 86.1568Z" fill="#35244B"/>
<path opacity="0.44" d="M115.575 96.9888C117.99 97.5817 120.887 97.3975 123.363 97.3506C125.848 97.3037 128.588 97.2367 130.925 96.2955C131.14 96.2084 131.059 95.917 130.832 95.9539C128.142 96.3692 125.54 96.7075 122.81 96.7644C120.479 96.8147 117.863 96.4462 115.575 96.8884C115.528 96.9018 115.528 96.9788 115.575 96.9888Z" fill="#35244B"/>
<path opacity="0.44" d="M115.807 99.243C117.977 98.5865 120.251 99.1258 122.469 99.1158C124.991 99.1024 127.556 98.9382 130.065 98.7205C130.259 98.7038 130.263 98.4291 130.065 98.4157C127.355 98.2449 124.639 98.7172 121.926 98.6636C119.833 98.62 117.739 98.2148 115.699 98.8679C115.462 98.9416 115.562 99.3167 115.807 99.243Z" fill="#35244B"/>
<path d="M108.126 43.5691C108.866 44.4936 109.543 45.3644 110.042 46.4463C110.122 46.6204 110.41 46.6137 110.491 46.4463C110.909 45.5821 111.315 44.7079 111.807 43.884C112.353 42.9662 113.056 42.2227 113.736 41.4088C113.817 41.315 113.743 41.1174 113.599 41.1743C111.69 41.9279 110.829 44.4701 110.042 46.1817C110.193 46.1817 110.34 46.1817 110.491 46.1817C109.971 45.1065 109.302 44.0849 108.414 43.2777C108.216 43.1036 107.965 43.3682 108.126 43.5691Z" fill="#F47577"/>
<path d="M108.089 53.691C108.829 54.5518 109.797 55.2652 110.668 55.9954C110.819 56.1193 111.027 56.1092 111.137 55.9351C112.219 54.2168 113.75 52.5488 114.46 50.633C114.52 50.4655 114.279 50.3315 114.162 50.4588C112.798 51.9761 111.686 53.8986 110.621 55.6336C110.759 55.5968 110.893 55.5633 111.03 55.5264C110.075 54.9034 109.154 54.1331 108.119 53.6508C108.096 53.6407 108.069 53.6709 108.089 53.691Z" fill="#F47577"/>
<path d="M107.928 34.4724C107.69 34.8107 107.543 35.1188 107.694 35.5308C107.801 35.8222 108.039 36.0466 108.323 36.1538C109.047 36.4284 109.904 36.0365 110.199 35.3265C110.477 34.6633 110.015 34.0302 109.409 33.7757C108.883 33.5546 107.767 33.5312 107.617 34.2714C107.587 34.4154 107.734 34.5427 107.868 34.4657C108.059 34.3551 108.193 34.1944 108.411 34.1307C108.625 34.0671 108.856 34.0872 109.07 34.1508C109.469 34.2681 109.941 34.6063 109.827 35.0786C109.7 35.6179 109.057 35.9562 108.538 35.8188C107.922 35.6547 107.761 35.0451 107.965 34.4858C107.972 34.4657 107.942 34.4556 107.928 34.4724Z" fill="#F47577"/>
<path d="M112.283 34.2882C111.938 34.8107 112.082 35.4471 112.618 35.7786C113.214 36.1471 113.954 35.8724 114.343 35.3298C114.657 34.8911 114.497 34.3853 114.034 34.1341C113.653 33.9264 112.819 33.7857 112.557 34.258C112.514 34.3384 112.567 34.4389 112.661 34.4389C113.01 34.4422 113.304 34.2982 113.663 34.4087C113.951 34.4992 114.242 34.7269 114.065 35.0485C113.844 35.4437 113.304 35.7016 112.872 35.5341C112.383 35.3432 112.236 34.8006 112.4 34.3351C112.423 34.2647 112.32 34.2279 112.283 34.2882Z" fill="#F47577"/>
<path d="M116.362 34.6027C116.108 34.8104 115.934 35.0114 116.057 35.363C116.145 35.6143 116.356 35.7951 116.593 35.9023C117.123 36.1435 117.809 36.0664 118.255 35.6812C118.7 35.2994 118.683 34.4822 118.141 34.1908C117.612 33.9061 116.644 34.0333 116.225 34.4654C116.021 34.6764 116.275 34.9712 116.526 34.8539C116.905 34.6764 117.334 34.509 117.759 34.586C118.214 34.6697 118.365 35.1956 117.933 35.4434C117.642 35.6109 117.176 35.5774 116.871 35.4635C116.53 35.3363 116.423 34.9812 116.459 34.6362C116.466 34.5893 116.396 34.5759 116.362 34.6027Z" fill="#F47577"/>
<path opacity="0.43" d="M108.886 101.129C110.27 101.48 111.891 101.216 113.311 101.246C113.385 101.246 113.418 101.139 113.348 101.105C112.068 100.449 110.24 100.516 108.883 100.888C108.769 100.918 108.766 101.099 108.886 101.129Z" fill="#35244B"/>
<path d="M52.2715 96.503C51.8126 96.7676 51.3571 97.0489 50.8882 97.2834C48.7245 95.1766 46.4603 93.1134 44.3301 90.9296C42.9032 89.4659 41.6003 87.9721 40.3644 86.3543C39.7079 85.4969 38.5858 84.626 38.405 83.5408C38.5791 85.8586 35.012 88.5582 33.334 89.4893C31.4717 90.5243 29.7702 91.1205 27.6266 91.0301C26.6184 90.9865 25.7811 90.799 24.7964 91.0234C24.1097 91.1808 23.8786 91.3516 23.1384 91.2076C21.4637 90.8827 20.4622 89.5999 18.9584 88.9702C18.0205 88.5783 17.076 88.8295 16.1918 88.2266C15.4147 87.6974 14.7683 86.8132 14.2223 86.0629C13.5859 85.1921 13.2175 84.4552 12.3601 83.782C11.506 83.1121 10.749 82.6365 10.2533 81.6484C9.50302 80.1512 9.47622 78.3961 8.4647 77.0932C7.60056 75.9812 7.3594 74.6046 6.50195 73.5663C5.9493 72.8964 4.90429 72.1864 4.96458 71.2385C5.80528 72.3203 8.33073 72.6218 9.17812 71.483C8.00918 72.0155 5.83877 70.9069 5.11195 70.0193C3.91287 68.5523 3.52099 66.3417 4.58275 64.7373C4.39518 66.6733 7.01776 66.5225 8.13646 66.4924C9.52311 66.4555 10.8662 66.7838 12.273 66.613C10.7222 64.7172 7.46658 64.4057 5.50048 62.8114C3.66501 61.3243 1.86304 58.5409 2.81092 56.0557C2.63675 57.9213 4.93444 59.2711 6.26415 60.162C7.42304 60.9391 8.56853 62.2688 10.0289 62.1482C9.47622 61.2941 7.89195 60.8955 7.05126 60.3127C4.75692 58.7251 2.55971 55.4293 2.86116 52.5087C3.15256 49.6717 6.12347 47.4846 7.30581 44.9591C6.63593 45.9405 9.25851 46.128 9.81116 46.4094C11.7806 47.3975 12.4438 49.4507 12.8457 51.4938C13.4118 54.3743 13.9209 57.3418 15.0128 60.085C16.1918 63.0492 17.8095 64.9751 20.1307 67.1489C24.8667 71.5902 29.2846 75.9209 35.0991 78.9053C36.8441 79.7995 38.0767 80.3455 39.0983 82.124C40.2069 84.0533 41.3725 85.8653 43.0774 87.329C45.231 89.1812 47.0464 91.2679 49.0828 93.2373C49.7829 93.9139 50.6102 94.3292 51.2968 95.0025C51.7054 95.4111 51.7088 96.4059 52.2715 96.503Z" fill="#957FA5"/>
<path d="M3.77916 53.986C4.86771 55.8784 6.29121 57.3254 8.42812 57.9651C10.0392 58.4474 11.6569 58.8091 13.0838 59.747C13.1575 59.7972 13.0938 59.9077 13.0168 59.8676C11.1076 58.8828 8.89369 58.9967 7.05152 57.811C5.68497 56.9335 4.23803 55.5937 3.77246 53.9894C3.77246 53.986 3.77916 53.9827 3.77916 53.986Z" fill="#7B648E"/>
<path d="M5.59116 61.2139C7.54721 62.1183 9.13817 63.3441 11.332 63.6925C13.2211 63.9906 15.1001 64.158 16.8418 65.0155C16.8719 65.0322 16.8518 65.0758 16.8183 65.0691C14.7585 64.6839 12.5713 64.5935 10.5617 63.9604C8.79319 63.4044 7.0649 62.3159 5.58781 61.2206C5.58446 61.2173 5.58781 61.2106 5.59116 61.2139Z" fill="#7B648E"/>
<path d="M6.82064 69.095C9.03459 69.785 10.8466 69.5975 13.0405 68.9376C15.0635 68.3314 17.2373 68.3783 19.2302 67.6849C19.2771 67.6682 19.3038 67.7419 19.2637 67.7653C17.2239 68.9041 14.7118 69.1687 12.4409 69.5974C10.6691 69.9324 8.425 70.053 6.81394 69.1151C6.80055 69.1084 6.80724 69.0917 6.82064 69.095Z" fill="#7B648E"/>
<path d="M8.01939 73.781C10.2802 74.5346 12.5511 74.0155 14.7014 73.1949C17.3207 72.1934 19.9165 71.8015 22.6697 71.4096C22.7065 71.4029 22.7233 71.4565 22.6831 71.4666C19.7356 72.103 16.8886 73.1647 13.9378 73.8145C12.042 74.2332 9.86156 74.5313 8.0127 73.7877C8.0127 73.7877 8.0127 73.781 8.01939 73.781Z" fill="#7B648E"/>
<path d="M11.5965 81.27C14.2693 81.0255 16.1918 79.401 18.4828 78.1819C20.6867 77.0096 23.0414 76.065 25.3524 75.1172C25.3926 75.1004 25.4094 75.1607 25.3792 75.1841C23.0648 76.889 20.1944 78.0077 17.5852 79.1833C15.8368 79.9704 13.5961 81.558 11.5965 81.2934C11.5831 81.2901 11.5831 81.2733 11.5965 81.27Z" fill="#7B648E"/>
<path d="M17.3406 86.0094C21.1891 83.1189 24.4782 79.2839 28.9295 77.234C28.9831 77.2072 29.03 77.2809 28.9764 77.3144C27.995 77.9474 27.1778 78.7613 26.2265 79.4312C25.1949 80.158 24.1734 80.8882 23.1652 81.6485C21.2259 83.1089 19.2966 84.5759 17.3573 86.0362C17.3372 86.0463 17.3238 86.0195 17.3406 86.0094Z" fill="#7B648E"/>
<path d="M23.504 88.6857C25.0983 84.9612 28.6419 82.141 31.4487 79.3643C31.4588 79.3543 31.4722 79.3677 31.4655 79.3811C30.0889 80.962 28.8228 82.6702 27.3491 84.154C25.9323 85.5808 24.5523 86.944 23.5274 88.6958C23.514 88.7092 23.4973 88.6991 23.504 88.6857Z" fill="#7B648E"/>
<path d="M33.6086 79.7461C33.1263 81.3773 32.2621 82.7137 31.4884 84.2176C30.8185 85.5238 30.2759 87.1583 29.0902 88.0962C29.0467 88.1297 28.9931 88.0794 29.0266 88.0359C30.0314 86.7296 30.4133 85.2157 31.1736 83.7821C31.9104 82.3988 32.9253 81.1596 33.5918 79.7428C33.5985 79.7327 33.6119 79.7361 33.6086 79.7461Z" fill="#7B648E"/>
<path d="M34.7174 80.1748C34.8481 80.7643 34.8816 81.2768 35.1696 81.8361C35.4108 82.3084 35.6955 82.7003 35.7926 83.2295C36.0338 84.5491 35.4845 85.9693 34.6906 86.9976C34.6706 87.0243 34.6237 86.9942 34.6371 86.9674C35.2466 85.3965 35.4141 83.8391 34.9686 82.2113C34.838 81.739 34.1614 80.56 34.7141 80.1748C34.7141 80.1715 34.7141 80.1748 34.7174 80.1748Z" fill="#7B648E"/>
<path d="M53.2325 112.251C52.9746 112.034 52.7033 111.822 52.4588 111.595C53.2459 109.833 53.9862 108.024 54.8269 106.266C55.3896 105.09 55.9991 103.978 56.6992 102.883C57.071 102.3 57.3456 101.436 57.9552 101.091C56.6054 101.704 54.2005 100.16 53.2727 99.356C52.2445 98.4685 51.511 97.5775 51.0956 96.2712C50.898 95.6583 50.8277 95.1123 50.4793 94.5731C50.2348 94.1946 50.0808 94.0975 50.0037 93.6185C49.8296 92.5434 50.3789 91.6591 50.4257 90.6208C50.4559 89.9744 50.0975 89.4619 50.265 88.7987C50.4124 88.2193 50.8009 87.6365 51.1291 87.1408C51.511 86.568 51.8727 86.1862 52.0871 85.523C52.3014 84.8632 52.422 84.3038 52.9043 83.7914C53.6378 83.011 54.6828 82.6124 55.2422 81.7181C55.7211 80.9544 56.4915 80.509 56.9269 79.7654C57.2083 79.2864 57.4025 78.5027 57.9853 78.3319C57.5231 79.0754 57.8949 80.6564 58.7658 80.9109C58.1897 80.3281 58.3772 78.7807 58.7524 78.151C59.3686 77.1093 60.6079 76.3892 61.8037 76.6739C60.6012 76.9888 61.2678 78.5261 61.5324 79.1893C61.8572 80.0133 61.9577 80.8908 62.3697 81.6947C63.1669 80.3482 62.6377 78.3252 63.1602 76.7978C63.6492 75.371 64.9219 73.6762 66.6201 73.703C65.4645 74.0078 65.1598 75.6825 64.9186 76.6773C64.7076 77.5414 64.1616 78.5228 64.5569 79.3702C64.9487 78.851 64.8382 77.8127 65.0023 77.183C65.4511 75.4581 66.9416 73.4183 68.7604 72.9561C70.5255 72.5073 72.4882 73.8068 74.2634 73.9609C73.5265 73.7733 73.9921 75.3877 73.9452 75.783C73.7844 77.183 72.6992 78.0304 71.5638 78.7204C69.9594 79.6917 68.2948 80.6497 66.888 81.909C65.3708 83.2655 64.5703 84.6589 63.7764 86.5278C62.1553 90.3428 60.5275 93.9434 60.0184 98.0833C59.8644 99.3259 59.8108 100.187 58.9667 101.188C58.0557 102.277 57.225 103.375 56.7193 104.718C56.0829 106.417 55.2321 107.964 54.4953 109.619C54.2441 110.188 54.1737 110.774 53.9225 111.333C53.7651 111.675 53.1689 111.896 53.2325 112.251Z" fill="#957FA5"/>
<path d="M68.0671 73.8369C67.1728 74.9053 66.6168 76.0776 66.7039 77.4978C66.7675 78.5696 66.9049 79.618 66.6604 80.6797C66.647 80.7333 66.5666 80.7232 66.5733 80.6663C66.7441 79.3065 66.1881 78.0035 66.4962 76.637C66.724 75.6255 67.2063 74.4632 68.0671 73.8335C68.0671 73.8302 68.0705 73.8335 68.0671 73.8369Z" fill="#7B648E"/>
<path d="M64.1314 76.51C64.0175 77.8832 63.6323 79.1057 63.907 80.4957C64.1448 81.6948 64.4563 82.8571 64.3223 84.0896C64.319 84.1131 64.2888 84.1064 64.2855 84.0896C64.0644 82.77 63.639 81.4403 63.5754 80.0938C63.5184 78.9115 63.7931 77.6354 64.1247 76.51C64.128 76.5066 64.1314 76.5066 64.1314 76.51Z" fill="#7B648E"/>
<path d="M59.6768 78.9783C59.7505 80.4587 60.2596 81.5004 61.1371 82.6727C61.9443 83.7512 62.3965 85.0675 63.2472 86.1092C63.2673 86.1326 63.2305 86.1661 63.207 86.146C62.0749 85.1747 61.3649 83.7244 60.6079 82.4583C60.0184 81.4702 59.4524 80.1506 59.66 78.9783C59.6634 78.9716 59.6768 78.9716 59.6768 78.9783Z" fill="#7B648E"/>
<path d="M57.1315 80.7302C57.175 82.2508 57.9856 83.5001 58.9502 84.6054C60.1259 85.9552 60.9331 87.4256 61.7704 88.9898C61.7805 89.0099 61.7537 89.0333 61.7403 89.0099C60.7086 87.3821 59.4493 85.9083 58.411 84.2839C57.7444 83.2389 57.0846 81.9962 57.1248 80.7268C57.1248 80.7268 57.1315 80.7268 57.1315 80.7302Z" fill="#7B648E"/>
<path d="M53.4269 84.5216C54.1605 86.069 55.5572 86.8661 56.7931 87.9714C57.9821 89.0366 59.064 90.239 60.1391 91.4146C60.1592 91.4347 60.1257 91.4582 60.1056 91.4448C58.575 90.4333 57.272 88.9562 55.9959 87.6499C55.1385 86.7757 53.6949 85.7809 53.4169 84.5249C53.4102 84.5149 53.4236 84.5115 53.4269 84.5216Z" fill="#7B648E"/>
<path d="M51.8491 89.003C54.4282 90.6744 57.4527 91.8065 59.6566 94.0204C59.6834 94.0472 59.6499 94.0908 59.6164 94.0673C59.0202 93.6185 58.3536 93.307 57.7407 92.885C57.0809 92.4261 56.4143 91.974 55.7378 91.5352C54.4382 90.6945 53.1319 89.8605 51.8324 89.0164C51.8257 89.0097 51.8391 88.9963 51.8491 89.003Z" fill="#7B648E"/>
<path d="M51.5983 93.2867C54.1807 93.4241 56.6525 94.9279 58.9335 95.9998C58.9402 96.0031 58.9368 96.0165 58.9268 96.0132C57.6774 95.5342 56.3745 95.1524 55.1587 94.593C53.9931 94.0571 52.8711 93.5279 51.5949 93.3001C51.5849 93.3001 51.5882 93.2867 51.5983 93.2867Z" fill="#7B648E"/>
<path d="M59.1776 97.38C58.0958 97.4503 57.101 97.2226 56.0292 97.0919C55.098 96.9781 53.9994 97.0116 53.1788 96.5058C53.1487 96.4857 53.1688 96.4455 53.2023 96.4556C54.2071 96.7704 55.1985 96.6666 56.2234 96.8072C57.2149 96.9446 58.1828 97.2829 59.1776 97.3699C59.1843 97.3733 59.1843 97.38 59.1776 97.38Z" fill="#7B648E"/>
<path d="M59.1641 98.1402C58.8392 98.3479 58.5411 98.4818 58.2665 98.7766C58.0354 99.0244 57.8645 99.2823 57.5698 99.4565C56.8296 99.8919 55.8616 99.8718 55.0678 99.624C55.0477 99.6173 55.0544 99.5838 55.0745 99.5838C56.1497 99.6039 57.121 99.3627 57.9985 98.7364C58.2531 98.5555 58.8124 97.889 59.1641 98.1368V98.1402Z" fill="#7B648E"/>
<path d="M43.9517 86.3472C43.8546 86.6688 43.7608 87.0004 43.6469 87.3152C41.7177 87.275 39.7616 87.3018 37.8156 87.208C36.5127 87.1477 35.25 87.0171 33.9705 86.8027C33.2906 86.6889 32.3863 86.7726 31.8303 86.3439C32.9222 87.3487 32.4332 90.1655 32.058 91.3311C31.6393 92.6273 31.1068 93.6456 30.0651 94.5399C29.5761 94.9619 29.1039 95.2365 28.7421 95.7691C28.4909 96.1409 28.4574 96.3217 28.0488 96.5796C27.1244 97.1591 26.0994 96.995 25.1248 97.36C24.5185 97.5844 24.1836 98.1137 23.5104 98.2208C22.9175 98.3113 22.2309 98.1806 21.6481 98.0701C20.9715 97.9395 20.4792 97.7586 19.7858 97.8189C19.0959 97.8792 18.5332 97.9864 17.8733 97.7419C16.8719 97.3701 16.0914 96.5629 15.0531 96.3954C14.1655 96.2514 13.4521 95.7155 12.598 95.605C12.0487 95.5346 11.2516 95.6586 10.8664 95.1896C11.7305 95.327 13.0401 94.369 12.9397 93.468C12.6248 94.225 11.131 94.6537 10.4042 94.5566C9.20508 94.3958 8.05959 93.535 7.85528 92.3226C8.61224 93.3073 9.76778 92.0948 10.2769 91.5924C10.9066 90.9694 11.6769 90.5373 12.2597 89.8473C10.709 89.6397 9.05436 90.9124 7.4433 91.0263C5.93942 91.1335 3.88289 90.621 3.24316 89.0468C3.97333 89.9947 5.63463 89.6229 6.6428 89.4555C7.52034 89.3114 8.63569 89.432 9.26537 88.742C8.63569 88.5846 7.7213 89.0904 7.07487 89.1842C5.31308 89.4421 2.85128 88.8626 1.71583 87.3688C0.61388 85.9185 1.04595 83.6041 0.5 81.9093C0.61388 82.6595 1.92014 81.6045 2.30198 81.4939C3.65178 81.0954 4.85757 81.7652 5.93272 82.5423C7.45335 83.6409 8.98402 84.7998 10.6889 85.607C12.531 86.4745 14.1253 86.6688 16.1551 86.6721C20.3016 86.6788 24.2506 86.7726 28.2632 85.6305C29.4689 85.2888 30.2795 85.0041 31.5322 85.3893C32.892 85.8046 34.2251 86.1429 35.6586 86.0826C37.4706 86.0089 39.2291 86.1898 41.0344 86.22C41.6574 86.23 42.2234 86.0659 42.8364 86.0793C43.2115 86.0826 43.6469 86.5448 43.9517 86.3472Z" fill="#957FA5"/>
<path d="M2.79095 87.6501C4.12401 88.0587 5.41687 88.1123 6.69634 87.4792C7.65762 87.0003 8.57201 86.4677 9.64381 86.2802C9.70075 86.2701 9.7175 86.3505 9.66391 86.3672C8.34425 86.739 7.35953 87.7572 5.98292 88.0085C4.96136 88.1927 3.70533 88.1994 2.7876 87.6534C2.7876 87.6534 2.7876 87.6501 2.79095 87.6501Z" fill="#7B648E"/>
<path d="M6.78669 90.2326C8.09296 89.8039 9.36908 89.68 10.5447 88.8862C11.5562 88.2029 12.5041 87.4593 13.6931 87.1009C13.7132 87.0942 13.7233 87.1244 13.7065 87.1344C12.5778 87.8512 11.5194 88.7622 10.3036 89.345C9.2351 89.8575 7.95563 90.102 6.78669 90.236C6.78334 90.236 6.78334 90.2326 6.78669 90.2326Z" fill="#7B648E"/>
<path d="M10.7961 93.3742C12.1292 92.7312 12.8929 91.8536 13.6297 90.5875C14.3097 89.4219 15.3446 88.4942 15.971 87.3051C15.9843 87.2783 16.0312 87.2984 16.0212 87.3286C15.5657 88.7487 14.5106 89.9679 13.6364 91.1569C12.9565 92.0847 11.9617 93.1197 10.7995 93.3843C10.7928 93.3876 10.7894 93.3776 10.7961 93.3742Z" fill="#7B648E"/>
<path d="M13.3985 95.039C14.7818 94.406 15.6158 93.1734 16.2588 91.8537C17.0426 90.246 18.0843 88.9297 19.1996 87.5464C19.213 87.5297 19.2465 87.5464 19.2298 87.5665C18.1312 89.1508 17.267 90.8824 16.1751 92.4734C15.4717 93.4949 14.5841 94.5835 13.3985 95.0424C13.3985 95.0424 13.3951 95.039 13.3985 95.039Z" fill="#7B648E"/>
<path d="M18.332 96.9714C19.4741 95.692 19.6617 94.0943 20.1976 92.5301C20.7134 91.0229 21.4 89.5559 22.0665 88.1056C22.0799 88.0788 22.1134 88.1022 22.1067 88.1257C21.7718 89.931 20.9177 91.7028 20.2143 93.3876C19.7421 94.5197 19.387 96.2346 18.3387 96.9815C18.3353 96.9882 18.3286 96.9781 18.332 96.9714Z" fill="#7B648E"/>
<path d="M23.0781 96.6803C23.614 93.6524 23.4767 90.4303 24.659 87.5331C24.6724 87.4962 24.726 87.513 24.7159 87.5498C24.5351 88.2733 24.5083 89.0102 24.3575 89.737C24.1934 90.5241 24.036 91.3146 23.8953 92.105C23.6274 93.6323 23.3661 95.1563 23.0982 96.6836C23.0915 96.697 23.0747 96.6903 23.0781 96.6803Z" fill="#7B648E"/>
<path d="M27.1211 95.2398C26.2402 92.8082 26.6656 89.9478 26.7627 87.429C26.7627 87.419 26.7761 87.419 26.7761 87.429C26.823 88.7655 26.9771 90.1153 26.9369 91.4517C26.8967 92.7345 26.8464 93.9738 27.1345 95.2365C27.1345 95.2465 27.1244 95.2499 27.1211 95.2398Z" fill="#7B648E"/>
<path d="M27.9383 86.662C28.4239 87.6334 28.6048 88.6348 28.8995 89.6731C29.1575 90.5741 29.6163 91.5723 29.4723 92.5268C29.4656 92.5637 29.4187 92.5603 29.4154 92.5268C29.3149 91.4785 28.8326 90.6076 28.5613 89.6062C28.3 88.6382 28.2364 87.6166 27.9282 86.6654C27.9282 86.662 27.9349 86.6587 27.9383 86.662Z" fill="#7B648E"/>
<path d="M28.6415 86.3807C28.9597 86.5984 29.1975 86.8229 29.576 86.9602C29.8941 87.0741 30.1989 87.1344 30.4736 87.3387C31.1602 87.8511 31.522 88.7521 31.6023 89.5761C31.6057 89.5962 31.5722 89.6029 31.5621 89.5861C31.1636 88.588 30.5607 87.7875 29.6429 87.2214C29.375 87.0573 28.5443 86.8028 28.6348 86.3807C28.6381 86.3807 28.6415 86.3807 28.6415 86.3807Z" fill="#7B648E"/>
<path d="M48.125 99.8891C48.2824 100.103 48.4365 100.325 48.604 100.529C49.9839 100.03 51.4041 99.5709 52.784 99.0283C53.7084 98.6666 54.5826 98.2613 55.4501 97.789C55.909 97.5378 56.5856 97.3804 56.8736 96.9283C56.3545 97.9364 57.4564 99.8958 58.0392 100.666C58.6856 101.52 59.3421 102.143 60.3302 102.549C60.7958 102.739 61.2111 102.827 61.613 103.135C61.8944 103.349 61.9647 103.473 62.3298 103.563C63.1504 103.768 63.8471 103.396 64.6476 103.426C65.1466 103.446 65.5285 103.754 66.0443 103.667C66.4964 103.59 66.9587 103.326 67.3472 103.101C67.7994 102.84 68.1075 102.585 68.6233 102.461C69.1358 102.338 69.5712 102.281 69.9832 101.939C70.6062 101.42 70.9545 100.633 71.6579 100.258C72.2608 99.936 72.6325 99.3666 73.2187 99.0752C73.5972 98.8876 74.2068 98.7838 74.3575 98.345C73.7713 98.6565 72.5689 98.268 72.4014 97.578C72.8302 98.0603 74.0225 98.0135 74.5216 97.7622C75.3422 97.3503 75.9417 96.4359 75.7676 95.4914C75.4829 96.4024 74.3273 95.7895 73.8249 95.5449C73.2053 95.2402 72.5321 95.1095 71.9292 94.7377C72.9909 94.2052 74.5283 94.7444 75.7207 94.4329C76.836 94.1449 78.1825 93.264 78.2227 91.9477C77.948 92.8252 76.6485 92.9559 75.8781 93.0798C75.2049 93.187 74.4345 93.5487 73.7948 93.1903C74.2068 92.919 75.0006 93.0697 75.4929 92.9827C76.8327 92.7448 78.4538 91.7166 78.8758 90.3366C79.2844 88.9969 78.3533 87.3925 78.2997 86.0059C78.417 86.5887 77.1911 86.1264 76.8896 86.1365C75.8078 86.1733 75.1178 86.9604 74.5484 87.7978C73.7445 88.9801 72.9474 90.2094 71.9325 91.2209C70.8339 92.3128 69.7353 92.8453 68.2716 93.341C65.2806 94.3593 62.4571 95.3909 59.2584 95.5249C58.2971 95.565 57.6339 95.555 56.8334 96.1445C55.9626 96.7842 55.0917 97.357 54.04 97.6651C52.7103 98.0536 51.4945 98.613 50.1983 99.0786C49.7528 99.2393 49.3006 99.2527 48.8585 99.4135C48.5872 99.514 48.3963 99.9628 48.125 99.8891Z" fill="#957FA5"/>
<path d="M78.1722 90.8124C77.3181 91.4387 76.4004 91.7971 75.3085 91.6397C74.4879 91.5225 73.6874 91.3483 72.8601 91.4722C72.8165 91.4789 72.8232 91.5426 72.8668 91.5392C73.9185 91.4923 74.8998 92.0048 75.9583 91.8541C76.7487 91.7435 77.6598 91.4421 78.1722 90.8124C78.1756 90.8124 78.1722 90.8091 78.1722 90.8124Z" fill="#7B648E"/>
<path d="M75.9784 93.6928C74.92 93.6928 73.9654 93.9138 72.907 93.6157C71.996 93.3578 71.1117 93.0396 70.1605 93.0664C70.1438 93.0664 70.1438 93.0899 70.1605 93.0966C71.1687 93.3511 72.1735 93.7664 73.2051 93.9004C74.1128 94.0176 75.1009 93.887 75.9784 93.6994C75.9784 93.6961 75.9784 93.6928 75.9784 93.6928Z" fill="#7B648E"/>
<path d="M73.9222 96.9917C72.7868 96.841 72.003 96.3788 71.1355 95.6252C70.335 94.9319 69.3403 94.4998 68.5699 93.773C68.5532 93.7562 68.5264 93.783 68.5398 93.8031C69.2465 94.7409 70.335 95.384 71.2829 96.0506C72.0231 96.5697 73.0146 97.0922 73.9256 97.0051C73.9289 97.0018 73.9289 96.9917 73.9222 96.9917Z" fill="#7B648E"/>
<path d="M72.4884 98.8575C71.3195 98.7268 70.3917 98.0201 69.5744 97.2029C68.5797 96.2047 67.4777 95.488 66.3054 94.7377C66.2887 94.7277 66.2719 94.7478 66.2887 94.7611C67.5045 95.6621 68.5897 96.7339 69.8022 97.6416C70.5826 98.2244 71.5137 98.8139 72.4884 98.8642C72.4884 98.8608 72.4884 98.8575 72.4884 98.8575Z" fill="#7B648E"/>
<path d="M69.4404 101.487C68.2749 100.82 67.7155 99.6849 66.9083 98.66C66.1312 97.6719 65.247 96.7576 64.3795 95.8499C64.3628 95.8331 64.346 95.8566 64.3561 95.8733C65.0795 97.126 66.1681 98.2246 67.126 99.2998C67.7691 100.02 68.4825 101.202 69.4371 101.497C69.4438 101.5 69.4471 101.49 69.4404 101.487Z" fill="#7B648E"/>
<path d="M65.9403 102.428C64.7479 100.321 63.9876 97.9063 62.3632 96.0575C62.3431 96.034 62.3096 96.0575 62.3263 96.0843C62.6479 96.5733 62.8656 97.1125 63.1704 97.6116C63.4986 98.1542 63.8235 98.6968 64.135 99.2495C64.7345 100.311 65.3307 101.376 65.9303 102.438C65.9336 102.445 65.947 102.438 65.9403 102.428Z" fill="#7B648E"/>
<path d="M62.6413 102.355C62.6279 100.342 61.5595 98.3319 60.8159 96.4965C60.8125 96.4898 60.8025 96.4931 60.8058 96.4998C61.1307 97.4979 61.3786 98.5329 61.7638 99.5109C62.1356 100.449 62.5006 101.35 62.6313 102.355C62.6313 102.361 62.6413 102.361 62.6413 102.355Z" fill="#7B648E"/>
<path d="M59.7642 96.2183C59.6704 97.0523 59.8111 97.836 59.8748 98.6767C59.9283 99.4035 59.8647 100.254 60.2231 100.924C60.2365 100.948 60.27 100.938 60.2633 100.911C60.0556 100.114 60.1729 99.35 60.0992 98.5461C60.0288 97.769 59.8044 96.9987 59.7709 96.2216C59.7709 96.2149 59.7642 96.2149 59.7642 96.2183Z" fill="#7B648E"/>
<path d="M59.1813 96.1814C59.0105 96.4192 58.8966 96.6436 58.6621 96.8379C58.4645 97.002 58.2602 97.1159 58.1162 97.3369C57.7544 97.8829 57.7343 98.6365 57.8985 99.2662C57.9018 99.2829 57.9286 99.2796 57.9286 99.2628C57.9521 98.4255 58.1698 97.692 58.6822 97.0489C58.8296 96.8613 59.3588 96.4694 59.1813 96.1814Z" fill="#7B648E"/>
<path d="M39.7885 85.7211C39.0617 84.378 38.0268 85.1249 37.1626 85.8149C35.93 86.7996 34.8113 87.4528 33.2103 87.6403C30.6715 87.9384 26.602 87.3757 25.2187 84.8972C24.6828 83.9392 24.666 82.5459 24.244 81.4741C23.6913 80.074 22.7334 78.8247 22.1942 77.3945C21.1123 74.5375 22.0669 70.8665 20.63 68.2004C19.8797 66.8104 18.6136 65.6582 17.3643 64.7572C16.115 63.8529 14.2293 63.106 13.4187 61.7461C12.4005 60.0379 12.4508 58.1891 12.434 56.3C12.4139 54.2837 11.3187 52.5453 11.1076 50.5491C10.9167 48.7471 11.6804 46.9117 11.3488 45.1499C11.034 43.4819 10.1296 41.9914 10.1028 40.2665C10.0727 38.3472 10.344 36.8936 11.0574 35.1687C11.9149 33.0887 11.4024 32.037 11.0239 29.9235C10.7493 28.3895 11.0976 27.1804 11.7038 25.7803C12.5847 23.7439 11.9416 22.0558 11.5933 19.9825C11.0943 17.0283 12.9197 15.8661 14.7752 14.3254C15.137 14.0239 15.3647 13.7526 15.559 13.344C15.4451 14.3254 14.8288 15.3704 14.4537 16.3149C13.9647 17.5508 13.6297 18.8069 13.2647 20.0763C12.4943 22.7391 13.6766 24.6449 15.0465 26.7918C16.6676 29.334 18.607 31.2633 18.3289 34.4385C17.9706 38.5348 21.3535 40.9665 23.9626 43.4819C30.4906 49.7787 38.5928 56.0555 40.234 65.4874C40.5221 67.132 40.4149 68.5387 41.0446 70.0895C41.6475 71.5766 42.5317 72.8059 43.2652 74.226C43.9418 75.5323 44.4978 77.1467 44.7758 78.5936C45.0839 80.2114 44.3404 81.8492 43.8614 83.3699C43.4394 84.7063 42.1097 86.0092 42.036 87.3355C41.9991 88.0356 42.3575 88.8361 42.5886 89.6165C43.3255 92.1051 44.1227 94.6037 44.9567 97.0454C43.5868 97.0655 43.8815 96.4057 43.6571 95.3239C43.3456 93.8267 42.8834 92.0481 42.17 90.6916C41.6944 89.7839 40.9943 89.5126 40.8034 88.4643C40.5221 87.0039 40.3646 86.4546 39.7885 85.7211Z" fill="#F47577"/>
<path d="M39.4566 83.8154C38.4518 82.1574 37.802 80.3052 36.7067 78.7009C35.5445 76.9994 34.4894 75.2309 33.3339 73.5261C30.862 69.8853 28.7117 66.1574 26.6284 62.2821C22.9809 55.4929 18.074 49.1257 16.5668 41.4087C16.1046 39.0474 15.7629 36.6592 15.3108 34.2946C15.0864 33.1189 14.9088 31.9265 14.5304 30.7844C14.1586 29.659 13.6629 28.5939 13.5255 27.4048C13.5188 27.358 13.4519 27.3747 13.4552 27.4216C13.549 28.4063 13.8739 29.2973 14.1887 30.225C14.5538 31.2968 14.7682 32.3887 14.949 33.5041C15.3007 35.641 15.5419 37.788 15.85 39.9316C16.406 43.8035 17.7357 47.3606 19.4406 50.8607C21.122 54.3106 23.2388 57.5327 25.1513 60.8553C27.3217 64.6234 29.4218 68.3847 31.8635 71.992C33.2032 73.9715 34.4794 76.0046 35.8526 77.964C37.1756 79.8531 38.147 81.9263 39.4398 83.8254C39.4499 83.8288 39.4599 83.8254 39.4566 83.8154Z" fill="#E55E65"/>
<path d="M59.4393 106.317C59.7006 105.731 59.1881 105.58 58.7359 105.47C58.0929 105.312 57.5904 105.108 57.1182 104.622C56.3713 103.855 55.5172 102.358 55.9861 101.263C56.167 100.841 56.6258 100.479 56.8737 100.064C57.1986 99.5212 57.3694 98.8848 57.7043 98.3388C58.3776 97.2503 59.8412 96.6273 60.3604 95.4684C60.6317 94.8621 60.692 94.1487 60.6719 93.5023C60.6518 92.8559 60.4207 92.0386 60.6652 91.419C60.9733 90.6453 61.5997 90.1864 62.2227 89.6974C62.8892 89.1749 63.1873 88.3677 63.7969 87.7849C64.3462 87.2624 65.1534 87.0446 65.6524 86.4853C66.1281 85.9527 66.3893 85.2728 66.9587 84.824C67.5884 84.3249 68.1411 84.0402 68.898 83.8359C69.8091 83.5881 70.0268 83.1493 70.633 82.4828C71.0718 82.0005 71.5641 81.8062 72.1838 81.6488C73.0848 81.421 73.4833 80.7746 74.0829 80.1281C74.937 79.2071 75.7911 79.5152 76.7758 79.7396C76.9701 79.7832 77.1174 79.7899 77.3017 79.7497C76.9466 79.964 76.4409 80.0243 76.0322 80.1415C75.4963 80.2956 74.9939 80.5033 74.4748 80.7076C73.3929 81.133 73.0613 82.0139 72.6962 83.0153C72.2642 84.2044 72.1201 85.3432 70.9947 86.0633C69.5411 86.9911 69.598 88.7394 69.4272 90.25C69.0018 94.0315 68.9851 98.3321 66.2687 101.29C65.7931 101.805 65.3008 102.13 64.9457 102.737C64.6041 103.316 64.4232 103.926 64.1385 104.532C63.8773 105.091 63.482 105.687 63.0701 106.15C62.6112 106.665 61.8743 106.836 61.248 107.067C60.6953 107.268 59.9216 107.158 59.4628 107.476C59.2216 107.643 59.0474 107.965 58.8465 108.243C58.2067 109.124 57.5804 110.028 56.9809 110.929C56.6258 110.48 56.9206 110.41 57.222 110.058C57.6407 109.573 58.113 108.963 58.3843 108.38C58.5651 107.988 58.4747 107.687 58.7761 107.355C59.2015 106.89 59.3455 106.696 59.4393 106.317Z" fill="#F47577"/>
<path d="M59.9887 105.717C60.2834 104.961 60.7323 104.271 60.9868 103.497C61.2548 102.676 61.573 101.872 61.8443 101.052C62.4237 99.3 63.1137 97.6287 63.8706 95.9473C65.197 92.9965 66.0578 89.7375 68.2416 87.2623C68.9081 86.5053 69.6149 85.7819 70.2847 85.0249C70.6197 84.6498 70.9714 84.2847 71.2527 83.8694C71.5341 83.4574 71.7585 83.022 72.1202 82.6703C72.1336 82.6569 72.1102 82.6368 72.0968 82.6502C71.792 82.9315 71.581 83.2698 71.3532 83.6115C71.0886 84.0067 70.7805 84.3584 70.4556 84.7034C69.8359 85.3665 69.1828 85.9962 68.5464 86.646C67.4009 87.8216 66.5569 89.1715 65.83 90.6351C65.1133 92.0754 64.5807 93.6027 63.9678 95.0898C63.2711 96.7746 62.5543 98.4359 61.9816 100.171C61.6667 101.122 61.3151 102.067 61.017 103.025C60.7256 103.949 60.2868 104.8 59.9854 105.717C59.9854 105.721 59.9887 105.721 59.9887 105.717Z" fill="#E55E65"/>
<path d="M29.2578 89.5159C28.6482 89.3216 28.551 89.8474 28.4908 90.3097C28.407 90.9661 28.2563 91.4886 27.8276 92.0112C27.1476 92.8385 25.7543 93.8533 24.6122 93.5083C24.1734 93.3744 23.7614 92.959 23.3226 92.7581C22.7465 92.4968 22.0968 92.3963 21.5173 92.1217C20.3584 91.5724 19.5814 90.1857 18.3689 89.8005C17.7358 89.5996 17.0191 89.6197 16.3793 89.7101C15.7396 89.8006 14.9525 90.1221 14.3094 89.9479C13.5056 89.7269 12.983 89.1541 12.427 88.5881C11.8342 87.9852 10.9969 87.7775 10.3538 87.2349C9.77097 86.7459 9.46953 85.9688 8.85659 85.5334C8.27379 85.1214 7.57042 84.9339 7.05796 84.4214C6.49191 83.8487 6.15027 83.3329 5.86223 82.6027C5.51724 81.7252 5.05502 81.5543 4.32485 81.0285C3.79565 80.6433 3.54779 80.1777 3.32673 79.5782C3.00184 78.7073 2.31521 78.3825 1.60514 77.86C0.593622 77.113 0.807984 76.2321 0.921863 75.224C0.945309 75.0264 0.931912 74.879 0.874972 74.6981C1.12618 75.0297 1.24341 75.5221 1.40753 75.9173C1.61854 76.4331 1.88314 76.9087 2.14104 77.4011C2.68365 78.4293 3.59468 78.6638 4.633 78.9117C5.86223 79.2064 7.01107 79.2265 7.84842 80.2648C8.93027 81.6079 10.6619 81.3567 12.1825 81.3601C15.9875 81.3634 20.2613 80.9012 23.5035 83.2759C24.0696 83.6913 24.4447 84.1468 25.0878 84.4315C25.7041 84.7061 26.327 84.82 26.9634 85.0344C27.5462 85.232 28.186 85.5569 28.6917 85.9153C29.2544 86.3138 29.509 87.0272 29.8037 87.6234C30.065 88.1493 30.0415 88.9297 30.4066 89.3517C30.5975 89.5728 30.9392 89.7101 31.2373 89.8809C32.1851 90.4168 33.1531 90.9427 34.1144 91.4384C33.7058 91.8437 33.6053 91.559 33.2201 91.2977C32.6909 90.936 32.0344 90.5341 31.4248 90.3298C31.0162 90.1924 30.7282 90.3164 30.3631 90.0551C29.854 89.69 29.6463 89.5694 29.2578 89.5159Z" fill="#F47577"/>
<path d="M28.6049 89.0367C27.8178 88.829 27.0843 88.4573 26.2871 88.2898C25.4398 88.1123 24.6091 87.8845 23.7617 87.707C21.9564 87.3252 20.2214 86.8261 18.463 86.2601C15.3849 85.2686 12.0489 84.7729 9.34924 82.8805C8.52194 82.3011 7.72479 81.6781 6.90083 81.0953C6.48886 80.8039 6.09028 80.4957 5.64481 80.2613C5.20604 80.0302 4.74382 79.8527 4.35864 79.5311C4.34189 79.5177 4.3285 79.5445 4.34189 79.5579C4.65674 79.8292 5.01512 80.0034 5.38021 80.1909C5.80223 80.4087 6.18406 80.6766 6.56589 80.9613C7.29271 81.5039 7.99274 82.0834 8.70951 82.6427C10.0024 83.6509 11.4393 84.3375 12.9733 84.9002C14.4872 85.4529 16.0614 85.8112 17.6089 86.2567C19.3606 86.7625 21.0889 87.2883 22.8775 87.6668C23.8588 87.8745 24.8369 88.119 25.8216 88.3099C26.7695 88.4975 27.6671 88.8391 28.6116 89.0367C28.6049 89.0434 28.6083 89.0367 28.6049 89.0367Z" fill="#E55E65"/>
<path d="M33.8835 106.176C34.473 105.921 35.0792 105.677 35.6519 105.392C35.1663 101.748 34.7945 98.0368 34.205 94.3692C33.8098 91.9141 33.2973 89.5494 32.614 87.1713C32.2523 85.9086 32.2188 84.177 31.2877 83.2157C33.4279 85.0679 38.6564 83.5439 40.7866 82.5793C43.1512 81.5108 44.9666 80.2816 46.4404 78.1213C47.1337 77.1064 47.5557 76.1485 48.4902 75.3513C49.1433 74.7953 49.4783 74.6948 49.8768 73.8642C50.7778 71.9919 50.2486 70.0793 50.7276 68.1568C51.0257 66.9577 51.9568 66.2141 52.0104 64.9112C52.0573 63.7691 51.6621 62.493 51.3271 61.4145C50.9386 60.1618 50.4831 59.2641 50.4496 57.9378C50.4161 56.6181 50.4998 55.5296 49.8936 54.3305C48.9758 52.5084 47.2811 51.2088 46.7384 49.2729C46.2762 47.6216 45.1106 46.3824 44.7154 44.7947C44.4609 43.7698 44.5278 42.2291 43.5565 41.6028C44.002 43.2105 42.4646 45.9 40.7363 45.9C42.1029 45.1431 42.5986 42.2157 42.257 40.8626C41.6943 38.6285 39.8186 36.6356 37.4807 36.5083C39.5105 37.7309 37.4573 40.1826 36.6166 41.2544C35.5749 42.5841 34.9184 44.1349 33.7327 45.3842C33.0059 42.4904 35.0658 39.0807 34.9385 36.0059C34.8179 33.1321 33.4078 29.3473 30.2896 28.4731C32.2389 29.6555 31.8906 32.8843 31.7934 34.8303C31.7097 36.5251 32.1786 38.6118 30.9996 39.9515C30.5642 38.7926 31.3279 36.9538 31.3681 35.7078C31.4819 32.3115 29.8575 27.7731 26.7861 25.9443C23.8051 24.1692 19.5078 25.4821 16.1819 24.8055C17.6288 24.8625 15.9072 27.5654 15.7766 28.3057C15.3111 30.9483 16.8384 33.0886 18.5432 34.9643C20.9481 37.6103 23.4735 40.263 25.3659 43.3244C27.4057 46.6269 28.1124 49.6078 28.5546 53.4563C29.4556 61.314 30.4771 68.7731 29.1709 76.6207C28.779 78.9753 28.4139 80.5797 29.4087 82.8673C30.4872 85.3526 31.4116 87.8077 31.6059 90.5375C31.8504 93.9907 32.5705 97.2765 33.0193 100.696C33.1734 101.872 32.9791 102.98 33.1365 104.143C33.227 104.833 34.195 105.556 33.8835 106.176Z" fill="#957FA5"/>
<path d="M27.5533 27.9103C28.6083 30.3486 28.9935 32.7903 28.0657 35.3426C27.3657 37.2685 26.5485 39.1106 26.4245 41.1839C26.4178 41.2911 26.5752 41.3112 26.592 41.204C27.0174 38.625 28.7356 36.5417 28.9165 33.8822C29.0505 31.9094 28.7925 29.5247 27.5633 27.9036C27.5566 27.9036 27.5533 27.9069 27.5533 27.9103Z" fill="#7B648E"/>
<path d="M33.3005 34.9306C32.7646 37.4995 32.8047 39.9446 31.5521 42.3394C30.4702 44.4027 29.2678 46.3587 28.8458 48.6865C28.8391 48.7267 28.896 48.7368 28.9127 48.7033C30.0314 46.4089 31.532 44.2084 32.376 41.7834C33.1196 39.6499 33.3072 37.1713 33.3105 34.9306C33.3072 34.9239 33.3005 34.9239 33.3005 34.9306Z" fill="#7B648E"/>
<path d="M40.1098 41.8537C39.1753 44.5165 37.6748 46.151 35.4374 47.819C33.3775 49.353 31.8401 51.5134 29.7199 52.9603C29.6697 52.9938 29.7199 53.0742 29.7735 53.0508C32.3693 51.8852 34.4493 49.621 36.5192 47.7118C38.1336 46.2247 39.8787 44.1179 40.1366 41.8604C40.1366 41.847 40.1165 41.8403 40.1098 41.8537Z" fill="#7B648E"/>
<path d="M43.821 46.429C42.9167 49.1856 40.7597 51.0277 38.395 52.5316C35.5145 54.3637 33.247 56.6145 30.8622 59.0227C30.832 59.0529 30.8722 59.1098 30.9057 59.0797C33.669 56.6614 36.7705 54.6518 39.5505 52.2402C41.3358 50.6894 43.2114 48.7769 43.8277 46.4324C43.8311 46.429 43.821 46.4256 43.821 46.429Z" fill="#7B648E"/>
<path d="M48.5404 55.3686C46.3599 57.8036 43.3756 58.5036 40.5219 59.8534C37.7754 61.1563 35.1428 62.7708 32.5403 64.3416C32.4934 64.3684 32.5437 64.4287 32.5872 64.4153C35.9333 63.3937 39.1118 61.3975 42.1531 59.7027C44.1929 58.5639 47.3681 57.529 48.5638 55.382C48.5672 55.3686 48.5504 55.3552 48.5404 55.3686Z" fill="#7B648E"/>
<path d="M48.9994 64.4187C43.3791 66.08 37.2397 66.5088 32.0079 69.3691C31.9443 69.4026 31.9845 69.4998 32.0548 69.4763C33.3878 68.9806 34.7745 68.7696 36.121 68.3275C37.5779 67.8485 39.0383 67.3796 40.5087 66.9442C43.3423 66.1102 46.1792 65.2896 49.0128 64.4522C49.0362 64.4455 49.0195 64.412 48.9994 64.4187Z" fill="#7B648E"/>
<path d="M47.1405 72.387C42.3442 71.2381 37.0119 72.6549 32.2625 73.3784C32.2457 73.3817 32.2491 73.4052 32.2658 73.4052C34.8114 73.2076 37.4005 73.2109 39.9225 72.8492C42.3475 72.5009 44.6787 72.1425 47.1372 72.4138C47.1539 72.4138 47.1572 72.3903 47.1405 72.387Z" fill="#7B648E"/>
<path d="M31.06 75.7697C33.0027 76.4831 34.9386 76.6071 36.9684 76.9487C38.7301 77.2435 40.7197 77.8999 42.4982 77.421C42.5652 77.4042 42.5518 77.3138 42.4848 77.3171C40.4785 77.3506 38.7201 76.6205 36.7674 76.3257C34.8817 76.041 32.9323 76.1348 31.06 75.7563C31.0567 75.7496 31.0533 75.7664 31.06 75.7697Z" fill="#7B648E"/>
<path d="M30.6778 77.163C31.1601 77.719 31.6357 78.1243 31.974 78.811C32.2587 79.3904 32.4362 79.9531 32.8817 80.4321C33.997 81.6278 35.7822 82.1202 37.3632 82.09C37.4033 82.09 37.41 82.023 37.3732 82.013C35.3937 81.467 33.7525 80.5024 32.4831 78.8813C32.1146 78.4124 31.4548 76.8917 30.6778 77.153C30.6778 77.1564 30.6744 77.1597 30.6778 77.163Z" fill="#7B648E"/>
<path d="M130.038 121.78C130.299 122.463 130.738 123.311 130.668 124.064C130.202 124.155 129.73 124.228 129.251 124.262C128.889 124.289 128.484 124.322 128.129 124.208C127.74 124.084 127.848 124.242 127.794 123.82C127.68 122.932 128.146 122.594 128.899 122.259C129.258 122.092 130.098 121.998 130.038 121.78Z" fill="#2A1D3D"/>
<path d="M121.514 123.559C121.758 124.078 123.349 124.172 123.898 124.024C124.233 123.937 125.128 123.076 124.796 122.755C124.545 122.51 123.838 122.939 123.6 122.999C123.195 123.103 122.736 123.117 122.328 123.06C122.07 123.023 121.963 122.902 121.735 123.05C121.561 123.167 121.457 123.472 121.514 123.559Z" fill="#2A1D3D"/>
<path d="M120.285 125.129C120.174 124.101 121.735 124.151 122.402 124.024C123.396 123.83 124.311 123.086 124.951 122.336C125.724 122.644 126.612 122.463 127.406 122.745C127.67 122.838 128.226 122.969 128.427 123.16C128.883 123.595 128.752 124.912 128.719 125.548C127.362 125.943 125.955 125.541 124.575 125.809C123.524 126.017 122.402 126.014 121.37 125.692C121.042 125.588 120.452 125.28 120.285 125.129Z" fill="#35244B"/>
<path d="M121.397 93.4575C121.373 93.5982 121.32 93.6719 121.32 93.8293C121.316 94.1107 121.323 94.3954 121.323 94.6767C121.323 95.5007 121.286 96.3213 121.477 97.1285C121.655 97.8854 121.668 98.7027 121.745 99.473C121.839 100.448 122.01 101.416 122.127 102.387C122.335 104.062 122.626 105.73 122.871 107.398C123.075 108.774 123.557 110.091 123.862 111.447C123.989 112.017 124.254 112.556 124.384 113.129C124.512 113.698 124.706 114.247 124.843 114.813C124.951 115.259 125.098 115.684 125.168 116.136C125.212 116.408 125.272 116.679 125.319 116.94C125.322 116.95 125.376 116.997 125.383 117.027C125.399 117.098 125.363 117.178 125.373 117.248C125.393 117.366 125.446 117.449 125.456 117.57C125.476 117.871 125.527 118.173 125.533 118.471C125.54 118.792 125.51 119.057 125.446 119.365C125.369 119.74 125.366 120.112 125.296 120.487C125.235 120.799 125.085 121.03 124.981 121.314C124.904 121.525 124.823 121.726 124.753 121.937C124.683 122.152 124.482 122.272 124.381 122.473C124.271 122.691 124.143 122.808 124.398 122.949C124.475 122.993 124.539 122.979 124.616 123.039C124.659 123.076 124.689 123.147 124.733 123.19C124.877 123.331 125.121 123.448 125.299 123.545C125.6 123.709 125.935 123.776 126.257 123.887C126.649 124.021 126.997 123.977 127.402 123.997C127.54 124.004 127.66 124.068 127.794 124.081C127.905 124.091 128.022 124.071 128.132 124.078C128.3 124.088 128.575 124.272 128.709 124.084C128.809 123.947 128.809 123.659 128.836 123.488C128.859 123.354 128.873 123.214 128.893 123.083C128.92 122.912 128.906 122.993 129.047 122.939C129.285 122.845 129.519 122.664 129.777 122.624C129.901 122.604 129.965 122.614 130.085 122.56C130.169 122.524 130.279 122.514 130.353 122.477C130.601 122.353 130.45 122.189 130.38 121.964C130.32 121.777 130.3 121.592 130.256 121.402C130.206 121.16 130.089 121.006 129.971 120.792C129.71 120.316 130.032 120.052 130.048 119.566C130.062 119.111 129.965 118.689 129.968 118.24C129.971 117.165 130.186 116.15 130.356 115.091C130.517 114.09 130.423 113.058 130.293 112.06C130.246 111.718 130.253 111.367 130.216 111.022C130.152 110.449 130.176 109.826 130.236 109.257C130.356 108.111 130.273 106.919 130.273 105.767C130.273 104.969 130.273 104.176 130.276 103.378C130.279 102.863 130.222 102.367 130.199 101.854C130.145 100.672 129.995 99.4898 129.871 98.3141C129.757 97.2457 129.834 96.1906 129.891 95.1222C129.911 94.7638 129.961 94.4154 130.022 94.0604C130.052 93.8862 130.075 93.7087 130.115 93.5379C130.155 93.3771 130.279 93.1728 130.266 93.0087C130.129 93.0121 130.022 92.9752 129.884 92.9451C129.646 92.8982 129.392 92.925 129.151 92.9283C128.688 92.935 128.273 92.8379 127.818 92.7876C127.077 92.7073 126.284 92.7474 125.543 92.8144C124.853 92.8781 124.143 92.9618 123.467 93.0924C123.031 93.1762 122.589 93.4173 122.154 93.4642C121.926 93.4877 121.651 93.4776 121.424 93.4575C121.454 93.4676 121.471 93.4944 121.397 93.4575Z" fill="#5C3A6F"/>
<path d="M117.374 90.068C117.367 89.9039 117.428 89.8537 117.173 89.5757C116.915 89.291 116.376 89.0465 116.604 88.5809C117.116 88.5106 117.3 88.9192 117.656 89.1704C118.044 89.445 118.503 89.3111 118.885 89.5991C119.216 89.8503 119.24 90.2824 119.565 90.5235C119.782 90.6877 120.131 90.7111 120.405 90.6977C120.405 91.1097 120.697 91.5116 120.66 91.9135C120.362 91.9772 119.98 91.9973 119.702 92.0877C119.25 92.2317 118.968 92.5231 118.443 92.5365C117.977 92.5466 117.488 92.4829 117.022 92.503C116.647 92.5198 116.483 92.3791 116.132 92.3021C115.552 92.1748 115.006 92.2217 114.52 91.9202C113.686 91.4011 115.063 91.1532 115.539 90.9992C115.877 90.892 117.197 90.3996 117.374 90.068Z" fill="#F6BA94"/>
<path d="M123.772 68.585C123.584 68.5314 123.155 68.8663 123.021 68.9635C122.696 69.208 122.325 69.5262 122.104 69.8678C121.983 70.0554 121.849 70.2329 121.722 70.4171C121.568 70.6382 121.551 70.8793 121.474 71.1305C121.323 71.6263 121.34 72.122 121.26 72.6277C121.193 73.0598 121.276 73.4952 121.337 73.9239C121.404 74.4029 121.548 74.8484 121.742 75.2871C121.849 75.535 121.99 75.7427 122.234 75.8766C122.556 76.0575 122.82 75.9771 123.159 75.9235C123.36 75.89 123.581 75.8532 123.772 75.7896C124.036 75.6991 124.251 75.4848 124.458 75.3072C124.854 74.9689 125.075 74.557 125.379 74.1517C125.959 73.378 126.582 72.5205 126.776 71.5526C126.856 71.1506 126.856 70.7018 126.833 70.2898C126.803 69.7439 126.582 69.3688 126.2 68.9869C125.922 68.7089 125.631 68.4544 125.219 68.4309C124.666 68.3907 124.167 68.5649 123.772 68.585Z" fill="#F6BA94"/>
<path d="M123.463 74.4765C123.463 74.6909 123.688 74.9856 123.788 75.1631C123.915 75.3976 124.066 75.6086 124.16 75.8598C124.324 76.3019 124.522 76.7307 124.689 77.1694C124.857 77.6082 124.95 78.1106 125.315 78.4455C125.597 78.7001 126.005 78.814 126.371 78.7503C126.746 78.6834 127.215 78.4355 127.442 78.1207C127.73 77.7221 127.807 77.3135 127.824 76.8278C127.831 76.6436 127.838 76.4962 127.75 76.3321C127.69 76.2215 127.63 76.1244 127.576 76.0105C127.402 75.6388 127.171 75.2804 127.024 74.8918C126.769 74.2119 126.675 73.4784 126.672 72.7583C126.672 71.8807 126.853 70.5778 125.617 70.4974C125.135 70.4639 124.632 70.7821 124.294 71.107C123.869 71.5156 123.728 72.1051 123.694 72.6779C123.671 73.0765 123.751 73.4851 123.614 73.8669C123.524 74.1215 123.446 74.443 123.463 74.4765Z" fill="#F6BA94"/>
<path d="M127.597 74.8583C127.469 74.8717 127.436 74.9353 127.355 75.0056C127.181 75.1564 127.027 75.3238 126.83 75.4578C126.471 75.7023 126.089 75.8999 125.741 76.1612C125.406 76.4124 125.058 76.6234 124.663 76.754C124.438 76.8277 124.204 76.8914 124.003 77.022C124.197 77.5009 123.805 78.0636 123.671 78.5326C123.564 78.9043 123.276 79.2192 123.078 79.5474C122.837 79.9494 122.603 80.3245 122.405 80.7532C121.98 81.6676 121.732 82.7494 121.564 83.7409C121.407 84.6954 121.367 85.6701 121.219 86.6281C121.085 87.5022 121.162 88.4233 121.162 89.3109C121.162 89.4784 121.236 89.8669 121.169 90.021C121.129 90.1114 121.109 90.0846 121.012 90.0947C120.888 90.1081 120.821 90.1248 120.704 90.1516C120.503 90.2019 120.352 90.2722 120.154 90.3425C120.054 90.3794 119.883 90.3626 119.796 90.4129C119.672 90.4866 119.705 90.5904 119.709 90.7177C119.712 90.8918 119.692 91.0694 119.715 91.2435C119.736 91.4076 119.809 91.5483 119.846 91.7057C119.863 91.7761 119.859 91.8397 119.876 91.91C119.893 91.9737 119.913 92.168 119.947 92.2249C120.044 92.3723 120.402 92.3187 120.546 92.3153C120.64 92.312 120.754 92.2785 120.784 92.3857C120.794 92.4125 120.744 92.4861 120.737 92.5096C120.707 92.6335 120.693 92.7139 120.697 92.8512C120.707 93.6082 120.626 94.4087 120.784 95.1355C121.025 95.2126 121.313 95.1456 121.571 95.2193C121.759 95.2728 121.936 95.3398 122.13 95.3666C122.378 95.3968 122.629 95.3599 122.881 95.3834C123.366 95.4236 123.849 95.5475 124.338 95.5944C124.81 95.6413 125.309 95.5743 125.781 95.5173C126.568 95.4236 127.349 95.246 128.136 95.1523C128.588 95.0953 129.064 95.0082 129.512 95.1288C129.727 95.1858 129.971 95.2059 130.179 95.2829C130.313 95.3298 130.413 95.4169 130.561 95.3767C130.856 93.8326 131.254 92.312 131.572 90.7746C131.673 90.2923 131.69 89.81 131.82 89.331C131.961 88.8085 132.051 88.2693 132.138 87.7334C132.302 86.7252 132.333 85.7371 132.339 84.7189C132.349 83.2217 132.105 81.748 131.783 80.2843C131.499 78.9948 130.738 77.9464 129.894 76.9516C129.432 76.4057 128.946 75.9167 128.34 75.5415C128.119 75.4042 128.029 75.2501 127.868 75.0559C127.781 74.9487 127.721 74.9253 127.6 74.8516C127.637 74.7745 127.714 74.7075 127.597 74.8583Z" fill="#35244B"/>
<path d="M120.861 69.4257C120.73 69.4525 120.603 69.7908 120.57 69.9147C120.482 70.2228 120.543 70.5645 120.744 70.809C121.085 71.231 121.738 70.9999 122.144 70.8224C122.385 70.7152 122.529 70.6248 122.74 70.464C122.884 70.3535 123.055 70.32 123.236 70.3401C123.319 70.3501 123.483 70.3736 123.534 70.4539C123.577 70.5209 123.534 70.6516 123.557 70.7286C123.594 70.8559 123.711 71.0568 123.808 71.1406C124.033 71.3348 124.304 71.499 124.575 71.6095C124.713 71.6631 124.88 71.6899 124.984 71.8171C125.115 71.9779 124.991 71.9913 125.208 71.931C125.292 71.9076 125.255 71.8674 125.379 71.8875C125.436 71.8975 125.527 71.9545 125.567 71.9913C125.731 72.1487 125.667 72.4234 125.684 72.621C125.708 72.8588 125.748 73.0665 125.553 73.2607C125.48 73.3311 125.242 73.3512 125.235 73.4684C125.373 73.5186 125.5 73.4851 125.63 73.5421C125.744 73.5923 125.882 73.6426 125.979 73.7296C126.116 73.8502 126.13 74.0311 126.3 74.1182C126.424 74.1818 126.552 74.2321 126.682 74.2488C126.84 74.2689 126.994 74.2723 127.051 74.1014C127.091 73.9842 127.061 73.8502 127.064 73.7296C127.067 73.5923 127.094 73.5253 127.124 73.3914C127.181 73.1402 127.178 72.8756 127.231 72.6277C127.298 72.3262 127.453 72.0215 127.543 71.72C127.587 71.5659 127.68 71.4621 127.757 71.3248C127.851 71.1573 127.881 71.0099 127.928 70.8257C127.975 70.6315 128.059 70.4606 128.069 70.253C128.079 70.0353 128.086 69.8008 128.072 69.5831C128.039 68.9936 127.674 68.3371 127.298 67.895C126.977 67.5132 126.237 67.4931 125.768 67.4194C125.105 67.3122 124.508 67.1179 123.822 67.2184C123.403 67.2787 122.968 67.4897 122.589 67.6672C122.402 67.7543 122.187 67.8247 122.013 67.9385C121.832 68.0558 121.698 68.2433 121.551 68.4008C121.377 68.5883 121.223 68.7558 121.092 68.9735C121.008 69.1008 120.858 69.2716 120.861 69.4257Z" fill="#F17774"/>
<path d="M129.101 122.158C129.442 120.497 129.576 118.799 129.65 117.108C129.734 115.218 129.921 113.353 130.189 111.481C130.193 111.467 130.169 111.46 130.166 111.474C129.426 114.957 129.416 118.615 129.081 122.155C129.081 122.165 129.097 122.165 129.101 122.158Z" fill="#35244B"/>
<path d="M125.664 96.1071C125.768 98.0866 126.096 100.066 126.264 102.042C126.431 104.008 126.702 105.974 126.826 107.94C126.826 107.967 126.866 107.967 126.866 107.94C126.897 105.934 126.578 103.894 126.391 101.898C126.21 99.979 126.146 97.9861 125.714 96.1037C125.711 96.0736 125.664 96.0803 125.664 96.1071Z" fill="#35244B"/>
<path d="M126.977 109.505C127.047 110.673 127.057 111.846 127.124 113.015C127.191 114.207 127.382 115.386 127.433 116.578C127.433 116.612 127.483 116.612 127.486 116.578C127.577 115.336 127.335 114.11 127.258 112.874C127.188 111.749 127.148 110.623 126.99 109.505C126.987 109.498 126.977 109.498 126.977 109.505Z" fill="#35244B"/>
<path d="M126.518 122.976C126.595 122.875 126.639 122.758 126.652 122.631C126.652 122.621 126.636 122.621 126.636 122.631C126.622 122.755 126.575 122.865 126.502 122.962C126.488 122.976 126.508 122.989 126.518 122.976Z" fill="#35244B"/>
<path d="M126.729 122.155C126.712 122.015 126.729 121.881 126.789 121.753C126.796 121.74 126.776 121.727 126.769 121.743C126.706 121.874 126.679 122.011 126.692 122.159C126.696 122.175 126.733 122.175 126.729 122.155Z" fill="#35244B"/>
<path d="M127.412 119.245C127.64 118.772 127.724 118.253 127.817 117.741C127.821 117.714 127.784 117.704 127.777 117.731C127.683 118.236 127.596 118.752 127.365 119.218C127.352 119.248 127.399 119.275 127.412 119.245Z" fill="#35244B"/>
<path d="M123.088 95.7621C122.874 97.1688 124.404 98.6258 125.761 98.7397C125.804 98.7431 125.825 98.6727 125.784 98.6526C124.582 98.0799 122.971 97.3933 123.128 95.7688C123.128 95.7453 123.091 95.742 123.088 95.7621Z" fill="#35244B"/>
<path d="M122.495 89.4417C123.701 88.8455 124.81 88.1287 126.207 88.1421C126.307 88.1421 126.3 88.0048 126.207 87.9914C124.91 87.8273 123.457 88.6412 122.492 89.4383C122.489 89.4417 122.492 89.445 122.495 89.4417Z" fill="#5C3A6F"/>
<path d="M126.488 87.9311C126.629 88.169 126.82 88.3197 127.108 88.2694C127.138 88.2627 127.161 88.2292 127.161 88.1991C127.158 88.035 127.084 87.9211 126.99 87.7938C126.95 87.7402 126.843 87.7704 126.873 87.8441C126.923 87.9646 127.01 88.0651 127.014 88.1991C127.031 88.1757 127.051 88.1522 127.067 88.1288C126.856 88.169 126.696 88.0417 126.572 87.8809C126.535 87.834 126.454 87.8742 126.488 87.9311Z" fill="#5C3A6F"/>
<path d="M127.06 77.7924C126.257 78.8877 126.062 79.9159 126.153 81.2557C126.263 82.9002 126.759 84.4812 126.816 86.1291C126.819 86.1793 126.886 86.1759 126.89 86.1291C127.074 84.662 126.578 83.1749 126.401 81.7279C126.22 80.2609 126.263 79.0886 127.131 77.8326C127.161 77.7924 127.091 77.7522 127.06 77.7924Z" fill="#5C3A6F"/>
<path d="M125.738 92.0475C127.024 91.448 129.03 92.6404 130.035 91.4078C130.072 91.3609 130.015 91.3006 129.968 91.3408C128.789 92.4059 127.047 91.3308 125.707 91.9939C125.674 92.014 125.704 92.0643 125.738 92.0475Z" fill="#5C3A6F"/>
<path d="M130.554 82.5822C131.067 84.565 130.567 86.5479 130.547 88.5542C130.547 88.581 130.584 88.581 130.588 88.5542C130.758 86.5713 131.17 84.5248 130.581 82.5755C130.574 82.5554 130.547 82.5621 130.554 82.5822Z" fill="#5C3A6F"/>
<path d="M121.916 92.3892C122.643 92.6873 123.53 92.7141 124.277 92.4595C124.311 92.4495 124.304 92.3992 124.267 92.3959C123.457 92.3657 122.736 92.5868 121.936 92.3055C121.886 92.2854 121.866 92.3691 121.916 92.3892Z" fill="#5C3A6F"/>
<path d="M124.431 77.9029C125.459 77.8359 126.756 77.213 127.268 76.2885C127.275 76.2751 127.255 76.2584 127.245 76.2718C126.498 77.1962 125.463 77.434 124.424 77.8895C124.418 77.8895 124.421 77.9029 124.431 77.9029Z" fill="#5C3A6F"/>
<path d="M121.032 124.677C121.427 124.828 121.719 125.149 122.117 125.283C122.539 125.427 123.005 125.374 123.433 125.314C124.596 125.146 125.781 125.049 126.9 124.674C126.92 124.667 126.913 124.634 126.89 124.64C125.905 124.892 124.877 124.952 123.872 125.089C123.269 125.17 122.573 125.337 121.986 125.103C121.655 124.969 121.387 124.744 121.042 124.637C121.015 124.63 121.008 124.667 121.032 124.677Z" fill="#5C3A6F"/>
<path d="M123.142 123.93C123.507 123.659 123.926 123.438 124.26 123.13C124.277 123.113 124.254 123.086 124.237 123.096C123.862 123.354 123.487 123.626 123.125 123.907C123.112 123.917 123.128 123.94 123.142 123.93Z" fill="#5C3A6F"/>
<path d="M129.241 123.806C129.593 123.813 130.185 123.803 130.373 123.438C130.383 123.421 130.366 123.391 130.343 123.401C130.159 123.478 130.005 123.595 129.807 123.649C129.616 123.699 129.425 123.726 129.238 123.786C129.224 123.786 129.227 123.806 129.241 123.806Z" fill="#5C3A6F"/>
<path d="M122.023 123.335C122.067 123.335 122.067 123.268 122.023 123.268C121.98 123.268 121.98 123.335 122.023 123.335Z" fill="#5C3A6F"/>
<path d="M124.421 75.4582C124.766 75.1233 125.218 74.728 125.322 74.2357C125.335 74.1787 125.258 74.1452 125.228 74.1955C124.96 74.6208 124.676 75.006 124.351 75.3912C124.311 75.4348 124.378 75.5017 124.421 75.4582Z" fill="#F6BA94"/>
<path d="M124.468 75.3109C124.813 75.0128 125.182 74.5942 125.373 74.1755C125.393 74.132 125.346 74.0951 125.309 74.1253C124.957 74.4166 124.619 74.8655 124.431 75.2808C124.421 75.3076 124.448 75.331 124.468 75.3109Z" fill="#F6BA94"/>
<path d="M124.206 75.4414C124.716 75.1936 125.275 74.6208 125.302 74.0246C125.302 74.0012 125.268 73.9945 125.258 74.0146C124.957 74.5304 124.702 75.0562 124.173 75.3811C124.133 75.4046 124.166 75.4615 124.206 75.4414Z" fill="#E8A885"/>
<path d="M101.206 77.5387L100.784 73.9917L102.469 70.8968L104.994 69.3929L106.796 71.9184L107.098 73.9314L106.917 77.3578L105.865 79.0124L101.206 77.5387Z" fill="#D85D63"/>
<path d="M90.4648 122.572C90.1231 123.094 89.4767 123.804 89.7547 124.464C89.9925 125.023 90.9404 124.873 91.4897 124.739C92.1026 124.588 92.7356 123.633 93.0538 123.084C93.3988 122.494 93.3955 122.036 92.739 121.738C92.0256 121.413 90.7428 121.915 90.4648 122.572Z" fill="#F47577"/>
<path d="M101.079 122.622C100.52 123.074 100.583 123.831 100.942 124.417C101.34 125.063 102.044 125.134 102.747 124.96C103.527 124.769 103.899 124.002 103.973 123.251C104.144 121.516 101.843 122.052 101.079 122.622Z" fill="#F47577"/>
<path d="M103.681 68.8605C100.727 70.0596 100.952 74.33 103.042 76.2258C105.571 78.5201 107.416 72.5281 106.736 70.7194C106.435 69.9122 105.962 69.3897 105.152 69.1251C104.515 68.9174 104.103 69.0916 103.681 68.8605Z" fill="#F6BA94"/>
<path d="M102.519 74.1828C102.569 75.0101 102.144 75.7034 101.956 76.4738C101.672 77.6528 102.047 78.9724 102.901 79.8232C103.33 80.2519 104.143 80.6538 104.766 80.4964C105.574 80.2921 105.51 79.2739 105.533 78.6073C105.557 77.9944 105.369 77.4585 105.255 76.869C105.148 76.3063 105.296 75.7336 105.202 75.1876C105.068 74.4206 104.388 73.7407 103.594 73.6938C103.125 73.6703 102.867 73.9215 102.519 74.1828Z" fill="#F6BA94"/>
<path d="M90.18 122.454C90.5016 120.441 91.1882 118.475 91.7576 116.523C92.1327 115.236 92.5983 113.977 92.9165 112.677C93.1978 111.529 93.2849 110.102 93.7438 109.023C93.8878 108.685 94.1926 108.447 94.283 108.089C94.417 107.546 94.0988 107.261 94.4773 106.789C94.6916 106.521 94.9295 106.548 95.0701 106.21C95.184 105.942 95.1673 105.473 95.2611 105.165C95.5357 104.294 95.7233 103.443 95.9242 102.556C96.2458 101.125 96.3027 99.6182 96.6778 98.2081C97.2506 96.0544 98.041 93.9208 98.5301 91.7638C100.379 92.0184 102.432 91.7471 104.355 91.6935C105.433 91.6633 107.547 92.1791 108.474 91.5026C108.645 92.0921 108.649 92.715 108.816 93.3179C109.071 94.2491 109.402 94.9926 109.339 95.9908C109.255 97.2836 108.682 98.5363 108.361 99.7789C108.036 101.035 107.711 102.227 107.483 103.507C107.074 105.784 106.83 108.069 106.404 110.346C105.912 112.982 105.39 115.635 104.988 118.281C104.834 119.282 104.736 120.291 104.515 121.282C104.388 121.848 104.124 122.387 104.05 122.96C103.457 122.913 102.978 122.655 102.318 122.756C102.017 122.803 100.878 123.355 100.674 123.302C100.258 123.191 100.272 121.969 100.278 121.607C100.299 120.565 100.714 119.504 100.932 118.485C101.447 116.09 101.689 113.655 102.198 111.277C102.616 109.315 102.456 107.191 102.847 105.208C103.256 103.155 103.28 100.67 102.884 98.61C102.874 99.5579 102.194 100.449 101.769 101.239C101.153 102.381 100.577 103.564 100.004 104.733C99.2502 106.27 98.8382 107.684 98.5033 109.362C98.1817 110.979 97.6157 112.594 97.1501 114.181C96.3697 116.824 95.4051 119.309 94.0218 121.684C93.6734 122.28 93.3318 123.332 92.7222 123.446C92.404 123.503 91.5767 123.191 91.1882 123.154C90.8265 123.121 90.4044 123.057 90.0527 122.96C90.0695 122.702 90.1934 122.444 90.18 122.454Z" fill="#35244B"/>
<path d="M101.458 76.5709C102.69 77.4384 104.331 78.2557 105.825 77.6427C106.646 77.9978 107.436 78.3997 108.3 78.6945C109.285 79.0294 109.433 78.9892 109.66 80.0878C109.989 81.652 110.146 83.263 110.37 84.8473C110.498 85.7483 111.023 87.2823 110.662 88.1197C110.313 88.9235 109.081 89.6235 108.193 89.5365C108.478 89.9853 108.836 90.6786 108.87 91.238C108.923 92.1121 107.818 92.2193 107.021 92.4571C105.42 92.9294 103.39 92.9261 101.749 92.6983C100.55 92.5308 99.2537 91.4925 98.0077 91.8844C98.0747 91.4121 98.6173 90.3571 98.4633 89.9015C98.3293 89.5063 97.1972 89.0608 96.8622 88.8967C96.0651 88.5048 95.1909 88.1364 94.6181 87.4196C94.1727 86.8636 94.2932 86.8268 94.6047 86.2172C95.3383 84.7837 95.71 83.1927 96.3196 81.7056C96.6211 80.9654 97.0197 80.2117 97.1637 79.4213C97.2273 79.0629 97.0766 78.2523 97.3345 77.9341C97.847 77.3045 99.9571 77.0265 100.681 76.792C101.046 76.6714 101.32 76.5542 101.458 76.5709Z" fill="#5C3A6F"/>
<path d="M104.489 69.9323C104.576 70.1769 104.787 70.3979 104.981 70.5486C105.105 70.6458 105.252 70.6759 105.366 70.8065C105.5 70.9606 105.54 71.175 105.658 71.3391C105.832 71.587 106.093 71.6271 106.301 71.8482C106.481 72.0425 106.585 72.3372 106.656 72.5884C106.826 73.1947 106.528 73.7272 106.465 74.3301C106.388 75.0904 106.153 75.489 105.654 76.0684C105.326 76.4503 105.292 76.9795 105.366 77.4718C105.41 77.7465 105.567 78.1987 105.788 78.3795C105.899 78.47 106.066 78.47 106.19 78.5369C106.411 78.6575 106.475 78.8417 106.659 78.9992C107.031 79.314 107.406 79.1231 107.61 78.7212C107.882 78.1953 107.664 77.5489 107.697 76.9895C107.731 76.4168 107.908 75.8574 107.928 75.288C107.955 74.588 107.768 73.898 107.761 73.198C107.754 72.4812 107.748 71.7008 107.593 70.9975C107.429 70.2438 106.984 69.7883 106.525 69.2189C106.033 68.606 105.192 68.0935 104.425 68.5959C103.658 67.9629 102.904 68.2978 102.231 68.9041C101.796 69.296 101.417 69.8453 101.206 70.3912C100.965 71.0142 100.932 71.5066 100.533 72.0559C100.218 72.4913 99.9435 72.9836 99.7358 73.4794C99.4745 74.099 99.5516 74.732 99.3875 75.3684C99.1731 76.2192 98.242 77.4216 98.8248 78.2924C99.0726 78.6609 99.4042 78.7279 99.7994 78.8283C100.054 78.892 100.443 79.0628 100.704 79.0293C101.233 78.9623 101.387 78.0446 101.548 77.646C101.782 77.0599 101.913 76.4369 102.074 75.8306C102.184 75.412 102.057 75.0268 102.164 74.6081C102.338 73.9248 102.368 73.2784 102.456 72.5717C102.533 71.942 102.948 71.7511 103.31 71.2889C103.725 70.773 104.16 70.3778 104.489 69.9323Z" fill="#F47577"/>
<path d="M96.5908 88.5249C97.3143 87.0779 98.0009 85.5406 98.5536 84.0199C99.1129 82.4759 99.8364 80.982 100.376 79.448C100.627 79.4815 100.838 79.7193 101.089 79.8231C101.776 80.1078 102.466 80.3054 103.146 80.6337C103.963 81.0289 104.606 81.6653 105.39 82.1141C106.086 82.5127 106.776 83.2027 107.537 83.4673C106.431 86.2607 105.135 89.1311 103.655 91.7738C103.27 92.4638 103.3 92.5174 102.707 92.1121C101.88 91.546 100.992 90.98 100.124 90.4742C99.0258 89.8378 97.8334 89.245 96.5908 88.5249Z" fill="#F47577"/>
<path d="M100.962 89.8848C101.833 89.8647 102.653 90.3303 103.32 90.8528C103.474 90.9734 104.536 91.7002 104.388 90.96C104.616 90.9566 104.747 90.7155 104.733 90.5112C105.001 90.5447 105.132 90.2164 105.045 89.992C105.45 89.9016 105.296 89.225 105.052 89.024C105.437 89.2384 105.725 88.8901 105.464 88.5685C105.266 88.3274 104.847 88.1331 104.583 87.9723C104.305 87.8015 103.99 87.567 103.655 87.5302C103.32 87.4933 102.901 87.5938 102.57 87.634C102.295 87.6675 101.535 87.6173 101.334 87.7647C101.099 87.9355 100.791 88.88 100.794 89.1647C100.794 89.3322 100.985 89.925 100.962 89.8848Z" fill="#F6BA94"/>
<path d="M104.526 87.0243C104.278 87.2387 105.654 88.0057 105.809 88.1229C106.251 88.4679 106.375 88.4813 106.726 88.0392C107.058 87.6171 107.41 87.2554 107.493 86.7028C107.527 86.4783 107.527 86.2707 107.416 86.0798C107.289 85.8587 107.245 85.8989 107.296 85.6678C107.346 85.4367 107.51 85.1687 107.185 85.0113C106.807 84.8271 106.505 85.286 106.432 85.5874C106.033 85.6075 104.643 85.3329 104.673 86.0396C104.388 85.8889 103.983 86.2908 104.244 86.5487C104.197 86.5386 104.144 86.5587 104.104 86.5554C104.04 86.8233 104.328 87.0109 104.526 87.0243Z" fill="#F6BA94"/>
<path d="M97.4048 84.7233C98.0178 85.7013 98.7144 86.1401 99.7326 86.7095C100.188 86.964 100.684 87.1348 101.173 87.3057C101.417 87.3927 101.682 87.3894 101.853 87.5937C101.494 87.7478 101.32 88.4779 101.263 88.8263C101.206 89.188 101.22 89.5598 101.2 89.9249C100.536 90.079 99.9035 90.0656 99.2135 89.9919C98.4331 89.9081 98.3058 89.5062 97.7129 89.1411C97.2105 88.8296 96.6043 88.7894 96.1555 88.3607C95.6531 87.8784 95.7937 86.542 95.9746 85.929C96.0985 85.5003 96.3732 84.9242 96.8622 84.8505C97.0397 84.8238 97.1938 84.8941 97.3646 84.8941C97.378 84.8606 97.3914 84.8271 97.4048 84.7233Z" fill="#5C3A6F"/>
<path d="M106.448 88.6521C106.934 88.8966 107.416 89.5029 108.026 89.3086C108.1 89.2852 108.113 89.1612 108.026 89.1445C107.714 89.0842 107.46 89.0172 107.168 88.8866C106.941 88.7861 106.71 88.6756 106.475 88.5885C106.438 88.5751 106.415 88.6354 106.448 88.6521Z" fill="#35244B"/>
<path d="M98.507 89.6065C98.6476 89.7874 98.8252 89.8779 99.0529 89.8812C99.1132 89.8812 99.1266 89.7908 99.0663 89.7774C98.8922 89.7372 98.728 89.6367 98.6108 89.5027C98.5472 89.429 98.45 89.5362 98.507 89.6065Z" fill="#35244B"/>
<path d="M97.7229 83.9495C97.5822 84.4654 97.5655 85.0415 97.8133 85.5271C98.0511 85.996 98.4866 86.1601 98.922 86.4013C98.9622 86.4247 98.999 86.3745 98.9689 86.341C98.6976 86.0329 98.3593 85.7683 98.1483 85.4099C97.8736 84.941 97.8837 84.4486 97.743 83.9462C97.743 83.9395 97.7262 83.9395 97.7229 83.9495Z" fill="#35244B"/>
<path d="M101.9 77.5891C102.476 78.4431 104.211 79.4848 105.078 78.4465C105.115 78.403 105.082 78.3393 105.025 78.3527C104.388 78.4934 103.95 78.681 103.293 78.4398C102.757 78.2455 102.369 77.9005 101.917 77.5757C101.906 77.569 101.893 77.579 101.9 77.5891Z" fill="#35244B"/>
<path d="M107.754 82.9716C107.962 82.027 108.598 81.394 109.054 80.5835C109.087 80.5232 109.02 80.4495 108.957 80.4863C108.163 80.9753 107.781 82.084 107.704 82.9649C107.704 82.9917 107.748 82.9984 107.754 82.9716Z" fill="#35244B"/>
<path d="M107.607 85.9993C107.791 86.1601 108.066 86.2271 108.28 86.3477C108.488 86.4649 108.696 86.6927 108.923 86.7529C108.964 86.763 108.997 86.7261 108.987 86.6893C108.937 86.4381 108.589 86.2773 108.378 86.1768C108.156 86.073 107.862 85.929 107.611 85.9692C107.604 85.9725 107.597 85.9893 107.607 85.9993Z" fill="#35244B"/>
<path d="M108.451 85.5204C108.548 85.8654 108.715 86.2104 109.027 86.408C109.057 86.4281 109.101 86.3946 109.091 86.3611C108.977 86.0496 108.769 85.7783 108.659 85.4668C108.612 85.3362 108.414 85.3864 108.451 85.5204Z" fill="#35244B"/>
<path d="M108.91 85.2023C108.84 85.3262 108.903 85.5372 108.954 85.6612C109.011 85.8085 109.094 85.9659 109.235 86.0463C109.292 86.0798 109.362 86.0128 109.325 85.9559C109.245 85.8152 109.158 85.7013 109.104 85.5473C109.068 85.4401 109.044 85.2793 108.96 85.1989C108.947 85.1822 108.92 85.1822 108.91 85.2023Z" fill="#35244B"/>
<path d="M98.242 83.4807C98.3626 83.4103 98.4798 83.34 98.5937 83.2563C98.6942 83.1826 98.7879 83.1022 98.8114 82.9749C98.8147 82.9481 98.7879 82.9146 98.7612 82.9347C98.6573 83.0118 98.5736 83.1156 98.4664 83.1926C98.3626 83.2697 98.2788 83.3333 98.2085 83.4472C98.1951 83.4673 98.2186 83.4941 98.242 83.4807Z" fill="#35244B"/>
<path d="M103.193 97.7627C103.203 97.7627 103.203 97.7485 103.193 97.7485C103.182 97.7485 103.182 97.7627 103.193 97.7627Z" fill="#5C3A6F"/>
<path d="M103.192 97.7919C103.243 97.7919 103.243 97.7148 103.192 97.7148C103.142 97.7148 103.142 97.7919 103.192 97.7919Z" fill="#5C3A6F"/>
<path d="M103.196 97.699C103.514 96.3458 103.303 94.9424 103.521 93.5725C103.531 93.5156 103.447 93.4888 103.434 93.5491C103.102 94.9089 103.33 96.3157 103.192 97.699C103.189 97.7023 103.196 97.7023 103.196 97.699Z" fill="#5C3A6F"/>
<path d="M106.743 93.3512C107.245 93.9607 107.912 94.8416 108.826 94.5636C108.934 94.5301 108.91 94.3761 108.8 94.3694C108.364 94.3426 108.016 94.2923 107.647 94.0411C107.333 93.8301 107.058 93.5689 106.776 93.3177C106.756 93.2942 106.723 93.3277 106.743 93.3512Z" fill="#5C3A6F"/>
<path d="M98.1481 95.1198C99.3707 95.083 100.154 93.7466 100.64 92.802C100.674 92.735 100.597 92.6814 100.54 92.725C100.101 93.08 100.014 93.7264 99.6386 94.1451C99.2065 94.6274 98.7041 94.8117 98.1347 95.0696C98.1079 95.0796 98.1213 95.1198 98.1481 95.1198Z" fill="#5C3A6F"/>
<path d="M100.892 122.431C101.833 122.139 102.673 122.059 103.611 122.417C103.661 122.438 103.688 122.367 103.658 122.334C103.132 121.697 101.431 121.895 100.885 122.417C100.878 122.424 100.881 122.431 100.892 122.431Z" fill="#5C3A6F"/>
<path d="M90.5821 122.381C90.9673 122.682 91.5702 122.782 92.0458 122.705C92.0626 122.702 92.0626 122.675 92.0458 122.672C91.8013 122.628 91.5534 122.608 91.3089 122.565C91.0611 122.521 90.84 122.421 90.5989 122.35C90.5821 122.347 90.5687 122.371 90.5821 122.381Z" fill="#5C3A6F"/>
<path d="M100.871 75.8574C101.036 74.6282 101.27 73.1779 101.967 72.1295C102.271 71.6707 102.677 71.2754 103.015 70.84C103.35 70.4079 103.809 69.4935 104.475 69.6644C104.509 69.6744 104.522 69.6208 104.489 69.6141C103.651 69.3864 102.807 70.917 102.409 71.4496C101.407 72.7927 101.069 74.2128 100.865 75.8608C100.868 75.8608 100.871 75.8607 100.871 75.8574Z" fill="#D85D63"/>
<path d="M104.489 69.3527C105.048 69.2757 105.464 70.3307 105.788 70.6992C106.334 71.3188 106.897 71.9586 107.138 72.7725C107.597 74.3132 105.889 75.3649 105.775 76.8219C105.775 76.8386 105.798 76.8386 105.798 76.8219C105.936 75.7132 106.877 74.9496 107.185 73.8912C107.403 73.1375 107.125 72.5179 106.75 71.8681C106.334 71.148 105.752 70.5585 105.283 69.8786C105.092 69.6039 104.861 69.2154 104.486 69.3326C104.469 69.3393 104.475 69.3561 104.489 69.3527Z" fill="#D85D63"/>
<path d="M89.9321 124.095C90.2637 124.283 90.4613 124.517 90.8665 124.511C91.2048 124.504 91.523 124.37 91.7575 124.132C91.7642 124.125 91.7541 124.112 91.7474 124.119C91.4795 124.296 91.1412 124.41 90.8163 124.413C90.468 124.417 90.2201 124.263 89.9354 124.089C89.9321 124.085 89.9254 124.095 89.9321 124.095Z" fill="#D85D63"/>
<path d="M101.096 123.995C101.367 124.474 101.916 124.635 102.442 124.578C103.025 124.514 103.4 124.099 103.631 123.593C103.634 123.583 103.621 123.573 103.614 123.583C103.353 123.982 103.028 124.3 102.546 124.397C102.033 124.498 101.447 124.404 101.106 123.988C101.099 123.982 101.092 123.988 101.096 123.995Z" fill="#D85D63"/>
<path d="M102.79 75.7167C103.309 76.2459 103.822 77.1302 104.683 76.7316C104.706 76.7215 104.693 76.6847 104.669 76.6847C103.849 76.7048 103.413 76.1555 102.827 75.6832C102.804 75.6631 102.77 75.6933 102.79 75.7167Z" fill="#E8A885"/>
<path d="M60.6852 97.1259C60.4407 95.4646 59.8512 93.6359 59.4158 91.9545C58.5349 88.5414 57.577 84.9643 56.3611 81.6517C55.2659 78.6708 54.6027 75.5692 53.963 72.4643C53.8558 71.9452 52.7203 68.0029 51.4509 68.0029C49.0527 68.0029 46.2392 68.0163 43.8813 68.1135C39.661 68.2809 35.481 68.7164 31.254 68.7164C26.6855 68.7164 22.1269 68.5522 17.5617 68.7097C15.9037 68.7666 14.2491 68.8101 12.5979 68.9441C11.9347 68.9977 10.8897 69.1216 10.3605 69.3259C8.40445 70.0762 9.63367 72.672 10.0155 74.0419C11.0471 77.7564 11.6567 81.6082 12.5912 85.3562C14.2023 91.8004 14.698 98.66 16.9052 104.933C17.4545 106.494 18.1244 107.991 20.1005 107.884C19.8493 107.435 19.3302 107.121 19.1527 106.551C18.8144 105.466 19.6584 105.543 20.5661 105.352C22.8136 104.876 25.0811 104.515 27.3486 104.133C30.5239 103.597 33.6355 102.689 36.814 102.163C40.0931 101.621 43.3722 100.83 46.611 100.087C49.6154 99.3968 52.6567 98.9983 55.6946 98.5159C56.7497 98.3485 57.798 98.1408 58.8564 97.9733C59.2282 97.9131 59.8579 97.9365 60.1995 97.7724C60.5747 97.5882 60.7522 97.5915 60.6852 97.1259Z" fill="#FF8485"/>
<path d="M58.5181 94.9959C58.4008 95.6892 56.14 95.6992 55.5605 95.7897C53.8725 96.061 52.1877 96.3959 50.4963 96.6572C46.122 97.3371 41.7175 97.8629 37.38 98.717C33.6421 99.4539 29.9276 100.285 26.1662 100.874C24.6523 101.112 23.1652 101.417 21.6446 101.621C20.8541 101.728 19.9297 101.711 19.2129 102.093C19.2732 101.38 18.8478 100.432 18.6234 99.7721C18.3052 98.8443 18.0707 97.9199 17.8631 96.9619C17.2401 94.0748 16.8248 91.144 15.964 88.3105C15.0563 85.3161 14.2625 82.2514 13.6629 79.18C13.1873 76.755 12.427 74.2966 12.1055 71.8549C12.4103 71.3692 16.8482 71.885 17.5449 71.8582C20.7201 71.7376 23.8819 71.3859 27.0538 71.252C33.1531 70.9974 39.2758 70.4347 45.3851 70.4347C47.4416 70.4347 49.4881 70.4314 51.5413 70.4347C52.6734 72.2467 52.8509 75.1406 53.2997 77.2407C53.8155 79.659 54.5959 82.0303 55.2122 84.4185C55.7582 86.5353 56.4515 88.5985 57.0041 90.7153C57.3692 92.0752 57.9051 93.7968 58.5181 94.9959Z" fill="#35244B"/>
<path d="M19.8127 105.104C19.4777 105.426 18.9988 105.577 18.9284 106.092C18.8648 106.568 19.4108 107.456 19.7323 107.784C20.3419 108.407 21.675 108.635 22.4922 109.023C26.6957 111.019 31.1504 112.429 35.4276 114.278C37.2965 115.085 39.2392 115.678 41.0646 116.549C42.2972 117.139 43.6236 117.467 44.9801 117.524C46.5811 117.591 47.683 117.279 49.1333 116.63C50.731 115.916 52.6033 115.698 54.2947 115.333C57.202 114.704 59.9016 113.468 62.8089 112.858C63.6865 112.674 64.4066 112.406 65.2741 112.141C67.2502 111.542 69.9197 111.207 71.6111 110.055C72.2107 110.205 73.2389 109.77 73.9624 109.589C75.3457 109.241 76.7424 108.889 78.1157 108.514C80.9191 107.75 83.8766 107.054 86.5863 106.069C87.2863 105.814 88.2074 105.794 88.2509 104.897C88.2911 104.059 87.1222 104.046 86.3016 103.865C82.9589 103.121 79.298 103.309 75.8783 103.095C72.7801 102.904 69.712 102.415 66.6038 102.565C60.5615 102.86 54.5794 104.029 48.5371 104.438C43.1345 104.803 37.7052 104.696 32.3126 105.101C29.3283 105.325 26.2502 106.049 23.2525 105.771C22.3381 105.687 21.675 105.399 20.8644 105.141C20.4491 105.01 20.161 105.071 19.7457 104.954C19.8629 104.88 19.7189 105.201 19.8127 105.104Z" fill="#35244B"/>
<path d="M87.9325 103.966C89.0813 104.984 86.2812 105.496 85.762 105.687C83.2567 106.612 80.5872 107.097 78.0216 107.861C74.5717 108.886 71.085 109.76 67.6519 110.825C63.8335 112.011 59.9683 113.096 56.1299 114.235C54.4016 114.747 52.6131 115.126 50.8613 115.538C50.0474 115.729 48.9924 115.688 48.2354 116.064C46.7952 116.77 44.7621 116.385 43.3654 115.779C38.7265 113.766 34.0239 111.89 29.2979 110.071C28.1792 109.639 27.238 109.016 26.1763 108.504C25.2518 108.059 24.1934 107.894 23.2489 107.452C22.1603 106.943 19.7387 106.843 19.0923 105.751C19.377 104.984 21.5072 104.923 22.2173 104.816C24.0125 104.545 25.781 103.999 27.5495 103.574C32.6205 102.361 37.792 101.587 42.8998 100.536C47.5019 99.5912 52.0303 98.4792 56.6725 97.7122C57.9018 97.5079 59.1913 97.3237 60.4339 97.3203C61.1272 97.317 62.0852 97.6787 62.688 97.5514C63.1804 97.4476 63.8402 97.7156 64.356 97.8596C65.5685 98.1945 66.7911 98.5094 67.9935 98.8745C70.7232 99.7018 73.52 100.244 76.2766 100.954C78.5307 101.537 80.7614 102.294 83.0691 102.666C84.084 102.83 85.062 103.121 86.0668 103.336C86.5559 103.443 87.5205 103.6 87.9325 103.966Z" fill="#5C3A6F"/>
<path opacity="0.47" d="M25.0479 106.732C26.2068 106.072 27.5063 106.012 28.7925 105.784C31.2208 105.349 33.6759 104.94 36.0841 104.404C40.6226 103.393 45.1309 102.274 49.666 101.246C53.4173 100.395 57.1586 99.5676 60.93 98.8307C61.6434 98.69 62.2764 98.4723 62.9698 98.613C64.1889 98.8609 65.321 99.4637 66.5302 99.7819C69.3671 100.522 72.3179 100.948 75.0778 101.828C75.0778 101.872 75.0745 101.986 75.0812 102.026C72.0098 103.138 68.7106 103.537 65.5287 104.26C61.8142 105.104 58.15 105.771 54.4991 106.873C50.0679 108.209 45.429 108.969 40.9274 110.091C39.5374 110.44 37.9799 111.203 36.5263 111.254C35.6521 111.284 34.7209 110.768 33.9137 110.393C32.0582 109.525 30.1892 108.748 28.2432 108.102C27.2484 107.77 25.8283 107.469 24.9541 106.916C25.1115 106.842 25.2656 106.782 25.0479 106.732Z" fill="#35244B"/>
<path d="M51.6553 108.795C54.1874 109.258 56.3947 110.748 58.6589 111.786C60.5446 112.65 63.8404 110.902 65.8835 110.393C66.8381 110.155 68.5463 110.071 69.1961 109.331C67.3338 107.945 64.5103 107.151 62.3064 106.313C60.7623 105.727 59.2685 106.273 57.6407 106.769C56.244 107.194 54.8573 107.64 53.4706 108.068C52.918 108.239 51.9266 108.28 51.7491 108.815C51.7424 108.946 51.7993 108.708 51.6553 108.795Z" fill="#FF8485"/>
<path d="M25.751 50.8438C26.1295 50.2141 26.3974 50.4485 26.796 50.8873C27.1578 51.2859 27.6401 51.5505 28.0822 51.8452C28.5344 52.1467 29.0133 52.5252 29.3449 52.9539C29.6464 53.3424 29.164 53.7544 28.7923 53.9654C28.5277 53.396 27.9549 52.917 27.3286 52.8099C27.0841 52.7697 26.8463 52.8099 26.6085 52.7194C26.4946 52.6759 26.4209 52.5787 26.2869 52.5988C26.2836 52.7328 26.3539 52.8735 26.2936 52.9941C26.1797 52.9773 26.0826 52.917 25.9788 52.8735C26.0458 53.0008 26.1161 53.1816 25.9855 53.2788C25.8984 53.195 25.8247 53.0879 25.7544 52.9874C25.7343 53.0041 25.7041 53.0276 25.6874 53.0477C25.3424 52.7898 25.3893 52.2706 25.4898 51.9122C25.5668 51.6376 25.6204 51.3562 25.7075 51.0849C25.7611 50.9074 25.895 50.7902 25.751 50.8438Z" fill="#F6BA94"/>
<path d="M46.2829 66.5992C46.2226 66.3614 47.1571 65.5542 47.3312 65.2393C47.6461 64.6666 47.9978 63.9799 48.1116 63.3302C48.1686 63.0086 47.9944 62.0808 48.1887 61.833C48.5303 61.3976 48.9959 61.9402 49.1366 62.2416C49.7863 63.6249 49.1801 65.3163 49.2337 66.7499C49.2504 67.1585 49.5485 67.8887 49.3375 68.2672C49.1567 68.5921 48.7045 68.5251 48.2925 68.5351C47.8738 68.5452 47.4585 68.5385 47.0432 68.5351C46.5441 68.5284 46.5944 68.6122 46.3733 68.237C46.0618 67.7078 46.0752 66.8638 46.2829 66.5992Z" fill="#F47577"/>
<path d="M33.9103 63.3871C34.4764 64.4823 35.3372 65.1589 36.2717 65.9092C35.575 65.7652 34.4931 66.1034 33.8768 65.8121C33.2706 65.5274 33.0596 63.7689 33.9103 63.3871Z" fill="#F6BA94"/>
<path d="M16.1753 68.9974C16.1753 68.9271 16.1753 68.8568 16.1485 68.8099C16.1284 69.118 16.1519 69.3123 15.9308 69.5601C15.7198 69.7979 15.3782 70.0257 15.0533 70.0625C14.5341 70.1195 14.2427 69.9453 13.804 70.3238C13.6834 70.4276 13.2346 70.9233 13.0369 70.7458C12.769 70.5047 13.4355 69.7142 13.6398 69.6037C13.1676 69.7209 12.6585 69.6439 12.1761 69.7075C11.7843 69.7611 11.1244 69.9822 10.7393 69.8549C10.8196 69.4429 11.8211 69.3156 12.1628 69.2118C12.6819 69.0544 13.1977 68.9304 13.737 68.9103C14.2628 68.8903 14.6078 68.7931 15.0131 68.4146C15.2743 68.1701 15.3681 67.9156 15.7064 68.2003C15.9275 68.3878 15.9543 68.6725 16.1184 68.9003C16.1519 68.8467 16.1552 68.7898 16.1753 68.9974Z" fill="#F6BA94"/>
<path d="M47.4585 67.3864C47.3581 66.7634 47.3782 65.8557 47.0432 65.3198C46.6714 65.4203 46.226 65.427 45.824 65.5007C45.3752 65.5844 44.99 65.8658 44.5513 65.9395C43.1244 66.1706 41.4832 65.7854 40.043 65.695C38.5927 65.6045 37.0218 65.6682 35.6017 65.4304C34.9787 65.3265 34.3423 65.0452 33.6858 65.0787C33.9404 64.5394 34.4495 65.015 34.4394 64.1475C34.4327 63.5915 34.5634 63.5413 34.7945 63.0389C34.1748 62.6001 33.8868 61.5652 33.4145 60.9757C32.8753 60.2991 32.4834 59.5254 31.9709 58.8287C31.4317 58.0918 30.2393 56.5545 29.1306 56.9262C28.4641 57.1507 28.3569 58.1722 27.9751 58.6746C27.5832 59.1871 27.1344 59.6359 26.7492 60.1651C24.954 62.6202 22.1103 64.1576 20.2146 66.5256C20.1174 66.3079 20.0806 66.0768 20.1844 66.5625C20.3251 67.1921 21.1155 68.3175 21.6682 68.6525C22.4419 69.1214 23.7482 69.386 24.6492 69.3659C26.2401 69.3291 27.7239 68.6525 29.345 68.7798C30.9695 68.9104 32.6308 69.1114 34.2586 69.1381C35.7122 69.1616 37.129 69.0812 38.5726 68.9338C40.1167 68.7731 41.6607 68.6458 43.1546 69.1515C44.0053 69.4396 44.8996 69.7913 45.7973 69.7008C46.4872 69.6305 47.1705 69.5702 47.8504 69.5133C47.8873 68.7798 47.5724 68.1032 47.4585 67.3864ZM30.6111 64.7638C30.1958 64.7169 29.3048 64.8509 29.2077 64.7102C29.1206 64.248 29.7436 62.4393 30.0886 62.024C31.147 62.8044 32.0346 63.9667 32.8183 64.9815C32.1083 65.4036 31.3413 64.8476 30.6111 64.7638Z" fill="#35244B"/>
<path d="M22.0062 50.2543C22.0866 51.6108 20.988 52.7027 20.6999 53.952C20.3382 55.533 23.7077 55.9684 24.4646 54.853C24.7226 54.4745 24.4446 53.885 24.4814 53.453C24.535 52.84 24.8197 52.5955 25.1111 52.1199C25.5532 51.3931 25.0575 50.5055 24.4312 50.0198C23.6206 49.3935 23.1316 49.9428 22.0062 50.2543Z" fill="#F6BA94"/>
<path d="M23.1553 47.0588C21.6849 47.8024 21.072 49.8187 22.261 51.0982C22.817 51.6944 24.7429 52.8901 25.5669 52.2403C26.3473 51.624 26.1128 49.5072 25.9554 48.6699C25.6674 47.1258 24.83 46.553 23.1553 47.0588Z" fill="#F6BA94"/>
<path d="M24.5788 53.1683C23.9725 54.2502 21.5878 53.6506 21.2227 52.5989C20.814 52.7898 20.4088 53.0611 19.98 53.2252C19.5279 53.3961 19.0724 53.3425 18.6704 53.6238C17.3173 54.5684 17.324 56.9933 17.0359 58.4436C16.8115 59.5791 16.6507 60.6877 16.557 61.8432C16.4565 63.0591 16.0244 63.8763 15.5019 64.9548C14.899 66.2008 14.8856 67.3262 14.6646 68.6325C15.2507 68.8401 16.0077 69.1583 16.3091 69.7277C16.9522 67.8119 17.9068 66.0233 18.4996 64.0806C18.7006 63.4208 18.9049 62.7878 19.1159 62.1346C19.3068 61.5552 19.6853 61.103 19.893 60.5437C19.8829 62.2083 18.7207 63.6888 18.9652 65.4104C19.0422 65.9496 19.1226 66.9712 19.3906 67.4133C19.8327 68.1468 20.9949 67.9358 21.3734 68.6593C21.5375 67.4669 22.2208 66.4788 23.0246 65.6013C23.5605 65.0151 24.0395 64.3854 24.5922 63.816C25.0008 63.3907 25.4731 63.0658 25.7444 62.5366C25.9688 62.1012 26.0492 61.6021 26.2468 61.1566C26.5382 60.5035 26.8396 59.9408 27.0171 59.2441C27.1009 58.9226 27.1411 58.0986 27.332 57.8273C27.5664 57.489 28.5043 57.3149 28.8727 57.211C29.8306 56.9397 30.601 57.1206 31.5455 57.1005C32.3728 57.0837 32.6073 56.866 32.346 56.0019C31.8939 54.4947 30.0751 53.2554 28.8626 52.4214C29.2646 53.0812 28.6952 53.2989 28.1392 53.2956C28.377 53.7042 28.3234 54.1765 28.5076 54.5818C28.6349 54.8665 28.8827 54.9301 28.9196 55.2617C28.6583 55.2818 28.4842 55.0105 28.3703 54.7827C27.399 54.9334 26.6755 54.5248 25.9755 53.8884C25.6841 53.6238 24.7697 52.9908 24.5788 53.1683Z" fill="#5C3A6F"/>
<path d="M22.9408 47.8862C23.2054 47.3302 23.9389 47.692 24.3844 47.7322C24.6691 47.759 24.86 47.6451 25.1313 47.635C25.4863 47.6183 25.6906 47.8594 26.0055 47.9666C27.0371 48.3116 26.2667 46.235 25.5801 45.9972C24.1265 45.4914 22.4484 45.5048 21.5072 46.9618C21.0149 47.7221 20.9043 48.2681 21.122 49.1523C21.2761 49.7786 21.4871 50.348 21.5039 50.9911C21.5106 51.2122 21.3264 51.9189 21.7517 51.7682C21.9393 51.7012 22.1403 50.9811 22.3044 50.8237C21.9326 50.6059 21.5742 50.1136 21.7919 49.6514C22.0197 49.1691 22.4149 49.4035 22.6192 49.7251C22.636 48.8408 22.8068 48.1173 23.259 47.347" fill="#35244B"/>
<path d="M48.7949 68.0965C48.5872 66.2677 49.4781 64.1409 48.4834 62.4528C48.4733 62.436 48.4465 62.4494 48.4532 62.4662C49.1867 64.305 48.269 66.2443 48.7814 68.0999C48.7848 68.1032 48.7949 68.1032 48.7949 68.0965Z" fill="#D85D63"/>
<path d="M14.9123 68.1031C15.3243 68.15 15.6559 68.3811 15.9305 68.6758C15.9506 68.6993 15.9875 68.6691 15.9707 68.6423C15.7798 68.3007 15.3009 68.0495 14.9157 68.0662C14.8956 68.0629 14.8889 68.0997 14.9123 68.1031Z" fill="#35244B"/>
<path d="M29.1239 55.389C29.422 55.5364 29.8172 55.9483 30.1153 55.5766C30.1354 55.5498 30.1153 55.5062 30.0785 55.5196C29.7536 55.6235 29.4655 55.3622 29.1507 55.3187C29.1105 55.312 29.0837 55.3689 29.1239 55.389Z" fill="#35244B"/>
<path d="M29.4658 55.2785C29.6735 55.3287 29.9314 55.3555 30.0989 55.1947C30.1223 55.1713 30.0922 55.1378 30.0654 55.1545C29.8912 55.2517 29.6768 55.2349 29.4893 55.1847C29.429 55.1679 29.4055 55.2651 29.4658 55.2785Z" fill="#35244B"/>
<path d="M27.1447 57.3752C27.3356 56.8125 27.0408 56.2364 26.8499 55.7172C26.8365 55.677 26.7829 55.6971 26.7896 55.7373C26.8834 56.3034 27.1413 56.7857 27.1179 57.3752C27.1179 57.3886 27.1413 57.3886 27.1447 57.3752Z" fill="#35244B"/>
<path d="M19.8795 59.5858C20.0369 59.0231 19.923 58.4804 19.8594 57.9111C19.7823 57.201 19.7823 56.4909 19.8359 55.7808C19.8359 55.7641 19.8125 55.7641 19.8091 55.7775C19.6651 56.3804 19.6417 56.9766 19.6852 57.5929C19.7321 58.2493 19.9632 58.9192 19.8426 59.5757C19.8359 59.6025 19.8728 59.6125 19.8795 59.5858Z" fill="#35244B"/>
<path d="M20.9281 67.7147C20.9683 67.6778 21.1123 67.1084 21.1157 67.1017C21.2229 66.8807 21.3602 66.673 21.5109 66.4821C21.7755 66.1471 22.0937 65.8591 22.4153 65.5777C23.0315 65.0385 23.6545 64.5361 24.1335 63.8629C24.1402 63.8528 24.1235 63.8428 24.1168 63.8495C23.1923 64.9916 20.7037 66.0634 20.7908 67.7883C20.7908 67.8151 20.8276 67.8285 20.8444 67.8084C20.8712 67.7783 20.9013 67.7482 20.9281 67.7147Z" fill="#35244B"/>
<path d="M20.7505 53.2452C21.3434 53.7275 21.8759 54.461 22.6463 54.6687C23.5138 54.8998 24.2473 54.2935 24.8837 53.7978C24.8937 53.7911 24.8837 53.7744 24.8736 53.7811C24.0329 54.2902 23.209 54.8864 22.2109 54.3371C21.675 54.0457 21.273 53.5567 20.7673 53.2184C20.7539 53.2083 20.7371 53.2318 20.7505 53.2452Z" fill="#35244B"/>
<path d="M22.8035 51.4097C22.9945 51.6508 23.1753 51.9221 23.4533 52.0695C23.7313 52.2169 24.0763 52.2068 24.3778 52.1767C24.418 52.1733 24.4146 52.1197 24.3744 52.1164C23.8218 52.0628 23.2423 51.7479 22.8203 51.3929C22.8136 51.3829 22.7935 51.3963 22.8035 51.4097Z" fill="#E8A885"/>
<path d="M25.7308 51.7952C25.828 51.6344 25.8883 51.4669 25.9352 51.286C25.9821 51.0985 26.0457 50.9076 26.0758 50.7166C26.0825 50.6798 26.0289 50.6363 26.0021 50.6765C25.905 50.8071 25.8749 50.9645 25.8447 51.1253C25.8012 51.343 25.7543 51.5506 25.6438 51.7483C25.6103 51.8019 25.6974 51.8487 25.7308 51.7952Z" fill="#E8A885"/>
<path opacity="0.31" d="M36.0908 8.72848C35.776 8.72848 35.4712 8.77873 35.1865 8.87251C34.5333 7.66338 33.2572 6.84277 31.7868 6.84277C29.9882 6.84277 28.481 8.07535 28.0523 9.74C27.992 9.73665 27.9283 9.72995 27.868 9.72995C26.535 9.72995 25.4531 10.8118 25.4531 12.1449C25.4531 13.4779 26.535 14.5598 27.868 14.5598C28.5312 14.5598 30.9629 14.5598 31.7868 14.5598C32.6577 14.5598 35.3238 14.5598 36.0908 14.5598C37.7019 14.5598 39.0081 13.2535 39.0081 11.6425C39.0081 10.0347 37.7019 8.72848 36.0908 8.72848Z" fill="#FF8485"/>
<path opacity="0.31" d="M66.1482 14.6302C65.9138 14.6302 65.6894 14.667 65.4784 14.7373C64.9927 13.8397 64.0448 13.2301 62.9529 13.2301C61.6165 13.2301 60.4944 14.1445 60.1763 15.3838C60.1294 15.3804 60.0858 15.3771 60.0389 15.3771C59.0475 15.3771 58.2437 16.1809 58.2437 17.1723C58.2437 18.1638 59.0475 18.9676 60.0389 18.9676C60.5313 18.9676 62.3366 18.9676 62.9529 18.9676C63.6027 18.9676 65.5822 18.9676 66.1516 18.9676C67.3473 18.9676 68.3186 17.9963 68.3186 16.8006C68.3186 15.6015 67.3473 14.6302 66.1482 14.6302Z" fill="#FF8485"/>
<path opacity="0.31" d="M118.094 14.8076C117.826 14.8076 117.568 14.8511 117.327 14.9315C116.771 13.9032 115.686 13.2065 114.437 13.2065C112.906 13.2065 111.626 14.2549 111.261 15.6717C111.208 15.6684 111.158 15.665 111.104 15.665C109.969 15.665 109.051 16.5861 109.051 17.7182C109.051 18.8503 109.972 19.7714 111.104 19.7714C111.67 19.7714 113.733 19.7714 114.437 19.7714C115.177 19.7714 117.444 19.7714 118.094 19.7714C119.464 19.7714 120.576 18.6594 120.576 17.2895C120.576 15.9196 119.464 14.8076 118.094 14.8076Z" fill="#FF8485"/>
<path opacity="0.31" d="M92.0924 28.2724C91.9216 28.2724 91.7575 28.2992 91.6034 28.3495C91.2517 27.6963 90.5584 27.2509 89.7613 27.2509C88.7866 27.2509 87.9727 27.9174 87.7382 28.8184C87.7047 28.815 87.6712 28.8117 87.6377 28.8117C86.9143 28.8117 86.3281 29.3978 86.3281 30.1213C86.3281 30.8448 86.9143 31.4309 87.6377 31.4309C87.9961 31.4309 89.3124 31.4309 89.7613 31.4309C90.2335 31.4309 91.6771 31.4309 92.0924 31.4309C92.9633 31.4309 93.6734 30.7242 93.6734 29.85C93.67 28.9791 92.9633 28.2724 92.0924 28.2724Z" fill="#FF8485"/>
<path opacity="0.31" d="M53.5744 31.0222C53.4036 31.0222 53.2394 31.049 53.0854 31.0992C52.7337 30.4461 52.0403 30.0006 51.2432 30.0006C50.2685 30.0006 49.4546 30.6671 49.2202 31.5681C49.1867 31.5648 49.1532 31.5614 49.1197 31.5614C48.3962 31.5614 47.8101 32.1476 47.8101 32.871C47.8101 33.5945 48.3962 34.1807 49.1197 34.1807C49.4781 34.1807 50.7944 34.1807 51.2432 34.1807C51.7155 34.1807 53.159 34.1807 53.5744 34.1807C54.4452 34.1807 55.1553 33.4739 55.1553 32.5997C55.1553 31.7322 54.4486 31.0222 53.5744 31.0222Z" fill="#FF8485"/>
<path opacity="0.31" d="M94.5009 2.224C94.1291 2.224 93.7707 2.28429 93.4358 2.39482C92.6654 0.967976 91.1582 0 89.4265 0C87.303 0 85.5245 1.45364 85.0187 3.41974C84.945 3.41304 84.8747 3.40969 84.801 3.40969C83.2268 3.40969 81.9507 4.68581 81.9507 6.26002C81.9507 7.83424 83.2268 9.11036 84.801 9.11036C85.5848 9.11036 88.4519 9.11036 89.4265 9.11036C90.4548 9.11036 93.5999 9.11036 94.5042 9.11036C96.4067 9.11036 97.9474 7.56964 97.9474 5.66718C97.9441 3.76807 96.4033 2.224 94.5009 2.224Z" fill="#FF8485"/>
</svg>
