<svg width="126" height="126" viewBox="0 0 126 126" fill="none" xmlns="http://www.w3.org/2000/svg">
<g clip-path="url(#clip0_1847_469)">
<path d="M63 126C97.7939 126 126 97.7939 126 63C126 28.2061 97.7939 0 63 0C28.2061 0 0 28.2061 0 63C0 97.7939 28.2061 126 63 126Z" fill="#F2E6DC"/>
<path d="M78.7938 30.5988H77.0628C76.9079 29.7553 76.6869 28.9346 76.406 28.1421L77.9042 27.2773L74.9752 22.2043L73.4736 23.0711C72.9227 22.426 72.3217 21.8249 71.6765 21.2741L72.5434 19.7724L67.4703 16.8434L66.6055 18.3417C65.813 18.0607 64.993 17.8397 64.1489 17.6848V15.9539H58.2909V17.6848C57.4475 17.8397 56.6267 18.0607 55.8343 18.3417L54.9695 16.8434L49.8964 19.7724L50.7633 21.2741C50.1181 21.8249 49.517 22.426 48.9662 23.0711L47.4646 22.2043L44.5356 27.2773L46.0338 28.1421C45.7529 28.9346 45.5319 29.7546 45.3769 30.5988H43.646V36.4567H45.3769C45.5319 37.3009 45.7529 38.1209 46.0338 38.9134L44.5356 39.7782L47.4646 44.8512L48.9662 43.9844C49.517 44.6295 50.1181 45.2306 50.7633 45.7814L49.8964 47.2831L54.9695 50.2121L55.8343 48.7139C56.6267 48.9948 57.4468 49.2158 58.2909 49.3707V51.1017H64.1489V49.3707C64.9923 49.2158 65.813 48.9948 66.6055 48.7139L67.4703 50.2121L72.5434 47.2831L71.6758 45.7814C72.321 45.2306 72.9221 44.6295 73.4729 43.9844L74.9746 44.8512L77.9035 39.7782L76.4053 38.9134C76.6862 38.1209 76.9072 37.3009 77.0622 36.4567H78.7931V30.5988H78.7938ZM70.1907 37.2692C69.2805 39.6763 67.367 41.5897 64.96 42.4992C56.7824 45.5907 49.1556 37.9632 52.247 29.7856C53.1566 27.3785 55.0707 25.4651 57.4778 24.5556C65.6554 21.4641 73.2828 29.0916 70.1907 37.2692Z" fill="white"/>
<path d="M61.2192 46.4938C54.0696 46.4938 48.2529 40.6772 48.2529 33.5275C48.2529 30.4037 49.3794 27.3859 51.425 25.0298C53.4506 22.6977 56.2391 21.1616 59.2776 20.7051C59.3595 20.6934 59.438 20.7499 59.4504 20.8325C59.4628 20.9151 59.4057 20.993 59.323 21.0053C53.1855 21.9273 48.5566 27.3102 48.5566 33.5269C48.5566 40.5092 54.2369 46.1895 61.2192 46.1895C66.9884 46.1895 72.0291 42.2945 73.477 36.7175C73.4984 36.6362 73.581 36.5873 73.6622 36.6087C73.7435 36.63 73.7924 36.7127 73.771 36.7939C72.2879 42.5052 67.1268 46.4938 61.2192 46.4938Z" fill="#F2E6DC"/>
<path d="M112.711 110.1H26.5528C26.4688 110.1 26.4014 110.032 26.4014 109.949V44.6443C26.4014 44.5603 26.4695 44.4928 26.5528 44.4928H112.711C112.795 44.4928 112.862 44.561 112.862 44.6443V109.948C112.862 110.033 112.795 110.1 112.711 110.1ZM26.7043 109.797H112.559V44.7964H26.7043V109.797Z" fill="#D3BBA3"/>
<path d="M24.5858 108.768L110.744 108.768L110.744 43.4639L24.5858 43.4639L24.5858 108.768Z" fill="#E6D0BE"/>
<path d="M108.04 100.828L108.04 46.1667L27.2885 46.1667L27.2885 100.828L108.04 100.828Z" fill="#F7F1EB"/>
<path d="M58.5947 110.062H61.1457C61.1457 111.976 62.697 113.527 64.6104 113.527H70.7183C72.6317 113.527 74.1829 111.976 74.1829 110.062H76.7339L79.2849 123.618V124.752H56.0444V123.618L58.5947 110.062Z" fill="#E6D0BE"/>
<path d="M40.5138 52.021L79.2847 52.021V50.2129L40.5138 50.2129V52.021Z" fill="#E6D0BE"/>
<path d="M35.7922 55.7379L74.563 55.7379V53.9299L35.7922 53.9299V55.7379Z" fill="white"/>
<path d="M47.5178 59.7228L86.2886 59.7228V57.9147L47.5178 57.9147V59.7228Z" fill="white"/>
<path d="M33.7158 63.4397L81.5669 63.4397V61.6316L33.7158 61.6316V63.4397Z" fill="white"/>
<path d="M52.2389 67.1398H102.562V65.3317H52.2389V67.1398Z" fill="#E6D0BE"/>
<path d="M32.5102 70.8567H86.2881V69.0486H32.5102V70.8567Z" fill="white"/>
<path d="M43.619 74.8961L104.338 74.8961V73.0881L43.619 73.0881V74.8961Z" fill="#E6D0BE"/>
<path d="M33.8742 78.3829H72.645V76.5749H33.8742V78.3829Z" fill="white"/>
<path d="M32.2634 82.5978H71.0342V80.7897H32.2634V82.5978Z" fill="white"/>
<path d="M36.8208 86.3147H84.6719V84.5066H36.8208V86.3147Z" fill="white"/>
<path d="M55.3444 90.0156H105.668V88.2076H55.3444V90.0156Z" fill="#E6D0BE"/>
<path d="M35.6157 93.7317H89.3936V91.9236H35.6157V93.7317Z" fill="white"/>
<path d="M84.7238 120.289L77.9576 123.229L73.1366 121.11C63.1372 116.716 56.6802 106.826 56.6802 95.9039L56.9274 74.2408L78.1463 68.6996L99.7302 74.488L99.483 97.7877C99.4823 107.558 93.6849 116.396 84.7238 120.289Z" fill="#D87355"/>
<path d="M83.7501 117.158L77.9224 119.754L73.77 117.883C65.1579 114.001 59.5967 105.266 59.5967 95.6191L59.8094 76.485L78.0712 71.7969L96.673 76.704L96.4603 97.284C96.461 105.913 91.4678 113.72 83.7501 117.158Z" fill="white"/>
<path d="M78.073 71.7969L77.8052 71.8657V119.701L77.9229 119.754L83.7506 117.158C91.4683 113.72 96.4614 105.913 96.4614 97.284L96.6742 76.704L78.073 71.7969Z" fill="#F7F1EB"/>
<path d="M77.9888 124.486C77.9681 124.486 77.9468 124.482 77.9275 124.473L72.926 122.275C62.4997 117.693 55.7632 107.375 55.7632 95.9863L56.02 73.5108C56.0207 73.4427 56.0675 73.3828 56.1336 73.3656L78.1464 67.6171C78.1719 67.6109 78.1988 67.6109 78.2242 67.6171L100.616 73.6224C100.683 73.6403 100.729 73.7016 100.728 73.7704L100.471 97.9424C100.471 108.142 94.4252 117.36 85.0689 121.424L78.0493 124.473C78.0301 124.481 78.0094 124.486 77.9888 124.486ZM56.3223 73.63L56.0668 95.9877C56.0668 107.254 62.7324 117.463 73.0486 121.997L77.9894 124.168L84.9484 121.145C94.1939 117.129 100.168 108.02 100.168 97.9404L100.424 73.8847L78.1843 67.9207L56.3223 73.63Z" fill="#363E44"/>
<path d="M67.6841 89.5415V97.1504C67.6841 102.542 72.0541 106.912 77.4453 106.912C82.8364 106.912 87.2065 102.542 87.2065 97.1504V89.5415H67.6841ZM78.2247 97.6744V101.792H76.6666V97.6744C75.8156 97.3576 75.2083 96.5404 75.2083 95.5792C75.2083 94.3433 76.2101 93.3415 77.446 93.3415C78.6819 93.3415 79.6837 94.3433 79.6837 95.5792C79.6837 96.5404 79.0764 97.3576 78.2247 97.6744Z" fill="#EFBC73"/>
<path d="M78.1648 106.525C72.6986 106.525 68.2515 102.078 68.2515 96.6116V89.0027C68.2515 88.9187 68.3196 88.8512 68.4029 88.8512H87.9261C88.0101 88.8512 88.0775 88.9194 88.0775 89.0027V96.6116C88.0782 102.078 83.631 106.525 78.1648 106.525ZM68.5551 89.1541V96.6116C68.5551 101.91 72.866 106.221 78.1648 106.221C83.4637 106.221 87.7746 101.91 87.7746 96.6116V89.1541H68.5551ZM78.9443 101.404H77.3861C77.3021 101.404 77.2346 101.336 77.2346 101.253V97.2381C76.3582 96.8663 75.7764 95.996 75.7764 95.0397C75.7764 93.7218 76.8484 92.6505 78.1655 92.6505C79.4834 92.6505 80.5547 93.7225 80.5547 95.0397C80.5547 95.996 79.9729 96.8663 79.0964 97.2381V101.253C79.0957 101.337 79.0283 101.404 78.9443 101.404ZM77.5376 101.101H78.7921V97.1341C78.7921 97.0708 78.8313 97.0137 78.8912 96.9916C79.7044 96.6894 80.2511 95.9044 80.2511 95.0383C80.2511 93.8884 79.3154 92.9527 78.1655 92.9527C77.0157 92.9527 76.08 93.8884 76.08 95.0383C76.08 95.9038 76.6267 96.6887 77.4398 96.9916C77.499 97.0137 77.539 97.0708 77.539 97.1341V101.101H77.5376Z" fill="#363E44"/>
<path d="M86.4917 87.4683C86.4077 87.4683 86.3402 87.4001 86.3402 87.3168C86.3402 82.6107 82.512 78.7825 77.806 78.7825C73.0999 78.7825 69.2717 82.6107 69.2717 87.3168C69.2717 87.4008 69.2035 87.4683 69.1202 87.4683C69.0369 87.4683 68.9688 87.4001 68.9688 87.3168C68.9688 82.4434 72.9333 78.4789 77.8067 78.4789C82.68 78.4789 86.6446 82.4434 86.6446 87.3168C86.6439 87.4001 86.5757 87.4683 86.4917 87.4683Z" fill="#363E44"/>
<path d="M109.056 31.4399H80.1318V44.1212H109.056V31.4399Z" fill="#8B865C"/>
<path d="M104.74 55.8702C104.736 56.1518 104.671 66.1788 104.671 66.1788L110.29 65.913L113.441 55.8695H104.74V55.8702Z" fill="#84524D"/>
<path d="M104.243 65.2336L110.791 65.1482L114.426 76.9233C114.426 76.9233 104.428 80.1594 104.406 79.948C104.384 79.7373 104.243 65.2336 104.243 65.2336Z" fill="white"/>
<path d="M108.923 68.6948H106.276C106.192 68.6948 106.125 68.6266 106.125 68.5433C106.125 68.46 106.193 68.3918 106.276 68.3918H108.923C109.007 68.3918 109.075 68.46 109.075 68.5433C109.075 68.6266 109.007 68.6948 108.923 68.6948Z" fill="#363E44"/>
<path d="M108.894 70.3462H106.276C106.192 70.3462 106.125 70.278 106.125 70.1947C106.125 70.1114 106.193 70.0432 106.276 70.0432H108.894C108.978 70.0432 109.046 70.1114 109.046 70.1947C109.046 70.278 108.978 70.3462 108.894 70.3462Z" fill="#363E44"/>
<path d="M103.614 57.5848H113.918L116.862 42.6301C117.599 38.8893 114.871 35.3565 111.066 35.1231L105.436 34.7775L103.614 57.5848Z" fill="#8B865C"/>
<path d="M72.5894 37.9075L79.6619 44.7342L85.6562 40.2554L79.8815 32.2939L72.5894 37.9075Z" fill="#84524D"/>
<path d="M78.3696 43.7153L81.9761 51.9211L91.9797 45.3794L84.9733 38.8722L78.3696 43.7153Z" fill="white"/>
<path d="M72.5893 39.4409L81.3934 33.1298L76.1131 24.9922C73.9904 21.7203 69.4985 21.0125 66.4724 23.4733C63.3954 25.9754 63.2253 30.6147 66.111 33.335L72.5893 39.4409Z" fill="#8B865C"/>
<path d="M81.6092 44.313C81.5589 44.313 81.5101 44.2882 81.4811 44.2427C81.4364 44.1718 81.457 44.0782 81.5279 44.0334L84.4982 42.1482C84.5685 42.1035 84.6628 42.1241 84.7076 42.1951C84.7523 42.266 84.7317 42.3596 84.6607 42.4044L81.6904 44.2896C81.665 44.3054 81.6367 44.313 81.6092 44.313Z" fill="#363E44"/>
<path d="M82.2532 45.2551C82.203 45.2551 82.1541 45.2303 82.1252 45.1849C82.0804 45.114 82.1011 45.0203 82.172 44.9756L85.1423 43.0904C85.2132 43.0456 85.3068 43.0663 85.3516 43.1372C85.3964 43.2081 85.3757 43.3018 85.3048 43.3465L82.3345 45.2317C82.309 45.2475 82.2808 45.2551 82.2532 45.2551Z" fill="#363E44"/>
<path d="M82.0238 32.9077C82.0238 32.9077 93.666 32.9986 102.591 33.1294L100.644 14.7355C100.644 14.7355 91.7816 11.4161 81.9756 12.0482L82.0238 32.9077Z" fill="white"/>
<path d="M98.1338 13.8073L100.057 33.6223L116.599 33.9975C116.599 33.9975 117.297 27.3278 111.287 20.6037C109.894 19.0449 108.201 17.7828 106.32 16.8705C104.233 15.8577 100.822 14.3037 98.1338 13.8073Z" fill="#EFBC73"/>
<path d="M85.2232 11.8809L85.8676 33.0235C85.8676 33.0235 69.9916 37.2703 69.9868 26.6808C69.9848 22.1413 71.2282 18.7868 72.4793 16.5608C73.7159 14.361 75.8462 12.8153 78.3214 12.323C80.1605 11.9581 82.6047 11.6647 85.2232 11.8809Z" fill="#EFBC73"/>
<path d="M78.3698 22.7012C78.3567 22.7012 78.3436 22.6998 78.3305 22.6964C78.2493 22.675 78.2011 22.5917 78.2231 22.5105L78.9412 19.8149C78.9626 19.7337 79.0466 19.6868 79.1271 19.7075C79.2084 19.7288 79.2566 19.8122 79.2346 19.8934L78.5164 22.589C78.4978 22.6565 78.4366 22.7012 78.3698 22.7012Z" fill="#363E44"/>
<path d="M72.1382 25.9428C72.1183 25.9428 72.0976 25.9386 72.0776 25.9297C72.0005 25.8966 71.9654 25.8071 71.9992 25.73C72.0143 25.6956 73.5525 22.2791 77.9501 22.684C78.0334 22.6915 78.0954 22.7659 78.0871 22.8492C78.0795 22.9325 78.0072 22.9966 77.9218 22.9862C73.7453 22.5979 72.3352 25.7176 72.2773 25.8505C72.2525 25.909 72.1968 25.9428 72.1382 25.9428Z" fill="#363E44"/>
<path d="M101.619 27.711C100.818 27.1877 97.8383 24.477 96.0825 25.1407C94.3144 25.8093 93.2796 27.6242 92.916 29.4798C92.9201 29.486 92.925 29.4936 92.9284 29.4998C93.0523 30.0079 93.3167 30.7494 93.9467 31.3443C94.6649 32.0218 95.1709 31.8593 96.0399 32.4563C97.5071 33.4643 97.4851 34.9605 98.0992 34.82C98.5213 34.7236 98.5716 33.8519 98.4111 33.045C98.2459 32.2167 97.7908 31.7499 97.8968 31.6611C98.0132 31.5633 98.4146 32.0969 98.9743 32.7145C99.2346 33.0016 99.4632 34.2292 100.059 34.1824C100.535 34.1452 100.616 32.8088 100.062 31.7809C99.6704 31.0538 98.9227 30.7639 99.004 30.6372C99.0652 30.5415 99.5066 30.7253 99.8398 30.9966C100.39 31.4442 100.638 32.698 101.185 32.6443C101.722 32.5912 101.773 31.4235 101.323 30.4451C100.944 29.6203 100.095 29.338 100.195 29.1796C100.265 29.0681 100.672 29.1156 101.456 29.4633C102.11 29.7538 103.194 30.7405 103.601 30.1015C103.942 29.5638 102.827 28.5014 101.619 27.711Z" fill="#84524D"/>
<path d="M78.7338 23.9567C77.0173 24.1957 75.5653 25.3662 75.0013 27.0048C74.4636 28.5685 74.5152 30.5253 76.9175 32.0545C81.678 35.0847 94.5899 29.8602 94.5899 29.8602L97.0121 25.0611C91.0818 23.6318 84.5319 23.1498 78.7338 23.9567Z" fill="#84524D"/>
<path d="M119.722 34.6616C119.319 35.5236 118.452 36.0744 117.501 36.0744H102.216L109.062 21.444H125.906L119.722 34.6616Z" fill="#E6D0BE"/>
<path d="M92.1831 34.6057C92.1831 35.4209 92.8441 36.0819 93.6593 36.0819H107.753L108.443 34.6057H92.1831Z" fill="#E6D0BE"/>
<path d="M124.055 28.3026C124.002 28.8514 123.912 29.2913 122.961 29.1984C122.011 29.1054 120.561 28.5133 120.614 27.9652C120.668 27.4165 122.206 27.1183 123.156 27.212C124.107 27.3042 124.109 27.7538 124.055 28.3026Z" fill="#84524D"/>
<path d="M119.966 29.3755C120.02 28.8268 121.558 28.5286 122.508 28.6223C123.458 28.7152 123.461 29.1648 123.407 29.7136L119.966 29.3755Z" fill="#84524D"/>
<path d="M123.408 29.7123C123.354 30.261 123.264 30.701 122.313 30.608C121.363 30.5151 119.913 29.9229 119.966 29.3749L123.408 29.7123Z" fill="#84524D"/>
<path d="M119.318 30.7851C119.372 30.2363 120.91 29.9382 121.86 30.0318C122.811 30.1248 122.813 30.5744 122.76 31.1231L119.318 30.7851Z" fill="#84524D"/>
<path d="M122.76 31.1233C122.706 31.672 122.616 32.112 121.666 32.019C120.715 31.9261 119.265 31.334 119.318 30.7859L122.76 31.1233Z" fill="#84524D"/>
<path d="M119.396 32.0616C119.439 31.6258 120.662 31.3882 121.417 31.4626C122.172 31.537 122.174 31.8936 122.132 32.3301L119.396 32.0616Z" fill="#84524D"/>
<path d="M122.131 32.33C122.089 32.7659 122.017 33.1163 121.262 33.042C120.506 32.9676 119.353 32.4974 119.396 32.0615L122.131 32.33Z" fill="#84524D"/>
<path d="M88.4529 5.89323C88.8405 6.4165 88.7937 7.10847 88.3489 7.43827C87.9035 7.76808 87.228 7.61178 86.8404 7.0885C86.4527 6.56523 86.4996 5.87326 86.9443 5.54345C87.3898 5.21296 88.0653 5.36995 88.4529 5.89323Z" fill="#84524D"/>
<path d="M93.2408 5.64963C92.9082 6.2094 93.0246 6.8931 93.5017 7.17609C93.9782 7.45907 94.6344 7.23461 94.9669 6.67484C95.2995 6.11507 95.1831 5.43137 94.706 5.14838C94.2295 4.8654 93.5733 5.08986 93.2408 5.64963Z" fill="#84524D"/>
<path d="M90.613 14.7804C89.45 14.7274 88.5501 13.7407 88.6038 12.5778L88.7994 6.59863L93.0118 6.79211L92.8162 12.7713C92.7619 13.9342 91.7759 14.8341 90.613 14.7804Z" fill="#84524D"/>
<path d="M91.3679 11.4226C87.9893 11.6223 87.8633 5.9805 87.8633 5.9805L93.8507 5.77808C93.8507 5.77808 94.6439 11.2291 91.3679 11.4226Z" fill="#363E44"/>
<path d="M89.0237 6.49451C90.2101 6.49451 91.1719 5.53273 91.1719 4.34632C91.1719 3.1599 90.2101 2.19812 89.0237 2.19812C87.8373 2.19812 86.8755 3.1599 86.8755 4.34632C86.8755 5.53273 87.8373 6.49451 89.0237 6.49451Z" fill="#363E44"/>
<path d="M93.7877 6.21122C93.8834 8.08883 92.6654 7.10148 91.0674 7.18273C89.4693 7.26397 88.0971 8.38351 88.0014 6.50591C87.9057 4.6283 89.1237 3.55627 90.7217 3.47502C92.3198 3.39309 93.692 4.33361 93.7877 6.21122Z" fill="#84524D"/>
<path d="M93.7878 7.27391C93.7788 7.27391 93.7699 7.27322 93.7602 7.27115C93.6776 7.25601 93.6232 7.17683 93.6384 7.09489C93.69 6.80984 93.7086 6.51447 93.6941 6.2184C93.6811 5.9547 93.6404 5.69306 93.5743 5.44243C93.553 5.36119 93.6019 5.27856 93.6824 5.25722C93.763 5.23656 93.8463 5.28476 93.8677 5.36532C93.9386 5.6366 93.982 5.9182 93.9964 6.20325C94.0122 6.52342 93.9923 6.84151 93.9365 7.14997C93.9234 7.22296 93.8594 7.27391 93.7878 7.27391Z" fill="#363E44"/>
<path d="M88.0901 7.54322C88.024 7.54322 87.9634 7.49984 87.9442 7.43306C87.8595 7.1363 87.8085 6.82715 87.7927 6.51319C87.7775 6.22263 87.7934 5.93276 87.8388 5.65047C87.8519 5.56784 87.9297 5.51138 88.013 5.52447C88.0956 5.53755 88.1521 5.61535 88.139 5.69866C88.097 5.95961 88.0832 6.22883 88.097 6.49804C88.1122 6.78929 88.159 7.07571 88.2368 7.35043C88.2595 7.43099 88.2127 7.51499 88.1321 7.53771C88.1177 7.54115 88.1039 7.54322 88.0901 7.54322Z" fill="#363E44"/>
<path d="M91.0962 7.40656C91.0508 7.40656 91.0054 7.3859 90.9757 7.34734C90.9248 7.28124 90.9372 7.18554 91.0033 7.13459C91.068 7.08501 91.0852 7.04921 91.0859 7.03613C91.0859 7.02511 91.0666 6.99757 91.0473 6.97141C91.0081 6.91701 90.9544 6.84197 90.931 6.73042C90.9103 6.63059 90.9186 6.52593 90.9558 6.41852C90.9833 6.33934 91.0694 6.29665 91.1492 6.32488C91.2284 6.35242 91.2704 6.43918 91.2429 6.51836C91.2236 6.57344 91.2188 6.62301 91.2284 6.66915C91.2388 6.71803 91.2629 6.75177 91.2938 6.79515C91.3372 6.85574 91.3916 6.93078 91.3889 7.04301C91.3868 7.16351 91.3186 7.27505 91.1878 7.37626C91.161 7.39623 91.1279 7.40656 91.0962 7.40656Z" fill="#363E44"/>
<path d="M90.6463 8.23766C90.5169 8.23766 90.3227 8.21149 90.1327 8.08894C90.0122 8.01113 89.9096 7.90304 89.8359 7.77772C89.7932 7.70543 89.818 7.61248 89.8896 7.56979C89.9619 7.5271 90.0549 7.55189 90.0975 7.6235C90.132 7.68271 90.1953 7.7674 90.2979 7.83349C90.4528 7.93402 90.6139 7.93884 90.6966 7.93195C90.7785 7.92713 90.8535 7.98772 90.8597 8.07172C90.8659 8.15572 90.804 8.22871 90.72 8.2349C90.6986 8.23697 90.6738 8.23766 90.6463 8.23766Z" fill="white"/>
<path d="M87.6196 5.52115C87.6196 5.52115 89.1667 5.75043 90.771 3.85975C90.771 3.85975 93.7503 7.75542 96.0417 3.05761C96.0417 3.05761 94.699 3.64975 93.9788 2.71404C92.8331 1.22476 90.0832 0.0212213 88.9946 2.77119L87.6196 5.52115Z" fill="#363E44"/>
<path d="M92.795 5.73975H92.7882C92.7854 5.75421 92.7764 5.77348 92.7613 5.77348C92.7441 5.7962 92.7372 5.83201 92.7262 5.85542C92.7062 5.89811 92.6408 5.86437 92.6608 5.82168C92.6745 5.79276 92.5775 5.85129 92.5348 5.87057C92.3984 5.93116 92.2601 5.98555 92.1196 6.03512C92.0542 6.05853 91.9888 6.08194 91.922 6.10329C91.869 6.11981 91.6941 6.18522 91.6796 6.17765C91.5068 6.35253 91.4146 6.51434 91.4146 6.51434C91.4146 6.51434 91.6803 6.61693 92.017 6.61761C92.0177 6.6128 92.0184 6.60866 92.0191 6.60384C92.0246 6.5584 92.7902 6.3367 92.8129 6.36975C93.1303 6.1446 93.3045 5.84027 93.3045 5.84027C93.3045 5.84027 93.0863 5.75627 92.795 5.73975Z" fill="white"/>
<path d="M92.2296 5.81288C92.0003 5.89481 91.8158 6.04009 91.6802 6.1771C91.705 6.3217 91.7814 6.45733 91.906 6.55442C91.9384 6.5792 91.9721 6.60055 92.0072 6.61776C92.1594 6.61914 92.326 6.59986 92.4899 6.54133C92.6083 6.49933 92.7143 6.43943 92.8087 6.37333C92.923 6.17297 92.9119 5.92717 92.7887 5.7392C92.6166 5.73025 92.421 5.74471 92.2296 5.81288Z" fill="#363E44"/>
<path d="M89 5.98494L89.0069 5.98425C89.0111 5.99871 89.0221 6.01661 89.0372 6.01524C89.0565 6.03589 89.0668 6.07101 89.0806 6.09304C89.1047 6.13366 89.166 6.09304 89.1419 6.05311C89.1254 6.02556 89.2279 6.07445 89.272 6.08891C89.4139 6.13504 89.5571 6.17566 89.7017 6.21078C89.7691 6.2273 89.8366 6.24452 89.9048 6.25897C89.9592 6.27068 90.1402 6.3175 90.1533 6.30855C90.3427 6.46553 90.4508 6.61701 90.4508 6.61701C90.4508 6.61701 90.1967 6.74576 89.8614 6.78019C89.86 6.77606 89.8586 6.77124 89.8579 6.76711C89.8476 6.72235 89.0641 6.57845 89.0448 6.61425C88.706 6.42215 88.5029 6.13642 88.5029 6.13642C88.5029 6.13642 88.7116 6.03107 89 5.98494Z" fill="white"/>
<path d="M89.5697 6.00131C89.8058 6.05983 90.0048 6.18515 90.1529 6.30839C90.1425 6.45436 90.0806 6.59757 89.9663 6.70636C89.9367 6.73459 89.905 6.75869 89.8719 6.78003C89.7212 6.79656 89.5532 6.79449 89.3845 6.75318C89.2626 6.72288 89.1511 6.67469 89.0505 6.61823C88.917 6.43026 88.9032 6.18515 89.0072 5.98547C89.1765 5.95793 89.3721 5.95242 89.5697 6.00131Z" fill="#363E44"/>
<path d="M40.2998 40.3996C40.2998 40.3996 42.1306 41.2857 42.899 42.3791C43.8099 40.929 44.391 39.2717 44.5391 37.4974C39.9975 37.5738 36.3594 33.19 36.3594 33.19H33.1798C26.4536 35.8367 23.3965 33.0888 21.9961 31.3702C21.2125 32.7948 20.7409 34.3977 20.6631 36.097C21.2655 37.1704 23.3711 37.6558 24.7343 37.286C24.7343 37.286 23.4599 39.1843 20.7712 38.2066C21.5981 43.6996 26.5844 47.9237 32.6138 47.9237C36.148 47.9237 39.3242 46.4723 41.5137 44.1651C41.5261 42.9739 41.3388 41.2871 40.2998 40.3996Z" fill="#363E44"/>
<path d="M31.0121 36.5604C30.9653 36.5604 30.9185 36.5384 30.8889 36.497C30.2189 35.5675 29.0478 35.0119 27.9041 35.0883C27.3698 35.1227 26.8658 35.2756 26.2627 35.4718L26.2165 35.487C25.6829 35.6605 25.1307 35.8402 24.5565 35.8946C24.0787 35.9407 23.386 35.9104 22.8008 35.5145C22.2389 35.1338 21.9374 34.4769 22.0496 33.88C22.0654 33.7973 22.1439 33.7436 22.2265 33.7588C22.3092 33.7739 22.3636 33.8538 22.3477 33.9357C22.2589 34.4081 22.515 34.9534 22.9708 35.2625C23.481 35.6082 24.0986 35.6323 24.5276 35.5923C25.0681 35.5414 25.6038 35.3665 26.1222 35.1978L26.1683 35.1826C26.6586 35.0229 27.2693 34.8246 27.8842 34.7847C29.1297 34.7048 30.4055 35.3066 31.1347 36.3187C31.1836 36.3869 31.1684 36.4819 31.1003 36.5308C31.0734 36.5514 31.0424 36.5604 31.0121 36.5604Z" fill="#40484C"/>
<path d="M36.4146 41.2358C35.2689 41.6895 32.9727 39.1324 32.9727 39.1324L32.2036 35.446C32.616 33.7619 34.316 32.7312 36.0001 33.1436C37.6843 33.556 38.715 35.256 38.3026 36.9401C38.3026 36.9401 37.5817 40.7731 36.4146 41.2358Z" fill="#E2A18D"/>
<path d="M30.3228 43.1211L36.0389 47.6908L34.133 43.5569L35.9067 36.3171L32.2114 35.411L30.3228 43.1211Z" fill="#E2A18D"/>
<path d="M37.7551 37.6565C37.7551 37.6565 38.3906 38.7623 38.2873 38.9874C38.1641 39.2566 37.1685 39.1953 37.1685 39.1953C37.1685 39.1953 37.7771 37.6641 37.7551 37.6565Z" fill="#E2A18D"/>
<path d="M35.0352 36.8505C35.0352 36.8505 35.6128 36.7011 36.2284 36.8519C36.3592 36.8843 35.8559 37.8716 35.7457 37.7814C35.2637 37.3862 35.0352 36.8505 35.0352 36.8505Z" fill="white"/>
<mask id="mask0_1847_469" style="mask-type:luminance" maskUnits="userSpaceOnUse" x="35" y="36" width="3" height="3">
<path d="M35.0352 36.8477C35.0352 36.8477 35.8848 36.6281 36.6208 36.9902C37.3569 37.3531 37.7004 38.1607 37.7004 38.1607C37.7004 38.1607 36.8508 38.3804 36.1148 38.0182C35.3794 37.6554 35.0352 36.8477 35.0352 36.8477Z" fill="white"/>
</mask>
<g mask="url(#mask0_1847_469)">
<path d="M36.2616 36.8292C36.7684 36.5221 37.4286 36.6839 37.7357 37.1907C38.0428 37.6974 37.881 38.3577 37.3743 38.6648C36.8675 38.9719 36.2072 38.8101 35.9001 38.3033C35.593 37.7966 35.7548 37.1363 36.2616 36.8292Z" fill="#363E44"/>
</g>
<path d="M36.3904 39.7023C36.2293 39.7023 36.0723 39.6369 35.9587 39.5164C35.8051 39.3533 35.7576 39.1123 35.8361 38.9023C35.8657 38.8238 35.9532 38.7845 36.0317 38.8135C36.1102 38.8431 36.1501 38.9305 36.1205 39.009C36.0819 39.1116 36.1053 39.2293 36.1797 39.3092C36.2568 39.3911 36.3766 39.4207 36.4847 39.3836C36.5639 39.356 36.6507 39.3987 36.6775 39.4779C36.705 39.5571 36.6624 39.6438 36.5832 39.6707C36.5205 39.692 36.4551 39.7023 36.3904 39.7023Z" fill="#363E44"/>
<path d="M35.4364 41.3282C35.4158 41.3282 35.3951 41.3241 35.3751 41.3151C34.2164 40.8029 32.902 39.3473 32.8469 39.2854C32.7911 39.2227 32.7959 39.127 32.8586 39.0712C32.9206 39.0155 33.0169 39.0203 33.0727 39.083C33.0858 39.0974 34.3995 40.5516 35.4984 41.0377C35.5748 41.0714 35.6099 41.1616 35.5762 41.238C35.55 41.2952 35.4943 41.3282 35.4364 41.3282Z" fill="#363E44"/>
<path d="M31.1038 37.0107C30.5474 36.1865 31.3785 34.2235 32.538 33.3339C34.0334 32.1869 36.331 32.339 37.6964 33.3016C38.0317 33.5384 38.7374 34.1836 38.7106 34.8432C38.6899 35.3568 37.8155 35.9379 37.0044 35.7775C35.8649 35.5517 34.6662 34.5554 34.5244 35.9214C34.0954 40.0622 31.7152 37.9161 31.1038 37.0107Z" fill="#363E44"/>
<path d="M33.1806 33.8339C33.1806 33.8339 29.6347 30.8533 32.2029 29.1974C34.6148 27.6427 36.7809 31.2919 33.1806 33.8339Z" fill="#363E44"/>
<path d="M32.9259 32.9337C32.9066 32.9337 32.8874 32.9303 32.8688 32.9227C32.2883 32.6852 31.9124 32.06 31.9751 31.4362C31.9923 31.2661 32.0384 31.1326 32.1162 31.0272C32.2243 30.8806 32.3999 30.7993 32.5631 30.8186C32.7875 30.8468 32.95 31.03 33.0464 31.3639C33.1414 31.6923 33.2055 32.0318 33.2371 32.3726C33.2447 32.4559 33.1834 32.5303 33.1001 32.5378C33.0154 32.5468 32.9424 32.4841 32.9349 32.4008C32.9053 32.0793 32.844 31.7584 32.7545 31.4486C32.7207 31.3322 32.6464 31.136 32.5252 31.1209C32.4708 31.1133 32.4026 31.1498 32.3599 31.2083C32.3152 31.2689 32.2883 31.3536 32.2766 31.4672C32.2278 31.9526 32.5321 32.458 32.9831 32.6425C33.0609 32.6742 33.098 32.763 33.0657 32.8408C33.043 32.8979 32.9858 32.9337 32.9259 32.9337Z" fill="white"/>
<path d="M32.8085 33.3149C32.7652 33.3149 32.7225 33.2963 32.6922 33.2605C32.6385 33.1965 32.6467 33.1008 32.7108 33.0464C33.1569 32.6725 33.7208 32.4274 34.2985 32.3572C34.3811 32.3455 34.4575 32.406 34.4672 32.4894C34.4775 32.5727 34.4183 32.6484 34.335 32.6587C33.8152 32.7221 33.3077 32.9424 32.9056 33.2791C32.8774 33.3032 32.843 33.3149 32.8085 33.3149Z" fill="white"/>
<path d="M19.7462 118.555H11.4164L10.2852 108.233H18.6149L19.7462 118.555Z" fill="#E2A18D"/>
<path d="M18.7468 118.13H11.0835L11.4422 125.703H30.851L30.2548 124.695C27.8491 120.626 23.4735 118.13 18.7468 118.13Z" fill="#D3BBA3"/>
<path d="M41.6221 118.555H33.2923L30.9961 108.447H39.3259L41.6221 118.555Z" fill="#E2A18D"/>
<path d="M40.6232 118.131H32.96L33.9363 125.704H52.7275L52.1312 124.696C49.7255 120.627 45.35 118.131 40.6232 118.131Z" fill="#D3BBA3"/>
<path d="M7.46777 70.5805L7.48223 112.857H22.7923C22.7923 112.857 19.9631 79.3592 20.1311 75.3561H22.0328L29.7202 112.967H44.9173C44.9173 112.967 34.9041 78.953 32.1968 68.9811C32.1968 68.9811 23.3038 57.3251 7.46777 70.5805Z" fill="#363E44"/>
<path d="M7.64014 57.306C7.64014 57.306 8.75279 50.2438 15.9417 46.6105L21.4155 53.9137L7.64014 57.306Z" fill="#E2A18D"/>
<path d="M20.1977 54.9684L13.4233 46.9112C13.4233 46.9112 18.3442 43.7674 23.63 43.4666L20.1977 54.9684Z" fill="#9E9569"/>
<path d="M41.0418 50.1118C37.8677 50.0526 35.3966 52.8521 35.8496 55.9945L37.9544 71.5352L40.0131 77.8614C42.6461 76.777 44.4541 74.3141 44.7013 71.4774L44.9802 56.7767C44.9175 48.7698 44.0114 50.1669 41.0418 50.1118Z" fill="#E2A18D"/>
<path d="M44.9796 50.7552C44.9796 50.7552 42.7309 46.8127 39.4384 44.9778L36.4901 49.6866L36.1782 57.0999L44.9796 50.7552Z" fill="#9E9569"/>
<path d="M5.896 71.8911L35.6375 72.7738L37.9826 49.1663L40.8462 45.838C40.8462 45.838 34.3438 40.2169 20.8748 43.371L21.4346 47.4168C21.4346 47.4168 9.87429 64.4743 5.896 71.8911Z" fill="#8B865C"/>
<path d="M27.4043 43.2073L27.7685 40.9255C27.7685 40.9255 32.8822 41.2216 37.169 42.7233L36.5348 44.7771L27.4043 43.2073Z" fill="#9E9569"/>
<path d="M31.7992 51.9681L26.9369 42.3646C26.899 42.2895 26.9286 42.1986 27.0037 42.1607C27.0787 42.1229 27.1696 42.1532 27.2075 42.2275L31.8385 51.3739L37.0437 43.7664C37.0912 43.6968 37.1856 43.6796 37.2551 43.7271C37.324 43.7746 37.3419 43.869 37.2943 43.9378L31.7992 51.9681Z" fill="#363E44"/>
<path d="M31.7265 54.0096C31.04 54.0096 30.481 53.4512 30.481 52.7641C30.481 52.0776 31.0394 51.5186 31.7265 51.5186C32.413 51.5186 32.972 52.0769 32.972 52.7641C32.972 53.4506 32.4136 54.0096 31.7265 54.0096ZM31.7265 51.8222C31.2074 51.8222 30.7846 52.2449 30.7846 52.7641C30.7846 53.2832 31.2074 53.706 31.7265 53.706C32.2456 53.706 32.6684 53.2832 32.6684 52.7641C32.6684 52.2449 32.2456 51.8222 31.7265 51.8222Z" fill="#363E44"/>
<path d="M63.957 66.5072L62.4127 63.7717L60.0786 65.0895L61.6236 67.8251L59.7563 68.8792L54.8623 60.21L61.5899 56.4114L66.4839 65.0806L63.957 66.5072Z" fill="#EFBC73"/>
<path d="M57.4778 67.3789L56.31 65.3099L54.5453 66.3062L55.7131 68.3752L54.3016 69.1726L50.6001 62.6164L55.6876 59.7439L59.3891 66.3L57.4778 67.3789Z" fill="#EFBC73"/>
<path d="M29.3772 75.2013C25.3989 68.1549 16.4619 65.668 9.41551 69.6463C2.36915 73.6246 -0.117798 82.5616 3.8605 89.608C7.83879 96.6543 16.7758 99.1413 23.8222 95.163C30.8686 91.184 33.3555 82.247 29.3772 75.2013Z" fill="#EFBC73"/>
<path d="M62.668 52.9582L26.8066 73.2032L29.2657 77.5591L65.127 57.314L62.668 52.9582Z" fill="#EFBC73"/>
<path d="M16.6408 95.3352C12.1234 95.3352 7.7313 92.9688 5.35658 88.7626C1.85061 82.5528 4.05044 74.6478 10.2602 71.1419C16.4707 67.6359 24.375 69.8357 27.881 76.0455C31.3869 82.2553 29.1871 90.1603 22.9773 93.6663C20.9737 94.7982 18.7924 95.3352 16.6408 95.3352ZM16.5974 69.7772C14.4954 69.7772 12.3664 70.3019 10.4097 71.4069C4.34513 74.831 2.19763 82.55 5.62097 88.6145C9.045 94.6784 16.7641 96.8273 22.8279 93.4032C28.8924 89.9792 31.0406 82.2602 27.6166 76.1956C25.2976 72.0879 21.0081 69.7772 16.5974 69.7772Z" fill="#F7F1EB"/>
<path d="M38.9581 68.4306C38.9051 68.4306 38.8534 68.403 38.8259 68.3535C38.7846 68.2805 38.8101 68.1875 38.8837 68.1469L61.5011 55.3775C61.5741 55.3362 61.667 55.3624 61.7076 55.4354C61.749 55.5083 61.7235 55.6013 61.6498 55.6419L39.0331 68.4113C39.0091 68.4244 38.9836 68.4306 38.9581 68.4306Z" fill="#F7F1EB"/>
<path d="M15.1629 88.8976L17.0356 82.1682L10.3062 80.2955L8.43351 87.0249L15.1629 88.8976Z" fill="#F2E6DC"/>
<path d="M38.2174 78.6173C37.5929 78.7041 36.6015 78.8686 35.6148 78.9244C34.0305 79.0139 32.3505 78.8004 32.3023 78.1023C32.2445 77.2719 33.848 77.4372 34.6157 77.2678C35.5363 77.0647 35.9267 76.8416 35.9164 76.697C35.9012 76.4911 34.9655 76.7955 34.0925 76.3128C33.0569 75.7406 32.3395 74.6741 32.7801 74.2775C33.2291 73.8727 34.2667 74.8201 35.0454 74.8573C35.517 74.88 36.0272 74.754 36.019 74.6301C36.0079 74.4648 35.1576 74.6968 34.3369 74.3085C33.1767 73.7598 32.3767 72.5245 32.7726 72.1817C33.269 71.7513 34.2729 72.6884 34.6901 72.7724C35.5886 72.9535 36.2916 73.1642 36.3309 73.0017C36.3667 72.8537 35.6596 72.738 34.9731 72.1128C34.3045 71.5035 33.7806 70.6993 34.0911 70.3392C34.5428 69.8138 35.4998 71.1523 37.4552 71.0869C38.614 71.0484 38.9555 70.574 40.0331 70.7048C40.042 70.7062 40.051 70.7068 40.0599 70.7082C41.3165 70.8707 42.2852 71.8842 42.4491 73.1408C42.4608 73.2282 42.4697 73.3157 42.4753 73.4038C42.5186 74.0255 42.3623 74.6349 42.2226 75.2456C41.8645 76.8099 39.7583 78.3088 38.2174 78.6173Z" fill="#E2A18D"/>
<path d="M13.7687 82.8169C13.5484 81.6684 13.3983 76.7448 11.323 75.7657C9.23269 74.7797 6.75744 75.4118 4.81787 76.669C4.8158 76.678 4.81305 76.6883 4.81098 76.6972C4.46947 77.2384 4.0419 78.1005 4.05498 79.1594C4.06944 80.3664 4.64229 80.6735 4.85642 81.9445C5.21721 84.0906 3.88285 85.3431 4.52869 85.7637C4.9721 86.0522 5.78111 85.3561 6.35396 84.5292C6.94196 83.6803 6.96537 82.8836 7.13337 82.9009C7.3179 82.9201 7.18983 83.7264 7.12305 84.7434C7.09206 85.2157 6.20731 86.4605 6.75469 86.9446C7.19121 87.3301 8.43469 86.2664 8.86846 84.9058C9.17485 83.9433 8.7941 83.0399 8.97449 83.0035C9.11013 82.9759 9.32426 83.5198 9.36901 84.0438C9.44269 84.9079 8.55105 86.1913 9.064 86.6265C9.56662 87.0534 10.6359 86.1046 11.1144 84.879C11.5172 83.8455 11.0442 82.8582 11.2687 82.8114C11.4263 82.7783 11.73 83.1763 12.0901 84.1609C12.3903 84.983 12.4447 86.7745 13.3521 86.5886C14.1143 86.4337 14.1012 84.5506 13.7687 82.8169Z" fill="#E2A18D"/>
<path d="M16.6362 54.9464C17.0823 54.1615 17.5285 53.3765 17.9746 52.5909C17.8645 52.5111 17.6937 52.3947 17.4734 52.2721C17.4734 52.2721 14.793 50.7836 10.3596 52.615C6.68009 54.1353 4.12635 64.081 4.93743 77.4157L9.45897 82.1865C12.1587 77.0301 14.9389 70.0767 16.0977 61.581C16.4165 59.249 16.5811 57.0305 16.6362 54.9464Z" fill="#E2A18D"/>
<path d="M29.7961 13.9955H28.6421C28.5388 13.433 28.3915 12.8856 28.2042 12.3575L29.2032 11.7805L27.2499 8.39782L26.2488 8.97618C25.8811 8.54585 25.4804 8.14513 25.0508 7.77815L25.6284 6.77703L22.2457 4.82369L21.6687 5.82274C21.1406 5.63546 20.5932 5.48811 20.0307 5.38484V4.22949H16.1247V5.38346C15.5622 5.48674 15.0148 5.63408 14.4867 5.82136L13.9097 4.82231L10.527 6.77566L11.1047 7.77677C10.6744 8.14444 10.2736 8.54516 9.90665 8.9748L8.90554 8.39644L6.95219 11.7792L7.95124 12.3561C7.76397 12.8842 7.61662 13.4316 7.51334 13.9941H6.35938V17.9001H7.51334C7.61662 18.4627 7.76397 19.01 7.95124 19.5381L6.95219 20.1151L8.90554 23.4979L9.90665 22.9195C10.2743 23.3498 10.675 23.7505 11.1047 24.1175L10.527 25.1186L13.9097 27.072L14.4867 26.0729C15.0148 26.2602 15.5622 26.4076 16.1247 26.5108V27.6648H20.0307V26.5108C20.5932 26.4076 21.1406 26.2602 21.6687 26.0729L22.2457 27.072L25.6284 25.1186L25.0508 24.1175C25.4811 23.7498 25.8818 23.3491 26.2488 22.9195L27.2499 23.4979L29.2032 20.1151L28.2042 19.5381C28.3915 19.01 28.5388 18.4627 28.6421 17.9001H29.7961V13.9955ZM24.06 18.4434C23.4534 20.0483 22.1769 21.3242 20.5726 21.9308C15.1195 23.9922 10.034 18.9061 12.0955 13.453C12.7021 11.848 13.9786 10.5722 15.5829 9.96559C21.036 7.90484 26.1214 12.9903 24.06 18.4434Z" fill="#E6D0BE"/>
<path d="M18.0776 24.6448C13.282 24.6448 9.38086 20.7437 9.38086 15.9481C9.38086 11.6785 12.5598 7.98116 16.7756 7.34841C16.8575 7.33808 16.936 7.39316 16.9484 7.47579C16.9608 7.55841 16.9037 7.63621 16.8211 7.64861C12.7533 8.25933 9.68519 11.8273 9.68519 15.9481C9.68519 20.5757 13.45 24.3412 18.0783 24.3412C21.9024 24.3412 25.2431 21.7599 26.2029 18.0632C26.2235 17.982 26.3062 17.9331 26.3881 17.9544C26.4693 17.9758 26.5182 18.0584 26.4969 18.1397C25.502 21.9699 22.0401 24.6448 18.0776 24.6448Z" fill="#F2E6DC"/>
</g>
<defs>
<clipPath id="clip0_1847_469">
<rect width="126" height="126" fill="white"/>
</clipPath>
</defs>
</svg>
