<svg width="208" height="124" viewBox="0 0 208 124" fill="none" xmlns="http://www.w3.org/2000/svg">
<g clip-path="url(#clip0_1849_3765)">
<path d="M8.27164 107.76C3.21403 101.558 1.73731 92.9865 9.74543 80.4023C17.7565 67.8152 22.3559 58.0473 25.1342 46.111C28.0847 33.4363 41.1534 16.4745 70.0281 11.0025C98.9029 5.53049 118.083 11.093 132.625 22.7666C147.168 34.4403 144.491 48.5683 152.438 55.1406C166.771 66.9952 191.285 61.0153 198.596 81.4034C202.39 91.9826 194.382 98.8204 197.122 103.744C199.862 108.67 204.077 108.305 204.71 116.693C185.74 116.693 14.3857 116.693 14.3857 116.693L8.27164 107.76Z" fill="#F7F3F0"/>
<path d="M55.0655 116.641C55.4887 116.763 170.369 116.641 170.369 116.641C172.059 110.074 168.256 107.156 163.047 104.36C157.837 101.564 156.431 95.6046 151.221 86.4846C146.012 77.3645 136.016 67.153 106.593 68.0023C77.1696 68.8544 79.8429 87.4564 74.2132 94.875C67.5885 103.601 50.4194 100.592 55.0655 116.641Z" fill="#F7E8DE"/>
<path d="M0.5 116.547H207.5" stroke="#1F444D" stroke-width="0.291841" stroke-miterlimit="10"/>
<path d="M129.458 96.6074H120.411V114.847H129.458V96.6074Z" fill="#1F444D"/>
<path d="M172.68 95.493C172.68 96.8063 171.638 97.8715 170.354 97.8715H83.2771C81.993 97.8715 80.9512 96.8063 80.9512 95.493V35.2657C80.9512 33.9524 81.993 32.8872 83.2771 32.8872H170.351C171.635 32.8872 172.677 33.9524 172.677 35.2657V95.493H172.68Z" fill="#1F444D"/>
<path d="M168.877 95.493C168.877 96.8063 167.83 97.8715 166.54 97.8715H79.0515C77.7616 97.8715 76.7139 96.8063 76.7139 95.493V35.2657C76.7139 33.9524 77.7616 32.8872 79.0515 32.8872H166.543C167.833 32.8872 168.88 33.9524 168.88 35.2657V95.493H168.877Z" fill="#2E5B66"/>
<path d="M166.248 35.5637H79.3433V95.1985H166.248V35.5637Z" fill="white"/>
<path d="M89.9463 80.7991L98.7803 75.8378L107.614 66.1983L116.448 70.0243L125.282 55.9809L134.119 63.1777L142.953 70.6926L151.787 46.7383" stroke="#1F444D" stroke-width="0.291841" stroke-miterlimit="10"/>
<path d="M151.358 118.3C150.654 115.344 147.999 113.144 144.829 113.144H105.043C101.87 113.144 99.2146 115.344 98.5142 118.3H151.358Z" fill="#2E5B66"/>
<path d="M83.7646 43.4936C83.7646 49.2604 83.7646 55.0242 83.7646 60.791C83.7646 69.5141 83.7646 78.2373 83.7646 86.9604C83.7646 88.4254 83.7646 89.8905 83.7646 91.3555C83.7646 91.4343 83.8318 91.5015 83.9106 91.5015C88.1043 91.5015 92.301 91.5015 96.4948 91.5015C105.536 91.5015 114.58 91.5015 123.621 91.5015C132.199 91.5015 140.776 91.5015 149.353 91.5015C152.312 91.5015 155.274 91.5015 158.234 91.5015C158.421 91.5015 158.421 91.2096 158.234 91.2096C154.04 91.2096 149.843 91.2096 145.65 91.2096C136.608 91.2096 127.567 91.2096 118.523 91.2096C109.946 91.2096 101.369 91.2096 92.7913 91.2096C89.832 91.2096 86.8698 91.2096 83.9106 91.2096C83.9602 91.2592 84.0069 91.3059 84.0565 91.3555C84.0565 85.5888 84.0565 79.8249 84.0565 74.0581C84.0565 65.335 84.0565 56.6118 84.0565 47.8887C84.0565 46.4237 84.0565 44.9586 84.0565 43.4936C84.0565 43.3039 83.7646 43.3039 83.7646 43.4936Z" fill="black"/>
<path d="M152.87 50.885H150.705V89.0199H152.87V50.885Z" fill="#20BFAD"/>
<path d="M144.033 74.8162H141.867V89.0201H144.033V74.8162Z" fill="#20BFAD"/>
<path d="M135.199 67.2957H133.034V89.0203H135.199V67.2957Z" fill="#20BFAD"/>
<path d="M126.365 60.1743H124.2V89.017H126.365V60.1743Z" fill="#20BFAD"/>
<path d="M117.531 74.0312H115.365V89.0202H117.531V74.0312Z" fill="#20BFAD"/>
<path d="M108.697 70.3423H106.532V89.0201H108.697V70.3423Z" fill="#20BFAD"/>
<path d="M99.8627 80.043H97.6973V89.0171H99.8627V80.043Z" fill="#20BFAD"/>
<path d="M91.0287 84.9346H88.8633V89.0203H91.0287V84.9346Z" fill="#20BFAD"/>
<path d="M89.9462 81.8205C90.5104 81.8205 90.9677 81.3632 90.9677 80.799C90.9677 80.2349 90.5104 79.7776 89.9462 79.7776C89.3821 79.7776 88.9248 80.2349 88.9248 80.799C88.9248 81.3632 89.3821 81.8205 89.9462 81.8205Z" fill="#F77E56"/>
<path d="M98.7802 76.8591C99.3444 76.8591 99.8017 76.4017 99.8017 75.8376C99.8017 75.2735 99.3444 74.8162 98.7802 74.8162C98.2161 74.8162 97.7588 75.2735 97.7588 75.8376C97.7588 76.4017 98.2161 76.8591 98.7802 76.8591Z" fill="#F77E56"/>
<path d="M107.614 67.2199C108.178 67.2199 108.635 66.7626 108.635 66.1984C108.635 65.6343 108.178 65.177 107.614 65.177C107.05 65.177 106.592 65.6343 106.592 66.1984C106.592 66.7626 107.05 67.2199 107.614 67.2199Z" fill="#F77E56"/>
<path d="M116.448 71.0461C117.012 71.0461 117.469 70.5887 117.469 70.0246C117.469 69.4605 117.012 69.0032 116.448 69.0032C115.884 69.0032 115.426 69.4605 115.426 70.0246C115.426 70.5887 115.884 71.0461 116.448 71.0461Z" fill="#F77E56"/>
<path d="M125.282 57.0024C125.846 57.0024 126.304 56.545 126.304 55.9809C126.304 55.4168 125.846 54.9595 125.282 54.9595C124.718 54.9595 124.261 55.4168 124.261 55.9809C124.261 56.545 124.718 57.0024 125.282 57.0024Z" fill="#F77E56"/>
<path d="M134.119 64.1994C134.683 64.1994 135.141 63.7421 135.141 63.1779C135.141 62.6138 134.683 62.1565 134.119 62.1565C133.555 62.1565 133.098 62.6138 133.098 63.1779C133.098 63.7421 133.555 64.1994 134.119 64.1994Z" fill="#F77E56"/>
<path d="M142.953 71.714C143.517 71.714 143.975 71.2567 143.975 70.6926C143.975 70.1285 143.517 69.6711 142.953 69.6711C142.389 69.6711 141.932 70.1285 141.932 70.6926C141.932 71.2567 142.389 71.714 142.953 71.714Z" fill="#F77E56"/>
<path d="M151.787 47.7597C152.351 47.7597 152.809 47.3024 152.809 46.7382C152.809 46.1741 152.351 45.7168 151.787 45.7168C151.223 45.7168 150.766 46.1741 150.766 46.7382C150.766 47.3024 151.223 47.7597 151.787 47.7597Z" fill="#F77E56"/>
<path d="M166.248 35.5637H79.3433V38.739H166.248V35.5637Z" fill="#B1E0DC"/>
<path d="M82.1334 37.1512C82.1334 37.4576 81.8853 37.7057 81.5789 37.7057C81.2725 37.7057 81.0244 37.4576 81.0244 37.1512C81.0244 36.8447 81.2725 36.5967 81.5789 36.5967C81.8853 36.5967 82.1334 36.8447 82.1334 37.1512Z" fill="white"/>
<path d="M84.7452 37.1512C84.7452 37.4576 84.4972 37.7057 84.1907 37.7057C83.8843 37.7057 83.6362 37.4576 83.6362 37.1512C83.6362 36.8447 83.8843 36.5967 84.1907 36.5967C84.4972 36.5967 84.7452 36.8447 84.7452 37.1512Z" fill="#20BFAD"/>
<path d="M87.3546 37.1512C87.3546 37.4576 87.1065 37.7057 86.8001 37.7057C86.4937 37.7057 86.2456 37.4576 86.2456 37.1512C86.2456 36.8447 86.4937 36.5967 86.8001 36.5967C87.1065 36.5967 87.3546 36.8447 87.3546 37.1512Z" fill="#2E5B66"/>
<path d="M5.64776 123.166C5.16039 119.76 5.64776 110.106 5.64776 109.012C5.64776 107.917 6.30441 106.75 9.22282 106.75C12.1412 106.75 47.8188 106.75 47.8188 106.75C49.4239 106.75 51.5398 107.552 51.3209 110.325C51.102 113.097 51.4668 121.78 51.2479 122.655C51.0291 123.531 49.5699 123.458 47.527 123.677C45.4841 123.895 10.3172 123.75 8.7121 123.75C7.10697 123.75 5.72072 123.677 5.64776 123.166Z" fill="#F77E56"/>
<path d="M16.9829 101.861C17.1784 104.584 18.1007 107.502 24.0834 108.039C30.0661 108.573 39.5014 107.552 41.1561 106.338C42.8109 105.121 43.5405 100.551 38.4799 99.9174C32.5468 99.3834 28.9455 98.896 28.9455 98.896L16.9829 101.861Z" fill="#1F444D"/>
<path d="M41.544 96.947C42.4428 97.02 43.4409 97.2155 43.9517 97.5074C44.4624 97.7992 47.4538 99.7195 47.4041 103.368C47.3545 103.975 47.1123 104.22 46.9897 104.12C46.7212 104.363 46.1376 103.633 45.872 103.149C45.6035 102.661 44.1939 99.915 41.1296 99.8654C40.7181 99.3314 41.544 96.947 41.544 96.947Z" fill="#F7CFB2"/>
<path d="M36.2183 85.0808C36.2679 84.2783 36.5334 81.5058 38.4567 81.3832C40.377 81.2606 40.6163 81.4124 40.6163 81.4124C40.593 80.8054 41.3838 79.6321 41.8391 79.6788C42.738 79.7752 42.9831 82.7198 41.9354 82.8395C40.8906 82.9621 39.4548 83.3006 39.4548 83.3006C39.3585 84.9787 39.2126 85.8776 39.2126 85.8776L36.2183 85.0808Z" fill="#F7CFB2"/>
<path d="M32.8881 71.5572C34.251 68.9306 39.8427 68.9306 41.01 71.6535C42.1774 74.3764 40.8845 75.2373 41.5937 75.4474C42.513 75.7217 42.7669 75.8472 42.7669 75.8472L41.5937 76.8074C41.5937 76.8074 42.5655 83.1783 36.8746 80.8436C35.074 83.2279 33.0807 84.6871 33.0807 84.6871L30.8423 80.9895L32.0593 78.7044C32.0593 78.7073 29.3364 75.5963 32.8881 71.5572Z" fill="#F7CFB2"/>
<path d="M40.0178 75.6367C39.9478 75.5725 39.9478 75.3916 40.0324 75.3449C40.0207 75.3507 39.9945 75.3128 40.0178 75.3565C40.0382 75.3945 40.0324 75.4528 40.0295 75.4908C40.0295 75.5229 39.9828 75.6455 39.9857 75.6455C39.9419 75.625 39.974 75.4441 39.9886 75.3974C39.9974 75.3682 40.047 75.2456 40.0645 75.2632C40.1316 75.3244 40.0558 75.4995 40.0207 75.5579C39.9945 75.6017 39.974 75.5812 39.9974 75.5929C39.9857 75.5842 39.977 75.5754 39.9682 75.5637C39.9828 75.5871 39.9828 75.5871 39.974 75.5608C39.9653 75.5316 39.9653 75.4995 39.9653 75.4674C39.9653 75.4412 39.9711 75.4207 39.977 75.3974C39.9857 75.3682 39.9244 75.4295 39.9186 75.3653C39.9244 75.4149 39.8836 75.4733 39.8398 75.4937C39.9128 75.5229 39.9828 75.5521 40.0528 75.5813C40.0353 75.5492 40.0382 75.5229 40.0616 75.4995C40.1725 75.3478 39.9186 75.2019 39.8106 75.3536C39.7435 75.447 39.7435 75.5521 39.7727 75.6601C39.7989 75.7564 39.904 75.7885 39.9857 75.7476C40.2017 75.6396 40.298 75.3011 40.0849 75.1464C39.9886 75.0734 39.8398 75.1085 39.7639 75.1931C39.6793 75.2865 39.6647 75.4324 39.6764 75.5521C39.6997 75.7797 39.9186 75.9782 40.1433 75.841C40.3388 75.7213 40.403 75.4295 40.3593 75.2223C40.3067 74.9771 40.0324 74.9071 39.8544 75.0589C39.691 75.196 39.6588 75.4733 39.6909 75.6717C39.7231 75.8848 39.9536 76.0161 40.1404 75.8877C40.3184 75.768 40.3447 75.5141 40.3097 75.3215C40.2688 75.0851 40.0412 74.9976 39.8427 75.1201C39.618 75.2602 39.6326 75.6805 39.8106 75.8468C39.9507 75.9723 40.155 75.768 40.0178 75.6367Z" fill="black"/>
<path d="M41.2523 73.8067C40.8321 73.8622 40.5957 74.5363 40.797 75.8876C40.9984 77.2388 41.8564 76.1065 41.909 75.1755C41.9615 74.2445 41.801 73.7717 41.2523 73.8067Z" stroke="black" stroke-width="0.291841" stroke-miterlimit="10"/>
<path d="M39.3586 73.1119C39.6475 72.9309 39.9569 72.6887 40.3071 72.6566C40.4939 72.6391 40.4939 72.3473 40.3071 72.3648C39.8956 72.4027 39.5542 72.6449 39.2127 72.858C39.0522 72.9601 39.1981 73.2111 39.3586 73.1119Z" fill="black"/>
<path d="M40.3065 78.4767C40.5487 78.3629 40.7997 78.2871 41.0565 78.217C41.2375 78.1674 41.4126 78.1557 41.5848 78.074C41.754 77.9923 41.6052 77.7413 41.4388 77.823C41.2462 77.9164 41.0069 77.9281 40.8026 77.9865C40.5837 78.0477 40.3707 78.1265 40.1635 78.2258C39.9884 78.3046 40.1372 78.5555 40.3065 78.4767Z" fill="black"/>
<path d="M34.5109 79.3456C34.832 79.7571 35.2785 80.0139 35.6958 80.3116C36.1569 80.6413 36.6676 80.974 37.2017 81.1696C37.3797 81.2338 37.4556 80.9536 37.2805 80.8894C36.8281 80.723 36.3904 80.4312 35.9935 80.1656C35.547 79.865 35.0508 79.5703 34.7181 79.1413C34.6014 78.9895 34.3971 79.1996 34.5109 79.3456Z" fill="black"/>
<path d="M31.4755 79.7722C33.2645 79.2907 33.4688 78.2955 33.4455 77.9482C32.2051 76.9268 32.2956 75.2545 33.4075 75.0648C34.4844 74.881 35.0856 76.2322 35.1586 77.2536C35.6518 77.455 36.0166 77.5017 35.9991 77.3937C35.9816 77.2857 35.538 76.3548 36.1946 75.3508C36.8513 74.3469 37.4408 73.9529 37.003 73.0044C36.5653 72.0559 36.0545 71.5627 37.2598 71.0695C38.4651 70.5763 41.4011 70.0831 41.547 68.7348C41.5295 68.1686 40.6715 68.0956 40.1607 68.405C41.4565 67.4011 40.1432 66.1607 38.1003 67.547C39.3786 65.831 37.5342 65.2298 36.895 65.9419C36.2559 66.654 36.002 68.0402 34.6683 67.9118C33.3375 67.7834 29.9988 68.0577 30.7284 71.5423C28.8315 72.6367 28.1748 74.7905 29.634 76.8334C31.0932 78.8792 31.7674 78.8237 31.4755 79.7722Z" fill="#F77E56"/>
<path d="M34.3651 77.764C34.2455 78.123 33.618 77.8953 33.4312 77.799C33.119 77.6414 32.938 77.3058 32.8213 76.9935C32.6083 76.4303 32.6958 75.616 33.2649 75.3009C33.4312 75.2104 33.2824 74.9594 33.119 75.0499C32.2259 75.5402 32.3164 76.7951 32.7717 77.5568C33.081 78.0704 34.3622 78.6891 34.6482 77.8428C34.7066 77.6619 34.4235 77.586 34.3651 77.764Z" fill="black"/>
<path d="M34.6335 75.687C36.6939 75.6578 38.7572 75.6257 40.8176 75.5966C41.0044 75.5936 41.0073 75.3018 40.8176 75.3047C38.7572 75.3339 36.6939 75.366 34.6335 75.3952C34.4438 75.3981 34.4438 75.6899 34.6335 75.687Z" fill="black"/>
<path d="M30.5535 81.1404C17.5783 89.3499 16.0899 97.1012 16.9216 102.556C20.4237 103.577 30.0545 99.3075 30.0545 99.3075C30.0924 100.221 30.5273 101.143 31.9515 101.132C36.2561 101.094 40.5987 99.8182 40.5987 99.8182L41.0365 96.8998L39.5043 96.9377C39.5043 96.9377 39.8341 90.4063 39.3934 86.6503C38.8097 86.7963 36.1452 86.1746 36.1452 86.1746C35.9993 87.1231 35.5236 89.3499 35.5236 89.3499C35.4127 87.8177 34.6831 85.1532 33.9914 84.0967C33.2998 83.0403 31.4524 81.1404 30.5535 81.1404Z" fill="#0FA896"/>
<path d="M31.26 80.1663C30.8952 80.3355 30.116 80.9192 30.1422 81.0418C30.1656 81.1644 33.3292 84.1557 34.1055 86.076C34.908 85.0313 34.9576 84.9583 34.9576 84.8357C34.8088 84.2287 33.5218 81.3832 31.26 80.1663Z" fill="#20BFAD"/>
<path d="M35.9526 84.8353C35.8563 85.419 35.5148 86.5367 35.6841 86.6359C35.8533 86.7322 39.9158 87.2692 40.0617 87.17C40.2076 87.0737 40.2572 85.4919 40.085 85.419C39.9158 85.346 35.9993 84.6427 35.9526 84.8353Z" fill="#20BFAD"/>
<path d="M31.9134 84.9643C33.7404 85.4809 34.3737 87.6493 34.6422 89.3011C35.0332 91.6942 35.2258 94.0844 35.4185 96.4979C35.5148 96.4979 35.614 96.4979 35.7103 96.4979C35.7015 96.4191 35.684 96.3812 35.6315 96.3228C35.506 96.1798 35.3017 96.387 35.4243 96.53C35.4214 96.5213 35.4214 96.5096 35.4185 96.5008C35.4418 96.6818 35.7249 96.6905 35.7103 96.5008C35.4973 93.813 35.2579 91.1572 34.8027 88.4956C34.54 86.9664 33.5828 85.1365 31.9922 84.6871C31.8084 84.6316 31.7325 84.9147 31.9134 84.9643Z" fill="black"/>
<path d="M27.5415 89.6019C27.381 90.3432 27.6115 91.0728 27.7866 91.7965C28.0376 92.8326 28.3499 93.8511 28.5892 94.89C28.8051 95.8327 29.0036 96.7783 29.2575 97.7121C29.5056 98.6227 29.847 99.3844 30.2585 100.222C30.3402 100.391 30.5941 100.242 30.5095 100.076C29.7186 98.4651 29.3188 96.822 28.9277 95.071C28.7351 94.2042 28.5016 93.3491 28.2682 92.4911C28.0376 91.636 27.6319 90.5708 27.8246 89.6836C27.8625 89.4939 27.5823 89.418 27.5415 89.6019Z" fill="black"/>
<path d="M29.7273 98.669C29.2866 98.3567 28.5774 98.3567 28.0609 98.2429C27.2496 98.0649 26.4353 97.9336 25.6036 97.919C25.4139 97.916 25.4168 98.2079 25.6036 98.2108C26.4091 98.2254 27.1941 98.3597 27.9821 98.526C28.4578 98.6252 29.1757 98.634 29.5785 98.92C29.7331 99.0309 29.8791 98.777 29.7273 98.669Z" fill="black"/>
<path d="M25.0961 99.6661C25.849 99.4297 26.6429 99.3655 27.3958 99.1174C27.5738 99.059 27.498 98.776 27.317 98.8372C26.567 99.0824 25.7732 99.1495 25.0173 99.3859C24.8393 99.4414 24.9152 99.7215 25.0961 99.6661Z" fill="black"/>
<path d="M35.3773 96.3189C34.7178 96.4503 34.2041 96.8618 33.6263 97.174C33.2819 97.3608 32.6837 97.5855 32.5377 97.9883C32.4735 98.1663 32.7566 98.2422 32.8179 98.0671C32.9288 97.7606 33.603 97.5155 33.8714 97.3725C34.3968 97.0894 34.8491 96.7188 35.4532 96.602C35.64 96.5641 35.5612 96.2839 35.3773 96.3189Z" fill="black"/>
<path d="M34.4033 97.1248C33.9101 97.5422 33.4198 97.9654 32.9441 98.4031C33.0141 98.4732 33.0813 98.5403 33.1513 98.6103C33.1747 98.587 33.2009 98.5607 33.2243 98.5374C33.3585 98.4031 33.1513 98.1988 33.0171 98.3302C32.9937 98.3535 32.9674 98.3798 32.9441 98.4031C32.8099 98.5374 33.0112 98.7358 33.1513 98.6103C33.627 98.1726 34.1173 97.7523 34.6105 97.3321C34.7535 97.2095 34.5434 97.0023 34.4033 97.1248Z" fill="black"/>
<path d="M35.4153 96.5654C36.9153 97.0732 38.4592 96.9097 40.0147 96.8981C40.2014 96.8981 40.2044 96.6062 40.0147 96.6062C38.4883 96.6179 36.9678 96.7813 35.494 96.2823C35.3131 96.2239 35.2372 96.507 35.4153 96.5654Z" fill="black"/>
<path d="M35.5672 88.7983C35.2783 89.6651 35.1382 90.5639 34.9835 91.4628C34.9514 91.6467 35.2316 91.7255 35.2637 91.5416C35.4184 90.6457 35.5584 89.7439 35.8474 88.8771C35.9087 88.6962 35.6256 88.6203 35.5672 88.7983Z" fill="black"/>
<path d="M41.7167 96.8006C41.813 96.4854 40.7186 96.4125 40.2079 96.4592C39.6971 96.5059 39.5512 98.575 40.0386 100.107C40.1349 100.203 41.6204 100.107 41.6204 99.9846C41.4248 99.2083 41.5445 97.9213 41.7167 96.8006Z" fill="#20BFAD"/>
<path d="M45.3351 101.154C45.6036 101.648 46.6922 102.757 46.1406 103.308C46.0064 103.442 46.2136 103.647 46.3478 103.515C46.3536 103.51 46.3595 103.504 46.3653 103.498C46.4996 103.364 46.2924 103.159 46.1581 103.291C46.1523 103.296 46.1464 103.302 46.1377 103.308C46.2077 103.378 46.2748 103.445 46.3449 103.515C47.0949 102.765 45.9392 101.665 45.5832 101.008C45.4986 100.842 45.2447 100.988 45.3351 101.154Z" fill="black"/>
<path d="M45.8956 101.032C46.4588 101.884 47.06 102.961 46.7565 104.009C46.704 104.19 46.9871 104.266 47.0367 104.087C47.3636 102.961 46.7536 101.805 46.1466 100.886C46.0444 100.731 45.7905 100.877 45.8956 101.032Z" fill="black"/>
<path d="M46.2927 100.464C46.5524 101.08 47.0456 101.663 47.1157 102.346C47.1332 102.533 47.425 102.533 47.4075 102.346C47.3375 101.622 46.8472 101.036 46.5758 100.385C46.5028 100.216 46.2197 100.292 46.2927 100.464Z" fill="black"/>
<path d="M17.4326 104.011C18.0367 104.076 18.7225 104.099 19.3149 103.933C19.6389 103.842 19.7906 103.722 20.0942 104.113C20.3014 104.379 20.5582 104.592 20.815 104.808C21.2995 105.214 21.8423 105.567 22.3851 105.888C22.8491 106.162 23.2023 106.223 23.2548 106.854C23.2811 107.172 23.3132 107.487 23.3423 107.805C23.3599 107.992 23.6517 107.992 23.6342 107.805C23.5817 107.245 23.6546 106.553 23.319 106.075C23.1702 105.862 22.7412 105.757 22.531 105.634C22.1312 105.403 21.7489 105.138 21.3753 104.872C20.9463 104.566 20.5407 104.219 20.2196 103.801C20.1379 103.696 20.0212 103.556 19.8782 103.536C19.5426 103.492 19.2303 103.673 18.8976 103.711C18.4102 103.766 17.9229 103.769 17.4326 103.719C17.2458 103.699 17.2458 103.991 17.4326 104.011Z" fill="black"/>
<path d="M20.6834 103.03C20.8206 103.368 21.0891 103.608 21.3401 103.862C21.4743 103.996 21.6815 103.789 21.5473 103.654C21.3371 103.444 21.0803 103.234 20.9636 102.954C20.8965 102.782 20.6134 102.858 20.6834 103.03Z" fill="black"/>
<path d="M21.7927 104.378C21.9269 104.629 22.1517 104.83 22.391 104.976C22.5515 105.075 22.6974 104.824 22.5369 104.725C22.3384 104.603 22.1546 104.436 22.0407 104.229C21.9561 104.066 21.7051 104.214 21.7927 104.378Z" fill="black"/>
<path d="M23.3477 105.573C23.5053 105.728 23.6833 105.874 23.8876 105.961C24.0598 106.034 24.2087 105.783 24.0335 105.71C23.8497 105.631 23.695 105.509 23.552 105.369C23.4207 105.237 23.2135 105.442 23.3477 105.573Z" fill="black"/>
<path d="M24.7724 106.668C24.9942 106.849 25.2394 106.998 25.4962 107.129C25.6625 107.214 25.8114 106.963 25.6421 106.878C25.4086 106.762 25.181 106.63 24.9796 106.464C24.8337 106.344 24.6265 106.552 24.7724 106.668Z" fill="black"/>
<path d="M26.3686 107.62C26.6254 107.728 26.8939 107.798 27.1711 107.838C27.355 107.865 27.4338 107.585 27.2499 107.558C26.9756 107.517 26.7042 107.447 26.4474 107.339C26.2723 107.266 26.1964 107.547 26.3686 107.62Z" fill="black"/>
<path d="M25.9247 91.4944C24.8274 92.7055 23.9694 94.226 23.269 95.694C22.5656 97.1765 22.411 99.0706 22.3322 100.693C22.3263 100.816 22.4985 100.892 22.5802 100.795C22.6415 100.725 22.659 100.687 22.6707 100.594C22.6941 100.407 22.4022 100.41 22.3789 100.594C22.376 100.591 22.376 100.591 22.373 100.588C22.4547 100.623 22.5394 100.658 22.6211 100.69C22.7028 99.0151 22.8954 97.1503 23.6221 95.621C24.2729 94.2552 25.1105 92.8193 26.129 91.6987C26.2574 91.5615 26.0532 91.3543 25.9247 91.4944Z" fill="black"/>
<path d="M38.0451 81.7387C38.9264 81.2076 40.3594 81.5607 41.3283 81.5753C41.518 81.5782 41.515 81.2864 41.3283 81.2835C40.2835 81.2689 38.8535 80.9128 37.8991 81.4848C37.7357 81.5841 37.8816 81.838 38.0451 81.7387Z" fill="black"/>
<path d="M41.4681 81.3419C41.5586 81.0939 41.6666 80.8546 41.7249 80.5948C41.7658 80.411 41.4827 80.3322 41.4448 80.516C41.3893 80.7758 41.2784 81.0151 41.188 81.2631C41.1208 81.4412 41.4039 81.517 41.4681 81.3419Z" fill="black"/>
<path d="M41.5468 81.2629C41.6986 81.2045 41.8591 81.1899 42.0021 81.1024C42.1597 81.0032 42.0138 80.7493 41.8562 80.8514C41.7395 80.9244 41.5994 80.9331 41.471 80.9827C41.2959 81.0469 41.3717 81.3271 41.5468 81.2629Z" fill="black"/>
<path d="M41.2904 81.5576C41.4334 81.6189 41.5706 81.6889 41.7107 81.759C41.8799 81.8436 42.0259 81.5897 41.8566 81.508C41.7165 81.4379 41.5793 81.3708 41.4363 81.3066C41.2671 81.2307 41.1182 81.4817 41.2904 81.5576Z" fill="black"/>
<path d="M64.0687 110.232C63.126 112.514 61.4392 116.761 61.5647 117.68C61.6902 118.602 62.2563 121.888 62.5745 122.055C62.8926 122.221 59.5043 121.789 59.4226 117.233C59.335 112.33 61.4479 108.828 61.4479 108.828L64.0687 110.232Z" fill="#FFCBA3"/>
<path d="M59.4637 115.87C59.7788 116.824 60.1174 119.839 60.8266 120.899C61.2439 121.52 62.3587 122.034 62.2858 121.38C63.4444 122.997 63.3189 122.863 62.207 122.644C61.098 122.422 59.6563 121.9 59.4491 118.444C59.0901 119.822 59.2185 121.199 58.9792 121.106C58.737 121.012 58.5239 120.963 58.5239 120.963C59.2477 117.869 57.9928 116.725 59.4637 115.87Z" fill="#0FA896"/>
<path d="M56.7935 111.055C57.3042 112.733 57.6135 117.222 56.9219 118.17C56.2302 119.119 56.8314 119.046 58.0717 120.724C59.3121 122.402 58.4249 123.496 60.7362 123.607C61.7577 123.657 61.8248 123.984 61.0281 122.367C58.4978 117.236 60.0066 114.741 60.4794 111.458C60.7975 109.26 56.7935 111.055 56.7935 111.055Z" fill="#FFCBA3"/>
<path d="M60.3863 111.317C60.1032 112.602 60.0128 113.912 59.7822 115.202C59.5896 116.276 59.3123 117.505 59.6217 118.581C59.6742 118.762 59.9544 118.686 59.9019 118.503C59.5838 117.402 59.9135 116.115 60.1091 115.021C60.325 113.816 60.4038 112.593 60.6694 111.393C60.7103 111.212 60.4272 111.134 60.3863 111.317Z" fill="black"/>
<path d="M69.5145 89.0208C68.7849 85.5187 67.0339 78.6109 66.9376 75.5465C66.6953 74.4755 66.4998 74.7206 66.4998 74.7206C66.4998 74.7206 61.3547 77.712 56.1745 73.6262C54.6657 75.3773 53.8514 76.3754 53.8514 76.3754C53.364 79.0019 52.4418 82.3581 54.0936 90.5793C55.7484 98.8004 54.7269 97.4872 55.1151 103.274C55.5032 109.062 56.2328 111.542 56.2328 111.542C58.5676 112.467 60.9986 112.03 61.5356 111.884C61.8274 110.667 61.7778 109.937 61.7778 109.937C63.1407 110.667 64.2585 110.667 64.7925 110.471C66.7858 105.46 68.4406 99.3316 69.462 96.6583C70.4864 93.9821 70.2441 92.5229 69.5145 89.0208ZM61.3897 104.669C61.3897 104.669 61.0978 100.765 61.2438 97.4813C61.3897 94.1981 61.0249 87.9235 61.2438 85.4049C61.9004 88.3233 64.0892 91.6445 64.0542 93.1037C64.0192 94.5629 62.0463 101.897 61.3897 104.669Z" fill="#1F444D"/>
<path d="M56.6855 51.1545C55.1533 52.2489 53.913 53.6352 54.4967 57.7939C57.8179 58.3046 58.5825 57.721 58.5825 57.721L57.7799 51.1896L56.6855 51.1545Z" fill="#1F444D"/>
<path d="M58.2788 42.2761C60.0794 40.4755 66.8385 41.1584 67.0836 44.7568C67.0836 48.0633 66.6459 47.7715 66.4503 49.8144C66.2548 51.8573 64.5037 53.8039 62.0231 53.4624C62.0231 55.1171 62.849 57.0141 62.849 57.0141L64.6964 57.16C64.6964 57.16 66.6896 63.7761 62.6535 64.0183C58.6173 64.2605 57.9607 61.8295 57.4733 57.3556C57.5959 55.6279 57.7651 51.4954 57.7651 51.4954C54.336 50.9964 54.4936 46.5224 57.304 48.7959C57.7914 43.785 58.2788 42.2761 58.2788 42.2761Z" fill="#FFCBA3"/>
<path d="M59.1663 62.6088C60.2607 63.8491 64.1159 63.9951 64.8222 61.5144C65.079 67.5701 65.7707 74.6823 66.0975 75.0471C63.471 75.9605 59.823 76.2524 58.1069 74.9012C58.2529 71.364 59.2393 64.3599 59.1663 62.6088Z" fill="white"/>
<path d="M63.1672 57.0374C63.6779 58.1318 64.6381 64.5027 64.6381 67.6779C64.6381 70.8531 65.0408 75.6306 66.7539 78.549C68.432 78.2192 70.2939 77.8923 70.2939 77.7464C70.3319 76.76 68.6158 71.6528 68.6158 71.6528C69.8941 71.5798 70.6587 69.7558 70.4778 66.6915C70.2969 63.6271 68.9077 58.2281 68.8347 58.0092C68.7618 57.7903 68.5049 56.9148 66.0622 57.1337C65.9864 56.5529 63.1409 56.5763 63.1672 57.0374Z" fill="#F77E56"/>
<path d="M59.347 64.8948C60.1992 64.9181 62.2654 65.2596 62.2654 65.2596L62.5018 67.8978L58.9326 67.1069L59.347 64.8948Z" fill="#FFCBA3"/>
<path d="M62.3938 48.1079C62.3237 48.0437 62.3238 47.8627 62.4084 47.816C62.3967 47.8219 62.3704 47.7839 62.3938 47.8277C62.4142 47.8656 62.4084 47.924 62.4055 47.962C62.4055 47.9941 62.3588 48.1166 62.3617 48.1166C62.3179 48.0962 62.35 47.9153 62.3646 47.8686C62.3734 47.8394 62.423 47.7168 62.4405 47.7314C62.5076 47.7927 62.4317 47.9678 62.3967 48.0262C62.3704 48.0699 62.35 48.0495 62.3734 48.0612C62.3617 48.0524 62.3529 48.0437 62.3442 48.032C62.3588 48.0553 62.3588 48.0553 62.35 48.0262C62.3413 47.997 62.3413 47.9649 62.3413 47.9328C62.3413 47.9065 62.3471 47.8861 62.3529 47.8627C62.3617 47.8335 62.3004 47.8948 62.2946 47.8306C62.3004 47.8802 62.2595 47.9386 62.2158 47.959C62.2887 47.9882 62.3588 48.0174 62.4288 48.0466C62.4113 48.0174 62.4142 47.9882 62.4376 47.9649C62.5485 47.8131 62.2946 47.6672 62.1866 47.819C62.1195 47.9123 62.1195 48.0174 62.1486 48.1254C62.1749 48.2217 62.28 48.2538 62.3617 48.2129C62.5777 48.105 62.674 47.7664 62.4609 47.6117C62.3646 47.5388 62.2158 47.5738 62.1399 47.6584C62.0553 47.7518 62.0407 47.8977 62.0523 48.0174C62.0757 48.245 62.2946 48.4435 62.5193 48.3063C62.7148 48.1867 62.779 47.8948 62.7352 47.6876C62.6827 47.4425 62.4084 47.3724 62.2304 47.5242C62.0669 47.6614 62.0348 47.9386 62.0669 48.1371C62.099 48.3501 62.3296 48.4814 62.5164 48.353C62.6944 48.2334 62.7207 47.9795 62.6856 47.7868C62.6448 47.5505 62.4171 47.4629 62.2187 47.5855C61.994 47.7256 62.0086 48.1429 62.1866 48.3122C62.3237 48.4435 62.531 48.2363 62.3938 48.1079Z" fill="black"/>
<path d="M65.4812 48.2038C65.4112 48.1396 65.4112 47.9587 65.4958 47.912C65.4841 47.9178 65.4578 47.8799 65.4812 47.9237C65.5016 47.9616 65.4958 48.02 65.4929 48.0579C65.4929 48.09 65.4462 48.2126 65.4491 48.2126C65.4053 48.1921 65.4374 48.0112 65.452 47.9645C65.4608 47.9353 65.5104 47.8128 65.5279 47.8273C65.595 47.8886 65.5191 48.0637 65.4841 48.1221C65.4578 48.1659 65.4374 48.1455 65.4608 48.1571C65.4491 48.1484 65.4403 48.1396 65.4316 48.1279C65.4462 48.1513 65.4462 48.1513 65.4374 48.1221C65.4287 48.0929 65.4287 48.0608 65.4287 48.0287C65.4287 48.0025 65.4345 47.982 65.4403 47.9587C65.4491 47.9295 65.3878 47.9908 65.382 47.9266C65.3878 47.9762 65.3469 48.0346 65.3032 48.055C65.3761 48.0842 65.4462 48.1134 65.5162 48.1425C65.4987 48.1134 65.5016 48.0842 65.525 48.0608C65.6359 47.9091 65.382 47.7631 65.274 47.9149C65.2069 48.0083 65.2069 48.1133 65.236 48.2213C65.2623 48.3176 65.3674 48.3497 65.4491 48.3089C65.6651 48.2009 65.7614 47.8624 65.5483 47.7077C65.452 47.6347 65.3032 47.6698 65.2273 47.7544C65.1427 47.8478 65.1281 47.9937 65.1397 48.1133C65.1631 48.341 65.382 48.5394 65.6067 48.4023C65.8022 48.2826 65.8664 47.9908 65.8226 47.7836C65.7701 47.5384 65.4958 47.4684 65.3178 47.6201C65.1543 47.7573 65.1222 48.0346 65.1543 48.233C65.1864 48.446 65.417 48.5774 65.6038 48.449C65.7818 48.3293 65.8081 48.0754 65.773 47.8828C65.7322 47.6464 65.5045 47.5589 65.3061 47.6814C65.0814 47.8215 65.096 48.2388 65.274 48.4081C65.4141 48.5394 65.6184 48.3351 65.4812 48.2038Z" fill="black"/>
<path d="M61.591 46.3687C61.8536 46.1031 62.3614 45.9601 62.7291 45.9484C62.7875 45.9455 62.8605 45.9046 62.8692 45.8404C62.8692 45.8346 62.8721 45.8258 62.8721 45.82C62.8371 45.855 62.805 45.8871 62.77 45.9222C62.7758 45.9222 62.7846 45.9192 62.7904 45.9192C62.9772 45.893 62.8955 45.6099 62.7116 45.6391C62.7058 45.6391 62.697 45.642 62.6912 45.642C62.6474 45.6478 62.5949 45.7004 62.5891 45.7441C62.5891 45.75 62.5861 45.7587 62.5861 45.7646C62.6328 45.7295 62.6795 45.6945 62.7262 45.6566C62.2826 45.6683 61.7019 45.8375 61.3837 46.1615C61.2524 46.2957 61.4596 46.5029 61.591 46.3687Z" fill="black"/>
<path d="M63.5259 48.3386C63.7214 48.537 64.0045 48.5721 64.2059 48.753C64.1971 48.6946 64.1913 48.6363 64.1826 48.575C64.06 48.826 63.8411 49.0332 63.6222 49.2024C63.4734 49.3163 63.6806 49.5235 63.8294 49.4096C64.0658 49.2258 64.3022 48.9952 64.4365 48.7238C64.4656 48.6684 64.4656 48.5925 64.4131 48.5458C64.2117 48.3648 63.9199 48.324 63.7331 48.1314C63.5989 47.9971 63.3917 48.2043 63.5259 48.3386Z" fill="black"/>
<path d="M62.5687 50.8806C63.2574 50.9973 63.9783 51.1082 64.6028 50.7201C64.7633 50.6208 64.6174 50.3699 64.4569 50.4691C63.9024 50.8135 63.2574 50.7026 62.6475 50.6004C62.4607 50.5683 62.3819 50.8485 62.5687 50.8806Z" fill="black"/>
<path d="M65.5019 45.8746C65.7762 45.9009 66.1119 45.9797 66.2986 46.1957C66.4212 46.3387 66.6255 46.1315 66.5058 45.9885C66.2694 45.7112 65.8492 45.6149 65.5019 45.5799C65.3151 45.5653 65.3151 45.8571 65.5019 45.8746Z" fill="black"/>
<path d="M59.4867 52.3744C60.2046 52.9698 61.0714 53.3988 61.9819 53.603C62.1658 53.6439 62.2446 53.3637 62.0607 53.3229C61.1998 53.1303 60.3739 52.7334 59.6939 52.1701C59.5509 52.0505 59.3437 52.2547 59.4867 52.3744Z" fill="black"/>
<path d="M55.8533 48.128C53.7725 45.8662 55.2258 42.0315 57.5956 40.6452C59.9653 39.259 63.9811 39.8047 65.4403 41.7046C67.4482 43.2017 67.9034 43.9664 67.9034 46.374C67.9034 48.5132 67.0512 51.5163 67.1563 53.2819C67.168 53.5037 67.1563 53.7985 66.9082 53.5475C65.6708 52.2955 66.6252 48.6533 66.6252 48.6533C66.9549 47.2291 67.0804 45.2884 66.9345 44.8273C66.7886 44.3662 64.5998 41.8855 62.6649 42.4313C61.9703 45.2417 59.4167 49.1991 57.009 50.238C56.6442 50.276 56.9915 49.3246 57.3183 48.8518C56.6296 48.163 55.8533 48.128 55.8533 48.128Z" fill="#1F444D"/>
<path d="M62.1691 65.113C63.8121 65.3319 64.5359 65.6734 65.8142 66.1111C66.6167 69.0295 66.0593 70.3428 66.0593 70.3428C66.0593 70.3428 63.5057 69.298 61.9502 68.7144C62.4492 66.6394 62.1691 65.113 62.1691 65.113Z" fill="#F77E56"/>
<path d="M57.4148 57.2101C57.8175 58.5613 61.9763 69.9782 57.4148 78.0417C56.6852 78.5174 52.2346 76.3636 52.2346 76.3636C52.7833 73.5912 55.0071 71.1105 55.0071 71.1105C55.0071 71.1105 51.9778 64.3982 51.9048 61.1879C51.8319 57.9777 53.364 57.6129 55.7367 57.6129C55.5791 57.1838 57.1463 57.0875 57.4148 57.2101Z" fill="#F77E56"/>
<path d="M56.1017 53.8535C56.8313 52.0674 58.3635 51.3116 58.8012 51.3495C59.239 51.3874 57.5959 53.5996 57.5959 53.5996C59.8577 53.8185 60.1495 54.4751 60.2225 54.8049C60.2954 55.1347 60.1845 56.2291 60.1845 56.2291C60.8412 57.1425 60.6953 57.7992 60.3684 58.3099C60.0415 58.8206 59.6943 62.6379 59.7614 64.6808C59.8227 66.5282 59.4316 67.5263 59.3119 68.3055C57.2515 68.7082 55.8828 67.357 55.8828 67.357C55.8828 67.357 57.5988 61.7741 58.4014 59.4043C58.9501 57.6533 57.7448 56.1211 57.2691 55.4645C56.7934 54.8078 55.8449 54.1804 56.1017 53.8535Z" fill="#FFCBA3"/>
<path d="M56.5396 64.9058C56.5396 64.9058 54.4588 65.2355 53.9481 66.0731C53.4374 66.9107 53.5337 68.4195 53.8985 69.2221C54.6281 70.0247 55.0425 69.7328 55.4306 68.4691C55.5853 67.9701 56.0639 66.9486 56.0639 66.9486L56.5396 64.9058Z" fill="#FFCBA3"/>
<path d="M57.841 51.887C57.949 51.8053 58.8041 51.4405 58.7545 51.5397C58.629 51.7848 58.3664 52.0037 58.1737 52.1992C57.771 52.6078 57.558 52.9347 57.4412 53.5096C57.4266 53.5826 57.4616 53.673 57.5434 53.6876C58.2234 53.8277 58.8012 54.1108 59.4228 54.4143C60.0182 54.7032 59.9014 55.319 60.0503 55.8589C60.0999 56.0399 60.383 55.964 60.3304 55.7801C60.1962 55.2869 60.2692 54.8025 59.9219 54.3968C59.6767 54.1108 59.1864 53.9707 58.8625 53.8073C58.4627 53.6059 58.0599 53.495 57.6222 53.4045C57.6572 53.4629 57.6893 53.5242 57.7243 53.5826C57.8644 52.9026 58.2175 52.5816 58.6669 52.1059C58.8245 51.9395 59.096 51.6798 59.096 51.4259C59.096 50.7634 57.8352 51.5251 57.6951 51.6302C57.5463 51.7469 57.6922 52.0008 57.841 51.887Z" fill="black"/>
<path d="M58.8566 55.2403C59.2155 55.8298 59.6796 56.3347 60.0969 56.8833C60.6777 57.648 60.4675 58.1937 60.2107 59.0342C59.8226 60.3008 59.6971 61.6462 59.6329 62.9624C59.5395 64.8331 59.379 66.7009 59.2506 68.5687C59.2389 68.7554 59.5307 68.7554 59.5424 68.5687C59.6737 66.6454 59.8459 64.7193 59.9306 62.7931C59.9714 61.9089 60.0706 61.0275 60.2341 60.1578C60.3712 59.4253 60.6981 58.7336 60.809 58.0011C60.9753 56.93 59.5949 55.8969 59.1076 55.0944C59.0113 54.9309 58.7603 55.0798 58.8566 55.2403Z" fill="black"/>
<path d="M55.5909 57.5753C55.7076 58.5734 55.5646 60.8526 56.9012 61.1095C56.8808 61.0277 56.8575 60.946 56.837 60.8643C56.373 61.2816 56.4927 61.7311 56.6532 62.2827C56.7057 62.4636 56.9888 62.3848 56.9333 62.2039C56.8254 61.8332 56.6473 61.4217 57.0413 61.0686C57.1201 60.9986 57.0822 60.8439 56.9771 60.8235C55.8477 60.6075 55.979 58.4304 55.8798 57.5723C55.8623 57.3885 55.5704 57.3885 55.5909 57.5753Z" fill="black"/>
<path d="M65.846 57.3557C65.989 58.1641 66.1437 58.9666 66.1875 59.7896C66.205 60.1486 66.2604 60.7498 66.0007 61.0329C65.8197 61.2284 65.7614 61.2255 65.6738 61.4794C65.6446 61.5669 65.6942 61.6983 65.7351 61.7741C65.9394 62.1594 66.1145 62.5533 66.2546 62.9678C66.5143 63.7324 66.4705 64.535 66.6515 65.3112C66.6807 65.4367 66.8558 65.4513 66.9171 65.3463C66.9579 65.2791 66.9521 65.2325 66.9316 65.1595C66.882 64.9786 66.6019 65.0544 66.6515 65.2383C66.6573 65.2266 66.6602 65.212 66.6661 65.1974C66.7536 65.2091 66.8441 65.2208 66.9316 65.2325C66.7682 64.5291 66.7886 63.8112 66.6019 63.1108C66.4384 62.5037 65.8022 61.6778 66.2896 61.1496C66.6019 60.8111 66.488 59.9414 66.4676 59.5386C66.4268 58.7798 66.2604 58.024 66.1291 57.2798C66.097 57.093 65.8139 57.1718 65.846 57.3557Z" fill="black"/>
<path d="M63.943 65.5944C64.8156 65.8279 65.6445 66.1781 66.4966 66.4699C66.8702 66.5983 67.2525 66.6946 67.6261 66.823C68.0434 66.966 68.3907 67.2491 68.7963 67.4184C68.9685 67.4913 69.0444 67.2083 68.8751 67.1382C68.5424 66.9981 68.2623 66.7559 67.9267 66.6275C67.556 66.4845 67.1795 66.3736 66.7972 66.2598C65.8604 65.9796 64.9703 65.5681 64.0218 65.3142C63.838 65.2646 63.7592 65.5448 63.943 65.5944Z" fill="black"/>
<path d="M67.0108 66.3976C67.4632 66.2429 67.9564 66.2867 68.4292 66.3013C68.5751 66.3042 68.9691 66.3655 69.01 66.1495C69.0479 65.9656 68.7648 65.8869 68.7298 66.0707C68.7531 65.9569 68.5255 66.0094 68.4292 66.0065C68.3066 66.0036 68.187 66.0007 68.0644 65.9978C67.6792 65.9948 67.3027 65.9861 66.935 66.1145C66.7569 66.1758 66.8328 66.4589 67.0108 66.3976Z" fill="black"/>
<path d="M54.7711 70.9615C55.098 71.4139 55.4102 72.0938 55.991 72.2806C56.5601 72.4616 57.1963 72.447 57.7333 72.1668C59.0174 71.4985 59.496 70.0101 59.5106 68.6268C59.5135 68.4371 59.2217 68.44 59.2188 68.6268C59.2071 69.5694 58.9298 70.7426 58.2761 71.4401C57.8471 71.9012 57.2109 72.1114 56.598 72.1084C55.7779 72.1084 55.4394 71.3876 55.0221 70.8127C54.9141 70.6638 54.6602 70.8097 54.7711 70.9615Z" fill="black"/>
<path d="M53.4747 72.9495C54.432 73.3872 55.2549 73.9388 56.2822 74.2044C56.253 74.1314 56.2239 74.0614 56.1947 73.9913C56.0283 74.2394 55.8591 74.4904 55.6869 74.7355C55.5935 74.9077 55.4534 75.0303 55.2666 75.1032C55.0594 74.9953 54.858 74.8698 54.6567 74.7472C54.1722 74.4524 53.6586 73.9709 53.1012 73.8396C53.1362 73.9009 53.1683 73.9592 53.2033 74.0205C53.2062 74.0118 53.2091 74.003 53.2121 73.9942C53.2733 73.8162 52.9932 73.7403 52.9319 73.9154C52.929 73.9242 52.926 73.933 52.9231 73.9417C52.8969 74.0147 52.9523 74.1022 53.0253 74.1227C53.4134 74.216 53.7782 74.5458 54.1138 74.753C54.5166 75.0011 54.9164 75.2492 55.3367 75.468C55.3892 75.4972 55.4709 75.4972 55.5147 75.4447C55.8503 75.0244 56.1509 74.5838 56.4486 74.1372C56.5011 74.0584 56.4486 73.9446 56.361 73.9242C55.3571 73.6645 54.5545 73.1246 53.6235 72.6985C53.4514 72.6197 53.3025 72.8707 53.4747 72.9495Z" fill="black"/>
<path d="M68.6858 73.0979C68.1284 73.3488 67.5185 73.5969 66.8998 73.5882C66.8005 73.5882 66.7363 73.6815 66.7597 73.772C66.8472 74.1456 67.072 74.4637 67.215 74.8168C67.2646 74.9394 67.3317 75.1699 67.4893 75.1962C67.7753 75.2458 68.0788 75.0736 68.3415 74.9802C68.8668 74.7935 69.395 74.6125 69.932 74.4578C70.1129 74.4053 70.0371 74.1251 69.8532 74.1777C69.1878 74.3703 68.537 74.6038 67.8833 74.8343C67.5535 74.9511 67.5506 74.8547 67.428 74.5746C67.2996 74.2798 67.1157 74.0113 67.0428 73.6961C66.9961 73.7574 66.9494 73.8187 66.9027 73.88C67.5798 73.8888 68.2306 73.6232 68.8376 73.3488C69.0039 73.273 68.858 73.022 68.6858 73.0979Z" fill="black"/>
<path d="M55.2323 66.3359C54.383 67.2669 54.5231 68.516 54.5318 69.6862C54.5318 69.873 54.8237 69.8759 54.8237 69.6862C54.8149 68.6093 54.6515 67.404 55.4365 66.5431C55.565 66.403 55.3607 66.1958 55.2323 66.3359Z" fill="black"/>
<path d="M54.7939 66.0443C53.8279 66.8585 53.8717 68.0113 53.8746 69.1757C53.8746 69.3625 54.1664 69.3625 54.1664 69.1757C54.1635 68.093 54.0935 67.0161 54.9982 66.2515C55.1441 66.1289 54.9369 65.9217 54.7939 66.0443Z" fill="black"/>
<path d="M58.0393 54.7704C57.9635 54.6887 58.3312 54.5019 58.3866 54.4728C58.6172 54.3502 58.9616 54.3298 59.2125 54.3823C59.3964 54.4231 59.4752 54.1401 59.2913 54.1021C58.9003 54.0175 58.4625 54.0904 58.1181 54.2889C57.8701 54.4319 57.587 54.7004 57.838 54.9776C57.9605 55.1177 58.1677 54.9105 58.0393 54.7704Z" fill="black"/>
<path d="M57.2863 54.3441C57.584 54.0581 57.905 54.023 58.3019 54.023C58.4887 54.023 58.4916 53.7312 58.3019 53.7312C57.8262 53.7312 57.4352 53.7983 57.0791 54.1398C56.9449 54.2682 57.1521 54.4754 57.2863 54.3441Z" fill="black"/>
<path d="M59.8604 56.3091C60.1552 56.3295 60.4003 56.1165 60.4208 55.8217C60.4324 55.6349 60.1406 55.6349 60.1289 55.8217C60.1202 55.9618 59.9888 56.026 59.8604 56.0173C59.6707 56.0056 59.6736 56.2974 59.8604 56.3091Z" fill="black"/>
<path d="M57.2748 55.8037C58.1153 56.6734 58.5355 57.8378 58.3312 59.0431C58.1561 60.0879 57.6892 61.1152 57.4178 62.1425C57.1901 63.0005 56.7757 63.7943 56.5014 64.6377C56.2621 65.3761 56.0578 66.1261 55.8506 66.8762C55.801 67.0571 56.0811 67.1359 56.1308 66.955C56.6736 65.023 57.4324 63.1785 57.946 61.2436C58.2378 60.1405 58.7602 59.1832 58.6552 58.0129C58.5735 57.0995 58.1065 56.2531 57.4791 55.6023C57.3507 55.4623 57.1434 55.6695 57.2748 55.8037Z" fill="black"/>
<path d="M64.3165 69.7881C65.6619 70.865 67.3604 71.9011 69.1261 71.9478C69.3158 71.9536 69.3128 71.6618 69.1261 71.6559C67.4626 71.6122 65.7991 70.6024 64.5237 69.5839C64.3749 69.4642 64.1677 69.6714 64.3165 69.7881Z" fill="black"/>
<path d="M60.0762 73.9181C61.7602 73.8919 63.1406 72.7245 64.1066 71.4375C64.2204 71.2857 63.9665 71.1427 63.8556 71.2916C62.9538 72.4939 61.6522 73.6029 60.0792 73.6263C59.8895 73.6292 59.8895 73.9211 60.0762 73.9181Z" fill="black"/>
<path d="M56.9771 117.875C57.4995 118.734 58.661 121.687 59.592 122.557C60.1407 123.067 61.3197 123.091 61.1008 122.472C62.598 123.785 62.633 123.931 61.5036 123.969C60.3741 124.007 58.6406 124.098 57.6542 120.776C57.5433 121.871 57.8906 123.275 57.6367 123.24C57.3828 123.205 57.161 123.202 57.161 123.202C57.1581 120.029 55.7368 119.043 56.9771 117.875Z" fill="#20BFAD"/>
<path d="M61.4656 82.2887C61.9735 81.9501 62.5659 81.8013 63.1204 81.559C63.2926 81.4832 63.1437 81.2322 62.9745 81.3081C62.42 81.5503 61.8275 81.6991 61.3197 82.0377C61.1621 82.1398 61.3081 82.3937 61.4656 82.2887Z" fill="black"/>
<path d="M58.9584 83.5229C58.9175 84.6261 59.1072 85.738 59.1422 86.844C59.1773 88.0027 59.259 89.1583 59.3232 90.317C59.4516 92.7363 59.507 95.1382 59.4516 97.5605C59.3991 99.8952 59.437 102.303 59.7142 104.623C59.8485 105.738 59.8864 106.832 59.9185 107.956C59.9331 108.472 59.9302 108.986 59.901 109.503C59.8689 110.078 59.9915 110.585 60.0294 111.154C60.0411 111.341 60.3329 111.341 60.3213 111.154C60.2892 110.682 60.1695 110.226 60.1812 109.748C60.1929 109.149 60.2279 108.557 60.2133 107.956C60.187 106.835 60.1549 105.735 60.009 104.623C59.8602 103.482 59.9039 102.326 59.7901 101.182C59.6705 99.9857 59.7201 98.7599 59.7463 97.5605C59.7989 95.1382 59.7463 92.7363 59.6179 90.317C59.5566 89.1583 59.4749 88.0027 59.437 86.844C59.402 85.738 59.2123 84.629 59.2531 83.5229C59.259 83.3361 58.9671 83.3361 58.9584 83.5229Z" fill="black"/>
<path d="M61.4396 105.313C61.4017 106.022 61.5096 106.72 61.5476 107.429C61.5797 108.06 61.5213 108.675 61.6877 109.294C61.7373 109.475 62.0174 109.399 61.9678 109.215C61.7927 108.561 61.8628 107.882 61.8277 107.21C61.7956 106.574 61.6964 105.952 61.7314 105.313C61.7431 105.124 61.4513 105.127 61.4396 105.313Z" fill="black"/>
<path d="M67.4282 86.5279C67.7201 88.2527 68.2979 89.9133 68.5256 91.6497C68.7619 93.4825 68.3796 95.397 67.9448 97.1743C67.5216 98.9107 67.0197 100.659 66.5089 102.372C66.255 103.224 65.9661 104.056 65.7589 104.923C65.5313 105.859 65.3065 106.788 64.9126 107.672C64.8367 107.841 65.0877 107.99 65.1635 107.818C65.8873 106.192 66.1587 104.392 66.7103 102.705C67.3202 100.84 67.8251 98.8874 68.2892 96.9817C68.7094 95.2569 69.0042 93.4241 68.8145 91.6497C68.6248 89.8841 68.0032 88.1943 67.7084 86.4491C67.6792 86.2653 67.3961 86.3441 67.4282 86.5279Z" fill="black"/>
<path d="M61.495 82.3168C61.4017 82.7721 61.4425 83.2244 61.4367 83.6855C61.4279 84.3772 61.352 85.0689 61.3433 85.7605C61.3404 85.9502 61.6322 85.9473 61.6351 85.7605C61.641 85.2411 61.676 84.7216 61.7081 84.205C61.7431 83.6097 61.6585 82.9822 61.7752 82.3956C61.8132 82.2117 61.5301 82.1329 61.495 82.3168Z" fill="black"/>
<path d="M59.3092 76.9028C60.1964 77.0429 61.0632 77.2618 61.9679 77.2647C62.8376 77.2676 63.6956 76.97 64.4953 76.6577C64.6674 76.5906 64.5945 76.3075 64.4165 76.3775C63.6197 76.6898 62.8288 76.9291 61.9679 76.9729C61.1041 77.0166 60.2344 76.754 59.388 76.6197C59.2042 76.5906 59.1254 76.8736 59.3092 76.9028Z" fill="black"/>
<path d="M60.1934 44.5821C59.2362 45.7874 58.5474 47.1708 57.5902 48.3761C57.4735 48.522 57.6807 48.7292 57.7974 48.5833C58.7546 47.378 59.4434 45.9917 60.4006 44.7893C60.5144 44.6405 60.3102 44.4333 60.1934 44.5821Z" fill="black"/>
<path d="M62.4752 41.9298C63.3945 41.568 64.3197 41.6263 65.2419 41.9298C65.4199 41.9882 65.4987 41.708 65.3207 41.6497C64.343 41.3286 63.3741 41.2644 62.3964 41.6497C62.2242 41.7168 62.3001 41.9999 62.4752 41.9298Z" fill="black"/>
<path d="M61.2701 40.7939C59.4373 40.8669 57.447 41.5527 56.4518 43.2016C56.3555 43.3621 56.6065 43.5109 56.7028 43.3475C57.6425 41.7891 59.5453 41.1529 61.2701 41.0857C61.4569 41.077 61.4569 40.7851 61.2701 40.7939Z" fill="black"/>
<path d="M60.9368 41.2349C59.7695 41.483 58.9231 42.2272 58.1001 43.0473C57.9659 43.1815 58.1731 43.3858 58.3073 43.2545C59.0953 42.4694 59.8979 41.7544 61.0156 41.518C61.1995 41.4801 61.1207 41.197 60.9368 41.2349Z" fill="black"/>
<path d="M55.7457 67.4246C56.2885 68.2505 57.2691 68.5453 58.2059 68.519C58.3927 68.5132 58.3956 68.2214 58.2059 68.2272C57.38 68.2505 56.4811 68.0142 55.9967 67.2787C55.8945 67.1211 55.6406 67.267 55.7457 67.4246Z" fill="black"/>
<path d="M62.0962 65.0633C62.0991 66.3065 62.1428 67.541 61.7868 68.7463C61.7343 68.9273 62.0144 69.0032 62.067 68.8251C62.4318 67.5965 62.3938 66.3357 62.388 65.0662C62.388 64.8765 62.0962 64.8765 62.0962 65.0633Z" fill="black"/>
<path d="M57.231 117.291C57.2368 117.747 57.3243 118.173 57.4557 118.608C57.5111 118.789 57.7913 118.71 57.7358 118.529C57.6103 118.12 57.5257 117.72 57.5228 117.291C57.5228 117.105 57.231 117.105 57.231 117.291Z" fill="black"/>
<path d="M57.0559 120.204C57.3681 120.589 57.6658 120.983 57.7709 121.477C57.8117 121.661 58.0919 121.582 58.051 121.398C57.9343 120.855 57.6016 120.417 57.2601 119.997C57.1434 119.851 56.9391 120.058 57.0559 120.204Z" fill="black"/>
<path d="M181.801 108.378C181.923 109.595 182.773 114.799 182.945 117.157C183.114 119.515 182.095 120.198 180.514 121.292C182.872 122.313 185.913 120.513 185.863 120.44C185.668 118.957 185.475 115.551 185.717 113.12C185.959 110.689 185.936 107.771 185.936 107.771L181.801 108.378Z" fill="#A66537"/>
<path d="M192.138 107.088C192.453 108.06 194.764 114.798 194.861 117.18C194.957 119.564 194.91 120.536 194.715 120.804C194.519 121.073 193.743 121.899 193.743 121.899L195.517 121.073L198.047 116.841C198.047 116.841 197.003 115.213 196.857 113.485C196.711 111.757 195.567 105.363 195.567 105.363L192.138 107.088Z" fill="#A66537"/>
<path d="M179.731 72.6769C178.856 75.5223 177.616 81.724 178.783 90.6251C179.95 99.5263 181.628 107.552 181.628 108.719C184.693 108.938 186.006 108.427 186.006 108.427C186.736 105.217 186.298 100.037 185.422 97.1186C184.547 94.2002 185.787 89.02 185.787 89.02C187.173 96.8267 191.624 106.385 192.208 107.625C193.909 106.7 195.856 106.093 195.856 106.093C196.293 102.226 192.426 97.0456 192.426 92.3762C192.426 87.7067 193.886 79.9729 190.092 73.9172C189.727 73.1146 189.654 71.5095 189.654 71.5095L179.731 72.6769Z" fill="#1F444D"/>
<path d="M185.734 54.0897C186.575 54.0722 187.485 54.4195 187.614 56.2785C182.76 58.5958 181.047 55.8028 181.374 55.3476C181.701 54.8923 184.109 54.4166 185.734 54.0897Z" fill="#F7CABC"/>
<path d="M176.79 43.2739C175.914 44.6835 176.183 46.1194 177.423 46.5338C177.765 44.5143 177.593 42.8362 177.593 42.8362L176.79 43.2739Z" fill="black"/>
<path d="M185.133 50.7887C185.133 50.7887 189.348 45.8858 185.335 42.3078C183.665 39.8651 178.059 40.405 177.227 43.2504C176.399 46.0959 177.84 46.9247 177.16 47.2224C176.282 47.6047 176.042 47.7623 176.042 47.7623L177.324 48.5736C177.324 48.5736 178.295 53.3686 181.506 52.3705C181.704 53.2839 182.092 55.0963 182.358 56.2987C180.881 57.5565 179.839 60.399 180.041 60.4224C180.245 60.4457 185.904 57.9709 186.082 55.785L186.175 55.7296L185.133 50.7887Z" fill="#A66537"/>
<path d="M193.74 74.7929C193.886 75.8143 194.25 79.2435 194.142 79.7921C194.034 80.3408 192.791 82.2378 192.902 82.2728C193.013 82.3078 196.112 82.4917 196.112 82.4917C196.112 82.4917 196.404 76.9817 196.331 74.9388C195.82 74.574 193.74 74.7929 193.74 74.7929Z" fill="#A66537"/>
<path d="M193.352 73.3071C193.375 73.7449 193.474 75.2041 193.474 75.2041C194.081 75.4726 196.442 75.5689 196.635 75.1807C196.781 74.4511 196.635 73.5523 196.635 73.5523L193.352 73.3071Z" fill="#F77E56"/>
<path d="M193.206 73.3073C193.244 73.9406 193.285 74.571 193.328 75.2043C193.334 75.2743 193.372 75.321 193.436 75.3444C194.257 75.6654 195.331 75.645 196.186 75.5253C197.137 75.3911 196.889 74.2383 196.778 73.5116C196.766 73.4445 196.696 73.4095 196.638 73.4036C195.544 73.3219 194.449 73.2402 193.355 73.1614C193.168 73.1468 193.168 73.4387 193.355 73.4533C193.988 73.5 194.621 73.5466 195.255 73.5933C195.619 73.6196 195.981 73.6459 196.346 73.6751C196.434 73.6809 196.524 73.6867 196.612 73.6955C196.553 73.6926 196.486 73.4824 196.515 73.7305C196.533 73.8793 196.542 74.0311 196.55 74.1799C196.565 74.4514 196.626 75.1051 196.308 75.2014C196.095 75.2656 195.862 75.2743 195.643 75.286C195.091 75.3152 194.528 75.2773 193.985 75.1868C193.804 75.1576 193.609 75.0175 193.62 75.1868C193.612 75.0467 193.603 74.9066 193.591 74.7636C193.559 74.2762 193.527 73.7889 193.498 73.3044C193.486 73.1206 193.194 73.1206 193.206 73.3073Z" fill="#F77E56"/>
<path d="M182.008 55.0205C181.278 55.2394 179.734 55.8727 179.247 56.2375C178.76 56.6023 170.296 56.3601 169.762 56.3338C168.717 58.5956 168.645 60.5421 168.645 60.5421C170.299 61.2221 175.745 63.3146 177.108 63.4109C177.158 65.7953 177.595 66.9364 177.715 68.5911C177.838 70.2459 177.957 72.4814 178.421 72.7265C178.882 72.9687 181.608 72.7995 183.286 73.2139C184.964 73.6283 188.04 72.6331 189.269 72.1924C189.61 72.0699 189.902 72.0699 189.949 71.8773C189.999 71.6817 190.241 66.916 190.241 66.916C190.241 66.916 191.942 70.5873 192.161 73.1672C192.648 73.8734 196.343 73.8734 196.903 73.6546C197.464 73.4357 197.341 68.8392 196.953 67.4296C196.565 66.02 193.72 63.4897 192.43 61.5432C191.481 60.1131 189.821 57.3406 187.524 56.3192C186.8 55.9982 186.736 55.216 186.228 55.1343C184.112 57.3961 183.286 57.2152 180.391 59.7921C180.619 58.7823 182.017 56.5293 182.262 56.3104C182.236 55.6013 182.008 55.0205 182.008 55.0205Z" fill="#F7CABC"/>
<path d="M178.964 47.4087C179.121 47.219 179.107 46.8483 178.891 46.6995C178.701 46.5682 178.476 46.6528 178.424 46.8775C178.383 47.0614 178.441 47.3123 178.593 47.4349C178.774 47.5808 179.019 47.4875 179.066 47.2598C179.11 47.0497 179.022 46.7929 178.87 46.644C178.689 46.4718 178.424 46.5682 178.362 46.7987C178.304 47.0205 178.432 47.2832 178.61 47.4087C178.829 47.5663 179.051 47.3415 179.072 47.1256C179.092 46.9096 178.917 46.5448 178.648 46.7082C178.38 46.8717 178.57 47.2365 178.803 47.3211C178.87 47.3445 178.972 47.2948 178.984 47.219C179.002 47.0876 178.993 46.9855 178.899 46.8863C178.771 46.7491 178.564 46.9563 178.692 47.0935C178.695 47.111 178.698 47.1256 178.701 47.1431C178.762 47.1081 178.821 47.076 178.882 47.0409C178.847 47.0293 178.812 46.968 178.809 46.93C178.815 47.0001 178.736 46.9388 178.751 46.9621C178.765 46.9855 178.774 47.0176 178.777 47.0439C178.783 47.0905 178.783 47.1343 178.762 47.1606C178.751 47.1723 178.745 47.1577 178.777 47.1635C178.759 47.1606 178.748 47.1431 178.736 47.1343C178.669 47.0672 178.625 46.9417 178.648 46.8512C178.657 46.8221 178.648 46.8396 178.66 46.8454C178.698 46.8658 178.727 46.9271 178.742 46.9651C178.765 47.0176 178.815 47.1693 178.774 47.219C178.78 47.2131 178.718 47.1022 178.713 47.0701C178.704 47.0322 178.698 46.9884 178.707 46.9505C178.713 46.9067 178.727 46.9213 178.692 46.9213C178.783 46.9154 178.797 47.146 178.756 47.1956C178.64 47.3474 178.844 47.5546 178.964 47.4087Z" fill="black"/>
<path d="M179.229 44.3699C178.867 44.2006 178.497 43.9905 178.085 44.0022C177.898 44.008 177.895 44.2999 178.085 44.294C178.441 44.2853 178.768 44.472 179.083 44.6209C179.252 44.6997 179.401 44.4487 179.229 44.3699Z" fill="black"/>
<path d="M177.604 49.9074C178.357 50.0387 179.04 49.7702 179.661 49.3587C179.819 49.2566 179.673 49.0027 179.515 49.1077C178.964 49.4725 178.354 49.7469 177.683 49.6272C177.496 49.5922 177.417 49.8753 177.604 49.9074Z" fill="black"/>
<path d="M179.463 49.1809C179.238 49.7529 178.769 50.1615 178.351 50.5934C178.237 50.7101 178.383 50.9115 178.529 50.8239C178.567 50.8006 178.591 50.7714 178.617 50.7364C178.728 50.5846 178.474 50.4387 178.366 50.5905C178.372 50.5846 178.378 50.5788 178.38 50.5759C178.439 50.6517 178.497 50.7276 178.558 50.8064C179.017 50.3336 179.501 49.89 179.746 49.2655C179.813 49.0816 179.533 49.0058 179.463 49.1809Z" fill="black"/>
<path d="M181.246 52.5925C182.031 52.5604 182.974 52.1489 183.537 51.6002C183.671 51.4689 183.467 51.2617 183.33 51.393C182.822 51.8833 181.946 52.2685 181.243 52.2977C181.059 52.3094 181.059 52.6012 181.246 52.5925Z" fill="black"/>
<path d="M178.686 42.3252C179.001 43.4926 179.512 46.6532 180.437 46.945C181.362 47.2369 181.044 45.9469 180.779 44.9021C181.581 46.6298 182.142 47.3594 182.53 47.1873C182.165 48.3546 182.334 50.8353 183.332 49.2798C183.601 50.9082 184.039 51.6145 184.719 51.5649C185.399 51.5153 185.644 50.5201 185.644 50.5201C186.082 52.2215 186.98 52.4667 187.59 52.1748C188.2 51.883 188.078 50.5201 187.76 49.6942C189.341 51.3956 191.019 51.203 189.753 48.1387C191.942 50.0356 193.716 48.3809 190.337 46.265C192.549 46.3147 193.132 45.7777 191.335 44.587C193.036 44.7095 192.843 43.1044 191.285 42.8126C192.768 42.7163 192.038 41.2804 190.847 41.257C192.89 41.2074 190.579 39.6286 188.148 39.7745C190.313 39.3601 190.337 39.3134 190.191 38.9719C190.045 38.6305 188.562 37.682 186.227 38.7034C186.738 36.6109 185.62 35.1517 185.229 38.2423C183.843 35.9572 181.946 35.3735 182.944 37.4631C180.706 36.1994 178.59 36.6372 178.931 37.4631C176.454 36.894 176.241 38.8085 178.406 38.899C175.073 38.7297 173.532 39.9204 173.798 40.7697C174.066 41.6219 176.474 40.793 176.474 40.793C173.168 42.0567 173.264 43.4196 173.459 43.7114C173.655 44.0033 175.283 43.0781 175.283 43.0781C173.41 44.7066 174.32 45.5384 174.846 45.3895C176.206 44.9985 177.227 42.6404 178.686 42.3252Z" fill="black"/>
<path d="M178.984 58.3938C178.955 58.0144 179.042 57.5824 179.255 57.2643C179.18 57.2731 179.104 57.2848 179.025 57.2935C179.238 57.5124 179.331 57.8101 179.474 58.0727C179.62 58.3471 179.839 58.5951 180.067 58.8082C180.204 58.9366 180.411 58.7323 180.274 58.601C180.02 58.3617 179.807 58.0932 179.652 57.778C179.53 57.5328 179.428 57.2877 179.235 57.0863C179.165 57.0163 179.057 57.0396 179.004 57.1155C178.765 57.4745 178.66 57.9647 178.692 58.3938C178.707 58.5805 178.999 58.5805 178.984 58.3938Z" fill="black"/>
<path d="M178.905 58.6244C179.069 58.4318 179.308 58.3296 179.515 58.1925C179.67 58.0874 179.524 57.8335 179.369 57.9415C179.144 58.0962 178.882 58.21 178.701 58.4201C178.578 58.5602 178.783 58.7674 178.905 58.6244Z" fill="black"/>
<path d="M179.107 57.157C179.291 56.6696 179.819 56.4566 180.243 56.2231C180.742 55.9488 181.159 55.4497 181.705 55.2717C181.883 55.2133 181.807 54.9303 181.626 54.9915C180.981 55.2017 180.467 55.7737 179.872 56.0947C179.428 56.334 179.011 56.5908 178.827 57.0811C178.76 57.2562 179.043 57.3292 179.107 57.157Z" fill="black"/>
<path d="M180.566 59.8472C181.036 59.3773 181.561 59.0067 182.107 58.6302C182.439 58.4025 182.798 58.102 183.259 58.4989C183.49 58.6973 183.639 59.0621 183.785 59.3277C183.823 59.3948 183.919 59.4211 183.983 59.3802C184.739 58.8899 185.474 58.4113 186.157 57.8218C186.63 57.4132 187.459 56.8295 187.625 56.1933C187.672 56.0124 187.392 55.9336 187.345 56.1145C187.263 56.4326 186.91 56.6836 186.691 56.9112C186.394 57.2177 186.081 57.5037 185.757 57.7838C185.162 58.3004 184.494 58.7031 183.837 59.1292C183.904 59.1467 183.971 59.1643 184.036 59.1818C183.799 58.7528 183.394 57.851 182.749 57.9969C181.873 58.1953 180.977 59.0242 180.358 59.6429C180.224 59.7742 180.431 59.9785 180.566 59.8472Z" fill="black"/>
<path d="M186.17 54.5798C186.281 54.6324 186.214 54.8921 186.179 54.9651C186.108 55.111 185.977 55.2248 185.866 55.3357C185.732 55.4699 185.939 55.6742 186.073 55.5429C186.26 55.3561 186.473 55.1518 186.511 54.8775C186.537 54.6878 186.514 54.4193 186.319 54.3288C186.149 54.25 186 54.501 186.17 54.5798Z" fill="black"/>
<path d="M180.096 59.9442C179.968 61.0648 179.501 62.1184 179.247 63.2157C179.025 64.17 179.028 65.1389 179.224 66.0962C179.437 67.1381 179.714 68.1566 179.904 69.2043C180.102 70.3045 180.33 71.3989 180.686 72.4612C180.747 72.6393 181.027 72.5634 180.966 72.3824C180.298 70.4008 180.067 68.2937 179.562 66.2684C179.267 65.0893 179.346 63.957 179.653 62.7896C179.904 61.8382 180.274 60.9277 180.388 59.9442C180.411 59.7574 180.119 59.7603 180.096 59.9442Z" fill="black"/>
<path d="M182.927 59.0303C181.923 61.0615 181.205 63.1511 181.185 65.4391C181.173 66.662 181.5 67.8352 181.795 69.0113C181.944 69.6037 182.052 70.2108 182.186 70.809C182.314 71.381 182.513 71.9793 182.51 72.5659C182.51 72.7556 182.802 72.7527 182.802 72.5659C182.808 71.6379 182.454 70.6544 182.25 69.7555C181.964 68.5093 181.593 67.2573 181.497 65.9761C181.316 63.586 182.142 61.2862 183.184 59.1792C183.263 59.0099 183.009 58.864 182.927 59.0303Z" fill="#F77E56"/>
<path d="M185.443 58.338C184.935 59.3507 184.594 60.4422 184.232 61.5132C183.826 62.7156 183.467 63.9297 183.429 65.2021C183.394 66.3199 183.636 67.4405 183.858 68.5291C184.127 69.8336 184.556 71.2286 184.547 72.5653C184.547 72.752 184.839 72.752 184.839 72.5653C184.845 71.5205 184.535 70.5107 184.348 69.4893C184.118 68.2314 183.803 66.9969 183.73 65.7157C183.657 64.4667 183.981 63.2818 184.348 62.1028C184.728 60.8858 185.125 59.6279 185.697 58.4868C185.779 58.3176 185.528 58.1687 185.443 58.338Z" fill="#F77E56"/>
<path d="M188.034 57.1705C187.374 58.3 186.986 59.549 186.543 60.7719C186.058 62.1056 185.696 63.4977 185.495 64.9014C185.308 66.2089 185.489 67.4638 185.801 68.7362C186.122 70.0407 186.338 71.4241 186.791 72.6906C186.855 72.8658 187.135 72.7899 187.071 72.6118C186.674 71.5029 186.528 70.3238 186.222 69.1886C185.816 67.6972 185.594 66.2556 185.816 64.7146C185.991 63.4831 186.347 62.2778 186.738 61.1016C187.164 59.8175 187.602 58.4926 188.285 57.3194C188.381 57.153 188.127 57.0071 188.034 57.1705Z" fill="#F77E56"/>
<path d="M187.616 63.5893C187.342 64.9434 187.263 66.2859 187.52 67.6517C187.681 68.5155 187.771 69.394 187.865 70.2695C187.937 70.9553 188.113 71.6995 188.098 72.3854C188.095 72.5751 188.387 72.5721 188.39 72.3854C188.401 71.7696 188.247 71.148 188.183 70.5351C188.115 69.9018 188.051 69.2656 187.964 68.6352C187.856 67.856 187.686 67.0855 187.643 66.2976C187.596 65.4162 187.721 64.529 187.894 63.6681C187.935 63.4842 187.654 63.4054 187.616 63.5893Z" fill="#F77E56"/>
<path d="M188.816 65.1969C189.099 67.4411 188.98 69.7058 189.091 71.9588C189.099 72.1456 189.391 72.1456 189.382 71.9588C189.269 69.7029 189.388 67.4411 189.108 65.1969C189.085 65.013 188.793 65.0101 188.816 65.1969Z" fill="#F77E56"/>
<path d="M187.267 60.8924C188.484 62.8156 190.305 64.2252 191.44 66.2156C192.079 67.3333 192.561 68.5182 192.929 69.7527C193.092 70.3043 193.241 70.8559 193.413 71.4045C193.553 71.851 193.892 72.534 193.851 73.0038C193.833 73.1906 194.125 73.1906 194.143 73.0038C194.172 72.6536 194.003 72.3355 193.883 72.0174C193.661 71.4308 193.512 70.7741 193.349 70.1671C193.034 68.9939 192.619 67.8499 192.071 66.7643C191.537 65.7078 190.903 64.7447 190.124 63.8546C189.231 62.8332 188.25 61.9022 187.518 60.7465C187.419 60.5889 187.168 60.7348 187.267 60.8924Z" fill="#F77E56"/>
<path d="M187.705 59.3596C188.461 60.3782 189.281 61.3442 190.01 62.386C190.804 63.5242 191.513 64.6857 192.249 65.8619C192.981 67.0321 193.676 68.1295 194.119 69.4486C194.341 70.1111 194.531 70.7852 194.753 71.4506C194.823 71.6578 195.36 72.761 195.26 72.9653C195.179 73.1345 195.43 73.2805 195.511 73.1112C195.628 72.8719 195.546 72.6793 195.444 72.4458C195.152 71.7716 194.936 71.0741 194.715 70.3737C194.283 69.0108 193.813 67.7822 193.048 66.5652C192.272 65.3365 191.569 64.0641 190.722 62.8792C189.832 61.6302 188.875 60.4424 187.959 59.2108C187.848 59.0649 187.594 59.2079 187.705 59.3596Z" fill="#F77E56"/>
<path d="M188.568 58.2602C190.433 60.4928 192.02 62.9413 193.766 65.2644C194.632 66.4201 195.199 67.532 195.543 68.9416C195.882 70.3249 196.229 71.7374 196.407 73.1499C196.497 73.1266 196.588 73.1003 196.678 73.077C196.62 72.9953 196.579 72.9778 196.48 72.969C196.293 72.9515 196.293 73.2433 196.48 73.2608C196.462 73.2492 196.445 73.2375 196.427 73.2258C196.5 73.328 196.719 73.3105 196.699 73.1529C196.527 71.79 196.182 70.4562 195.884 69.1167C195.563 67.6721 195.05 66.496 194.166 65.3111C192.365 62.9005 190.71 60.3673 188.778 58.0559C188.653 57.91 188.448 58.1172 188.568 58.2602Z" fill="#F77E56"/>
<path d="M179.57 59.0681C178.464 60.9855 177.989 63.2443 178.003 65.4361C178.012 66.653 178.196 67.8671 178.394 69.0636C178.572 70.1493 178.596 71.3575 179.007 72.3848C179.063 72.5249 179.311 72.522 179.293 72.3469C179.284 72.2476 179.267 72.2068 179.185 72.1484C179.031 72.0375 178.888 72.2914 179.039 72.3994C179.028 72.3819 179.016 72.3644 179.004 72.3469C179.101 72.3352 179.194 72.3206 179.29 72.3089C178.937 71.4276 178.931 70.4528 178.768 69.5248C178.561 68.3545 178.386 67.1783 178.316 65.9906C178.175 63.6792 178.657 61.2335 179.821 59.214C179.915 59.0506 179.664 58.9047 179.57 59.0681Z" fill="#F77E56"/>
<path d="M169.698 57.6411C171.207 57.9446 172.829 57.9942 174.364 58.108C175.164 58.1693 175.961 58.2248 176.76 58.3152C177.017 58.3444 177.537 58.4728 177.759 58.2948C177.904 58.1781 177.697 57.9709 177.551 58.0876C177.417 58.1956 176.524 57.9942 176.34 57.9709C175.593 57.8775 174.834 57.8483 174.081 57.7928C172.669 57.6878 171.163 57.6382 169.777 57.358C169.593 57.323 169.514 57.6031 169.698 57.6411Z" fill="#F77E56"/>
<path d="M169.298 58.6831C170.436 59.188 171.714 59.258 172.925 59.4827C173.646 59.617 174.376 59.6637 175.097 59.8008C175.686 59.9117 176.325 60.0022 176.923 59.9818C177.11 59.9759 177.113 59.6841 176.923 59.6899C175.73 59.7308 174.425 59.436 173.249 59.2463C172 59.045 170.614 58.9487 169.446 58.4321C169.274 58.3562 169.125 58.6072 169.298 58.6831Z" fill="#F77E56"/>
<path d="M169.006 59.7563C170.183 60.2145 171.405 60.5822 172.622 60.9237C173.238 61.0988 173.839 61.3264 174.446 61.5278C175.036 61.7233 175.672 61.8021 176.232 62.0764C176.402 62.1582 176.548 61.9072 176.378 61.8255C175.952 61.6153 175.509 61.5336 175.053 61.4081C174.344 61.2155 173.655 60.947 172.958 60.7223C171.665 60.305 170.352 59.9694 169.085 59.4761C168.907 59.4061 168.831 59.6892 169.006 59.7563Z" fill="#F77E56"/>
<path d="M177.872 59.5436C177.849 60.2616 177.56 61.0174 177.44 61.7295C177.318 62.4562 177.204 63.1975 177.038 63.9183C176.997 64.1022 177.277 64.1781 177.318 63.9971C177.502 63.1917 177.624 62.3628 177.764 61.5486C177.878 60.8832 178.141 60.2149 178.164 59.5436C178.17 59.3539 177.878 59.3539 177.872 59.5436Z" fill="black"/>
<path d="M188.349 57.9784C187.208 59.3179 186.633 61.3112 187.264 63.0039C188.04 65.0906 190.115 66.4126 190.976 68.4818C191.046 68.6539 191.329 68.5781 191.256 68.403C190.561 66.7307 189.225 65.5137 188.189 64.0662C186.881 62.2393 187.112 59.8783 188.556 58.1827C188.676 58.0426 188.469 57.8354 188.349 57.9784Z" fill="black"/>
<path d="M177.799 65.5614C178.599 65.611 179.279 66.0517 179.988 66.3815C180.846 66.7813 181.722 67.1403 182.58 67.5489C182.749 67.6306 182.898 67.3767 182.726 67.2979C181.809 66.8601 180.872 66.472 179.953 66.0459C179.247 65.7161 178.599 65.3221 177.802 65.2725C177.613 65.2579 177.613 65.5497 177.799 65.5614Z" fill="black"/>
<path d="M179.075 66.6155C179.676 66.811 180.154 67.2371 180.718 67.5115C180.887 67.5932 181.033 67.3422 180.864 67.2605C180.277 66.9745 179.781 66.5367 179.15 66.3324C178.972 66.277 178.897 66.5571 179.075 66.6155Z" fill="black"/>
<path d="M180.645 60.9648C180.633 60.9648 180.621 60.9648 180.607 60.9648C180.42 60.9648 180.42 61.2567 180.607 61.2567C180.619 61.2567 180.63 61.2567 180.645 61.2567C180.832 61.2567 180.832 60.9648 180.645 60.9648Z" fill="#F77E56"/>
<path d="M180.023 63.1192C180.21 63.1192 180.21 62.8274 180.023 62.8274C179.837 62.8274 179.837 63.1192 180.023 63.1192Z" fill="#F77E56"/>
<path d="M179.843 65.307C180.029 65.307 180.029 65.0151 179.843 65.0151C179.656 65.0151 179.656 65.307 179.843 65.307Z" fill="#F77E56"/>
<path d="M180.461 68.7369C180.648 68.7369 180.648 68.4451 180.461 68.4451C180.274 68.4451 180.274 68.7369 180.461 68.7369Z" fill="#F77E56"/>
<path d="M180.936 70.8145C181.123 70.8145 181.123 70.5227 180.936 70.5227C180.75 70.5227 180.75 70.8145 180.936 70.8145Z" fill="#F77E56"/>
<path d="M181.337 72.2743C181.524 72.2743 181.524 71.9824 181.337 71.9824C181.15 71.9824 181.15 72.2743 181.337 72.2743Z" fill="#F77E56"/>
<path d="M167.305 59.3984C166.721 58.7651 161.591 51.6646 161.176 51.1305C160.762 50.5964 159.352 49.9631 158.964 49.502C158.576 49.0409 158.404 48.1654 158.477 48.0428C158.55 47.9203 158.792 47.3862 158.792 47.3862C158.056 46.3677 157.047 45.212 157.093 44.7013C157.125 44.3627 158.646 45.6351 159.326 46.4844C160.274 46.4844 161.345 46.7033 161.71 47.5058C162.075 48.3084 162.221 49.2335 162.781 49.8902C163.342 50.5468 169.397 56.2611 169.421 56.334C169.444 56.407 167.305 59.3984 167.305 59.3984Z" fill="#A66537"/>
<path d="M170.03 56.2599C169.861 56.1373 169.642 56.0906 169.496 55.968C168.918 56.3328 168.323 57.4564 167.786 58.2123C167.567 58.5275 167.091 59.1111 167.164 59.5256C167.272 60.0596 167.751 60.2668 167.865 60.4916C168.107 60.906 168.375 61.1978 168.813 61.4167C168.813 61.2474 168.863 61.0752 168.886 60.906C168.909 60.76 168.863 60.5908 168.886 60.4449C168.909 60.0801 168.982 59.7386 169.009 59.3505C169.058 58.6705 169.228 57.8913 169.519 57.258C169.665 56.9895 169.934 56.6013 169.981 56.3824" fill="#F77E56"/>
<path d="M170.103 56.1315C169.925 56.0294 169.741 55.9476 169.569 55.8397C169.528 55.8134 169.461 55.8105 169.423 55.8397C168.924 56.1986 168.588 56.7298 168.256 57.2376C167.897 57.7862 167.377 58.3612 167.135 58.9711C166.937 59.4702 167.053 59.8379 167.415 60.226C167.853 60.6988 168.165 61.2183 168.746 61.5393C168.851 61.5977 168.953 61.5218 168.965 61.4138C169.061 60.5062 169.096 59.5869 169.245 58.6822C169.321 58.2152 169.467 57.7629 169.651 57.331C169.788 57.0158 170.013 56.7502 170.126 56.4204C170.188 56.2424 169.908 56.1665 169.846 56.3416C169.709 56.7298 169.435 57.0479 169.292 57.4331C169.12 57.8942 169.003 58.3582 168.924 58.8427C168.787 59.692 168.766 60.5587 168.673 61.4138C168.746 61.373 168.819 61.3292 168.892 61.2883C168.419 61.0257 168.267 60.6667 167.914 60.3019C167.751 60.1326 167.576 59.9867 167.436 59.7941C167.12 59.3622 167.488 58.9011 167.719 58.5625C168.028 58.1102 168.332 57.6549 168.632 57.1967C168.816 56.9166 169.012 56.6481 169.231 56.3942C169.484 56.1023 169.677 56.2191 169.963 56.3796C170.118 56.4788 170.267 56.2249 170.103 56.1315Z" fill="#F77E56"/>
<path d="M158.459 47.1526C158.681 47.6779 159.203 48.0368 159.358 48.5884C159.41 48.7694 159.69 48.6935 159.638 48.5096C159.477 47.9464 158.961 47.6049 158.739 47.0738C158.666 46.9045 158.386 46.9804 158.459 47.1526Z" fill="black"/>
<path d="M159.212 48.8186C159.279 48.6727 159.323 48.518 159.407 48.3808C159.507 48.2203 159.256 48.0744 159.157 48.2349C159.072 48.3721 159.031 48.5268 158.961 48.6727C158.879 48.839 159.13 48.9879 159.212 48.8186Z" fill="black"/>
<path d="M159.13 46.5312C159.393 46.8843 159.778 47.1207 160.029 47.4797C160.137 47.6314 160.388 47.4884 160.28 47.3337C160.026 46.9719 159.644 46.7384 159.381 46.3853C159.27 46.2364 159.016 46.3823 159.13 46.5312Z" fill="black"/>
<path d="M160.178 46.7056C160.531 46.872 160.718 47.266 160.951 47.5578C161.068 47.7037 161.275 47.4965 161.158 47.3506C160.904 47.0354 160.709 46.6327 160.326 46.4517C160.157 46.373 160.008 46.6269 160.178 46.7056Z" fill="black"/>
<path d="M161.074 47.0175C161.147 47.1635 161.208 47.3123 161.279 47.4582C161.343 47.5895 161.41 47.7646 161.538 47.8464C161.696 47.9485 161.842 47.6946 161.684 47.5954C161.637 47.5662 161.553 47.359 161.512 47.2773C161.448 47.143 161.389 47.0029 161.322 46.8687C161.244 46.7023 160.993 46.8483 161.074 47.0175Z" fill="black"/>
<path d="M188.545 74.4287C189.269 75.5464 189.639 76.8626 190.045 78.1176C190.273 78.8151 190.483 79.5184 190.649 80.2334C190.778 80.7908 190.961 81.5555 190.792 82.1216C190.74 82.3026 191.02 82.3784 191.072 82.2004C191.215 81.7247 191.099 81.2198 191.04 80.7383C190.941 79.9095 190.661 79.0894 190.41 78.2985C189.978 76.9356 189.578 75.491 188.796 74.2799C188.694 74.1223 188.443 74.2682 188.545 74.4287Z" fill="black"/>
<path d="M201.068 91.1732C201.211 90.1809 201.599 87.1837 201.599 85.3451C201.596 83.5065 201.57 82.7477 201.377 82.6894C201.185 82.6339 196.241 82.2604 193.652 82.2516C191.067 82.2399 189.374 82.0356 189.292 82.3041C189.213 82.5726 189.097 85.7975 189.015 87.0699C188.933 88.3394 188.811 89.892 188.808 90.1839C188.805 90.4757 188.723 90.6187 189.345 90.6333C189.966 90.6479 193.089 91.109 195.263 91.2491C197.438 91.3892 199.542 91.3921 199.959 91.3892C200.379 91.3862 201.027 91.4534 201.068 91.1732Z" fill="#20BFAD"/>
<path d="M200.301 90.1786C200.382 89.5248 200.452 86.1512 200.549 85.1618C200.645 84.1725 200.555 83.5187 200.432 83.4575C200.312 83.3933 196.13 83.2473 194.084 83.1831C192.039 83.1189 191.096 83.0285 191.058 83.1598C191.02 83.2882 190.647 88.7223 190.679 89.1834C190.711 89.6445 190.644 89.6824 191.096 89.7583C191.548 89.8371 198.129 90.3332 198.801 90.3332C199.475 90.3303 200.257 90.4179 200.301 90.1786Z" fill="white"/>
<path d="M189.992 88.3779C190.491 88.4159 191.451 88.807 191.697 87.482C191.942 86.1541 191.95 85.3428 191.565 85.0218C191.18 84.7007 190.179 84.762 190.097 84.9021C190.013 85.0451 189.896 86.5773 189.864 86.9012C189.829 87.2252 189.706 88.3575 189.992 88.3779Z" fill="#4C8491"/>
<path d="M190.045 87.5114C189.812 87.6923 188.898 88.0922 188.781 88.1126C188.665 88.133 188.533 88.0104 188.597 87.5581C188.662 87.1028 188.732 85.8304 188.764 85.5736C188.796 85.3197 188.816 84.9199 189.202 85.2292C189.584 85.5386 190.176 85.7954 190.176 85.7954L190.022 87.4501" fill="#4C8491"/>
<path d="M193.667 82.039C193.763 82.6227 193.594 84.7502 193.705 85.9C194.399 87.724 195.079 85.6199 195.348 84.6218C195.365 85.4243 195.386 85.9642 195.605 85.9175C195.824 85.8708 196.25 82.6723 196.127 82.0156C195.832 80.9942 193.667 82.039 193.667 82.039Z" fill="#A66537"/>
<path d="M194.306 82.9965C194.311 83.5744 194.201 84.1405 194.104 84.7067C194.037 85.0978 194.005 85.6056 193.766 85.9324C193.655 86.0842 193.909 86.2301 194.017 86.0784C194.276 85.7223 194.311 85.2028 194.384 84.7826C194.487 84.1901 194.603 83.5977 194.597 82.9965C194.597 82.8068 194.306 82.8068 194.306 82.9965Z" fill="black"/>
<path d="M194.86 83.2559C194.834 84.1927 194.522 85.0712 194.379 85.9905C194.349 86.1743 194.632 86.2531 194.659 86.0693C194.805 85.1266 195.123 84.219 195.149 83.2588C195.158 83.0662 194.866 83.0662 194.86 83.2559Z" fill="black"/>
<path d="M195.462 83.2364C195.31 83.7559 195.368 84.3338 195.17 84.8416C195.103 85.0167 195.383 85.0926 195.45 84.9204C195.649 84.4126 195.59 83.8318 195.742 83.3152C195.795 83.1314 195.514 83.0555 195.462 83.2364Z" fill="black"/>
<path d="M193.504 81.6162C193.553 81.8555 193.574 82.1298 193.504 82.3662C193.451 82.5471 193.731 82.623 193.784 82.445C193.868 82.1561 193.845 81.8321 193.784 81.5403C193.746 81.3535 193.466 81.4323 193.504 81.6162Z" fill="black"/>
<path d="M181.853 73.0732C181.611 74.013 181.664 74.9906 181.655 75.9537C181.646 77.0919 181.734 78.2505 181.81 79.3858C181.818 79.5054 181.926 79.558 182.028 79.5113C182.37 79.3624 182.595 79.0064 182.895 78.7817C183.088 78.6387 183.088 78.3526 183.111 78.1396C183.175 77.5793 183.085 76.981 183.088 76.4148C183.094 75.8049 183.202 75.2124 183.231 74.6054C183.24 74.4186 182.948 74.4186 182.939 74.6054C182.898 75.4693 182.779 76.3068 182.799 77.1794C182.808 77.5384 182.974 78.3585 182.63 78.6153C182.376 78.805 182.171 79.1289 181.88 79.2573C181.953 79.2982 182.026 79.342 182.099 79.3828C182.031 78.411 181.988 77.4363 181.953 76.4644C181.912 75.3846 181.859 74.1968 182.131 73.1462C182.183 72.9682 181.9 72.8923 181.853 73.0732Z" fill="black"/>
<path d="M179.766 74.4953C181.351 74.9331 183.014 74.8134 184.637 74.7259C185.545 74.6792 186.452 74.6033 187.354 74.4837C188.119 74.3815 188.831 74.1364 189.584 73.9846C189.768 73.9467 189.689 73.6665 189.505 73.7045C188.688 73.8708 187.917 74.1189 187.083 74.2298C186.271 74.3377 185.454 74.3903 184.637 74.437C183.044 74.5274 181.4 74.6471 179.842 74.2152C179.661 74.1626 179.585 74.4457 179.766 74.4953Z" fill="black"/>
<path d="M180.28 73.3482C180.289 73.3453 180.295 73.3424 180.303 73.3395C180.254 73.3395 180.204 73.3395 180.158 73.3395C180.117 73.2519 180.093 73.2461 180.09 73.3161C180.082 73.3482 180.073 73.3833 180.064 73.4154C180.047 73.4854 180.032 73.5525 180.026 73.6226C180.003 73.9027 179.988 74.18 179.988 74.4631C179.988 74.6498 180.28 74.6498 180.28 74.4631C180.28 74.1012 180.283 73.7451 180.371 73.3949C180.414 73.2169 180.359 73.0009 180.134 73.0973C179.962 73.1702 180.111 73.4212 180.28 73.3482Z" fill="black"/>
<path d="M185.533 73.4064C185.533 73.7479 185.533 74.0864 185.533 74.4279C185.533 74.6147 185.825 74.6147 185.825 74.4279C185.825 74.0864 185.825 73.7479 185.825 73.4064C185.825 73.2167 185.533 73.2167 185.533 73.4064Z" fill="black"/>
<path d="M186.415 74.7571C186.744 76.3301 187.783 78.9567 189.838 78.0169C189.923 77.979 189.934 77.8448 189.867 77.7864C189.806 77.7339 189.771 77.7163 189.692 77.7076C189.505 77.6842 189.508 77.9761 189.692 77.9994C189.683 77.9965 189.672 77.9965 189.663 77.9936C189.672 77.9177 189.683 77.8418 189.692 77.763C187.859 78.6006 186.975 76.0208 186.695 74.6754C186.657 74.4944 186.377 74.5732 186.415 74.7571Z" fill="black"/>
<path d="M186.079 74.8658C186.111 75.8435 186.408 76.9816 187.045 77.7521C187.757 78.6159 188.787 78.7356 189.838 78.508C190.021 78.4671 189.943 78.1869 189.759 78.2278C188.659 78.4642 187.698 78.2628 187.077 77.2881C186.63 76.5876 186.397 75.6917 186.371 74.8687C186.365 74.6761 186.073 74.6761 186.079 74.8658Z" fill="black"/>
<path d="M181.194 82.3012C181.562 82.2487 181.921 82.3041 182.286 82.3421C182.741 82.3917 183.184 82.3158 183.634 82.4471C183.815 82.4997 183.891 82.2166 183.713 82.167C183.304 82.0473 182.89 82.0677 182.466 82.0619C182.008 82.0561 181.576 81.9539 181.118 82.0211C180.931 82.0473 181.01 82.3275 181.194 82.3012Z" fill="black"/>
<path d="M181.485 83.0303C181.966 82.9253 182.451 82.8931 182.941 82.8902C183.128 82.8902 183.128 82.5984 182.941 82.5984C182.425 82.6013 181.911 82.6392 181.406 82.7501C181.225 82.7881 181.301 83.0712 181.485 83.0303Z" fill="black"/>
<path d="M184.109 83.4015C184.162 84.3588 184.626 85.2431 184.915 86.1478C185.274 87.2714 185.487 88.4329 185.793 89.5711C185.843 89.752 186.123 89.6761 186.073 89.4923C185.79 88.4387 185.583 87.3677 185.274 86.3229C184.99 85.3656 184.456 84.4084 184.401 83.4015C184.392 83.2119 184.1 83.2119 184.109 83.4015Z" fill="black"/>
<path d="M191.332 90.9894C191.329 92.2239 191.242 93.4847 191.493 94.6987C191.776 96.0646 192.45 97.3983 192.963 98.6911C193.813 100.827 194.548 102.943 194.913 105.22C194.942 105.406 195.225 105.328 195.193 105.141C194.843 102.955 194.151 100.921 193.343 98.8633C192.855 97.6259 192.31 96.3943 191.907 95.1248C191.487 93.8028 191.618 92.3582 191.624 90.9894C191.627 90.7997 191.335 90.7997 191.332 90.9894Z" fill="black"/>
<path d="M184.838 86.3554C184.835 86.7757 184.704 87.1755 184.678 87.5928C184.649 88.0481 184.649 88.5005 184.608 88.9586C184.529 89.8838 184.482 90.8089 184.427 91.737C184.316 93.5522 184.152 95.35 184.409 97.1594C184.678 99.0534 185.27 100.88 185.431 102.789C185.509 103.714 185.466 104.66 185.437 105.585C185.413 106.288 185.171 106.997 185.32 107.698C185.358 107.882 185.641 107.803 185.6 107.619C185.445 106.884 185.711 106.046 185.734 105.296C185.763 104.374 185.775 103.446 185.696 102.526C185.556 100.86 185.072 99.2373 184.771 97.5942C184.433 95.7352 184.576 93.8791 184.698 92.0084C184.759 91.0832 184.8 90.1581 184.873 89.2359C184.911 88.7748 184.958 88.3166 184.964 87.8555C184.967 87.3448 185.124 86.8632 185.127 86.3554C185.133 86.1686 184.841 86.1686 184.838 86.3554Z" fill="black"/>
<path d="M181.605 120.028C182.043 120.005 182.772 120.589 182.796 121.099C184.305 120.297 185.764 119.617 185.764 119.617C186.032 120.711 186.172 121.47 185.376 121.683C184.179 122.004 180.438 122.509 179.539 122.631C178.64 122.754 176.597 122.9 178.08 122.194C179.562 121.487 180.391 121.318 180.802 120.953C181.217 120.586 181.605 120.028 181.605 120.028Z" fill="#F77E56"/>
<path d="M194.624 118.922C194.957 118.636 195.891 118.66 196.221 119.051C196.933 117.498 197.68 116.071 197.68 116.071C198.555 116.777 199.127 117.297 198.625 117.951C197.867 118.931 196.273 121.4 195.471 121.826C193.451 122.897 191.397 122.699 192.844 121.922C194.207 121.193 194.44 120.685 194.548 120.142C194.654 119.605 194.624 118.922 194.624 118.922Z" fill="#F77E56"/>
<path d="M181.319 108.334C181.999 108.48 185.489 108.328 186.245 107.987C186.368 108.401 186.362 109.35 186.336 109.519C186.312 109.688 182.944 110.103 181.605 109.98C181.313 109.933 181.319 108.334 181.319 108.334Z" fill="#4C8491"/>
<path d="M191.665 106.804C192.359 106.767 195.403 105.815 196.042 105.29C196.267 105.658 196.509 106.548 196.53 106.72C196.55 106.889 193.579 108.1 192.254 108.334C191.962 108.36 191.665 106.804 191.665 106.804Z" fill="#4C8491"/>
<path d="M182.355 73.5998C182.285 73.7487 182.227 73.9413 182.367 74.0668C182.478 74.166 182.618 74.1164 182.691 74.0026C182.822 73.7924 182.685 73.4306 182.405 73.5969C182.244 73.6932 182.39 73.9442 182.551 73.8479C182.624 73.8041 182.457 73.8391 182.451 73.7778C182.454 73.807 182.451 73.8158 182.443 73.845C182.44 73.8508 182.431 73.8596 182.451 73.845C182.492 73.8596 182.533 73.8596 182.571 73.845C182.577 73.8129 182.589 73.7778 182.603 73.7487C182.688 73.5765 182.434 73.4306 182.355 73.5998Z" fill="black"/>
<path d="M180.151 74.6556C179.901 75.3385 179.793 76.0506 179.629 76.7569C179.55 77.0954 179.428 77.539 179.197 77.8016C179.159 77.8454 178.809 78.2423 178.859 78.2657C178.686 78.1927 178.538 78.4437 178.713 78.5167C178.996 78.6363 179.361 78.1431 179.471 77.93C180 76.9203 180.046 75.7938 180.435 74.7344C180.499 74.5564 180.216 74.4805 180.151 74.6556Z" fill="black"/>
<path d="M184.985 118.423C184.979 118.788 184.874 119.117 184.713 119.444C184.632 119.614 184.883 119.759 184.964 119.59C185.148 119.217 185.268 118.84 185.277 118.423C185.282 118.233 184.991 118.233 184.985 118.423Z" fill="black"/>
<path d="M196.702 115.65C196.804 115.898 196.84 116.149 196.842 116.415C196.845 116.601 197.137 116.604 197.134 116.415C197.131 116.126 197.093 115.843 196.983 115.574C196.912 115.402 196.629 115.478 196.702 115.65Z" fill="black"/>
<path d="M180.642 121.298C180.875 121.377 181.042 121.59 181.275 121.677C181.462 121.747 181.736 121.698 181.859 121.534C181.976 121.377 181.911 121.19 181.797 121.053C181.628 120.851 181.336 120.799 181.118 120.667C180.957 120.571 180.808 120.822 180.972 120.918C181.036 120.956 181.765 121.26 181.614 121.374C181.465 121.487 181.266 121.362 181.144 121.274C181.007 121.175 180.884 121.073 180.721 121.018C180.54 120.956 180.464 121.239 180.642 121.298Z" fill="black"/>
<path d="M194.58 119.823C194.892 119.675 195.269 119.829 195.602 119.806C195.552 119.756 195.505 119.71 195.456 119.66C195.473 119.806 195.397 119.949 195.383 120.098C195.432 120.048 195.479 120.001 195.529 119.952C195.19 119.993 194.863 120.06 194.542 120.177C194.589 120.258 194.636 120.34 194.685 120.422C194.676 120.425 194.665 120.425 194.656 120.428C194.84 120.404 194.843 120.112 194.656 120.136C194.577 120.144 194.539 120.162 194.481 120.214C194.373 120.308 194.487 120.506 194.624 120.46C194.919 120.352 195.222 120.285 195.534 120.247C195.619 120.235 195.672 120.188 195.68 120.101C195.695 119.946 195.771 119.82 195.753 119.663C195.745 119.587 195.692 119.511 195.607 119.517C195.205 119.543 194.822 119.389 194.44 119.572C194.265 119.654 194.411 119.905 194.58 119.823Z" fill="black"/>
<path d="M189.972 85.6806C189.885 86.2964 189.972 86.9676 189.794 87.563C189.739 87.7439 190.022 87.8198 190.074 87.6418C190.255 87.0406 190.168 86.3781 190.252 85.7594C190.279 85.5756 189.999 85.4938 189.972 85.6806Z" fill="black"/>
<path d="M115.906 47.3956C116.271 48.3441 116.708 49.9872 116.708 49.9872L119.519 49.4385L119.081 46.9199L115.906 47.3956Z" fill="#20BFAD"/>
<path d="M123.859 47.6145C123.821 47.7254 123.64 51.8462 123.64 51.8462L126.304 50.7868L127.364 47.6116H123.859V47.6145Z" fill="#20BFAD"/>
<path d="M114.117 48.5019C115.576 48.4523 119.466 47.4308 119.466 47.4308C118.932 45.1924 115.381 33.6647 115.235 33.1802C117.327 32.6928 121.851 32.9847 121.851 32.9847C121.217 35.2698 121.655 47.139 121.317 48.5019C123.409 48.5515 127.495 48.3559 127.495 48.3559C128.37 45.6798 129.488 35.8564 130.851 34.2513C132.214 32.6461 135.909 32.8884 135.909 32.8884C136.443 28.9981 136.346 24.7664 136.346 24.7664C136.346 24.7664 126.182 24.1827 123.117 24.0864C120.053 23.9901 111.347 25.2538 108.525 27.3463C105.703 29.4388 107.358 33.6705 109.596 38.194C111.835 42.7176 114.117 48.5019 114.117 48.5019Z" fill="#F77E56"/>
<path d="M114.335 29.7044C115.176 30.7638 116.343 32.7337 116.708 33.8281C117.073 34.9225 118.021 38.0248 118.424 37.7679C118.608 39.446 118.973 39.1542 119.081 39.0812C119.519 39.411 119.921 39.2768 119.883 38.194C119.991 37.514 120.371 36.7348 120.271 35.5179C120.175 34.3009 118.059 28.8289 116.6 26.9319C115.722 27.3696 114.335 29.7044 114.335 29.7044Z" fill="#F7CFB2"/>
<path d="M136.005 29.8008C136.005 31.1871 135.859 32.9877 135.859 33.2533C135.859 33.5189 138.827 33.837 140.041 34.0792C141.258 34.3214 141.988 33.7874 140.091 33.3263C143.105 33.157 143.739 33.1803 143.739 33.0344C143.739 32.8885 142.668 32.4274 140.916 32.4274C139.165 32.4274 139.457 31.867 139.457 29.7279C139.457 27.5887 136.005 29.8008 136.005 29.8008Z" fill="#F7CFB2"/>
<path d="M113.875 29.4855C113.875 29.4855 116.939 27.393 117.281 27.3463C116.601 25.5456 115.042 23.6019 115.092 23.065C115.141 22.5309 118.643 17.3741 119.323 16.7904C120.686 20.488 122 23.6486 123.701 24.0864C126.669 24.1827 133.916 25.7878 135.763 24.7197C135.763 27.6381 135.812 30.361 135.812 30.361L139.948 29.8736C139.948 29.8736 140.289 19.7088 140.044 15.5238C139.802 11.3417 138.731 2.73238 127.545 4.67605C121.466 5.98933 115.675 7.64407 112.564 14.2105C109.45 20.7769 108.429 23.2576 109.696 24.5212C110.956 25.7878 113.875 29.4855 113.875 29.4855Z" fill="#20BFAD"/>
<path d="M123.64 12.9585C123.634 13.3525 123.497 14.0675 123.961 14.2572C124.179 14.3477 124.419 14.0734 124.55 13.945C124.83 13.6706 125.07 13.37 125.312 13.0607C125.426 12.9148 125.221 12.7076 125.105 12.8535C124.81 13.23 124.498 13.6736 124.101 13.9508C123.891 14.0996 123.928 13.0811 123.931 12.9556C123.934 12.7718 123.642 12.7718 123.64 12.9585Z" fill="black"/>
<path d="M126.628 12.4651C127.033 12.7248 127.343 13.0955 127.76 13.3406C127.819 13.3756 127.889 13.364 127.938 13.3173C128.51 12.7657 128.919 12.1207 129.301 11.429C129.73 10.6498 130.159 9.89396 130.384 9.02719C130.614 8.14875 130.95 6.21093 129.66 5.99496C129.476 5.96286 129.397 6.24595 129.581 6.27513C130.539 6.43564 130.288 7.81313 130.191 8.48145C130.08 9.27234 129.753 9.97276 129.374 10.6644C129.012 11.3298 128.671 11.9981 128.204 12.5964C127.915 12.97 127.827 13.0838 127.43 12.7394C127.214 12.5497 127.016 12.3629 126.774 12.2083C126.616 12.112 126.47 12.3629 126.628 12.4651Z" fill="black"/>
<path d="M117.085 5.8457C117.085 7.9849 118.01 9.93148 119.516 10.9529C121.022 11.9744 121.655 13.0921 123.747 13.0921C125.84 13.0921 128.513 10.8537 128.513 8.03451C129.972 7.74267 130.46 4.87387 128.951 5.06648C127.734 1.75992 124.962 -1.25771 120.099 0.639254C117.181 2.3903 116.986 4.04504 117.085 5.8457Z" fill="#F7C9A8"/>
<path d="M117.073 7.01364C118.167 8.47285 121.926 8.47285 123.274 6.9757C124.623 5.47855 125.501 5.29761 125.866 5.91632C126.231 6.53502 126.619 7.63234 127.422 7.9592C127.567 8.03217 128.005 7.37552 128.005 7.37552C127.529 6.3891 128.358 5.09041 128.954 5.06414C128.017 2.04942 126.304 -0.688048 121.342 0.152454C116.416 1.0309 116.635 5.44353 117.073 7.01364Z" fill="black"/>
<path d="M119.688 10.5684C119.944 10.4167 120.251 10.4108 120.528 10.3145C120.706 10.2532 120.63 9.97306 120.449 10.0343C120.146 10.1365 119.822 10.1511 119.539 10.3174C119.378 10.4108 119.524 10.6647 119.688 10.5684Z" fill="black"/>
<path d="M123.336 9.66606C123.713 9.49679 124.115 9.40048 124.527 9.39465C124.714 9.39173 124.717 9.09989 124.527 9.1028C124.06 9.11156 123.613 9.22246 123.187 9.41507C123.015 9.49387 123.164 9.74485 123.336 9.66606Z" fill="black"/>
<path d="M122.148 10.5046C122.364 11.0533 122.469 11.6369 122.723 12.1681C122.764 12.2556 122.89 12.2586 122.954 12.1973C123.213 11.9434 123.354 11.6136 123.511 11.2926C123.593 11.1233 123.342 10.9774 123.26 11.1466C123.114 11.4443 122.989 11.7566 122.749 11.993C122.825 12.0017 122.901 12.0134 122.98 12.0222C122.738 11.5144 122.641 10.9511 122.434 10.4287C122.361 10.2536 122.078 10.3295 122.148 10.5046Z" fill="black"/>
<path d="M121.322 11.2386C121.278 11.1948 121.234 11.1481 121.199 11.0985C121.182 11.1656 121.164 11.2327 121.147 11.297C121.179 11.2824 121.316 11.3757 121.316 11.3903C121.366 11.3407 121.412 11.294 121.462 11.2444C121.348 11.2532 121.258 11.1627 121.199 11.0722C121.191 11.1306 121.185 11.189 121.176 11.2503C121.161 11.2648 121.147 11.2473 121.194 11.2619C121.214 11.2678 121.243 11.2853 121.255 11.3028C121.345 11.259 121.369 11.2182 121.319 11.1861C121.304 11.1744 121.293 11.1598 121.281 11.1423C121.269 11.1277 121.243 11.0927 121.24 11.0752C121.191 11.1248 121.144 11.1715 121.094 11.2211C121.126 11.2182 121.141 11.2269 121.167 11.2444C121.182 11.2532 121.194 11.2619 121.205 11.2736C121.258 11.3232 121.132 11.2386 121.261 11.1948C121.226 11.2065 121.156 11.1364 121.135 11.1102C121.094 11.0547 121.048 11.1831 121.097 11.1948C121.138 11.2065 121.176 11.2444 121.205 11.2736C121.217 11.2853 121.229 11.2999 121.234 11.3145C121.246 11.3524 121.261 11.332 121.287 11.2503C121.246 11.2444 121.211 11.2036 121.196 11.1685C121.118 10.9964 120.867 11.1452 120.946 11.3145C121.007 11.4458 121.164 11.5509 121.31 11.5392C121.471 11.5246 121.564 11.3728 121.515 11.224C121.471 11.0868 121.334 10.973 121.202 10.9234C121.089 10.8796 120.87 10.903 120.843 11.0576C120.803 11.3145 121.126 11.5479 121.363 11.4662C121.728 11.3436 121.348 10.9088 121.094 10.9263C121.021 10.9322 120.94 10.9905 120.948 11.0722C120.972 11.297 121.342 11.7084 121.52 11.3728C121.672 11.0868 121.164 10.8475 120.966 11.0431C120.922 11.0868 120.908 11.1656 120.943 11.2211C121.056 11.3933 121.24 11.5509 121.459 11.5363C121.532 11.5304 121.617 11.4721 121.605 11.3903C121.573 11.1248 121.24 10.9351 120.995 11.046C120.928 11.0781 120.899 11.1861 120.943 11.2444C120.992 11.3174 121.051 11.3816 121.112 11.4429C121.249 11.5771 121.453 11.3699 121.322 11.2386Z" fill="black"/>
<path d="M124.483 10.387C124.439 10.3432 124.396 10.2966 124.361 10.2469C124.343 10.3141 124.326 10.3812 124.308 10.4454C124.34 10.4308 124.477 10.5242 124.477 10.5388C124.527 10.4892 124.574 10.4425 124.623 10.3929C124.509 10.4016 124.419 10.3111 124.361 10.2207C124.352 10.279 124.346 10.3374 124.337 10.3987C124.323 10.4133 124.308 10.3958 124.355 10.4104C124.375 10.4162 124.404 10.4337 124.416 10.4512C124.506 10.4075 124.53 10.3666 124.48 10.3345C124.466 10.3228 124.454 10.3082 124.442 10.2907C124.431 10.2761 124.404 10.2411 124.401 10.2236C124.352 10.2732 124.305 10.3199 124.255 10.3695C124.288 10.3666 124.302 10.3753 124.328 10.3929C124.343 10.4016 124.355 10.4104 124.366 10.422C124.419 10.4717 124.293 10.387 124.422 10.3432C124.387 10.3549 124.317 10.2849 124.296 10.2586C124.255 10.2032 124.209 10.3316 124.258 10.3432C124.299 10.3549 124.337 10.3929 124.366 10.422C124.378 10.4337 124.39 10.4483 124.396 10.4629C124.407 10.5008 124.422 10.4804 124.448 10.3987C124.407 10.3929 124.372 10.352 124.358 10.317C124.279 10.1477 124.028 10.2936 124.107 10.4629C124.168 10.5942 124.326 10.6993 124.471 10.6876C124.632 10.673 124.725 10.5213 124.676 10.3724C124.632 10.2353 124.495 10.1214 124.363 10.0718C124.25 10.0281 124.031 10.0514 124.004 10.2061C123.964 10.4629 124.288 10.6964 124.524 10.6147C124.889 10.4921 124.509 10.0572 124.255 10.0748C124.183 10.0806 124.101 10.139 124.11 10.2207C124.133 10.4454 124.504 10.8569 124.682 10.5213C124.833 10.2353 124.326 9.99595 124.127 10.1915C124.083 10.2353 124.069 10.3141 124.104 10.3695C124.218 10.5417 124.401 10.6993 124.62 10.6847C124.693 10.6789 124.778 10.6205 124.766 10.5388C124.734 10.2732 124.401 10.0835 124.156 10.1944C124.089 10.2265 124.06 10.3345 124.104 10.3929C124.153 10.4658 124.212 10.53 124.273 10.5913C124.41 10.7285 124.617 10.5213 124.483 10.387Z" fill="black"/>
<path d="M125.207 14.3446C125.297 15.1588 125.633 15.8213 125.971 16.5509C126.441 17.5606 126.891 18.5792 127.372 19.586C128.122 21.1532 128.805 23.094 130.238 24.1738C130.39 24.2876 130.533 24.0337 130.384 23.9228C129.012 22.8926 128.347 20.9372 127.623 19.4401C127.255 18.6813 126.899 17.9138 126.552 17.1433C126.143 16.2386 125.606 15.3456 125.496 14.3446C125.478 14.1607 125.186 14.1578 125.207 14.3446Z" fill="black"/>
<path d="M118.842 15.7318C119.043 16.044 119.125 16.4672 119.239 16.8203C119.355 17.1881 119.466 17.5558 119.592 17.9206C119.653 18.0986 119.936 18.0198 119.872 17.8418C119.726 17.4245 119.6 17.0042 119.466 16.584C119.358 16.2483 119.282 15.8806 119.09 15.5829C118.993 15.4283 118.74 15.5742 118.842 15.7318Z" fill="black"/>
<path d="M134.511 13.6152C134.546 15.9324 134.861 18.2292 135.38 20.4822C135.929 22.8549 135.448 25.2772 135.9 27.6615C135.935 27.8454 136.215 27.7666 136.18 27.5827C135.745 25.2888 136.212 22.957 135.719 20.6719C135.214 18.3372 134.835 16.0112 134.797 13.6152C134.8 13.4284 134.508 13.4284 134.511 13.6152Z" fill="black"/>
<path d="M121.845 33.4631C122.108 31.8317 122.464 30.425 123.961 29.4999C125.382 28.6214 127.13 28.5222 128.744 28.3529C128.928 28.3325 128.931 28.0407 128.744 28.0611C126.967 28.2479 125.186 28.3996 123.628 29.3627C122.169 30.2616 121.819 31.8025 121.562 33.3872C121.536 33.5681 121.816 33.6469 121.845 33.4631Z" fill="black"/>
<path d="M117.251 34.5925C117.908 35.4446 118.217 36.6762 118.325 37.7298C118.346 37.9136 118.637 37.9165 118.617 37.7298C118.503 36.6324 118.191 35.3396 117.502 34.4465C117.388 34.2977 117.134 34.4436 117.251 34.5925Z" fill="black"/>
<path d="M118.354 34.9954C118.646 36.3437 118.982 37.6774 119.005 39.0666C119.008 39.2358 119.241 39.2592 119.291 39.1045C119.3 39.0811 119.306 39.0549 119.314 39.0315C119.373 38.8535 119.092 38.7776 119.034 38.9527C119.025 38.9761 119.02 39.0023 119.011 39.0257C119.107 39.0374 119.203 39.052 119.297 39.0636C119.273 37.6511 118.932 36.2882 118.634 34.9136C118.596 34.7327 118.313 34.8115 118.354 34.9954Z" fill="black"/>
<path d="M119.107 34.8C119.276 35.5617 119.527 36.2358 119.612 37.0238C119.673 37.5958 119.883 38.3663 119.737 38.9295C119.691 39.1134 119.971 39.1892 120.018 39.0083C120.175 38.3896 119.948 37.6542 119.901 37.0238C119.84 36.2066 119.559 35.5121 119.384 34.7241C119.349 34.5402 119.066 34.6161 119.107 34.8Z" fill="black"/>
<path d="M119.691 33.8781C119.81 34.3743 120 34.8295 120.09 35.3373C120.193 35.9035 120.196 36.4755 120.196 37.0504C120.196 37.2372 120.487 37.2372 120.487 37.0504C120.487 36.528 120.496 35.9969 120.409 35.4803C120.309 34.8966 120.108 34.3713 119.971 33.8022C119.93 33.6155 119.647 33.6943 119.691 33.8781Z" fill="black"/>
<path d="M113.437 29.2894C113.778 28.3905 115.698 27.0276 117.645 26.5898C118.179 27.3924 118.57 27.8535 118.763 27.9031C116.55 28.9479 114.773 29.9694 114.216 30.4567C114.117 30.4801 113.437 29.2894 113.437 29.2894Z" fill="#0FA896"/>
<path d="M135.567 29.593C136.554 29.593 139.618 29.4471 140.712 29.0823C140.858 29.485 140.75 30.4685 140.674 30.6144C140.598 30.7604 137.318 31.417 135.494 31.1631C135.494 30.7983 135.567 29.593 135.567 29.593Z" fill="#0FA896"/>
<path d="M123.625 49.6221C122.823 49.695 122.799 49.9139 122.773 51.0813C122.75 52.2487 121.801 53.5619 120.389 54.9978C118.979 56.4337 120.243 56.5533 121.725 55.4852C123.208 54.4141 125.251 52.4208 125.251 52.4208C125.251 52.4208 125.228 53.0045 125.373 52.9812C125.519 52.9578 126.76 52.0327 126.906 51.7409C127.052 51.449 127.124 50.0628 127.028 49.625C126.932 49.1872 125.764 49.8205 124.548 50.6465C124.136 49.8147 123.99 49.6221 123.625 49.6221Z" fill="#1F444D"/>
<path d="M116.846 48.4904C116.049 48.3766 115.973 48.5838 115.681 49.7162C115.389 50.8456 114.164 51.9079 112.462 52.9789C110.761 54.05 111.963 54.4615 113.653 53.7582C115.343 53.0577 117.788 51.5869 117.788 51.5869C117.788 51.5869 117.631 52.1501 117.779 52.1589C117.925 52.1676 119.347 51.5548 119.557 51.3038C119.767 51.0528 119.732 49.6082 119.738 49.1617C119.744 48.7122 118.885 49.1733 117.511 49.6987C117.298 48.7969 117.202 48.5721 116.846 48.4904Z" fill="#1F444D"/>
<path d="M128.893 16.0607C129.555 16.0841 130.2 16.0257 130.851 15.8944C131.467 15.7689 131.995 15.3924 132.617 15.2903C132.803 15.2611 132.725 14.978 132.538 15.0101C131.998 15.0977 131.516 15.3807 131.006 15.5588C130.349 15.7864 129.579 15.7952 128.893 15.7718C128.703 15.7601 128.703 16.052 128.893 16.0607Z" fill="black"/>
<path d="M128.75 15.9884C128.823 16.5079 129.051 17.0069 129.249 17.4884C129.43 17.9291 129.611 18.3698 129.894 18.7579C130.005 18.9068 130.259 18.7638 130.145 18.612C129.844 18.2005 129.66 17.7307 129.468 17.2608C129.29 16.826 129.094 16.3765 129.03 15.9096C129.007 15.7257 128.727 15.8045 128.75 15.9884Z" fill="black"/>
<path d="M129.876 18.8124C130.332 19.11 130.775 19.291 131.303 19.4077C131.633 19.4807 132.083 19.6149 132.395 19.434C132.558 19.3406 132.409 19.0867 132.249 19.183C131.972 19.3435 131.478 19.1509 131.19 19.0867C130.761 18.9933 130.39 18.8007 130.025 18.5643C129.865 18.4563 129.719 18.7102 129.876 18.8124Z" fill="black"/>
<path d="M132.471 15.2228C132.582 15.7276 132.76 16.2004 132.984 16.6644C133.168 17.0409 133.46 17.5604 133.53 17.9836C133.603 17.9281 133.673 17.8727 133.746 17.8201C133.734 17.8114 133.72 17.8026 133.708 17.7939C133.554 17.6859 133.408 17.9398 133.562 18.0449C133.574 18.0536 133.589 18.0624 133.6 18.0711C133.717 18.1528 133.834 18.0186 133.813 17.9077C133.758 17.5721 133.542 17.1839 133.408 16.8717C133.16 16.2967 132.891 15.7627 132.754 15.144C132.713 14.9601 132.433 15.0389 132.471 15.2228Z" fill="black"/>
<path d="M133.652 17.7366C133.395 18.1014 133.13 18.437 132.812 18.7522C132.73 18.8339 132.642 18.9127 132.555 18.9886C132.499 19.0382 132.319 19.2396 132.246 19.2338C132.059 19.2192 132.059 19.511 132.246 19.5256C132.473 19.5431 132.762 19.1987 132.908 19.0616C133.293 18.7084 133.603 18.3115 133.903 17.8855C134.014 17.7308 133.76 17.5849 133.652 17.7366Z" fill="black"/>
<path d="M129.401 16.7316C129.838 17.0584 130.34 17.4582 130.904 17.5312C131.268 17.5779 131.499 17.397 131.762 17.1576C131.966 16.9709 132.827 16.1012 132.357 15.8239C132.193 15.7276 132.048 15.9815 132.211 16.0749C132.299 16.1274 131.554 16.9534 131.476 17.0234C130.871 17.575 130.066 16.8658 129.549 16.4777C129.398 16.3668 129.252 16.6207 129.401 16.7316Z" fill="black"/>
<path d="M124.296 24.2674C125.142 24.2879 125.96 24.4747 126.788 24.6264C127.641 24.784 128.507 24.8511 129.362 24.9912C130.183 25.1255 131.011 25.2889 131.805 25.537C132.365 25.7121 132.905 25.8872 133.495 25.7938C133.682 25.7646 133.603 25.4844 133.416 25.5136C132.689 25.6303 131.96 25.2568 131.268 25.0846C130.492 24.8891 129.707 24.749 128.916 24.6264C128.151 24.5068 127.378 24.4426 126.616 24.2996C125.843 24.1565 125.087 23.9931 124.296 23.9756C124.106 23.9727 124.106 24.2645 124.296 24.2674Z" fill="black"/>
<path d="M129.147 24.9241C129.576 24.9387 129.964 25.1226 130.387 25.1751C130.904 25.2364 131.432 25.2422 131.954 25.2627C132.442 25.2802 132.932 25.1926 133.419 25.1693C133.816 25.1518 134.196 25.1751 134.587 25.1021C134.771 25.0671 134.692 24.787 134.508 24.822C133.705 24.9708 132.772 24.9591 131.954 24.9737C131.52 24.9825 131.079 24.9329 130.644 24.9066C130.128 24.8745 129.661 24.6527 129.147 24.6352C128.96 24.6264 128.96 24.9183 129.147 24.9241Z" fill="black"/>
<path d="M124.433 33.1418C124.127 35.4182 124.001 37.7179 123.844 40.0059C123.689 42.2297 123.406 44.4769 123.359 46.7037C123.356 46.8934 123.648 46.8904 123.651 46.7037C123.698 44.5732 123.966 42.4194 124.115 40.2919C124.279 37.9338 124.401 35.5641 124.716 33.2206C124.74 33.0367 124.46 32.955 124.433 33.1418Z" fill="black"/>
<path d="M114.755 31.3707C114.91 32.1061 115.138 32.824 115.29 33.5595C115.327 33.7433 115.611 33.6645 115.57 33.4807C115.415 32.7452 115.187 32.0273 115.036 31.2919C114.998 31.1109 114.718 31.1868 114.755 31.3707Z" fill="black"/>
<path d="M109.467 35.2C110.416 37.2399 111.461 39.2332 112.4 41.279C112.882 42.3267 113.32 43.3949 113.708 44.4805C113.857 44.9008 113.991 45.321 114.169 45.7296C114.326 46.0915 114.574 46.4913 114.636 46.8911C114.697 46.8298 114.755 46.7715 114.814 46.7102C114.805 46.7073 114.796 46.7073 114.788 46.7043C114.604 46.6722 114.525 46.9553 114.709 46.9845C114.717 46.9874 114.726 46.9874 114.735 46.9903C114.852 47.0108 114.933 46.9261 114.916 46.8094C114.878 46.5584 114.741 46.3104 114.642 46.0798C114.408 45.5224 114.183 44.9737 113.985 44.3988C113.629 43.3686 113.206 42.3647 112.759 41.3724C111.805 39.2361 110.705 37.1699 109.715 35.0482C109.639 34.8819 109.388 35.0307 109.467 35.2Z" fill="black"/>
<path d="M113.638 29.1579C113.778 28.5771 114.689 28.1802 115.158 27.8738C115.844 27.4273 116.606 27.2288 117.33 26.8728C117.499 26.791 117.35 26.5371 117.184 26.6218C116.761 26.829 116.285 26.9165 115.87 27.1325C115.427 27.3631 115.012 27.6257 114.598 27.9C114.149 28.1977 113.498 28.5071 113.358 29.0791C113.311 29.2629 113.594 29.3417 113.638 29.1579Z" fill="black"/>
<path d="M115.065 23.1546C114.175 22.6322 113.215 22.317 112.182 22.2586C111.995 22.247 111.995 22.5388 112.182 22.5505C113.162 22.6059 114.073 22.9094 114.916 23.4056C115.082 23.5048 115.228 23.2509 115.065 23.1546Z" fill="black"/>
</g>
<defs>
<clipPath id="clip0_1849_3765">
<rect width="207" height="123.977" fill="white" transform="translate(0.5)"/>
</clipPath>
</defs>
</svg>
