<svg width="194" height="160" viewBox="0 0 194 160" fill="none" xmlns="http://www.w3.org/2000/svg">
<g id="Chart 2 1" clip-path="url(#clip0_3084_1016)">
<g id="presentation">
<g id="presentation-2">
<g id="Group">
<path id="Vector" d="M186.486 8.78839V7.80675L186.502 7.32752C186.587 4.26665 184.414 1.6966 181.584 1.48018C163.786 0.135249 30.2105 0.135249 12.412 1.48018C9.58265 1.69274 7.40947 4.26665 7.49439 7.32752L7.50597 7.80675V8.78839C5.03943 50.8444 5.02013 93.0667 7.45193 135.123C7.53299 136.526 7.69125 138.095 8.68713 138.999C9.48615 139.722 10.6094 139.814 11.6516 139.872C15.1989 140.07 178.79 140.07 182.341 139.872C183.383 139.814 184.506 139.722 185.305 138.999C186.305 138.095 186.459 136.526 186.54 135.123C188.972 93.0667 188.953 50.8406 186.483 8.78839H186.486Z" fill="#5C785A"/>
<path id="Vector_2" d="M187.046 8.63769C187.05 7.4744 187.143 6.30339 186.788 5.17875C186.324 3.72175 185.317 2.46571 183.954 1.76233C182.75 1.1401 181.387 1.13237 180.067 1.06281C177.751 0.939137 175.431 0.869573 173.112 0.803872C165.627 0.595177 158.142 0.498558 150.654 0.417399C140.668 0.305322 130.682 0.243485 120.697 0.204837C109.665 0.162325 98.6328 0.150732 87.601 0.166191C76.9628 0.18165 66.3246 0.224162 55.6903 0.305321C46.986 0.371022 38.2817 0.45991 29.5813 0.618364C24.2506 0.714982 18.9084 0.784548 13.5855 1.10532C11.5705 1.22513 9.71002 1.70049 8.34744 3.32754C7.35156 4.51788 6.91538 6.00967 6.9424 7.54783C6.97328 9.17488 6.8459 10.7942 6.75326 12.4174C6.21286 22.1604 5.8037 31.915 5.52578 41.6696C4.96994 61.2097 4.94292 80.7652 5.44086 100.305C5.69176 110.064 6.07004 119.814 6.58342 129.561C6.70694 131.892 6.68378 134.296 7.0196 136.603C7.26278 138.261 8.03478 139.567 9.7409 139.973C10.4743 140.147 11.2386 140.174 11.9913 140.186C15.3649 140.243 18.7424 140.232 22.1199 140.243C28.7861 140.267 35.4524 140.274 42.1186 140.286C50.931 140.298 59.7433 140.305 68.5519 140.309C78.418 140.313 88.2842 140.317 98.1542 140.317C108.001 140.317 117.844 140.317 127.691 140.309C136.368 140.305 145.049 140.298 153.727 140.282C160.092 140.274 166.461 140.263 172.826 140.24C175.844 140.228 178.871 140.271 181.889 140.178C183.599 140.124 185.529 139.853 186.432 138.203C187.374 136.479 187.162 134.083 187.266 132.186C187.397 129.809 187.521 127.432 187.637 125.055C188.115 115.188 188.459 105.314 188.671 95.4358C189.084 75.9536 188.976 56.456 188.343 36.9816C188.034 27.5246 187.602 18.0715 187.05 8.62609C187.031 8.28213 185.907 8.51015 185.931 8.92754C187.065 28.2976 187.687 47.6947 187.783 67.0957C187.88 86.4734 187.459 105.851 186.521 125.206C186.405 127.583 186.282 129.959 186.151 132.336C186.089 133.465 186.043 134.593 185.954 135.722C185.877 136.7 185.749 137.816 185.128 138.616C184.406 139.552 183.151 139.552 182.063 139.571C180.913 139.594 179.758 139.594 178.608 139.602C173.598 139.633 168.588 139.641 163.577 139.652C155.919 139.668 148.257 139.679 140.599 139.687C131.296 139.695 121.994 139.702 112.691 139.702C102.829 139.702 92.9702 139.702 83.1079 139.702C73.7822 139.702 64.4564 139.695 55.1306 139.687C47.345 139.679 39.5633 139.671 31.7776 139.656C26.6323 139.644 21.483 139.637 16.3376 139.606C15.087 139.598 13.8402 139.594 12.5896 139.575C12.2653 139.571 11.9411 139.563 11.6169 139.544C10.6326 139.478 9.6251 139.308 8.95732 138.504C8.332 137.751 8.16988 136.715 8.07724 135.768C7.85336 133.492 7.80318 131.188 7.68352 128.904C6.6722 109.53 6.18198 90.1256 6.209 70.7246C6.23602 51.3469 6.78414 31.973 7.8495 12.6261C7.93828 10.9797 8.09268 9.32948 8.06952 7.6831C8.04636 6.04832 8.33586 4.51015 9.45912 3.25025C10.6634 1.90146 12.2422 1.76619 13.8093 1.68117C16.0636 1.55749 18.3217 1.48793 20.5798 1.42609C27.8945 1.22126 35.213 1.12078 42.5316 1.03962C52.3013 0.927543 62.0671 0.865708 71.8367 0.823196C82.7181 0.776819 93.5994 0.765224 104.481 0.776818C115.03 0.788412 125.58 0.827061 136.133 0.900491C144.91 0.962326 153.688 1.04735 162.466 1.19421C168.109 1.29083 173.76 1.37199 179.399 1.65798C180.469 1.71208 181.638 1.68503 182.642 2.08696C184.19 2.70919 185.313 4.10822 185.741 5.70435C186.027 6.75556 185.934 7.84928 185.931 8.92368C185.931 9.25218 187.046 9.04735 187.05 8.62223L187.046 8.63769Z" fill="#5C785A"/>
</g>
</g>
<g id="presentation-3" opacity="0.77">
<g id="Group_2">
<path id="Vector_3" d="M186.486 8.78839V7.80675L186.502 7.32752C186.587 4.26665 184.414 1.6966 181.584 1.48018C163.786 0.135249 30.2105 0.135249 12.412 1.48018C9.58265 1.69274 7.40947 4.26665 7.49439 7.32752L7.50597 7.80675V8.78839C5.03943 50.8444 5.02013 93.0667 7.45193 135.123C7.53299 136.526 7.69125 138.095 8.68713 138.999C9.48615 139.722 10.6094 139.814 11.6516 139.872C15.1989 140.07 178.79 140.07 182.341 139.872C183.383 139.814 184.506 139.722 185.305 138.999C186.305 138.095 186.459 136.526 186.54 135.123C188.972 93.0667 188.953 50.8406 186.483 8.78839H186.486Z" fill="white"/>
<path id="Vector_4" d="M187.046 8.63769C187.05 7.4744 187.143 6.30339 186.788 5.17875C186.324 3.72175 185.317 2.46571 183.954 1.76233C182.75 1.1401 181.387 1.13237 180.067 1.06281C177.751 0.939137 175.431 0.869573 173.112 0.803872C165.627 0.595177 158.142 0.498558 150.654 0.417399C140.668 0.305322 130.682 0.243485 120.697 0.204837C109.665 0.162325 98.6328 0.150732 87.601 0.166191C76.9628 0.18165 66.3246 0.224162 55.6903 0.305321C46.986 0.371022 38.2817 0.45991 29.5813 0.618364C24.2506 0.714982 18.9084 0.784548 13.5855 1.10532C11.5705 1.22513 9.71002 1.70049 8.34744 3.32754C7.35156 4.51788 6.91538 6.00967 6.9424 7.54783C6.97328 9.17488 6.8459 10.7942 6.75326 12.4174C6.21286 22.1604 5.8037 31.915 5.52578 41.6696C4.96994 61.2097 4.94292 80.7652 5.44086 100.305C5.69176 110.064 6.07004 119.814 6.58342 129.561C6.70694 131.892 6.68378 134.296 7.0196 136.603C7.26278 138.261 8.03478 139.567 9.7409 139.973C10.4743 140.147 11.2386 140.174 11.9913 140.186C15.3649 140.243 18.7424 140.232 22.1199 140.243C28.7861 140.267 35.4524 140.274 42.1186 140.286C50.931 140.298 59.7433 140.305 68.5519 140.309C78.418 140.313 88.2842 140.317 98.1542 140.317C108.001 140.317 117.844 140.317 127.691 140.309C136.368 140.305 145.049 140.298 153.727 140.282C160.092 140.274 166.461 140.263 172.826 140.24C175.844 140.228 178.871 140.271 181.889 140.178C183.599 140.124 185.529 139.853 186.432 138.203C187.374 136.479 187.162 134.083 187.266 132.186C187.397 129.809 187.521 127.432 187.637 125.055C188.115 115.188 188.459 105.314 188.671 95.4358C189.084 75.9536 188.976 56.456 188.343 36.9816C188.034 27.5246 187.602 18.0715 187.05 8.62609C187.031 8.28213 185.907 8.51015 185.931 8.92754C187.065 28.2976 187.687 47.6947 187.783 67.0957C187.88 86.4734 187.459 105.851 186.521 125.206C186.405 127.583 186.282 129.959 186.151 132.336C186.089 133.465 186.043 134.593 185.954 135.722C185.877 136.7 185.749 137.816 185.128 138.616C184.406 139.552 183.151 139.552 182.063 139.571C180.913 139.594 179.758 139.594 178.608 139.602C173.598 139.633 168.588 139.641 163.577 139.652C155.919 139.668 148.257 139.679 140.599 139.687C131.296 139.695 121.994 139.702 112.691 139.702C102.829 139.702 92.9702 139.702 83.1079 139.702C73.7822 139.702 64.4564 139.695 55.1306 139.687C47.345 139.679 39.5633 139.671 31.7776 139.656C26.6323 139.644 21.483 139.637 16.3376 139.606C15.087 139.598 13.8402 139.594 12.5896 139.575C12.2653 139.571 11.9411 139.563 11.6169 139.544C10.6326 139.478 9.6251 139.308 8.95732 138.504C8.332 137.751 8.16988 136.715 8.07724 135.768C7.85336 133.492 7.80318 131.188 7.68352 128.904C6.6722 109.53 6.18198 90.1256 6.209 70.7246C6.23602 51.3469 6.78414 31.973 7.8495 12.6261C7.93828 10.9797 8.09268 9.32948 8.06952 7.6831C8.04636 6.04832 8.33586 4.51015 9.45912 3.25025C10.6634 1.90146 12.2422 1.76619 13.8093 1.68117C16.0636 1.55749 18.3217 1.48793 20.5798 1.42609C27.8945 1.22126 35.213 1.12078 42.5316 1.03962C52.3013 0.927543 62.0671 0.865708 71.8367 0.823196C82.7181 0.776819 93.5994 0.765224 104.481 0.776818C115.03 0.788412 125.58 0.827061 136.133 0.900491C144.91 0.962326 153.688 1.04735 162.466 1.19421C168.109 1.29083 173.76 1.37199 179.399 1.65798C180.469 1.71208 181.638 1.68503 182.642 2.08696C184.19 2.70919 185.313 4.10822 185.741 5.70435C186.027 6.75556 185.934 7.84928 185.931 8.92368C185.931 9.25218 187.046 9.04735 187.05 8.62223L187.046 8.63769Z" fill="white"/>
</g>
</g>
<path id="Vector_5" d="M22.8803 14.2879C22.7105 28.2898 22.722 42.2956 22.8224 56.3014C22.9228 70.2299 23.1042 84.1584 23.2817 98.0869C23.3782 105.928 23.4786 113.766 23.5751 121.608C23.5905 122.701 25.5051 122.844 25.4897 121.689C25.316 107.71 25.1345 93.7275 24.9686 79.7449C24.8026 65.8125 24.6713 51.8802 24.6636 37.9478C24.6636 30.0869 24.6984 22.2299 24.7949 14.3691C24.8064 13.2753 22.8957 13.1323 22.8803 14.2879Z" fill="#231F20"/>
<path id="Vector_6" d="M171.957 121.596C152.673 121.318 133.388 121.217 114.104 121.202C94.9196 121.186 75.7354 121.248 56.5512 121.302C45.7509 121.333 34.9545 121.364 24.1542 121.395C23.9457 121.395 23.1892 121.403 23.1853 121.735C23.1815 122.068 23.9689 122.102 24.1465 122.102C43.404 122.048 62.6577 121.986 81.9152 121.94C101.103 121.894 120.291 121.878 139.479 121.986C150.303 122.048 161.122 122.149 171.946 122.303C172.154 122.303 172.911 122.296 172.915 121.963C172.919 121.631 172.131 121.6 171.954 121.596H171.957Z" fill="#231F20"/>
<g id="Group_3" opacity="0.22">
<path id="Vector_7" d="M106.503 26.798C106.349 38.4116 106.38 50.0251 106.592 61.6348C106.804 73.1362 107.198 84.6338 107.777 96.1236C108.105 102.651 108.491 109.179 108.935 115.702C108.962 116.124 110.085 115.876 110.054 115.401C109.271 103.892 108.669 92.3671 108.248 80.8386C107.827 69.2715 107.592 57.6966 107.542 46.1217C107.515 39.6406 107.542 33.1555 107.627 26.6744C107.634 26.1604 106.507 26.3691 106.503 26.7903V26.798Z" fill="#231F20"/>
</g>
<g id="Group_4" opacity="0.22">
<path id="Vector_8" d="M85.2425 26.8212C85.0997 38.3652 85.1383 49.9091 85.3583 61.4531C85.5783 72.9855 85.9837 84.514 86.5742 96.0309C86.9023 102.493 87.2922 108.955 87.7361 115.409C87.7477 115.583 88.8748 115.393 88.8555 115.107C88.0642 103.602 87.4543 92.085 87.0259 80.5565C86.5974 69.028 86.3542 57.4918 86.2924 45.9555C86.2577 39.4744 86.2809 32.9971 86.3619 26.5159C86.3619 26.3691 85.2464 26.5121 85.2425 26.8174V26.8212Z" fill="#231F20"/>
</g>
<g id="Group_5" opacity="0.22">
<path id="Vector_9" d="M62.9742 26.7517C62.8429 38.2918 62.8892 49.8319 63.1247 61.3681C63.3563 72.8309 63.7693 84.2899 64.3599 95.7372C64.6957 102.199 65.0856 108.653 65.5333 115.107C65.5526 115.393 66.6759 115.177 66.6527 114.806C65.8537 103.304 65.2361 91.7913 64.7999 80.2705C64.3676 68.8116 64.1129 57.3449 64.0434 45.8783C64.0048 39.401 64.0202 32.9237 64.0936 26.4464C64.0936 26.1836 62.978 26.3652 62.9742 26.7478V26.7517Z" fill="#231F20"/>
</g>
<g id="Group_6" opacity="0.22">
<path id="Vector_10" d="M152.58 26.7092C152.437 38.2531 152.476 49.7971 152.696 61.341C152.916 72.8734 153.321 84.4019 153.912 95.9188C154.24 102.381 154.63 108.842 155.074 115.297C155.116 115.907 156.247 115.757 156.212 115.227C155.421 103.722 154.811 92.2048 154.383 80.6763C153.954 69.1478 153.711 57.6116 153.649 46.0753C153.615 39.5942 153.638 33.1169 153.719 26.6357C153.727 26.0251 152.588 26.1681 152.58 26.7053V26.7092Z" fill="#231F20"/>
</g>
<g id="Group_7" opacity="0.22">
<path id="Vector_11" d="M130.323 26.7517C130.192 38.2918 130.238 49.8319 130.474 61.3681C130.706 72.8309 131.119 84.2899 131.709 95.7372C132.045 102.199 132.435 108.653 132.883 115.107C132.894 115.273 134.021 115.088 134.002 114.806C133.203 103.304 132.585 91.7913 132.149 80.2705C131.717 68.8116 131.462 57.3449 131.393 45.8783C131.354 39.401 131.369 32.9237 131.443 26.4464C131.443 26.3072 130.327 26.4464 130.323 26.7478V26.7517Z" fill="#231F20"/>
</g>
<g id="Group_8" opacity="0.22">
<path id="Vector_12" d="M41.9256 26.5816C41.802 38.1179 41.8638 49.6541 42.107 61.1865C42.3463 72.6454 42.7709 84.1005 43.3731 95.5478C43.7127 101.975 44.1065 108.402 44.5542 114.821C44.589 115.293 45.7084 115.034 45.6736 114.52C44.8707 103.057 44.2454 91.5826 43.8015 80.0966C43.3615 68.6725 43.1029 57.2406 43.0218 45.8087C42.9755 39.3662 42.9871 32.9237 43.0565 26.4811C43.0643 25.9246 41.9333 26.1101 41.9256 26.5816Z" fill="#231F20"/>
</g>
<g id="Group_9" opacity="0.22">
<path id="Vector_13" d="M31.7429 40.8464C49.2519 41.2753 66.7647 41.5343 84.2814 41.627C101.941 41.7198 119.6 41.6464 137.256 41.4106C147.35 41.2753 157.444 41.086 167.534 40.8425C167.75 40.8386 168.171 40.8077 168.325 40.6299C168.429 40.514 168.541 40.3903 168.263 40.398C150.388 40.827 132.504 41.0898 114.621 41.1826C97.0657 41.2753 79.5065 41.2019 61.9513 40.9623C52.1237 40.827 42.2961 40.6415 32.4686 40.4019C32.2563 40.398 31.8278 40.4444 31.6773 40.6145C31.5653 40.742 31.4689 40.8386 31.7391 40.8464H31.7429Z" fill="#231F20"/>
</g>
<g id="Group_10" opacity="0.22">
<path id="Vector_14" d="M31.7815 60.1159C49.2519 60.6068 66.7261 60.9275 84.2003 61.086C101.949 61.2483 119.697 61.2367 137.445 61.0628C147.539 60.9623 157.633 60.8116 167.727 60.6068C168.352 60.5952 168.595 59.799 167.835 59.8145C149.955 60.1778 132.072 60.3749 114.189 60.4058C96.5909 60.4328 78.9893 60.2976 61.3954 59.9923C51.6528 59.8222 41.914 59.6019 32.1752 59.3275C31.9321 59.3198 31.5422 59.3971 31.4457 59.6638C31.3608 59.9034 31.5229 60.1082 31.7815 60.1159Z" fill="#231F20"/>
</g>
<g id="Group_11" opacity="0.22">
<path id="Vector_15" d="M31.4804 80.0502C48.9933 80.6106 66.5099 81.001 84.0266 81.2251C101.686 81.4493 119.349 81.5072 137.013 81.4029C147.107 81.3411 157.201 81.229 167.295 81.0628C167.522 81.0628 167.916 81.028 168.086 80.8502C168.202 80.7304 168.29 80.6029 168.02 80.6068C150.137 80.9005 132.253 81.0319 114.37 80.9932C96.8109 80.9546 79.2479 80.7498 61.6927 80.3787C51.8612 80.17 42.0337 79.9111 32.2061 79.5942C31.9822 79.5865 31.5808 79.6367 31.4148 79.8068C31.2913 79.9343 31.218 80.0425 31.4804 80.0502Z" fill="#231F20"/>
</g>
<g id="Group_12" opacity="0.22">
<path id="Vector_16" d="M31.4997 99.2502C49.0126 99.8724 66.5292 100.328 84.0536 100.614C101.717 100.904 119.38 101.028 137.044 100.985C147.138 100.962 157.235 100.885 167.329 100.754C167.542 100.754 167.978 100.684 168.067 100.444C168.155 100.205 167.993 100.1 167.762 100.104C149.878 100.332 131.991 100.398 114.104 100.294C96.5407 100.189 78.9777 99.9227 61.4225 99.4898C51.591 99.2464 41.7596 98.9488 31.9321 98.6009C31.4997 98.5855 30.747 99.2232 31.4997 99.2502Z" fill="#231F20"/>
</g>
<path id="Vector_17" d="M29.6469 116.703C33.4683 109.179 37.2897 101.65 41.1111 94.1256C42.2112 91.9613 43.3113 89.7932 44.4114 87.629C44.091 87.714 43.7668 87.8029 43.4464 87.8879C50.4176 92.4869 57.6782 96.6299 65.1782 100.305C65.4059 100.417 65.8228 100.294 65.9695 100.093C72.1494 91.5478 77.8197 82.6319 82.9149 73.399C84.3701 70.7594 85.779 68.0966 87.1416 65.4106C86.7942 65.4724 86.4429 65.5343 86.0955 65.5922C88.4617 69.055 92.1866 71.428 95.4715 73.9285C99.2234 76.7806 102.975 79.6367 106.727 82.4889C106.967 82.6705 107.457 82.57 107.627 82.3304C112.44 75.5285 117.149 68.6454 121.743 61.6927C124.051 58.199 126.332 54.686 128.583 51.1536C129.108 50.3304 129.594 49.3874 130.339 48.7381C131.034 48.1314 131.952 47.8995 132.817 47.6444C134.867 47.0376 136.912 46.4309 138.962 45.8241C143.61 44.4444 148.257 43.0686 152.904 41.6889C153.588 41.4879 153.391 40.7188 152.7 40.9236C148.523 42.1604 144.351 43.4009 140.174 44.6377C138.047 45.2676 135.92 45.8976 133.794 46.5314C132.076 47.0415 130.211 47.4048 128.996 48.8348C128.374 49.5652 127.899 50.4232 127.382 51.2309C126.819 52.112 126.255 52.9932 125.688 53.8744C124.533 55.6676 123.372 57.457 122.198 59.2425C119.813 62.8792 117.4 66.4966 114.953 70.0908C112.235 74.0869 109.479 78.056 106.689 81.998C106.99 81.9439 107.287 81.8937 107.588 81.8396C103.902 79.0338 100.215 76.2319 96.5291 73.4261C93.2404 70.9256 89.4846 68.5604 87.1184 65.0937C86.883 64.7497 86.2306 64.9623 86.0724 65.2753C81.3169 74.6434 76.0016 83.7256 70.1383 92.4405C68.4785 94.9101 66.7762 97.3449 65.0315 99.7565L65.8228 99.5439C58.3962 95.9072 51.2089 91.7913 44.3072 87.2348C44.0061 87.0377 43.5043 87.1768 43.3422 87.4937C39.5208 95.0183 35.6994 102.547 31.878 110.071C30.7779 112.236 29.6778 114.404 28.5777 116.568C28.292 117.132 29.423 117.136 29.6469 116.696V116.703Z" fill="#231F20"/>
<g id="Group_13">
<path id="Vector_18" d="M44.9903 84.9159C44.253 84.0155 42.7554 84.3053 41.8598 85.0512C41.2847 85.5343 40.8292 86.1758 40.6324 86.9024C40.2039 88.5101 41.2731 90.3536 42.8673 90.8251C44.4615 91.2966 46.3297 90.3768 46.9705 88.8386C47.6151 87.3043 46.9936 85.3604 45.6118 84.4329" fill="#5C785A"/>
<path id="Vector_19" d="M45.5115 84.7111C44.4886 83.5285 42.4003 84.1584 41.3813 85.028C40.1384 86.0869 39.5825 87.7372 40.3314 89.2522C41.0262 90.6512 42.4466 91.3584 43.9829 91.1961C45.4922 91.0338 47.0323 90.1024 47.5766 88.6338C48.1594 87.057 47.5071 85.171 46.1368 84.228C45.9361 84.0889 45.6157 84.17 45.4073 84.2512C45.3262 84.2821 44.8977 84.5063 45.0907 84.6415C46.1021 85.3372 46.6965 86.5352 46.6656 87.7642C46.6386 88.9468 45.9091 90.1024 44.7897 90.5275C43.7089 90.9372 42.5624 90.4348 41.8561 89.5807C41.0609 88.6183 40.864 87.2734 41.4469 86.1565C41.9873 85.1246 43.4502 83.9575 44.4616 85.1246C44.6777 85.3758 45.7431 84.9855 45.5076 84.7111H45.5115Z" fill="#5C785A"/>
</g>
<g id="Group_14">
<path id="Vector_20" d="M86.8212 63.1575C86.084 62.257 84.5863 62.5468 83.6908 63.2927C83.1156 63.7758 82.6601 64.4174 82.4633 65.1439C82.0348 66.7517 83.104 68.5952 84.6982 69.0667C86.2924 69.5381 88.1606 68.6183 88.8014 67.0802C89.446 65.5459 88.8246 63.6019 87.4427 62.6744" fill="#5C785A"/>
<path id="Vector_21" d="M87.3423 62.9411C86.3039 61.743 84.2427 62.3613 83.2082 63.2425C81.9653 64.3053 81.4133 65.9749 82.166 67.4899C82.8608 68.8928 84.2813 69.6193 85.8253 69.4647C87.3693 69.3101 88.8708 68.3517 89.4151 66.8831C90.0018 65.3063 89.3418 63.4048 87.9715 62.4618C87.7592 62.315 87.4581 62.3691 87.2342 62.4618C87.1454 62.5005 86.7247 62.744 86.9293 62.887C87.9367 63.5787 88.5505 64.7845 88.5041 66.0135C88.4578 67.1961 87.7437 68.313 86.6205 68.7343C85.5397 69.144 84.401 68.6686 83.6946 67.8106C82.9033 66.8522 82.6948 65.4956 83.3008 64.3903C83.8451 63.3971 85.3119 62.2222 86.3078 63.3739C86.5471 63.6483 87.6163 63.2541 87.35 62.9449L87.3423 62.9411Z" fill="#5C785A"/>
</g>
<g id="Group_15">
<path id="Vector_22" d="M131.918 45.2637C131.18 44.3632 129.683 44.6531 128.787 45.399C128.212 45.8821 127.757 46.5236 127.56 47.2502C127.131 48.8579 128.2 50.7014 129.795 51.1729C131.389 51.6444 133.257 50.7246 133.898 49.1864C134.542 47.6521 133.921 45.7082 132.539 44.7806" fill="#5C785A"/>
<path id="Vector_23" d="M132.443 45.0666C131.427 43.8918 129.328 44.5526 128.316 45.3951C127.066 46.4386 126.514 48.0927 127.262 49.6C127.953 50.9951 129.378 51.6947 130.902 51.513C132.404 51.3352 133.956 50.4464 134.504 48.9739C135.087 47.4009 134.438 45.5265 133.068 44.5836C132.879 44.4522 132.535 44.5526 132.342 44.6299C132.273 44.657 131.84 44.8579 132.018 44.9816C133.033 45.6811 133.62 46.8792 133.597 48.1121C133.574 49.2985 132.848 50.4618 131.728 50.9063C130.655 51.3314 129.482 50.7787 128.791 49.9401C127.992 48.9739 127.799 47.6174 128.378 46.5005C128.922 45.4493 130.362 44.2782 131.393 45.4686C131.589 45.6966 132.647 45.3063 132.443 45.0744V45.0666Z" fill="#5C785A"/>
</g>
<g id="Group_16">
<path id="Vector_24" d="M66.4289 97.0628C65.6916 96.1623 64.194 96.4522 63.2984 97.1981C62.7233 97.6811 62.2678 98.3227 62.0709 99.0493C61.6425 100.657 62.7117 102.5 64.3059 102.972C65.9001 103.443 67.7683 102.524 68.4091 100.985C69.0537 99.4512 68.4322 97.5072 67.0504 96.5797" fill="#5C785A"/>
<path id="Vector_25" d="M66.9499 96.858C65.9309 95.6831 63.8349 96.313 62.8197 97.1787C61.5807 98.2377 61.0171 99.8802 61.7698 101.395C62.4646 102.794 63.8851 103.498 65.4175 103.328C66.9229 103.161 68.4708 102.242 69.015 100.773C69.5979 99.1961 68.9455 97.314 67.5752 96.371C67.3784 96.2357 67.0503 96.3208 66.8457 96.4019C66.7685 96.4328 66.34 96.6493 66.5292 96.7768C67.5444 97.4725 68.1311 98.6705 68.1079 99.8995C68.0809 101.086 67.3552 102.242 66.232 102.674C65.155 103.092 63.997 102.57 63.2984 101.72C62.5032 100.754 62.3102 99.4087 62.8892 98.2879C63.4296 97.2483 64.8887 96.0811 65.9039 97.256C66.1162 97.4995 67.1777 97.1092 66.9499 96.8502V96.858Z" fill="#5C785A"/>
</g>
<g id="Group_17">
<path id="Vector_26" d="M108.271 79.5169C107.534 78.6164 106.036 78.9063 105.141 79.6522C104.566 80.1353 104.11 80.7768 103.913 81.5034C103.485 83.1111 104.554 84.9546 106.148 85.4261C107.742 85.8976 109.611 84.9778 110.251 83.4396C110.896 81.9053 110.275 79.9614 108.893 79.0338" fill="#5C785A"/>
<path id="Vector_27" d="M108.785 79.2734C107.696 78.0174 105.67 78.5932 104.6 79.5633C103.365 80.6802 102.879 82.3613 103.635 83.8879C104.326 85.2831 105.793 86.0947 107.345 85.9208C108.9 85.743 110.406 84.7227 110.896 83.1961C111.429 81.5536 110.738 79.6869 109.329 78.7169C108.939 78.4502 107.951 78.9913 108.46 79.3468C109.429 80.0154 110.004 81.2096 109.935 82.3884C109.869 83.5594 109.136 84.5952 108.024 84.9971C106.913 85.399 105.809 84.9894 105.098 84.1082C104.322 83.1459 104.153 81.8435 104.778 80.7575C105.295 79.8609 106.824 78.686 107.754 79.7604C108.074 80.1275 109.14 79.6908 108.781 79.2773L108.785 79.2734Z" fill="#5C785A"/>
</g>
<g id="Group_18">
<path id="Vector_28" d="M154.17 37.886C153.433 36.9855 151.936 37.2753 151.04 38.0212C150.465 38.5043 150.009 39.1459 149.813 39.8724C149.384 41.4802 150.453 43.3236 152.047 43.7951C153.642 44.2666 155.51 43.3468 156.151 41.8087C156.791 40.2705 156.174 38.3304 154.792 37.4029" fill="#5C785A"/>
<path id="Vector_29" d="M154.684 37.6386C153.603 36.3903 151.592 36.9121 150.515 37.8937C149.264 39.0415 148.774 40.7227 149.542 42.2802C150.229 43.6676 151.704 44.4908 153.248 44.313C154.792 44.1352 156.317 43.115 156.795 41.5884C157.316 39.9343 156.652 38.056 155.228 37.0744C154.811 36.7884 153.839 37.3642 154.367 37.7275C155.336 38.3922 155.904 39.5749 155.838 40.7497C155.772 41.9246 155.031 42.9449 153.923 43.343C152.847 43.7294 151.712 43.3546 151.001 42.4734C150.226 41.5111 150.063 40.2241 150.685 39.142C151.191 38.2647 152.746 37.0821 153.657 38.1372C153.997 38.5275 155.054 38.0753 154.68 37.6386H154.684Z" fill="#5C785A"/>
</g>
</g>
<g id="loop">
<g id="Group_19">
<path id="Vector_30" d="M163.284 62.9527C158.451 60.3015 152.619 59.6174 147.253 60.8657C141.888 62.114 137.013 65.2522 133.477 69.4841C130.69 72.8193 128.71 76.8309 127.757 81.0783C127.382 82.7517 127.162 84.4599 127.151 86.1759C127.124 89.3488 127.807 92.5217 129.119 95.4087C132.906 103.733 141.672 109.001 150.67 110.582C154.526 111.262 158.59 111.339 162.269 109.998C165.87 108.684 168.896 106.075 171.201 103.011C176.439 96.0425 179.473 86.9372 176.786 78.6435C176.412 77.4918 175.192 75.173 174.547 74.1449C173.513 72.4986 172.683 71.401 171.56 69.8126C169.993 67.6019 167.661 65.229 165.206 64.0773" fill="#5C785A"/>
<path id="Vector_31" d="M163.851 62.4889C158.945 59.8222 153.14 59.0068 147.666 60.0734C142.61 61.0589 137.897 63.6754 134.268 67.3198C130.435 71.1652 127.772 76.1314 126.691 81.457C125.552 87.0763 126.475 92.9391 129.447 97.8589C134.535 106.272 144.582 110.984 154.147 111.633C157.093 111.834 160.088 111.559 162.875 110.543C165.264 109.67 167.441 108.22 169.286 106.477C171.205 104.665 172.795 102.52 174.161 100.271C175.52 98.0328 176.632 95.6406 177.439 93.1478C178.241 90.6589 178.72 88.0502 178.743 85.4299C178.763 82.999 178.469 80.4212 177.566 78.1488C176.728 76.0502 175.566 74.0869 174.289 72.2319C172.718 69.9517 171.127 67.6522 169.031 65.8164C168.047 64.9546 166.966 64.1778 165.781 63.6096C165.388 63.4203 164.809 63.3043 164.442 63.6251C164.114 63.9072 164.291 64.3633 164.647 64.5372C166.947 65.6425 168.858 67.5246 170.375 69.5536C171.892 71.5826 173.27 73.484 174.424 75.6135C174.895 76.4831 175.362 77.3681 175.717 78.2918C176.142 79.3894 176.4 80.5681 176.586 81.7275C176.972 84.143 176.902 86.6087 176.489 89.0164C175.644 93.9478 173.393 98.5778 170.417 102.57C168.962 104.522 167.229 106.269 165.214 107.637C163.099 109.074 160.694 109.952 158.158 110.272C155.518 110.609 152.816 110.357 150.214 109.855C148.025 109.434 145.883 108.781 143.826 107.923C139.777 106.238 135.978 103.668 133.172 100.271C129.945 96.371 128.073 91.4164 128.112 86.3304C128.154 80.9314 130.096 75.5749 133.261 71.2348C136.125 67.3043 140.089 64.1894 144.625 62.427C149.284 60.6183 154.549 60.3942 159.312 61.9517C160.493 62.3382 161.632 62.829 162.724 63.4203C163.106 63.629 163.709 63.714 164.064 63.4048C164.419 63.0956 164.203 62.6821 163.859 62.4927L163.851 62.4889Z" fill="#5C785A"/>
</g>
<g id="Group_20">
<path id="Vector_32" d="M138.819 100.367C135.299 97.4493 132.983 93.1594 132.303 88.6377C131.62 84.1121 132.543 79.3894 134.716 75.3662C136.43 72.1932 138.912 69.4377 141.888 67.401C143.061 66.601 144.312 65.9053 145.624 65.372C148.06 64.3787 150.712 63.9343 153.337 64.0618C160.906 64.4328 167.642 69.5845 171.618 76.0425C173.32 78.8135 174.628 81.9208 174.721 85.1749C174.814 88.3556 173.733 91.4898 172.081 94.2106C168.321 100.386 162.242 105.519 155.031 105.986C154.028 106.052 151.87 105.82 150.882 105.635C149.295 105.341 148.199 105.036 146.632 104.657C144.447 104.124 141.907 103.049 140.271 101.511" fill="white"/>
<path id="Vector_33" d="M139.252 100.17C136.202 97.6193 134.168 93.9826 133.334 90.114C132.4 85.7662 133.056 81.1169 134.917 77.1015C136.692 73.2638 139.572 69.9401 143.123 67.656C146.914 65.2174 151.457 64.1546 155.919 64.9198C159.609 65.5498 162.971 67.3662 165.774 69.8203C168.777 72.4522 171.274 75.8725 172.745 79.5942C173.567 81.6734 174.007 83.8841 173.845 86.1256C173.683 88.3903 172.949 90.5778 171.896 92.5759C170.089 96.0039 167.453 99.1459 164.357 101.472C161.439 103.664 157.752 105.368 154.043 105.372C152.279 105.372 150.511 105.067 148.797 104.672C146.809 104.216 144.798 103.768 142.961 102.852C142.139 102.443 141.375 101.944 140.699 101.318C140.475 101.109 139.861 100.727 139.545 100.916C139.201 101.121 139.68 101.569 139.834 101.712C141.475 103.227 143.59 104.243 145.702 104.908C146.786 105.248 147.902 105.496 149.006 105.762C150.005 106.006 151.013 106.234 152.032 106.373C153.889 106.628 155.707 106.717 157.556 106.377C159.509 106.017 161.385 105.337 163.129 104.39C166.696 102.45 169.68 99.4937 171.965 96.1585C174.605 92.3092 176.219 87.7797 175.25 83.0918C174.358 78.7672 171.795 74.7517 168.819 71.5517C165.943 68.4599 162.369 65.9285 158.366 64.5411C154.116 63.0647 149.438 63.0338 145.219 64.6531C140.95 66.2918 137.252 69.5188 134.785 73.3449C132.28 77.229 130.976 81.9285 131.273 86.5507C131.551 90.8831 133.265 95.0493 136.094 98.3382C136.789 99.1459 137.561 99.8918 138.379 100.576C138.615 100.773 139.205 101.175 139.533 100.978C139.861 100.781 139.406 100.317 139.244 100.182L139.252 100.17Z" fill="#231F20"/>
</g>
<g id="Group_21">
<path id="Vector_34" d="M141.236 104.491C137.75 110.698 134.604 117.101 131.825 123.656C131.242 125.028 130.671 126.431 130.52 127.915C130.37 129.399 130.694 130.995 131.713 132.081C132.026 132.414 132.427 132.707 132.883 132.73C133.558 132.769 134.114 132.236 134.554 131.726C136.804 129.098 138.329 125.94 139.773 122.794C142.224 117.465 144.517 112.062 146.647 106.597" fill="#5C785A"/>
<path id="Vector_35" d="M140.271 104.487C138.152 108.263 136.16 112.104 134.299 116.012C133.361 117.979 132.458 119.961 131.59 121.959C130.721 123.957 129.768 125.824 129.559 127.907C129.401 129.503 129.799 131.571 131.254 132.502C131.636 132.746 132.072 132.8 132.516 132.823C133.068 132.854 133.697 132.877 134.238 132.711C135.029 132.468 135.577 131.691 136.067 131.069C138.611 127.838 140.24 123.965 141.907 120.24C143.922 115.741 145.829 111.192 147.62 106.597C147.647 106.531 146.725 106.489 146.655 106.489C146.516 106.489 145.756 106.423 145.69 106.589C144.181 110.454 142.594 114.292 140.927 118.091C139.356 121.673 137.835 125.357 135.778 128.692C135.272 129.511 134.728 130.303 134.133 131.061C133.867 131.397 133.601 131.741 133.296 132.043C133.134 132.205 132.956 132.359 132.759 132.475C132.701 132.51 132.539 132.56 132.504 132.599C132.798 132.599 133.087 132.599 133.381 132.595C133.311 132.564 133.242 132.529 133.18 132.491C131.729 131.633 131.343 129.523 131.481 127.988C131.663 125.99 132.585 124.116 133.373 122.303C134.18 120.444 135.013 118.597 135.878 116.765C137.839 112.599 139.954 108.506 142.205 104.491C142.228 104.448 141.313 104.383 141.24 104.383C141.074 104.383 140.375 104.305 140.275 104.483L140.271 104.487Z" fill="#5C785A"/>
</g>
<g id="Group_22">
<path id="Vector_36" d="M142.425 124.042C140.089 120.294 135.28 118.276 130.972 119.242C130.605 119.324 130.231 119.432 129.941 119.675C129.652 119.919 129.482 120.271 129.32 120.614C125.475 128.765 121.619 136.947 118.84 145.519C118.107 147.784 117.443 150.122 117.516 152.502C117.589 154.883 118.512 157.345 120.423 158.763C121.106 159.273 121.963 159.641 122.8 159.486C123.217 159.409 123.599 159.208 123.954 158.984C125.765 157.843 127.054 156.054 128.251 154.28C134.423 145.128 139.348 135.138 142.849 124.669" fill="#231F20"/>
<path id="Vector_37" d="M143.274 123.787C141.722 121.333 139.19 119.625 136.414 118.844C135.006 118.446 133.512 118.311 132.057 118.439C131.273 118.508 130.42 118.624 129.698 118.957C128.926 119.312 128.59 119.996 128.247 120.727C125.097 127.409 121.947 134.106 119.4 141.043C118.755 142.798 118.137 144.564 117.593 146.35C117.064 148.093 116.609 149.882 116.555 151.714C116.466 154.717 117.601 158.029 120.353 159.559C121.137 159.996 122.048 160.228 122.943 160.108C123.804 159.992 124.545 159.54 125.232 159.038C126.56 158.068 127.59 156.769 128.532 155.436C130.532 152.603 132.35 149.631 134.064 146.616C137.557 140.475 140.521 134.029 142.911 127.378C143.208 126.555 143.494 125.724 143.772 124.893C144.065 124.019 142.181 123.718 141.934 124.448C139.846 130.678 137.26 136.742 134.203 142.558C132.666 145.48 131.014 148.34 129.25 151.127C128.397 152.475 127.529 153.82 126.602 155.123C125.753 156.317 124.784 157.496 123.568 158.338C123.024 158.717 122.507 159.057 121.847 158.798C121.229 158.555 120.7 158.075 120.272 157.581C119.388 156.553 118.871 155.262 118.62 153.936C118.002 150.647 119.234 147.246 120.28 144.174C122.507 137.642 125.325 131.331 128.239 125.086C128.949 123.567 129.605 121.998 130.393 120.518C130.725 119.896 131.285 119.807 131.937 119.71C132.543 119.625 133.145 119.594 133.755 119.633C136.245 119.784 138.68 120.935 140.383 122.756C140.826 123.231 141.22 123.749 141.568 124.298C141.977 124.943 143.822 124.661 143.27 123.787H143.274Z" fill="#231F20"/>
</g>
<path id="Vector_38" d="M140.78 86.3381C142.251 82.3497 145.609 79.142 149.72 78.0174C154.07 76.8309 158.779 78.0174 162.28 80.8C164.264 82.3729 165.847 84.4251 166.808 86.7749L166.935 86.4425C164.199 89.2792 160.709 91.2154 156.784 91.7294C153.097 92.2125 149.291 91.6019 145.926 90.0174C143.996 89.1092 142.239 87.8802 140.742 86.3613C140.371 85.9864 138.858 87.1304 139.097 87.37C144.903 93.256 154.263 94.6203 161.636 91.0338C164.149 89.8125 166.391 88.1043 168.325 86.0985C168.395 86.0251 168.499 85.8782 168.452 85.7662C166.619 81.2792 162.477 77.8821 157.776 76.7884C152.796 75.6328 147.674 77.3333 143.818 80.5565C141.707 82.3188 140.058 84.5874 139.105 87.1691C138.985 87.4937 139.819 87.1691 139.877 87.1381C140.22 86.9681 140.637 86.7092 140.776 86.3343L140.78 86.3381Z" fill="#231F20"/>
<path id="Vector_39" d="M153.908 78.3536C150.974 77.8087 148.365 80.2357 148.087 83.0802C147.809 85.9246 149.249 89.6734 152.19 90.4309C155.039 91.1652 158.281 88.9894 159.277 86.3536C160.269 83.7372 159.574 80.2242 157.008 78.7517C155.425 77.8435 153.676 78.2222 152.256 79.2541C150.901 80.2396 149.5 81.457 148.709 82.9604C148.23 83.8686 149.755 84.5411 150.345 83.8725C151.661 82.3768 153.059 80.742 154.977 80.0309C154.603 79.5903 154.232 79.1498 153.858 78.713C152.866 79.7449 151.854 80.7652 150.882 81.8126C149.982 82.7826 149.222 83.8184 148.813 85.0899C148.693 85.4609 149.079 85.8551 149.384 85.9826C149.766 86.1411 150.218 86.0754 150.519 85.7932C152.642 83.8184 154.765 81.8435 156.888 79.8686C156.386 79.5053 155.88 79.142 155.379 78.7826C153.244 81.5729 151.109 84.3672 149.241 87.3469C148.674 88.2551 150.276 88.8386 150.878 88.2589C153.093 86.114 155.313 83.9691 157.529 81.8242C157.027 81.4609 156.521 81.0976 156.019 80.7382C155.054 82.0135 154.089 83.2928 153.121 84.5681C152.646 85.1942 152.171 85.8164 151.7 86.4464C151.21 87.0956 150.839 87.6831 151.14 88.5101C151.368 89.1362 152.36 89.2213 152.785 88.7845C154.707 86.8097 156.629 84.8348 158.552 82.856C158.007 82.5507 157.459 82.2493 156.915 81.944C155.637 83.8454 154.36 85.7469 153.086 87.6483C152.866 87.9729 153.097 88.429 153.371 88.6299C153.723 88.885 154.167 88.8734 154.545 88.6957C155.352 88.3169 155.985 87.6676 156.575 87.0184C157.085 86.458 157.61 85.7932 158.343 85.5227L157.096 84.3787C156.374 85.399 155.653 86.4193 154.931 87.4396C154.641 87.8454 155.058 88.3865 155.429 88.5411C155.911 88.742 156.401 88.5874 156.695 88.1739C157.417 87.1536 158.139 86.1333 158.86 85.113C159.057 84.8309 158.876 84.4058 158.66 84.2087C158.397 83.9691 157.961 83.8415 157.614 83.9691C156.695 84.3092 155.985 84.9237 155.328 85.6386C154.738 86.2802 154.19 86.9565 153.387 87.3314C153.873 87.6792 154.36 88.0309 154.846 88.3787C156.124 86.4773 157.401 84.5759 158.675 82.6744C158.926 82.3034 158.609 81.8126 158.281 81.6309C157.895 81.4184 157.363 81.4261 157.038 81.7623C155.116 83.7372 153.194 85.7121 151.272 87.6908L152.916 87.9652C152.897 87.9111 153.221 87.5092 153.263 87.4512C153.472 87.1768 153.68 86.9024 153.889 86.6242C154.286 86.0986 154.684 85.5729 155.081 85.0473C155.896 83.9729 156.71 82.8947 157.525 81.8203C158.239 80.8773 156.76 80.0116 156.016 80.7343C153.8 82.8792 151.58 85.0241 149.365 87.1691C149.909 87.4744 150.457 87.7758 151.001 88.0812C152.789 85.2213 154.834 82.543 156.88 79.8686C157.602 78.9217 156.124 78.0831 155.371 78.7826C153.248 80.7575 151.125 82.7324 149.002 84.7072L150.708 85.4106C151.052 84.3401 151.847 83.4705 152.603 82.6705C153.514 81.7082 154.441 80.7575 155.363 79.8029C156.035 79.1034 154.981 78.2106 154.244 78.485C152.001 79.3159 150.376 81.0319 148.832 82.7865C149.376 83.0918 149.924 83.3932 150.469 83.6986C151.013 82.6628 151.901 81.886 152.773 81.1324C153.479 80.5256 154.468 79.6715 155.475 79.8841C156.398 80.0812 157.038 81.0048 157.39 81.8164C157.807 82.7787 157.899 83.857 157.702 84.8812C157.316 86.8792 155.595 88.6222 153.549 88.8928C151.229 89.1981 150.144 86.1643 149.982 84.3169C149.882 83.1614 150.144 81.9324 150.932 81.0512C151.615 80.2821 152.588 79.7681 153.63 79.9613C154.078 80.0464 154.634 79.8029 154.715 79.3159C154.8 78.8135 154.344 78.4348 153.896 78.3536H153.908Z" fill="#231F20"/>
<path id="Vector_40" d="M140.12 78.1449C140.302 78.257 140.475 78.3768 140.645 78.5043L140.479 78.3768C140.757 78.5855 141.016 78.8174 141.259 79.0647C141.274 79.0802 141.29 79.0956 141.305 79.1111C141.182 78.9797 141.151 78.9488 141.213 79.0145C141.243 79.0493 141.274 79.0802 141.301 79.115C141.355 79.1729 141.406 79.2309 141.456 79.2927C141.571 79.4319 141.68 79.571 141.784 79.7179C141.888 79.8647 142.1 80.0425 142.278 80.0927C142.409 80.1314 142.579 80.1159 142.652 79.9768C142.857 79.5903 142.544 79.084 142.328 78.7826C141.71 77.9169 140.904 77.1749 140.004 76.6106C139.885 76.5372 139.696 76.4676 139.56 76.5526C139.425 76.6377 139.394 76.8386 139.41 76.9778C139.452 77.4261 139.738 77.9053 140.12 78.1449Z" fill="#231F20"/>
<path id="Vector_41" d="M143.938 71.8261C144.3 73.0125 144.791 74.1526 145.401 75.2348C145.462 75.3468 145.648 75.4589 145.744 75.5285C145.945 75.6715 146.157 75.8067 146.373 75.9227C146.539 76.0154 146.713 76.1159 146.898 76.17C146.937 76.1816 147.083 76.2357 147.029 76.1391C146.42 75.0609 145.929 73.9169 145.566 72.7304C145.539 72.6377 145.285 72.4792 145.223 72.4367C145.022 72.2937 144.81 72.1584 144.594 72.0425C144.428 71.9497 144.254 71.8493 144.069 71.7952C144.015 71.7797 143.907 71.7333 143.938 71.8261Z" fill="#231F20"/>
<path id="Vector_42" d="M151.661 68.5488C151.484 70.3845 151.546 72.2203 151.897 74.0328C151.982 74.4618 152.572 74.5507 152.928 74.4966C153.236 74.4502 153.896 74.2261 153.811 73.7894C153.483 72.0927 153.379 70.3459 153.545 68.6261C153.588 68.1932 153.175 67.9961 152.785 67.9923C152.476 67.9884 151.704 68.1159 151.661 68.5526V68.5488Z" fill="#231F20"/>
<path id="Vector_43" d="M160.621 71.8918C159.98 72.8773 159.339 73.8666 158.702 74.8522C158.629 74.9642 158.756 75.0454 158.837 75.0763C159.007 75.1459 159.254 75.1382 159.432 75.1227C159.679 75.0995 159.93 75.057 160.161 74.9642C160.308 74.9063 160.478 74.8406 160.566 74.7014C161.207 73.7159 161.848 72.7266 162.485 71.741C162.558 71.629 162.431 71.5478 162.35 71.5169C162.18 71.4473 161.933 71.4551 161.755 71.4705C161.508 71.4937 161.257 71.5362 161.026 71.629C160.879 71.6869 160.709 71.7526 160.621 71.8918Z" fill="#231F20"/>
<path id="Vector_44" d="M166.341 77.913C166.878 77.5613 167.414 77.2058 167.951 76.8541C168.051 76.7884 167.924 76.7072 167.873 76.6763C167.715 76.5874 167.487 76.5411 167.31 76.514C167.067 76.4753 166.816 76.4444 166.569 76.4522C166.426 76.456 166.237 76.4522 166.113 76.5333L164.504 77.5923C164.403 77.658 164.531 77.7391 164.581 77.77C164.739 77.8589 164.967 77.9053 165.144 77.9324C165.388 77.971 165.639 78.0019 165.886 77.9942C166.028 77.9903 166.218 77.9942 166.341 77.913Z" fill="#231F20"/>
<path id="Vector_45" d="M143.648 93.9903C143.235 94.6203 142.826 95.2502 142.413 95.8802C142.316 96.0271 142.324 96.2358 142.351 96.4019C142.39 96.6338 142.494 96.9005 142.629 97.0937C142.741 97.256 142.884 97.4531 143.073 97.5227C143.2 97.5691 143.355 97.5923 143.444 97.457C143.857 96.8271 144.266 96.1971 144.679 95.5672C144.775 95.4203 144.768 95.2116 144.74 95.0454C144.702 94.8135 144.598 94.5469 144.463 94.3536C144.351 94.1913 144.208 93.9942 144.019 93.9246C143.891 93.8783 143.737 93.8551 143.648 93.9903Z" fill="#231F20"/>
<path id="Vector_46" d="M149.373 95.4357C148.797 97.0667 148.415 98.7556 148.238 100.475C148.211 100.75 149.025 100.808 149.183 100.815C149.411 100.827 149.647 100.831 149.871 100.781C149.963 100.761 150.152 100.723 150.164 100.603C150.341 98.8831 150.724 97.1942 151.299 95.5633C151.384 95.3237 150.469 95.2309 150.353 95.2232C150.129 95.2116 149.473 95.1459 149.373 95.4357Z" fill="#231F20"/>
<path id="Vector_47" d="M154.97 96.0386L155.568 101.511C155.61 101.909 156.278 101.948 156.571 101.917C156.838 101.89 157.536 101.751 157.494 101.349C157.293 99.5246 157.096 97.7005 156.896 95.8763C156.853 95.4782 156.185 95.4396 155.892 95.4705C155.626 95.4976 154.927 95.6367 154.97 96.0386Z" fill="#231F20"/>
<path id="Vector_48" d="M159.883 95.9961C160.138 96.2048 160.37 96.4406 160.578 96.6957L160.416 96.4947C160.628 96.7613 160.81 97.0473 160.956 97.3526L160.844 97.1208C160.879 97.1903 160.91 97.2599 160.941 97.3333C161.041 97.5691 161.184 97.7816 161.408 97.9208C161.582 98.029 161.848 98.1024 162.049 98.0406C162.25 97.9787 162.443 97.8396 162.52 97.627C162.597 97.4145 162.612 97.1555 162.52 96.943C162.161 96.1005 161.628 95.3198 160.914 94.7362C160.729 94.5855 160.543 94.458 160.292 94.4464C160.088 94.4386 159.845 94.5275 159.717 94.6937C159.586 94.8715 159.517 95.1034 159.551 95.3237C159.586 95.5633 159.686 95.8377 159.879 95.9961H159.883Z" fill="#231F20"/>
<path id="Vector_49" d="M164.071 92.4715C164.508 92.9237 164.944 93.372 165.38 93.8241C165.534 93.9826 165.774 94.1024 165.978 94.1797C166.094 94.2261 166.218 94.257 166.341 94.2724C166.445 94.2956 166.553 94.3034 166.665 94.2956C166.789 94.2802 166.997 94.2531 167.036 94.1063C167.074 93.9594 166.974 93.8241 166.878 93.7198C166.441 93.2676 166.005 92.8193 165.569 92.3671C165.415 92.2087 165.175 92.0889 164.971 92.0116C164.855 91.9652 164.731 91.9343 164.608 91.9188C164.504 91.8956 164.396 91.8879 164.284 91.8956C164.16 91.9111 163.952 91.9381 163.913 92.085C163.875 92.2319 163.975 92.3671 164.071 92.4715Z" fill="#231F20"/>
<g id="Group_23" opacity="0.11">
<path id="Vector_50" d="M139.68 123.699C136.175 129.364 132.67 135.03 129.165 140.692C126.135 145.585 123.043 150.655 122.148 156.356C122.804 156.985 123.893 156.935 124.68 156.479C125.468 156.023 126.012 155.25 126.521 154.493C130.516 148.56 133.697 142.118 136.866 135.699C138.526 132.34 140.197 128.935 140.985 125.264C141.112 124.669 141.139 123.899 140.606 123.613C139.537 124.077 138.881 125.159 138.29 126.176C134.712 132.363 131.134 138.555 127.552 144.742C126.332 146.848 125.105 148.985 124.476 151.339C124.294 152.027 124.236 152.92 124.838 153.291C125.294 153.573 125.896 153.38 126.348 153.094C127.394 152.429 128.081 151.339 128.725 150.272C133.33 142.636 137.237 134.566 140.379 126.207" fill="white"/>
<g id="Group_24">
<path id="Vector_51" d="M139.433 126.033C139.522 125.84 139.344 125.855 139.329 125.816C139.236 126.156 139.476 126.041 139.433 126.033Z" fill="white"/>
<path id="Vector_52" d="M138.507 129.414L138.468 129.333L138.426 129.871L138.507 129.414Z" fill="white"/>
<path id="Vector_53" d="M137.248 132.425C137.627 132.251 137.669 131.32 137.986 130.821L138.082 130.756L137.978 130.427C137.739 131.092 137.518 131.996 137.248 132.421V132.425Z" fill="white"/>
<path id="Vector_54" d="M136.005 133.774C136.148 133.72 135.936 134.153 136.202 133.418C136.175 133.449 136.164 133.457 136.148 133.476C136.121 133.542 136.083 133.627 136.005 133.774Z" fill="white"/>
<path id="Vector_55" d="M136.144 133.476C135.97 133.646 136.276 133.159 136.144 133.476V133.476Z" fill="white"/>
<path id="Vector_56" d="M135.554 134.941L135.651 134.489C135.554 134.547 135.376 134.91 135.396 134.752C135.253 135.196 135.349 135.134 135.554 134.937V134.941Z" fill="white"/>
<path id="Vector_57" d="M135.558 135.416L135.619 135.188C135.577 135.215 135.542 135.266 135.558 135.416Z" fill="white"/>
<path id="Vector_58" d="M135.747 134.698L135.619 135.185C135.689 135.142 135.774 135.173 135.685 134.964C135.743 135.034 135.712 134.914 135.747 134.698Z" fill="white"/>
<path id="Vector_59" d="M135.901 134.458C136.06 134.253 136.23 133.967 136.129 134.423C136.45 133.619 136.218 133.658 135.901 134.458Z" fill="white"/>
<path id="Vector_60" d="M137.441 132.692L137.65 132.413L137.681 132.108C137.669 132.263 137.352 132.68 137.441 132.696V132.692Z" fill="white"/>
<path id="Vector_61" d="M134.234 137.426C134.276 137.476 134.438 137.357 134.523 137.36L134.605 137.032C134.496 137.171 134.323 137.445 134.234 137.43V137.426Z" fill="white"/>
<path id="Vector_62" d="M134.523 137.357L134.4 137.851C134.601 137.453 134.593 137.36 134.523 137.357Z" fill="white"/>
<path id="Vector_63" d="M135.801 135.617L135.952 134.783L135.739 135.76L135.801 135.617Z" fill="white"/>
<path id="Vector_64" d="M133.396 139.13L133.4 138.817L133.361 139.362L133.396 139.13Z" fill="white"/>
<path id="Vector_65" d="M132.852 140.271C132.845 140.035 132.555 140.441 132.589 140.213C132.45 140.526 132.408 140.831 132.361 141.105C132.45 140.835 132.593 140.572 132.848 140.271H132.852Z" fill="white"/>
<path id="Vector_66" d="M132.273 141.554C132.315 141.418 132.338 141.268 132.365 141.101C132.319 141.244 132.284 141.391 132.273 141.554Z" fill="white"/>
<path id="Vector_67" d="M134.002 138.605C133.952 138.624 133.836 138.651 133.678 138.883L133.913 138.779C133.941 138.725 133.971 138.667 134.002 138.605Z" fill="white"/>
<path id="Vector_68" d="M133.921 138.775H133.914C133.817 138.968 133.747 139.099 133.716 139.154C133.743 139.107 133.801 138.991 133.921 138.775Z" fill="white"/>
<path id="Vector_69" d="M134.025 138.558C134.025 138.558 134.01 138.585 134.002 138.601C134.025 138.589 134.037 138.582 134.025 138.558Z" fill="white"/>
<path id="Vector_70" d="M135.118 136.742C135.075 137.047 134.901 137.642 135.284 137.167C135.272 136.928 135.052 137.202 135.118 136.742Z" fill="white"/>
<path id="Vector_71" d="M134.319 138.431L134.585 137.971C134.543 137.963 134.442 138.021 134.465 137.87L134.322 138.435L134.319 138.431Z" fill="white"/>
<path id="Vector_72" d="M134.249 138.686L134.319 138.431L134.218 138.601L134.249 138.686Z" fill="white"/>
<path id="Vector_73" d="M132.825 140.819C132.786 141.055 132.674 141.283 132.555 141.538C132.725 141.283 132.883 141.013 133.018 140.746C132.991 140.684 132.968 140.526 132.825 140.819Z" fill="white"/>
<path id="Vector_74" d="M133.377 139.834C133.377 139.834 133.365 139.869 133.361 139.884C133.388 139.861 133.404 139.842 133.377 139.834Z" fill="white"/>
<path id="Vector_75" d="M131.254 144L131.304 143.973L131.281 143.954L131.254 144Z" fill="white"/>
<path id="Vector_76" d="M133.068 140.715C133.199 140.526 133.226 140.386 133.238 140.247C133.176 140.406 133.103 140.572 133.018 140.746C133.029 140.773 133.041 140.785 133.068 140.715Z" fill="white"/>
<path id="Vector_77" d="M131.983 142.28C132.068 142.191 132.157 142.087 132.246 141.971C132.146 142.048 131.964 142.222 131.983 142.28Z" fill="white"/>
<path id="Vector_78" d="M133.284 139.934C133.284 139.934 133.288 139.911 133.292 139.899C133.226 139.95 133.245 139.95 133.284 139.934Z" fill="white"/>
<path id="Vector_79" d="M133.284 139.934C133.253 140.05 133.246 140.151 133.238 140.247C133.288 140.116 133.331 139.996 133.361 139.884C133.338 139.903 133.311 139.923 133.284 139.93V139.934Z" fill="white"/>
<path id="Vector_80" d="M131.775 145.252C131.659 145.14 131.829 144.549 132.219 144.166C132.358 143.66 131.759 143.718 131.3 143.977C131.35 144.023 131.408 144.054 131.234 144.557C131.4 144.437 131.96 143.625 131.871 144.081C131.609 144.73 131.551 144.556 131.319 144.815C131.624 144.653 131.134 145.728 131.454 145.731L131.663 145.148C131.705 145.159 131.663 145.387 131.779 145.256L131.775 145.252Z" fill="white"/>
<path id="Vector_81" d="M131.787 143.103L131.872 142.902C131.733 143.107 131.594 143.235 131.339 143.463C131.234 143.814 131.25 143.907 131.285 143.954L131.802 143.026L131.787 143.103Z" fill="white"/>
<path id="Vector_82" d="M132.323 142.044C132.392 142.272 132.215 142.763 132.524 142.566C132.805 141.998 132.605 142.106 132.717 141.739C132.28 142.667 132.771 141.438 132.346 142.048C132.412 141.859 132.489 141.693 132.562 141.538C132.458 141.693 132.354 141.836 132.25 141.971C132.257 141.963 132.261 141.959 132.269 141.956C132.307 141.925 132.327 141.921 132.292 141.956C132.292 141.959 132.288 141.971 132.284 141.975C132.3 141.99 132.311 142.017 132.319 142.044C132.153 142.292 132.261 142.064 132.284 141.975C132.28 141.967 132.277 141.956 132.269 141.952L131.875 142.902C131.999 142.725 132.122 142.481 132.323 142.044Z" fill="white"/>
<path id="Vector_83" d="M135.368 137.816C135.341 137.84 135.33 137.832 135.318 137.828C135.307 137.898 135.311 137.925 135.368 137.816Z" fill="white"/>
<path id="Vector_84" d="M135.094 138.153C135.106 138.075 135.071 137.99 135.191 137.778C135.326 137.608 135.264 137.813 135.318 137.828C135.341 137.677 135.43 137.314 135.16 137.693L135.148 137.766C134.921 138.114 134.504 138.5 134.512 138.427C134.701 138.385 134.844 138.334 135.091 138.153H135.094Z" fill="white"/>
<path id="Vector_85" d="M133.748 140.158L133.435 140.958L133.759 140.634L133.67 140.614C133.922 140.197 133.779 140.243 133.744 140.158H133.748Z" fill="white"/>
<path id="Vector_86" d="M131.134 144.046L131.034 143.865L131.018 144.413L131.134 144.046Z" fill="white"/>
<path id="Vector_87" d="M130.621 145.024L130.509 144.916L130.447 145.217L130.621 145.024Z" fill="white"/>
<path id="Vector_88" d="M135.658 140.185L135.585 140.429C135.627 140.317 135.646 140.24 135.658 140.185Z" fill="white"/>
<path id="Vector_89" d="M136.484 138.555L136.438 138.481C136.438 138.574 136.449 138.62 136.484 138.555Z" fill="white"/>
<path id="Vector_90" d="M131.929 139.096C132.238 138.848 132.633 138.605 132.463 138.558L132.262 138.57C132.157 138.806 132.045 138.968 131.929 139.096Z" fill="white"/>
<path id="Vector_91" d="M141.058 124.27C141.058 124.22 141.062 124.166 141.066 124.116C141.035 124.104 141.012 124.089 140.985 124.077C140.935 124.1 140.861 124.185 140.799 124.236C140.904 124.209 141.043 124.143 141.058 124.27Z" fill="white"/>
<path id="Vector_92" d="M141.541 123.764C141.552 123.934 141.548 124.108 141.525 124.282C141.548 124.147 141.568 123.977 141.541 123.764Z" fill="white"/>
<path id="Vector_93" d="M131.13 149.113V149.457C131.362 149.051 131.184 149.186 131.13 149.113Z" fill="white"/>
<path id="Vector_94" d="M125.402 152.031C125.421 151.861 125.456 151.768 125.464 151.695C125.348 151.845 125.24 152.124 125.402 152.031Z" fill="white"/>
<path id="Vector_95" d="M134.392 138.748C134.349 138.899 134.353 138.972 134.388 138.987C134.434 138.833 134.446 138.74 134.392 138.748Z" fill="white"/>
<path id="Vector_96" d="M125.514 151.409C125.495 151.42 125.479 151.44 125.46 151.455C125.468 151.536 125.479 151.598 125.46 151.691C125.545 151.567 125.599 151.517 125.51 151.409H125.514Z" fill="white"/>
<path id="Vector_97" d="M131.725 134.74C131.744 134.721 131.763 134.698 131.786 134.682C131.771 134.663 131.752 134.694 131.725 134.74Z" fill="white"/>
<path id="Vector_98" d="M138.696 126.686C138.65 126.779 138.561 126.922 138.48 127.061C138.53 127.003 138.599 126.891 138.696 126.686Z" fill="white"/>
<path id="Vector_99" d="M128.347 148.85C128.347 148.808 128.459 148.642 128.347 148.85V148.85Z" fill="white"/>
<path id="Vector_100" d="M129.497 148.201C129.49 148.255 129.49 148.298 129.521 148.325C129.493 148.286 129.49 148.247 129.497 148.201Z" fill="white"/>
<path id="Vector_101" d="M125.286 148.982C125.286 148.982 125.29 148.97 125.294 148.962C125.236 149.013 125.248 149.005 125.286 148.982Z" fill="white"/>
<path id="Vector_102" d="M128.594 148.584C128.533 148.649 128.463 148.727 128.397 148.815C128.432 148.781 128.494 148.711 128.594 148.584Z" fill="white"/>
<path id="Vector_103" d="M128.501 148.587C128.548 148.522 128.586 148.468 128.621 148.421C128.614 148.383 128.583 148.394 128.501 148.587Z" fill="white"/>
<path id="Vector_104" d="M128.189 149.136C128.255 149.02 128.324 148.916 128.398 148.819C128.363 148.854 128.347 148.866 128.347 148.85C128.313 148.912 128.266 148.997 128.189 149.136Z" fill="white"/>
<path id="Vector_105" d="M122.731 151.981C122.731 151.981 122.75 151.95 122.762 151.938C122.777 151.687 122.754 151.791 122.731 151.981Z" fill="white"/>
<path id="Vector_106" d="M133.5 132.904C133.5 132.904 133.5 132.924 133.493 132.931C133.5 132.924 133.508 132.912 133.516 132.904H133.5Z" fill="white"/>
<path id="Vector_107" d="M133.817 132.108C133.817 132.526 133.693 132.692 133.516 132.904H134.076L133.817 132.108Z" fill="white"/>
<path id="Vector_108" d="M133.709 144.108L134.118 143.648C134.002 144.406 133.685 144.831 134.133 144.429C133.712 144.112 135.156 142.334 134.728 142.021L135.006 141.72C134.952 141.816 134.971 141.847 134.913 141.944C135.484 141.372 134.836 141.264 135.341 140.417C135.531 140.128 135.708 139.95 135.658 140.186L135.886 139.443C135.994 139.25 136.052 139.339 135.944 139.532L136.426 138.47L136.438 138.485C136.438 138.3 136.492 137.905 136.523 137.716C136.723 137.484 136.507 137.874 136.6 137.836L136.773 137.202C137.013 137.028 136.893 137.565 136.677 137.956C137.414 137.646 136.797 137.418 137.646 136.386L137.437 136.962C137.877 136.742 137.993 136.267 138.464 135.729C138.306 135.834 137.434 136.761 137.627 136.073C137.75 135.915 137.881 135.687 137.955 135.3C138.124 135.378 138.248 135.026 138.441 134.605L138.649 134.74C138.804 134.257 138.676 134.238 138.703 133.921C138.97 133.426 139.19 133.399 139.391 133.349C139.807 132.549 138.85 133.782 139.259 132.796C139.657 132.155 139.784 131.625 139.993 130.74C140.271 130.284 140.097 130.883 140.236 130.736V130.481C140.236 130.435 140.228 130.404 140.236 130.346L140.255 130.168C140.321 130.01 140.359 130.075 140.379 130.11C140.448 129.816 140.39 129.801 140.348 129.743C140.305 129.689 140.274 129.596 140.386 129.214C140.271 129.128 140.514 128.754 140.799 128.193C140.935 127.919 141.077 127.606 141.185 127.308C141.278 127.026 141.328 126.763 141.286 126.624C141.444 126.303 141.459 126.555 141.606 126.369C141.625 126.214 141.606 126.126 141.606 126.033C141.602 125.944 141.595 125.871 141.591 125.805C141.583 125.677 141.583 125.581 141.556 125.527C141.514 125.407 141.467 125.295 141.359 125.113C141.432 124.827 141.506 124.541 141.537 124.282C141.467 124.614 141.363 124.723 141.297 124.688C141.224 124.657 141.174 124.468 141.073 124.267C141.073 124.301 141.066 124.336 141.062 124.371C141.058 124.406 141.027 124.483 141.012 124.533C140.973 124.642 140.935 124.746 140.904 124.846C140.838 125.024 140.78 125.179 140.734 125.299C140.664 125.163 140.549 125.036 140.321 124.989C140.34 124.765 140.549 124.487 140.811 124.236C140.745 124.255 140.676 124.286 140.614 124.321C140.606 124.174 140.614 124.039 140.645 123.915C140.66 123.849 140.68 123.787 140.707 123.729C140.722 123.691 140.726 123.687 140.73 123.683C140.734 123.675 140.742 123.671 140.745 123.668C140.796 123.629 140.911 123.633 141.012 123.668C141.054 123.807 141.077 123.961 141.073 124.12C141.212 124.197 141.34 124.209 141.432 124.004C141.405 123.981 141.367 123.907 141.321 123.807C141.363 123.818 141.394 123.814 141.402 123.764C141.409 123.71 141.348 123.683 141.247 123.614C141.263 123.463 141.266 123.316 141.259 123.177L141.17 123.243C141.058 123.096 140.869 122.926 140.749 122.945L140.375 122.871L140.236 122.929C139.8 123.358 139.445 123.849 139.097 124.46C138.75 125.063 138.426 125.793 138.067 126.512C138.256 125.828 138.117 125.832 138.124 125.376C138.252 125.422 138.418 125.128 138.626 124.777C138.835 124.421 139.086 124.035 139.317 123.849C139.078 124.05 139.171 123.795 139.248 123.668C138.931 124.066 138.634 124.533 138.341 125.067C138.379 124.672 138.171 125.024 137.901 125.268C138.009 125.472 137.835 125.843 137.611 126.28C137.387 126.721 137.086 127.239 136.947 127.598C136.843 127.517 136.858 127.223 137.352 126.431C137.032 126.69 136.889 127.165 136.808 127.548C136.719 127.938 136.673 128.271 136.357 128.568C136.441 128.417 136.526 128.309 136.511 128.201C136.492 128.263 136.465 128.336 136.43 128.41C136.399 128.471 136.368 128.541 136.333 128.607C136.272 128.727 136.198 128.846 136.125 128.947C135.982 129.148 135.851 129.271 135.855 129.152L135.932 129.013C135.368 129.898 134.33 131.776 134.539 132.073C134.496 132.062 134.264 131.757 134.237 131.668L134.257 133.84C134.095 133.557 133.199 133.766 133.496 132.935C133.338 133.132 133.141 133.376 132.964 133.882C133.083 133.755 133.527 133.72 133.435 133.932C132.844 134.327 133.068 134.234 132.443 134.779C132.624 134.589 132.863 135.057 132.651 135.397C132.624 135.308 132.257 135.208 132.292 135.057L132.165 136.143C132.223 135.888 131.867 135.919 131.651 136.054C131.779 136.008 131.211 136.8 131.115 137.055L131.416 136.738C130.79 137.685 131.385 138.014 130.802 138.976C130.794 138.814 130.493 138.408 130.157 138.875C130.219 139.215 130.501 140.417 130.15 141.364L129.945 141.465L129.686 142.199C129.636 141.619 129.694 140.112 129.822 139.343C129.521 139.66 129.632 139.37 129.324 139.927C129.107 140.062 129.339 139.536 129.428 139.37L128.621 140.611C128.88 140.684 128.281 141.72 128.494 141.782L129.065 140.255C129.324 140.329 129.239 141.43 128.671 142.315C128.447 142.493 128.37 141.909 128.285 141.886C128.293 142.048 127.934 142.833 127.834 142.883L127.938 142.427C127.56 142.883 127.76 143.424 127.193 143.907C127.058 144.108 126.541 144.367 126.653 144.479C127.108 144.286 127.938 144.68 128 145.016C127.938 145.078 127.12 145.971 126.861 146.145C126.463 146.381 126.672 145.349 126.332 145.546C126.386 145.592 126.355 145.832 126.332 145.925C126.155 146.118 126.189 145.724 125.95 146.23C126.131 146.435 125.39 147.223 126.019 146.57C125.826 147.088 125.695 147.053 125.417 147.637C125.661 147.532 125.676 148.41 125.533 148.928C125.483 148.87 125.356 148.947 125.298 148.986C125.066 149.488 124.877 149.874 124.711 150.261C124.545 150.651 124.387 151.007 124.259 151.586C124.217 151.641 124.155 151.807 124.101 151.946C124.051 152.081 124.001 152.189 123.951 152.073C123.997 152.243 124.07 152.371 124.147 152.719C124.155 153.121 124.082 152.943 124.012 152.719C123.951 152.502 123.916 152.236 123.815 152.591C123.889 152.58 123.954 152.777 124.089 152.997C124.217 153.221 124.448 153.461 124.699 153.561C124.75 153.581 124.796 153.596 124.838 153.608C124.834 153.565 124.804 153.523 124.753 153.472C124.638 153.353 124.433 153.179 124.298 152.935C124.163 152.7 124.074 152.421 124.035 152.209C124.317 152.1 124.483 152.688 125.159 152.827C125.275 152.843 125.413 152.839 125.541 152.808C125.842 152.746 125.881 152.757 125.884 152.835C125.884 152.904 125.815 153.001 125.873 152.955C126.174 152.87 126.359 152.688 126.471 152.549C126.591 152.398 126.614 152.286 126.672 152.155C126.791 151.872 126.88 151.652 127.343 151.227C127.803 150.941 127.695 151.451 127.88 151.447C127.536 152.058 127.116 152.201 126.803 152.495C126.95 152.406 127.12 152.29 127.266 152.17C127.177 152.379 126.865 152.746 126.637 152.835C126.853 152.796 127.401 152.336 127.868 151.706C128.343 151.08 128.791 150.319 129.181 149.828C129.235 149.604 129.366 149.237 129.204 149.349L129.026 149.7C128.698 149.925 129.204 148.947 128.884 149.333C129.053 148.823 129.192 148.22 129.644 147.625H129.918C129.849 147.602 129.551 147.973 129.513 148.189C129.575 147.869 130.362 147.366 130.258 146.918L129.86 147.289C130.022 146.771 130.119 146.079 130.505 145.546C130.154 145.693 130.455 145.689 129.988 145.959C130.482 145.778 129.15 147.409 129.783 147.022C129.27 147.277 129.25 147.671 128.706 148.073C128.783 148.097 128.945 147.957 128.637 148.414C128.644 148.448 128.637 148.51 128.637 148.553C128.625 148.564 128.621 148.572 128.613 148.58C128.621 148.572 128.629 148.564 128.637 148.557C128.637 148.584 128.637 148.587 128.644 148.549C128.741 148.452 128.83 148.383 128.887 148.367C128.903 148.692 128.451 149.442 128.378 149.743C128.177 150.006 128.37 149.581 128.208 149.689L128.1 150.137C127.93 150.087 127.413 150.701 127.718 150.017C127.598 150.207 127.479 150.392 127.359 150.57C127.069 150.841 126.745 151.204 126.606 151.467C126.502 151.556 126.417 151.71 126.367 151.807C126.355 151.83 126.344 151.853 126.336 151.869C126.336 151.876 126.336 151.884 126.336 151.888C126.336 151.888 126.321 151.888 126.34 151.826C126.255 151.954 126.185 152.054 126.058 152.166L126.05 152.12C125.919 152.174 125.734 152.286 125.537 152.236C125.228 152.166 125.217 151.687 125.483 151.451C125.483 151.42 125.479 151.386 125.475 151.351C125.491 151.262 125.506 151.169 125.529 151.072C125.576 150.875 125.649 150.655 125.769 150.396L125.946 150.342C126.043 149.909 126.579 149.183 126.525 148.947C126.807 148.815 127.058 148.344 127.313 147.818C127.563 147.293 127.822 146.713 128.05 146.381L127.895 146.257C128.181 145.778 128.401 145.287 128.683 144.642L128.513 144.591C128.691 144 129.397 143.312 129.856 142.477C129.879 142.566 129.744 142.767 129.625 142.895C130.532 142.106 130.582 140.672 131.346 139.923C131.42 139.668 131.532 139.517 131.659 139.382C131.647 139.401 131.64 139.424 131.636 139.44C131.651 139.416 131.671 139.386 131.69 139.351C131.771 139.266 131.86 139.185 131.948 139.088C131.86 139.161 131.775 139.231 131.717 139.3C131.813 139.127 131.945 138.856 132.057 138.578L132.28 138.562C132.292 138.539 132.3 138.524 132.311 138.5C132.516 138.284 132.35 138.253 132.153 138.319C132.199 138.176 132.238 138.041 132.25 137.925C132.628 137.871 132.551 137.202 132.987 137.086C132.952 136.835 133.628 135.741 133.423 135.443C133.465 135.455 133.527 135.389 133.45 135.532C133.647 135.266 133.844 134.999 133.913 134.698H134.187L134.272 133.913C134.616 133.608 134.778 133.492 134.72 133.959C135.002 132.912 135.052 133.171 135.26 132.263L135.372 132.379C135.527 132.1 135.604 131.559 135.808 131.455C136.113 131.219 136.561 130.462 137.078 129.585C137.194 129.387 137.314 129.183 137.437 128.978C137.515 128.85 137.596 128.723 137.673 128.607C137.831 128.375 137.982 128.178 138.094 128.124C138.036 127.772 138.101 127.76 138.175 127.764C138.244 127.764 138.294 127.838 138.356 127.382C138.36 127.586 138.391 127.664 138.294 128.004C138.41 127.706 138.48 127.691 138.537 127.66C138.603 127.617 138.653 127.544 138.935 126.918C138.842 127.273 138.696 127.532 138.657 127.729C138.692 127.644 138.812 127.397 138.808 127.482C138.808 127.494 138.804 127.513 138.796 127.54C138.769 127.641 138.734 127.726 138.696 127.807C138.653 127.9 138.607 127.988 138.561 128.093C138.58 128.07 138.603 128.043 138.626 128.004C138.746 127.822 138.943 127.443 139.186 126.96C139.429 126.497 139.699 125.971 139.962 125.438C139.962 125.832 139.931 126.06 139.981 126.114C140.027 126.172 140.147 126.071 140.344 125.878C140.132 126.338 139.919 126.806 139.861 126.578C139.861 126.705 139.746 127.107 139.668 127.37C139.603 127.633 139.587 127.799 139.8 127.579C139.676 127.768 139.688 127.896 139.715 127.911C139.545 128.41 139.506 128.46 139.383 128.897L139.479 128.742C139.649 128.727 139.626 128.843 139.553 128.989C139.479 129.14 139.367 129.31 139.306 129.511L139.279 129.5C139.128 129.735 139.074 129.824 139.016 129.952C138.958 130.079 138.943 130.149 138.927 130.218C138.896 130.357 138.858 130.497 138.483 131.057L138.68 131.065C138.997 131.339 137.993 132.046 137.8 132.804L138.013 132.595C137.958 133.04 137.02 133.426 136.789 133.786C136.719 133.851 136.804 133.631 136.835 133.503C136.14 134.396 136.993 133.739 136.677 134.508C136.492 134.589 136.465 134.184 136.198 134.674C135.982 134.875 135.862 136.317 135.299 136.889C135.465 136.785 135.627 136.68 135.527 137.059C135.299 137.604 134.477 138.319 134.523 138.937C134.465 138.991 134.43 139.007 134.403 138.999C134.276 139.44 133.867 140.371 133.898 140.692C133.141 140.773 132.898 143.331 132.377 143.049L131.759 144.29L131.725 144.228C131.277 144.993 131.25 145.333 131.227 145.673C131.095 145.836 131.119 145.673 131.099 145.646C130.377 146.725 130.339 146.848 130.061 147.934H129.837C129.791 148.251 128.652 149.407 128.189 150.601C128.177 150.578 128.158 150.535 128.189 150.439C127.645 151.78 125.938 153.028 126.228 153.84C126.104 154.133 125.977 154.427 125.85 154.705C126.575 153.747 125.996 155.03 126.375 154.686C126.139 155.119 125.471 155.54 125.799 155.065L125.881 155.014C125.796 154.821 125.556 155.103 125.298 155.366C125.039 155.633 124.746 155.861 124.684 155.749C124.587 155.826 124.483 155.892 124.379 155.954C124.275 156.012 124.213 156.039 124.124 156.07C123.962 156.128 123.788 156.147 123.626 156.139C123.46 156.128 123.302 156.081 123.167 156C123.101 155.957 123.04 155.907 122.989 155.849C122.978 155.78 123.024 155.691 123.036 155.614C123.078 155.459 123.113 155.308 123.159 155.169L123.194 155.061L123.248 154.864L123.356 154.462C123.526 153.929 123.68 153.403 123.858 152.885L123.51 153.04L123.765 152.313C123.9 152.143 124.059 152.131 123.877 152.645C124.113 152.425 124.059 151.737 124.005 151.699C124.483 150.732 124.167 152.209 124.29 151.9L124.421 151.474L124.356 151.556C124.379 151.177 124.282 151.103 124.541 150.493C124.757 150.129 124.788 150.365 124.861 150.218C124.881 150.226 124.912 150.18 124.97 149.99C125.105 149.697 125.244 149.407 125.394 149.117L125.027 149.376C125.112 148.939 125.429 148.549 125.008 148.85C125.325 148.63 125.753 147.83 126.17 147.053C126.583 146.272 126.977 145.519 127.131 145.372C127.293 144.761 127.602 144.24 128 143.61C127.865 143.745 127.591 143.714 127.953 143.173C128.274 143.641 128.76 142.276 129.351 142.025C128.895 142.292 130.265 140.425 129.582 140.866C129.903 140.429 129.764 140.939 130.084 140.653C130.59 139.451 131.69 138.307 132.47 136.916C132.423 136.858 132.195 137.032 132.292 136.688L133.022 136.151C133.16 135.865 132.84 135.699 133.342 135.335C133.249 135.374 133.114 135.432 133.207 135.243C135.129 132.765 136.33 129.677 138.526 127.312C138.19 127.606 138.329 127.358 138.495 127.076C138.356 127.243 138.356 126.984 138.256 126.972L139.171 125.979C139.082 125.639 139.904 124.761 139.769 124.514L139.584 124.893C139.634 124.267 138.626 125.221 138.356 124.955C138.306 125.658 137.075 126.102 136.936 127.219C136.754 127.374 136.936 126.991 136.8 127.049C136.8 127.355 136.661 127.637 136.295 128.097V128.019C135.469 129.43 134.967 129.944 133.913 131.451L134.141 131.432C133.913 131.757 133.821 131.795 133.685 131.927C133.685 132.46 134.284 130.991 134.326 131.505C133.736 131.757 132.856 133.871 132.311 133.948C131.991 134.462 132.585 133.909 132.265 134.423L132.084 134.5L132.13 134.709C131.898 135.034 131.671 135.13 131.582 135.092C131.644 135.014 131.701 134.844 131.752 134.752C131.366 135.119 131.026 136.015 130.895 136.143L131.261 135.683C130.482 137.148 129.289 138.79 128.644 140.274L128.783 140.216C128.278 141.341 128.185 141.001 127.548 142.187L127.556 142.133C127.49 142.408 127.34 142.74 127.143 143.049C127.232 142.705 126.645 143.498 126.78 143.057C126.251 144.298 126.556 143.695 126.394 144.618L126.17 144.723C126.131 145.047 126.178 145.101 125.884 145.708C126.046 145.163 125.483 145.979 125.645 145.357C124.676 146.454 124.931 147.366 124.228 147.745C124.29 148.506 124.977 146.74 124.889 147.107C125.139 146.895 124.912 147.722 124.676 148.1C124.479 148.506 123.873 148.568 123.422 149.635C123.468 149.53 123.445 149.511 123.491 149.407C123.221 149.762 123.287 150.238 122.935 150.671C123.043 151.03 122.681 151.312 122.935 151.498C123.028 151.157 123.132 150.821 123.248 150.485C123.171 150.779 123.167 151.084 123.128 151.428C123.086 151.772 122.993 152.143 122.769 152.584C122.735 152.491 122.746 152.186 122.769 151.981C122.592 152.224 122.654 152.529 122.476 152.785C122.345 152.7 122.426 152.386 122.538 152.008C122.661 151.633 122.823 151.2 122.823 150.856C122.592 151.107 122.615 152.081 122.41 151.664C122.526 151.954 122.43 152.22 122.306 152.526C122.179 152.827 122.036 153.171 122.09 153.592L121.928 153.492C121.924 153.619 121.936 153.89 121.874 154.114C121.831 153.959 121.793 153.805 121.754 153.65C121.762 153.986 121.654 154.276 121.53 154.562C121.515 154.605 121.503 154.624 121.48 154.682L121.418 154.86C121.376 154.976 121.341 155.1 121.31 155.223C121.268 155.351 121.272 155.459 121.268 155.567C121.268 155.679 121.268 155.787 121.283 155.896C121.283 155.664 121.291 155.482 121.303 155.343C121.337 155.188 121.368 155.076 121.395 155.003C121.453 154.852 121.488 154.841 121.523 154.86C121.584 154.91 121.642 155.061 121.793 154.709C121.762 154.976 121.719 155.208 121.708 155.386C121.7 155.556 121.685 155.695 121.662 155.818C121.615 156.062 121.546 156.24 121.476 156.437C121.442 156.537 121.407 156.642 121.372 156.765C121.364 156.796 121.357 156.827 121.349 156.862C121.337 156.897 121.33 156.931 121.357 156.951C121.391 157.001 121.434 157.055 121.48 157.113C121.665 157.341 121.99 157.658 122.661 157.816C122.472 157.789 122.167 157.639 122.009 157.496C121.847 157.357 121.808 157.26 122.063 157.364C122.434 157.646 123.063 157.836 123.379 157.925C123.854 157.925 124.074 157.84 124.147 157.809C124.221 157.774 124.147 157.762 124.043 157.751C123.835 157.735 123.534 157.681 123.9 157.596C124.19 157.662 124.421 157.581 124.626 157.442C124.73 157.372 124.831 157.287 124.931 157.194C125.031 157.101 125.116 157.013 125.232 156.916L125.34 157.071C126.031 156.645 125.992 156.468 125.992 156.356C125.977 156.228 125.973 156.135 126.421 155.695C126.378 155.888 126.328 156.081 126.267 156.278C126.409 156.089 126.533 155.9 126.649 155.71L126.734 155.95C127.054 155.27 127.185 155.127 127.598 154.609C127.405 154.663 127.363 154.35 127.679 153.863C127.988 153.592 127.71 154.149 128.131 153.442C128.131 153.662 128.142 153.913 127.799 154.118C127.83 154.184 127.799 154.334 127.826 154.4C128.169 154.114 128.436 153.515 128.594 153.264C128.525 153.357 128.444 153.469 128.382 153.511C128.521 153.128 128.667 152.75 128.803 152.367C128.961 152.243 128.93 152.402 128.899 152.557C129.011 152.34 129.023 152.155 129.196 151.842C129.277 152 129.42 152.062 129.216 152.529L129.671 151.471C129.768 151.44 130.127 151.065 130.1 151.219C130.505 150.725 130.636 149.739 131.153 149.074C131.149 149.02 131.169 148.931 131.238 148.769C131.655 148.104 132.157 147.586 132.419 146.674L132.91 146.342C133.203 145.673 132.269 146.806 132.755 145.693C133.079 144.897 133.11 145.519 133.315 145.291C133.396 144.85 133.492 144.066 134.048 143.474C133.975 143.729 133.844 143.892 133.747 144.116L133.709 144.108ZM137.615 136.085C137.572 136.259 137.53 136.618 137.376 136.684C137.271 136.414 137.43 136.321 137.615 136.085ZM140.375 123.355C140.44 123.297 140.51 123.273 140.583 123.262C140.622 123.258 140.66 123.258 140.699 123.262C140.718 123.262 140.738 123.262 140.761 123.27L140.826 123.339C140.749 123.27 140.676 123.32 140.599 123.331C140.522 123.347 140.448 123.358 140.379 123.358L140.375 123.355ZM127.15 151.049C127.15 151.049 127.15 151.061 127.15 151.069C126.884 151.3 126.981 151.223 127.15 151.049ZM127.637 150.477C127.656 150.4 127.633 150.388 127.591 150.404C127.602 150.473 127.513 150.62 127.394 150.771C127.463 150.752 127.548 150.694 127.633 150.477H127.637ZM124.815 150.095L124.711 150.214C124.8 149.878 124.807 149.986 124.815 150.095Z" fill="white"/>
<path id="Vector_109" d="M141.479 123.822C141.471 123.896 141.448 123.946 141.425 123.996C141.456 124.019 141.487 123.977 141.479 123.822Z" fill="white"/>
<path id="Vector_110" d="M131.13 149.051L131.115 149.074C131.115 149.074 131.122 149.105 131.13 149.113V149.051Z" fill="white"/>
<path id="Vector_111" d="M126.085 145.778C126.19 145.646 126.267 145.581 126.325 145.546C126.29 145.515 126.22 145.561 126.085 145.778Z" fill="white"/>
<path id="Vector_112" d="M129.498 146.709L129.285 147.173C129.401 146.956 129.482 146.902 129.567 146.806C129.525 146.794 129.42 146.848 129.498 146.709Z" fill="white"/>
<path id="Vector_113" d="M132.64 143.393C132.655 143.316 132.713 143.25 132.728 143.177L132.643 143.154C132.497 143.436 132.454 143.668 132.643 143.393H132.64Z" fill="white"/>
<path id="Vector_114" d="M130.266 146.609C130.42 146.651 130.532 146.346 130.683 146.021C130.671 146.041 130.664 146.06 130.652 146.075C130.513 145.874 130.389 146.242 130.266 146.609Z" fill="white"/>
<path id="Vector_115" d="M130.721 145.944C130.767 145.843 130.821 145.743 130.879 145.654C130.821 145.573 130.798 145.762 130.721 145.944Z" fill="white"/>
<path id="Vector_116" d="M128.066 149.577C128.185 149.453 127.95 149.384 128.05 149.333C127.977 149.071 127.679 150.423 128.066 149.577Z" fill="white"/>
<path id="Vector_117" d="M130.856 146.609L130.625 146.624L130.663 146.879L130.856 146.609Z" fill="white"/>
<path id="Vector_118" d="M129.32 148.989L129.656 148.522C129.625 148.514 129.644 148.441 129.675 148.356C129.494 148.657 129.262 148.97 129.32 148.989Z" fill="white"/>
<path id="Vector_119" d="M129.679 148.356C129.775 148.197 129.857 148.046 129.884 147.942C129.837 148.031 129.733 148.216 129.679 148.356Z" fill="white"/>
<path id="Vector_120" d="M130.525 147.32L130.405 147.447L130.188 147.791L130.525 147.32Z" fill="white"/>
<path id="Vector_121" d="M125.464 153.198C125.291 153.225 125.109 153.213 124.947 153.144C124.931 153.14 124.916 153.128 124.9 153.121C124.85 153.14 124.846 153.186 124.885 153.241C124.923 153.291 125.012 153.341 125.136 153.353C125.306 153.329 125.526 153.279 125.464 153.202V153.198Z" fill="white"/>
<path id="Vector_122" d="M127.267 152.815C127.101 152.912 127.054 152.897 126.934 152.912L127.05 153.125C127.131 153.024 127.213 152.908 127.267 152.815Z" fill="white"/>
<path id="Vector_123" d="M125.352 153.828C125.267 153.956 124.186 153.77 125.159 153.994C125.271 153.967 126.02 153.82 125.352 153.828Z" fill="white"/>
<path id="Vector_124" d="M127.139 145.26L127.062 145.399L127.413 145.573L127.139 145.26Z" fill="white"/>
<path id="Vector_125" d="M130.478 137.6C130.026 138.195 130.602 137.874 130.161 138.396C130.154 138.593 130.517 137.971 130.497 138.164C130.637 137.728 130.803 137.554 130.474 137.6H130.478Z" fill="white"/>
<path id="Vector_126" d="M130.501 138.164C130.478 138.234 130.459 138.311 130.439 138.392C130.482 138.269 130.497 138.207 130.501 138.164Z" fill="white"/>
<path id="Vector_127" d="M139.792 125.314L140.113 124.951L139.838 125.144L139.792 125.314Z" fill="white"/>
<path id="Vector_128" d="M140.024 124.383L140.294 124.417L140.252 124.054C140.205 124.151 140.113 124.34 140.02 124.379L140.024 124.383Z" fill="white"/>
<path id="Vector_129" d="M138.654 135.115L138.615 135.057C138.522 135.096 138.468 135.192 138.36 135.389L138.65 135.115H138.654Z" fill="white"/>
<path id="Vector_130" d="M135.608 140.835L135.662 140.738L135.368 140.819L135.608 140.835Z" fill="white"/>
<path id="Vector_131" d="M133.361 145.813C133.473 145.619 133.555 145.364 133.667 145.171C133.473 145.619 133.083 145.731 133.361 145.813Z" fill="white"/>
</g>
</g>
</g>
</g>
<defs>
<clipPath id="clip0_3084_1016">
<rect width="193" height="160" fill="white" transform="translate(0.5)"/>
</clipPath>
</defs>
</svg>
