<svg width="160" height="160" viewBox="0 0 160 160" fill="none" xmlns="http://www.w3.org/2000/svg">
<path d="M130.531 17.1871C130.358 17.1871 130.218 17.0495 130.211 16.8767C130.205 16.7007 130.346 16.5535 130.522 16.5471C130.896 16.5343 131.27 16.5279 131.648 16.5215C131.818 16.5215 131.968 16.6623 131.971 16.8383C131.971 17.0143 131.83 17.1583 131.654 17.1615C131.283 17.1647 130.912 17.1743 130.544 17.1839C130.541 17.1839 130.538 17.1839 130.534 17.1839L130.531 17.1871Z" fill="#BCBEC0"/>
<path d="M31.3792 48.4703C31.2096 48.4703 31.0656 48.3359 31.0592 48.1631C31.0528 47.9871 31.1872 47.8367 31.3664 47.8303C32.1344 47.7983 32.8864 47.7535 33.6032 47.7023C33.7856 47.6895 33.9328 47.8207 33.9456 47.9999C33.9584 48.1791 33.8272 48.3295 33.648 48.3423C32.9248 48.3935 32.1664 48.4383 31.3952 48.4703C31.392 48.4703 31.3856 48.4703 31.3824 48.4703H31.3792ZM35.8624 48.1407C35.7024 48.1407 35.5616 48.0191 35.5456 47.8559C35.5264 47.6799 35.6544 47.5231 35.8304 47.5039C36.5856 47.4239 37.3312 47.3279 38.048 47.2191C38.224 47.1935 38.3872 47.3119 38.4128 47.4879C38.4384 47.6639 38.32 47.8271 38.144 47.8527C37.4208 47.9615 36.6656 48.0575 35.9008 48.1407C35.888 48.1407 35.8784 48.1407 35.8656 48.1407H35.8624ZM40.3072 47.4719C40.1568 47.4719 40.0224 47.3663 39.9936 47.2127C39.9584 47.0399 40.0736 46.8703 40.2464 46.8351C40.9856 46.6879 41.7184 46.5247 42.4224 46.3455C42.592 46.3007 42.768 46.4063 42.8128 46.5759C42.8576 46.7487 42.752 46.9215 42.5824 46.9663C41.8656 47.1487 41.1232 47.3151 40.3712 47.4655C40.3488 47.4687 40.3296 47.4719 40.3072 47.4719ZM44.6624 46.3583C44.528 46.3583 44.4 46.2719 44.3584 46.1343C44.304 45.9647 44.3968 45.7855 44.5664 45.7311C45.2768 45.5039 45.984 45.2543 46.6656 44.9855C46.8288 44.9215 47.0176 45.0015 47.0816 45.1647C47.1456 45.3279 47.0656 45.5135 46.9024 45.5807C46.208 45.8527 45.488 46.1087 44.7648 46.3423C44.7328 46.3519 44.7008 46.3583 44.6688 46.3583H44.6624ZM48.8448 44.7103C48.7264 44.7103 48.6112 44.6431 48.5568 44.5279C48.48 44.3679 48.5472 44.1759 48.7072 44.1023C49.3824 43.7791 50.0448 43.4335 50.6784 43.0719C50.832 42.9855 51.0272 43.0367 51.1136 43.1903C51.2 43.3439 51.1488 43.5391 50.9952 43.6255C50.3488 43.9967 49.6704 44.3519 48.9824 44.6783C48.9376 44.7007 48.8896 44.7103 48.8448 44.7103ZM52.7392 42.4703C52.6368 42.4703 52.5376 42.4223 52.4768 42.3327C52.3776 42.1855 52.4128 41.9871 52.56 41.8879C53.1744 41.4655 53.7696 41.0143 54.3296 40.5503C54.4672 40.4383 54.6688 40.4575 54.7808 40.5919C54.8928 40.7295 54.8736 40.9311 54.7392 41.0431C54.1632 41.5199 53.552 41.9807 52.9216 42.4159C52.8672 42.4543 52.8032 42.4735 52.7392 42.4735V42.4703ZM56.1952 39.5999C56.112 39.5999 56.032 39.5679 55.968 39.5071C55.8432 39.3823 55.8432 39.1807 55.968 39.0559C56.1824 38.8415 56.3936 38.6207 56.5984 38.3967C56.8864 38.0799 57.1616 37.7471 57.408 37.4015C57.5104 37.2575 57.712 37.2255 57.856 37.3279C58 37.4303 58.032 37.6319 57.9296 37.7759C57.6672 38.1407 57.3792 38.4959 57.072 38.8319C56.8608 39.0623 56.6432 39.2895 56.4224 39.5103C56.3584 39.5743 56.2784 39.6031 56.1952 39.6031V39.5999ZM54.6464 39.4143C54.2048 39.4143 53.7632 39.4079 53.3216 39.3951C53.1456 39.3887 53.0048 39.2415 53.0112 39.0655C53.0176 38.8895 53.1488 38.7487 53.3408 38.7551C54.0864 38.7743 54.832 38.7775 55.5744 38.7647C55.7472 38.7583 55.8976 38.9023 55.9008 39.0783C55.904 39.2543 55.7632 39.4015 55.5872 39.4047C55.2736 39.4111 54.96 39.4143 54.6496 39.4143H54.6464ZM57.824 39.3119C57.6576 39.3119 57.5168 39.1807 57.504 39.0111C57.4912 38.8351 57.6256 38.6815 57.8016 38.6719C58.5344 38.6239 59.2832 38.5599 60.0288 38.4831C60.2016 38.4639 60.3616 38.5919 60.3808 38.7679C60.4 38.9439 60.272 39.1007 60.096 39.1199C59.344 39.1999 58.5856 39.2639 57.8432 39.3119C57.8368 39.3119 57.8304 39.3119 57.824 39.3119ZM51.088 39.2479C51.088 39.2479 51.0592 39.2479 51.0432 39.2479C50.1824 39.1263 49.424 38.9215 48.7904 38.6399C48.6304 38.5663 48.5568 38.3775 48.6304 38.2175C48.704 38.0575 48.8928 37.9839 49.0528 38.0575C49.6288 38.3167 50.3296 38.5055 51.1328 38.6175C51.3088 38.6431 51.4304 38.8031 51.4048 38.9791C51.3824 39.1391 51.2448 39.2543 51.088 39.2543V39.2479ZM62.2944 38.8415C62.1376 38.8415 62 38.7263 61.9776 38.5663C61.952 38.3903 62.0736 38.2303 62.2496 38.2047C62.9728 38.0991 63.7152 37.9775 64.4576 37.8399C64.6336 37.8079 64.7968 37.9231 64.8288 38.0959C64.8608 38.2687 64.7456 38.4351 64.5728 38.4671C63.824 38.6047 63.0752 38.7295 62.3424 38.8351C62.3264 38.8351 62.3104 38.8383 62.2944 38.8383V38.8415ZM66.7168 38.0319C66.5696 38.0319 66.4384 37.9295 66.4032 37.7791C66.3648 37.6063 66.4736 37.4367 66.6464 37.3983C67.36 37.2415 68.0928 37.0687 68.8256 36.8863C68.9952 36.8415 69.1712 36.9471 69.2128 37.1199C69.2544 37.2927 69.152 37.4655 68.9792 37.5071C68.24 37.6927 67.5008 37.8655 66.7808 38.0255C66.7584 38.0319 66.736 38.0319 66.7136 38.0319H66.7168ZM47.2224 37.2511C47.1136 37.2511 47.0048 37.1935 46.944 37.0911C46.8032 36.8479 46.6944 36.5855 46.624 36.3103C46.56 36.0575 46.5248 35.7983 46.5248 35.5423C46.5248 35.2511 46.5664 34.9599 46.6528 34.6719C46.704 34.5023 46.88 34.4031 47.0496 34.4543C47.2192 34.5023 47.3152 34.6815 47.2672 34.8511C47.2 35.0815 47.1648 35.3151 47.1648 35.5423C47.1648 35.7439 47.1904 35.9487 47.2416 36.1503C47.2992 36.3679 47.3824 36.5759 47.4944 36.7679C47.584 36.9215 47.5328 37.1167 47.3792 37.2063C47.328 37.2351 47.2736 37.2511 47.2192 37.2511H47.2224ZM71.0784 36.9375C70.9376 36.9375 70.8096 36.8447 70.7712 36.7039C70.7232 36.5343 70.8224 36.3583 70.992 36.3103C71.696 36.1119 72.4192 35.8975 73.1424 35.6735C73.3088 35.6223 73.4912 35.7151 73.5424 35.8847C73.5936 36.0543 73.5008 36.2335 73.3312 36.2847C72.6048 36.5087 71.8752 36.7263 71.168 36.9247C71.1392 36.9343 71.1104 36.9375 71.0816 36.9375H71.0784ZM58.752 35.9455C58.7136 35.9455 58.6752 35.9391 58.6368 35.9231C58.4704 35.8591 58.3904 35.6735 58.4544 35.5103C58.704 34.8671 58.832 34.2527 58.832 33.6863C58.832 33.6063 58.832 33.5295 58.8256 33.4495C58.8128 33.2735 58.9472 33.1199 59.1232 33.1103C59.3024 33.1007 59.4528 33.2319 59.4624 33.4079C59.4688 33.5007 59.472 33.5935 59.472 33.6863C59.472 34.3327 59.3312 35.0239 59.0528 35.7407C59.0048 35.8687 58.8832 35.9455 58.7552 35.9455H58.752ZM75.376 35.6095C75.2416 35.6095 75.1168 35.5263 75.072 35.3919C75.0144 35.2255 75.1072 35.0431 75.2736 34.9855C75.9648 34.7551 76.6752 34.5087 77.392 34.2527C77.5584 34.1919 77.7408 34.2783 77.8016 34.4479C77.8624 34.6143 77.7728 34.7967 77.6064 34.8575C76.8864 35.1135 76.1696 35.3631 75.4752 35.5967C75.44 35.6095 75.408 35.6127 75.3728 35.6127L75.376 35.6095ZM79.6128 34.0991C79.4848 34.0991 79.3632 34.0191 79.312 33.8911C79.248 33.7247 79.3344 33.5423 79.4976 33.4783C80.1984 33.2127 80.896 32.9439 81.5904 32.6687C81.7536 32.6047 81.9392 32.6847 82.0064 32.8479C82.0704 33.0111 81.9904 33.1967 81.8272 33.2639C81.1296 33.5391 80.4288 33.8111 79.7248 34.0767C79.6864 34.0895 79.648 34.0959 79.6128 34.0959V34.0991ZM48.1792 33.2223C48.096 33.2223 48.0128 33.1903 47.9488 33.1231C47.8272 32.9951 47.8304 32.7935 47.9584 32.6719C48.4736 32.1759 49.104 31.7151 49.8368 31.3023C49.9904 31.2159 50.1856 31.2703 50.272 31.4239C50.3584 31.5775 50.304 31.7727 50.1504 31.8591C49.4656 32.2463 48.8768 32.6751 48.4032 33.1327C48.3424 33.1935 48.2624 33.2223 48.1824 33.2223H48.1792ZM83.7984 32.4479C83.6736 32.4479 83.552 32.3743 83.5008 32.2495C83.4336 32.0863 83.5104 31.8975 83.6768 31.8335C84.368 31.5487 85.0592 31.2607 85.7504 30.9695C85.9136 30.8991 86.1024 30.9759 86.1696 31.1391C86.24 31.3023 86.1632 31.4911 86 31.5583C85.3088 31.8495 84.6144 32.1407 83.92 32.4255C83.8816 32.4415 83.84 32.4511 83.7984 32.4511V32.4479ZM58.3136 31.7023C58.224 31.7023 58.1344 31.6639 58.0736 31.5935C57.648 31.1071 57.0464 30.7359 56.336 30.5247C56.1664 30.4735 56.0704 30.2975 56.1216 30.1279C56.1728 29.9583 56.3488 29.8623 56.5184 29.9135C57.3472 30.1599 58.0512 30.5951 58.5568 31.1743C58.672 31.3087 58.6592 31.5103 58.5248 31.6255C58.464 31.6799 58.3904 31.7055 58.3136 31.7055V31.7023ZM52.032 30.9567C51.904 30.9567 51.7824 30.8799 51.7344 30.7519C51.6704 30.5855 51.7536 30.4031 51.9168 30.3391C52.7328 30.0223 53.4656 29.8271 54.16 29.7407C54.3328 29.7183 54.496 29.8431 54.5184 30.0191C54.5408 30.1951 54.416 30.3551 54.24 30.3775C53.6 30.4575 52.9152 30.6399 52.1472 30.9375C52.1088 30.9535 52.0704 30.9599 52.032 30.9599V30.9567ZM87.9424 30.7007C87.8176 30.7007 87.7024 30.6271 87.648 30.5087C87.5776 30.3455 87.6512 30.1567 87.8144 30.0895C88.5024 29.7919 89.1904 29.4911 89.872 29.1903C90.032 29.1199 90.224 29.1903 90.2944 29.3535C90.3648 29.5167 90.2944 29.7055 90.1312 29.7759C89.4464 30.0767 88.7584 30.3775 88.0672 30.6751C88.0256 30.6943 87.984 30.7007 87.9392 30.7007H87.9424ZM92.0608 28.8895C91.9392 28.8895 91.8208 28.8191 91.7696 28.7007C91.6992 28.5407 91.7696 28.3487 91.9328 28.2783L93.9872 27.3631C94.1472 27.2927 94.3392 27.3631 94.4096 27.5263C94.48 27.6863 94.4096 27.8783 94.2464 27.9487L92.192 28.8639C92.1504 28.8831 92.1056 28.8927 92.0608 28.8927V28.8895ZM96.1728 27.0655C96.0512 27.0655 95.9328 26.9951 95.8784 26.8735C95.808 26.7103 95.8784 26.5215 96.0416 26.4511C96.7264 26.1471 97.4144 25.8463 98.1024 25.5487C98.2656 25.4783 98.4544 25.5519 98.5248 25.7151C98.5952 25.8783 98.5216 26.0671 98.3584 26.1375C97.6704 26.4383 96.9856 26.7391 96.3008 27.0399C96.2592 27.0591 96.2144 27.0687 96.1728 27.0687V27.0655ZM100.298 25.2703C100.173 25.2703 100.054 25.1967 100.003 25.0751C99.9328 24.9119 100.01 24.7231 100.173 24.6559C100.864 24.3615 101.555 24.0703 102.25 23.7823C102.413 23.7151 102.602 23.7919 102.669 23.9551C102.736 24.1183 102.659 24.3071 102.496 24.3743C101.805 24.6623 101.114 24.9535 100.426 25.2447C100.384 25.2607 100.342 25.2703 100.301 25.2703H100.298ZM104.451 23.5487C104.323 23.5487 104.205 23.4719 104.154 23.3471C104.086 23.1839 104.166 22.9983 104.333 22.9311C105.03 22.6527 105.728 22.3775 106.429 22.1087C106.592 22.0447 106.778 22.1279 106.842 22.2911C106.906 22.4575 106.822 22.6399 106.656 22.7039C105.958 22.9727 105.261 23.2447 104.566 23.5231C104.528 23.5391 104.486 23.5455 104.448 23.5455L104.451 23.5487ZM108.65 21.9391C108.518 21.9391 108.397 21.8591 108.349 21.7279C108.288 21.5615 108.374 21.3791 108.541 21.3183C109.261 21.0559 109.974 20.8031 110.666 20.5663C110.832 20.5087 111.014 20.5983 111.072 20.7647C111.13 20.9311 111.04 21.1135 110.874 21.1711C110.186 21.4079 109.475 21.6575 108.758 21.9199C108.723 21.9327 108.685 21.9391 108.65 21.9391ZM112.906 20.4831C112.771 20.4831 112.643 20.3967 112.602 20.2591C112.547 20.0895 112.64 19.9103 112.81 19.8559C113.536 19.6255 114.262 19.4047 114.97 19.1999C115.139 19.1519 115.315 19.2479 115.366 19.4175C115.414 19.5871 115.318 19.7663 115.149 19.8143C114.448 20.0191 113.725 20.2367 113.005 20.4671C112.973 20.4767 112.941 20.4831 112.909 20.4831H112.906ZM117.222 19.2287C117.082 19.2287 116.95 19.1327 116.912 18.9887C116.867 18.8191 116.97 18.6431 117.142 18.5983C117.878 18.4063 118.618 18.2239 119.334 18.0607C119.507 18.0223 119.68 18.1279 119.718 18.3007C119.757 18.4735 119.651 18.6431 119.478 18.6847C118.765 18.8479 118.035 19.0271 117.306 19.2159C117.28 19.2223 117.251 19.2255 117.226 19.2255L117.222 19.2287ZM121.606 18.2303C121.456 18.2303 121.322 18.1247 121.293 17.9711C121.261 17.7983 121.373 17.6287 121.546 17.5967C122.291 17.4527 123.04 17.3215 123.773 17.2063C123.949 17.1807 124.112 17.2991 124.138 17.4719C124.166 17.6479 124.045 17.8111 123.872 17.8367C123.149 17.9519 122.406 18.0799 121.67 18.2239C121.651 18.2271 121.629 18.2303 121.61 18.2303H121.606ZM126.048 17.5359C125.888 17.5359 125.75 17.4175 125.731 17.2543C125.712 17.0783 125.837 16.9183 126.013 16.8991C126.765 16.8095 127.523 16.7359 128.262 16.6815C128.438 16.6687 128.592 16.7999 128.605 16.9759C128.618 17.1519 128.486 17.3055 128.31 17.3183C127.578 17.3727 126.829 17.4463 126.086 17.5327C126.074 17.5327 126.061 17.5327 126.048 17.5327V17.5359Z" fill="#BCBEC0"/>
<path d="M27.984 48.5537C27.808 48.5537 27.664 48.4129 27.664 48.2369C27.664 48.0609 27.8048 47.9169 27.9808 47.9137C28.352 47.9105 28.7264 47.9041 29.0976 47.8977C29.2608 47.8913 29.4208 48.0353 29.424 48.2113C29.4272 48.3873 29.2864 48.5345 29.1104 48.5377C28.736 48.5441 28.3616 48.5505 27.9872 48.5537H27.984Z" fill="#BCBEC0"/>
<path d="M43.2224 136.886C42.3968 138.294 42.2144 139.904 42.0448 141.472C41.7664 144.061 41.52 146.809 42.9152 149.136C44.9888 152.589 49.92 153.955 54.4 154.72C70.2528 157.433 86.8672 156.793 102.32 152.877C104.483 152.329 106.72 151.664 108.246 150.259C110.851 147.862 110.586 144.169 110.16 140.921C109.91 139.014 109.456 136.829 107.494 135.862C106.464 135.353 105.222 135.302 104.035 135.267C86.9568 134.749 69.8656 134.544 52.7776 134.653C49.0624 134.675 45.2736 133.536 43.2192 136.883L43.2224 136.886Z" fill="#BCBEC0"/>
<path d="M106.886 135.917C105.83 128.24 102.288 120.95 96.9567 115.488C95.4911 113.987 93.8879 112.611 92.6559 110.902C91.424 109.193 90.5728 107.056 90.9024 104.953C91.4208 101.635 94.5088 99.5518 96.912 97.283C101.61 92.8414 104.285 86.4894 105.494 80.0382C106.451 74.9406 106.57 69.7342 106.512 64.531C106.483 61.987 104.883 59.747 102.538 58.9566C100.013 58.1054 97.4464 57.3854 94.8544 56.7998C89.4912 55.5838 67.2032 55.2094 61.8016 56.2398C59.1904 56.739 56.6016 57.3726 54.048 58.1374C51.68 58.8478 50.0032 61.0334 49.888 63.5742C49.6544 68.771 49.5968 73.9806 50.3808 79.107C51.3728 85.5966 53.8336 92.0318 58.3776 96.6302C60.7008 98.9822 63.7184 101.168 64.1248 104.502C64.3808 106.614 63.4624 108.723 62.1696 110.39C60.88 112.054 59.2288 113.376 57.7152 114.829C52.2016 120.109 48.416 127.273 47.1008 134.912C46.6816 137.353 46.544 140.019 47.76 142.157C48.7616 143.917 50.5344 145.046 52.288 145.997C59.776 150.054 93.7152 150.627 101.334 146.825C103.117 145.936 104.925 144.867 105.987 143.139C107.274 141.046 107.226 138.374 106.89 135.923L106.886 135.917Z" fill="#E6E7E8"/>
<path d="M48.3456 67.3184C48.3392 68.1728 48.3616 69.0976 48.848 69.8048C49.3984 70.608 50.4 70.9472 51.3376 71.2064C60.32 73.6928 69.7856 73.6512 79.104 73.4624C87.9072 73.2832 96.8352 72.9728 105.245 70.3712C105.853 70.1824 106.509 69.9424 106.829 69.3952C107.085 68.9568 107.069 68.416 107.046 67.9072C106.938 65.5776 106.829 63.2448 106.717 60.9152C106.666 59.8208 106.08 58.8128 105.136 58.2528C101.149 55.888 96.3168 55.1424 91.6608 54.6272C78.2656 53.1488 64.1536 52.9824 51.4368 58.0544C49.4656 58.8416 49.296 59.2192 48.9184 61.2768C48.5504 63.2704 48.3616 65.2896 48.3456 67.3184Z" fill="#BCBEC0"/>
<path d="M79.4752 64.32C76.6336 64.32 73.8048 64.2208 71.024 64.1248C65.6864 63.9392 60.1696 63.7504 54.8224 62.7104C54.0512 62.56 53.3088 62.3905 52.6912 61.9424C52.1056 61.52 51.584 60.688 51.8176 59.856C52.048 59.0304 52.88 58.5856 53.6608 58.2592C57.2256 56.768 60.6048 55.904 63.6992 55.6896C76.64 54.7936 89.3536 55.4208 101.482 57.5552C102.614 57.7536 103.267 58.2784 103.229 58.9568C103.19 59.5904 102.557 59.968 102.08 60.1952C97.7568 62.2656 92.7616 63.5232 86.8064 64.0352C84.3712 64.2432 81.9168 64.3168 79.472 64.3168L79.4752 64.32ZM53.7856 58.5536C53.0752 58.8512 52.32 59.248 52.1248 59.9425C51.9328 60.624 52.3808 61.3216 52.8768 61.6832C53.44 62.0896 54.1472 62.2528 54.88 62.3968C60.2016 63.4304 65.7088 63.6224 71.0336 63.808C76.1984 63.9872 81.5392 64.1728 86.7808 63.7216C92.6944 63.2128 97.6544 61.968 101.942 59.9136C102.346 59.7216 102.883 59.4112 102.909 58.944C102.954 58.2016 101.786 57.9392 101.424 57.8752C89.3184 55.744 76.6336 55.1168 63.7184 56.0128C60.6592 56.224 57.3152 57.0816 53.7824 58.5568L53.7856 58.5536Z" fill="white"/>
<path d="M56.1184 143.498C58.4992 144.448 61.104 144.65 63.6672 144.781C74.0768 145.315 84.5696 144.877 94.7968 142.861C96.2848 142.566 97.7984 142.23 99.104 141.453C100.41 140.675 101.491 139.379 101.632 137.869C101.792 136.16 100.768 134.582 99.696 133.242C98.2752 131.462 96.4544 129.696 94.1792 129.574C92.4224 129.478 90.608 130.397 88.9536 129.792C87.3024 129.19 86.4736 127.299 84.944 126.435C82.7936 125.222 80.1184 126.394 78.0064 127.67C73.52 130.381 69.216 133.674 64.112 134.867C61.8112 135.405 59.4336 135.491 57.1104 135.92C55.4848 136.221 51.1744 137.066 51.3248 139.293C51.4528 141.168 54.64 142.909 56.1216 143.501L56.1184 143.498Z" fill="#AF93A2"/>
<path d="M68.8 103.578C69.5552 105.13 70.16 106.867 71.5424 107.898C72.5824 108.672 74.0256 109.014 74.6656 110.144C75.2256 111.13 74.992 112.448 75.6576 113.366C76.5216 114.563 78.4704 114.368 79.6032 113.421C80.736 112.474 81.312 111.04 82.016 109.741C85.1584 103.952 91.2768 100.422 95.2544 95.1744C96.5792 93.4272 97.632 90.88 96.2592 89.1712C95.6224 88.3776 94.6112 87.9968 93.6416 87.6832C86.4128 85.3344 78.6592 84.6592 71.1232 85.616C67.2768 86.1056 63.4272 86.992 59.8016 88.3744C55.648 89.9584 58.6304 92.1376 60.9408 94.1888C64.0096 96.912 66.9792 99.8432 68.7968 103.581L68.8 103.578Z" fill="#AF93A2"/>
<path d="M77.0464 94.3203C71.1616 94.3203 65.2735 92.9923 60.0031 90.3331C59.9231 90.2947 59.8911 90.1955 59.9327 90.1187C59.9711 90.0387 60.0704 90.0067 60.1472 90.0483C70.7744 95.4115 83.9296 95.3123 94.4736 89.7859C94.5504 89.7443 94.6495 89.7763 94.688 89.8531C94.7295 89.9299 94.6976 90.0291 94.6208 90.0707C89.216 92.9027 83.1295 94.3203 77.0431 94.3203H77.0464Z" fill="white"/>
<path d="M74.9184 117.799C74.6432 118.164 74.4 118.573 74.3552 119.028C74.3104 119.482 74.496 119.984 74.8992 120.199C75.4272 120.48 76.1216 120.154 76.4288 119.639C76.736 119.124 76.7456 118.49 76.7008 117.892C76.6784 117.61 76.6432 117.319 76.4928 117.082C75.9168 116.173 75.2768 117.335 74.9248 117.799H74.9184Z" fill="#AF93A2"/>
<path d="M77.7984 123.978C77.792 124.496 78.4064 124.87 78.912 124.739C79.4176 124.608 79.7568 124.115 79.8624 123.606C79.968 123.091 79.7472 121.773 78.9536 122.016C78.576 122.131 77.8048 123.613 77.8016 123.978H77.7984Z" fill="#AF93A2"/>
<path d="M70.7776 128.355C70.672 128.576 70.576 128.806 70.56 129.05C70.544 129.293 70.6176 129.552 70.8 129.715C71.0176 129.91 71.3536 129.926 71.6256 129.821C71.8976 129.715 72.1184 129.507 72.3104 129.286C72.6688 128.877 72.9568 128.41 73.1616 127.907C73.2576 127.667 73.3376 127.414 73.328 127.158C73.2992 126.483 72.6528 126.262 72.1216 126.57C71.5456 126.902 71.0592 127.779 70.7776 128.355Z" fill="#AF93A2"/>
<path d="M98.9056 29.0432C99.4336 29.248 99.7696 29.7952 99.8752 30.352C99.9808 30.9088 99.8944 31.4816 99.808 32.0416C98.6784 39.3024 97.4016 46.5376 95.9712 53.744C95.5328 53.8304 95.0848 53.9168 94.64 53.8688C94.1952 53.8208 93.744 53.6192 93.5072 53.2416C93.2384 52.816 93.2832 52.2688 93.3376 51.7664C93.7824 47.7696 94.2272 43.776 94.672 39.7792C94.9344 37.4304 95.1936 35.0784 95.6704 32.7648C95.84 31.9328 95.9232 30.7168 96.4416 30.016C96.9312 29.3568 98.096 28.7296 98.9056 29.0432Z" fill="#292E54"/>
<path d="M104.944 100.601C105.306 101.376 105.6 102.384 105.021 103.014C104.397 103.692 103.286 103.392 102.438 103.03C99.456 101.753 96.544 100.307 93.7216 98.7035C92.528 98.0251 91.2 97.0811 91.1808 95.7051C91.1616 94.3227 92.4672 93.3403 93.6352 92.6011C94.736 91.9035 96.1952 90.9627 97.5744 91.3403C98.64 91.6315 99.344 92.8123 100.08 93.5867C102.058 95.6699 103.725 97.9899 104.947 100.598L104.944 100.601Z" fill="#3C4368"/>
<path d="M110.95 60.4863C111.376 60.9951 111.795 61.6927 111.485 62.2815C111.152 62.9119 110.259 62.9055 109.555 62.8031C107.069 62.4351 104.602 61.9263 102.173 61.2831C101.142 61.0111 99.9648 60.5631 99.6768 59.5391C99.3888 58.5087 100.173 57.5135 100.902 56.7295C101.59 55.9903 102.496 54.9983 103.606 55.0079C104.461 55.0175 105.222 55.7599 105.926 56.1951C107.818 57.3663 109.526 58.7743 110.957 60.4863H110.95Z" fill="#3C4368"/>
<path d="M97.248 4.52768C95.9776 3.68608 94.1792 3.41088 92.5056 3.80128C89.6992 4.45728 87.728 6.71328 86.2432 8.87648C84.7584 11.0397 83.3504 13.4077 80.864 14.7837C77.6704 16.5533 73.4048 16.2621 70.432 18.3005C70.0032 18.5949 69.6064 18.9437 69.3984 19.3661C69.1904 19.7885 69.2096 20.2973 69.5552 20.6013C70.3104 19.7309 71.5648 19.1677 72.7872 19.1517C70.4064 20.1117 69.1744 22.7389 70.0224 24.6813C70.8704 26.6237 73.504 27.7085 76.048 27.3565C75.216 27.2285 74.6496 26.4925 74.8288 25.7693C75.008 25.0461 75.9072 24.4477 76.7616 24.4797C75.744 25.2285 76.0448 26.6557 77.0176 27.2861C77.9904 27.9165 79.3504 27.9709 80.6304 28.0061C79.7024 27.4397 79.8848 26.0893 80.7488 25.3117C81.6128 24.5341 82.9024 24.2301 84.1088 24.1405C85.3152 24.0509 86.5216 24.1341 87.7216 23.9389C89.3728 23.6701 90.9152 22.8893 92.2208 21.9261C93.5264 20.9629 94.6208 19.8141 95.6992 18.6685C97.1936 17.0813 98.6976 15.4461 99.52 13.5805C100.077 12.3165 100.282 10.9213 99.92 9.67328C99.7536 9.10368 99.2608 8.62368 99.1328 8.06688C98.9888 7.43328 99.0336 6.82848 98.7392 6.21728C98.4192 5.55488 97.9104 4.96928 97.2512 4.53088L97.248 4.52768Z" fill="#292E54"/>
<path d="M95.4272 7.36603C96.3488 7.43963 97.2896 7.61563 98.0672 8.11483C99.2128 8.85403 99.8272 10.182 100.234 11.4844C101.261 14.7516 101.35 18.3068 100.49 21.622C100.077 23.2124 99.2096 24.9596 97.6 25.2828C95.9136 25.622 94.4096 24.2204 93.36 22.854C90.9536 19.7212 89.1552 16.1212 88.096 12.3164C87.6512 10.7132 87.4048 9.16443 89.0496 8.33243C90.9056 7.39163 93.3888 7.20283 95.4208 7.36603H95.4272Z" fill="#FFDE91"/>
<path d="M97.5008 15.6767C97.4688 15.8815 97.3376 16.1247 97.1328 16.1055C96.9568 16.0895 96.8576 15.9007 96.7904 15.7343C96.6944 15.4911 96.5952 15.2351 96.6208 14.9727C96.6496 14.6911 96.9248 14.3167 97.2128 14.4959C97.5008 14.6751 97.5456 15.3919 97.504 15.6767H97.5008Z" fill="#292E54"/>
<path d="M99.3248 15.542C99.2928 15.7468 99.1616 15.99 98.9568 15.9708C98.7808 15.9548 98.6816 15.766 98.6144 15.5996C98.5184 15.3564 98.4192 15.1004 98.4448 14.838C98.4736 14.5564 98.7488 14.182 99.0368 14.3612C99.3248 14.5404 99.3696 15.2572 99.328 15.542H99.3248Z" fill="#292E54"/>
<path d="M97.0592 22.1119C97.1264 22.1791 97.2224 22.2527 97.3088 22.2111C97.3856 22.1759 97.3984 22.0767 97.3984 21.9935C97.3984 21.5807 97.2864 21.1615 97.0304 20.8383C96.7744 20.5151 96.3712 20.2975 95.9584 20.3199C95.4432 20.3455 94.7872 20.8703 95.4816 21.1615C96.0672 21.4079 96.5952 21.6607 97.0592 22.1119Z" fill="#292E54"/>
<path d="M91.3696 18.3968C88.9472 21.6352 85.2896 23.6672 81.5264 23.8656C81.3568 23.8752 81.168 23.872 81.0464 23.7408C80.8576 23.5392 80.944 23.1904 81.0464 22.9216C82.3712 19.3696 83.696 15.8144 85.0208 12.2624C85.6096 10.688 86.2304 9.05599 87.3664 7.92319C88.3072 6.98559 89.504 6.49919 90.7296 6.26879C91.5872 6.10559 93.36 5.67039 94.1024 6.35839C94.8448 7.04639 94.592 8.69119 94.5344 9.58079C94.4352 11.072 94.144 12.5472 93.6768 13.9456C93.136 15.5584 92.3584 17.0752 91.3728 18.3968H91.3696Z" fill="#292E54"/>
<path d="M93.312 16.3387C93.1008 15.8875 92.8832 15.4267 92.5312 15.0779C92.176 14.7291 91.6544 14.5083 91.1776 14.6459C90.8128 14.7515 90.5248 15.0491 90.3808 15.4011C90.2368 15.7499 90.2272 16.1435 90.2912 16.5179C90.496 17.6891 91.4944 18.6811 92.6688 18.8763" fill="#FFDE91"/>
<path d="M102.56 6.67808C103.443 7.90368 103.731 9.47168 103.379 10.9437C103.286 11.3405 103.114 11.7981 102.637 11.8493C102.413 11.8717 102.192 11.7853 102.022 11.6349C101.651 11.3085 101.558 10.8189 101.478 10.3549C101.606 10.8157 101.606 11.3053 101.498 11.7693C101.366 12.3197 100.643 12.4541 100.317 11.9901L97.8688 8.50848C98.2112 10.1021 97.7248 11.8429 96.6464 13.0589C96.4224 13.3117 96 13.1645 95.968 12.8285L95.8912 11.9965C95.44 12.8925 94.9408 13.8429 93.9712 14.2397C93.4176 14.4669 92.7712 14.4189 92.32 14.0253C91.7664 13.5421 91.84 12.8445 91.9264 12.2077C92.0672 11.1613 92.2048 10.1181 92.3456 9.07168C92.4608 8.19808 92.592 7.28928 93.0848 6.55968C93.5776 5.83008 94.5504 5.34048 95.3632 5.68928C94.8704 5.47808 96.2944 4.24608 96.512 4.17888C97.1584 3.98048 97.5648 4.28128 98.1568 4.43168C99.8816 4.86368 101.312 4.94368 102.563 6.68128L102.56 6.67808Z" fill="#3C4368"/>
<path d="M78.8672 50.5757C78.5408 51.8237 78.3008 53.2317 79.0368 54.3197C79.5904 55.1357 80.6048 55.5965 81.6256 55.7405C82.6464 55.8845 83.6864 55.7565 84.7104 55.6285C86.8448 55.3597 88.976 55.0909 91.1104 54.8221C92.8224 54.6077 94.7008 54.3101 95.808 53.0685C96.896 51.8525 96.8992 50.1085 96.88 48.5245C96.8192 43.4205 97.1168 38.3133 97.7664 33.2445C98.0192 31.2765 98.2144 27.9997 95.4656 27.3821C93.4464 26.9277 91.5776 29.7501 90.3776 30.9277C86.816 34.4253 83.8848 38.4829 81.7344 42.8733C80.5216 45.35 79.5552 47.9325 78.864 50.5757H78.8672Z" fill="#3C4368"/>
<path d="M104.467 40.0253C105.546 39.3693 106.694 38.7613 108.003 38.8093C108.49 38.8253 109.226 39.0749 109.629 39.3501C111.056 40.3229 111.44 41.9069 111.126 43.4781C110.208 48.0445 108.086 52.8349 106.067 57.0333C104.202 56.2429 104.096 56.6301 102.234 55.8429L105.155 49.6189C105.296 49.2285 105.37 48.8125 105.331 48.3997C105.184 46.8349 103.859 46.7165 102.986 47.1997C102.445 47.5005 102.038 47.9869 101.645 48.4669L93.5232 56.8957C92.7904 57.7885 92.848 59.1037 93.6768 59.9037C97.488 63.5837 99.5008 68.9661 100.032 74.2909C100.63 80.2941 99.5712 86.3229 98.5152 92.2621L93.664 93.3949C94.1632 88.0445 94.6624 82.6397 93.9264 77.3181C93.1904 71.9965 91.0944 66.6845 87.1296 63.0589C85.7408 61.7853 84.1248 60.7197 83.328 58.9117C83.088 58.3677 82.96 57.7725 82.9952 57.1805C83.136 54.9277 85.1872 54.0957 87.0016 53.4685C88.8192 52.8413 91.344 52.4317 92.9152 51.3117C94.0544 50.4989 94.752 48.8637 95.6224 47.7821C98.1408 44.6557 101.142 42.2429 104.461 40.0317L104.467 40.0253Z" fill="#D6B2A4"/>
<path d="M104.368 37.5166C104.819 37.1038 105.504 36.7198 106.003 37.0782C106.374 37.3438 106.406 37.9102 106.202 38.3198C105.997 38.7262 105.613 39.011 105.245 39.2798C106.803 37.8974 108.768 36.9822 110.829 36.6782C111.69 36.5502 112.746 36.6206 113.181 37.3726C113.491 37.9102 113.344 38.6174 112.982 39.123C112.621 39.6286 112.083 39.9742 111.562 40.307C112.506 39.9902 113.565 40.8222 113.699 41.8078C113.834 42.7934 113.232 43.7694 112.41 44.3294C111.587 44.8894 110.586 45.107 109.6 45.2478C108.614 45.3886 107.613 45.4654 106.672 45.7918C105.722 46.1214 104.858 46.7006 103.878 46.9374C98.2496 48.291 102.608 39.1262 104.368 37.5198V37.5166Z" fill="#FFDE91"/>
<path d="M90.752 27.7369C91.872 27.1641 93.5872 26.8761 94 28.2201C94.176 28.7961 94 29.4265 93.5904 29.8681C91.3632 32.2713 88.6848 34.2105 86.4416 36.5913C83.9808 39.2025 81.9936 42.5177 82.4256 46.2393C82.6112 47.8297 83.3024 49.3401 84.4704 50.4313C87.4304 53.1961 91.4432 51.9609 94.2592 49.8297C96.224 48.3449 97.8432 46.4409 99.7344 44.8665C100.218 44.4633 100.941 44.4921 101.382 44.9433C102.173 45.7465 102.813 46.6905 102.678 47.7689C102.554 48.7673 101.786 49.5417 101.059 50.2361C97.3952 53.7433 93.296 57.4489 88.2368 57.8137C85.8464 57.9865 83.44 57.3657 81.28 56.3257C79.5104 55.4745 77.7952 54.2425 77.0304 52.4313C76.2368 50.5593 76.5952 48.4121 77.1168 46.4505C79.1328 38.8633 83.5392 31.4105 90.752 27.7337V27.7369Z" fill="#292E54"/>
<path d="M92.8128 40.6784C92.7328 40.6784 92.656 40.672 92.576 40.6592C91.7952 40.5312 91.1488 39.7664 91.1008 38.9152C91.056 38.1536 91.5008 37.4144 92.1536 37.1552C92.512 37.0144 92.9152 37.024 93.2768 37.1584C93.2512 37.1104 93.2256 37.0656 93.2 37.0176C93.0688 36.7776 92.9312 36.528 92.8128 36.2688C92.5408 35.6704 92.4544 35.1584 92.5504 34.7008C92.6304 34.3136 92.8448 33.9488 93.1776 33.6448C93.4976 33.3504 93.8592 33.1712 94.224 33.1264C94.6624 33.072 95.104 33.2192 95.408 33.52C95.7472 33.8592 95.8944 34.3808 95.7696 34.8224C95.6928 35.0944 95.5328 35.296 95.392 35.4784L95.344 35.5392C95.2288 35.6864 95.1232 35.8464 95.1136 36.0064C95.1072 36.1024 95.1648 36.192 95.1936 36.2048C95.3696 36.2048 95.504 36.352 95.5008 36.528C95.5008 36.704 95.3408 36.8416 95.168 36.8416C94.9984 36.8416 94.8352 36.7648 94.7104 36.6272C94.5536 36.4576 94.464 36.208 94.4736 35.9712C94.4928 35.6352 94.6656 35.3664 94.8352 35.1456L94.8832 35.0816C94.9984 34.9344 95.1072 34.7968 95.1488 34.6464C95.2096 34.4288 95.1264 34.1472 94.9536 33.9744C94.7872 33.8112 94.544 33.7312 94.2976 33.76C94.0032 33.7952 93.76 33.9744 93.6064 34.1152C93.4464 34.2624 93.2384 34.5056 93.1744 34.8288C93.1104 35.1488 93.1808 35.5328 93.3952 36.0032C93.504 36.24 93.6288 36.4672 93.76 36.7072C93.904 36.9728 94.0544 37.2448 94.1824 37.536C94.4832 38.2336 94.56 38.8864 94.4032 39.4304C94.192 40.1664 93.52 40.6752 92.8128 40.6752V40.6784ZM92.6944 37.6928C92.5888 37.6928 92.4832 37.712 92.3872 37.7504C91.9904 37.9072 91.7088 38.3936 91.7376 38.88C91.7696 39.424 92.1984 39.9488 92.6784 40.0288C93.1456 40.1056 93.6416 39.76 93.7856 39.2576C93.8784 38.9344 93.8432 38.5824 93.7568 38.2688C93.6768 38.256 93.6 38.2112 93.5456 38.1408C93.3408 37.8592 93.008 37.696 92.6912 37.696L92.6944 37.6928Z" fill="white"/>
<path d="M106.243 43.0362C106.198 43.0362 106.154 43.017 106.122 42.9818C106.064 42.9146 106.07 42.8154 106.138 42.7546C107.728 41.3722 109.661 40.4346 111.731 40.0378C111.818 40.0218 111.901 40.0794 111.917 40.1658C111.933 40.2522 111.875 40.3354 111.789 40.3546C109.776 40.7386 107.894 41.6538 106.346 42.9978C106.317 43.0234 106.278 43.0362 106.24 43.0362H106.243Z" fill="white"/>
<path d="M40.9408 20.1376C41.0656 19.0336 41.4304 17.9744 41.792 16.9248C41.632 17.3824 41.8688 17.8944 42.2176 18.2304C42.5664 18.5664 43.0144 18.7744 43.4208 19.0336C44.9888 20.0352 46.9728 22.992 44.4896 24.1088C41.8496 25.296 40.7072 22.2432 40.944 20.1376H40.9408Z" fill="#FFDE91"/>
<path d="M46.4704 25.5099C46.4416 25.5099 46.4096 25.5035 46.3808 25.4939C44.7872 24.8763 43.52 23.4683 43.072 21.8171C43.0368 21.6859 43.1136 21.5515 43.2448 21.5163C43.376 21.4811 43.5104 21.5579 43.5456 21.6891C43.952 23.1899 45.1072 24.4731 46.5568 25.0363C46.6816 25.0843 46.7456 25.2283 46.6976 25.3531C46.6592 25.4492 46.5664 25.5099 46.4704 25.5099Z" fill="#AF93A2"/>
<path d="M31.408 63.7792C30.4608 63.4336 29.6032 62.88 28.752 62.3328C29.12 62.5728 29.6256 62.4736 29.9968 62.2368C30.368 62 30.6496 61.6512 30.9664 61.3472C32.192 60.176 35.232 59.0624 35.6832 61.4976C36.1632 64.0864 33.2192 64.4384 31.4048 63.776L31.408 63.7792Z" fill="#FFDE91"/>
<path d="M37.3504 60.0478C37.344 60.0734 37.3344 60.099 37.3152 60.1214C36.4256 61.3982 34.9056 62.2142 33.3504 62.2526C33.2256 62.2526 33.1232 62.1598 33.1232 62.035C33.1232 61.9134 33.216 61.8078 33.3408 61.8078C34.7552 61.7726 36.1408 61.0302 36.9504 59.8686C37.0208 59.7662 37.1616 59.7438 37.2608 59.8142C37.3376 59.8686 37.3696 59.9646 37.3504 60.051V60.0478Z" fill="#AF93A2"/>
<path d="M127.568 28.7267C125.955 28.1091 124.234 27.8531 122.525 27.6035C123.27 27.7091 123.808 28.4035 124.022 29.1235C124.237 29.8435 124.202 30.6115 124.269 31.3603C124.531 34.2435 127.194 39.0979 130.515 36.4675C134.045 33.6739 130.646 29.9107 127.568 28.7267Z" fill="#FFDE91"/>
<path d="M131.03 40.2084C131.053 40.1668 131.066 40.122 131.072 40.074C131.36 37.4308 130.32 34.6724 128.362 32.8772C128.208 32.7332 127.965 32.746 127.824 32.8996C127.683 33.0532 127.693 33.2964 127.846 33.4372C129.629 35.0724 130.576 37.5844 130.314 39.9908C130.291 40.1988 130.442 40.3876 130.653 40.41C130.813 40.426 130.963 40.3428 131.034 40.2052L131.03 40.2084Z" fill="#AF93A2"/>
</svg>
