<svg width="110" height="110" viewBox="0 0 110 110" fill="none" xmlns="http://www.w3.org/2000/svg">
<g clip-path="url(#clip0_1849_4333)">
<path d="M55 110C85.3757 110 110 85.3757 110 55C110 24.6243 85.3757 0 55 0C24.6243 0 0 24.6243 0 55C0 85.3757 24.6243 110 55 110Z" fill="#F2E6DC"/>
<path d="M14.2941 62.8065C14.2935 62.8065 14.2929 62.8065 14.2923 62.8065L10.0679 62.7464C10.033 62.7458 9.99934 62.7314 9.9747 62.7062C9.95005 62.6809 9.93683 62.6473 9.93743 62.6118L9.96448 60.7039C9.38142 60.5278 8.8194 60.2856 8.29043 59.9826L6.92235 61.3122C6.87005 61.3633 6.7859 61.3621 6.73481 61.3098L3.79065 58.2803C3.76601 58.2551 3.75278 58.2214 3.75338 58.1859C3.75399 58.1511 3.76841 58.1174 3.79366 58.0928L5.16175 56.7632C4.87442 56.2258 4.64841 55.6571 4.48852 55.0693L2.58065 55.0422C2.54579 55.0416 2.51213 55.0272 2.48748 55.002C2.46284 54.9767 2.44961 54.943 2.45021 54.9076L2.51032 50.6831C2.51153 50.6098 2.57164 50.5539 2.64497 50.5527L4.55284 50.5797C4.72896 49.9967 4.9712 49.4346 5.27415 48.9057L3.94453 47.5376C3.89344 47.4853 3.89464 47.4011 3.94754 47.35L6.97705 44.4059C7.00229 44.3812 7.03655 44.3686 7.07142 44.3686C7.10628 44.3692 7.13994 44.3836 7.16459 44.4089L8.4942 45.777C9.03158 45.4897 9.60021 45.2636 10.1881 45.1038L10.2151 43.1959C10.2163 43.1226 10.2734 43.0642 10.3498 43.0654L14.5743 43.1256C14.6091 43.1262 14.6428 43.1406 14.6674 43.1658C14.6921 43.1911 14.7053 43.2247 14.7047 43.2602L14.6776 45.1681C15.2607 45.3442 15.8227 45.5864 16.3517 45.8894L17.7198 44.5598C17.745 44.5351 17.7823 44.5231 17.8141 44.5225C17.849 44.5231 17.8827 44.5375 17.9073 44.5628L20.8515 47.5923C20.9026 47.6446 20.9014 47.7287 20.8485 47.7798L19.4804 49.1094C19.7677 49.6462 19.9937 50.2154 20.1536 50.8033L22.0615 50.8304C22.0963 50.831 22.13 50.8454 22.1546 50.8706C22.1793 50.8959 22.1925 50.9295 22.1919 50.965L22.1318 55.1895C22.1306 55.2628 22.0741 55.3205 21.9972 55.3199L20.0893 55.2929C19.9132 55.8759 19.6709 56.438 19.368 56.9669L20.6976 58.335C20.7487 58.3873 20.7475 58.4715 20.6946 58.5225L17.6651 61.4667C17.6398 61.4914 17.6062 61.5046 17.5707 61.504C17.5358 61.5034 17.5022 61.4889 17.4775 61.4637L16.1479 60.0956C15.6105 60.3829 15.0419 60.6089 14.454 60.7688L14.427 62.6767C14.4258 62.7482 14.3669 62.8065 14.2941 62.8065ZM10.2043 62.4832L14.1637 62.5397L14.1908 60.6636C14.1914 60.6041 14.2322 60.5524 14.2899 60.5374C14.9235 60.3739 15.536 60.1305 16.1088 59.8143C16.1611 59.7854 16.2261 59.7951 16.2681 59.8377L17.5755 61.183L20.4151 58.4234L19.1077 57.0781C19.0662 57.0354 19.0584 56.9699 19.0885 56.9182C19.4209 56.3544 19.6817 55.7491 19.8633 55.1204C19.8801 55.0633 19.9336 55.0248 19.9925 55.0248L21.8685 55.0518L21.925 51.0924L20.049 51.0654C19.9895 51.0648 19.9378 51.0239 19.9228 50.9662C19.7593 50.3321 19.5158 49.7201 19.1997 49.1473C19.1708 49.095 19.1804 49.0301 19.2231 48.988L20.5684 47.6806L17.8087 44.8417L16.4635 46.1491C16.4208 46.1905 16.3553 46.1983 16.3036 46.1683C15.7398 45.8359 15.1345 45.575 14.5057 45.3935C14.4486 45.3766 14.409 45.3238 14.4102 45.2642L14.4372 43.3882L10.4778 43.3317L10.4508 45.2077C10.4502 45.2673 10.4093 45.3189 10.3516 45.334C9.71803 45.4975 9.10552 45.7409 8.53267 46.0571C8.48038 46.0859 8.41546 46.0763 8.37338 46.0336L7.06601 44.6884L4.22644 47.448L5.53382 48.7933C5.5753 48.8359 5.58311 48.9015 5.55306 48.9532C5.22065 49.5176 4.95978 50.1223 4.77825 50.751C4.76142 50.8087 4.71093 50.8484 4.64901 50.8466L2.773 50.8195L2.7165 54.7789L4.59251 54.806C4.65202 54.8066 4.70431 54.8475 4.71874 54.9052C4.88224 55.5387 5.12568 56.1512 5.44185 56.7241C5.47071 56.7764 5.46109 56.8413 5.41841 56.8834L4.07317 58.1907L6.83278 61.0303L8.17803 59.7229C8.22071 59.6815 8.28623 59.6736 8.33792 59.7037C8.90175 60.0361 9.50704 60.297 10.1358 60.4785C10.1929 60.4953 10.2326 60.5482 10.2314 60.6077L10.2043 62.4832ZM12.322 57.4634C11.1402 57.4634 9.95967 57.0054 9.07306 56.0929C7.33229 54.3017 7.37377 51.4285 9.16442 49.6877C10.9557 47.9469 13.8289 47.9884 15.5697 49.7791C17.3104 51.5703 17.269 54.4435 15.4783 56.1843C14.5989 57.0385 13.4598 57.4634 12.322 57.4634ZM12.3208 48.673C11.249 48.673 10.1767 49.0734 9.34896 49.877C7.66289 51.5156 7.62382 54.2211 9.263 55.9072C10.9016 57.5939 13.6071 57.6323 15.2932 55.9938C16.9792 54.3552 17.0183 51.6497 15.3791 49.9636C14.5448 49.1046 13.4328 48.673 12.3208 48.673Z" fill="#D3BBA3"/>
<path d="M45.4727 72.2128C63.8837 72.2128 78.8087 57.2878 78.8087 38.8768C78.8087 20.4658 63.8837 5.54077 45.4727 5.54077C27.0618 5.54077 12.1367 20.4658 12.1367 38.8768C12.1367 57.2878 27.0618 72.2128 45.4727 72.2128Z" fill="#E6D0BE"/>
<path d="M50.3066 72.3457C50.2399 72.3457 50.175 72.3457 50.1083 72.3451C41.1688 72.2934 32.7842 68.7637 26.4992 62.406C20.2147 56.0482 16.7819 47.6239 16.8336 38.6839C16.8853 29.7444 20.4149 21.3598 26.7727 15.0747C33.0823 8.83719 41.4309 5.40796 50.2958 5.40796C50.3625 5.40796 50.4275 5.40796 50.4942 5.40856C59.4336 5.46025 67.8183 8.98987 74.1033 15.3476C80.3883 21.7054 83.8212 30.1297 83.7695 39.0698C83.7178 48.0092 80.1882 56.3939 73.8304 62.6789C67.5201 68.9164 59.1722 72.3457 50.3066 72.3457ZM50.2982 5.67304C32.0773 5.67304 17.2033 20.4407 17.0981 38.6857C17.0476 47.5548 20.4534 55.9124 26.6885 62.2197C32.9236 68.5269 41.2416 72.0289 50.1107 72.08C58.9798 72.1329 67.3374 68.7253 73.6447 62.4901C79.9519 56.255 83.4539 47.9371 83.505 39.068C83.6102 20.7599 68.8017 5.77943 50.493 5.67364C50.4287 5.67364 50.3619 5.67304 50.2982 5.67304Z" fill="white"/>
<path d="M50.3593 22.839C41.1013 22.839 32.0014 21.2804 24.0429 18.3314C23.9744 18.3062 23.9395 18.2298 23.9648 18.1613C23.99 18.0928 24.0663 18.0579 24.1349 18.0832C32.0639 21.0213 41.132 22.5745 50.3593 22.5745C59.5158 22.5745 68.5232 21.0436 76.4083 18.1475C76.4768 18.1222 76.5532 18.1577 76.5784 18.2262C76.6037 18.2948 76.5682 18.3711 76.4997 18.3963C68.5863 21.3026 59.5465 22.839 50.3593 22.839Z" fill="white"/>
<path d="M23.7847 59.2178C23.7312 59.2178 23.6807 59.1854 23.6609 59.1319C23.635 59.0633 23.6699 58.987 23.7384 58.9612C31.772 55.9377 40.9778 54.3394 50.3596 54.3394C59.691 54.3394 68.8534 55.9214 76.857 58.9149C76.9255 58.9407 76.9604 59.0171 76.9345 59.0856C76.9087 59.1541 76.8323 59.189 76.7638 59.1631C68.7903 56.1811 59.6597 54.6044 50.3596 54.6044C41.009 54.6044 31.8357 56.1967 23.831 59.2094C23.816 59.2154 23.7997 59.2178 23.7847 59.2178Z" fill="white"/>
<path d="M50.3014 72.3456C45.6267 72.3456 41.2382 68.8526 37.9454 62.5105C34.667 56.1954 32.8613 47.8023 32.8613 38.8773C32.8613 29.9523 34.667 21.5592 37.9454 15.2441C41.2388 8.9008 45.6267 5.40845 50.3014 5.40845C54.9761 5.40845 59.3641 8.9014 62.6575 15.2435C65.9359 21.5586 67.7415 29.9517 67.7415 38.8767C67.7415 47.8017 65.9359 56.1948 62.6575 62.5099C59.3647 68.8526 54.9767 72.3456 50.3014 72.3456ZM50.3014 5.67293C40.8312 5.67293 33.1264 20.568 33.1264 38.8767C33.1264 57.1854 40.8312 72.0805 50.3014 72.0805C59.7717 72.0805 67.4765 57.1854 67.4765 38.8767C67.4765 20.568 59.7717 5.67293 50.3014 5.67293Z" fill="white"/>
<path d="M50.3012 72.3012C50.2279 72.3012 50.1689 72.2417 50.1689 72.169V5.61173C50.1689 5.5384 50.2285 5.47949 50.3012 5.47949C50.3739 5.47949 50.4334 5.539 50.4334 5.61173V72.1684C50.434 72.2417 50.3745 72.3012 50.3012 72.3012Z" fill="white"/>
<path d="M83.6444 39.067C83.6438 39.067 83.6438 39.067 83.6432 39.067L16.9441 38.5471C16.8708 38.5465 16.8119 38.487 16.8125 38.4136C16.8131 38.3409 16.872 38.282 16.9447 38.282C16.9453 38.282 16.9453 38.282 16.9459 38.282L83.645 38.8019C83.7184 38.8025 83.7773 38.862 83.7767 38.9354C83.7767 39.0087 83.7172 39.067 83.6444 39.067Z" fill="white"/>
<path d="M108.06 88.8542H29.1786C29.1053 88.8542 29.0464 88.7947 29.0464 88.7219V28.933C29.0464 28.8597 29.1059 28.8008 29.1786 28.8008H46.0657C46.1391 28.8008 46.198 28.8603 46.198 28.933C46.198 29.0058 46.1385 29.0653 46.0657 29.0653H29.3115V88.5891H107.928V29.0653H71.3122C71.2389 29.0653 71.18 29.0058 71.18 28.933C71.18 28.8603 71.2395 28.8008 71.3122 28.8008H108.061C108.134 28.8008 108.193 28.8603 108.193 28.933V88.7213C108.192 88.7947 108.133 88.8542 108.06 88.8542Z" fill="#363E44"/>
<path d="M105.585 81.4521L105.585 31.4075L31.6535 31.4075L31.6535 81.4521L105.585 81.4521Z" fill="white"/>
<path d="M70.0635 85.1415C70.252 84.3435 69.7578 83.5438 68.9598 83.3554C68.1618 83.167 67.3621 83.6611 67.1737 84.4591C66.9853 85.2571 67.4794 86.0568 68.2774 86.2452C69.0754 86.4337 69.8751 85.9395 70.0635 85.1415Z" fill="white"/>
<path d="M76.9231 89.9067H74.5878C74.5878 91.6583 73.1675 93.0787 71.4159 93.0787H65.8239C64.0723 93.0787 62.6519 91.6583 62.6519 89.9067H60.3167L57.9814 102.318V103.356H79.2589V102.318L76.9231 89.9067Z" fill="#E6D0BE"/>
<path d="M79.2579 104.785H57.9804C57.907 104.785 57.8481 104.725 57.8481 104.653C57.8481 104.579 57.9076 104.521 57.9804 104.521H79.2579C79.3312 104.521 79.3901 104.58 79.3901 104.653C79.3901 104.725 79.3312 104.785 79.2579 104.785Z" fill="#E6D0BE"/>
<path d="M44.6681 48.9818H40.7201C40.6468 48.9818 40.5879 48.9222 40.5879 48.8495C40.5879 48.7768 40.6474 48.7173 40.7201 48.7173H44.5816L47.2744 46.7385H59.3871L62.2146 44.2938H74.7366L79.3446 40.3098C79.3999 40.2617 79.4834 40.2677 79.5315 40.3236C79.579 40.3789 79.5736 40.4625 79.5177 40.5105L74.8346 44.5589H62.3126L59.485 47.0036H47.361L44.6681 48.9818Z" fill="#D87355"/>
<path d="M47.535 52.975H36.4521C36.3787 52.975 36.3198 52.9155 36.3198 52.8428C36.3198 52.7695 36.3793 52.7106 36.4521 52.7106H47.4358L53.8609 47.1553H56.3921L58.5663 45.2756H68.3028L71.4994 48.0395H75.912C75.9853 48.0395 76.0443 48.099 76.0443 48.1717C76.0443 48.2444 75.9847 48.3039 75.912 48.3039H71.4008L68.2042 45.5401H58.6649L56.4907 47.4197H53.9601L47.535 52.975Z" fill="#EFBC73"/>
<path d="M71.5468 48.6203C71.8413 48.6203 72.08 48.4139 72.08 48.1593C72.08 47.9047 71.8413 47.6982 71.5468 47.6982C71.2524 47.6982 71.0137 47.9047 71.0137 48.1593C71.0137 48.4139 71.2524 48.6203 71.5468 48.6203Z" fill="#EFBC73"/>
<path d="M68.2133 45.822C68.5078 45.822 68.7465 45.6156 68.7465 45.3609C68.7465 45.1063 68.5078 44.8999 68.2133 44.8999C67.9189 44.8999 67.6802 45.1063 67.6802 45.3609C67.6802 45.6156 67.9189 45.822 68.2133 45.822Z" fill="#EFBC73"/>
<path d="M58.5776 45.822C58.8721 45.822 59.1108 45.6156 59.1108 45.3609C59.1108 45.1063 58.8721 44.8999 58.5776 44.8999C58.2831 44.8999 58.0444 45.1063 58.0444 45.3609C58.0444 45.6156 58.2831 45.822 58.5776 45.822Z" fill="#EFBC73"/>
<path d="M56.5649 47.7221C56.8594 47.7221 57.0981 47.5157 57.0981 47.2611C57.0981 47.0065 56.8594 46.8 56.5649 46.8C56.2704 46.8 56.0317 47.0065 56.0317 47.2611C56.0317 47.5157 56.2704 47.7221 56.5649 47.7221Z" fill="#EFBC73"/>
<path d="M53.9843 47.7546C54.2788 47.7546 54.5175 47.5482 54.5175 47.2936C54.5175 47.0389 54.2788 46.8325 53.9843 46.8325C53.6899 46.8325 53.4512 47.0389 53.4512 47.2936C53.4512 47.5482 53.6899 47.7546 53.9843 47.7546Z" fill="#EFBC73"/>
<path d="M47.5302 53.2326C47.8247 53.2326 48.0634 53.0262 48.0634 52.7716C48.0634 52.517 47.8247 52.3105 47.5302 52.3105C47.2358 52.3105 46.9971 52.517 46.9971 52.7716C46.9971 53.0262 47.2358 53.2326 47.5302 53.2326Z" fill="#EFBC73"/>
<path d="M47.8899 45.4968L47.7168 45.296L53.337 40.4368H70.0264L72.5107 38.2891L72.6844 38.4892L70.1249 40.7019H53.4356L47.8899 45.4968Z" fill="#D3BBA3"/>
<path d="M42.9848 49.7374H36.3848V49.4723H42.8862L47.7166 45.2959L47.8897 45.4961L42.9848 49.7374Z" fill="#D3BBA3"/>
<path d="M42.8208 50.0385C43.1152 50.0385 43.3539 49.8321 43.3539 49.5775C43.3539 49.3229 43.1152 49.1165 42.8208 49.1165C42.5263 49.1165 42.2876 49.3229 42.2876 49.5775C42.2876 49.8321 42.5263 50.0385 42.8208 50.0385Z" fill="#D3BBA3"/>
<path d="M70.1059 41.0603C70.4004 41.0603 70.6391 40.8538 70.6391 40.5992C70.6391 40.3446 70.4004 40.1382 70.1059 40.1382C69.8115 40.1382 69.5728 40.3446 69.5728 40.5992C69.5728 40.8538 69.8115 41.0603 70.1059 41.0603Z" fill="#D3BBA3"/>
<path d="M95.6583 55.9717H64.2734V78.2632H95.6583V55.9717Z" fill="#F2E6DC"/>
<path d="M95.6583 55.9717H64.2734V57.9499H95.6583V55.9717Z" fill="#E6D0BE"/>
<path d="M95.6592 78.3954H64.2743C64.201 78.3954 64.1421 78.3359 64.1421 78.2631V55.9716C64.1421 55.8983 64.2016 55.8394 64.2743 55.8394H95.6592C95.7325 55.8394 95.7914 55.8989 95.7914 55.9716V78.2631C95.7914 78.3359 95.7319 78.3954 95.6592 78.3954ZM64.4066 78.1303H95.5264V56.1038H64.4066V78.1303Z" fill="#E6D0BE"/>
<path d="M65.5894 57.4244C65.838 57.4244 66.0396 57.2228 66.0396 56.9741C66.0396 56.7255 65.838 56.5239 65.5894 56.5239C65.3407 56.5239 65.1392 56.7255 65.1392 56.9741C65.1392 57.2228 65.3407 57.4244 65.5894 57.4244Z" fill="white"/>
<path d="M67.043 57.4244C67.2916 57.4244 67.4932 57.2228 67.4932 56.9741C67.4932 56.7255 67.2916 56.5239 67.043 56.5239C66.7943 56.5239 66.5928 56.7255 66.5928 56.9741C66.5928 57.2228 66.7943 57.4244 67.043 57.4244Z" fill="white"/>
<path d="M68.4971 57.4244C68.7457 57.4244 68.9473 57.2228 68.9473 56.9741C68.9473 56.7255 68.7457 56.5239 68.4971 56.5239C68.2484 56.5239 68.0469 56.7255 68.0469 56.9741C68.0469 57.2228 68.2484 57.4244 68.4971 57.4244Z" fill="white"/>
<path d="M94.2194 74.0538H65.9247C65.8514 74.0538 65.7925 73.9943 65.7925 73.9216C65.7925 73.8488 65.852 73.7893 65.9247 73.7893H94.2194C94.2927 73.7893 94.3516 73.8488 94.3516 73.9216C94.3516 73.9943 94.2927 74.0538 94.2194 74.0538Z" fill="#E6D0BE"/>
<path d="M94.2194 71.0391H65.9247C65.8514 71.0391 65.7925 70.9796 65.7925 70.9069C65.7925 70.8336 65.852 70.7747 65.9247 70.7747H94.2194C94.2927 70.7747 94.3516 70.8342 94.3516 70.9069C94.3516 70.9796 94.2927 71.0391 94.2194 71.0391Z" fill="#E6D0BE"/>
<path d="M94.2194 68.0245H65.9247C65.8514 68.0245 65.7925 67.965 65.7925 67.8922C65.7925 67.8189 65.852 67.76 65.9247 67.76H94.2194C94.2927 67.76 94.3516 67.8195 94.3516 67.8922C94.3516 67.965 94.2927 68.0245 94.2194 68.0245Z" fill="#E6D0BE"/>
<path d="M94.2194 65.0101H65.9247C65.8514 65.0101 65.7925 64.9506 65.7925 64.8778C65.7925 64.8045 65.852 64.7456 65.9247 64.7456H94.2194C94.2927 64.7456 94.3516 64.8051 94.3516 64.8778C94.3516 64.9512 94.2927 65.0101 94.2194 65.0101Z" fill="#E6D0BE"/>
<path d="M94.2194 61.9959H65.9247C65.8514 61.9959 65.7925 61.9364 65.7925 61.8637C65.7925 61.7903 65.852 61.7314 65.9247 61.7314H94.2194C94.2927 61.7314 94.3516 61.791 94.3516 61.8637C94.3516 61.937 94.2927 61.9959 94.2194 61.9959Z" fill="#E6D0BE"/>
<path d="M89.5038 77.0682C89.4305 77.0682 89.3716 77.0087 89.3716 76.9359V58.849C89.3716 58.7757 89.4311 58.7168 89.5038 58.7168C89.5766 58.7168 89.6361 58.7763 89.6361 58.849V76.9353C89.6361 77.0087 89.5766 77.0682 89.5038 77.0682Z" fill="#E6D0BE"/>
<path d="M84.7875 77.0682C84.7142 77.0682 84.6553 77.0087 84.6553 76.9359V58.849C84.6553 58.7757 84.7148 58.7168 84.7875 58.7168C84.8602 58.7168 84.9198 58.7763 84.9198 58.849V76.9353C84.9204 77.0087 84.8608 77.0682 84.7875 77.0682Z" fill="#E6D0BE"/>
<path d="M80.0722 77.0682C79.9988 77.0682 79.9399 77.0087 79.9399 76.9359V58.849C79.9399 58.7757 79.9994 58.7168 80.0722 58.7168C80.1449 58.7168 80.2044 58.7763 80.2044 58.849V76.9353C80.2044 77.0087 80.1455 77.0682 80.0722 77.0682Z" fill="#E6D0BE"/>
<path d="M75.3564 77.0682C75.283 77.0682 75.2241 77.0087 75.2241 76.9359V58.849C75.2241 58.7757 75.2836 58.7168 75.3564 58.7168C75.4297 58.7168 75.4886 58.7763 75.4886 58.849V76.9353C75.4886 77.0087 75.4291 77.0682 75.3564 77.0682Z" fill="#E6D0BE"/>
<path d="M70.6405 77.0682C70.5672 77.0682 70.5083 77.0087 70.5083 76.9359V58.849C70.5083 58.7757 70.5678 58.7168 70.6405 58.7168C70.7139 58.7168 70.7728 58.7763 70.7728 58.849V76.9353C70.7734 77.0087 70.7139 77.0682 70.6405 77.0682Z" fill="#E6D0BE"/>
<path d="M93.6807 53.0522L85.9519 53.8427L87.662 55.7175L79.0357 63.0178L75.9455 59.1978L65.2646 70.1227L74.9188 63.4944L77.9814 67.4947L90.4979 58.8257L92.187 60.6765L93.6807 53.0522Z" fill="#D87355"/>
<path d="M47.495 62.6689H36.9639V71.6871H47.495V62.6689Z" fill="#D3BBA3"/>
<path d="M62.4066 51.8687H51.8755V60.8869H62.4066V51.8687Z" fill="white"/>
<path d="M62.5384 61.0196H51.7422V51.7363H62.5384V61.0196ZM52.0073 60.7545H62.2733V52.0014H52.0073V60.7545Z" fill="#8B865C"/>
<path d="M58.1061 62.5154H48.6821V62.7805H58.1061V62.5154Z" fill="#D3BBA3"/>
<path d="M56.105 64.4465H48.6821V64.7116H56.105V64.4465Z" fill="#D3BBA3"/>
<path d="M57.3559 66.1963H48.6821V66.4614H57.3559V66.1963Z" fill="#D3BBA3"/>
<path d="M54.6492 68.0371H48.6821V68.3022H54.6492V68.0371Z" fill="#D3BBA3"/>
<path d="M55.8999 54.5909C56.0652 54.508 56.2365 54.4509 56.4096 54.4172L56.3441 53.4795C56.0514 53.5246 55.7604 53.6153 55.4815 53.7548C54.8041 54.0938 54.3148 54.6612 54.0605 55.317L54.9622 55.5821C55.1425 55.1662 55.4641 54.8091 55.8999 54.5909Z" fill="#EFBC73"/>
<path d="M54.9104 57.0446C54.795 56.7194 54.7691 56.3786 54.8232 56.054L53.9216 55.7883C53.8086 56.3353 53.8507 56.9172 54.0695 57.4648L54.9104 57.0446Z" fill="#EFBC73"/>
<path d="M59.5173 55.2903L58.6763 55.7104C59.0087 56.6463 58.5976 57.7085 57.6869 58.1641C56.7763 58.6197 55.6799 58.3114 55.1305 57.4843L54.2896 57.9044C55.0734 59.192 56.733 59.6867 58.1053 59.0002C59.4776 58.3144 60.0769 56.6902 59.5173 55.2903Z" fill="#D87355"/>
<path d="M56.9 54.3836C57.5155 54.4173 58.1004 54.7359 58.4562 55.2715L59.2971 54.8513C58.7616 53.9713 57.8167 53.4616 56.8345 53.4465L56.9 54.3836Z" fill="#8B865C"/>
<path d="M102.047 38.5911H80.9746V41.6049H102.047V38.5911Z" fill="#F2E6DC"/>
<path d="M102.224 42.7261H81.1514V45.74H102.224V42.7261Z" fill="#F2E6DC"/>
<path d="M102.224 46.8601H81.1514V49.874H102.224V46.8601Z" fill="#F2E6DC"/>
<path d="M68.5872 29.2091C68.4988 23.5444 63.8818 18.9785 58.1955 18.9785C58.0296 18.9785 57.8643 18.9833 57.7002 18.9911V29.2091H68.5872Z" fill="#D87355"/>
<path d="M56.6754 30.2351V23.8845C53.2497 24.045 50.522 26.8726 50.522 30.3379C50.522 33.9059 53.4144 36.799 56.9831 36.799C60.5512 36.799 63.4443 33.9065 63.4443 30.3379C63.4443 30.3036 63.4425 30.2693 63.4419 30.2351H56.6754Z" fill="#EFBC73"/>
<path d="M104.35 92.0262H79.8871C79.8138 92.0262 79.7549 91.9667 79.7549 91.8939V85.5993C79.7549 85.5259 79.8144 85.467 79.8871 85.467H104.35C104.423 85.467 104.482 85.5265 104.482 85.5993V91.8939C104.483 91.9667 104.423 92.0262 104.35 92.0262ZM80.02 91.7611H104.218V85.7315H80.02V91.7611Z" fill="#D3BBA3"/>
<path d="M101.326 83.5272C100.282 83.2111 100.159 81.6693 99.2888 81.6909C97.1339 81.745 96.1559 88.4706 94.5216 88.3817C93.1727 88.3083 92.9515 83.6769 91.3893 83.5266C89.7218 83.3661 88.5461 88.5049 86.7452 88.3817C85.1637 88.2729 85.2269 84.2528 82.4252 82.9069C81.9545 82.6809 81.461 82.5583 80.9663 82.5102V90.5919H103.269V82.9832C102.428 83.5615 101.802 83.6715 101.326 83.5272Z" fill="#EFBC73"/>
<path d="M41.5711 44.8938C38.9419 44.8938 37.2577 42.0969 38.4869 39.7731L41.5038 34.0706L44.6253 39.7166C45.9104 42.0422 44.2286 44.8938 41.5711 44.8938Z" fill="#8B865C"/>
<path d="M42.302 45.0266C41.0204 45.0266 39.8603 44.3714 39.1991 43.2732C38.5379 42.1756 38.5012 40.8436 39.1005 39.7111L42.1174 34.0086C42.1403 33.9653 42.1847 33.9382 42.2334 33.9382C42.2779 33.94 42.3272 33.9641 42.3506 34.0068L45.4721 39.6528C46.0991 40.7865 46.0798 42.1293 45.4222 43.245C44.7634 44.3606 43.5973 45.0266 42.302 45.0266ZM42.237 34.3488L39.335 39.835C38.7796 40.8851 38.8138 42.1191 39.4263 43.1368C40.0394 44.1544 41.1142 44.7615 42.302 44.7615C43.5023 44.7615 44.5831 44.1442 45.1932 43.1103C45.8033 42.0764 45.8208 40.8316 45.2395 39.7809L42.237 34.3488Z" fill="#363E44"/>
<path d="M92.5238 41.1278C90.4091 41.1278 88.6948 39.4135 88.6948 37.2988V34.2549H96.3521V37.2988C96.3527 39.4135 94.6384 41.1278 92.5238 41.1278Z" fill="#363E44"/>
<path d="M102.884 19.2357C102.884 13.3775 98.0224 8.65527 92.1136 8.88368C86.8462 9.08685 82.5166 13.3053 82.1848 18.5655C81.9281 22.6367 84.0259 26.2402 87.2466 28.1505L87.4323 31.394C87.5868 34.0929 89.8204 36.2028 92.5242 36.2028C95.2279 36.2028 97.4615 34.0929 97.616 31.394L97.8018 28.1505C100.843 26.3454 102.884 23.0298 102.884 19.2357Z" fill="#EFBC73"/>
<path d="M92.469 37.6194C90.2071 37.6194 88.5769 36.5483 88.5523 36.5314C88.4916 36.4906 88.4753 36.4082 88.5162 36.3475C88.5571 36.2868 88.6394 36.2706 88.7001 36.3114C88.7368 36.3361 92.4179 38.7483 96.3491 36.1503C96.4098 36.1101 96.4921 36.1269 96.533 36.1876C96.5733 36.2489 96.5564 36.3307 96.4957 36.3709C95.0717 37.3123 93.6796 37.6194 92.469 37.6194Z" fill="#F2E6DC"/>
<path d="M92.469 39.2215C90.2071 39.2215 88.5769 38.1503 88.5523 38.1335C88.4916 38.0926 88.4753 38.0103 88.5162 37.9495C88.5571 37.8888 88.6394 37.8726 88.7001 37.9135C88.7368 37.9381 92.4179 40.3503 96.3491 37.7524C96.4098 37.7121 96.4921 37.7289 96.533 37.7897C96.5733 37.851 96.5564 37.9327 96.4957 37.973C95.0717 38.9143 93.6796 39.2215 92.469 39.2215Z" fill="#F2E6DC"/>
<path d="M89.687 21.2469L92.8331 13.271H97.3948L93.3393 19.5638H97.3948L89.687 27.5397L92.1695 21.2469H89.687Z" fill="white"/>
<path d="M39.0954 79.3524C39.0954 79.3524 42.3178 88.1716 48.9924 88.1716C53.7753 88.1716 56.2073 84.9606 56.7182 80.3634C57.2736 75.3672 49.662 67.3354 40.3823 59.8403C40.3817 59.8403 37.1412 72.0605 39.0954 79.3524Z" fill="#EFBC73"/>
<path d="M16.62 78.8308C16.62 78.8308 11.9579 90.7283 5.11988 86.2273C-7.09794 78.1859 5.7961 66.1273 15.1233 61.3955C27.2611 55.2379 36.0419 58.5602 40.3824 59.8399L39.6052 85.4988C39.5318 87.9176 37.55 89.8302 35.13 89.8302H19.2438C16.216 89.8302 14.0611 86.8981 14.9754 84.011L16.62 78.8308Z" fill="#EFBC73"/>
<path d="M14.7233 71.1276C14.7125 71.1276 14.7011 71.1264 14.6897 71.1234C14.6187 71.1048 14.5761 71.0327 14.5947 70.9617L15.3936 67.8835C15.4116 67.8126 15.4843 67.7699 15.5553 67.7886C15.6262 67.8072 15.6689 67.8793 15.6502 67.9502L14.8514 71.0284C14.8357 71.088 14.7822 71.1276 14.7233 71.1276Z" fill="#363E44"/>
<path d="M39.6812 83.1356C39.68 83.1356 39.6782 83.1356 39.677 83.1356C39.6037 83.1332 39.5466 83.0725 39.5484 82.9992L39.659 79.3482C39.6614 79.2748 39.7227 79.2177 39.7954 79.2195C39.8688 79.2219 39.9259 79.2826 39.9241 79.356L39.8135 83.007C39.8111 83.0785 39.7522 83.1356 39.6812 83.1356Z" fill="#363E44"/>
<path d="M7.87449 74.1034C7.87449 74.1034 16.2159 70.6135 20.6832 68.8787C28.4235 65.8727 32.8806 66.7046 32.886 67.8172C32.892 69.0248 30.57 68.3359 29.4627 68.6876C29.6425 68.7765 30.1155 69.1402 30.139 69.7371C30.1738 70.6207 29.5277 70.8966 29.479 70.9459C29.5421 70.9705 30.2159 71.2579 30.3325 71.8445C30.4636 72.5057 30.1925 73.0143 29.7903 73.3214C29.9454 73.3881 30.4942 73.6965 30.5904 74.2645C30.6896 74.8488 30.3992 75.5358 29.8498 75.7198C28.8418 76.057 25.8279 76.9977 24.4136 77.6481C21.6293 78.9278 12.3094 84.9009 7.83121 85.6053C4.4741 85.7394 2.91367 81.0533 4.31421 77.3577C5.19542 75.0315 7.87449 74.1034 7.87449 74.1034Z" fill="#84524D"/>
<path d="M28.5785 75.6336C28.5147 75.6336 28.4582 75.5873 28.448 75.5224L28.2923 74.5762C28.2803 74.5041 28.3296 74.4356 28.4017 74.4242C28.4733 74.4121 28.5418 74.4614 28.5538 74.5336L28.7095 75.4797C28.7215 75.5518 28.6722 75.6203 28.6001 75.6318C28.5923 75.633 28.5851 75.6336 28.5785 75.6336Z" fill="#363E44"/>
<path d="M28.1642 73.3601C28.0986 73.3601 28.0421 73.312 28.0331 73.2453L27.8889 72.1705C27.8792 72.0978 27.9303 72.031 28.0025 72.0214C28.0746 72.0118 28.1419 72.0629 28.1515 72.135L28.2958 73.2098C28.3054 73.2825 28.2543 73.3492 28.1822 73.3589C28.1762 73.3595 28.1702 73.3601 28.1642 73.3601Z" fill="#363E44"/>
<path d="M27.8823 70.9392C27.8185 70.9392 27.7626 70.8929 27.7518 70.828C27.7224 70.6513 27.6977 70.4914 27.6725 70.3321C27.6472 70.1728 27.622 70.0135 27.5931 69.8374C27.5811 69.7653 27.6298 69.6967 27.7025 69.6853C27.7747 69.6727 27.8432 69.722 27.8552 69.7947C27.8847 69.9714 27.9099 70.1313 27.9352 70.2912C27.9604 70.4505 27.985 70.6092 28.0145 70.7853C28.0265 70.8575 27.9778 70.926 27.9051 70.9374C27.8967 70.9386 27.8895 70.9392 27.8823 70.9392Z" fill="#363E44"/>
<path d="M27.4725 68.9742C27.4124 68.9742 27.3583 68.9333 27.3439 68.872L27.1257 67.9476C27.1088 67.876 27.1527 67.8051 27.2242 67.7883C27.2958 67.7714 27.3667 67.8153 27.3835 67.8868L27.6017 68.8113C27.6186 68.8829 27.5747 68.9538 27.5031 68.9706C27.4923 68.973 27.4821 68.9742 27.4725 68.9742Z" fill="#363E44"/>
<path d="M40.9229 72.3255L44.8065 82.1348C45.8578 84.7898 48.8885 86.0587 51.5177 84.9449C54.3717 83.7355 55.4885 80.2768 53.8818 77.6266L48.4894 68.7346L40.9229 72.3255Z" fill="#84524D"/>
<path d="M31.916 76.4207C31.901 76.4207 31.8859 76.4183 31.8715 76.4129C31.8024 76.3882 31.7663 76.3125 31.791 76.2434L37.095 61.3513C37.1136 61.2984 37.1635 61.2629 37.22 61.2629C37.2206 61.2629 37.2206 61.2629 37.2212 61.2629L48.8494 61.3645C48.9227 61.3651 48.9816 61.4252 48.981 61.498C48.9804 61.5713 48.9179 61.6302 48.8476 61.6296L37.3138 61.5286L32.0416 76.3317C32.0218 76.387 31.9707 76.4207 31.916 76.4207Z" fill="#F7F1EB"/>
<path d="M44.4176 77.2401H32.79L38.0941 62.3967H49.7216L44.4176 77.2401Z" fill="#363E44"/>
<path d="M45.9512 72.049C46.9767 72.6327 47.1011 73.3161 46.7759 73.8871C46.4507 74.4582 45.8003 74.7004 44.7743 74.1168C43.7488 73.5331 42.7372 72.3447 43.0617 71.7737C43.3869 71.2021 44.9257 71.4653 45.9512 72.049Z" fill="#84524D"/>
<path d="M46.8505 69.9469C48.0388 70.6238 48.1831 71.4154 47.8062 72.0772C47.4293 72.739 46.6749 73.0197 45.4866 72.3429C44.2982 71.6667 43.1255 70.289 43.5018 69.6272C43.8786 68.9654 45.6615 69.2707 46.8505 69.9469Z" fill="#84524D"/>
<path d="M47.8359 68.738C48.8613 69.3216 49.5123 69.0794 49.8375 68.5084C50.1627 67.9373 50.0383 67.2539 49.0128 66.6702C47.9874 66.0866 46.4486 65.8233 46.124 66.3943C45.7988 66.9654 46.8104 68.1543 47.8359 68.738Z" fill="#84524D"/>
<path d="M46.4875 70.5836C47.6759 71.2599 48.4309 70.9791 48.8072 70.3179C49.1834 69.6561 49.0398 68.8645 47.8514 68.1877C46.6631 67.5114 44.8796 67.2061 44.5027 67.8679C44.1265 68.5297 45.2992 69.9074 46.4875 70.5836Z" fill="#84524D"/>
<path d="M45.8305 74.5843C45.7873 74.5843 45.7434 74.5825 45.6989 74.5783C45.6262 74.5717 45.5721 74.5073 45.5787 74.4346C45.5853 74.3619 45.6502 74.3078 45.7223 74.3144C46.1383 74.3523 46.4533 74.1858 46.6606 73.8215C46.8596 73.4723 46.8506 73.1296 46.6336 72.8032C46.6065 72.763 46.6041 72.7113 46.6264 72.6686C46.6486 72.6259 46.6925 72.5983 46.7412 72.5977C47.1553 72.5887 47.4751 72.3915 47.6909 72.0116C47.8827 71.6744 47.9085 71.3384 47.7679 71.0132C47.7516 70.9747 47.754 70.9314 47.7745 70.8948C47.7949 70.8587 47.8316 70.8341 47.873 70.8287C48.2247 70.7836 48.5006 70.5894 48.6923 70.2522C48.7284 70.1885 48.8095 70.1663 48.8733 70.2023C48.937 70.2384 48.9592 70.3195 48.9232 70.3833C48.7206 70.7391 48.4273 70.9711 48.0684 71.0613C48.1742 71.4159 48.1249 71.7862 47.9223 72.1426C47.6981 72.5364 47.3681 72.7756 46.96 72.8429C47.1259 73.2006 47.1036 73.5805 46.8921 73.9525C46.6576 74.3631 46.2844 74.5843 45.8305 74.5843Z" fill="#363E44"/>
<path d="M8.40981 72.9536C8.64724 72.846 4.36024 81.7254 10.5371 84.8156C10.5371 84.8156 8.42964 86.3237 5.89303 85.6078C3.35642 84.8919 0.711008 76.4411 8.40981 72.9536Z" fill="#F2E6DC"/>
<path d="M43.8813 81.8109C43.8813 81.8109 52.1085 84.9823 53.7747 76.2881L55.2005 79.6825C55.2005 79.6825 56.3222 83.7861 52.3483 85.608C48.3751 87.4293 45.1767 84.7905 43.8813 81.8109Z" fill="#F2E6DC"/>
<path d="M29.9848 54.3796C33.0628 54.0006 35.2508 51.1981 34.8719 48.1201C34.4929 45.042 31.6904 42.854 28.6124 43.233C25.5343 43.612 23.3463 46.4144 23.7253 49.4925C24.1042 52.5705 26.9067 54.7586 29.9848 54.3796Z" fill="#363E44"/>
<path d="M33.177 51.6061C32.4665 51.2136 31.2492 50.1653 30.8561 50.8758L26.2494 58.2428C25.8568 58.9533 28.2131 58.7062 28.9236 59.0987C29.6341 59.4913 30.5285 59.2334 30.921 58.5229L33.7522 53.6036C34.1453 52.8931 33.8874 51.9986 33.177 51.6061Z" fill="#84524D"/>
<path d="M32.6448 58.8119C33.2814 61.1435 31.4487 64.6714 31.4487 64.6714C31.4487 64.6714 24.7002 61.396 24.7002 58.8119C24.7002 58.1513 26.4788 57.6157 28.6728 57.6157C30.8668 57.6157 32.4711 58.1741 32.6448 58.8119Z" fill="#84524D"/>
<path d="M36.8955 53.6329C36.2583 54.8255 32.5219 54.3128 32.5219 54.3128L29.264 51.7719C28.4153 50.069 29.1071 48.0007 30.81 47.1519C32.5129 46.3032 34.5813 46.995 35.43 48.6979C35.4294 48.6979 37.5447 52.4181 36.8955 53.6329Z" fill="#84524D"/>
<path d="M35.4795 49.6848C35.4795 49.6848 36.7959 50.1597 36.8692 50.4218C36.9564 50.735 36.08 51.3889 36.08 51.3889C36.08 51.3889 35.5035 49.6758 35.4795 49.6848Z" fill="#84524D"/>
<path d="M32.6309 50.9403C32.6309 50.9403 33.0083 50.4054 33.6311 50.0952C33.7633 50.0291 34.0416 51.2132 33.8865 51.2156C33.2019 51.2271 32.6309 50.9403 32.6309 50.9403Z" fill="white"/>
<mask id="mask0_1849_4333" style="mask-type:luminance" maskUnits="userSpaceOnUse" x="32" y="49" width="4" height="3">
<path d="M32.6309 50.9401C32.6309 50.9401 33.1863 50.1533 34.0597 49.9351C34.933 49.7169 35.7938 50.1491 35.7938 50.1491C35.7938 50.1491 35.2384 50.9359 34.365 51.1541C33.4916 51.3723 32.6309 50.9401 32.6309 50.9401Z" fill="white"/>
</mask>
<g mask="url(#mask0_1849_4333)">
<path d="M33.6436 50.0548C33.8498 49.4381 34.517 49.1057 35.1337 49.3118C35.7505 49.518 36.0829 50.1852 35.8767 50.802C35.6705 51.4187 35.0033 51.7511 34.3866 51.5449C33.7699 51.3381 33.4375 50.6709 33.6436 50.0548Z" fill="#363E44"/>
</g>
<path d="M35.368 52.4874C35.3451 52.4874 35.3223 52.4862 35.2988 52.4838C35.068 52.4574 34.8679 52.2987 34.7885 52.0787C34.7639 52.0096 34.7999 51.9338 34.8685 51.9092C34.937 51.8845 35.0133 51.92 35.038 51.9891C35.0831 52.1148 35.1973 52.2055 35.3283 52.2206C35.4641 52.2362 35.5988 52.1695 35.6697 52.0498C35.707 51.9867 35.7881 51.9663 35.8513 52.0036C35.9144 52.0408 35.9348 52.1226 35.8975 52.1851C35.7857 52.3732 35.5826 52.4874 35.368 52.4874Z" fill="#363E44"/>
<path d="M26.8081 52.3981C26.8081 52.3981 31.6487 52.6115 34.71 47.7709C37.7714 42.9303 29.3711 43.2146 25.8824 44.8519C23.6487 45.9009 26.8081 52.3981 26.8081 52.3981Z" fill="#363E44"/>
<path d="M28.0096 56.3433C27.8545 56.3433 27.7524 56.3276 27.7409 56.3258C27.6688 56.3138 27.6201 56.2459 27.6315 56.1738C27.643 56.1016 27.7115 56.0523 27.7836 56.0638C27.7914 56.065 28.5452 56.1786 29.1229 55.7145C29.534 55.3839 29.7648 54.8405 29.8081 54.0994C29.873 52.9952 29.094 52.3839 28.5248 51.9372C28.1749 51.6625 27.9225 51.4642 27.973 51.2153C28.0204 50.9827 28.327 50.815 29.0657 50.6173C31.6937 49.914 33.2229 46.8189 33.2379 46.7877C33.2698 46.7222 33.3491 46.6945 33.4153 46.7264C33.4808 46.7582 33.5084 46.8376 33.4766 46.9037C33.4129 47.0353 31.8807 50.1388 29.1343 50.8733C28.3511 51.0831 28.2429 51.2195 28.2332 51.2682C28.2152 51.3566 28.4779 51.5628 28.6889 51.7287C29.2689 52.1843 30.1459 52.8726 30.0726 54.1144C30.0245 54.9349 29.7594 55.5438 29.2858 55.9225C28.8391 56.2807 28.3186 56.3433 28.0096 56.3433Z" fill="#40484C"/>
<path d="M30.8359 46.1219C30.8359 46.1219 28.7946 36.3205 25.7453 37.3111C22.6965 38.3011 28.6197 47.086 30.8359 46.1219Z" fill="#363E44"/>
<path d="M28.8369 47.0202C28.8369 47.0202 24.4621 35.4804 20.7534 37.2747C17.044 39.0689 26.1843 48.6221 28.8369 47.0202Z" fill="#363E44"/>
<path d="M27.9783 47.0041C27.9783 47.0041 18.1456 36.5126 15.1474 40.0068C12.1485 43.5021 25.9809 49.8443 27.9783 47.0041Z" fill="#363E44"/>
<path d="M26.2183 48.4001C26.2183 48.4001 17.4231 41.5626 15.4076 44.6883C13.3921 47.8146 24.9271 50.8808 26.2183 48.4001Z" fill="#363E44"/>
<path d="M20.6456 48.9617C18.6043 48.9617 16.6561 48.5782 15.8032 47.7529C15.3608 47.3249 15.2201 46.8122 15.3854 46.2292C15.5333 45.7068 15.8771 45.3071 16.4073 45.0408C19.2517 43.6126 26.6691 46.4107 26.9835 46.5309L27.0869 46.57L27.0671 46.6788C26.939 47.3682 26.1744 47.9549 24.8556 48.3769C23.6589 48.7598 22.1273 48.9617 20.6456 48.9617ZM18.5784 44.9025C17.7724 44.9025 17.0583 45.0107 16.5257 45.2782C16.0586 45.5126 15.7689 45.8475 15.6403 46.3019C15.5038 46.784 15.6205 47.2077 15.9871 47.563C17.3979 48.9275 21.998 49.0122 24.7745 48.125C25.9027 47.7643 26.6072 47.2751 26.7785 46.7383C26.0296 46.463 21.6428 44.9025 18.5784 44.9025Z" fill="#363E44"/>
<path d="M27.1004 46.4196C26.5089 46.4196 25.7767 46.0625 24.9502 45.3659C22.6667 43.4418 20.2395 39.3742 20.6614 37.3695C20.7883 36.7672 21.1471 36.3753 21.729 36.2052C22.2501 36.0525 22.7713 36.1307 23.2792 36.4378C26.0022 38.086 27.58 45.8551 27.6455 46.1851L27.6672 46.2933L27.5644 46.3342C27.4213 46.3913 27.2669 46.4196 27.1004 46.4196ZM22.2495 36.3939C22.1023 36.3939 21.9538 36.4162 21.8035 36.4601C21.3226 36.6007 21.0257 36.9253 20.9205 37.4248C20.516 39.3453 22.8921 43.2855 25.121 45.1639C26.0268 45.9273 26.816 46.2633 27.3612 46.1226C27.152 45.1368 25.5904 38.1479 23.141 36.665C22.8422 36.4835 22.5477 36.3939 22.2495 36.3939Z" fill="#363E44"/>
<path d="M29.795 44.9175C29.795 44.9175 28.2328 40.3299 30.5182 40.4922C32.8029 40.6551 29.795 44.9175 29.795 44.9175Z" fill="#363E44"/>
<path d="M24.6814 48.3733C24.6814 48.3733 18.4528 46.986 19.1519 50.2168C19.8522 53.4477 24.6814 48.3733 24.6814 48.3733Z" fill="#363E44"/>
<path d="M28.2625 101.563L31.9809 109.711H46.252L37.0391 83.9365L18.2507 83.9576C13.5375 91.2212 11.9651 100.036 12.4183 109.711H28.0071L28.2625 101.563Z" fill="#8B865C"/>
<path d="M28.2626 101.701C28.262 101.701 28.2614 101.701 28.2608 101.701C28.1875 101.7 28.1292 101.64 28.1304 101.567L28.1773 98.3461C28.1779 98.2956 28.2073 98.2499 28.2524 98.2283L30.3995 97.2016C30.465 97.1697 30.5444 97.198 30.5762 97.2641C30.6081 97.3302 30.5798 97.409 30.5137 97.4408L28.4406 98.432L28.3949 101.57C28.3937 101.644 28.3348 101.701 28.2626 101.701Z" fill="#363E44"/>
<path d="M37.0876 81.2166H18.1357V84.3975H37.0876V81.2166Z" fill="#8B865C"/>
<path d="M31.1238 84.1322H19.3285C19.2552 84.1322 19.1963 84.0726 19.1963 83.9999C19.1963 83.9266 19.2558 83.8677 19.3285 83.8677H31.1238C31.1971 83.8677 31.256 83.9272 31.256 83.9999C31.2566 84.0732 31.1971 84.1322 31.1238 84.1322Z" fill="#363E44"/>
</g>
<defs>
<clipPath id="clip0_1849_4333">
<rect width="110" height="110" fill="white"/>
</clipPath>
</defs>
</svg>
