<svg width="160" height="160" viewBox="0 0 160 160" fill="none" xmlns="http://www.w3.org/2000/svg">
<path d="M104.886 139.456C107.26 136.621 111.167 134.742 114.7 135.83C116.751 136.464 118.406 137.99 119.759 139.654C121.865 142.246 123.414 145.283 124.274 148.509C124.562 149.59 124.77 150.758 124.39 151.811C123.657 153.834 121.193 154.515 119.081 154.918C115.596 155.581 112.041 156.243 108.527 155.763C105.532 155.354 100.319 153.437 100.201 149.789C100.102 146.653 102.962 141.754 104.889 139.456H104.886Z" fill="#3C4368"/>
<path d="M114.787 129.914C113.446 131.21 111.171 132.298 108.416 129.853C106.265 127.942 105.347 125.136 104.806 122.89C102.595 113.754 101.715 106.17 101.971 100.173C102.064 97.9776 102.374 95.9072 104.16 95.4528C105.6 95.0848 107.82 95.8272 109.92 96.5856C112.614 97.5584 115.385 98.6528 118.316 100.768C120.777 102.544 123.1 104.989 124.716 107.52C126.297 109.994 125.747 110.797 125.408 112.166C124.46 115.99 122.816 119.731 120.38 123.315C118.848 125.574 116.992 127.779 114.787 129.914Z" fill="#FFDE91"/>
<path d="M108.086 97.7984C108.716 97.1552 109.878 96.9408 110.492 97.6C111.056 98.208 110.889 99.1712 110.665 99.968C109.952 102.509 109.02 104.992 107.884 107.373C112.979 109.117 118.073 110.864 123.168 112.608C123.67 112.781 124.185 112.954 124.716 112.931C125.209 112.909 125.676 112.717 126.118 112.502C130.054 110.608 132.953 106.704 133.635 102.39C134.316 98.0768 132.755 93.4688 129.593 90.4576C126.931 87.92 123.331 86.5632 119.715 85.8912C116.748 85.3376 113.606 85.2192 110.78 86.2848C107.958 87.3504 105.516 89.792 105.11 92.784C104.918 91.3792 103.526 90.3168 102.108 90.2624C100.691 90.208 99.3307 91.0176 98.4731 92.1504C97.6155 93.2832 97.2091 94.6976 97.0395 96.1088C96.7611 98.4192 97.0843 100.8 97.9675 102.954C98.6427 102.141 99.3211 101.328 99.9963 100.515C99.9323 99.4176 99.8747 98.2688 100.31 97.2608C100.745 96.2496 101.84 95.4304 102.908 95.6896C103.942 95.9392 104.528 97.0304 104.806 98.0544C104.985 98.7072 105.34 101.478 106.387 101.075C107.212 100.755 107.436 98.4576 108.08 97.7952L108.086 97.7984Z" fill="#292E54"/>
<path d="M107.075 114.378C107.078 114.602 107.087 114.832 107.19 115.03C107.292 115.229 107.51 115.386 107.731 115.344C108.006 115.29 108.137 114.979 108.207 114.707C108.364 114.115 108.988 111.434 108.118 111.318C106.921 111.162 107.065 113.866 107.075 114.374V114.378Z" fill="#292E54"/>
<path d="M111.949 114.01C111.885 114.397 111.856 114.861 112.16 115.107C112.413 115.312 112.81 115.258 113.069 115.056C113.328 114.854 113.472 114.541 113.574 114.23C113.773 113.632 114.237 111.501 113.261 111.434C112.218 111.363 112.051 113.418 111.952 114.013L111.949 114.01Z" fill="#292E54"/>
<path d="M110.71 126.278C110.806 126.726 111.328 126.979 111.945 126.928C112.563 126.877 113.248 126.547 113.75 126.106C114.227 125.683 114.608 125.101 114.656 124.627C114.204 124.627 110.688 126.166 110.71 126.275V126.278Z" fill="#292E54"/>
<path d="M122.076 116.426C122.563 116.781 123.11 117.066 123.705 117.168C124.297 117.267 124.94 117.168 125.423 116.813C125.961 116.416 126.249 115.747 126.326 115.085C126.451 113.994 126.003 112.813 125.078 112.221C124.153 111.629 122.771 111.786 122.124 112.672" fill="#FFDE91"/>
<path d="M123.868 116.067C123.779 116.067 123.708 115.997 123.708 115.907C123.708 115.818 123.779 115.747 123.868 115.747C124.175 115.747 124.479 115.594 124.703 115.325C124.927 115.056 125.02 114.73 124.966 114.426C124.911 114.122 124.703 113.85 124.403 113.68C124.099 113.51 123.759 113.472 123.471 113.581C123.388 113.613 123.295 113.571 123.267 113.488C123.235 113.405 123.276 113.312 123.359 113.283C123.737 113.142 124.175 113.184 124.559 113.402C124.947 113.619 125.209 113.971 125.279 114.368C125.353 114.765 125.231 115.187 124.95 115.526C124.665 115.866 124.275 116.064 123.871 116.064L123.868 116.067Z" fill="white"/>
<path d="M104.156 139.619C105.411 138.979 106.665 138.339 107.919 137.696C108.303 138.413 108.684 139.133 109.068 139.85C109.839 139.187 110.611 138.522 111.385 137.859C112.163 138.31 112.819 138.966 113.267 139.744C115.004 138.326 116.287 136.358 116.879 134.195C116.383 133.286 115.449 132.634 114.425 132.486C113.769 132.39 113.174 132.531 112.563 132.755C111.359 133.194 111.839 133.373 110.607 132.746C109.497 132.182 108.451 131.462 107.18 132.035C104.79 133.11 104.195 137.395 104.156 139.619Z" fill="#BCBEC0"/>
<path d="M27.2474 64.4639C29.7242 61.5071 33.8042 59.5423 37.4906 60.6815C39.6314 61.3407 41.3594 62.9343 42.7706 64.6719C44.969 67.3759 46.585 70.5471 47.4842 73.9135C47.785 75.0431 48.0026 76.2623 47.6026 77.3599C46.8378 79.4687 44.2682 80.1823 42.0602 80.6015C38.425 81.2927 34.7098 81.9839 31.0426 81.4815C27.9162 81.0559 22.4762 79.0527 22.3514 75.2447C22.2458 71.9711 25.2346 66.8575 27.2442 64.4607L27.2474 64.4639Z" fill="#FFDE91"/>
<path d="M23.1263 42.9952C23.0719 48.2528 24.0031 53.376 26.7839 57.7728C27.1583 58.368 27.5839 58.96 28.3359 59.3312C29.0879 59.7024 30.2431 59.8016 31.2863 59.3984C32.3967 58.9696 33.0623 58.128 33.6223 57.36C40.3327 48.2112 47.1231 38.9184 50.3007 29.552C50.7519 28.2176 51.0911 26.7456 50.0223 25.872C49.2799 25.264 47.9999 25.0752 46.7551 24.944C41.8335 24.4256 36.5503 24.4992 31.1743 25.1648C29.5007 25.3728 26.4159 25.7632 25.3087 27.04C24.2239 28.2848 24.5023 30.768 24.2815 32.0512C23.6543 35.7312 23.1647 39.4016 23.1263 42.9952Z" fill="#AF93A2"/>
<path d="M28.2014 52.5952C28.3422 53.2512 29.1006 53.6192 30.0062 53.5456C30.9086 53.472 31.9134 52.992 32.643 52.3424C33.3406 51.7248 33.8974 50.8736 33.9678 50.1824C33.3086 50.1824 28.1662 52.432 28.2014 52.592V52.5952Z" fill="#292E54"/>
<path d="M26.1502 29.92C23.7726 30.1696 21.1998 29.1712 19.9454 27.1392C18.6878 25.1072 19.107 22.0832 21.091 20.7552C18.8798 19.5552 17.155 17.3728 16.7838 14.8832C16.4126 12.3936 17.539 9.67355 19.7118 8.39995C21.8814 7.12635 24.9886 7.57755 26.515 9.57755C27.2702 6.23035 30.7582 3.73755 34.1694 4.11195C37.5806 4.48315 40.4478 7.67035 40.4638 11.104C42.6174 10.7008 44.9406 11.328 46.595 12.7616C48.2494 14.1952 49.203 16.4064 49.1102 18.5952C51.7566 17.3504 55.2478 18.336 56.8542 20.7776C58.4606 23.2192 57.9838 26.816 55.795 28.7552C58.3422 28.7456 60.2398 31.3664 60.4638 33.904C60.6718 36.2528 59.795 38.6752 58.1342 40.352C56.4734 42.0288 54.0574 42.9216 51.7054 42.7328C51.8622 44.976 51.3918 47.3696 49.8782 49.0368C48.3678 50.7008 45.6574 51.3696 43.7822 50.128C42.6558 50.5664 41.475 51.0112 40.2718 50.8768C39.0718 50.7424 37.8622 49.8272 37.8398 48.6208C37.8174 47.3984 38.9086 46.5024 39.6574 45.5392C40.4894 44.4704 40.9534 43.1712 41.4046 41.8976C42.307 39.3536 43.2062 36.8096 44.1086 34.2656C42.2142 33.4144 41.0558 31.1744 41.4622 29.136C41.3022 29.9424 38.0542 29.712 37.5326 29.6128C36.0126 29.3184 35.107 28.4096 33.8078 27.712C32.6782 27.104 31.907 27.3312 30.8446 27.9616C29.315 28.8672 27.971 29.7344 26.147 29.9264L26.1502 29.92Z" fill="#292E54"/>
<path d="M39.9836 41.1391C40.6908 40.7839 41.4076 40.4319 42.182 40.2751C42.9564 40.1151 43.8044 40.1695 44.4732 40.5887C45.5804 41.2767 45.9132 42.8799 45.3308 44.0479C44.7484 45.2159 43.4204 45.9039 42.118 45.9103C40.8156 45.9167 39.558 45.3183 38.582 44.4543" fill="#AF93A2"/>
<path d="M26.8093 38.7903C26.8989 38.9535 27.0077 39.1103 27.1677 39.2063C27.3245 39.3023 27.5389 39.3279 27.6925 39.2287C27.9101 39.0879 27.9325 38.7839 27.9101 38.5247C27.8621 37.9807 27.7149 37.4431 27.4781 36.9503C27.3757 36.7359 27.2125 36.5023 26.9725 36.4991C26.8285 36.4991 26.6973 36.5919 26.6141 36.7103C26.2461 37.2447 26.5277 38.2751 26.8093 38.7871V38.7903Z" fill="#292E54"/>
<path d="M34.7616 38.7551C34.832 38.8831 34.9088 39.0143 35.0208 39.1071C35.1328 39.1999 35.2864 39.2575 35.4304 39.2223C35.6512 39.1647 35.76 38.9151 35.808 38.6911C35.9392 38.1023 35.904 36.1535 34.9088 36.3135C33.8336 36.4863 34.4736 38.2271 34.7616 38.7519V38.7551Z" fill="#292E54"/>
<path d="M25.8814 41.4879C25.5102 41.4879 25.1358 41.4719 24.7646 41.4431C24.1758 41.3951 23.5646 41.2991 23.0814 40.9215C22.6814 40.6079 22.3966 40.1055 22.2846 39.5071C22.1886 38.9983 22.2142 38.4895 22.2494 37.9711C22.3166 37.0367 22.4734 36.0927 23.1614 35.5103C23.667 35.0847 24.339 34.9663 24.9918 34.9023L25.1614 34.8863C26.4734 34.7551 28.1054 34.5951 29.3598 34.9951C30.4446 35.3407 30.6366 37.0879 30.6526 38.0991C30.6718 39.1871 30.259 40.1599 29.5486 40.7071C28.9502 41.1679 28.1886 41.3119 27.5262 41.3919C26.979 41.4559 26.4286 41.4879 25.875 41.4879H25.8814ZM25.0462 35.4175C24.515 35.4687 23.9166 35.5551 23.4974 35.9071C22.9278 36.3871 22.8222 37.2447 22.7678 38.0095C22.7326 38.4927 22.707 38.9663 22.7934 39.4111C22.883 39.8879 23.1006 40.2783 23.4014 40.5151C23.7758 40.8095 24.2974 40.8895 24.8062 40.9279C25.6926 40.9983 26.5886 40.9823 27.4686 40.8767C28.0606 40.8063 28.7358 40.6815 29.235 40.2975C29.8142 39.8495 30.1534 39.0303 30.1374 38.1087C30.1182 36.9823 29.8622 35.6991 29.2062 35.4911C28.0542 35.1231 26.483 35.2799 25.219 35.4047L25.0462 35.4207V35.4175Z" fill="#292E54"/>
<path d="M34.4893 41.3247C34.0509 41.3247 33.6125 41.2927 33.1837 41.2607C32.6077 41.2191 31.8205 41.1615 31.2541 40.6911C30.8509 40.3583 30.5853 39.8271 30.5053 39.1999C30.4349 38.6655 30.4989 38.1375 30.5629 37.6255C30.6717 36.7295 30.8381 35.8079 31.5421 35.2575C32.0253 34.8831 32.6493 34.7903 33.1517 34.7167C34.4509 34.5279 35.9261 34.3103 37.3085 34.7039C37.8621 34.8607 38.3421 34.9983 38.6013 35.7343C38.8445 36.4255 38.7453 37.1967 38.6141 37.8623C38.4541 38.6815 38.2301 39.5295 37.6733 40.1631C37.0429 40.8799 36.1533 41.1487 35.5197 41.2479C35.1741 41.3023 34.8317 41.3215 34.4893 41.3215V41.3247ZM33.2285 35.2319C32.7645 35.2991 32.2365 35.3759 31.8621 35.6671C31.3117 36.0927 31.1741 36.8991 31.0781 37.6863C31.0205 38.1663 30.9597 38.6591 31.0205 39.1295C31.0845 39.6255 31.2861 40.0383 31.5869 40.2879C31.9933 40.6239 32.5661 40.6911 33.2221 40.7391C33.9549 40.7935 34.7133 40.8479 35.4397 40.7327C36.2173 40.6079 36.8733 40.2847 37.2861 39.8175C37.7373 39.3055 37.9421 38.6239 38.1085 37.7599C38.2301 37.1327 38.3133 36.4735 38.1149 35.9007C37.9517 35.4367 37.7213 35.3567 37.1709 35.1999C35.8941 34.8383 34.4797 35.0463 33.2317 35.2287L33.2285 35.2319Z" fill="#292E54"/>
<path d="M41.6923 40.6975C41.6379 40.6975 41.5835 40.6815 41.5355 40.6431C40.3323 39.7247 39.2091 38.6879 38.1915 37.5679C38.0955 37.4623 38.1019 37.2991 38.2107 37.1999C38.3163 37.1039 38.4795 37.1135 38.5787 37.2191C39.5739 38.3167 40.6747 39.3311 41.8523 40.2303C41.9675 40.3167 41.9867 40.4799 41.9003 40.5951C41.8491 40.6623 41.7723 40.6975 41.6955 40.6975H41.6923Z" fill="#292E54"/>
<path d="M30.0929 36.9824C29.9905 36.9824 29.8945 36.9216 29.8529 36.8224C29.7985 36.6912 29.8593 36.5376 29.9905 36.4832C30.3169 36.3456 30.6721 36.3008 31.0209 36.352C31.1617 36.3712 31.2609 36.5056 31.2385 36.6464C31.2161 36.7872 31.0849 36.8864 30.9441 36.864C30.6913 36.8288 30.4257 36.864 30.1921 36.96C30.1601 36.9728 30.1249 36.9792 30.0897 36.9792L30.0929 36.9824Z" fill="#292E54"/>
<path d="M42.6914 137.322C45.1714 138.346 47.9234 138.698 50.5826 138.333C51.9586 138.144 53.7506 137.965 54.3522 139.216C54.7266 139.99 54.3778 140.912 53.9714 141.67C51.2354 146.784 45.901 150.205 40.237 151.462C34.5762 152.72 28.621 152.003 23.0626 150.342C20.4034 149.549 17.4082 148.074 17.005 145.328C16.573 142.384 19.2802 139.933 21.0498 137.968C22.6978 136.138 24.317 133.475 26.4642 132.192C28.685 130.864 31.6994 131.581 33.9394 132.502C35.1298 132.992 41.7954 137.872 42.6882 137.322H42.6914Z" fill="#3C4368"/>
<path d="M23.9847 138.736C26.4615 135.779 30.5415 133.814 34.2279 134.954C36.3687 135.613 38.0967 137.206 39.5079 138.944C41.7063 141.648 43.3223 144.819 44.2215 148.186C44.5223 149.315 44.7399 150.534 44.3399 151.632C43.5751 153.741 41.0055 154.454 38.7975 154.874C35.1623 155.565 31.4471 156.256 27.7799 155.754C24.6535 155.328 19.2135 153.325 19.0887 149.517C18.9831 146.243 21.9719 141.13 23.9815 138.733L23.9847 138.736Z" fill="#FFDE91"/>
<path d="M39.7248 132.461C39.984 134.282 39.2832 136.211 37.9168 137.443C36.3232 138.88 34.0704 139.29 31.936 139.498C29.4048 139.744 26.7008 139.754 24.5056 138.47C22.3104 137.187 20.9344 134.202 22.1984 131.997C23.2608 130.138 25.616 129.546 27.7152 129.126C31.9008 128.291 39.04 125.693 39.7248 132.461Z" fill="#3C4368"/>
<path d="M32.3007 90.7392C36.4735 89.4176 41.4623 90.0416 44.6303 92.7136C47.5391 95.168 48.5855 98.8576 50.6527 101.917C52.4191 104.531 55.0527 106.96 55.0847 110.029C55.1103 112.422 53.5039 114.592 51.8783 116.531C47.1071 122.214 41.5807 127.418 35.3599 131.866C33.8335 132.957 32.2047 134.029 30.3103 134.454C28.4159 134.88 26.1823 134.509 25.0335 133.133C23.8431 131.706 24.1247 129.722 24.3935 127.942C25.2831 122.054 25.4335 116.093 24.8543 110.198C24.5631 107.251 24.0895 104.32 23.4367 101.424C22.8415 98.7904 23.1743 97.6672 25.1295 95.4656C26.9951 93.3632 29.4559 91.6448 32.3039 90.7424L32.3007 90.7392Z" fill="#3C4368"/>
<path d="M22.256 128.349C22.5312 129.456 22.8608 130.579 23.6256 131.52C24.3936 132.464 25.6832 133.206 27.1392 133.203C28.88 133.197 30.3616 132.17 31.5456 131.142C39.5296 124.211 42.4704 114.774 45.0368 105.77C45.3152 104.79 45.5904 103.747 45.168 102.819C44.3968 101.123 41.7312 100.56 39.4112 100.432C33.9328 100.128 25.8176 100.851 21.2608 103.734C19.1584 105.066 20.2272 108.701 20.272 110.746C20.336 113.51 20.4576 116.275 20.7168 119.027C21.0144 122.16 21.488 125.277 22.2592 128.349H22.256Z" fill="#D6B2A4"/>
<path d="M21.0243 100.064C18.9571 101.782 17.4948 103.878 16.0612 105.946C15.4948 106.762 14.9124 107.715 15.3444 108.554C15.9236 109.68 17.8564 109.821 19.434 109.789C26.3812 109.654 33.3284 109.52 40.2724 109.382C42.0835 109.347 44.0676 109.261 45.45 108.31C47.2099 107.098 47.2484 104.954 46.5347 103.261C45.4596 100.71 42.9795 98.576 39.8372 97.4976C36.5828 96.3808 33.1716 96.8256 29.6964 96.88C26.3236 96.9312 23.3827 98.1056 21.0243 100.064Z" fill="#3C4368"/>
<path d="M26.7779 114.362C26.1763 114.755 26.1859 115.622 26.2595 116.339C26.2915 116.653 26.3267 116.976 26.4643 117.261C26.6019 117.546 26.8611 117.792 27.1779 117.824C27.5619 117.862 27.9139 117.565 28.0707 117.213C28.2275 116.861 28.2307 116.464 28.2307 116.077C28.2307 115.635 28.2275 115.174 28.0291 114.781C27.8307 114.387 27.3731 114.083 26.9507 114.214" fill="#292E54"/>
<path d="M31.1264 114.72C30.832 115.395 30.6912 116.141 30.7232 116.877C30.7392 117.226 30.8192 117.619 31.1168 117.802C31.4176 117.987 31.8336 117.869 32.0896 117.622C32.3456 117.376 32.48 117.034 32.6048 116.704C32.7616 116.291 32.9248 115.866 32.928 115.421C32.9312 114.976 32.7488 114.506 32.3616 114.285C31.9744 114.067 31.392 114.218 31.2544 114.637" fill="#292E54"/>
<path d="M28.3495 136.55C26.4295 136.55 24.6823 136.016 23.3447 134.982C23.2743 134.928 23.2615 134.829 23.3159 134.758C23.3703 134.688 23.4695 134.675 23.5399 134.73C25.3959 136.16 28.0807 136.595 30.9095 135.92C33.4567 135.312 35.7543 133.962 37.9751 132.656C38.0519 132.611 38.1479 132.637 38.1927 132.714C38.2375 132.79 38.2119 132.886 38.1351 132.931C35.8919 134.25 33.5751 135.613 30.9799 136.23C30.0807 136.445 29.1975 136.55 28.3463 136.55H28.3495Z" fill="white"/>
<path d="M28.2791 126.227C27.8535 126.221 27.4023 126.269 27.0631 126.525C26.7207 126.778 26.5447 127.293 26.7815 127.645C26.9383 127.878 27.2295 127.984 27.5047 128.051C28.3111 128.25 29.1783 128.256 29.9527 127.955C30.4711 127.754 32.7303 125.725 31.4279 125.264C31.0983 125.149 30.5222 125.738 30.2694 125.882C29.6135 126.256 29.0215 126.237 28.2791 126.224V126.227Z" fill="#292E54"/>
<path d="M100.528 42.4448C98.6596 43.6896 96.3076 44.528 95.2964 46.5312C94.3588 48.3872 94.9156 50.6496 95.786 52.5376C97.3476 55.9264 100.32 59.0848 104.048 59.2192C106.909 59.3216 109.485 57.6512 111.936 56.176C114.388 54.6976 117.232 53.3088 120.007 54.0192C122.688 54.7072 124.487 57.1424 126.714 58.784C130.736 61.7504 136.586 61.9712 140.823 59.3216C143.325 57.7568 145.344 54.8576 144.679 51.9808C143.991 49.008 140.858 47.3216 139.258 44.7232C136.42 40.1152 138.964 33.9072 137.12 28.816C136.26 26.4352 134.464 24.4608 132.33 23.0976C130.199 21.7312 127.744 20.9376 125.255 20.464C120.839 19.6192 116.058 19.8016 112.128 21.9808C109.325 23.536 107.069 26.2432 106.263 29.3664C105.901 30.7648 106.048 32.1888 105.799 33.5968C105.514 35.1968 105.117 36.7616 104.346 38.2048C103.44 39.8976 102.128 41.3792 100.528 42.4448Z" fill="#292E54"/>
<path d="M102.33 31.6319C101.886 40.4063 104.615 49.1455 108.999 56.7615C109.639 57.8751 110.327 58.9823 111.274 59.8495C112.218 60.7167 113.463 61.3311 114.746 61.2735C116.583 61.1871 118.078 59.7919 119.214 58.3455C122.615 54.0127 124.337 48.6399 126.324 43.5039C127.178 41.2959 128.1 39.0815 128.378 36.7327C128.657 34.3839 128.202 31.8303 126.599 30.0895C125.367 28.7519 123.614 28.0383 121.879 27.4879C119.265 26.6559 116.558 26.1055 113.828 25.8463C111.572 25.6319 108.708 25.8527 106.458 26.2751C103.594 26.8127 102.468 28.9279 102.33 31.6383V31.6319Z" fill="#FFDE91"/>
<path d="M112.055 44.3583C111.969 44.2111 111.815 44.0511 111.658 44.1183C111.54 44.1695 111.511 44.3263 111.501 44.4543C111.466 44.9375 111.159 47.7215 112.205 47.6191C113.169 47.5263 112.314 44.7999 112.055 44.3551V44.3583Z" fill="#292E54"/>
<path d="M117.104 44.9088C117.111 44.7488 117.095 44.5856 116.995 44.4672C116.298 43.6416 115.047 46.5472 115.421 47.1616C116.08 48.2464 117.085 45.3952 117.104 44.9088Z" fill="#292E54"/>
<path d="M120.401 21.0528C122.052 22.3264 123.642 23.7088 124.9 25.3728C126.158 27.0368 127.066 29.008 127.223 31.088C127.422 33.7632 126.378 36.4896 127.015 39.0976C127.178 39.7728 127.518 40.4832 128.161 40.736C128.682 40.9408 129.271 40.7968 129.802 40.6175C131.905 39.904 133.834 38.6432 135.239 36.928C136.644 35.2096 137.508 33.0304 137.54 30.8128C137.575 28.2688 136.545 25.8048 135.111 23.7056C134.292 22.5056 133.326 21.3855 132.113 20.5887C130.833 19.7471 129.338 19.2992 127.85 18.944C125.649 18.416 123.566 18.5312 121.348 18.336C120.737 18.2816 119.876 18.096 119.466 18.6912C118.839 19.6064 119.729 20.5376 120.401 21.056V21.0528Z" fill="#292E54"/>
<path d="M114.01 22.0416C114.353 22.368 114.782 22.5856 115.201 22.8064C117.057 23.7792 118.871 24.8608 120.452 26.2368C122.033 27.6128 123.377 29.3024 124.138 31.2544C124.66 32.5952 124.897 34.032 125.028 35.4624C125.063 35.8464 125.095 36.24 125.255 36.592C125.415 36.944 125.735 37.2512 126.122 37.2768C126.778 37.3216 127.201 36.608 127.415 35.9872C128.452 32.9824 128.35 29.6 127.134 26.6624C125.918 23.7248 123.598 21.2608 120.74 19.8688C119.169 19.104 117.422 18.8032 115.681 18.9728C114.222 19.1136 112.634 20.7296 114.014 22.0384L114.01 22.0416Z" fill="#D6B2A4"/>
<path d="M119.37 40.2592C116.852 41.1968 114.132 41.6992 111.46 41.408C106.074 40.8192 101.44 37.0464 98.5508 32.464C97.0788 30.1312 95.9524 27.4336 96.1796 24.6848C96.3012 23.2256 96.8516 21.7408 97.9684 20.7904C99.1812 19.76 100.868 19.5072 102.458 19.4464C106.871 19.28 111.232 20.2848 115.533 21.28C117.45 21.7248 119.405 22.1824 121.092 23.1968C123.188 24.4576 124.736 26.5216 125.6 28.8096C126.359 30.8192 126.615 32.9984 126.522 35.136C126.442 37.04 124.656 37.6672 123.146 38.4992C121.93 39.168 120.672 39.7696 119.37 40.256V40.2592Z" fill="#292E54"/>
<path d="M117.322 53.9552C117.565 53.7728 117.834 53.5808 118.096 53.552C118.436 53.5168 118.634 53.7696 118.682 54.0544C118.807 54.7904 118.17 55.7536 117.332 56.3072C116.49 56.8608 115.508 57.0432 114.692 56.9472C113.879 56.8512 114.103 56.3648 114.727 55.8944C115.588 55.2448 116.458 54.6016 117.322 53.9552Z" fill="#292E54"/>
<path d="M105.728 65.6895C105.072 66.5759 104.496 67.5391 103.677 68.2783C102.855 69.0175 101.834 69.4911 100.922 70.1183C100.01 70.7455 99.165 71.6127 98.9986 72.7071C98.7906 74.0831 99.7026 75.3695 100.691 76.3487C101.975 77.6223 103.735 78.7295 105.491 78.3167C106.877 77.9903 107.882 76.7999 108.637 75.5935C110.429 72.7359 111.6 69.1391 111.475 65.7375C111.434 64.5791 111.059 63.7983 109.859 63.5103C108.083 63.0879 106.701 64.3711 105.725 65.6927L105.728 65.6895Z" fill="#D6B2A4"/>
<path d="M108.266 66.1504C110.499 63.4816 114.179 61.712 117.504 62.7392C119.434 63.3344 120.992 64.7712 122.266 66.3392C124.247 68.7776 125.706 71.6384 126.515 74.6752C126.787 75.6928 126.983 76.7936 126.624 77.7824C125.933 79.6864 123.616 80.3296 121.626 80.7072C118.346 81.328 114.999 81.9552 111.69 81.5008C108.871 81.1168 103.962 79.3088 103.853 75.8784C103.757 72.928 106.455 68.3168 108.266 66.1536V66.1504Z" fill="#AF93A2"/>
<path d="M125.194 64.448C126.183 65.3248 127.133 66.2976 128.346 66.816C129.968 67.5104 131.962 67.344 133.341 68.448C134.621 69.4688 134.963 71.3472 134.535 72.9248C134.106 74.5024 133.04 75.8304 131.895 76.9952C130.16 78.7584 127.84 80.3712 125.408 79.9232C123.549 79.5808 122.077 78.064 121.287 76.3456C120.493 74.6272 120.266 72.7136 120.042 70.8352C119.872 69.4336 119.664 68.0512 119.277 66.6912C119.047 65.8848 118.583 64.9088 118.922 64.0704C120.074 61.2256 123.725 63.1456 125.197 64.448H125.194Z" fill="#D6B2A4"/>
<path d="M64.659 117.242C67.0334 114.406 70.9406 112.528 74.4734 113.616C76.5246 114.25 78.179 115.776 79.5326 117.44C81.6382 120.032 83.187 123.069 84.0478 126.294C84.3358 127.376 84.5438 128.544 84.163 129.597C83.4302 131.619 80.9662 132.301 78.8542 132.704C75.3694 133.366 71.8142 134.029 68.3006 133.549C65.3054 133.139 60.0926 131.222 59.9742 127.574C59.875 124.438 62.7358 119.539 64.6622 117.242H64.659Z" fill="#D6B2A4"/>
<path d="M66.6081 93.0719C65.5905 93.5647 64.3585 93.6831 63.3249 93.2287C62.2913 92.7743 61.5169 91.6863 61.5841 90.5599C61.6513 89.4303 62.6785 88.3967 63.8049 88.4639C64.6401 88.5119 65.3697 89.1071 65.7953 89.8271C66.2241 90.5471 66.4001 91.3823 66.5601 92.2047" fill="#FFDE91"/>
<path d="M93.2382 71.456C94.5726 72.7424 95.1358 74.7488 95.0142 76.6464C94.8894 78.544 94.147 80.3456 93.1966 81.968C90.8158 86.032 87.0526 89.1872 82.7486 90.7232C80.851 91.4016 78.6334 91.7312 76.9406 90.608C74.7422 89.1488 74.3966 85.9136 74.8094 83.216C75.4238 79.2032 77.3086 73.9264 81.0814 72.1184C84.4414 70.5088 90.1598 68.4864 93.2382 71.4592V71.456Z" fill="#292E54"/>
<path d="M64.4035 90.4479C63.5683 96.1919 63.6451 102.16 65.4627 107.67C66.1635 109.795 67.4883 112.125 69.7091 112.381C71.6227 112.602 73.2931 111.174 74.6595 109.821C77.8531 106.656 80.9219 103.312 83.2419 99.4623C85.5619 95.6127 87.1107 91.1999 87.0499 86.7039C86.9891 82.2079 85.1843 77.6415 81.7315 74.7647C78.8547 72.3711 71.6867 69.9871 68.8035 73.6191C67.3507 75.4495 66.9603 79.1391 66.3587 81.3599C65.5491 84.3519 64.8483 87.3791 64.4035 90.4479Z" fill="#FFDE91"/>
<path d="M87.0302 75.3216C88.3262 77.024 89.539 79.3568 88.4158 81.1744C87.7566 82.2368 86.4894 82.736 85.2894 83.088C78.4318 85.0976 70.8414 84.4768 64.3998 81.3824C57.9582 78.288 52.7326 72.7456 50.0158 66.1376C48.9726 63.5968 47.4654 58.64 50.291 56.6592C52.5822 55.0528 56.6046 56.384 59.011 56.9824C66.1246 58.7584 72.8382 62.0992 78.563 66.6752C81.7214 69.2 84.5822 72.1056 87.0334 75.3216H87.0302Z" fill="#292E54"/>
<path d="M72.6019 92.4287C72.5731 91.8623 72.8163 91.1711 73.3763 91.1007C73.7923 91.0495 74.1731 91.3983 74.3075 91.7951C74.4387 92.1919 74.3843 92.6271 74.3267 93.0431C74.2915 93.3055 74.2531 93.5711 74.1315 93.8079C74.0099 94.0415 73.7859 94.2399 73.5203 94.2559C73.1939 94.2751 72.9059 94.0095 72.7907 93.7055C72.6755 93.4015 72.6947 93.0623 72.7139 92.7359" fill="#292E54"/>
<path d="M67.8205 91.28C67.6285 90.8256 68.0765 90.2464 68.5629 90.3168C68.9405 90.3712 69.2157 90.7328 69.2893 91.1072C69.3661 91.4816 69.2829 91.8688 69.2029 92.24C69.1389 92.5344 69.0717 92.8384 68.8829 93.072C68.6941 93.3056 68.3485 93.4432 68.0861 93.2992C67.8045 93.1424 67.7469 92.7616 67.7693 92.4384C67.7885 92.1152 67.8461 91.7664 67.6797 91.4912" fill="#292E54"/>
<path d="M83.2158 92.9408C83.2702 91.2832 84.7454 89.7952 86.403 89.728C88.0606 89.6608 89.651 91.024 89.8366 92.6752C90.0222 94.3232 88.7774 96.0096 87.1486 96.3136C85.5166 96.6176 83.747 95.5008 83.3246 93.8944" fill="#FFDE91"/>
<path d="M71.3945 103.738C70.8249 103.846 70.1689 103.901 69.8201 104.365C69.5737 104.691 69.5609 105.155 69.7209 105.533C69.8809 105.91 70.1881 106.205 70.5337 106.429C71.6281 107.136 73.1513 107.101 74.2137 106.346C75.2761 105.59 75.8073 104.163 75.4969 102.896C75.1993 101.67 74.4793 102.08 73.7785 102.63C73.0777 103.181 72.2713 103.571 71.3945 103.741V103.738Z" fill="#292E54"/>
<path d="M72.1795 131.078C69.6355 126.138 68.4099 120.592 68.6371 115.043L69.2771 115.069C69.0563 120.509 70.2595 125.946 72.7491 130.787L72.1795 131.082V131.078Z" fill="white"/>
<path d="M75.8784 115.591L70.71 121.289L71.184 121.719L76.3524 116.021L75.8784 115.591Z" fill="white"/>
</svg>
