<svg width="160" height="160" viewBox="0 0 160 160" fill="none" xmlns="http://www.w3.org/2000/svg">
<g id="Survey 1">
<g id="notes">
<path id="Vector" d="M25.2795 131.104C27.4555 131.786 29.7947 131.61 32.0667 131.424C48.7995 130.077 65.6987 128.698 81.7243 123.696C84.9019 122.704 88.3163 121.344 89.8939 118.41C91.0139 116.33 90.9819 113.846 90.9115 111.485C90.1339 85.4176 87.8395 59.328 82.4635 33.808C81.9515 31.3856 81.2283 28.6976 79.0939 27.4368C77.8267 26.6912 76.2907 26.6016 74.8219 26.5504C57.6923 25.936 40.4827 27.536 23.7563 31.296C20.6395 31.9968 17.2827 32.9376 15.3851 35.5072C13.5611 37.9808 13.5707 41.3088 13.6731 44.3808C14.0827 56.6304 14.7483 68.8704 15.6667 81.0944C16.5947 93.4336 17.7819 105.754 19.2283 118.045C19.8011 122.925 19.5035 129.299 25.2795 131.104Z" fill="#3C4368"/>
<g id="Group">
<path id="Vector_2" d="M19.8008 35.5872C19.564 64.5824 21.484 93.5968 25.5384 122.31C25.6664 123.21 25.8456 124.198 26.5592 124.758C27.2344 125.29 28.172 125.267 29.0296 125.219C47.3144 124.173 65.5128 121.622 83.3816 117.603C84.2104 117.418 85.0968 117.197 85.6664 116.563C86.428 115.722 86.38 114.448 86.2872 113.318C84.0056 85.3792 81.0072 57.5008 77.2984 29.7152C69.1992 29.8976 61.1064 30.4704 53.0616 31.4336C49.1544 31.9008 45.2664 32.6944 41.3528 33.0688C38.6072 33.3312 35.9352 33.1744 33.18 33.5872C32.0312 33.76 19.804 35.2768 19.804 35.5904L19.8008 35.5872Z" fill="#BCBEC0"/>
<path id="Vector_3" d="M27.8807 122.522C47.8775 121.059 67.9575 119.587 87.5351 115.254C85.5063 86.1888 82.3223 57.2032 77.9959 28.3904C68.0919 28.9664 58.2007 29.76 48.3351 30.7776C43.3719 31.2896 38.4151 31.856 33.4647 32.48C31.0167 32.7872 28.5719 33.104 26.1303 33.4432C24.7927 33.632 22.9879 33.6736 21.8551 34.528C19.2727 36.4736 20.6615 42.8448 20.7191 45.6256C20.8183 50.544 20.9879 55.4592 21.2215 60.3744C21.6951 70.2016 22.4375 80.0128 23.4551 89.7984C23.7431 92.5696 27.0551 122.582 27.8839 122.522H27.8807Z" fill="#E6E7E8"/>
<path id="Vector_4" d="M65.9895 28.2848C65.7335 26.9024 64.9143 25.5424 63.6055 25.0272C62.2615 24.496 60.6103 24.9152 59.4071 24.112C58.1399 23.2672 57.9415 21.4624 56.9207 20.3328C55.7719 19.0624 53.8519 18.9056 52.1399 18.9568C49.5607 19.0368 46.9879 19.3984 44.4855 20.032C43.2247 20.352 41.9159 20.7776 41.0327 21.7312C40.0503 22.7904 39.7527 24.3232 38.8823 25.472C37.1191 27.824 34.1591 27.0048 32.1143 28.6336C30.4759 29.936 30.6263 34.5184 32.2103 35.7888C32.8407 36.2944 33.7207 36.3136 34.5303 36.3072C45.0871 36.2304 55.8711 36.032 65.8135 32.4768C66.0311 31.088 66.2455 29.6672 65.9927 28.288L65.9895 28.2848ZM51.5383 23.616C49.4327 24.1728 47.2567 24.4672 45.0775 24.4864C44.1975 24.4928 43.1223 24.3296 42.8055 23.5072C42.3863 22.4288 51.8839 20.4736 53.4391 21.7216C55.0743 23.0336 52.8631 23.2672 51.5383 23.6192V23.616Z" fill="#D6B2A4"/>
</g>
</g>
<g id="writing">
<g id="question-mark">
<path id="Vector_5" d="M61.4146 44.4384C62.1218 44.0736 62.6434 43.4368 63.261 42.9376C63.8786 42.4384 64.717 42.0608 65.4594 42.3424C66.5602 42.7584 66.7138 44.3264 66.1986 45.3856C65.6834 46.4416 64.733 47.2288 64.141 48.2432C63.0562 50.0992 63.3026 52.4128 63.5842 54.544C64.461 54.5376 65.3346 54.3008 66.093 53.8624C65.501 51.9744 65.8018 49.8304 66.8866 48.1792C67.7026 46.9344 68.9058 46 69.8594 44.8576C71.0626 43.4176 71.8594 41.3504 71.0306 39.6672C70.2114 38.0064 68.0706 37.3632 66.2498 37.7024C64.7106 37.9904 62.7362 38.9216 61.5938 40.0256C60.4962 41.0816 61.2514 43.1008 61.4178 44.4384H61.4146Z" fill="#3C4368"/>
<path id="Vector_6" d="M63.9682 56.0576C63.709 56.32 63.5234 56.6688 63.5234 57.0368C63.5234 57.3696 63.6802 57.6896 63.8914 57.9456C64.2594 58.3904 64.8226 58.6816 65.4018 58.6848C66.4322 58.6848 67.5682 57.4944 66.941 56.4608C66.6818 56.0352 66.1154 55.8592 65.6738 55.7056C64.9346 55.4432 64.5506 55.4688 63.9682 56.0576Z" fill="#3C4368"/>
</g>
<path id="Vector_7" d="M73.2512 72.5472C72.9408 70.7744 72.8 65.8496 70.8512 65.0816C69.616 64.5952 67.5712 65.1744 66.2784 65.2736L63.008 65.52C61.824 65.6096 60.9024 66.6112 60.8448 67.8432C60.72 70.5504 60.8608 73.2736 61.264 75.952C61.3632 76.5984 61.4944 77.2832 61.9232 77.7632C62.5664 78.48 63.6384 78.5024 64.5824 78.448C66.32 78.3456 68.0512 78.1536 69.7696 77.8752C70.9056 77.6928 72.1376 77.408 72.8448 76.4672C73.648 75.3984 73.4848 73.8816 73.2512 72.5472ZM71.7312 75.6288C71.1616 76.3456 70.1728 76.5632 69.2608 76.704C67.8784 76.9152 66.4864 77.0624 65.0912 77.1392C64.3328 77.1808 63.472 77.1648 62.9536 76.6176C62.608 76.2528 62.5024 75.7312 62.4224 75.2352C62.096 73.1936 61.984 71.12 62.0832 69.056C62.128 68.1152 62.8672 67.3536 63.8208 67.2832L66.4512 67.0944C67.4912 67.0208 69.136 66.576 70.128 66.9472C71.6928 67.5328 71.808 71.2864 72.0576 72.6368C72.2432 73.6544 72.3776 74.8096 71.7312 75.6256V75.6288Z" fill="#3C4368"/>
<path id="Vector_8" d="M75.1262 88.0672C74.8158 86.2944 74.675 81.3696 72.7262 80.6016C71.491 80.1152 69.4462 80.6944 68.1534 80.7936L64.883 81.04C63.699 81.1296 62.7774 82.1312 62.7198 83.3632C62.595 86.0704 62.7358 88.7936 63.139 91.472C63.2382 92.1184 63.3694 92.8032 63.7982 93.2832C64.4414 94 65.5134 94.0224 66.4574 93.968C68.195 93.8656 69.9262 93.6736 71.6446 93.3952C72.7806 93.2128 74.0126 92.928 74.7198 91.9872C75.523 90.9184 75.3598 89.4016 75.1262 88.0672ZM73.6062 91.1488C73.0366 91.8656 72.0478 92.0832 71.1358 92.224C69.7534 92.4352 68.3614 92.5824 66.9662 92.6592C66.2078 92.7008 65.347 92.6848 64.8286 92.1376C64.483 91.7728 64.3774 91.2512 64.2974 90.7552C63.971 88.7136 63.859 86.64 63.9582 84.576C64.003 83.6352 64.7422 82.8736 65.6958 82.8032L68.3262 82.6144C69.3662 82.5408 71.011 82.096 72.003 82.4672C73.5678 83.0528 73.683 86.8064 73.9326 88.1568C74.1182 89.1744 74.2526 90.3296 73.6062 91.1456V91.1488Z" fill="#3C4368"/>
<path id="Vector_9" d="M77.1584 103.59C76.848 101.818 76.7072 96.8928 74.7584 96.1248C73.5232 95.6384 71.4784 96.2176 70.1856 96.3168L66.9152 96.5632C65.7312 96.6528 64.8096 97.6544 64.752 98.8864C64.6272 101.594 64.768 104.317 65.1712 106.995C65.2704 107.642 65.4016 108.326 65.8304 108.806C66.4736 109.523 67.5456 109.546 68.4896 109.491C70.2272 109.389 71.9584 109.197 73.6768 108.918C74.8128 108.736 76.0448 108.451 76.752 107.51C77.5552 106.442 77.392 104.925 77.1584 103.59ZM75.6384 106.672C75.0688 107.389 74.08 107.606 73.168 107.747C71.7856 107.958 70.3936 108.106 68.9984 108.182C68.24 108.224 67.3792 108.208 66.8608 107.661C66.5152 107.296 66.4096 106.774 66.3296 106.278C66.0032 104.237 65.8912 102.163 65.9904 100.099C66.0352 99.1584 66.7744 98.3968 67.728 98.3264L70.3584 98.1376C71.3984 98.064 73.0432 97.6192 74.0352 97.9904C75.6 98.576 75.7152 102.33 75.9648 103.68C76.1504 104.698 76.2848 105.853 75.6384 106.669V106.672Z" fill="#3C4368"/>
<g id="Group_2">
<path id="Vector_10" d="M66.5118 75.616C65.8974 75.616 65.331 75.2832 65.0014 74.7264C63.9998 73.0432 63.0302 71.2992 62.1246 69.5488C61.7278 68.7808 61.427 68.1504 61.2574 67.5744C61.0718 66.9408 61.1678 66.3264 61.5294 65.8464C61.8782 65.3792 62.4318 65.1008 63.0078 65.1008C63.7534 65.1008 64.3646 65.5584 64.6494 66.32C65.0782 67.4752 65.4686 68.5184 65.9166 69.5488C66.0638 69.8912 66.3518 70.096 66.6814 70.096C66.9918 70.096 67.2734 69.9072 67.4302 69.5936L71.315 61.8304C71.7406 60.9792 72.2718 59.92 73.2286 59.3824C73.6478 59.1456 74.1214 59.0272 74.6334 59.0272C74.8574 59.0272 75.0974 59.0496 75.3406 59.0976C75.9582 59.2128 76.4638 59.6576 76.6942 60.2848C76.9438 60.9664 76.8254 61.728 76.3806 62.2784C73.2798 66.112 70.4766 70.2848 68.051 74.6752C67.7246 75.2672 67.1486 75.6192 66.5086 75.6192L66.5118 75.616Z" fill="#3C4368"/>
<path id="Vector_11" d="M74.6363 59.4944C74.8411 59.4944 75.0491 59.5168 75.2571 59.5552C76.2843 59.7472 76.7163 61.1264 76.0219 61.984C72.8987 65.8464 70.0923 70.0256 67.6443 74.448C67.3851 74.9152 66.9499 75.152 66.5115 75.152C66.0731 75.152 65.6635 74.9312 65.4011 74.4896C64.3995 72.8064 63.4427 71.0848 62.5371 69.3344C62.1563 68.5952 61.8619 67.9808 61.7051 67.4432C61.3819 66.336 62.1979 65.5648 63.0107 65.5648C63.4939 65.5648 63.9771 65.84 64.2139 66.48C64.6203 67.5776 65.0267 68.6656 65.4907 69.7344C65.7307 70.2848 66.2043 70.5632 66.6843 70.5632C67.1643 70.5632 67.5963 70.3104 67.8491 69.8016C69.1451 67.2128 70.4411 64.6272 71.7339 62.0384C72.1723 61.1648 72.6555 60.24 73.4587 59.7888C73.8331 59.5776 74.2267 59.4944 74.6331 59.4944M74.6331 58.56C74.0411 58.56 73.4907 58.7008 73.0011 58.976C71.9195 59.584 71.3275 60.7616 70.8987 61.6224L68.9563 65.504L67.0139 69.3856C66.9339 69.5424 66.8155 69.632 66.6811 69.632C66.5979 69.632 66.4443 69.5968 66.3451 69.3664C65.9035 68.3456 65.5131 67.3088 65.0875 66.16C64.7387 65.2192 63.9419 64.6336 63.0107 64.6336C62.2875 64.6336 61.5963 64.9824 61.1579 65.568C60.7067 66.1728 60.5819 66.9312 60.8091 67.7088C60.9883 68.32 61.2987 68.9728 61.7083 69.7664C62.6171 71.5264 63.5899 73.2768 64.5979 74.9696C65.0139 75.6704 65.7307 76.0896 66.5115 76.0896C67.2923 76.0896 68.0507 75.648 68.4603 74.9056C70.8763 70.5408 73.6635 66.3904 76.7451 62.576C77.2923 61.9008 77.4395 60.96 77.1323 60.128C76.8443 59.344 76.2043 58.7904 75.4267 58.6432C75.1547 58.592 74.8859 58.5664 74.6331 58.5664V58.56Z" fill="#E6E7E8"/>
</g>
<path id="Vector_12" d="M29.3023 46.0032C28.0127 46.2688 26.3903 47.0464 26.6399 48.3392C26.8543 49.456 28.2879 49.76 29.4239 49.8176C37.9807 50.2336 47.5487 50.7296 55.9263 48.5792C59.3151 47.712 59.5775 45.8592 56.1311 45.184C52.3519 44.4448 48.2751 44.3808 44.4415 44.4096C39.3599 44.4448 34.2815 44.976 29.3023 46.0032Z" fill="#BCBEC0"/>
<path id="Vector_13" d="M29.482 55.7696C28.2052 55.9936 26.6148 56.4992 26.906 57.1264C27.1588 57.6672 28.5988 57.7184 29.7316 57.664C38.2788 57.2576 47.8404 56.816 56.122 55.1424C59.4724 54.4672 59.674 53.5232 56.2084 53.4336C52.4132 53.3376 48.346 53.5968 44.522 53.888C39.4532 54.272 34.4068 54.9024 29.4788 55.7728L29.482 55.7696Z" fill="#BCBEC0"/>
<g id="Group_3">
<path id="Vector_14" d="M26.7455 72.096C26.5855 72.096 26.4479 71.9744 26.4287 71.8144C26.4095 71.6384 26.5343 71.4784 26.7103 71.4592L56.3775 68C56.5535 67.9808 56.7135 68.1056 56.7327 68.2816C56.7519 68.4576 56.6271 68.6176 56.4511 68.6368L26.7839 72.096C26.7839 72.096 26.7583 72.096 26.7455 72.096Z" fill="#BCBEC0"/>
<path id="Vector_15" d="M27.2637 75.9904C27.1037 75.9904 26.9661 75.872 26.9469 75.7088C26.9245 75.5328 27.0493 75.3728 27.2253 75.3504L56.7805 71.6736C56.9565 71.6512 57.1165 71.776 57.1389 71.952C57.1613 72.128 57.0365 72.288 56.8605 72.3104L27.3053 75.9872C27.3053 75.9872 27.2797 75.9872 27.2669 75.9872L27.2637 75.9904Z" fill="#BCBEC0"/>
<path id="Vector_16" d="M27.5099 79.5712C27.3531 79.5712 27.2155 79.4528 27.1931 79.2928C27.1707 79.1168 27.2923 78.9568 27.4683 78.9344L56.9467 75.0592C57.1227 75.0368 57.2827 75.1584 57.3051 75.3344C57.3275 75.5104 57.2059 75.6704 57.0299 75.6928L27.5515 79.568C27.5515 79.568 27.5227 79.568 27.5099 79.568V79.5712Z" fill="#BCBEC0"/>
<path id="Vector_17" d="M28.1953 91.1808C28.0417 91.1808 27.9041 91.0688 27.8785 90.9088C27.8529 90.7328 27.9713 90.5696 28.1473 90.544L57.3953 86.0224C57.5681 85.9968 57.7345 86.1152 57.7601 86.2912C57.7857 86.4672 57.6673 86.6304 57.4913 86.656L28.2433 91.1776C28.2273 91.1776 28.2113 91.1808 28.1953 91.1808Z" fill="#BCBEC0"/>
<path id="Vector_18" d="M28.701 94.976C28.5474 94.976 28.4098 94.864 28.3842 94.7072C28.3554 94.5312 28.4738 94.368 28.6498 94.3392L57.7922 89.6096C57.965 89.5808 58.1314 89.6992 58.1602 89.8752C58.189 90.0512 58.0706 90.2144 57.8946 90.2432L28.7522 94.9728C28.7362 94.9728 28.717 94.976 28.701 94.976Z" fill="#BCBEC0"/>
<path id="Vector_19" d="M28.944 98.4704C28.7904 98.4704 28.656 98.3584 28.6304 98.2048C28.6016 98.032 28.7168 97.8656 28.8928 97.8368L57.9616 92.9152C58.1376 92.8864 58.3008 93.0016 58.3296 93.1776C58.3584 93.3504 58.2432 93.5168 58.0672 93.5456L28.9984 98.4672C28.9792 98.4672 28.9632 98.4704 28.944 98.4704Z" fill="#BCBEC0"/>
<path id="Vector_20" d="M31.5035 106.906C31.3531 106.906 31.2187 106.797 31.1899 106.643C31.1579 106.47 31.2731 106.301 31.4459 106.269L60.1115 100.912C60.2843 100.88 60.4539 100.995 60.4859 101.168C60.5179 101.341 60.4027 101.51 60.2299 101.542L31.5643 106.899C31.5451 106.902 31.5259 106.906 31.5067 106.906H31.5035Z" fill="#BCBEC0"/>
<path id="Vector_21" d="M31.9938 110.602C31.8434 110.602 31.709 110.496 31.6802 110.342C31.645 110.17 31.7602 110 31.933 109.968L60.4962 104.413C60.669 104.378 60.8386 104.493 60.8706 104.666C60.9058 104.838 60.7906 105.008 60.6178 105.04L32.0546 110.595C32.0354 110.598 32.013 110.602 31.9938 110.602Z" fill="#BCBEC0"/>
<path id="Vector_22" d="M32.2244 114.013C32.074 114.013 31.9428 113.907 31.9108 113.757C31.8756 113.584 31.9876 113.414 32.1604 113.379L60.6532 107.642C60.826 107.606 60.9956 107.718 61.0308 107.891C61.066 108.064 60.954 108.234 60.7812 108.269L32.2884 114.006C32.266 114.01 32.2468 114.013 32.2244 114.013Z" fill="#BCBEC0"/>
</g>
</g>
<g id="hand-behind">
<path id="Vector_23" d="M85.0432 67.0208C83.5328 67.632 82.0192 68.24 80.5088 68.8512C80.992 73.952 83.6768 78.128 88.1088 80.6752C92.5376 83.2224 98.6944 84.1248 105.526 83.2288C106.445 83.1104 109.002 82.1728 107.99 81.424C107.571 81.1136 104.918 81.6544 104.15 81.6416C101.526 81.6 99.088 81.2288 96.8928 80.5728C92.5344 79.2672 89.1328 76.8256 87.0976 73.5104C85.936 71.6128 85.2224 69.4272 85.0432 67.0208Z" fill="#BCBEC0"/>
<path id="Vector_24" d="M78.9891 66.3296C77.9331 64.8128 77.2067 63.0016 77.3059 61.1552C77.4051 59.3088 78.4451 57.4592 80.1347 56.7136C81.8243 55.968 84.0995 56.6144 84.8899 58.2848C85.5107 57.4944 86.7075 57.2288 87.6067 57.6768C88.5059 58.1248 89.0083 59.2448 88.7491 60.2176C88.4227 61.4336 87.1331 62.1824 86.7363 63.376C86.4771 64.1568 86.6339 65.0368 86.3267 65.7984C85.9747 66.6656 85.1139 67.1872 84.3715 67.7536C83.2323 68.6272 83.2195 69.9328 81.7795 69.4272C80.8131 69.088 79.5491 67.1296 78.9891 66.3232V66.3296Z" fill="#FFDE91"/>
</g>
<g id="pen">
<path id="Vector_25" d="M109.107 39.0528C94.3291 48.8096 79.2379 58.8576 68.6523 73.0528C81.5387 70.6528 93.6572 65.0496 104.764 58.0896C115.872 51.1328 126.057 42.8192 136.211 34.5312C137.785 33.248 140.848 30.976 140.211 28.5504C139.708 26.64 137.203 26.1472 135.526 26.128C129.814 26.0704 123.305 30.2592 118.55 33.056C115.337 34.9472 112.22 36.9952 109.11 39.0496L109.107 39.0528Z" fill="#D6B2A4"/>
<path id="Vector_26" d="M137.961 26.6592C137.398 27.0208 136.825 27.4336 136.521 28.0288C136.214 28.6272 136.268 29.4592 136.809 29.856C137.484 30.352 138.425 29.9392 139.151 29.52C140.351 28.8256 147.635 25.4848 146.172 24.1408C144.39 22.5024 139.34 25.7728 137.964 26.6592H137.961Z" fill="#AF93A2"/>
<path id="Vector_27" d="M131.232 43.712C127.651 46.3712 123.232 47.6096 118.889 48.6336C116.944 49.0912 114.966 49.5296 113.2 50.464C111.433 51.3984 109.872 52.912 109.363 54.8448C109.123 55.7536 109.152 56.7904 109.705 57.552C110.259 58.3104 111.443 58.6336 112.179 58.048C112.886 57.488 112.902 56.448 113.177 55.5904C113.865 53.4272 116.24 52.3488 118.393 51.6192C122.806 50.1248 127.395 49.0016 131.436 46.6848C135.478 44.368 138.998 40.5568 139.532 35.9296C139.913 32.6272 137.923 31.3664 136.806 34.8992C135.667 38.5056 134.403 41.36 131.235 43.7152L131.232 43.712Z" fill="#AF93A2"/>
<path id="Vector_28" d="M82.4985 69.296C89.4457 69.0912 95.6441 65.12 101.439 61.2832C102.966 60.272 104.562 59.1808 105.337 57.5232C106.511 55.008 105.43 52.0448 104.102 49.6096C102.918 47.44 101.142 45.1456 98.6681 45.0848C96.9721 45.04 95.4617 46.0832 94.0985 47.0944C89.3689 50.608 84.7577 54.2944 80.3193 58.1728C78.0249 60.176 78.4377 60.752 80.1305 62.9824C80.4697 63.4304 83.2409 69.2768 82.5017 69.2992L82.4985 69.296Z" fill="#AF93A2"/>
<path id="Vector_29" d="M131.062 38.8672C132.16 38.8032 133.053 37.8432 133.341 36.7808C133.629 35.7184 133.427 34.5856 133.117 33.5296C132.493 31.408 131.395 29.376 129.718 27.9328C129.03 27.3376 126.608 26.5728 127.043 28.32C127.302 29.3536 128.586 30.544 129.094 31.5328C129.379 32.0864 131.686 38.832 131.059 38.8704L131.062 38.8672Z" fill="#AF93A2"/>
</g>
<g id="character">
<path id="Vector_30" d="M132.564 136C131.876 137.174 131.185 138.352 130.497 139.526C130.254 139.942 129.985 140.378 129.668 140.749C129.159 141.354 128.167 140.966 128.177 140.176C128.206 138.106 128.314 135.45 129.402 134.106C130.782 132.4 133.889 133.734 132.561 136H132.564Z" fill="#292E54"/>
<path id="Vector_31" d="M130.615 134.374C131.028 135.238 129.866 135.978 129.252 135.242C128.593 134.454 128.078 133.44 127.671 132.515C124.298 124.803 120.049 117.478 115.028 110.72C114.74 110.333 114.404 109.974 114.01 109.699C111.454 107.91 109.175 110.477 108.506 112.877C107.473 116.576 108.362 120.602 110.126 124.013C111.886 127.414 114.455 130.32 116.999 133.181L116.132 134.019C112.094 130.221 108.718 126.595 106.782 122.432C104.705 117.968 104.737 112.826 106.609 108.272C107.495 106.122 108.769 103.792 110.887 102.637C113.425 101.254 115.818 102.061 116.977 104.474C118.59 107.827 120.062 111.27 121.646 114.643C123.396 118.371 125.146 122.099 126.897 125.827C127.236 126.55 129.207 131.434 130.609 134.378L130.615 134.374Z" fill="#AF93A2"/>
<path id="Vector_32" d="M117.591 131.27C117.623 132.634 117.655 133.994 117.687 135.357C117.7 135.84 117.7 136.349 117.626 136.832C117.511 137.616 116.465 137.808 116.058 137.13C114.996 135.354 113.69 133.037 113.908 131.322C114.186 129.146 117.53 128.646 117.591 131.27Z" fill="#292E54"/>
<path id="Vector_33" d="M112.263 109.219C112.202 109.219 112.145 109.184 112.119 109.126C111.316 107.437 110.929 105.555 111.006 103.686C111.009 103.597 111.082 103.53 111.172 103.533C111.262 103.536 111.329 103.61 111.326 103.699C111.265 105.232 111.521 106.771 112.071 108.202C112.065 106.534 112.407 104.87 113.07 103.341C113.105 103.261 113.198 103.222 113.281 103.258C113.361 103.293 113.399 103.386 113.364 103.469C112.606 105.219 112.282 107.149 112.426 109.05C112.433 109.126 112.382 109.197 112.308 109.216C112.295 109.219 112.279 109.222 112.266 109.222L112.263 109.219Z" fill="white"/>
<path id="Vector_34" d="M109.882 53.2512C107.953 52.7904 105.703 52.8224 104.25 54.1728C102.545 55.7632 102.625 58.4416 102.833 60.7648C103.23 65.2096 103.626 69.6544 104.023 74.0992C104.11 75.0816 104.206 76.0896 104.647 76.9696C105.089 77.8496 105.966 78.5856 106.951 78.56C108.081 78.5312 108.945 77.5712 109.62 76.6624C112.647 72.5824 114.89 67.9232 116.212 63.0176C116.711 61.168 117.879 58.3776 116.458 56.7904C114.874 55.0208 112.135 53.7888 109.879 53.248L109.882 53.2512Z" fill="#FFDE91"/>
<path id="Vector_35" d="M101.357 57.0912C97.9044 53.7376 96.0164 48.832 96.3332 44.0288C96.4292 42.5984 96.794 41.04 97.9556 40.2048C99.514 39.088 101.7 39.7824 103.354 40.752C108.484 43.7568 111.991 48.8704 114.967 54.016C117.082 54.6784 119.258 55.3888 120.938 56.8384C122.618 58.2848 123.693 60.6688 122.96 62.7616C122.439 64.256 121.092 65.3472 119.623 65.9392C118.154 66.5312 116.554 66.6944 114.976 66.8512C114.794 65.7088 114.906 63.024 114.042 62.1504C113.258 61.3536 110.887 61.6928 109.799 61.4752C108.199 61.1584 106.647 60.6144 105.204 59.8624C103.789 59.1232 102.701 57.8144 101.351 57.0912H101.357Z" fill="#292E54"/>
<g id="Group_4">
<path id="Vector_36" d="M113.955 64.6496C114.285 64.1408 114.861 63.7984 115.466 63.7568C116.071 63.7152 116.691 63.9712 117.088 64.432C117.523 64.9344 117.674 65.632 117.635 66.2944C117.61 66.7328 117.498 67.1808 117.226 67.5264C116.816 68.0416 116.103 68.24 115.443 68.1856C114.787 68.1344 114.167 67.8688 113.559 67.6096" fill="#FFDE91"/>
<path id="Vector_37" d="M122.755 68.3552C122.682 68.3552 122.605 68.3552 122.528 68.3456C121.837 68.2912 121.207 68.0192 120.595 67.7568C120.515 67.7216 120.477 67.6288 120.512 67.5456C120.547 67.4656 120.64 67.4272 120.723 67.4624C121.312 67.7152 121.917 67.9744 122.557 68.0256C123.235 68.08 123.863 67.8496 124.202 67.424C124.423 67.1456 124.551 66.7616 124.579 66.2816C124.621 65.5808 124.442 64.96 124.071 64.5312C123.706 64.112 123.136 63.872 122.583 63.9104C122.029 63.9488 121.495 64.2624 121.194 64.7296C121.146 64.8032 121.047 64.8256 120.973 64.7776C120.899 64.7296 120.877 64.6304 120.925 64.5568C121.28 64.0064 121.907 63.6352 122.56 63.5904C123.213 63.5456 123.885 63.824 124.314 64.32C124.739 64.8128 124.947 65.5136 124.899 66.2976C124.867 66.8448 124.717 67.2896 124.455 67.6192C124.087 68.0832 123.463 68.3488 122.762 68.3488L122.755 68.3552Z" fill="white"/>
</g>
<path id="Vector_38" d="M108.167 64.7264C108.151 64.5664 108.33 64.4384 108.487 64.4608C108.644 64.4864 108.766 64.624 108.817 64.7744C108.868 64.9248 108.862 65.088 108.855 65.248C108.846 65.4656 108.836 65.68 108.826 65.8976C108.82 66.0576 108.807 66.2336 108.708 66.3584C108.433 66.704 108.164 66.2848 108.161 66.0224C108.154 65.5936 108.196 65.1648 108.17 64.7232L108.167 64.7264Z" fill="#292E54"/>
<path id="Vector_39" d="M109.267 74.2752C109.066 74.6656 108.691 74.9984 108.253 75.0304C107.814 75.0624 107.35 74.704 107.373 74.2656C107.379 74.1568 107.418 74.0448 107.51 73.9904C107.584 73.9488 107.677 73.952 107.76 73.9552C108.342 73.968 108.656 73.6384 109.162 73.4944C109.741 73.3312 109.446 73.9232 109.264 74.2784L109.267 74.2752Z" fill="#292E54"/>
<path id="Vector_40" d="M105.472 64.9184C105.456 64.7584 105.635 64.6304 105.792 64.6528C105.949 64.6784 106.07 64.816 106.122 64.9664C106.173 65.1168 106.166 65.28 106.16 65.44C106.15 65.6576 106.141 65.872 106.131 66.0896C106.125 66.2496 106.112 66.4256 106.013 66.5504C105.738 66.896 105.469 66.4768 105.466 66.2144C105.459 65.7856 105.501 65.3568 105.475 64.9152L105.472 64.9184Z" fill="#292E54"/>
<path id="Vector_41" d="M115.463 66.9568C115.424 66.9568 115.389 66.9568 115.351 66.9472C115.264 66.9312 115.207 66.848 115.22 66.7616C115.236 66.6752 115.319 66.6176 115.405 66.6304C115.588 66.6624 115.796 66.5408 115.892 66.3456C116.013 66.0992 115.952 65.8208 115.908 65.6768C115.831 65.4368 115.687 65.216 115.549 64.9984C115.501 64.9248 115.524 64.8256 115.597 64.7776C115.671 64.7296 115.77 64.752 115.818 64.8256C115.965 65.0592 116.122 65.2992 116.212 65.5776C116.317 65.9072 116.304 66.2304 116.18 66.4864C116.039 66.7712 115.751 66.9536 115.463 66.9536V66.9568Z" fill="white"/>
<path id="Vector_42" d="M101.985 104.496C101.889 106.157 102.023 108.186 103.502 108.944C104.599 109.504 105.921 109.066 107.06 108.598C109.943 107.421 112.778 106.115 115.546 104.688C116.714 104.086 117.914 103.424 118.67 102.352C119.607 101.024 119.71 99.2448 119.319 97.6672C118.929 96.0896 118.1 94.6592 117.281 93.2544C115.678 90.5024 114.074 87.7504 112.468 84.9984C111.415 83.1904 110.113 80.1888 107.642 80.0096C104.89 79.808 104.724 83.5136 104.353 85.4528C103.793 88.368 103.319 91.2992 102.938 94.24C102.497 97.648 102.177 101.072 101.982 104.499L101.985 104.496Z" fill="#292E54"/>
<path id="Vector_43" d="M126.954 68.4832C123.697 74.1824 117.636 78.1888 111.117 78.9536C109.469 79.1456 107.341 79.5264 107.066 81.1616C106.909 82.1056 107.565 83.0464 108.417 83.488C109.268 83.9296 110.266 83.9712 111.226 83.9264C118.906 83.568 125.745 78.1856 129.377 71.4112C133.009 64.6368 133.821 56.672 133.377 48.9984C133.377 49.0304 130.183 49.2896 129.949 49.3216C128.225 49.5488 128.397 49.2384 128.401 50.6624C128.407 52.5344 129.533 54.6848 129.652 56.6592C129.901 60.7488 128.993 64.9216 126.954 68.4832Z" fill="#BCBEC0"/>
<path id="Vector_44" d="M137.895 38.5792C137.761 37.552 137.486 36.5152 136.878 35.6736C136.27 34.832 135.284 34.2176 134.247 34.2624C133.118 34.3104 132.135 35.1264 131.572 36.1088C131.012 37.0912 130.794 38.2272 130.59 39.3376C130.234 38.3936 129.713 37.4784 128.91 36.8672C128.106 36.256 126.983 35.9968 126.062 36.4064C124.913 36.9184 124.375 38.32 124.494 39.5744C124.615 40.8288 125.252 41.9648 125.892 43.0464C126.535 44.128 127.207 45.2352 127.415 46.4768C127.562 47.3536 127.466 48.2496 127.508 49.136C127.55 50.0224 127.758 50.9568 128.385 51.5872C130.35 53.552 134.231 49.2512 135.345 47.7824C137.31 45.1872 138.318 41.8304 137.892 38.5824L137.895 38.5792Z" fill="#FFDE91"/>
<path id="Vector_45" d="M132.614 47.4528C132.579 47.4528 132.544 47.44 132.512 47.4176C132.445 47.3632 132.432 47.2608 132.49 47.1936C135.354 43.6896 136.134 38.5184 134.435 34.3264C134.403 34.2432 134.442 34.1504 134.525 34.1184C134.608 34.0864 134.701 34.1248 134.733 34.208C136.474 38.5056 135.674 43.808 132.739 47.3984C132.707 47.4368 132.662 47.456 132.614 47.456V47.4528Z" fill="white"/>
<path id="Vector_46" d="M130.413 54.3808C130.221 54.3808 130.032 54.3616 129.843 54.3232C129.757 54.304 129.702 54.2208 129.722 54.1344C129.741 54.048 129.824 53.9936 129.91 54.0128C131.018 54.2496 132.256 53.6704 132.784 52.6688C132.826 52.592 132.922 52.56 133.002 52.6016C133.078 52.6432 133.11 52.7392 133.069 52.8192C132.563 53.7728 131.488 54.384 130.413 54.384V54.3808Z" fill="white"/>
</g>
</g>
</svg>
