<svg width="193" height="80" viewBox="0 0 193 80" fill="none" xmlns="http://www.w3.org/2000/svg">
<g clip-path="url(#clip0_411_50)">
<path fill-rule="evenodd" clip-rule="evenodd" d="M115.49 53.538C106.223 60.3604 92.7914 64.0005 81.2268 64.0005C65.0113 64.0005 50.4132 58.01 39.3692 48.0467C38.5015 47.2632 39.2789 46.1955 40.3202 46.8056C52.2388 53.7321 66.9758 57.8991 82.1986 57.8991C92.4652 57.8991 103.759 55.7774 114.144 51.3747C115.712 50.7091 117.024 52.4009 115.49 53.538Z" fill="#FF9900"/>
<path fill-rule="evenodd" clip-rule="evenodd" d="M119.343 49.1341C118.163 47.6226 111.513 48.4199 108.528 48.7735C107.618 48.8845 107.48 48.094 108.299 47.5255C113.595 43.8023 122.286 44.8769 123.299 46.125C124.313 47.3799 123.036 56.0813 118.059 60.2344C117.295 60.8723 116.566 60.5326 116.906 59.6867C118.024 56.8995 120.53 50.6525 119.343 49.1341Z" fill="#FF9900"/>
<path fill-rule="evenodd" clip-rule="evenodd" d="M108.737 21.2415V17.6222C108.737 17.0745 109.153 16.707 109.653 16.707H125.875C126.396 16.707 126.813 17.0814 126.813 17.6222V20.7215C126.806 21.2415 126.368 21.921 125.591 22.9956L117.185 34.9835C120.308 34.9072 123.606 35.3718 126.438 36.9664C127.076 37.327 127.25 37.8539 127.298 38.3739V42.2358C127.298 42.7628 126.715 43.3798 126.104 43.0609C121.113 40.447 114.484 40.1627 108.966 43.0886C108.404 43.3937 107.813 42.7836 107.813 42.2566V38.5889C107.813 37.9995 107.82 36.9942 108.41 36.0998L118.149 22.1498H109.674C109.153 22.1498 108.737 21.7823 108.737 21.2415Z" fill="black"/>
<path fill-rule="evenodd" clip-rule="evenodd" d="M49.5602 43.8233H44.6247C44.1527 43.7886 43.7779 43.435 43.7432 42.9843V17.6843C43.7432 17.1782 44.1666 16.7761 44.6942 16.7761H49.2964C49.7754 16.7968 50.1572 17.1643 50.1919 17.6219V20.9292H50.2821C51.483 17.7329 53.739 16.2422 56.7794 16.2422C59.8684 16.2422 61.7982 17.7329 63.1865 20.9292C64.3804 17.7329 67.0946 16.2422 70.0031 16.2422C72.0717 16.2422 74.3346 17.095 75.716 19.0086C77.2779 21.1372 76.9585 24.2295 76.9585 26.9404L76.9516 42.9081C76.9516 43.4142 76.5282 43.8233 76.0006 43.8233H71.0721C70.5792 43.7886 70.1836 43.3934 70.1836 42.9081V29.4989C70.1836 28.4311 70.2808 25.7687 70.0447 24.7564C69.6768 23.0577 68.5731 22.5793 67.1432 22.5793C65.9492 22.5793 64.6997 23.3767 64.193 24.6524C63.6863 25.9282 63.7349 28.0636 63.7349 29.4989V42.9081C63.7349 43.4142 63.3114 43.8233 62.7839 43.8233H57.8554C57.3556 43.7886 56.9668 43.3934 56.9668 42.9081L56.9599 29.4989C56.9599 26.677 57.425 22.5238 53.9195 22.5238C50.3724 22.5238 50.5112 26.573 50.5112 29.4989V42.9081C50.5112 43.4142 50.0878 43.8233 49.5602 43.8233" fill="black"/>
<path fill-rule="evenodd" clip-rule="evenodd" d="M140.778 16.2422C148.102 16.2422 152.065 22.5238 152.065 30.5111C152.065 38.228 147.685 44.3502 140.778 44.3502C133.587 44.3502 129.672 38.0685 129.672 30.2407C129.672 22.3644 133.636 16.2422 140.778 16.2422ZM140.82 21.4076C137.183 21.4076 136.954 26.358 136.954 29.4434C136.954 32.5357 136.905 39.1363 140.778 39.1363C144.603 39.1363 144.784 33.8114 144.784 30.5666C144.784 28.4311 144.693 25.8796 144.048 23.8551C143.493 22.094 142.389 21.4076 140.82 21.4076Z" fill="black"/>
<path fill-rule="evenodd" clip-rule="evenodd" d="M161.562 43.8233H156.647C156.155 43.7886 155.759 43.3934 155.759 42.9081L155.752 17.6011C155.794 17.1366 156.203 16.7761 156.703 16.7761H161.277C161.708 16.7968 162.062 17.0881 162.159 17.4833V21.3521H162.249C163.631 17.8923 165.567 16.2422 168.976 16.2422C171.19 16.2422 173.349 17.0395 174.737 19.2236C176.028 21.2481 176.028 24.6524 176.028 27.0999V43.0259C175.973 43.4697 175.563 43.8233 175.077 43.8233H170.128C169.677 43.7886 169.302 43.4558 169.253 43.0259V29.2839C169.253 26.5175 169.573 22.4684 166.164 22.4684C164.963 22.4684 163.86 23.2727 163.311 24.4929C162.617 26.0391 162.527 27.5783 162.527 29.2839V42.9081C162.52 43.4142 162.09 43.8233 161.562 43.8233" fill="black"/>
<path fill-rule="evenodd" clip-rule="evenodd" d="M95.8043 31.7389C95.8043 33.6594 95.8529 35.2611 94.8811 36.9667C94.0967 38.3534 92.8472 39.2062 91.4658 39.2062C89.5708 39.2062 88.4601 37.764 88.4601 35.6355C88.4601 31.4338 92.2294 30.6712 95.8043 30.6712V31.7389ZM100.781 43.7545C100.455 44.0457 99.9831 44.0665 99.6152 43.8724C97.977 42.5134 97.6785 41.8825 96.783 40.5859C94.0758 43.3454 92.153 44.1705 88.6475 44.1705C84.4895 44.1705 81.2617 41.6121 81.2617 36.4883C81.2617 32.4877 83.4275 29.7629 86.5234 28.4317C89.2029 27.253 92.9444 27.045 95.8043 26.7191V26.0812C95.8043 24.9095 95.8945 23.5228 95.2004 22.5105C94.6034 21.6023 93.4511 21.2278 92.4307 21.2278C90.5495 21.2278 88.8766 22.1916 88.4671 24.1884C88.3838 24.6322 88.0575 25.069 87.6063 25.0898L82.8236 24.5767C82.421 24.4866 81.9698 24.1607 82.0878 23.5436C83.1845 17.7473 88.4323 16.0001 93.1248 16.0001C95.5266 16.0001 98.6642 16.6379 100.559 18.4545C102.961 20.694 102.732 23.6823 102.732 26.934V34.6163C102.732 36.9251 103.69 37.9374 104.592 39.1854C104.905 39.6291 104.974 40.163 104.571 40.4958C103.565 41.3347 101.774 42.8947 100.788 43.7684L100.781 43.7545" fill="black"/>
<path fill-rule="evenodd" clip-rule="evenodd" d="M31.1021 31.7388C31.1021 33.6594 31.1507 35.261 30.1789 36.9666C29.3945 38.3533 28.152 39.2061 26.7637 39.2061C24.8686 39.2061 23.7649 37.764 23.7649 35.6354C23.7649 31.4338 27.5342 30.6711 31.1021 30.6711V31.7388ZM36.0792 43.7544C35.753 44.0456 35.281 44.0664 34.913 43.8723C33.2748 42.5133 32.9833 41.8824 32.0809 40.5859C29.3737 43.3454 27.4578 44.1704 23.9454 44.1704C19.7943 44.1704 16.5596 41.612 16.5596 36.4882C16.5596 32.4876 18.7323 29.7628 21.8213 28.4316C24.5007 27.2529 28.2422 27.0449 31.1021 26.719V26.0812C31.1021 24.9094 31.1924 23.5227 30.5052 22.5105C29.9012 21.6022 28.7489 21.2278 27.7355 21.2278C25.8543 21.2278 24.1745 22.1915 23.7649 24.1884C23.6816 24.6321 23.3554 25.0689 22.9111 25.0897L18.1214 24.5766C17.7188 24.4865 17.2745 24.1606 17.3856 23.5435C18.4893 17.7472 23.7302 16 28.4227 16C30.8245 16 33.9621 16.6379 35.8571 18.4544C38.2589 20.6939 38.0298 23.6822 38.0298 26.934V34.6162C38.0298 36.925 38.9877 37.9373 39.8902 39.1853C40.2095 39.629 40.2789 40.1629 39.8763 40.4957C38.8697 41.3347 37.0788 42.8947 36.0931 43.7683L36.0792 43.7544" fill="black"/>
</g>
<defs>
<clipPath id="clip0_411_50">
<rect width="159.468" height="48" fill="white" transform="translate(16.5596 16)"/>
</clipPath>
</defs>
</svg>
