<svg width="435" height="314" viewBox="0 0 435 314" fill="none" xmlns="http://www.w3.org/2000/svg">
<g clip-path="url(#clip0_422_356)">
<path d="M432.008 202.067C420.396 175.805 385.237 156.004 378.786 125.934C372.335 95.8553 385.56 52.9727 339.111 27.1679C292.662 1.36309 219.441 -1.21739 203.152 36.1996C186.863 73.6165 122.772 37.8393 77.5956 73.5986C33.808 108.256 13.0029 161.586 13.0029 238.203C13.0029 263.264 32.4909 285.816 39.6231 301.666H412.243C427.403 251.992 440.386 221.009 432.008 202.067Z" fill="#E5EBE5"/>
<path d="M417.089 142.349C417.089 145.825 413.066 148.648 408.094 148.648C403.13 148.648 399.098 145.825 399.098 142.349C399.098 138.872 403.121 136.05 408.094 136.05C413.057 136.05 417.089 138.872 417.089 142.349Z" fill="#C8D0C7"/>
<path d="M395.505 120.97C402.457 120.97 408.094 116.553 408.094 111.105C408.094 105.657 402.457 101.24 395.505 101.24C388.552 101.24 382.916 105.657 382.916 111.105C382.916 116.553 388.552 120.97 395.505 120.97Z" fill="#C8D0C7"/>
<path d="M15.7777 178.358C18.3829 175.221 17.9518 170.567 14.815 167.961C11.6781 165.356 7.02334 165.787 4.4182 168.924C1.81306 172.061 2.24409 176.716 5.38094 179.321C8.51779 181.926 13.1726 181.495 15.7777 178.358Z" fill="#C8D0C7"/>
<path d="M169.91 48.52C175.556 48.52 180.133 45.2145 180.133 41.1369C180.133 37.0594 175.556 33.7539 169.91 33.7539C164.264 33.7539 159.687 37.0594 159.687 41.1369C159.687 45.2145 164.264 48.52 169.91 48.52Z" fill="#C8D0C7"/>
<path d="M13.0029 158.817C13.872 155.081 14.9204 151.381 16.0762 147.725C17.2231 144.06 18.4864 140.431 19.8304 136.83C21.1834 133.228 22.626 129.662 24.176 126.131C24.9376 124.357 25.753 122.61 26.5684 120.863L27.8228 118.255C28.2439 117.386 28.6829 116.526 29.122 115.666C29.552 114.797 30.009 113.946 30.457 113.094C30.905 112.234 31.353 111.383 31.8279 110.541C32.2938 109.69 32.7597 108.847 33.2436 108.005L34.713 105.496C36.6932 102.163 38.8256 98.9019 41.0657 95.7121L42.7949 93.3467C43.0816 92.9524 43.3863 92.5671 43.682 92.1819L44.5869 91.026C44.8916 90.6407 45.1872 90.2554 45.4919 89.8702L46.4327 88.7412C47.0688 87.9886 47.6781 87.218 48.3412 86.4923C48.9953 85.7575 49.6493 85.0228 50.3213 84.306L52.3911 82.1825C52.7316 81.8241 53.081 81.5015 53.4305 81.1521L54.4698 80.1396C55.1597 79.4586 55.8676 78.8046 56.5754 78.1326C59.4157 75.4894 62.3367 72.9268 65.3562 70.4628L67.65 68.6529L69.9885 66.8878C71.5655 65.7319 73.1514 64.5851 74.7821 63.5099C78.0436 61.3505 81.4036 59.3166 84.9069 57.5335C85.7761 57.0676 86.6631 56.6465 87.5501 56.2254C88.4282 55.7863 89.3332 55.3921 90.2292 54.9979C90.6772 54.8097 91.1252 54.5947 91.5821 54.4155L92.953 53.8689C93.41 53.6897 93.858 53.4926 94.3239 53.3313L95.7127 52.8295C96.6356 52.4801 97.5674 52.1844 98.5082 51.8887C99.4401 51.5751 100.39 51.3243 101.34 51.0555C102.28 50.7777 103.239 50.5627 104.189 50.3297C105.139 50.0788 106.106 49.9086 107.065 49.7115C108.024 49.5054 108.991 49.362 109.959 49.2007C110.918 49.0305 111.894 48.914 112.862 48.7975C113.83 48.6631 114.806 48.6004 115.774 48.5108C116.742 48.4123 117.718 48.3675 118.686 48.3227C122.575 48.1524 126.463 48.2599 130.307 48.6363C131.266 48.7348 132.225 48.8155 133.183 48.9588L134.617 49.1559C135.092 49.2187 135.567 49.2903 136.042 49.3799C136.991 49.5502 137.941 49.7025 138.882 49.8907C139.823 50.0788 140.764 50.2849 141.695 50.482C140.737 50.4551 139.778 50.4193 138.828 50.3745C137.869 50.3387 136.92 50.3387 135.961 50.3207C135.011 50.2849 134.053 50.3207 133.103 50.3207C132.628 50.3297 132.153 50.3207 131.678 50.3387L130.253 50.3835C126.463 50.5179 122.7 50.8404 118.982 51.3959C111.545 52.489 104.323 54.5051 97.5047 57.426L96.2234 57.9726C95.7933 58.1518 95.3812 58.3579 94.9601 58.555L93.6967 59.1463C93.2756 59.3345 92.8634 59.5585 92.4512 59.7646L91.2058 60.3918C90.7936 60.5979 90.3904 60.8308 89.9783 61.0459C89.1629 61.4849 88.3386 61.915 87.5412 62.3899C84.3245 64.2446 81.1885 66.2427 78.1511 68.411C75.1137 70.5703 72.1479 72.8462 69.2807 75.2475C66.3956 77.6398 63.5911 80.1306 60.8493 82.7022C60.1594 83.3473 59.4695 83.9745 58.7885 84.6375L57.7671 85.6142C57.4356 85.9367 57.0772 86.2683 56.7636 86.5908L54.8192 88.562C54.1831 89.234 53.5738 89.9239 52.9376 90.5959C50.4468 93.3377 48.0903 96.2318 45.8324 99.1975C43.5834 102.181 41.442 105.272 39.3632 108.399L37.8311 110.774C37.3204 111.562 36.8365 112.378 36.3348 113.166C35.8241 113.964 35.3402 114.77 34.8564 115.576C34.3725 116.383 33.8797 117.189 33.4049 118.014L31.9802 120.46L30.5735 122.924C29.6596 124.581 28.7456 126.239 27.8407 127.905C26.0487 131.247 24.3104 134.625 22.617 138.03C19.257 144.858 16.0493 151.784 13.0029 158.817Z" fill="#E5EBE5"/>
<path d="M230.713 7.913C232.532 7.0618 234.422 6.36292 236.322 5.69092C238.23 5.03684 240.157 4.4634 242.101 3.91684C243.078 3.657 244.045 3.37924 245.031 3.1642L246.5 2.81476L247.979 2.4922C248.964 2.2682 249.959 2.08004 250.954 1.89188C251.948 1.69476 252.943 1.53348 253.937 1.36324C257.933 0.718117 261.956 0.279081 266.006 0.0371611L267.521 -0.0524375L268.282 -0.0972402L269.044 -0.115157L272.081 -0.195801H275.128H275.889L276.651 -0.177877L278.174 -0.124119L279.697 -0.0703613C280.208 -0.0524413 280.71 -0.0076427 281.22 0.0192373C282.233 0.0819573 283.245 0.135718 284.258 0.216358C286.283 0.413478 288.308 0.574759 290.315 0.861479L291.829 1.0586L292.582 1.15716C292.833 1.193 293.083 1.2378 293.334 1.27364L296.345 1.76644L297.098 1.89188L297.841 2.03524L299.338 2.33092L300.834 2.6266C301.336 2.72516 301.828 2.82372 302.33 2.9402C304.31 3.40612 306.299 3.82724 308.253 4.39172L311.201 5.18916L314.113 6.08516C316.066 6.6586 317.965 7.3754 319.892 8.03844C320.859 8.361 321.8 8.74628 322.741 9.11364L325.581 10.2247C326.522 10.61 327.445 11.0311 328.386 11.4253L329.784 12.0346C330.25 12.2407 330.715 12.4288 331.172 12.6618L333.923 13.9789L335.303 14.642L336.656 15.3498L339.353 16.7834C340.24 17.2852 341.118 17.8048 342.005 18.3156L343.331 19.0861C343.77 19.346 344.2 19.6327 344.63 19.9015L347.211 21.5591C350.589 23.8708 353.859 26.3527 356.914 29.0944C359.97 31.8362 362.792 34.8468 365.337 38.0813C365.65 38.4845 365.982 38.8788 366.287 39.2999L367.183 40.5543C367.478 40.9754 367.783 41.3876 368.07 41.8176L368.903 43.1168C369.181 43.5559 369.467 43.977 369.727 44.416L370.498 45.7511L370.883 46.4141L371.071 46.7456L371.251 47.0861L371.958 48.457C373.813 52.1127 375.3 55.9386 376.402 59.8631C377.496 63.7876 378.293 67.7658 378.822 71.753C379.099 73.7511 379.323 75.7492 379.538 77.7383C379.745 79.7364 379.96 81.7255 380.237 83.7146C379.718 81.7703 379.323 79.7991 378.902 77.8368C378.499 75.8746 378.105 73.9034 377.657 71.9591C377.442 70.9824 377.2 70.0148 376.967 69.0471C376.851 68.5632 376.716 68.0794 376.6 67.6045C376.474 67.1207 376.358 66.6368 376.214 66.162C375.937 65.2032 375.677 64.2535 375.363 63.3127C375.211 62.8378 375.067 62.3629 374.906 61.897L374.413 60.4992C371.779 53.0445 367.819 46.1453 362.747 40.2048C362.111 39.4612 361.493 38.7085 360.803 38.0096L359.8 36.9434L359.298 36.4148L358.769 35.904C358.061 35.232 357.371 34.5332 356.655 33.8701L354.451 31.9258C351.449 29.408 348.286 27.0874 344.998 24.946L342.489 23.3959C342.068 23.136 341.656 22.8672 341.234 22.6253L339.953 21.8996C339.093 21.4157 338.242 20.9229 337.382 20.457L334.756 19.104L333.448 18.4231L332.113 17.7869L329.434 16.5236C328.995 16.3085 328.529 16.1204 328.081 15.9232L326.719 15.3408C325.814 14.9556 324.909 14.5524 323.995 14.176L321.236 13.0829C320.313 12.7245 319.399 12.3482 318.467 12.0256C316.603 11.3716 314.749 10.6727 312.858 10.0992L310.036 9.19428L307.187 8.37892C306.237 8.11012 305.287 7.8234 304.328 7.5994L301.452 6.87364C300.977 6.7482 300.493 6.64068 300.01 6.53316L298.558 6.21956L297.106 5.90596L296.381 5.75364L295.655 5.61924L292.743 5.07268C292.501 5.02788 292.259 4.97412 292.017 4.93828L291.282 4.8218L289.813 4.58884C287.86 4.24836 285.898 4.04228 283.935 3.78244C282.95 3.67492 281.964 3.58532 280.978 3.48676C280.486 3.44196 279.993 3.37924 279.5 3.3434L277.995 3.20004L276.516 3.09252L275.773 3.03876L275.029 3.00292L272.054 2.86852L269.08 2.81476L268.336 2.8058H267.592L266.105 2.81476C262.136 2.8506 258.166 3.04772 254.206 3.42404C253.22 3.5226 252.226 3.60324 251.24 3.72868C250.255 3.84516 249.26 3.95268 248.274 4.105L246.796 4.31108L245.318 4.553C244.332 4.70532 243.355 4.88452 242.37 5.05476C240.408 5.42212 238.454 5.82532 236.51 6.3002C234.557 6.75716 232.621 7.2858 230.713 7.913Z" fill="#E5EBE5"/>
<path d="M91.2773 100.523L89.0731 95.7746C88.9567 95.5148 89.0642 95.2101 89.324 95.0936C89.5839 94.9772 89.8885 95.0847 90.005 95.3445L92.2091 100.093C92.3256 100.353 92.2181 100.658 91.9583 100.774C91.7074 100.891 91.4027 100.783 91.2773 100.523Z" fill="white"/>
<path d="M93.2304 97.298L88.4816 99.5021C88.2218 99.6186 87.9172 99.5111 87.8007 99.2512C87.6842 98.9914 87.7917 98.6868 88.0516 98.5703L92.8004 96.3661C93.0602 96.2496 93.3648 96.3571 93.4813 96.617C93.6068 96.8679 93.4903 97.1815 93.2304 97.298Z" fill="white"/>
<path d="M119.923 181.54L117.719 176.791C117.602 176.531 117.71 176.227 117.97 176.11C118.229 175.994 118.534 176.101 118.65 176.361L120.855 181.11C120.971 181.37 120.864 181.674 120.604 181.791C120.344 181.907 120.039 181.8 119.923 181.54Z" fill="white"/>
<path d="M121.876 178.314L117.127 180.518C116.867 180.635 116.563 180.527 116.446 180.267C116.33 180.008 116.437 179.703 116.697 179.586L121.446 177.382C121.706 177.266 122.01 177.373 122.127 177.633C122.243 177.884 122.136 178.189 121.876 178.314Z" fill="white"/>
<path d="M334.478 174.354L332.274 169.605C332.158 169.345 332.265 169.041 332.525 168.924C332.785 168.808 333.09 168.915 333.206 169.175L335.41 173.924C335.527 174.184 335.419 174.488 335.159 174.605C334.9 174.721 334.595 174.605 334.478 174.354Z" fill="white"/>
<path d="M336.432 171.128L331.683 173.332C331.423 173.449 331.118 173.341 331.002 173.081C330.885 172.821 330.993 172.517 331.253 172.4L336.002 170.196C336.261 170.08 336.566 170.187 336.682 170.447C336.799 170.698 336.691 171.003 336.432 171.128Z" fill="white"/>
<path d="M306.487 86.026L308.002 81.0173C308.082 80.7485 308.369 80.5962 308.638 80.6769C308.907 80.7575 309.059 81.0442 308.978 81.313L307.464 86.3217C307.383 86.5905 307.097 86.7428 306.828 86.6621C306.559 86.5904 306.407 86.3037 306.487 86.026Z" fill="white"/>
<path d="M310.098 84.9241L305.09 83.4099C304.821 83.3292 304.668 83.0425 304.749 82.7737C304.83 82.5049 305.116 82.3526 305.385 82.4332L310.394 83.9474C310.663 84.0281 310.815 84.3148 310.734 84.5836C310.654 84.8524 310.367 85.0047 310.098 84.9241Z" fill="white"/>
<path d="M179.828 129.679L179.425 124.456C179.407 124.169 179.613 123.927 179.9 123.9C180.187 123.882 180.428 124.088 180.455 124.375L180.859 129.599C180.876 129.885 180.67 130.127 180.384 130.154C180.097 130.172 179.846 129.966 179.828 129.679Z" fill="white"/>
<path d="M182.785 127.341L177.561 127.744C177.275 127.762 177.033 127.556 177.006 127.269C176.988 126.982 177.194 126.74 177.481 126.713L182.705 126.31C182.991 126.292 183.233 126.498 183.26 126.785C183.278 127.072 183.063 127.314 182.785 127.341Z" fill="white"/>
<g opacity="0.57">
<path d="M155.315 96.9122C155.315 100.389 151.292 103.211 146.319 103.211C141.355 103.211 137.323 100.389 137.323 96.9122C137.323 93.4357 141.346 90.6133 146.319 90.6133C151.283 90.6133 155.315 93.4357 155.315 96.9122Z" fill="white"/>
<path d="M316.012 171.764C316.012 175.241 311.989 178.063 307.016 178.063C302.053 178.063 298.021 175.241 298.021 171.764C298.021 168.288 302.044 165.465 307.016 165.465C311.98 165.465 316.012 168.288 316.012 171.764Z" fill="white"/>
<path d="M175.967 195.643C175.967 199.119 173.145 201.942 169.668 201.942C166.192 201.942 163.369 199.119 163.369 195.643C163.369 192.166 166.192 189.344 169.668 189.344C173.145 189.344 175.967 192.157 175.967 195.643Z" fill="white"/>
<path d="M94.1271 195.643C94.1271 199.119 91.3047 201.942 87.8282 201.942C84.3517 201.942 81.5293 199.119 81.5293 195.643C81.5293 192.166 84.3517 189.344 87.8282 189.344C91.3047 189.344 94.1271 192.157 94.1271 195.643Z" fill="white"/>
<path d="M205.75 96.9121C205.75 99.3671 203.761 101.365 201.297 101.365C198.842 101.365 196.844 99.3761 196.844 96.9121C196.844 94.4571 198.833 92.459 201.297 92.459C203.752 92.459 205.75 94.4481 205.75 96.9121Z" fill="white"/>
<path d="M351.055 223.096C351.055 225.551 349.066 227.549 346.602 227.549C344.147 227.549 342.148 225.56 342.148 223.096C342.148 220.641 344.138 218.643 346.602 218.643C349.057 218.643 351.055 220.632 351.055 223.096Z" fill="white"/>
<path d="M196.934 163.897C196.934 166.352 194.944 168.351 192.48 168.351C190.025 168.351 188.027 166.361 188.027 163.897C188.027 161.433 190.016 159.444 192.48 159.444C194.936 159.444 196.934 161.433 196.934 163.897Z" fill="white"/>
<path d="M316.64 59.2178C316.64 61.6728 314.651 63.6709 312.187 63.6709C309.731 63.6709 307.733 61.6818 307.733 59.2178C307.733 56.7627 309.723 54.7646 312.187 54.7646C314.651 54.7646 316.64 56.7627 316.64 59.2178Z" fill="white"/>
<path d="M404.402 256.822C404.402 259.277 402.413 261.275 399.949 261.275C397.494 261.275 395.496 259.286 395.496 256.822C395.496 254.358 397.485 252.369 399.949 252.369C402.413 252.369 404.402 254.367 404.402 256.822Z" fill="white"/>
<path d="M59.3262 248.775C59.3262 251.23 57.337 253.229 54.873 253.229C52.418 253.229 50.4199 251.239 50.4199 248.775C50.4199 246.32 52.409 244.322 54.873 244.322C57.337 244.322 59.3262 246.311 59.3262 248.775Z" fill="white"/>
</g>
<path d="M175.34 237.145C175.34 237.145 207.883 188.143 221.806 180.178C235.73 172.212 256.284 164.892 276.373 174.183C296.461 183.475 299.454 196.073 307.249 214.96C315.044 233.848 301.55 296.165 301.55 296.165L196.02 296.21L175.34 237.145Z" fill="#5C785A"/>
<path d="M251.661 189.425C247.002 189.425 241.733 187.284 239.628 183.019C238.508 180.743 238.194 178.942 238.696 177.678C239.072 176.729 239.78 176.451 239.816 176.442L240.049 177.069L239.932 176.756L240.058 177.069C240.04 177.078 239.574 177.275 239.314 177.947C239.027 178.691 238.956 180.124 240.237 182.714C242.62 187.561 249.367 189.488 254.25 188.502C258.793 187.579 267.09 183.44 268.801 179.82C269.921 177.454 270.145 175.922 269.536 174.838C268.918 173.745 267.386 173.091 264.859 172.84L264.922 172.168C267.681 172.437 269.384 173.198 270.118 174.498C271.05 176.146 270.226 178.35 269.402 180.098C267.574 183.95 259.16 188.18 254.376 189.156C253.525 189.335 252.602 189.425 251.661 189.425Z" fill="#9CAAF2"/>
<path d="M303.154 254.384C303.154 254.384 270.083 244.94 258.095 249.134C246.106 253.327 221.52 252.736 216.923 242.539C212.327 232.343 219.782 211.358 219.782 211.358C212.506 229.493 211.538 242.996 213.778 253.004L214.997 294.346L300.368 296.012L287.645 261.149L303.154 254.384Z" fill="#4F654D"/>
<path d="M311.837 253.812C311.729 259.68 311.424 265.271 311.03 270.316C309.928 284.437 308.127 294.356 308.127 294.356L284.867 290.27L237.782 281.991C237.782 281.991 297.071 291.193 305.161 281.991C308.727 277.932 310.726 265.952 311.837 253.812Z" fill="#3750E2"/>
<path opacity="0.65" d="M221.833 261.167C241.384 261.436 274.885 263.228 274.885 263.228L272.573 199.442C272.618 200.177 272.672 200.92 272.744 201.691C274.545 220.131 279.491 268.246 279.491 268.246L221.833 261.167Z" fill="#4F654D"/>
<path d="M246.724 263.362L245.318 283.316L240.578 282.116L232.962 280.189L230.982 279.688L228.661 279.096L210.409 280.79L206.825 281.121C206.825 281.121 204.568 279.795 202.354 277.69C198.815 274.303 195.384 268.909 201.575 263.73C209.119 257.431 214.997 257.942 220.624 259.16C222.488 259.563 229.378 261.768 229.378 261.768L231.761 261.983L233.741 262.162L246.724 263.362Z" fill="#FDB2D0"/>
<path d="M240.569 282.116L228.652 279.096L210.4 280.79L213.922 276.077C213.922 276.077 227.147 278.039 229.888 274.724C229.888 274.724 232.11 277.143 237.773 276.65C241.742 276.31 241.232 279.911 240.569 282.116Z" fill="#F78DBE"/>
<path d="M232.8 273.657C232.2 276.498 232.684 279.069 232.962 280.18L230.981 279.678L231.761 261.982L233.741 262.162L233.454 265.163C239.852 270.548 232.8 273.657 232.8 273.657Z" fill="#F78DBE"/>
<path d="M311.837 253.811C311.729 259.68 311.424 265.271 311.03 270.315C310.69 274.715 310.278 278.702 309.874 282.116C308.978 289.651 308.127 294.355 308.127 294.355L297.671 292.518L284.867 290.269L235.686 281.623L237.254 261.956L279.5 268.255C279.5 268.255 274.554 220.139 272.753 201.691C270.952 183.251 279.5 176.056 279.5 176.056C307.249 183.914 312.392 222.747 311.837 253.811Z" fill="#5C785A"/>
<path d="M309.874 282.116C308.978 289.651 308.127 294.355 308.127 294.355L297.671 292.518C301.927 290.852 307.061 287.769 309.874 282.116Z" fill="#4F654D"/>
<path d="M279.697 267.52C279.697 267.52 293.424 267.081 295.467 275.253C295.467 275.253 291.668 270.002 279.697 267.52Z" fill="#4F654D"/>
<path d="M277.135 268.452C277.135 268.452 290.781 269.957 291.65 278.335C291.65 278.343 288.639 272.609 277.135 268.452Z" fill="#4F654D"/>
<path d="M239.655 262.377L238.481 282.116L239.655 282.322L240.712 262.467L239.655 262.377Z" fill="#9CAAF2"/>
<path d="M242.575 262.744L241.393 282.626L242.566 282.832L243.633 262.905L242.575 262.744Z" fill="#9CAAF2"/>
<path d="M228.661 279.096C228.661 279.096 227.801 269.876 229.378 261.776L233.455 262.153C233.455 262.153 231.322 276.981 232.379 280.046L228.661 279.096Z" fill="#F9835A"/>
<path d="M229.01 278.586C229.01 278.586 228.213 269.42 229.575 262.377L233.123 262.699C233.123 262.699 230.946 276.785 231.878 279.446L229.01 278.586Z" fill="#FCAA24"/>
<path d="M230.686 273.658C233.616 273.658 235.99 271.704 235.99 269.294C235.99 266.884 233.616 264.931 230.686 264.931C227.757 264.931 225.382 266.884 225.382 269.294C225.382 271.704 227.757 273.658 230.686 273.658Z" fill="#F9835A"/>
<path d="M230.687 273.174C233.289 273.174 235.4 271.437 235.4 269.294C235.4 267.152 233.289 265.415 230.687 265.415C228.084 265.415 225.974 267.152 225.974 269.294C225.974 271.437 228.084 273.174 230.687 273.174Z" fill="#FCAA24"/>
<path d="M226.833 267.896C226.833 267.896 227.666 265.719 230.937 265.638C230.937 265.638 228.804 265.925 226.833 267.896Z" fill="#FFC46E"/>
<path d="M229.897 267.009V270.154L234.494 269.876H230.22L229.897 267.009Z" fill="#F9835A"/>
<path d="M231.017 275.495L229.369 275.351C229.234 275.342 229.127 275.217 229.145 275.082L229.162 274.903C229.171 274.769 229.297 274.661 229.431 274.679L231.08 274.823C231.214 274.832 231.322 274.957 231.304 275.091L231.286 275.271C231.268 275.405 231.152 275.504 231.017 275.495Z" fill="#F9835A"/>
<path d="M232.03 263.641L230.381 263.497C230.247 263.488 230.139 263.363 230.157 263.228L230.175 263.049C230.184 262.915 230.31 262.807 230.444 262.825L232.093 262.969C232.227 262.978 232.335 263.103 232.317 263.237L232.299 263.417C232.29 263.551 232.173 263.658 232.03 263.641Z" fill="#F9835A"/>
<path d="M231.94 264.688L230.291 264.545C230.157 264.536 230.049 264.411 230.067 264.276L230.085 264.097C230.094 263.963 230.22 263.855 230.354 263.873L232.003 264.016C232.137 264.025 232.245 264.151 232.227 264.285L232.209 264.464C232.2 264.599 232.083 264.706 231.94 264.688Z" fill="#F9835A"/>
<path d="M231.017 276.48L229.369 276.337C229.234 276.328 229.127 276.202 229.145 276.068L229.162 275.889C229.171 275.754 229.297 275.647 229.431 275.665L231.08 275.808C231.214 275.817 231.322 275.942 231.304 276.077L231.286 276.256C231.268 276.39 231.152 276.498 231.017 276.48Z" fill="#F9835A"/>
<path d="M231.017 277.465L229.369 277.322C229.234 277.313 229.127 277.188 229.145 277.053L229.162 276.874C229.171 276.74 229.297 276.632 229.431 276.65L231.08 276.793C231.214 276.802 231.322 276.928 231.304 277.062L231.286 277.241C231.268 277.385 231.152 277.483 231.017 277.465Z" fill="#F9835A"/>
<path d="M231.017 278.46L229.369 278.317C229.234 278.308 229.127 278.183 229.145 278.048L229.162 277.869C229.171 277.735 229.297 277.627 229.431 277.645L231.08 277.788C231.214 277.797 231.322 277.923 231.304 278.057L231.286 278.236C231.268 278.371 231.152 278.469 231.017 278.46Z" fill="#F9835A"/>
<path d="M262.243 159.354C262.243 159.354 286.229 138.218 270.934 111.983L257.153 136.041L262.243 159.354Z" fill="#592C18"/>
<path d="M249.465 186.925C243.373 185.984 241.097 182.077 240.281 179.774C239.923 178.771 239.842 178.072 239.842 178.072L239.726 177.615L239.134 175.393L238.812 174.166L237.62 169.659L235.058 159.991L234.852 159.229L259.814 148.137C259.814 148.137 260.137 149.92 260.701 152.563C261.033 154.131 261.436 155.995 261.911 157.984C263.434 164.417 265.602 172.033 267.69 174.246C267.735 174.291 267.78 174.336 267.815 174.39C271.193 178.502 258.13 188.26 249.465 186.925Z" fill="#FDB2D0"/>
<path d="M261.436 155.977C259.07 163.826 248.489 176.916 244.304 176.746C242.028 176.656 240.165 175.447 238.812 174.147L237.62 169.641C241.966 165.376 255.925 152.079 260.701 152.536C261.024 154.113 260.961 153.996 261.436 155.977Z" fill="#EF8EC3"/>
<path d="M268.174 132.985C268.156 134.222 268.094 135.467 267.986 136.721C267.565 141.542 266.508 146.094 264.931 150.242C259.635 164.202 248.552 173.475 236.608 172.427C228.41 171.71 221.448 166.28 216.995 158.208C214.638 153.943 212.981 148.943 212.201 143.513C211.923 141.605 211.762 139.642 211.708 137.626C211.664 135.718 211.717 133.783 211.896 131.811C212.004 130.629 212.138 129.464 212.327 128.317C215.319 108.999 228.661 94.8334 243.283 96.1057C257.834 97.396 268.488 113.542 268.174 132.985Z" fill="#FDB2D0"/>
<path d="M268.174 132.985C268.156 134.222 268.094 135.467 267.986 136.721C267.565 141.542 266.508 146.094 264.931 150.242C237.63 131.121 243.068 111.983 243.068 111.983L268.174 132.985Z" fill="#F78DBE"/>
<path d="M242.432 109.232C242.432 109.232 235.533 131.821 224.683 136.516C220.086 138.505 215.49 138.406 211.708 137.636C211.664 135.727 211.717 133.792 211.888 131.821C211.995 130.638 212.13 129.473 212.318 128.326L242.432 109.232Z" fill="#F78DBE"/>
<path d="M246.805 103.74C246.805 103.74 230.318 132.824 210.23 135.817C190.142 138.819 200.033 111.231 214.728 101.635C229.413 92.0473 250.702 85.4528 246.805 103.74Z" fill="#592C18"/>
<path d="M244.179 97.6648C243.471 97.6737 239.905 114.832 245.604 127.125C251.302 139.418 268.389 149.911 268.389 149.911C268.389 149.911 289.678 96.8405 244.179 97.6648Z" fill="#592C18"/>
<path d="M243.678 103.624C243.678 103.624 233.141 71.9142 257.933 74.2886C295.144 77.8457 302.966 109.018 262.843 117.055" fill="#592C18"/>
<path d="M251.007 137.519C251.007 137.519 251.616 123.452 256.849 124.688C262.081 125.934 265.226 138.155 261.087 141.838C256.938 145.52 253.731 143.236 253.731 143.236L251.007 137.519Z" fill="#FDB2D0"/>
<path d="M242.611 92.2889C242.611 92.2889 253.695 90.7209 263.614 98.991C273.559 107.279 272.672 114.304 272.672 114.304C272.672 114.304 268.873 96.8137 242.611 92.2889Z" fill="#5C785A"/>
<path d="M254.188 129.822C254.188 129.822 255.478 126.427 257.189 127.126C258.9 127.824 262.592 133.138 261.293 136.731C259.994 140.324 257.87 139.92 257.87 139.92C257.87 139.92 261.588 137.044 260.289 133.487C258.99 129.93 256.678 127.027 254.188 129.822Z" fill="#F973AA"/>
<path d="M244.215 91.5096C244.215 91.5096 238.695 83.9921 242.136 78.1592C242.136 78.1592 239.493 82.5675 244.215 91.5096Z" fill="#592C18"/>
<path d="M285.279 109.833C285.279 109.833 277.322 114.591 273.236 109.483C273.227 109.483 276.31 113.399 285.279 109.833Z" fill="#592C18"/>
<path d="M272.636 139.929C272.788 141.623 272.618 143.316 272.313 144.983C272 146.649 271.507 148.28 270.906 149.866C270.575 150.645 270.27 151.443 269.876 152.195C269.679 152.572 269.509 152.966 269.294 153.333L268.64 154.426C268.523 154.606 268.416 154.785 268.299 154.964L267.932 155.484C267.681 155.833 267.448 156.183 267.188 156.523C266.668 157.195 266.113 157.831 265.557 158.467L265.521 158.441C265.754 158.082 265.996 157.742 266.238 157.392C266.48 157.043 266.731 156.711 266.955 156.353C267.17 155.994 267.403 155.645 267.636 155.287L267.977 154.758C268.084 154.579 268.183 154.391 268.29 154.211L268.926 153.127C269.141 152.769 269.321 152.384 269.518 152.016C269.93 151.282 270.252 150.511 270.611 149.749C271.247 148.199 271.776 146.595 272.125 144.947C272.474 143.307 272.707 141.623 272.609 139.938L272.636 139.929Z" fill="#592C18"/>
<path d="M274.052 139.732L273.667 139.571C278.039 129.168 276.409 121.597 274.258 117.081C271.938 112.18 268.533 109.707 268.497 109.689L268.739 109.349C268.775 109.376 272.251 111.893 274.626 116.884C276.821 121.472 278.496 129.168 274.052 139.732Z" fill="#592C18"/>
<path d="M234.959 96.043C231.626 97.2974 228.356 98.6951 225.157 100.272C223.562 101.052 221.985 101.876 220.444 102.763C218.903 103.65 217.398 104.591 215.973 105.639C214.548 106.687 213.177 107.825 212.004 109.142C211.421 109.806 210.857 110.495 210.319 111.194C209.773 111.893 209.253 112.61 208.751 113.345C207.748 114.805 206.825 116.319 206.009 117.896C205.203 119.473 204.486 121.095 203.993 122.789C203.743 123.631 203.545 124.491 203.447 125.36C203.366 126.22 203.357 127.116 203.653 127.905C203.689 128.003 203.725 128.102 203.778 128.191C203.823 128.281 203.877 128.38 203.931 128.442C204.047 128.586 204.209 128.693 204.397 128.783C204.764 128.962 205.194 129.052 205.624 129.114C206.484 129.231 207.371 129.213 208.249 129.141C210.006 128.998 211.753 128.639 213.455 128.156C215.158 127.672 216.824 127.062 218.446 126.346C221.681 124.903 224.727 122.995 227.379 120.638C228.705 119.464 229.933 118.165 231.017 116.758C232.11 115.352 233.051 113.838 233.848 112.252C232.352 115.486 230.139 118.38 227.513 120.79C224.87 123.201 221.824 125.145 218.58 126.641C216.959 127.385 215.274 128.012 213.554 128.505C211.833 128.998 210.077 129.374 208.285 129.526C207.389 129.598 206.484 129.625 205.579 129.5C205.131 129.437 204.674 129.338 204.235 129.141C204.02 129.034 203.805 128.899 203.635 128.693C203.545 128.586 203.501 128.478 203.438 128.371C203.375 128.263 203.339 128.156 203.295 128.048C202.963 127.161 202.972 126.22 203.053 125.315C203.151 124.41 203.348 123.532 203.599 122.672C204.119 120.952 204.845 119.303 205.669 117.717C206.493 116.131 207.434 114.599 208.456 113.139C208.966 112.404 209.495 111.687 210.041 110.979C210.588 110.271 211.153 109.582 211.744 108.91C212.335 108.229 212.998 107.619 213.67 107.028C214.02 106.741 214.351 106.454 214.71 106.186C214.889 106.051 215.059 105.908 215.238 105.774L215.785 105.379C217.236 104.34 218.769 103.408 220.319 102.53C221.869 101.652 223.464 100.846 225.076 100.084C226.689 99.3223 228.32 98.6145 229.969 97.9335C231.617 97.2615 233.275 96.6164 234.959 96.043Z" fill="#6F69C4"/>
<path d="M232.441 94.251C230.748 94.4033 229.082 94.7348 227.442 95.138C225.802 95.5502 224.18 96.0519 222.603 96.6523C219.441 97.8439 216.403 99.3582 213.599 101.24C212.882 101.688 212.21 102.19 211.52 102.682C210.857 103.202 210.167 103.695 209.531 104.25C209.208 104.528 208.877 104.788 208.563 105.075L207.622 105.926C207.3 106.204 207.013 106.517 206.708 106.804L206.251 107.243C206.099 107.386 205.947 107.539 205.803 107.691C205.23 108.309 204.63 108.91 204.092 109.564C203.814 109.886 203.537 110.2 203.268 110.522L202.479 111.517L202.085 112.01C201.96 112.18 201.834 112.35 201.709 112.52L200.956 113.542L200.768 113.802L200.589 114.062L200.239 114.59L199.522 115.647C199.97 114.922 200.392 114.187 200.866 113.479L201.583 112.422C201.7 112.243 201.816 112.072 201.942 111.893L202.318 111.383L203.089 110.361C203.348 110.03 203.626 109.707 203.895 109.375C204.424 108.712 205.006 108.085 205.579 107.458C206.744 106.213 207.972 105.03 209.28 103.946C209.916 103.381 210.606 102.879 211.269 102.351C211.959 101.858 212.64 101.338 213.357 100.881C214.781 99.9495 216.26 99.0894 217.783 98.3367C219.306 97.5841 220.874 96.9031 222.478 96.3387C225.704 95.2366 229.046 94.4212 232.441 94.251Z" fill="#592C18"/>
<path d="M242.495 157.124C246.761 157.124 250.219 153.666 250.219 149.4C250.219 145.135 246.761 141.677 242.495 141.677C238.229 141.677 234.771 145.135 234.771 149.4C234.771 153.666 238.229 157.124 242.495 157.124Z" fill="url(#paint0_radial_422_356)"/>
<path d="M222.452 150.816C222.452 154.301 220.149 157.24 216.986 158.208C214.63 153.943 212.972 148.952 212.192 143.513C212.99 143.236 213.841 143.092 214.728 143.092C218.993 143.092 222.452 146.551 222.452 150.816Z" fill="url(#paint1_radial_422_356)"/>
<path d="M223.285 142.85C222.604 142.295 221.887 141.829 221.134 141.497C220.382 141.166 219.575 141.004 218.796 141.076C218.007 141.139 217.246 141.443 216.547 141.883C215.839 142.313 215.194 142.886 214.549 143.477C214.97 142.698 215.534 141.99 216.242 141.426C216.941 140.861 217.81 140.449 218.733 140.377C219.656 140.297 220.588 140.547 221.367 141.004C222.147 141.461 222.819 142.089 223.285 142.85Z" fill="#F78DBE"/>
<path d="M237.782 140.852C237.101 140.297 236.384 139.831 235.631 139.499C234.879 139.168 234.072 139.006 233.293 139.078C232.504 139.141 231.743 139.445 231.044 139.884C230.336 140.315 229.691 140.888 229.046 141.479C229.467 140.7 230.031 139.992 230.739 139.428C231.438 138.863 232.307 138.451 233.23 138.379C234.153 138.299 235.085 138.549 235.864 139.006C236.635 139.472 237.307 140.1 237.782 140.852Z" fill="#F78DBE"/>
<path d="M227.003 145.296C226.573 146.47 226.179 147.662 225.82 148.854C225.65 149.454 225.48 150.045 225.345 150.654C225.202 151.255 225.086 151.864 225.014 152.473C224.942 153.083 224.915 153.701 225.005 154.283C225.086 154.866 225.354 155.43 225.865 155.681C226.376 155.932 227.012 155.887 227.612 155.762C228.213 155.636 228.804 155.421 229.386 155.188C228.849 155.502 228.266 155.762 227.666 155.959C227.361 156.048 227.048 156.111 226.716 156.129C226.394 156.147 226.053 156.102 225.731 155.968C225.408 155.833 225.139 155.582 224.96 155.287C224.781 154.991 224.682 154.669 224.62 154.346C224.503 153.701 224.53 153.047 224.602 152.42C224.763 151.156 225.103 149.938 225.516 148.746C225.928 147.572 226.421 146.416 227.003 145.296Z" fill="#F78DBE"/>
<path d="M237.638 156.228C237.638 156.228 235.111 163.727 229.717 162.822C224.323 161.926 223.087 157.428 223.087 157.428C223.087 157.428 223.499 157.598 224.225 157.813C226.563 158.503 232.101 159.614 237.065 156.604C237.253 156.478 237.45 156.362 237.638 156.228Z" fill="white"/>
<path d="M255.496 73.0429C258.265 72.7741 261.069 72.8906 263.829 73.2311C265.218 73.3924 266.589 73.6522 267.942 73.9658C268.623 74.1181 269.294 74.2973 269.966 74.4855C270.638 74.6826 271.302 74.8797 271.965 75.1127C273.282 75.5786 274.581 76.1072 275.826 76.7344C277.072 77.3527 278.308 78.0247 279.455 78.8221C281.785 80.3632 283.854 82.2807 285.62 84.4221C284.661 83.4186 283.702 82.4151 282.618 81.546L282.224 81.2055L281.812 80.8829L280.996 80.2468C280.423 79.8525 279.876 79.4404 279.285 79.082C276.955 77.5856 274.447 76.394 271.83 75.498C269.232 74.5572 266.517 73.9568 263.784 73.5357C262.413 73.3296 261.033 73.1863 259.654 73.0967C258.274 73.016 256.885 72.9891 255.496 73.0429Z" fill="#592C18"/>
<path d="M249.465 186.925C243.372 185.984 241.097 182.077 240.281 179.775C241.885 181.567 246.043 185.626 250.818 185.76C256.947 185.93 263.864 180.662 263.864 180.662C263.864 180.662 267.376 177.096 267.806 174.363C271.193 178.502 258.13 188.26 249.465 186.925Z" fill="#EF8EC3"/>
<path d="M261.571 143.917C261.571 146.049 260.379 147.778 258.901 147.778C257.7 147.778 256.688 146.64 256.347 145.072C256.266 144.714 256.222 144.329 256.222 143.926C256.222 141.793 257.413 140.073 258.892 140.073C259.877 140.073 260.738 140.843 261.203 141.99V141.999C261.436 142.546 261.571 143.209 261.571 143.917Z" fill="#4F654D"/>
<path d="M261.329 143.119C261.329 145.252 260.128 146.981 258.659 146.981C257.673 146.981 256.813 146.211 256.347 145.064C256.266 144.705 256.222 144.32 256.222 143.917C256.222 141.784 257.413 140.064 258.892 140.064C259.877 140.064 260.738 140.835 261.203 141.981V141.99C261.284 142.34 261.329 142.725 261.329 143.119Z" fill="#5C785A"/>
<path d="M88.5983 264.993C88.6342 263.578 88.5625 262.198 88.4639 260.809C88.3564 259.42 88.2041 258.04 88.007 256.66C87.6127 253.91 87.0393 251.177 86.2956 248.498C85.5519 245.819 84.629 243.194 83.527 240.64C82.4338 238.086 81.1346 235.622 79.6742 233.257C76.7442 228.535 73.0527 224.288 68.7698 220.767C67.6946 219.889 66.6015 219.037 65.4546 218.249C64.8902 217.846 64.3078 217.469 63.7254 217.093C63.4386 216.905 63.134 216.726 62.8473 216.546C62.5516 216.367 62.2649 216.179 61.9602 216.009C59.5679 214.602 57.077 213.375 54.5234 212.317C57.077 213.402 59.55 214.647 61.9244 216.072C62.229 216.242 62.5158 216.439 62.8025 216.618C63.0982 216.806 63.3938 216.986 63.6806 217.174C64.254 217.559 64.8364 217.935 65.3919 218.347C66.5209 219.145 67.605 220.005 68.6713 220.883C72.9094 224.44 76.5382 228.705 79.4054 233.418C80.839 235.784 82.0934 238.248 83.1596 240.792C84.2258 243.337 85.1218 245.953 85.8297 248.623C86.5465 251.284 87.0841 253.999 87.4514 256.732C87.6306 258.103 87.774 259.474 87.8636 260.845C87.9532 262.216 87.998 263.604 87.9532 264.957V264.966C87.9442 265.146 88.0876 265.289 88.2578 265.298C88.446 265.307 88.5983 265.172 88.5983 264.993Z" fill="#617893"/>
<path d="M87.478 255.263C87.478 255.263 75.9465 244.663 73.6259 252.27C71.7711 258.336 87.478 255.263 87.478 255.263Z" fill="#4F654D"/>
<path d="M87.4688 255.317C87.4688 255.317 91.456 240.174 97.5219 245.326C102.36 249.43 87.4688 255.317 87.4688 255.317Z" fill="#5C785A"/>
<path d="M84.7637 244.52C84.7637 244.52 73.2053 235.237 71.485 242.575C70.123 248.408 84.7637 244.52 84.7637 244.52Z" fill="#4F654D"/>
<path d="M84.7637 244.529C84.7637 244.529 87.5771 229.978 93.6251 234.458C98.4456 238.033 84.7637 244.529 84.7637 244.529Z" fill="#5C785A"/>
<path d="M80.5075 234.968C80.5075 234.968 67.3452 228.15 67.1123 235.685C66.9241 241.679 80.5075 234.968 80.5075 234.968Z" fill="#4F654D"/>
<path d="M80.5079 234.941C80.5079 234.941 80.3915 220.122 87.21 223.32C92.6398 225.865 80.5079 234.941 80.5079 234.941Z" fill="#5C785A"/>
<path d="M65.7684 218.553C65.7684 218.553 55.4285 217.648 57.2832 222.585C58.7616 226.519 65.7684 218.553 65.7684 218.553Z" fill="#4F654D"/>
<path d="M65.768 218.563C65.768 218.563 61.736 208.993 67.0134 209.253C71.2067 209.45 65.768 218.563 65.768 218.563Z" fill="#5C785A"/>
<path d="M73.0709 224.879C73.0709 224.879 61.4498 221.304 62.3637 227.415C63.0984 232.28 73.0709 224.879 73.0709 224.879Z" fill="#4F654D"/>
<path d="M73.0173 224.924C73.0173 224.924 70.7504 212.98 76.7178 214.566C81.4755 215.83 73.0173 224.924 73.0173 224.924Z" fill="#5C785A"/>
<path d="M61.1806 215.543C61.1806 215.543 54.5412 208.993 53.0001 213.473C51.7726 217.039 61.1806 215.543 61.1806 215.543Z" fill="#5C785A"/>
<path d="M104.018 261.875L98.49 291.291L98.1585 293.056H75.633L69.7732 261.875C69.594 260.935 69.7642 260.021 70.1674 259.25C70.8394 257.978 72.1655 257.091 73.7425 257.091H100.049C102.585 257.091 104.493 259.385 104.018 261.875Z" fill="#FCAA24"/>
<path d="M98.4989 291.291L98.1674 293.056H75.633L69.7732 261.875C69.594 260.935 69.7642 260.021 70.1674 259.25C71.2785 264.079 74.3965 275.853 79.5396 282.241C84.1092 287.913 93.2932 290.332 98.4989 291.291Z" fill="#F9835A"/>
<path d="M87.8096 258.345C87.8096 258.345 100.533 257.79 101.563 258.345C102.594 258.901 102.988 260.952 102.988 260.952L101.483 267.592C101.483 267.592 102.594 261.114 101.877 260.003C101.169 258.901 87.8096 258.345 87.8096 258.345Z" fill="#F7C481"/>
<g opacity="0.19">
<path opacity="0.6" d="M88.9567 269.608C88.9567 270.038 88.7059 270.387 88.4012 270.387C88.0966 270.387 87.8457 270.038 87.8457 269.608C87.8457 269.178 88.0966 268.828 88.4012 268.828C88.7059 268.837 88.9567 269.178 88.9567 269.608Z" fill="#C69C6D"/>
<path opacity="0.6" d="M93.0866 262.475C93.0866 262.905 92.8357 263.255 92.5311 263.255C92.2265 263.255 91.9756 262.905 91.9756 262.475C91.9756 262.045 92.2265 261.696 92.5311 261.696C92.8357 261.696 93.0866 262.045 93.0866 262.475Z" fill="#C69C6D"/>
<path opacity="0.6" d="M90.9812 276.767C90.9812 277.197 90.7303 277.546 90.4256 277.546C90.121 277.546 89.8701 277.197 89.8701 276.767C89.8701 276.337 90.121 275.987 90.4256 275.987C90.7303 275.987 90.9812 276.337 90.9812 276.767Z" fill="#C69C6D"/>
<path opacity="0.6" d="M77.613 266.821C77.613 267.251 77.3621 267.601 77.0575 267.601C76.7528 267.601 76.502 267.251 76.502 266.821C76.502 266.391 76.7528 266.042 77.0575 266.042C77.3621 266.042 77.613 266.391 77.613 266.821Z" fill="#C69C6D"/>
<path opacity="0.6" d="M83.07 281.112C83.07 281.542 82.8191 281.892 82.5145 281.892C82.2099 281.892 81.959 281.542 81.959 281.112C81.959 280.682 82.2099 280.333 82.5145 280.333C82.8191 280.333 83.07 280.682 83.07 281.112Z" fill="#C69C6D"/>
<path opacity="0.6" d="M86.5456 288.916C86.5456 289.346 86.2947 289.696 85.9901 289.696C85.6855 289.696 85.4346 289.346 85.4346 288.916C85.4346 288.486 85.6855 288.137 85.9901 288.137C86.2947 288.137 86.5456 288.486 86.5456 288.916Z" fill="#C69C6D"/>
<path opacity="0.6" d="M86.8959 278.039C86.8959 278.738 86.4927 279.311 85.9909 279.311C85.4891 279.311 85.0859 278.738 85.0859 278.039C85.0859 277.34 85.4891 276.767 85.9909 276.767C86.4927 276.767 86.8959 277.34 86.8959 278.039Z" fill="#C69C6D"/>
<path opacity="0.6" d="M96.3031 284.598C96.3031 285.297 95.8999 285.87 95.3981 285.87C94.8964 285.87 94.4932 285.297 94.4932 284.598C94.4932 283.899 94.8964 283.326 95.3981 283.326C95.8999 283.326 96.3031 283.89 96.3031 284.598Z" fill="#C69C6D"/>
<path opacity="0.6" d="M82.8636 273.801C82.8636 274.5 82.4604 275.073 81.9587 275.073C81.4569 275.073 81.0537 274.5 81.0537 273.801C81.0537 273.102 81.4569 272.528 81.9587 272.528C82.4604 272.528 82.8636 273.093 82.8636 273.801Z" fill="#C69C6D"/>
<path opacity="0.6" d="M85.0052 264.124C85.0052 264.823 84.602 265.397 84.1003 265.397C83.5985 265.397 83.1953 264.823 83.1953 264.124C83.1953 263.425 83.5985 262.852 84.1003 262.852C84.602 262.852 85.0052 263.417 85.0052 264.124Z" fill="#C69C6D"/>
<path opacity="0.6" d="M80.3011 286.865C80.3011 287.563 79.8979 288.137 79.3962 288.137C78.8944 288.137 78.4912 287.563 78.4912 286.865C78.4912 286.166 78.8944 285.592 79.3962 285.592C79.889 285.592 80.3011 286.157 80.3011 286.865Z" fill="#C69C6D"/>
<path opacity="0.6" d="M89.8617 280.332C89.8617 280.682 89.4585 280.969 88.9567 280.969C88.455 280.969 88.0518 280.682 88.0518 280.332C88.0518 279.983 88.455 279.696 88.9567 279.696C89.4585 279.696 89.8617 279.983 89.8617 280.332Z" fill="#C69C6D"/>
<path opacity="0.6" d="M91.8861 290.332C91.8861 290.681 91.4829 290.968 90.9811 290.968C90.4794 290.968 90.0762 290.681 90.0762 290.332C90.0762 289.983 90.4794 289.696 90.9811 289.696C91.4829 289.696 91.8861 289.974 91.8861 290.332Z" fill="#C69C6D"/>
<path opacity="0.6" d="M99.4037 271.023C99.4037 271.373 99.0005 271.66 98.4987 271.66C97.997 271.66 97.5938 271.373 97.5938 271.023C97.5938 270.674 97.997 270.387 98.4987 270.387C99.0005 270.387 99.4037 270.674 99.4037 271.023Z" fill="#C69C6D"/>
</g>
<path d="M217.998 286.498H214.279V291.802L217.998 291.793" fill="#804044"/>
<path d="M214.28 291.802H120.737L112.198 216.583C112.198 216.565 112.198 216.556 112.198 216.556H205.741L214.28 291.802Z" fill="#B25F65"/>
<path d="M246.679 286.498H217.998V291.793H246.679V286.498Z" fill="#804044"/>
<path d="M205.731 216.546L209.781 215.346L217.872 290.448L214.27 291.792L205.731 216.546Z" fill="#804044"/>
<path d="M112.189 216.546L116.84 215.346H209.782L205.732 216.546H112.189Z" fill="#804044"/>
<path d="M162.76 260.809C167.852 260.809 171.98 257.287 171.98 252.942C171.98 248.597 167.852 245.075 162.76 245.075C157.668 245.075 153.54 248.597 153.54 252.942C153.54 257.287 157.668 260.809 162.76 260.809Z" fill="#804044"/>
<path d="M200.902 291.802H120.737L112.198 216.583C112.476 218.258 124.563 287.994 200.902 291.802Z" fill="#804044"/>
<path d="M174.748 217.218H205.069L207.219 237.755L203.886 218.616L174.748 217.218Z" fill="#804044"/>
<path d="M271.195 16.4566L215.428 38.2163L227.853 70.0606L283.62 48.3009L271.195 16.4566Z" fill="#C8D0C7"/>
<path d="M270.853 16.5776L269.966 16.9271L260.325 38.906L260.047 39.5242L253.712 53.9856L239.251 47.642L238.633 47.3732L216.654 37.7322L215.767 38.0727L238.364 47.9824L228.857 69.6567L229.744 69.3162L238.982 48.2602L254.053 54.8637L260.665 39.793L281.721 49.0308L282.608 48.6813L260.934 39.1748L270.853 16.5776Z" fill="#FEFFFE"/>
<path d="M167.078 150.18V142.214C167.078 132.206 158.961 124.088 148.952 124.088H89.6192C79.6109 124.088 71.4932 132.206 71.4932 142.214V150.18C71.4932 160.188 79.6109 168.306 89.6192 168.306H132.278L162.159 177.221L157.258 166.299C163.091 163.279 167.078 157.196 167.078 150.18Z" fill="#C8D0C7"/>
<path d="M152.411 137.958H85.5605C84.2344 137.958 83.1592 136.883 83.1592 135.557C83.1592 134.231 84.2344 133.156 85.5605 133.156H152.42C153.746 133.156 154.821 134.231 154.821 135.557C154.812 136.883 153.737 137.958 152.411 137.958Z" fill="#FEFFFE"/>
<path d="M152.411 148.146H85.5605C84.2344 148.146 83.1592 147.071 83.1592 145.745C83.1592 144.418 84.2344 143.343 85.5605 143.343H152.42C153.746 143.343 154.821 144.418 154.821 145.745C154.812 147.071 153.737 148.146 152.411 148.146Z" fill="#FEFFFE"/>
<path d="M127.108 158.342H85.0766C84.0193 158.342 83.1592 157.482 83.1592 156.425V155.466C83.1592 154.409 84.0193 153.549 85.0766 153.549H127.108C128.165 153.549 129.025 154.409 129.025 155.466V156.425C129.025 157.482 128.174 158.342 127.108 158.342Z" fill="#FEFFFE"/>
<path d="M358.903 259.375V264.993C358.903 265.988 358.097 266.794 357.102 266.794H356.654C355.66 266.794 354.854 265.988 354.854 264.993V259.375C354.854 259.035 354.952 258.712 355.113 258.434C355.427 257.915 356 257.574 356.646 257.574H357.094C357.676 257.574 358.187 257.843 358.509 258.273C358.769 258.578 358.903 258.954 358.903 259.375Z" fill="#F79C8D"/>
<path d="M348.269 259.375V264.993C348.269 265.988 347.462 266.794 346.468 266.794H346.02C345.025 266.794 344.219 265.988 344.219 264.993V259.375C344.219 259.035 344.317 258.712 344.479 258.434C344.792 257.915 345.366 257.574 346.011 257.574H346.459C347.041 257.574 347.552 257.843 347.874 258.273C348.125 258.578 348.269 258.954 348.269 259.375Z" fill="#F79C8D"/>
<path d="M369.593 291.82H332.463C330.169 291.82 328.601 288.872 329.444 286.166L330.241 283.603L335.312 267.314C335.805 265.737 336.997 264.707 338.332 264.707H363.716C365.042 264.707 366.242 265.737 366.735 267.314L371.036 281.13L372.604 286.166C373.455 288.872 371.887 291.82 369.593 291.82Z" fill="#FCAA24"/>
<path d="M348.269 259.376V261.042H344.219V259.376C344.219 259.035 344.317 258.712 344.479 258.435L347.883 258.273C348.125 258.578 348.269 258.954 348.269 259.376Z" fill="#EF7352"/>
<path d="M358.903 259.376V261.042H354.854V259.376C354.854 259.035 354.952 258.712 355.113 258.435L358.518 258.273C358.769 258.578 358.903 258.954 358.903 259.376Z" fill="#EF7352"/>
<path d="M369.593 291.82H332.463C330.169 291.82 328.601 288.872 329.444 286.166L330.241 283.603C331.092 284.472 332.884 285.539 336.405 286.721C346.073 289.956 363.617 287.931 363.617 287.931C363.617 287.931 368.563 286.471 371.036 281.13L372.604 286.166C373.455 288.872 371.887 291.82 369.593 291.82Z" fill="#F9835A"/>
<path d="M378.105 265.854C378.105 267.296 376.931 268.461 375.498 268.461H369.933C368.706 268.461 367.658 267.601 367.38 266.409C366.887 264.277 365.606 261.141 362.255 260.352C362.076 260.307 361.887 260.289 361.708 260.289H340.464C340.276 260.289 340.097 260.307 339.917 260.352C336.566 261.141 335.276 264.277 334.792 266.409C334.524 267.601 333.466 268.461 332.248 268.461H326.684C325.241 268.461 324.067 267.296 324.076 265.854C324.076 263.891 324.336 261.141 325.51 258.712C327.382 254.824 332.732 253.811 333.852 253.641C333.977 253.623 334.111 253.614 334.237 253.614H367.944C368.079 253.614 368.204 253.623 368.33 253.641C369.45 253.811 374.79 254.824 376.662 258.712C377.845 261.141 378.105 263.891 378.105 265.854Z" fill="#FCAA24"/>
<path d="M375.068 268.461H369.934C368.706 268.461 367.658 267.6 367.38 266.409C366.888 264.276 365.606 261.14 362.255 260.352C362.076 260.307 361.888 260.289 361.709 260.289H340.464C340.276 260.289 340.097 260.307 339.918 260.352C336.567 261.14 335.277 264.276 334.793 266.409C334.524 267.6 333.467 268.461 332.248 268.461H328.557C328.852 268.461 334.157 267.789 334.354 263.64C334.551 259.501 341.047 258.766 347.247 259.035C353.448 259.304 361.736 258.175 364.038 259.035C366.341 259.904 367.936 262.323 368.438 264.706C368.939 267.099 373.034 268.21 374.736 268.255C374.925 268.255 375.032 268.326 375.068 268.461Z" fill="#F9835A"/>
<path d="M325.456 260.522C325.456 260.522 326.746 254.842 333.843 254.232C333.843 254.232 328.44 255.603 325.456 260.522Z" fill="#F9D298"/>
<path d="M334.837 271.355L336.02 267.215C336.02 267.215 336.342 265.441 338.493 265.441C340.643 265.441 343.922 265.441 343.922 265.441L338.708 266.302C338.708 266.302 336.88 266.893 336.557 267.753C336.235 268.613 334.837 271.355 334.837 271.355Z" fill="#F9D298"/>
<path d="M349.29 272.986H344.093C343.833 272.986 343.627 272.78 343.627 272.52V270.952C343.627 270.692 343.833 270.486 344.093 270.486H349.29C349.55 270.486 349.756 270.692 349.756 270.952V272.52C349.756 272.78 349.55 272.986 349.29 272.986Z" fill="#F9835A"/>
<path d="M358.895 272.986H353.698C353.439 272.986 353.232 272.78 353.232 272.52V270.952C353.232 270.692 353.439 270.486 353.698 270.486H358.895C359.155 270.486 359.361 270.692 359.361 270.952V272.52C359.352 272.78 359.146 272.986 358.895 272.986Z" fill="#F9835A"/>
<path d="M349.29 277.125H344.093C343.833 277.125 343.627 276.919 343.627 276.659V275.082C343.627 274.822 343.833 274.616 344.093 274.616H349.29C349.55 274.616 349.756 274.822 349.756 275.082V276.659C349.756 276.919 349.55 277.125 349.29 277.125Z" fill="#F9835A"/>
<path d="M358.895 277.125H353.698C353.439 277.125 353.232 276.919 353.232 276.659V275.082C353.232 274.822 353.439 274.616 353.698 274.616H358.895C359.155 274.616 359.361 274.822 359.361 275.082V276.659C359.352 276.919 359.146 277.125 358.895 277.125Z" fill="#F9835A"/>
<path d="M349.29 281.265H344.093C343.833 281.265 343.627 281.059 343.627 280.799V279.222C343.627 278.962 343.833 278.756 344.093 278.756H349.29C349.55 278.756 349.756 278.962 349.756 279.222V280.799C349.756 281.059 349.55 281.265 349.29 281.265Z" fill="#F9835A"/>
<path d="M358.895 281.265H353.698C353.439 281.265 353.232 281.059 353.232 280.799V279.222C353.232 278.962 353.439 278.756 353.698 278.756H358.895C359.155 278.756 359.361 278.962 359.361 279.222V280.799C359.352 281.059 359.146 281.265 358.895 281.265Z" fill="#F9835A"/>
<path d="M369.574 121.38C371.97 106.624 361.95 92.7188 347.194 90.3224C332.437 87.9261 318.532 97.9459 316.136 112.702C313.74 127.459 323.759 141.364 338.516 143.76C353.272 146.157 367.177 136.137 369.574 121.38Z" fill="#C8D0C7"/>
<path d="M357.273 132.108C355.266 134.186 351.655 134.536 347.435 133.407C343.529 132.358 339.111 130.047 334.963 126.642C330.814 123.237 327.687 119.34 325.904 115.72C323.978 111.795 323.629 108.184 325.268 105.819C326.209 104.833 327.383 104.197 328.637 103.919C329.793 103.66 331.021 103.704 332.167 104.063C332.732 104.242 333.198 104.663 333.431 105.21C334.139 106.831 335.124 108.516 336.37 110.2C336.719 110.666 336.845 111.267 336.728 111.84C336.513 112.879 336.056 113.883 335.33 114.761C335.33 114.77 335.321 114.77 335.321 114.779C334.658 115.585 334.658 116.75 335.375 117.521C336.567 118.811 337.911 120.074 339.371 121.275C340.832 122.476 342.337 123.542 343.833 124.465C344.72 125.011 345.867 124.796 346.53 123.981C346.53 123.972 346.539 123.972 346.539 123.963C347.265 123.085 348.161 122.44 349.138 122.028C349.675 121.804 350.285 121.813 350.813 122.063C352.704 122.95 354.55 123.596 356.279 123.981C356.861 124.106 357.363 124.474 357.65 125.002C358.232 126.06 358.51 127.251 358.474 128.443C358.456 129.715 358.062 130.997 357.273 132.108Z" fill="#FEFFFE"/>
<path d="M352.757 117.646C352.65 117.557 352.578 117.431 352.569 117.288C352.435 115.89 352.032 114.546 351.386 113.31C350.714 112.028 349.801 110.899 348.672 109.976C347.543 109.045 346.261 108.373 344.873 107.96C343.529 107.566 342.14 107.432 340.733 107.566C340.446 107.593 340.186 107.387 340.16 107.091C340.133 106.805 340.339 106.545 340.634 106.518C342.167 106.366 343.699 106.509 345.168 106.948C346.691 107.396 348.098 108.149 349.335 109.161C350.571 110.182 351.575 111.41 352.318 112.817C353.035 114.179 353.474 115.648 353.618 117.18C353.644 117.467 353.438 117.727 353.143 117.754C352.999 117.772 352.865 117.727 352.757 117.646Z" fill="#FEFFFE"/>
<path d="M355.965 117.332C355.858 117.243 355.786 117.117 355.777 116.974C355.598 115.155 355.078 113.417 354.236 111.813C353.367 110.146 352.175 108.695 350.715 107.485C349.245 106.285 347.588 105.398 345.787 104.869C344.048 104.349 342.238 104.179 340.42 104.358C340.133 104.385 339.873 104.179 339.846 103.883C339.819 103.597 340.025 103.337 340.321 103.31C342.274 103.122 344.21 103.301 346.082 103.856C348.018 104.43 349.801 105.38 351.378 106.67C352.955 107.96 354.227 109.528 355.168 111.32C356.073 113.049 356.628 114.913 356.825 116.866C356.852 117.153 356.646 117.413 356.35 117.44C356.198 117.458 356.064 117.413 355.965 117.332Z" fill="#FEFFFE"/>
<path d="M358.913 117.036C358.805 116.947 358.733 116.83 358.724 116.678C358.509 114.474 357.882 112.377 356.861 110.424C355.803 108.408 354.37 106.643 352.596 105.182C350.822 103.722 348.815 102.656 346.628 102.01C344.514 101.383 342.337 101.177 340.132 101.392C339.846 101.419 339.586 101.213 339.559 100.917C339.532 100.631 339.738 100.371 340.034 100.344C342.372 100.12 344.693 100.335 346.933 100.998C349.254 101.688 351.386 102.817 353.268 104.367C355.149 105.917 356.682 107.79 357.802 109.931C358.886 112.001 359.549 114.232 359.782 116.57C359.809 116.857 359.602 117.117 359.307 117.144C359.154 117.171 359.02 117.126 358.913 117.036Z" fill="#FEFFFE"/>
<g clip-path="url(#clip1_422_356)">
<path d="M423.76 314H21.05C19.36 314 18 312.64 18 310.96V304.05C18 302.36 19.36 301 21.05 301H423.76C425.44 301 426.81 302.36 426.81 304.05V310.96C426.81 312.64 425.44 314 423.76 314Z" fill="#5C785A"/>
</g>
</g>
<defs>
<radialGradient id="paint0_radial_422_356" cx="0" cy="0" r="1" gradientUnits="userSpaceOnUse" gradientTransform="translate(242.496 149.401) scale(7.72647)">
<stop stop-color="#F973B4"/>
<stop offset="1" stop-color="#FDB2D0"/>
</radialGradient>
<radialGradient id="paint1_radial_422_356" cx="0" cy="0" r="1" gradientUnits="userSpaceOnUse" gradientTransform="translate(217.323 150.651) scale(6.45855)">
<stop stop-color="#F981BB"/>
<stop offset="1" stop-color="#FDB2D0"/>
</radialGradient>
<clipPath id="clip0_422_356">
<rect width="435" height="314" fill="white"/>
</clipPath>
<clipPath id="clip1_422_356">
<rect width="408.81" height="13" fill="white" transform="translate(18 301)"/>
</clipPath>
</defs>
</svg>
